M48
; DRILL file {KiCad (5.1.12)-1} date 12/22/21 13:58:07
; FORMAT={-:-/ absolute / inch / decimal}
; #@! TF.CreationDate,2021-12-22T13:58:07-08:00
; #@! TF.GenerationSoftware,Kicad,Pcbnew,(5.1.12)-1
; #@! TF.FileFunction,Plated,1,2,PTH
FMAT,2
INCH
T1C0.0157
T2C0.0236
T3C0.0394
T4C0.0591
T5C0.0984
%
G90
G05
T1
X0.7143Y-1.362
X0.7143Y-2.112
X0.7143Y-2.862
X1.0954Y-1.4569
X1.0954Y-1.6451
X1.0954Y-2.2069
X1.0954Y-2.3951
X1.0954Y-2.9569
X1.2765Y-1.362
X1.2765Y-2.112
X1.2765Y-2.862
X1.4643Y-1.362
X1.4643Y-2.112
X1.4643Y-2.862
X1.4704Y-3.1451
X1.6515Y-3.612
X1.8454Y-1.4569
X1.8454Y-1.6451
X1.8454Y-2.2069
X1.8454Y-2.3951
X1.8454Y-2.9569
X1.8454Y-2.9569
X1.8454Y-2.9569
X1.9363Y-3.648
X1.9803Y-3.645
X2.0265Y-1.362
X2.0265Y-2.112
X2.0265Y-2.862
X2.0272Y-3.646
X2.2143Y-1.362
X2.2143Y-2.112
X2.2143Y-2.862
X2.2143Y-3.612
X2.5954Y-1.4569
X2.5954Y-1.6451
X2.5954Y-2.2069
X2.5954Y-2.3951
X2.5954Y-2.9569
X2.7765Y-1.362
X2.7765Y-2.112
X2.7765Y-2.862
X2.7765Y-3.612
X2.9643Y-1.362
X2.9643Y-2.112
X2.9643Y-2.862
X2.9643Y-3.612
X3.3454Y-1.4569
X3.3454Y-1.6451
X3.3454Y-2.2069
X3.3454Y-2.3951
X3.3454Y-2.9569
X3.5265Y-2.112
X3.5283Y-2.862
X3.6203Y-1.362
X3.9018Y-1.362
X3.9018Y-3.612
X3.9956Y-2.112
X4.1831Y-2.862
X4.2829Y-1.4569
X4.3767Y-1.6451
X4.3767Y-2.2069
X4.464Y-1.362
X4.464Y-3.612
X4.5578Y-2.112
X4.5642Y-2.3951
X4.5642Y-2.9569
X4.7472Y-2.8625
X4.8393Y-1.362
X4.9331Y-3.612
X5.0268Y-2.112
X5.2204Y-1.4569
X5.4015Y-1.362
X5.4018Y-2.862
X5.4079Y-1.6451
X5.4079Y-2.2069
X5.4953Y-3.612
X5.589Y-2.112
X5.5893Y-1.362
X5.7768Y-2.112
X5.7829Y-2.3951
X5.7829Y-2.9569
X5.964Y-2.862
X5.9704Y-1.4569
X6.1354Y-3.6364
X6.1354Y-3.7834
X6.1515Y-1.362
X6.1518Y-2.862
X6.1579Y-1.6451
X6.1579Y-2.2069
X6.2517Y-3.1451
X6.2808Y-3.559
X6.339Y-2.112
X6.3393Y-1.362
X6.4127Y-3.665
X6.4597Y-3.159
X6.5268Y-2.112
X6.5329Y-2.3951
X6.5329Y-2.9569
X6.5455Y-3.6123
X6.5678Y-3.025
X6.6353Y-2.9555
X6.714Y-2.862
X6.7204Y-1.4569
X6.7858Y-3.65
X6.8237Y-3.737
X6.8552Y-3.1235
X6.9015Y-1.362
X6.9018Y-2.862
X6.9079Y-1.6451
X6.9079Y-2.2069
X6.9107Y-3.62
X6.9784Y-3.0243
X6.9857Y-3.4535
X7.0017Y-3.27
X7.0717Y-3.243
X7.089Y-2.112
X7.0893Y-1.362
X7.1145Y-3.3613
X7.2408Y-3.618
X7.2768Y-2.112
X7.2829Y-2.3951
X7.2829Y-2.9569
X7.4137Y-3.612
X7.4322Y-3.554
X7.464Y-2.862
X7.4704Y-1.4569
X7.6515Y-1.362
X7.6518Y-2.862
X7.6579Y-1.6451
X7.6579Y-2.2069
X7.7129Y-3.475
X7.7387Y-3.554
X7.839Y-2.112
X7.8393Y-1.362
X8.0268Y-2.112
X8.0329Y-2.3951
X8.0329Y-2.9569
X8.214Y-2.862
X8.2204Y-1.4569
X8.2663Y-3.5064
X8.2794Y-3.3607
X8.4015Y-1.362
X8.4018Y-2.862
X8.4018Y-3.612
X8.4079Y-1.6451
X8.4079Y-2.2069
X8.589Y-2.112
X8.5893Y-1.362
X8.7768Y-2.112
X8.7829Y-2.3951
X8.7829Y-2.9569
X8.7829Y-3.1451
X8.964Y-2.862
X8.964Y-3.612
X8.9704Y-1.4569
X9.1287Y-3.878
X9.1515Y-1.362
X9.1518Y-2.862
X9.1579Y-1.6451
X9.1579Y-2.2069
X9.1992Y-3.8195
X9.2667Y-3.848
X9.339Y-2.112
X9.3393Y-1.362
X9.5268Y-2.112
X9.5329Y-2.3951
X9.5329Y-2.9569
X9.714Y-2.862
X9.7204Y-1.4569
X9.8081Y-3.612
X9.9015Y-1.362
X9.9018Y-2.862
X9.9079Y-1.6451
X9.9079Y-2.2069
X10.089Y-2.112
X10.0893Y-1.362
X10.1892Y-3.1451
X10.2768Y-2.112
X10.2829Y-2.3951
X10.2829Y-2.9569
X10.3703Y-3.612
X10.464Y-2.862
X10.4704Y-1.4569
X10.6515Y-1.362
X10.6518Y-2.862
X10.6579Y-1.6451
X10.6579Y-2.2069
X10.839Y-2.112
X10.8393Y-1.362
X11.0268Y-2.112
X11.0329Y-2.3951
X11.0329Y-2.9569
X11.214Y-2.862
X11.2143Y-3.612
X11.2204Y-1.4569
X11.4015Y-1.362
X11.4018Y-2.862
X11.4079Y-1.6451
X11.4079Y-2.2069
X11.589Y-2.112
X11.5893Y-1.362
X11.5954Y-3.1451
X11.7765Y-3.612
X11.7768Y-2.112
X11.7829Y-2.3951
X11.7829Y-2.9569
X11.964Y-2.862
X11.9643Y-3.612
X11.9704Y-1.4569
X12.1515Y-1.362
X12.1518Y-2.862
X12.1579Y-1.6451
X12.1579Y-2.2069
X12.339Y-2.112
X12.3393Y-1.362
X12.3454Y-3.1451
X12.5265Y-3.612
X12.5268Y-2.112
X12.5329Y-2.3951
X12.5329Y-2.9569
X12.714Y-2.862
X12.7143Y-3.612
X12.7204Y-1.4569
X12.9015Y-1.362
X12.9079Y-1.6451
X12.9079Y-2.2069
X13.089Y-2.112
X13.0893Y-1.362
X13.0954Y-3.1451
X13.1831Y-2.862
X13.2765Y-3.612
X13.3654Y-0.836
X13.4643Y-3.612
X13.4704Y-1.4569
X13.5642Y-2.3951
X13.5642Y-2.9569
X13.6303Y-0.904
X13.6303Y-0.9562
X13.6515Y-1.362
X13.6638Y-0.9562
X13.664Y-0.904
X13.6972Y-0.9562
X13.6974Y-0.904
X13.7307Y-0.9562
X13.7309Y-0.904
X13.7453Y-2.862
X13.7454Y-2.1125
X13.7642Y-0.9562
X13.7644Y-0.904
X13.7976Y-0.9562
X13.7978Y-0.904
X13.8027Y-1.045
X13.8311Y-0.9562
X13.8313Y-0.904
X13.8454Y-3.1451
X13.8645Y-0.9562
X13.8647Y-0.904
X14.0067Y-0.84
X14.0265Y-3.612
X14.0268Y-1.362
X14.1267Y-1.6451
X14.1267Y-2.2069
X14.2143Y-2.862
X14.2143Y-3.612
X14.3078Y-2.112
X14.5949Y-2.958
X14.5954Y-2.3951
X14.5954Y-3.1451
X14.7765Y-2.862
X14.7765Y-3.612
X14.9643Y-1.362
X14.9643Y-2.112
X14.9643Y-2.862
X14.9643Y-3.612
X15.3454Y-1.4569
X15.3454Y-1.6451
X15.3454Y-2.2069
X15.3454Y-2.3951
X15.3454Y-2.9569
X15.5265Y-2.862
X15.5265Y-3.612
T3
X9.1127Y-3.606
X9.1127Y-3.706
X9.2127Y-3.606
X9.2127Y-3.706
X9.3127Y-3.606
X9.3127Y-3.706
T4
X0.8454Y-1.075
X0.8454Y-1.825
X0.8454Y-2.575
X1.0954Y-0.975
X1.0954Y-1.725
X1.0954Y-2.475
X1.2204Y-3.325
X1.4704Y-3.225
X1.5954Y-1.075
X1.5954Y-1.825
X1.5954Y-2.575
X1.8454Y-0.975
X1.8454Y-1.725
X1.8454Y-2.475
X2.3454Y-1.075
X2.3454Y-1.825
X2.3454Y-2.575
X2.3454Y-3.325
X2.5954Y-0.975
X2.5954Y-1.725
X2.5954Y-2.475
X2.5954Y-3.225
X3.0954Y-1.075
X3.0954Y-1.825
X3.0954Y-2.575
X3.0954Y-3.325
X3.3454Y-0.975
X3.3454Y-1.725
X3.3454Y-2.475
X3.3454Y-3.225
X4.0329Y-1.075
X4.0329Y-3.325
X4.1267Y-1.825
X4.2829Y-0.975
X4.2829Y-3.225
X4.3142Y-2.575
X4.3767Y-1.725
X4.5642Y-2.475
X4.9704Y-1.075
X5.0642Y-3.325
X5.1579Y-1.825
X5.2204Y-0.975
X5.3142Y-3.225
X5.4079Y-1.725
X5.5329Y-2.575
X5.7204Y-1.075
X5.7829Y-2.475
X5.9079Y-1.825
X5.9704Y-0.975
X6.0017Y-3.325
X6.1579Y-1.725
X6.2517Y-3.225
X6.2829Y-2.575
X6.4704Y-1.075
X6.5329Y-2.475
X6.6579Y-1.825
X6.7204Y-0.975
X6.9079Y-1.725
X7.0329Y-2.575
X7.2204Y-1.075
X7.2829Y-2.475
X7.3142Y-3.325
X7.4079Y-1.825
X7.4704Y-0.975
X7.5642Y-3.225
X7.6579Y-1.725
X7.7829Y-2.575
X7.9704Y-1.075
X8.0329Y-2.475
X8.1579Y-1.825
X8.2204Y-0.975
X8.4079Y-1.725
X8.5329Y-2.575
X8.5329Y-3.325
X8.7204Y-1.075
X8.7829Y-2.475
X8.7829Y-3.225
X8.9079Y-1.825
X8.9704Y-0.975
X9.1579Y-1.725
X9.2829Y-2.575
X9.4704Y-1.075
X9.5329Y-2.475
X9.6579Y-1.825
X9.7204Y-0.975
X9.9079Y-1.725
X9.9392Y-3.325
X10.0329Y-2.575
X10.1892Y-3.225
X10.2204Y-1.075
X10.2829Y-2.475
X10.4079Y-1.825
X10.4704Y-0.975
X10.6579Y-1.725
X10.7829Y-2.575
X10.9704Y-1.075
X11.0329Y-2.475
X11.1579Y-1.825
X11.2204Y-0.975
X11.3454Y-3.325
X11.4079Y-1.725
X11.5329Y-2.575
X11.5954Y-3.225
X11.7204Y-1.075
X11.7829Y-2.475
X11.9079Y-1.825
X11.9704Y-0.975
X12.0954Y-3.325
X12.1579Y-1.725
X12.2829Y-2.575
X12.3454Y-3.225
X12.4704Y-1.075
X12.5329Y-2.475
X12.6579Y-1.825
X12.7204Y-0.975
X12.8454Y-3.325
X12.9079Y-1.725
X13.0954Y-3.225
X13.2204Y-1.075
X13.3142Y-2.575
X13.4704Y-0.975
X13.5642Y-2.475
X13.5954Y-3.325
X13.8454Y-3.225
X13.8767Y-1.825
X14.1267Y-1.725
X14.1579Y-1.075
X14.3454Y-2.575
X14.3454Y-3.325
X14.4079Y-0.975
X14.5954Y-2.475
X14.5954Y-3.225
X15.0954Y-1.075
X15.0954Y-1.825
X15.0954Y-2.575
X15.0954Y-3.325
X15.3454Y-0.975
X15.3454Y-1.725
X15.3454Y-2.475
X15.3454Y-3.225
T5
X2.1204Y-1.55
X2.1204Y-3.05
X14.8704Y-1.55
X14.8704Y-3.05
T2
G00X13.5771Y-0.7688
M15
G01X13.5771Y-0.8003
M16
G05
G00X13.5771Y-0.888
M15
G01X13.5771Y-0.9471
M16
G05
G00X13.9177Y-0.7688
M15
G01X13.9177Y-0.8003
M16
G05
G00X13.9177Y-0.888
M15
G01X13.9177Y-0.9471
M16
G05
T0
M30
