M48
; DRILL file {KiCad (5.1.12)-1} date 12/20/21 16:37:06
; FORMAT={-:-/ absolute / inch / decimal}
; #@! TF.CreationDate,2021-12-20T16:37:06-08:00
; #@! TF.GenerationSoftware,Kicad,Pcbnew,(5.1.12)-1
; #@! TF.FileFunction,NonPlated,1,2,NPTH
FMAT,2
INCH
T1C0.0669
T2C0.1201
T3C0.1575
%
G90
G05
T1
X0.9829Y-1.175
X0.9829Y-1.925
X0.9829Y-2.675
X1.3579Y-3.425
X1.3829Y-1.175
X1.3829Y-1.925
X1.3829Y-2.675
X1.7329Y-1.175
X1.7329Y-1.925
X1.7329Y-2.675
X1.7579Y-3.425
X2.1329Y-1.175
X2.1329Y-1.925
X2.1329Y-2.675
X2.4829Y-1.175
X2.4829Y-1.925
X2.4829Y-2.675
X2.4829Y-3.425
X2.8829Y-1.175
X2.8829Y-1.925
X2.8829Y-2.675
X2.8829Y-3.425
X3.2329Y-1.175
X3.2329Y-1.925
X3.2329Y-2.675
X3.2329Y-3.425
X3.6329Y-1.175
X3.6329Y-1.925
X3.6329Y-2.675
X3.6329Y-3.425
X4.0767Y-1.175
X4.0767Y-3.425
X4.1704Y-1.925
X4.3579Y-2.675
X4.4767Y-1.175
X4.4767Y-3.425
X4.5704Y-1.925
X4.7579Y-2.675
X4.9204Y-1.175
X5.0142Y-3.425
X5.1079Y-1.925
X5.3204Y-1.175
X5.4142Y-3.425
X5.4829Y-2.675
X5.5079Y-1.925
X5.6704Y-1.175
X5.8579Y-1.925
X5.8829Y-2.675
X5.9517Y-3.425
X6.0704Y-1.175
X6.2329Y-2.675
X6.2579Y-1.925
X6.3517Y-3.425
X6.4204Y-1.175
X6.6079Y-1.925
X6.6329Y-2.675
X6.8204Y-1.175
X6.9829Y-2.675
X7.0079Y-1.925
X7.1704Y-1.175
X7.2642Y-3.425
X7.3579Y-1.925
X7.3829Y-2.675
X7.5704Y-1.175
X7.6642Y-3.425
X7.7329Y-2.675
X7.7579Y-1.925
X7.9204Y-1.175
X8.1079Y-1.925
X8.1329Y-2.675
X8.3204Y-1.175
X8.4829Y-2.675
X8.4829Y-3.425
X8.5079Y-1.925
X8.6704Y-1.175
X8.8579Y-1.925
X8.8829Y-2.675
X8.8829Y-3.425
X9.0704Y-1.175
X9.2329Y-2.675
X9.2579Y-1.925
X9.4204Y-1.175
X9.6079Y-1.925
X9.6329Y-2.675
X9.8204Y-1.175
X9.8892Y-3.425
X9.9829Y-2.675
X10.0079Y-1.925
X10.1704Y-1.175
X10.2892Y-3.425
X10.3579Y-1.925
X10.3829Y-2.675
X10.5704Y-1.175
X10.7329Y-2.675
X10.7579Y-1.925
X10.9204Y-1.175
X11.1079Y-1.925
X11.1329Y-2.675
X11.2954Y-3.425
X11.3204Y-1.175
X11.4829Y-2.675
X11.5079Y-1.925
X11.6704Y-1.175
X11.6954Y-3.425
X11.8579Y-1.925
X11.8829Y-2.675
X12.0454Y-3.425
X12.0704Y-1.175
X12.2329Y-2.675
X12.2579Y-1.925
X12.4204Y-1.175
X12.4454Y-3.425
X12.6079Y-1.925
X12.6329Y-2.675
X12.7954Y-3.425
X12.8204Y-1.175
X13.0079Y-1.925
X13.0767Y-2.675
X13.1704Y-1.175
X13.1954Y-3.425
X13.4767Y-2.675
X13.5454Y-3.425
X13.5704Y-1.175
X13.8267Y-1.925
X13.9454Y-3.425
X14.1079Y-1.175
X14.1079Y-2.675
X14.2267Y-1.925
X14.2954Y-3.425
X14.5079Y-1.175
X14.5079Y-2.675
X14.6954Y-3.425
X15.0454Y-1.175
X15.0454Y-1.925
X15.0454Y-2.675
X15.0454Y-3.425
X15.4454Y-1.175
X15.4454Y-1.925
X15.4454Y-2.675
X15.4454Y-3.425
T2
X1.0894Y-3.1494
X2.0264Y-3.1494
X4.0894Y-2.3994
X5.0264Y-2.3994
X6.9957Y-3.1494
X7.9327Y-3.1494
X9.6207Y-3.1494
X10.5577Y-3.1494
X13.5582Y-1.6494
X14.4952Y-1.6494
T3
X1.0894Y-3.7494
X1.1829Y-1.175
X1.1829Y-1.925
X1.1829Y-2.675
X1.5579Y-3.425
X1.9329Y-1.175
X1.9329Y-1.925
X1.9329Y-2.675
X2.0264Y-3.7494
X2.6829Y-1.175
X2.6829Y-1.925
X2.6829Y-2.675
X2.6829Y-3.425
X3.4329Y-1.175
X3.4329Y-1.925
X3.4329Y-2.675
X3.4329Y-3.425
X4.0894Y-2.9994
X4.2767Y-1.175
X4.2767Y-3.425
X4.3704Y-1.925
X4.5579Y-2.675
X5.0264Y-2.9994
X5.1204Y-1.175
X5.2142Y-3.425
X5.3079Y-1.925
X5.6829Y-2.675
X5.8704Y-1.175
X6.0579Y-1.925
X6.1517Y-3.425
X6.4329Y-2.675
X6.6204Y-1.175
X6.8079Y-1.925
X6.9957Y-3.7494
X7.1829Y-2.675
X7.3704Y-1.175
X7.4642Y-3.425
X7.5579Y-1.925
X7.9327Y-3.7494
X7.9329Y-2.675
X8.1204Y-1.175
X8.3079Y-1.925
X8.6829Y-2.675
X8.6829Y-3.425
X8.8704Y-1.175
X9.0579Y-1.925
X9.4329Y-2.675
X9.6204Y-1.175
X9.6207Y-3.7494
X9.8079Y-1.925
X10.0892Y-3.425
X10.1829Y-2.675
X10.3704Y-1.175
X10.5577Y-3.7494
X10.5579Y-1.925
X10.9329Y-2.675
X11.1204Y-1.175
X11.3079Y-1.925
X11.4954Y-3.425
X11.6829Y-2.675
X11.8704Y-1.175
X12.0579Y-1.925
X12.2454Y-3.425
X12.4329Y-2.675
X12.6204Y-1.175
X12.8079Y-1.925
X12.9954Y-3.425
X13.2767Y-2.675
X13.3704Y-1.175
X13.5582Y-2.2494
X13.7454Y-3.425
X14.0267Y-1.925
X14.3079Y-1.175
X14.3079Y-2.675
X14.4952Y-2.2494
X14.4954Y-3.425
X15.2454Y-1.175
X15.2454Y-1.925
X15.2454Y-2.675
X15.2454Y-3.425
T0
M30
