M48
; DRILL file {KiCad (5.1.12)-1} date 12/20/21 15:10:18
; FORMAT={-:-/ absolute / inch / decimal}
; #@! TF.CreationDate,2021-12-20T15:10:18-08:00
; #@! TF.GenerationSoftware,Kicad,Pcbnew,(5.1.12)-1
; #@! TF.FileFunction,NonPlated,1,2,NPTH
FMAT,2
INCH
T1C0.0669
T2C0.1201
T3C0.1575
%
G90
G05
T1
X1.2642Y-1.175
X1.2642Y-1.925
X1.2642Y-2.675
X1.6392Y-3.425
X1.6642Y-1.175
X1.6642Y-1.925
X1.6642Y-2.675
X2.0142Y-1.175
X2.0142Y-1.925
X2.0142Y-2.675
X2.0392Y-3.425
X2.4142Y-1.175
X2.4142Y-1.925
X2.4142Y-2.675
X2.7642Y-1.175
X2.7642Y-1.925
X2.7642Y-2.675
X2.7642Y-3.425
X3.1642Y-1.175
X3.1642Y-1.925
X3.1642Y-2.675
X3.1642Y-3.425
X3.5142Y-1.175
X3.5142Y-1.925
X3.5142Y-2.675
X3.5142Y-3.425
X3.9142Y-1.175
X3.9142Y-1.925
X3.9142Y-2.675
X3.9142Y-3.425
X4.3579Y-1.175
X4.3579Y-3.425
X4.4517Y-1.925
X4.6392Y-2.675
X4.7579Y-1.175
X4.7579Y-3.425
X4.8517Y-1.925
X5.0392Y-2.675
X5.2017Y-1.175
X5.2954Y-3.425
X5.3892Y-1.925
X5.6017Y-1.175
X5.6954Y-3.425
X5.7642Y-2.675
X5.7892Y-1.925
X5.9517Y-1.175
X6.1392Y-1.925
X6.1642Y-2.675
X6.2329Y-3.425
X6.3517Y-1.175
X6.5142Y-2.675
X6.5392Y-1.925
X6.6329Y-3.425
X6.7017Y-1.175
X6.8892Y-1.925
X6.9142Y-2.675
X7.1017Y-1.175
X7.2642Y-2.675
X7.2892Y-1.925
X7.4517Y-1.175
X7.5454Y-3.425
X7.6392Y-1.925
X7.6642Y-2.675
X7.8517Y-1.175
X7.9454Y-3.425
X8.0142Y-2.675
X8.0392Y-1.925
X8.2017Y-1.175
X8.3892Y-1.925
X8.4142Y-2.675
X8.6017Y-1.175
X8.7642Y-2.675
X8.7642Y-3.425
X8.7892Y-1.925
X8.9517Y-1.175
X9.1392Y-1.925
X9.1642Y-2.675
X9.1642Y-3.425
X9.3517Y-1.175
X9.5142Y-2.675
X9.5392Y-1.925
X9.7017Y-1.175
X9.8892Y-1.925
X9.9142Y-2.675
X9.9829Y-3.425
X10.1017Y-1.175
X10.2642Y-2.675
X10.2892Y-1.925
X10.3829Y-3.425
X10.4517Y-1.175
X10.6392Y-1.925
X10.6642Y-2.675
X10.8517Y-1.175
X11.0142Y-2.675
X11.0392Y-1.925
X11.2017Y-1.175
X11.2017Y-3.425
X11.3892Y-1.925
X11.4142Y-2.675
X11.6017Y-1.175
X11.6017Y-3.425
X11.7642Y-2.675
X11.7892Y-1.925
X11.9517Y-1.175
X11.9517Y-3.425
X12.1392Y-1.925
X12.1642Y-2.675
X12.3517Y-1.175
X12.3517Y-3.425
X12.5142Y-2.675
X12.5392Y-1.925
X12.7017Y-1.175
X12.7017Y-3.425
X12.8892Y-1.925
X12.9142Y-2.675
X13.1017Y-1.175
X13.1017Y-3.425
X13.2892Y-1.925
X13.3579Y-2.675
X13.4517Y-1.175
X13.4517Y-3.425
X13.7579Y-2.675
X13.8517Y-1.175
X13.8517Y-3.425
X13.9204Y-1.925
X14.2017Y-1.175
X14.2017Y-2.675
X14.2017Y-3.425
X14.3204Y-1.925
X14.6017Y-1.175
X14.6017Y-2.675
X14.6017Y-3.425
X14.9517Y-1.175
X14.9517Y-1.925
X14.9517Y-2.675
X14.9517Y-3.425
X15.3517Y-1.175
X15.3517Y-1.925
X15.3517Y-2.675
X15.3517Y-3.425
T2
X1.3707Y-3.1494
X2.3077Y-3.1494
X4.3707Y-2.3994
X5.3077Y-2.3994
X7.2769Y-3.1494
X8.2139Y-3.1494
X9.7144Y-3.1494
X10.6514Y-3.1494
T3
X1.3707Y-3.7494
X1.4642Y-1.175
X1.4642Y-1.925
X1.4642Y-2.675
X1.8392Y-3.425
X2.2142Y-1.175
X2.2142Y-1.925
X2.2142Y-2.675
X2.3077Y-3.7494
X2.9642Y-1.175
X2.9642Y-1.925
X2.9642Y-2.675
X2.9642Y-3.425
X3.7142Y-1.175
X3.7142Y-1.925
X3.7142Y-2.675
X3.7142Y-3.425
X4.3707Y-2.9994
X4.5579Y-1.175
X4.5579Y-3.425
X4.6517Y-1.925
X4.8392Y-2.675
X5.3077Y-2.9994
X5.4017Y-1.175
X5.4954Y-3.425
X5.5892Y-1.925
X5.9642Y-2.675
X6.1517Y-1.175
X6.3392Y-1.925
X6.4329Y-3.425
X6.7142Y-2.675
X6.9017Y-1.175
X7.0892Y-1.925
X7.2769Y-3.7494
X7.4642Y-2.675
X7.6517Y-1.175
X7.7454Y-3.425
X7.8392Y-1.925
X8.2139Y-3.7494
X8.2142Y-2.675
X8.4017Y-1.175
X8.5892Y-1.925
X8.9642Y-2.675
X8.9642Y-3.425
X9.1517Y-1.175
X9.3392Y-1.925
X9.7142Y-2.675
X9.7144Y-3.7494
X9.9017Y-1.175
X10.0892Y-1.925
X10.1829Y-3.425
X10.4642Y-2.675
X10.6514Y-3.7494
X10.6517Y-1.175
X10.8392Y-1.925
X11.2142Y-2.675
X11.4017Y-1.175
X11.4017Y-3.425
X11.5892Y-1.925
X11.9642Y-2.675
X12.1517Y-1.175
X12.1517Y-3.425
X12.3392Y-1.925
X12.7142Y-2.675
X12.9017Y-1.175
X12.9017Y-3.425
X13.0892Y-1.925
X13.5579Y-2.675
X13.6517Y-1.175
X13.6517Y-3.425
X14.1204Y-1.925
X14.4017Y-1.175
X14.4017Y-2.675
X14.4017Y-3.425
X15.1517Y-1.175
X15.1517Y-1.925
X15.1517Y-2.675
X15.1517Y-3.425
T0
M30
