M48
; DRILL file {KiCad (5.1.12)-1} date 12/20/21 15:10:18
; FORMAT={-:-/ absolute / inch / decimal}
; #@! TF.CreationDate,2021-12-20T15:10:18-08:00
; #@! TF.GenerationSoftware,Kicad,Pcbnew,(5.1.12)-1
; #@! TF.FileFunction,Plated,1,2,PTH
FMAT,2
INCH
T1C0.0157
T2C0.0236
T3C0.0394
T4C0.0591
T5C0.0984
%
G90
G05
T1
X1.1831Y-1.362
X1.1831Y-2.112
X1.1831Y-2.862
X1.5642Y-1.4569
X1.5642Y-1.6451
X1.5642Y-2.2069
X1.5642Y-2.3951
X1.5642Y-2.9569
X1.7453Y-1.362
X1.7453Y-2.112
X1.7453Y-2.862
X1.9331Y-1.362
X1.9331Y-2.112
X1.9331Y-2.862
X1.9392Y-3.1451
X2.1203Y-3.612
X2.3142Y-1.4569
X2.3142Y-1.6451
X2.3142Y-2.2069
X2.3142Y-2.3951
X2.3142Y-2.9569
X2.3142Y-2.9569
X2.3142Y-2.9569
X2.405Y-3.648
X2.449Y-3.645
X2.4953Y-1.362
X2.4953Y-2.112
X2.4953Y-2.862
X2.496Y-3.646
X2.6831Y-1.362
X2.6831Y-2.112
X2.6831Y-2.862
X2.6831Y-3.612
X3.0642Y-1.4569
X3.0642Y-1.6451
X3.0642Y-2.2069
X3.0642Y-2.3951
X3.0642Y-2.9569
X3.2453Y-1.362
X3.2453Y-2.112
X3.2453Y-2.862
X3.2453Y-3.612
X3.4331Y-1.362
X3.4331Y-2.112
X3.4331Y-2.862
X3.4331Y-3.612
X3.8142Y-1.4569
X3.8142Y-1.6451
X3.8142Y-2.2069
X3.8142Y-2.3951
X3.8142Y-2.9569
X3.9953Y-1.362
X3.9953Y-2.112
X3.997Y-2.862
X4.2768Y-1.362
X4.2768Y-3.612
X4.3706Y-2.112
X4.5581Y-2.862
X4.6579Y-1.4569
X4.7517Y-1.6451
X4.7517Y-2.2069
X4.839Y-1.362
X4.839Y-3.612
X4.9328Y-2.112
X4.9392Y-2.3951
X4.9392Y-2.9569
X5.1206Y-1.362
X5.1222Y-2.8625
X5.2143Y-3.612
X5.3081Y-2.112
X5.5017Y-1.4569
X5.6828Y-1.362
X5.6831Y-2.862
X5.6892Y-1.6451
X5.6892Y-2.2069
X5.7765Y-3.612
X5.835Y-3.768
X5.8703Y-2.112
X5.8706Y-1.362
X6.049Y-3.671
X6.0581Y-2.112
X6.0642Y-2.3951
X6.0642Y-2.9569
X6.2453Y-2.862
X6.2517Y-1.4569
X6.4166Y-3.6364
X6.4166Y-3.7834
X6.4328Y-1.362
X6.4331Y-2.862
X6.4392Y-1.6451
X6.4392Y-2.2069
X6.5329Y-3.1451
X6.562Y-3.559
X6.6203Y-2.112
X6.6206Y-1.362
X6.694Y-3.665
X6.741Y-3.159
X6.8081Y-2.112
X6.8142Y-2.3951
X6.8142Y-2.9569
X6.8267Y-3.6123
X6.849Y-3.025
X6.9165Y-2.9555
X6.9953Y-2.862
X7.0017Y-1.4569
X7.067Y-3.65
X7.105Y-3.737
X7.1365Y-3.1235
X7.1828Y-1.362
X7.1831Y-2.862
X7.1892Y-1.6451
X7.1892Y-2.2069
X7.2597Y-3.0243
X7.267Y-3.4535
X7.267Y-3.608
X7.283Y-3.27
X7.353Y-3.243
X7.3703Y-2.112
X7.3706Y-1.362
X7.3957Y-3.3613
X7.522Y-3.618
X7.5581Y-2.112
X7.5642Y-2.3951
X7.5642Y-2.9569
X7.695Y-3.612
X7.7135Y-3.554
X7.7453Y-2.862
X7.7517Y-1.4569
X7.9328Y-1.362
X7.9331Y-2.862
X7.9392Y-1.6451
X7.9392Y-2.2069
X7.9942Y-3.475
X8.1203Y-2.112
X8.1206Y-1.362
X8.3081Y-2.112
X8.3142Y-2.3951
X8.3142Y-2.9569
X8.4953Y-2.862
X8.5017Y-1.4569
X8.6828Y-1.362
X8.6831Y-2.862
X8.6831Y-3.612
X8.6892Y-1.6451
X8.6892Y-2.2069
X8.8703Y-2.112
X8.8706Y-1.362
X9.0581Y-2.112
X9.0642Y-2.3951
X9.0642Y-2.9569
X9.0642Y-3.1451
X9.2453Y-2.862
X9.2453Y-3.612
X9.2517Y-1.4569
X9.4328Y-1.362
X9.4331Y-2.862
X9.4392Y-1.6451
X9.4392Y-2.2069
X9.6203Y-2.112
X9.6206Y-1.362
X9.8081Y-2.112
X9.8142Y-2.3951
X9.8142Y-2.9569
X9.9018Y-3.612
X9.9953Y-2.862
X10.0017Y-1.4569
X10.1828Y-1.362
X10.1831Y-2.862
X10.1892Y-1.6451
X10.1892Y-2.2069
X10.2829Y-3.1451
X10.3703Y-2.112
X10.3706Y-1.362
X10.464Y-3.612
X10.5581Y-2.112
X10.5642Y-2.3951
X10.5642Y-2.9569
X10.7453Y-2.862
X10.7517Y-1.4569
X10.9328Y-1.362
X10.9331Y-2.862
X10.9392Y-1.6451
X10.9392Y-2.2069
X11.1203Y-2.112
X11.1206Y-1.362
X11.1206Y-3.612
X11.3081Y-2.112
X11.3142Y-2.3951
X11.3142Y-2.9569
X11.4953Y-2.862
X11.5017Y-1.4569
X11.5017Y-3.1451
X11.6828Y-1.362
X11.6828Y-3.612
X11.6831Y-2.862
X11.6892Y-1.6451
X11.6892Y-2.2069
X11.8703Y-2.112
X11.8706Y-1.362
X11.8706Y-3.612
X12.0581Y-2.112
X12.0642Y-2.3951
X12.0642Y-2.9569
X12.2453Y-2.862
X12.2517Y-1.4569
X12.2517Y-3.1451
X12.4328Y-1.362
X12.4328Y-3.612
X12.4331Y-2.862
X12.4392Y-1.6451
X12.4392Y-2.2069
X12.6203Y-2.112
X12.6206Y-1.362
X12.6206Y-3.612
X12.8081Y-2.112
X12.8142Y-2.3951
X12.8142Y-2.9569
X12.9953Y-2.862
X13.0017Y-1.4569
X13.0017Y-3.1451
X13.1828Y-1.362
X13.1828Y-3.612
X13.1892Y-1.6451
X13.1892Y-2.2069
X13.2768Y-2.862
X13.3703Y-2.112
X13.3706Y-1.362
X13.3706Y-3.612
X13.6467Y-0.836
X13.6579Y-2.3951
X13.6579Y-2.9569
X13.7517Y-1.4569
X13.7517Y-3.1451
X13.839Y-2.862
X13.8393Y-2.112
X13.9115Y-0.904
X13.9115Y-0.9562
X13.9328Y-1.362
X13.9328Y-3.612
X13.945Y-0.9562
X13.9452Y-0.904
X13.9785Y-0.9562
X13.9787Y-0.904
X14.0119Y-0.9562
X14.0121Y-0.904
X14.0454Y-0.9562
X14.0456Y-0.904
X14.0789Y-0.9562
X14.0791Y-0.904
X14.084Y-1.045
X14.1123Y-0.9562
X14.1125Y-0.904
X14.1206Y-1.362
X14.1206Y-2.862
X14.1206Y-3.612
X14.1458Y-0.9562
X14.146Y-0.904
X14.2204Y-1.6451
X14.2204Y-2.2069
X14.2879Y-0.84
X14.4015Y-2.112
X14.5017Y-2.3951
X14.5017Y-2.9569
X14.5017Y-3.1451
X14.6828Y-2.862
X14.6828Y-3.612
X14.8706Y-1.362
X14.8706Y-2.112
X14.8706Y-2.862
X14.8706Y-3.612
X15.2517Y-1.4569
X15.2517Y-1.6451
X15.2517Y-2.2069
X15.2517Y-2.3951
X15.2517Y-2.9569
X15.4328Y-2.862
X15.4328Y-3.612
T3
X5.932Y-3.29
X5.932Y-3.39
X5.932Y-3.49
X6.032Y-3.29
X6.032Y-3.39
X6.032Y-3.49
T4
X1.3142Y-1.075
X1.3142Y-1.825
X1.3142Y-2.575
X1.5642Y-0.975
X1.5642Y-1.725
X1.5642Y-2.475
X1.6892Y-3.325
X1.9392Y-3.225
X2.0642Y-1.075
X2.0642Y-1.825
X2.0642Y-2.575
X2.3142Y-0.975
X2.3142Y-1.725
X2.3142Y-2.475
X2.8142Y-1.075
X2.8142Y-1.825
X2.8142Y-2.575
X2.8142Y-3.325
X3.0642Y-0.975
X3.0642Y-1.725
X3.0642Y-2.475
X3.0642Y-3.225
X3.5642Y-1.075
X3.5642Y-1.825
X3.5642Y-2.575
X3.5642Y-3.325
X3.8142Y-0.975
X3.8142Y-1.725
X3.8142Y-2.475
X3.8142Y-3.225
X4.4079Y-1.075
X4.4079Y-3.325
X4.5017Y-1.825
X4.6579Y-0.975
X4.6579Y-3.225
X4.6892Y-2.575
X4.7517Y-1.725
X4.9392Y-2.475
X5.2517Y-1.075
X5.3454Y-3.325
X5.4392Y-1.825
X5.5017Y-0.975
X5.5954Y-3.225
X5.6892Y-1.725
X5.8142Y-2.575
X6.0017Y-1.075
X6.0642Y-2.475
X6.1892Y-1.825
X6.2517Y-0.975
X6.2829Y-3.325
X6.4392Y-1.725
X6.5329Y-3.225
X6.5642Y-2.575
X6.7517Y-1.075
X6.8142Y-2.475
X6.9392Y-1.825
X7.0017Y-0.975
X7.1892Y-1.725
X7.3142Y-2.575
X7.5017Y-1.075
X7.5642Y-2.475
X7.5954Y-3.325
X7.6892Y-1.825
X7.7517Y-0.975
X7.8454Y-3.225
X7.9392Y-1.725
X8.0642Y-2.575
X8.2517Y-1.075
X8.3142Y-2.475
X8.4392Y-1.825
X8.5017Y-0.975
X8.6892Y-1.725
X8.8142Y-2.575
X8.8142Y-3.325
X9.0017Y-1.075
X9.0642Y-2.475
X9.0642Y-3.225
X9.1892Y-1.825
X9.2517Y-0.975
X9.4392Y-1.725
X9.5642Y-2.575
X9.7517Y-1.075
X9.8142Y-2.475
X9.9392Y-1.825
X10.0017Y-0.975
X10.0329Y-3.325
X10.1892Y-1.725
X10.2829Y-3.225
X10.3142Y-2.575
X10.5017Y-1.075
X10.5642Y-2.475
X10.6892Y-1.825
X10.7517Y-0.975
X10.9392Y-1.725
X11.0642Y-2.575
X11.2517Y-1.075
X11.2517Y-3.325
X11.3142Y-2.475
X11.4392Y-1.825
X11.5017Y-0.975
X11.5017Y-3.225
X11.6892Y-1.725
X11.8142Y-2.575
X12.0017Y-1.075
X12.0017Y-3.325
X12.0642Y-2.475
X12.1892Y-1.825
X12.2517Y-0.975
X12.2517Y-3.225
X12.4392Y-1.725
X12.5642Y-2.575
X12.7517Y-1.075
X12.7517Y-3.325
X12.8142Y-2.475
X12.9392Y-1.825
X13.0017Y-0.975
X13.0017Y-3.225
X13.1892Y-1.725
X13.4079Y-2.575
X13.5017Y-1.075
X13.5017Y-3.325
X13.6579Y-2.475
X13.7517Y-0.975
X13.7517Y-3.225
X13.9704Y-1.825
X14.2204Y-1.725
X14.2517Y-1.075
X14.2517Y-2.575
X14.2517Y-3.325
X14.5017Y-0.975
X14.5017Y-2.475
X14.5017Y-3.225
X15.0017Y-1.075
X15.0017Y-1.825
X15.0017Y-2.575
X15.0017Y-3.325
X15.2517Y-0.975
X15.2517Y-1.725
X15.2517Y-2.475
X15.2517Y-3.225
T5
X2.5892Y-1.55
X2.5892Y-3.05
X14.7767Y-1.55
X14.7767Y-3.05
T2
G00X13.8584Y-0.7688
M15
G01X13.8584Y-0.8003
M16
G05
G00X13.8584Y-0.888
M15
G01X13.8584Y-0.9471
M16
G05
G00X14.1989Y-0.7688
M15
G01X14.1989Y-0.8003
M16
G05
G00X14.1989Y-0.888
M15
G01X14.1989Y-0.9471
M16
G05
T0
M30
