G04 #@! TF.GenerationSoftware,KiCad,Pcbnew,(5.1.12)-1*
G04 #@! TF.CreationDate,2021-12-20T16:37:03-08:00*
G04 #@! TF.ProjectId,logboi,6c6f6762-6f69-42e6-9b69-6361645f7063,rev?*
G04 #@! TF.SameCoordinates,Original*
G04 #@! TF.FileFunction,Copper,L2,Bot*
G04 #@! TF.FilePolarity,Positive*
%FSLAX46Y46*%
G04 Gerber Fmt 4.6, Leading zero omitted, Abs format (unit mm)*
G04 Created by KiCad (PCBNEW (5.1.12)-1) date 2021-12-20 16:37:03*
%MOMM*%
%LPD*%
G01*
G04 APERTURE LIST*
G04 #@! TA.AperFunction,ComponentPad*
%ADD10C,2.200000*%
G04 #@! TD*
G04 #@! TA.AperFunction,ComponentPad*
%ADD11C,4.500000*%
G04 #@! TD*
G04 #@! TA.AperFunction,SMDPad,CuDef*
%ADD12R,0.500000X0.500000*%
G04 #@! TD*
G04 #@! TA.AperFunction,SMDPad,CuDef*
%ADD13R,1.800000X1.100000*%
G04 #@! TD*
G04 #@! TA.AperFunction,SMDPad,CuDef*
%ADD14R,1.400000X1.200000*%
G04 #@! TD*
G04 #@! TA.AperFunction,SMDPad,CuDef*
%ADD15R,5.600000X5.600000*%
G04 #@! TD*
G04 #@! TA.AperFunction,ComponentPad*
%ADD16C,0.650000*%
G04 #@! TD*
G04 #@! TA.AperFunction,ComponentPad*
%ADD17O,0.900000X2.400000*%
G04 #@! TD*
G04 #@! TA.AperFunction,ComponentPad*
%ADD18O,0.900000X1.700000*%
G04 #@! TD*
G04 #@! TA.AperFunction,ComponentPad*
%ADD19O,1.700000X1.700000*%
G04 #@! TD*
G04 #@! TA.AperFunction,ComponentPad*
%ADD20R,1.700000X1.700000*%
G04 #@! TD*
G04 #@! TA.AperFunction,ViaPad*
%ADD21C,0.800000*%
G04 #@! TD*
G04 #@! TA.AperFunction,Conductor*
%ADD22C,0.250000*%
G04 #@! TD*
G04 #@! TA.AperFunction,Conductor*
%ADD23C,0.254000*%
G04 #@! TD*
G04 #@! TA.AperFunction,Conductor*
%ADD24C,0.100000*%
G04 #@! TD*
G04 APERTURE END LIST*
D10*
X352467500Y-46355000D03*
X358817500Y-43815000D03*
X252455000Y-84455000D03*
X258805000Y-81915000D03*
X359611250Y-65405000D03*
X365961250Y-62865000D03*
X359611250Y-27305000D03*
X365961250Y-24765000D03*
D11*
X377708750Y-77470000D03*
X58621250Y-39370000D03*
X58621250Y-77470000D03*
X377708750Y-39370000D03*
D12*
X383423750Y-89612400D03*
X383423750Y-91812400D03*
X383398350Y-70528000D03*
X383398350Y-72728000D03*
X383423750Y-51605000D03*
X383423750Y-53805000D03*
X383423750Y-32555000D03*
X383423750Y-34755000D03*
X364348350Y-89578000D03*
X364348350Y-91778000D03*
X345298350Y-89578000D03*
X345298350Y-91778000D03*
X326248350Y-89578000D03*
X326248350Y-91778000D03*
X307249150Y-89578000D03*
X307249150Y-91778000D03*
X288199150Y-89578000D03*
X288199150Y-91778000D03*
X252480400Y-89578000D03*
X252480400Y-91778000D03*
X216761650Y-89578000D03*
X216761650Y-91778000D03*
X185805400Y-89603400D03*
X185805400Y-91803400D03*
X152442500Y-89705000D03*
X152442500Y-91905000D03*
X128655400Y-89603400D03*
X128655400Y-91803400D03*
X104842900Y-89603400D03*
X104842900Y-91803400D03*
X83411650Y-89603400D03*
X83411650Y-91803400D03*
X64361650Y-89603400D03*
X64361650Y-91803400D03*
X35761250Y-89705000D03*
X35761250Y-91905000D03*
X359585850Y-70528000D03*
X359585850Y-72728000D03*
X333392100Y-70528000D03*
X333392100Y-72728000D03*
X311960850Y-70528000D03*
X311960850Y-72728000D03*
X292961650Y-70528000D03*
X292961650Y-72728000D03*
X273911650Y-70528000D03*
X273911650Y-72728000D03*
X254861650Y-70528000D03*
X254861650Y-72728000D03*
X235811650Y-70528000D03*
X235811650Y-72728000D03*
X216761650Y-70528000D03*
X216761650Y-72728000D03*
X197686250Y-70545600D03*
X197686250Y-72745600D03*
X178661650Y-70553400D03*
X178661650Y-72753400D03*
X159611650Y-70553400D03*
X159611650Y-72753400D03*
X140561650Y-70553400D03*
X140561650Y-72753400D03*
X111986650Y-70553400D03*
X111986650Y-72753400D03*
X83411650Y-70553400D03*
X83411650Y-72753400D03*
X64361650Y-70553400D03*
X64361650Y-72753400D03*
X45286250Y-70578800D03*
X45286250Y-72778800D03*
X26236250Y-70578800D03*
X26236250Y-72778800D03*
X352467500Y-51503400D03*
X352467500Y-53703400D03*
X321511250Y-51503400D03*
X321511250Y-53703400D03*
X302461250Y-51503400D03*
X302461250Y-53703400D03*
X283411250Y-51503400D03*
X283411250Y-53703400D03*
X264361250Y-51503400D03*
X264361250Y-53703400D03*
X245311250Y-51503400D03*
X245311250Y-53703400D03*
X226261250Y-51503400D03*
X226261250Y-53703400D03*
X207211250Y-51503400D03*
X207211250Y-53703400D03*
X188161250Y-51503400D03*
X188161250Y-53703400D03*
X169111250Y-51503400D03*
X169111250Y-53703400D03*
X150061250Y-51503400D03*
X150061250Y-53703400D03*
X131011250Y-51503400D03*
X131011250Y-53703400D03*
X107198750Y-51503400D03*
X107198750Y-53703400D03*
X83360850Y-51503400D03*
X83360850Y-53703400D03*
X64310850Y-51503400D03*
X64310850Y-53703400D03*
X45260850Y-51503400D03*
X45260850Y-53703400D03*
X26210850Y-51503400D03*
X26210850Y-53703400D03*
X359611250Y-32555000D03*
X359611250Y-34755000D03*
X335798750Y-32453400D03*
X335798750Y-34653400D03*
X316748750Y-32453400D03*
X316748750Y-34653400D03*
X297698750Y-32453400D03*
X297698750Y-34653400D03*
X278648750Y-32453400D03*
X278648750Y-34653400D03*
X259598750Y-32453400D03*
X259598750Y-34653400D03*
X240548750Y-32453400D03*
X240548750Y-34653400D03*
X221498750Y-32453400D03*
X221498750Y-34653400D03*
X202448750Y-32453400D03*
X202448750Y-34653400D03*
X183398750Y-32453400D03*
X183398750Y-34653400D03*
X164348750Y-32453400D03*
X164348750Y-34653400D03*
X145298750Y-32453400D03*
X145298750Y-34653400D03*
X126248750Y-32453400D03*
X126248750Y-34653400D03*
X104817500Y-32453400D03*
X104817500Y-34653400D03*
X83386250Y-32453400D03*
X83386250Y-34653400D03*
X64336250Y-32453400D03*
X64336250Y-34653400D03*
X45286250Y-32453400D03*
X45286250Y-34653400D03*
X26236250Y-32453400D03*
X26236250Y-34653400D03*
G04 #@! TA.AperFunction,SMDPad,CuDef*
G36*
G01*
X348674850Y-33794400D02*
X347424850Y-33794400D01*
G75*
G02*
X347174850Y-33544400I0J250000D01*
G01*
X347174850Y-32794400D01*
G75*
G02*
X347424850Y-32544400I250000J0D01*
G01*
X348674850Y-32544400D01*
G75*
G02*
X348924850Y-32794400I0J-250000D01*
G01*
X348924850Y-33544400D01*
G75*
G02*
X348674850Y-33794400I-250000J0D01*
G01*
G37*
G04 #@! TD.AperFunction*
G04 #@! TA.AperFunction,SMDPad,CuDef*
G36*
G01*
X348674850Y-36594400D02*
X347424850Y-36594400D01*
G75*
G02*
X347174850Y-36344400I0J250000D01*
G01*
X347174850Y-35594400D01*
G75*
G02*
X347424850Y-35344400I250000J0D01*
G01*
X348674850Y-35344400D01*
G75*
G02*
X348924850Y-35594400I0J-250000D01*
G01*
X348924850Y-36344400D01*
G75*
G02*
X348674850Y-36594400I-250000J0D01*
G01*
G37*
G04 #@! TD.AperFunction*
D13*
X201808250Y-85363000D03*
X208008250Y-89063000D03*
X201808250Y-89063000D03*
X208008250Y-85363000D03*
D14*
X162164850Y-98944800D03*
X164364850Y-98944800D03*
X164364850Y-97244800D03*
X162164850Y-97244800D03*
D15*
X170122850Y-86918800D03*
G04 #@! TA.AperFunction,SMDPad,CuDef*
G36*
G01*
X172997850Y-83106300D02*
X172997850Y-83856300D01*
G75*
G02*
X172935350Y-83918800I-62500J0D01*
G01*
X172810350Y-83918800D01*
G75*
G02*
X172747850Y-83856300I0J62500D01*
G01*
X172747850Y-83106300D01*
G75*
G02*
X172810350Y-83043800I62500J0D01*
G01*
X172935350Y-83043800D01*
G75*
G02*
X172997850Y-83106300I0J-62500D01*
G01*
G37*
G04 #@! TD.AperFunction*
G04 #@! TA.AperFunction,SMDPad,CuDef*
G36*
G01*
X172497850Y-83106300D02*
X172497850Y-83856300D01*
G75*
G02*
X172435350Y-83918800I-62500J0D01*
G01*
X172310350Y-83918800D01*
G75*
G02*
X172247850Y-83856300I0J62500D01*
G01*
X172247850Y-83106300D01*
G75*
G02*
X172310350Y-83043800I62500J0D01*
G01*
X172435350Y-83043800D01*
G75*
G02*
X172497850Y-83106300I0J-62500D01*
G01*
G37*
G04 #@! TD.AperFunction*
G04 #@! TA.AperFunction,SMDPad,CuDef*
G36*
G01*
X171997850Y-83106300D02*
X171997850Y-83856300D01*
G75*
G02*
X171935350Y-83918800I-62500J0D01*
G01*
X171810350Y-83918800D01*
G75*
G02*
X171747850Y-83856300I0J62500D01*
G01*
X171747850Y-83106300D01*
G75*
G02*
X171810350Y-83043800I62500J0D01*
G01*
X171935350Y-83043800D01*
G75*
G02*
X171997850Y-83106300I0J-62500D01*
G01*
G37*
G04 #@! TD.AperFunction*
G04 #@! TA.AperFunction,SMDPad,CuDef*
G36*
G01*
X171497850Y-83106300D02*
X171497850Y-83856300D01*
G75*
G02*
X171435350Y-83918800I-62500J0D01*
G01*
X171310350Y-83918800D01*
G75*
G02*
X171247850Y-83856300I0J62500D01*
G01*
X171247850Y-83106300D01*
G75*
G02*
X171310350Y-83043800I62500J0D01*
G01*
X171435350Y-83043800D01*
G75*
G02*
X171497850Y-83106300I0J-62500D01*
G01*
G37*
G04 #@! TD.AperFunction*
G04 #@! TA.AperFunction,SMDPad,CuDef*
G36*
G01*
X170997850Y-83106300D02*
X170997850Y-83856300D01*
G75*
G02*
X170935350Y-83918800I-62500J0D01*
G01*
X170810350Y-83918800D01*
G75*
G02*
X170747850Y-83856300I0J62500D01*
G01*
X170747850Y-83106300D01*
G75*
G02*
X170810350Y-83043800I62500J0D01*
G01*
X170935350Y-83043800D01*
G75*
G02*
X170997850Y-83106300I0J-62500D01*
G01*
G37*
G04 #@! TD.AperFunction*
G04 #@! TA.AperFunction,SMDPad,CuDef*
G36*
G01*
X170497850Y-83106300D02*
X170497850Y-83856300D01*
G75*
G02*
X170435350Y-83918800I-62500J0D01*
G01*
X170310350Y-83918800D01*
G75*
G02*
X170247850Y-83856300I0J62500D01*
G01*
X170247850Y-83106300D01*
G75*
G02*
X170310350Y-83043800I62500J0D01*
G01*
X170435350Y-83043800D01*
G75*
G02*
X170497850Y-83106300I0J-62500D01*
G01*
G37*
G04 #@! TD.AperFunction*
G04 #@! TA.AperFunction,SMDPad,CuDef*
G36*
G01*
X169997850Y-83106300D02*
X169997850Y-83856300D01*
G75*
G02*
X169935350Y-83918800I-62500J0D01*
G01*
X169810350Y-83918800D01*
G75*
G02*
X169747850Y-83856300I0J62500D01*
G01*
X169747850Y-83106300D01*
G75*
G02*
X169810350Y-83043800I62500J0D01*
G01*
X169935350Y-83043800D01*
G75*
G02*
X169997850Y-83106300I0J-62500D01*
G01*
G37*
G04 #@! TD.AperFunction*
G04 #@! TA.AperFunction,SMDPad,CuDef*
G36*
G01*
X169497850Y-83106300D02*
X169497850Y-83856300D01*
G75*
G02*
X169435350Y-83918800I-62500J0D01*
G01*
X169310350Y-83918800D01*
G75*
G02*
X169247850Y-83856300I0J62500D01*
G01*
X169247850Y-83106300D01*
G75*
G02*
X169310350Y-83043800I62500J0D01*
G01*
X169435350Y-83043800D01*
G75*
G02*
X169497850Y-83106300I0J-62500D01*
G01*
G37*
G04 #@! TD.AperFunction*
G04 #@! TA.AperFunction,SMDPad,CuDef*
G36*
G01*
X168997850Y-83106300D02*
X168997850Y-83856300D01*
G75*
G02*
X168935350Y-83918800I-62500J0D01*
G01*
X168810350Y-83918800D01*
G75*
G02*
X168747850Y-83856300I0J62500D01*
G01*
X168747850Y-83106300D01*
G75*
G02*
X168810350Y-83043800I62500J0D01*
G01*
X168935350Y-83043800D01*
G75*
G02*
X168997850Y-83106300I0J-62500D01*
G01*
G37*
G04 #@! TD.AperFunction*
G04 #@! TA.AperFunction,SMDPad,CuDef*
G36*
G01*
X168497850Y-83106300D02*
X168497850Y-83856300D01*
G75*
G02*
X168435350Y-83918800I-62500J0D01*
G01*
X168310350Y-83918800D01*
G75*
G02*
X168247850Y-83856300I0J62500D01*
G01*
X168247850Y-83106300D01*
G75*
G02*
X168310350Y-83043800I62500J0D01*
G01*
X168435350Y-83043800D01*
G75*
G02*
X168497850Y-83106300I0J-62500D01*
G01*
G37*
G04 #@! TD.AperFunction*
G04 #@! TA.AperFunction,SMDPad,CuDef*
G36*
G01*
X167997850Y-83106300D02*
X167997850Y-83856300D01*
G75*
G02*
X167935350Y-83918800I-62500J0D01*
G01*
X167810350Y-83918800D01*
G75*
G02*
X167747850Y-83856300I0J62500D01*
G01*
X167747850Y-83106300D01*
G75*
G02*
X167810350Y-83043800I62500J0D01*
G01*
X167935350Y-83043800D01*
G75*
G02*
X167997850Y-83106300I0J-62500D01*
G01*
G37*
G04 #@! TD.AperFunction*
G04 #@! TA.AperFunction,SMDPad,CuDef*
G36*
G01*
X167497850Y-83106300D02*
X167497850Y-83856300D01*
G75*
G02*
X167435350Y-83918800I-62500J0D01*
G01*
X167310350Y-83918800D01*
G75*
G02*
X167247850Y-83856300I0J62500D01*
G01*
X167247850Y-83106300D01*
G75*
G02*
X167310350Y-83043800I62500J0D01*
G01*
X167435350Y-83043800D01*
G75*
G02*
X167497850Y-83106300I0J-62500D01*
G01*
G37*
G04 #@! TD.AperFunction*
G04 #@! TA.AperFunction,SMDPad,CuDef*
G36*
G01*
X167122850Y-84106300D02*
X167122850Y-84231300D01*
G75*
G02*
X167060350Y-84293800I-62500J0D01*
G01*
X166310350Y-84293800D01*
G75*
G02*
X166247850Y-84231300I0J62500D01*
G01*
X166247850Y-84106300D01*
G75*
G02*
X166310350Y-84043800I62500J0D01*
G01*
X167060350Y-84043800D01*
G75*
G02*
X167122850Y-84106300I0J-62500D01*
G01*
G37*
G04 #@! TD.AperFunction*
G04 #@! TA.AperFunction,SMDPad,CuDef*
G36*
G01*
X167122850Y-84606300D02*
X167122850Y-84731300D01*
G75*
G02*
X167060350Y-84793800I-62500J0D01*
G01*
X166310350Y-84793800D01*
G75*
G02*
X166247850Y-84731300I0J62500D01*
G01*
X166247850Y-84606300D01*
G75*
G02*
X166310350Y-84543800I62500J0D01*
G01*
X167060350Y-84543800D01*
G75*
G02*
X167122850Y-84606300I0J-62500D01*
G01*
G37*
G04 #@! TD.AperFunction*
G04 #@! TA.AperFunction,SMDPad,CuDef*
G36*
G01*
X167122850Y-85106300D02*
X167122850Y-85231300D01*
G75*
G02*
X167060350Y-85293800I-62500J0D01*
G01*
X166310350Y-85293800D01*
G75*
G02*
X166247850Y-85231300I0J62500D01*
G01*
X166247850Y-85106300D01*
G75*
G02*
X166310350Y-85043800I62500J0D01*
G01*
X167060350Y-85043800D01*
G75*
G02*
X167122850Y-85106300I0J-62500D01*
G01*
G37*
G04 #@! TD.AperFunction*
G04 #@! TA.AperFunction,SMDPad,CuDef*
G36*
G01*
X167122850Y-85606300D02*
X167122850Y-85731300D01*
G75*
G02*
X167060350Y-85793800I-62500J0D01*
G01*
X166310350Y-85793800D01*
G75*
G02*
X166247850Y-85731300I0J62500D01*
G01*
X166247850Y-85606300D01*
G75*
G02*
X166310350Y-85543800I62500J0D01*
G01*
X167060350Y-85543800D01*
G75*
G02*
X167122850Y-85606300I0J-62500D01*
G01*
G37*
G04 #@! TD.AperFunction*
G04 #@! TA.AperFunction,SMDPad,CuDef*
G36*
G01*
X167122850Y-86106300D02*
X167122850Y-86231300D01*
G75*
G02*
X167060350Y-86293800I-62500J0D01*
G01*
X166310350Y-86293800D01*
G75*
G02*
X166247850Y-86231300I0J62500D01*
G01*
X166247850Y-86106300D01*
G75*
G02*
X166310350Y-86043800I62500J0D01*
G01*
X167060350Y-86043800D01*
G75*
G02*
X167122850Y-86106300I0J-62500D01*
G01*
G37*
G04 #@! TD.AperFunction*
G04 #@! TA.AperFunction,SMDPad,CuDef*
G36*
G01*
X167122850Y-86606300D02*
X167122850Y-86731300D01*
G75*
G02*
X167060350Y-86793800I-62500J0D01*
G01*
X166310350Y-86793800D01*
G75*
G02*
X166247850Y-86731300I0J62500D01*
G01*
X166247850Y-86606300D01*
G75*
G02*
X166310350Y-86543800I62500J0D01*
G01*
X167060350Y-86543800D01*
G75*
G02*
X167122850Y-86606300I0J-62500D01*
G01*
G37*
G04 #@! TD.AperFunction*
G04 #@! TA.AperFunction,SMDPad,CuDef*
G36*
G01*
X167122850Y-87106300D02*
X167122850Y-87231300D01*
G75*
G02*
X167060350Y-87293800I-62500J0D01*
G01*
X166310350Y-87293800D01*
G75*
G02*
X166247850Y-87231300I0J62500D01*
G01*
X166247850Y-87106300D01*
G75*
G02*
X166310350Y-87043800I62500J0D01*
G01*
X167060350Y-87043800D01*
G75*
G02*
X167122850Y-87106300I0J-62500D01*
G01*
G37*
G04 #@! TD.AperFunction*
G04 #@! TA.AperFunction,SMDPad,CuDef*
G36*
G01*
X167122850Y-87606300D02*
X167122850Y-87731300D01*
G75*
G02*
X167060350Y-87793800I-62500J0D01*
G01*
X166310350Y-87793800D01*
G75*
G02*
X166247850Y-87731300I0J62500D01*
G01*
X166247850Y-87606300D01*
G75*
G02*
X166310350Y-87543800I62500J0D01*
G01*
X167060350Y-87543800D01*
G75*
G02*
X167122850Y-87606300I0J-62500D01*
G01*
G37*
G04 #@! TD.AperFunction*
G04 #@! TA.AperFunction,SMDPad,CuDef*
G36*
G01*
X167122850Y-88106300D02*
X167122850Y-88231300D01*
G75*
G02*
X167060350Y-88293800I-62500J0D01*
G01*
X166310350Y-88293800D01*
G75*
G02*
X166247850Y-88231300I0J62500D01*
G01*
X166247850Y-88106300D01*
G75*
G02*
X166310350Y-88043800I62500J0D01*
G01*
X167060350Y-88043800D01*
G75*
G02*
X167122850Y-88106300I0J-62500D01*
G01*
G37*
G04 #@! TD.AperFunction*
G04 #@! TA.AperFunction,SMDPad,CuDef*
G36*
G01*
X167122850Y-88606300D02*
X167122850Y-88731300D01*
G75*
G02*
X167060350Y-88793800I-62500J0D01*
G01*
X166310350Y-88793800D01*
G75*
G02*
X166247850Y-88731300I0J62500D01*
G01*
X166247850Y-88606300D01*
G75*
G02*
X166310350Y-88543800I62500J0D01*
G01*
X167060350Y-88543800D01*
G75*
G02*
X167122850Y-88606300I0J-62500D01*
G01*
G37*
G04 #@! TD.AperFunction*
G04 #@! TA.AperFunction,SMDPad,CuDef*
G36*
G01*
X167122850Y-89106300D02*
X167122850Y-89231300D01*
G75*
G02*
X167060350Y-89293800I-62500J0D01*
G01*
X166310350Y-89293800D01*
G75*
G02*
X166247850Y-89231300I0J62500D01*
G01*
X166247850Y-89106300D01*
G75*
G02*
X166310350Y-89043800I62500J0D01*
G01*
X167060350Y-89043800D01*
G75*
G02*
X167122850Y-89106300I0J-62500D01*
G01*
G37*
G04 #@! TD.AperFunction*
G04 #@! TA.AperFunction,SMDPad,CuDef*
G36*
G01*
X167122850Y-89606300D02*
X167122850Y-89731300D01*
G75*
G02*
X167060350Y-89793800I-62500J0D01*
G01*
X166310350Y-89793800D01*
G75*
G02*
X166247850Y-89731300I0J62500D01*
G01*
X166247850Y-89606300D01*
G75*
G02*
X166310350Y-89543800I62500J0D01*
G01*
X167060350Y-89543800D01*
G75*
G02*
X167122850Y-89606300I0J-62500D01*
G01*
G37*
G04 #@! TD.AperFunction*
G04 #@! TA.AperFunction,SMDPad,CuDef*
G36*
G01*
X167497850Y-89981300D02*
X167497850Y-90731300D01*
G75*
G02*
X167435350Y-90793800I-62500J0D01*
G01*
X167310350Y-90793800D01*
G75*
G02*
X167247850Y-90731300I0J62500D01*
G01*
X167247850Y-89981300D01*
G75*
G02*
X167310350Y-89918800I62500J0D01*
G01*
X167435350Y-89918800D01*
G75*
G02*
X167497850Y-89981300I0J-62500D01*
G01*
G37*
G04 #@! TD.AperFunction*
G04 #@! TA.AperFunction,SMDPad,CuDef*
G36*
G01*
X167997850Y-89981300D02*
X167997850Y-90731300D01*
G75*
G02*
X167935350Y-90793800I-62500J0D01*
G01*
X167810350Y-90793800D01*
G75*
G02*
X167747850Y-90731300I0J62500D01*
G01*
X167747850Y-89981300D01*
G75*
G02*
X167810350Y-89918800I62500J0D01*
G01*
X167935350Y-89918800D01*
G75*
G02*
X167997850Y-89981300I0J-62500D01*
G01*
G37*
G04 #@! TD.AperFunction*
G04 #@! TA.AperFunction,SMDPad,CuDef*
G36*
G01*
X168497850Y-89981300D02*
X168497850Y-90731300D01*
G75*
G02*
X168435350Y-90793800I-62500J0D01*
G01*
X168310350Y-90793800D01*
G75*
G02*
X168247850Y-90731300I0J62500D01*
G01*
X168247850Y-89981300D01*
G75*
G02*
X168310350Y-89918800I62500J0D01*
G01*
X168435350Y-89918800D01*
G75*
G02*
X168497850Y-89981300I0J-62500D01*
G01*
G37*
G04 #@! TD.AperFunction*
G04 #@! TA.AperFunction,SMDPad,CuDef*
G36*
G01*
X168997850Y-89981300D02*
X168997850Y-90731300D01*
G75*
G02*
X168935350Y-90793800I-62500J0D01*
G01*
X168810350Y-90793800D01*
G75*
G02*
X168747850Y-90731300I0J62500D01*
G01*
X168747850Y-89981300D01*
G75*
G02*
X168810350Y-89918800I62500J0D01*
G01*
X168935350Y-89918800D01*
G75*
G02*
X168997850Y-89981300I0J-62500D01*
G01*
G37*
G04 #@! TD.AperFunction*
G04 #@! TA.AperFunction,SMDPad,CuDef*
G36*
G01*
X169497850Y-89981300D02*
X169497850Y-90731300D01*
G75*
G02*
X169435350Y-90793800I-62500J0D01*
G01*
X169310350Y-90793800D01*
G75*
G02*
X169247850Y-90731300I0J62500D01*
G01*
X169247850Y-89981300D01*
G75*
G02*
X169310350Y-89918800I62500J0D01*
G01*
X169435350Y-89918800D01*
G75*
G02*
X169497850Y-89981300I0J-62500D01*
G01*
G37*
G04 #@! TD.AperFunction*
G04 #@! TA.AperFunction,SMDPad,CuDef*
G36*
G01*
X169997850Y-89981300D02*
X169997850Y-90731300D01*
G75*
G02*
X169935350Y-90793800I-62500J0D01*
G01*
X169810350Y-90793800D01*
G75*
G02*
X169747850Y-90731300I0J62500D01*
G01*
X169747850Y-89981300D01*
G75*
G02*
X169810350Y-89918800I62500J0D01*
G01*
X169935350Y-89918800D01*
G75*
G02*
X169997850Y-89981300I0J-62500D01*
G01*
G37*
G04 #@! TD.AperFunction*
G04 #@! TA.AperFunction,SMDPad,CuDef*
G36*
G01*
X170497850Y-89981300D02*
X170497850Y-90731300D01*
G75*
G02*
X170435350Y-90793800I-62500J0D01*
G01*
X170310350Y-90793800D01*
G75*
G02*
X170247850Y-90731300I0J62500D01*
G01*
X170247850Y-89981300D01*
G75*
G02*
X170310350Y-89918800I62500J0D01*
G01*
X170435350Y-89918800D01*
G75*
G02*
X170497850Y-89981300I0J-62500D01*
G01*
G37*
G04 #@! TD.AperFunction*
G04 #@! TA.AperFunction,SMDPad,CuDef*
G36*
G01*
X170997850Y-89981300D02*
X170997850Y-90731300D01*
G75*
G02*
X170935350Y-90793800I-62500J0D01*
G01*
X170810350Y-90793800D01*
G75*
G02*
X170747850Y-90731300I0J62500D01*
G01*
X170747850Y-89981300D01*
G75*
G02*
X170810350Y-89918800I62500J0D01*
G01*
X170935350Y-89918800D01*
G75*
G02*
X170997850Y-89981300I0J-62500D01*
G01*
G37*
G04 #@! TD.AperFunction*
G04 #@! TA.AperFunction,SMDPad,CuDef*
G36*
G01*
X171497850Y-89981300D02*
X171497850Y-90731300D01*
G75*
G02*
X171435350Y-90793800I-62500J0D01*
G01*
X171310350Y-90793800D01*
G75*
G02*
X171247850Y-90731300I0J62500D01*
G01*
X171247850Y-89981300D01*
G75*
G02*
X171310350Y-89918800I62500J0D01*
G01*
X171435350Y-89918800D01*
G75*
G02*
X171497850Y-89981300I0J-62500D01*
G01*
G37*
G04 #@! TD.AperFunction*
G04 #@! TA.AperFunction,SMDPad,CuDef*
G36*
G01*
X171997850Y-89981300D02*
X171997850Y-90731300D01*
G75*
G02*
X171935350Y-90793800I-62500J0D01*
G01*
X171810350Y-90793800D01*
G75*
G02*
X171747850Y-90731300I0J62500D01*
G01*
X171747850Y-89981300D01*
G75*
G02*
X171810350Y-89918800I62500J0D01*
G01*
X171935350Y-89918800D01*
G75*
G02*
X171997850Y-89981300I0J-62500D01*
G01*
G37*
G04 #@! TD.AperFunction*
G04 #@! TA.AperFunction,SMDPad,CuDef*
G36*
G01*
X172497850Y-89981300D02*
X172497850Y-90731300D01*
G75*
G02*
X172435350Y-90793800I-62500J0D01*
G01*
X172310350Y-90793800D01*
G75*
G02*
X172247850Y-90731300I0J62500D01*
G01*
X172247850Y-89981300D01*
G75*
G02*
X172310350Y-89918800I62500J0D01*
G01*
X172435350Y-89918800D01*
G75*
G02*
X172497850Y-89981300I0J-62500D01*
G01*
G37*
G04 #@! TD.AperFunction*
G04 #@! TA.AperFunction,SMDPad,CuDef*
G36*
G01*
X172997850Y-89981300D02*
X172997850Y-90731300D01*
G75*
G02*
X172935350Y-90793800I-62500J0D01*
G01*
X172810350Y-90793800D01*
G75*
G02*
X172747850Y-90731300I0J62500D01*
G01*
X172747850Y-89981300D01*
G75*
G02*
X172810350Y-89918800I62500J0D01*
G01*
X172935350Y-89918800D01*
G75*
G02*
X172997850Y-89981300I0J-62500D01*
G01*
G37*
G04 #@! TD.AperFunction*
G04 #@! TA.AperFunction,SMDPad,CuDef*
G36*
G01*
X173997850Y-89606300D02*
X173997850Y-89731300D01*
G75*
G02*
X173935350Y-89793800I-62500J0D01*
G01*
X173185350Y-89793800D01*
G75*
G02*
X173122850Y-89731300I0J62500D01*
G01*
X173122850Y-89606300D01*
G75*
G02*
X173185350Y-89543800I62500J0D01*
G01*
X173935350Y-89543800D01*
G75*
G02*
X173997850Y-89606300I0J-62500D01*
G01*
G37*
G04 #@! TD.AperFunction*
G04 #@! TA.AperFunction,SMDPad,CuDef*
G36*
G01*
X173997850Y-89106300D02*
X173997850Y-89231300D01*
G75*
G02*
X173935350Y-89293800I-62500J0D01*
G01*
X173185350Y-89293800D01*
G75*
G02*
X173122850Y-89231300I0J62500D01*
G01*
X173122850Y-89106300D01*
G75*
G02*
X173185350Y-89043800I62500J0D01*
G01*
X173935350Y-89043800D01*
G75*
G02*
X173997850Y-89106300I0J-62500D01*
G01*
G37*
G04 #@! TD.AperFunction*
G04 #@! TA.AperFunction,SMDPad,CuDef*
G36*
G01*
X173997850Y-88606300D02*
X173997850Y-88731300D01*
G75*
G02*
X173935350Y-88793800I-62500J0D01*
G01*
X173185350Y-88793800D01*
G75*
G02*
X173122850Y-88731300I0J62500D01*
G01*
X173122850Y-88606300D01*
G75*
G02*
X173185350Y-88543800I62500J0D01*
G01*
X173935350Y-88543800D01*
G75*
G02*
X173997850Y-88606300I0J-62500D01*
G01*
G37*
G04 #@! TD.AperFunction*
G04 #@! TA.AperFunction,SMDPad,CuDef*
G36*
G01*
X173997850Y-88106300D02*
X173997850Y-88231300D01*
G75*
G02*
X173935350Y-88293800I-62500J0D01*
G01*
X173185350Y-88293800D01*
G75*
G02*
X173122850Y-88231300I0J62500D01*
G01*
X173122850Y-88106300D01*
G75*
G02*
X173185350Y-88043800I62500J0D01*
G01*
X173935350Y-88043800D01*
G75*
G02*
X173997850Y-88106300I0J-62500D01*
G01*
G37*
G04 #@! TD.AperFunction*
G04 #@! TA.AperFunction,SMDPad,CuDef*
G36*
G01*
X173997850Y-87606300D02*
X173997850Y-87731300D01*
G75*
G02*
X173935350Y-87793800I-62500J0D01*
G01*
X173185350Y-87793800D01*
G75*
G02*
X173122850Y-87731300I0J62500D01*
G01*
X173122850Y-87606300D01*
G75*
G02*
X173185350Y-87543800I62500J0D01*
G01*
X173935350Y-87543800D01*
G75*
G02*
X173997850Y-87606300I0J-62500D01*
G01*
G37*
G04 #@! TD.AperFunction*
G04 #@! TA.AperFunction,SMDPad,CuDef*
G36*
G01*
X173997850Y-87106300D02*
X173997850Y-87231300D01*
G75*
G02*
X173935350Y-87293800I-62500J0D01*
G01*
X173185350Y-87293800D01*
G75*
G02*
X173122850Y-87231300I0J62500D01*
G01*
X173122850Y-87106300D01*
G75*
G02*
X173185350Y-87043800I62500J0D01*
G01*
X173935350Y-87043800D01*
G75*
G02*
X173997850Y-87106300I0J-62500D01*
G01*
G37*
G04 #@! TD.AperFunction*
G04 #@! TA.AperFunction,SMDPad,CuDef*
G36*
G01*
X173997850Y-86606300D02*
X173997850Y-86731300D01*
G75*
G02*
X173935350Y-86793800I-62500J0D01*
G01*
X173185350Y-86793800D01*
G75*
G02*
X173122850Y-86731300I0J62500D01*
G01*
X173122850Y-86606300D01*
G75*
G02*
X173185350Y-86543800I62500J0D01*
G01*
X173935350Y-86543800D01*
G75*
G02*
X173997850Y-86606300I0J-62500D01*
G01*
G37*
G04 #@! TD.AperFunction*
G04 #@! TA.AperFunction,SMDPad,CuDef*
G36*
G01*
X173997850Y-86106300D02*
X173997850Y-86231300D01*
G75*
G02*
X173935350Y-86293800I-62500J0D01*
G01*
X173185350Y-86293800D01*
G75*
G02*
X173122850Y-86231300I0J62500D01*
G01*
X173122850Y-86106300D01*
G75*
G02*
X173185350Y-86043800I62500J0D01*
G01*
X173935350Y-86043800D01*
G75*
G02*
X173997850Y-86106300I0J-62500D01*
G01*
G37*
G04 #@! TD.AperFunction*
G04 #@! TA.AperFunction,SMDPad,CuDef*
G36*
G01*
X173997850Y-85606300D02*
X173997850Y-85731300D01*
G75*
G02*
X173935350Y-85793800I-62500J0D01*
G01*
X173185350Y-85793800D01*
G75*
G02*
X173122850Y-85731300I0J62500D01*
G01*
X173122850Y-85606300D01*
G75*
G02*
X173185350Y-85543800I62500J0D01*
G01*
X173935350Y-85543800D01*
G75*
G02*
X173997850Y-85606300I0J-62500D01*
G01*
G37*
G04 #@! TD.AperFunction*
G04 #@! TA.AperFunction,SMDPad,CuDef*
G36*
G01*
X173997850Y-85106300D02*
X173997850Y-85231300D01*
G75*
G02*
X173935350Y-85293800I-62500J0D01*
G01*
X173185350Y-85293800D01*
G75*
G02*
X173122850Y-85231300I0J62500D01*
G01*
X173122850Y-85106300D01*
G75*
G02*
X173185350Y-85043800I62500J0D01*
G01*
X173935350Y-85043800D01*
G75*
G02*
X173997850Y-85106300I0J-62500D01*
G01*
G37*
G04 #@! TD.AperFunction*
G04 #@! TA.AperFunction,SMDPad,CuDef*
G36*
G01*
X173997850Y-84606300D02*
X173997850Y-84731300D01*
G75*
G02*
X173935350Y-84793800I-62500J0D01*
G01*
X173185350Y-84793800D01*
G75*
G02*
X173122850Y-84731300I0J62500D01*
G01*
X173122850Y-84606300D01*
G75*
G02*
X173185350Y-84543800I62500J0D01*
G01*
X173935350Y-84543800D01*
G75*
G02*
X173997850Y-84606300I0J-62500D01*
G01*
G37*
G04 #@! TD.AperFunction*
G04 #@! TA.AperFunction,SMDPad,CuDef*
G36*
G01*
X173997850Y-84106300D02*
X173997850Y-84231300D01*
G75*
G02*
X173935350Y-84293800I-62500J0D01*
G01*
X173185350Y-84293800D01*
G75*
G02*
X173122850Y-84231300I0J62500D01*
G01*
X173122850Y-84106300D01*
G75*
G02*
X173185350Y-84043800I62500J0D01*
G01*
X173935350Y-84043800D01*
G75*
G02*
X173997850Y-84106300I0J-62500D01*
G01*
G37*
G04 #@! TD.AperFunction*
G04 #@! TA.AperFunction,SMDPad,CuDef*
G36*
G01*
X156769649Y-98434200D02*
X157669651Y-98434200D01*
G75*
G02*
X157919650Y-98684199I0J-249999D01*
G01*
X157919650Y-99334201D01*
G75*
G02*
X157669651Y-99584200I-249999J0D01*
G01*
X156769649Y-99584200D01*
G75*
G02*
X156519650Y-99334201I0J249999D01*
G01*
X156519650Y-98684199D01*
G75*
G02*
X156769649Y-98434200I249999J0D01*
G01*
G37*
G04 #@! TD.AperFunction*
G04 #@! TA.AperFunction,SMDPad,CuDef*
G36*
G01*
X156769649Y-96384200D02*
X157669651Y-96384200D01*
G75*
G02*
X157919650Y-96634199I0J-249999D01*
G01*
X157919650Y-97284201D01*
G75*
G02*
X157669651Y-97534200I-249999J0D01*
G01*
X156769649Y-97534200D01*
G75*
G02*
X156519650Y-97284201I0J249999D01*
G01*
X156519650Y-96634199D01*
G75*
G02*
X156769649Y-96384200I249999J0D01*
G01*
G37*
G04 #@! TD.AperFunction*
D10*
X283411250Y-46355000D03*
X289761250Y-43815000D03*
G04 #@! TA.AperFunction,SMDPad,CuDef*
G36*
G01*
X358293950Y-22257599D02*
X358293950Y-23157601D01*
G75*
G02*
X358043951Y-23407600I-249999J0D01*
G01*
X357393949Y-23407600D01*
G75*
G02*
X357143950Y-23157601I0J249999D01*
G01*
X357143950Y-22257599D01*
G75*
G02*
X357393949Y-22007600I249999J0D01*
G01*
X358043951Y-22007600D01*
G75*
G02*
X358293950Y-22257599I0J-249999D01*
G01*
G37*
G04 #@! TD.AperFunction*
G04 #@! TA.AperFunction,SMDPad,CuDef*
G36*
G01*
X356243950Y-22257599D02*
X356243950Y-23157601D01*
G75*
G02*
X355993951Y-23407600I-249999J0D01*
G01*
X355343949Y-23407600D01*
G75*
G02*
X355093950Y-23157601I0J249999D01*
G01*
X355093950Y-22257599D01*
G75*
G02*
X355343949Y-22007600I249999J0D01*
G01*
X355993951Y-22007600D01*
G75*
G02*
X356243950Y-22257599I0J-249999D01*
G01*
G37*
G04 #@! TD.AperFunction*
G04 #@! TA.AperFunction,SMDPad,CuDef*
G36*
G01*
X336713350Y-23614801D02*
X336713350Y-22714799D01*
G75*
G02*
X336963349Y-22464800I249999J0D01*
G01*
X337613351Y-22464800D01*
G75*
G02*
X337863350Y-22714799I0J-249999D01*
G01*
X337863350Y-23614801D01*
G75*
G02*
X337613351Y-23864800I-249999J0D01*
G01*
X336963349Y-23864800D01*
G75*
G02*
X336713350Y-23614801I0J249999D01*
G01*
G37*
G04 #@! TD.AperFunction*
G04 #@! TA.AperFunction,SMDPad,CuDef*
G36*
G01*
X338763350Y-23614801D02*
X338763350Y-22714799D01*
G75*
G02*
X339013349Y-22464800I249999J0D01*
G01*
X339663351Y-22464800D01*
G75*
G02*
X339913350Y-22714799I0J-249999D01*
G01*
X339913350Y-23614801D01*
G75*
G02*
X339663351Y-23864800I-249999J0D01*
G01*
X339013349Y-23864800D01*
G75*
G02*
X338763350Y-23614801I0J249999D01*
G01*
G37*
G04 #@! TD.AperFunction*
D16*
X347909550Y-24286400D03*
X346209550Y-24286400D03*
X347059550Y-24286400D03*
X348759550Y-24286400D03*
X349609550Y-24286400D03*
X350459550Y-24286400D03*
X351309550Y-24286400D03*
X352159550Y-24286400D03*
X346209550Y-22961400D03*
X347064550Y-22961400D03*
X347914550Y-22961400D03*
X348764550Y-22961400D03*
X349614550Y-22961400D03*
X350464550Y-22961400D03*
X351314550Y-22961400D03*
X352164550Y-22961400D03*
D17*
X344859550Y-23306400D03*
X353509550Y-23306400D03*
D18*
X344859550Y-19926400D03*
X353509550Y-19926400D03*
D10*
X128630000Y-84455000D03*
X134980000Y-81915000D03*
X111961250Y-65405000D03*
X118311250Y-62865000D03*
X107198750Y-46355000D03*
X113548750Y-43815000D03*
X104817500Y-27305000D03*
X111167500Y-24765000D03*
X221498750Y-27305000D03*
X227848750Y-24765000D03*
X216736250Y-84455000D03*
X223086250Y-81915000D03*
X185780000Y-84455000D03*
X192130000Y-81915000D03*
X383423750Y-84455000D03*
X389773750Y-81915000D03*
X383423750Y-65405000D03*
X389773750Y-62865000D03*
X383423750Y-46355000D03*
X389773750Y-43815000D03*
X383423750Y-27305000D03*
X389773750Y-24765000D03*
X26236250Y-27305000D03*
X32586250Y-24765000D03*
X45286250Y-27305000D03*
X51636250Y-24765000D03*
X64336250Y-27305000D03*
X70686250Y-24765000D03*
X83386250Y-27305000D03*
X89736250Y-24765000D03*
X126248750Y-27305000D03*
X132598750Y-24765000D03*
X145298750Y-27305000D03*
X151648750Y-24765000D03*
X164348750Y-27305000D03*
X170698750Y-24765000D03*
X183398750Y-27305000D03*
X189748750Y-24765000D03*
X202448750Y-27305000D03*
X208798750Y-24765000D03*
X240548750Y-27305000D03*
X246898750Y-24765000D03*
X259598750Y-27305000D03*
X265948750Y-24765000D03*
X278648750Y-27305000D03*
X284998750Y-24765000D03*
X297698750Y-27305000D03*
X304048750Y-24765000D03*
X316748750Y-27305000D03*
X323098750Y-24765000D03*
X335798750Y-27305000D03*
X342148750Y-24765000D03*
X26236250Y-46355000D03*
X32586250Y-43815000D03*
X45286250Y-46355000D03*
X51636250Y-43815000D03*
X64336250Y-46355000D03*
X70686250Y-43815000D03*
X83386250Y-46355000D03*
X89736250Y-43815000D03*
X131011250Y-46355000D03*
X137361250Y-43815000D03*
X150061250Y-46355000D03*
X156411250Y-43815000D03*
X169111250Y-46355000D03*
X175461250Y-43815000D03*
X188161250Y-46355000D03*
X194511250Y-43815000D03*
X207211250Y-46355000D03*
X213561250Y-43815000D03*
X226261250Y-46355000D03*
X232611250Y-43815000D03*
X245311250Y-46355000D03*
X251661250Y-43815000D03*
X264361250Y-46355000D03*
X270711250Y-43815000D03*
X302461250Y-46355000D03*
X308811250Y-43815000D03*
X321511250Y-46355000D03*
X327861250Y-43815000D03*
X26236250Y-65405000D03*
X32586250Y-62865000D03*
X45286250Y-65405000D03*
X51636250Y-62865000D03*
X64336250Y-65405000D03*
X70686250Y-62865000D03*
X83386250Y-65405000D03*
X89736250Y-62865000D03*
X140536250Y-65405000D03*
X146886250Y-62865000D03*
X159586250Y-65405000D03*
X165936250Y-62865000D03*
X178636250Y-65405000D03*
X184986250Y-62865000D03*
X197686250Y-65405000D03*
X204036250Y-62865000D03*
X216736250Y-65405000D03*
X223086250Y-62865000D03*
X235786250Y-65405000D03*
X242136250Y-62865000D03*
X254836250Y-65405000D03*
X261186250Y-62865000D03*
X273886250Y-65405000D03*
X280236250Y-62865000D03*
X292936250Y-65405000D03*
X299286250Y-62865000D03*
X311986250Y-65405000D03*
X318336250Y-62865000D03*
X333417500Y-65405000D03*
X339767500Y-62865000D03*
X35761250Y-84455000D03*
X42111250Y-81915000D03*
X64336250Y-84455000D03*
X70686250Y-81915000D03*
X83386250Y-84455000D03*
X89736250Y-81915000D03*
X104817500Y-84455000D03*
X111167500Y-81915000D03*
X152442500Y-84455000D03*
X158792500Y-81915000D03*
X288173750Y-84455000D03*
X294523750Y-81915000D03*
X307223750Y-84455000D03*
X313573750Y-81915000D03*
X326273750Y-84455000D03*
X332623750Y-81915000D03*
X345323750Y-84455000D03*
X351673750Y-81915000D03*
X364373750Y-84455000D03*
X370723750Y-81915000D03*
D19*
X146069050Y-83566000D03*
X143529050Y-83566000D03*
X146069050Y-86106000D03*
X143529050Y-86106000D03*
X146069050Y-88646000D03*
D20*
X143529050Y-88646000D03*
G04 #@! TA.AperFunction,SMDPad,CuDef*
G36*
G01*
X161722649Y-78800000D02*
X162622651Y-78800000D01*
G75*
G02*
X162872650Y-79049999I0J-249999D01*
G01*
X162872650Y-79700001D01*
G75*
G02*
X162622651Y-79950000I-249999J0D01*
G01*
X161722649Y-79950000D01*
G75*
G02*
X161472650Y-79700001I0J249999D01*
G01*
X161472650Y-79049999D01*
G75*
G02*
X161722649Y-78800000I249999J0D01*
G01*
G37*
G04 #@! TD.AperFunction*
G04 #@! TA.AperFunction,SMDPad,CuDef*
G36*
G01*
X161722649Y-80850000D02*
X162622651Y-80850000D01*
G75*
G02*
X162872650Y-81099999I0J-249999D01*
G01*
X162872650Y-81750001D01*
G75*
G02*
X162622651Y-82000000I-249999J0D01*
G01*
X161722649Y-82000000D01*
G75*
G02*
X161472650Y-81750001I0J249999D01*
G01*
X161472650Y-81099999D01*
G75*
G02*
X161722649Y-80850000I249999J0D01*
G01*
G37*
G04 #@! TD.AperFunction*
G04 #@! TA.AperFunction,SMDPad,CuDef*
G36*
G01*
X351039851Y-30902600D02*
X350139849Y-30902600D01*
G75*
G02*
X349889850Y-30652601I0J249999D01*
G01*
X349889850Y-30002599D01*
G75*
G02*
X350139849Y-29752600I249999J0D01*
G01*
X351039851Y-29752600D01*
G75*
G02*
X351289850Y-30002599I0J-249999D01*
G01*
X351289850Y-30652601D01*
G75*
G02*
X351039851Y-30902600I-249999J0D01*
G01*
G37*
G04 #@! TD.AperFunction*
G04 #@! TA.AperFunction,SMDPad,CuDef*
G36*
G01*
X351039851Y-28852600D02*
X350139849Y-28852600D01*
G75*
G02*
X349889850Y-28602601I0J249999D01*
G01*
X349889850Y-27952599D01*
G75*
G02*
X350139849Y-27702600I249999J0D01*
G01*
X351039851Y-27702600D01*
G75*
G02*
X351289850Y-27952599I0J-249999D01*
G01*
X351289850Y-28602601D01*
G75*
G02*
X351039851Y-28852600I-249999J0D01*
G01*
G37*
G04 #@! TD.AperFunction*
G04 #@! TA.AperFunction,SMDPad,CuDef*
G36*
G01*
X349058651Y-30928000D02*
X348158649Y-30928000D01*
G75*
G02*
X347908650Y-30678001I0J249999D01*
G01*
X347908650Y-30027999D01*
G75*
G02*
X348158649Y-29778000I249999J0D01*
G01*
X349058651Y-29778000D01*
G75*
G02*
X349308650Y-30027999I0J-249999D01*
G01*
X349308650Y-30678001D01*
G75*
G02*
X349058651Y-30928000I-249999J0D01*
G01*
G37*
G04 #@! TD.AperFunction*
G04 #@! TA.AperFunction,SMDPad,CuDef*
G36*
G01*
X349058651Y-28878000D02*
X348158649Y-28878000D01*
G75*
G02*
X347908650Y-28628001I0J249999D01*
G01*
X347908650Y-27977999D01*
G75*
G02*
X348158649Y-27728000I249999J0D01*
G01*
X349058651Y-27728000D01*
G75*
G02*
X349308650Y-27977999I0J-249999D01*
G01*
X349308650Y-28628001D01*
G75*
G02*
X349058651Y-28878000I-249999J0D01*
G01*
G37*
G04 #@! TD.AperFunction*
G04 #@! TA.AperFunction,SMDPad,CuDef*
G36*
G01*
X197744249Y-87681000D02*
X198644251Y-87681000D01*
G75*
G02*
X198894250Y-87930999I0J-249999D01*
G01*
X198894250Y-88581001D01*
G75*
G02*
X198644251Y-88831000I-249999J0D01*
G01*
X197744249Y-88831000D01*
G75*
G02*
X197494250Y-88581001I0J249999D01*
G01*
X197494250Y-87930999D01*
G75*
G02*
X197744249Y-87681000I249999J0D01*
G01*
G37*
G04 #@! TD.AperFunction*
G04 #@! TA.AperFunction,SMDPad,CuDef*
G36*
G01*
X197744249Y-89731000D02*
X198644251Y-89731000D01*
G75*
G02*
X198894250Y-89980999I0J-249999D01*
G01*
X198894250Y-90631001D01*
G75*
G02*
X198644251Y-90881000I-249999J0D01*
G01*
X197744249Y-90881000D01*
G75*
G02*
X197494250Y-90631001I0J249999D01*
G01*
X197494250Y-89980999D01*
G75*
G02*
X197744249Y-89731000I249999J0D01*
G01*
G37*
G04 #@! TD.AperFunction*
G04 #@! TA.AperFunction,SMDPad,CuDef*
G36*
G01*
X180132250Y-87800601D02*
X180132250Y-86900599D01*
G75*
G02*
X180382249Y-86650600I249999J0D01*
G01*
X181032251Y-86650600D01*
G75*
G02*
X181282250Y-86900599I0J-249999D01*
G01*
X181282250Y-87800601D01*
G75*
G02*
X181032251Y-88050600I-249999J0D01*
G01*
X180382249Y-88050600D01*
G75*
G02*
X180132250Y-87800601I0J249999D01*
G01*
G37*
G04 #@! TD.AperFunction*
G04 #@! TA.AperFunction,SMDPad,CuDef*
G36*
G01*
X178082250Y-87800601D02*
X178082250Y-86900599D01*
G75*
G02*
X178332249Y-86650600I249999J0D01*
G01*
X178982251Y-86650600D01*
G75*
G02*
X179232250Y-86900599I0J-249999D01*
G01*
X179232250Y-87800601D01*
G75*
G02*
X178982251Y-88050600I-249999J0D01*
G01*
X178332249Y-88050600D01*
G75*
G02*
X178082250Y-87800601I0J249999D01*
G01*
G37*
G04 #@! TD.AperFunction*
G04 #@! TA.AperFunction,SMDPad,CuDef*
G36*
G01*
X168682249Y-98595600D02*
X169582251Y-98595600D01*
G75*
G02*
X169832250Y-98845599I0J-249999D01*
G01*
X169832250Y-99495601D01*
G75*
G02*
X169582251Y-99745600I-249999J0D01*
G01*
X168682249Y-99745600D01*
G75*
G02*
X168432250Y-99495601I0J249999D01*
G01*
X168432250Y-98845599D01*
G75*
G02*
X168682249Y-98595600I249999J0D01*
G01*
G37*
G04 #@! TD.AperFunction*
G04 #@! TA.AperFunction,SMDPad,CuDef*
G36*
G01*
X168682249Y-96545600D02*
X169582251Y-96545600D01*
G75*
G02*
X169832250Y-96795599I0J-249999D01*
G01*
X169832250Y-97445601D01*
G75*
G02*
X169582251Y-97695600I-249999J0D01*
G01*
X168682249Y-97695600D01*
G75*
G02*
X168432250Y-97445601I0J249999D01*
G01*
X168432250Y-96795599D01*
G75*
G02*
X168682249Y-96545600I249999J0D01*
G01*
G37*
G04 #@! TD.AperFunction*
G04 #@! TA.AperFunction,SMDPad,CuDef*
G36*
G01*
X173727850Y-77324799D02*
X173727850Y-78224801D01*
G75*
G02*
X173477851Y-78474800I-249999J0D01*
G01*
X172827849Y-78474800D01*
G75*
G02*
X172577850Y-78224801I0J249999D01*
G01*
X172577850Y-77324799D01*
G75*
G02*
X172827849Y-77074800I249999J0D01*
G01*
X173477851Y-77074800D01*
G75*
G02*
X173727850Y-77324799I0J-249999D01*
G01*
G37*
G04 #@! TD.AperFunction*
G04 #@! TA.AperFunction,SMDPad,CuDef*
G36*
G01*
X175777850Y-77324799D02*
X175777850Y-78224801D01*
G75*
G02*
X175527851Y-78474800I-249999J0D01*
G01*
X174877849Y-78474800D01*
G75*
G02*
X174627850Y-78224801I0J249999D01*
G01*
X174627850Y-77324799D01*
G75*
G02*
X174877849Y-77074800I249999J0D01*
G01*
X175527851Y-77074800D01*
G75*
G02*
X175777850Y-77324799I0J-249999D01*
G01*
G37*
G04 #@! TD.AperFunction*
G04 #@! TA.AperFunction,SMDPad,CuDef*
G36*
G01*
X160554249Y-91855600D02*
X161454251Y-91855600D01*
G75*
G02*
X161704250Y-92105599I0J-249999D01*
G01*
X161704250Y-92755601D01*
G75*
G02*
X161454251Y-93005600I-249999J0D01*
G01*
X160554249Y-93005600D01*
G75*
G02*
X160304250Y-92755601I0J249999D01*
G01*
X160304250Y-92105599D01*
G75*
G02*
X160554249Y-91855600I249999J0D01*
G01*
G37*
G04 #@! TD.AperFunction*
G04 #@! TA.AperFunction,SMDPad,CuDef*
G36*
G01*
X160554249Y-89805600D02*
X161454251Y-89805600D01*
G75*
G02*
X161704250Y-90055599I0J-249999D01*
G01*
X161704250Y-90705601D01*
G75*
G02*
X161454251Y-90955600I-249999J0D01*
G01*
X160554249Y-90955600D01*
G75*
G02*
X160304250Y-90705601I0J249999D01*
G01*
X160304250Y-90055599D01*
G75*
G02*
X160554249Y-89805600I249999J0D01*
G01*
G37*
G04 #@! TD.AperFunction*
G04 #@! TA.AperFunction,SMDPad,CuDef*
G36*
G01*
X165585450Y-79215401D02*
X165585450Y-78315399D01*
G75*
G02*
X165835449Y-78065400I249999J0D01*
G01*
X166485451Y-78065400D01*
G75*
G02*
X166735450Y-78315399I0J-249999D01*
G01*
X166735450Y-79215401D01*
G75*
G02*
X166485451Y-79465400I-249999J0D01*
G01*
X165835449Y-79465400D01*
G75*
G02*
X165585450Y-79215401I0J249999D01*
G01*
G37*
G04 #@! TD.AperFunction*
G04 #@! TA.AperFunction,SMDPad,CuDef*
G36*
G01*
X163535450Y-79215401D02*
X163535450Y-78315399D01*
G75*
G02*
X163785449Y-78065400I249999J0D01*
G01*
X164435451Y-78065400D01*
G75*
G02*
X164685450Y-78315399I0J-249999D01*
G01*
X164685450Y-79215401D01*
G75*
G02*
X164435451Y-79465400I-249999J0D01*
G01*
X163785449Y-79465400D01*
G75*
G02*
X163535450Y-79215401I0J249999D01*
G01*
G37*
G04 #@! TD.AperFunction*
G04 #@! TA.AperFunction,SMDPad,CuDef*
G36*
G01*
X173178049Y-97782800D02*
X174078051Y-97782800D01*
G75*
G02*
X174328050Y-98032799I0J-249999D01*
G01*
X174328050Y-98682801D01*
G75*
G02*
X174078051Y-98932800I-249999J0D01*
G01*
X173178049Y-98932800D01*
G75*
G02*
X172928050Y-98682801I0J249999D01*
G01*
X172928050Y-98032799D01*
G75*
G02*
X173178049Y-97782800I249999J0D01*
G01*
G37*
G04 #@! TD.AperFunction*
G04 #@! TA.AperFunction,SMDPad,CuDef*
G36*
G01*
X173178049Y-95732800D02*
X174078051Y-95732800D01*
G75*
G02*
X174328050Y-95982799I0J-249999D01*
G01*
X174328050Y-96632801D01*
G75*
G02*
X174078051Y-96882800I-249999J0D01*
G01*
X173178049Y-96882800D01*
G75*
G02*
X172928050Y-96632801I0J249999D01*
G01*
X172928050Y-95982799D01*
G75*
G02*
X173178049Y-95732800I249999J0D01*
G01*
G37*
G04 #@! TD.AperFunction*
D21*
X155839040Y-96097210D03*
X155839040Y-92363410D03*
X180707250Y-85376800D03*
X179622450Y-82372200D03*
X166820850Y-76835000D03*
X177251426Y-76818424D03*
X166255450Y-91751400D03*
X172358050Y-92710000D03*
X177437260Y-87718800D03*
X174122850Y-79337400D03*
X177843950Y-83058500D03*
X159531050Y-90398600D03*
X177437260Y-91643990D03*
X188778460Y-90271600D03*
X164077650Y-80238600D03*
X195908250Y-88265000D03*
X173323250Y-94919800D03*
X346748750Y-34595000D03*
X332468750Y-34595000D03*
X327698750Y-34595000D03*
X313418750Y-34595000D03*
X308648750Y-34595000D03*
X294368750Y-34595000D03*
X289598750Y-34595000D03*
X275318750Y-34595000D03*
X270548750Y-34595000D03*
X256268750Y-34595000D03*
X251498750Y-34595000D03*
X237218750Y-34595000D03*
X232448750Y-34595000D03*
X218168750Y-34595000D03*
X213398750Y-34595000D03*
X199118750Y-34595000D03*
X194348750Y-34595000D03*
X180068750Y-34595000D03*
X175298750Y-34595000D03*
X161018750Y-34595000D03*
X156248750Y-34595000D03*
X141968750Y-34595000D03*
X137198750Y-34595000D03*
X122918750Y-34595000D03*
X115767500Y-34595000D03*
X101487500Y-34595000D03*
X94336250Y-34595000D03*
X80056250Y-34595000D03*
X75286250Y-34595000D03*
X61006250Y-34595000D03*
X56236250Y-34595000D03*
X41956250Y-34595000D03*
X37186250Y-34595000D03*
X22906250Y-34595000D03*
X53943250Y-92659200D03*
X356281250Y-34595000D03*
X363417500Y-53645000D03*
X349133750Y-53657500D03*
X332461250Y-53645000D03*
X318181250Y-53645000D03*
X313411250Y-53645000D03*
X299131250Y-53645000D03*
X294361250Y-53645000D03*
X280081250Y-53645000D03*
X275311250Y-53645000D03*
X261031250Y-53645000D03*
X256261250Y-53645000D03*
X241981250Y-53645000D03*
X237211250Y-53645000D03*
X222931250Y-53645000D03*
X218161250Y-53645000D03*
X203881250Y-53645000D03*
X199111250Y-53645000D03*
X184831250Y-53645000D03*
X180061250Y-53645000D03*
X165781250Y-53645000D03*
X161011250Y-53645000D03*
X146731250Y-53645000D03*
X141961250Y-53645000D03*
X127681250Y-53645000D03*
X118148750Y-53645000D03*
X103868750Y-53645000D03*
X94336250Y-53645000D03*
X80056250Y-53645000D03*
X75286250Y-53645000D03*
X61006250Y-53645000D03*
X56236250Y-53645000D03*
X41956250Y-53645000D03*
X37186250Y-53645000D03*
X22906250Y-53645000D03*
X380093750Y-34595000D03*
X55060850Y-92583000D03*
X122959450Y-72707500D03*
X370561250Y-72695000D03*
X356281250Y-72695000D03*
X344367500Y-72695000D03*
X330087500Y-72695000D03*
X322936250Y-72695000D03*
X308656250Y-72695000D03*
X303886250Y-72695000D03*
X289606250Y-72695000D03*
X284836250Y-72695000D03*
X270556250Y-72695000D03*
X265786250Y-72695000D03*
X251506250Y-72695000D03*
X246736250Y-72695000D03*
X232456250Y-72695000D03*
X227686250Y-72695000D03*
X213406250Y-72695000D03*
X208636250Y-72695000D03*
X194356250Y-72695000D03*
X189586250Y-72695000D03*
X175306250Y-72695000D03*
X170536250Y-72695000D03*
X156256250Y-72695000D03*
X151486250Y-72695000D03*
X137206250Y-72695000D03*
X108631250Y-72695000D03*
X94380700Y-72695000D03*
X80056250Y-72695000D03*
X75286250Y-72695000D03*
X61006250Y-72695000D03*
X56236250Y-72695000D03*
X41956250Y-72695000D03*
X37186250Y-72695000D03*
X22906250Y-72695000D03*
X380093750Y-53645000D03*
X146500850Y-93243400D03*
X56254650Y-92608400D03*
X188309250Y-91745000D03*
X375323750Y-91745000D03*
X361043750Y-91745000D03*
X356273750Y-91745000D03*
X341993750Y-91745000D03*
X337223750Y-91745000D03*
X322943750Y-91745000D03*
X318173750Y-91745000D03*
X303893750Y-91745000D03*
X299123750Y-91745000D03*
X284843750Y-91745000D03*
X263405000Y-91745000D03*
X249125000Y-91745000D03*
X227686250Y-91745000D03*
X213406250Y-91745000D03*
X139580000Y-91745000D03*
X125300000Y-91745000D03*
X115767500Y-91745000D03*
X101487500Y-91745000D03*
X80056250Y-91745000D03*
X75286250Y-91745000D03*
X61006250Y-91745000D03*
X46711250Y-91745000D03*
X394373750Y-91745000D03*
X380093750Y-91745000D03*
X394373750Y-72695000D03*
X380093750Y-72695000D03*
X162883850Y-93091000D03*
X183915050Y-91897200D03*
X141065250Y-95707200D03*
X42111250Y-79885000D03*
X32586250Y-75105000D03*
X32586250Y-60835000D03*
X32586250Y-56055000D03*
X32586250Y-41785000D03*
X32586250Y-37005000D03*
X51636250Y-75105000D03*
X51636250Y-60835000D03*
X51636250Y-56055000D03*
X51636250Y-41785000D03*
X51636250Y-37005000D03*
X51636250Y-75105000D03*
X51636250Y-75105000D03*
X70686250Y-75105000D03*
X70686250Y-60835000D03*
X70686250Y-56055000D03*
X70686250Y-41785000D03*
X70686250Y-37005000D03*
X89736250Y-75105000D03*
X89736250Y-60835000D03*
X89736250Y-56055000D03*
X89736250Y-41785000D03*
X89736250Y-37005000D03*
X118311250Y-75105000D03*
X118311250Y-60835000D03*
X113548750Y-56055000D03*
X113548750Y-41785000D03*
X111167500Y-37005000D03*
X158792500Y-79885000D03*
X146886250Y-75105000D03*
X146886250Y-60835000D03*
X137361250Y-56055000D03*
X137361250Y-41785000D03*
X132598750Y-37005000D03*
X165936250Y-75105000D03*
X165936250Y-60835000D03*
X156411250Y-56055000D03*
X156411250Y-41785000D03*
X151648750Y-37005000D03*
X223086250Y-79885000D03*
X184986250Y-75105000D03*
X184986250Y-60835000D03*
X175461250Y-56055000D03*
X175461250Y-41785000D03*
X170698750Y-37005000D03*
X168535350Y-75069700D03*
X258805000Y-79885000D03*
X204036250Y-75105000D03*
X204036250Y-60835000D03*
X194511250Y-56055000D03*
X194511250Y-41785000D03*
X189748750Y-37005000D03*
X294523750Y-79885000D03*
X223086250Y-75105000D03*
X223086250Y-60835000D03*
X213561250Y-56055000D03*
X213561250Y-41785000D03*
X208798750Y-37005000D03*
X313573750Y-79885000D03*
X242136250Y-75105000D03*
X242136250Y-60835000D03*
X232611250Y-56055000D03*
X232611250Y-41785000D03*
X227848750Y-37005000D03*
X261186250Y-75105000D03*
X332623750Y-79885000D03*
X261186250Y-60835000D03*
X251661250Y-56055000D03*
X251661250Y-41785000D03*
X246898750Y-37005000D03*
X351673750Y-79885000D03*
X280236250Y-75105000D03*
X280236250Y-60835000D03*
X270711250Y-56055000D03*
X270711250Y-41785000D03*
X265948750Y-37005000D03*
X370723750Y-79885000D03*
X299286250Y-75105000D03*
X299286250Y-60835000D03*
X289761250Y-56055000D03*
X289761250Y-41785000D03*
X284998750Y-37005000D03*
X318336250Y-75105000D03*
X318336250Y-60835000D03*
X308811250Y-56055000D03*
X308811250Y-41785000D03*
X304048750Y-37005000D03*
X339767500Y-75105000D03*
X339767500Y-60835000D03*
X327861250Y-56055000D03*
X327861250Y-41785000D03*
X323098750Y-37005000D03*
X358817500Y-41785000D03*
X365961250Y-60835000D03*
X358817500Y-56055000D03*
X342148750Y-37005000D03*
X365948550Y-75133200D03*
X389773750Y-37005000D03*
X389773750Y-41785000D03*
X389773750Y-56055000D03*
X389773750Y-60835000D03*
X389773750Y-75105000D03*
X355769140Y-21336000D03*
X350589850Y-26543000D03*
X339481750Y-21234400D03*
D22*
X180707250Y-87350600D02*
X180707250Y-86124200D01*
X165035251Y-76465599D02*
X166160450Y-77590798D01*
X164339249Y-76465599D02*
X165035251Y-76465599D01*
X166160450Y-77590798D02*
X166160450Y-78765400D01*
X162172650Y-78632198D02*
X164339249Y-76465599D01*
X162172650Y-79375000D02*
X162172650Y-78632198D01*
X155839040Y-96097210D02*
X155839040Y-96013610D01*
X155906230Y-92430600D02*
X155839040Y-92363410D01*
X161004250Y-92430600D02*
X155906230Y-92430600D01*
X352159550Y-22966400D02*
X352164550Y-22961400D01*
X352159550Y-24286400D02*
X352159550Y-22966400D01*
X346209550Y-22961400D02*
X346209550Y-24286400D01*
X352509550Y-23306400D02*
X352164550Y-22961400D01*
X353509550Y-23306400D02*
X352509550Y-23306400D01*
X352164550Y-21271400D02*
X353509550Y-19926400D01*
X352164550Y-22961400D02*
X352164550Y-21271400D01*
X349589169Y-19926400D02*
X344859550Y-19926400D01*
X352164550Y-22961400D02*
X352164550Y-22501781D01*
X346209550Y-22662990D02*
X346209550Y-22961400D01*
X347144100Y-21728440D02*
X346209550Y-22662990D01*
X351391210Y-21728440D02*
X347144100Y-21728440D01*
X352164550Y-22501781D02*
X351391210Y-21728440D01*
X351391210Y-21728440D02*
X349589169Y-19926400D01*
X345204550Y-22961400D02*
X344859550Y-23306400D01*
X346209550Y-22961400D02*
X345204550Y-22961400D01*
X353935760Y-23732610D02*
X353509550Y-23306400D01*
X356693940Y-23732610D02*
X353935760Y-23732610D01*
X357718950Y-22707600D02*
X356693940Y-23732610D01*
X339716748Y-19926400D02*
X344859550Y-19926400D01*
X337288350Y-22354798D02*
X339716748Y-19926400D01*
X337288350Y-23164800D02*
X337288350Y-22354798D01*
X180707250Y-85376800D02*
X180707250Y-86124200D01*
X182637650Y-85376800D02*
X180707250Y-85376800D01*
X191818280Y-76196170D02*
X191509650Y-76504800D01*
X191509650Y-76504800D02*
X182637650Y-85376800D01*
X172409050Y-97138800D02*
X173628050Y-98357800D01*
X155839040Y-97628590D02*
X155839040Y-96097210D01*
X157219650Y-99009200D02*
X155839040Y-97628590D01*
X161004250Y-92176600D02*
X161004250Y-92430600D01*
X165422850Y-90918800D02*
X162262050Y-90918800D01*
X162262050Y-90918800D02*
X161004250Y-92176600D01*
X173152850Y-77774800D02*
X173322850Y-77944800D01*
X173610350Y-86118800D02*
X173560350Y-86168800D01*
X180701850Y-86118800D02*
X173610350Y-86118800D01*
X180707250Y-86124200D02*
X180701850Y-86118800D01*
X171872850Y-96942200D02*
X172069450Y-97138800D01*
X172069450Y-97138800D02*
X172409050Y-97138800D01*
X167872850Y-90870600D02*
X166693850Y-92049600D01*
X167872850Y-90356300D02*
X167872850Y-90870600D01*
X166553650Y-92049600D02*
X166255450Y-91751400D01*
X166693850Y-92049600D02*
X166553650Y-92049600D01*
X166199828Y-84668800D02*
X166685350Y-84668800D01*
X165922840Y-84391812D02*
X166199828Y-84668800D01*
X165922840Y-79003010D02*
X165922840Y-84391812D01*
X166160450Y-78765400D02*
X165922840Y-79003010D01*
X170372850Y-80554800D02*
X170372850Y-83481300D01*
X173152850Y-77774800D02*
X170372850Y-80554800D01*
X174509225Y-76418425D02*
X173152850Y-77774800D01*
X176851427Y-76418425D02*
X174509225Y-76418425D01*
X177251426Y-76818424D02*
X176851427Y-76418425D01*
X166820850Y-78105000D02*
X166160450Y-78765400D01*
X166820850Y-76835000D02*
X166820850Y-78105000D01*
X166255450Y-91751400D02*
X165422850Y-90918800D01*
X171872850Y-90356300D02*
X171872850Y-91107200D01*
X171872850Y-91107200D02*
X172358050Y-91592400D01*
X172358050Y-94030800D02*
X171872850Y-94516000D01*
X172358050Y-91592400D02*
X172358050Y-92710000D01*
X171872850Y-94516000D02*
X171872850Y-96942200D01*
X172358050Y-92710000D02*
X172358050Y-94030800D01*
X162564850Y-98944800D02*
X162164850Y-98944800D01*
X164264850Y-97244800D02*
X162564850Y-98944800D01*
X164364850Y-97244800D02*
X164264850Y-97244800D01*
X161650441Y-99459209D02*
X157669659Y-99459209D01*
X157669659Y-99459209D02*
X157219650Y-99009200D01*
X162164850Y-98944800D02*
X161650441Y-99459209D01*
X170037650Y-99170600D02*
X172069450Y-97138800D01*
X169132250Y-99170600D02*
X170037650Y-99170600D01*
X208008250Y-85363000D02*
X201808250Y-85363000D01*
X200985110Y-85363000D02*
X191818280Y-76196170D01*
X201808250Y-85363000D02*
X200985110Y-85363000D01*
X198484465Y-59018615D02*
X191818280Y-65684800D01*
X335386235Y-59018615D02*
X198484465Y-59018615D01*
X339109050Y-55295800D02*
X335386235Y-59018615D01*
X339109050Y-51835920D02*
X339109050Y-55295800D01*
X350315255Y-40629715D02*
X339109050Y-51835920D01*
X350315255Y-33573995D02*
X350315255Y-40629715D01*
X191818280Y-65684800D02*
X191818280Y-76196170D01*
X352159550Y-31729700D02*
X350315255Y-33573995D01*
X352159550Y-24286400D02*
X352159550Y-31729700D01*
X174122850Y-78854800D02*
X175202850Y-77774800D01*
X174122850Y-81218800D02*
X174122850Y-79337400D01*
X175279050Y-77698600D02*
X175202850Y-77774800D01*
X177437260Y-87718800D02*
X177437260Y-87718800D01*
X174122850Y-79337400D02*
X174122850Y-78854800D01*
X177183650Y-83718800D02*
X175822850Y-83718800D01*
X177843950Y-83058500D02*
X177183650Y-83718800D01*
X174122850Y-79337400D02*
X177843950Y-83058500D01*
X161266050Y-90118800D02*
X161004250Y-90380600D01*
X164422850Y-90118800D02*
X161266050Y-90118800D01*
X160986250Y-90398600D02*
X161004250Y-90380600D01*
X159531050Y-90398600D02*
X160986250Y-90398600D01*
X351309550Y-22966400D02*
X351314550Y-22961400D01*
X351309550Y-24286400D02*
X351309550Y-22966400D01*
X347064550Y-24281400D02*
X347059550Y-24286400D01*
X347064550Y-22961400D02*
X347064550Y-24281400D01*
X347064550Y-22444400D02*
X347064550Y-22961400D01*
X347197551Y-22311399D02*
X347064550Y-22444400D01*
X351124168Y-22311399D02*
X347197551Y-22311399D01*
X351314550Y-22501781D02*
X351124168Y-22311399D01*
X351314550Y-22961400D02*
X351314550Y-22501781D01*
X145681649Y-90798599D02*
X143529050Y-88646000D01*
X159131051Y-90798599D02*
X145681649Y-90798599D01*
X159531050Y-90398600D02*
X159131051Y-90798599D01*
X198159850Y-90271600D02*
X198194250Y-90306000D01*
X188778460Y-90271600D02*
X198159850Y-90271600D01*
X164077650Y-78798200D02*
X164110450Y-78765400D01*
X164077650Y-80238600D02*
X164077650Y-78798200D01*
X174048251Y-95887599D02*
X174048251Y-95032999D01*
X173628050Y-96307800D02*
X174048251Y-95887599D01*
X175812450Y-93268800D02*
X175364999Y-93716251D01*
X174048251Y-95032999D02*
X175812450Y-93268800D01*
X177437260Y-91643990D02*
X175812450Y-93268800D01*
X174872850Y-84668800D02*
X173560350Y-84668800D01*
X175822850Y-83718800D02*
X174872850Y-84668800D01*
X176887260Y-87168800D02*
X177437260Y-87718800D01*
X173560350Y-87168800D02*
X176887260Y-87168800D01*
X164660350Y-90356300D02*
X164422850Y-90118800D01*
X167372850Y-90356300D02*
X164660350Y-90356300D01*
X164077650Y-80238600D02*
X164077650Y-83108800D01*
X166685350Y-85168800D02*
X165204900Y-85168800D01*
X164077650Y-84041550D02*
X164077650Y-83108800D01*
X165204900Y-85168800D02*
X164077650Y-84041550D01*
X170872850Y-82995778D02*
X170872850Y-83481300D01*
X172649828Y-81218800D02*
X170872850Y-82995778D01*
X174122850Y-81218800D02*
X172649828Y-81218800D01*
X173628050Y-96297602D02*
X173628050Y-96307800D01*
X172522850Y-95192402D02*
X173628050Y-96297602D01*
X172372850Y-90841822D02*
X173529828Y-91998800D01*
X172372850Y-90356300D02*
X172372850Y-90841822D01*
X173529828Y-93640220D02*
X173529828Y-91998800D01*
X172644248Y-94525800D02*
X173529828Y-93640220D01*
X172522850Y-94525800D02*
X172644248Y-94525800D01*
X172522850Y-94525800D02*
X172522850Y-95192402D01*
X190468250Y-75636970D02*
X188330420Y-77774800D01*
X190468251Y-65125599D02*
X190468250Y-75636970D01*
X334827035Y-57668585D02*
X197925265Y-57668585D01*
X337759022Y-54736598D02*
X334827035Y-57668585D01*
X337759022Y-51251480D02*
X337759022Y-54736598D01*
X348049850Y-40960652D02*
X337759022Y-51251480D01*
X188330420Y-77774800D02*
X175202850Y-77774800D01*
X197925265Y-57668585D02*
X190468251Y-65125599D01*
X348049850Y-35969400D02*
X348049850Y-40960652D01*
X158398810Y-95780040D02*
X157219650Y-96959200D01*
X170822830Y-91679820D02*
X170822830Y-95134220D01*
X170872850Y-91629800D02*
X170822830Y-91679820D01*
X170872850Y-90356300D02*
X170872850Y-91629800D01*
X170872850Y-91629800D02*
X170872850Y-91779380D01*
X170177010Y-95780040D02*
X168780010Y-95780040D01*
X170822830Y-95134220D02*
X170177010Y-95780040D01*
X168780010Y-95780040D02*
X158398810Y-95780040D01*
X169135610Y-95780040D02*
X168780010Y-95780040D01*
X161879250Y-96959200D02*
X162164850Y-97244800D01*
X157219650Y-96959200D02*
X161879250Y-96959200D01*
X169691050Y-97120600D02*
X169132250Y-97120600D01*
X171272840Y-95538810D02*
X169691050Y-97120600D01*
X171372850Y-90356300D02*
X171372850Y-91915790D01*
X171372850Y-94711200D02*
X171372850Y-91915790D01*
X171272840Y-94811210D02*
X171372850Y-94711200D01*
X171272840Y-95538810D02*
X171272840Y-94811210D01*
X167308050Y-98944800D02*
X164364850Y-98944800D01*
X169132250Y-97120600D02*
X167308050Y-98944800D01*
X177975450Y-86668800D02*
X178657250Y-87350600D01*
X173560350Y-86668800D02*
X177975450Y-86668800D01*
X175009260Y-85168800D02*
X173560350Y-85168800D01*
X179818640Y-84518800D02*
X175659260Y-84518800D01*
X180135651Y-84201789D02*
X179818640Y-84518800D01*
X348608650Y-30353000D02*
X348608650Y-30937200D01*
X198111665Y-58118595D02*
X190918260Y-65312000D01*
X348608650Y-30937200D02*
X349345250Y-31673800D01*
X349345250Y-36974100D02*
X349415235Y-37044085D01*
X175659260Y-84518800D02*
X175009260Y-85168800D01*
X190918260Y-65312000D02*
X190918260Y-75823370D01*
X349345250Y-31673800D02*
X349345250Y-36974100D01*
X349415235Y-37044085D02*
X349415235Y-40256915D01*
X335013435Y-58118595D02*
X198111665Y-58118595D01*
X349415235Y-40256915D02*
X338209032Y-51463118D01*
X182539841Y-84201789D02*
X180135651Y-84201789D01*
X338209032Y-51463118D02*
X338209031Y-54922999D01*
X338209031Y-54922999D02*
X335013435Y-58118595D01*
X190918260Y-75823370D02*
X182539841Y-84201789D01*
X175145670Y-85668800D02*
X173560350Y-85668800D01*
X175495670Y-85318800D02*
X175145670Y-85668800D01*
X350589850Y-30327600D02*
X350589850Y-31031610D01*
X350589850Y-31031610D02*
X349865245Y-31756215D01*
X338659041Y-51649519D02*
X338659040Y-55109400D01*
X182726241Y-84651799D02*
X180322053Y-84651799D01*
X349865245Y-31756215D02*
X349865244Y-40443316D01*
X349865244Y-40443316D02*
X338659041Y-51649519D01*
X338659040Y-55109400D02*
X335199835Y-58568605D01*
X335199835Y-58568605D02*
X198298065Y-58568605D01*
X198298065Y-58568605D02*
X191368270Y-65498400D01*
X179655050Y-85318800D02*
X175495670Y-85318800D01*
X191368270Y-65498400D02*
X191368270Y-76009770D01*
X191368270Y-76009770D02*
X182726241Y-84651799D01*
X180322053Y-84651799D02*
X179655050Y-85318800D01*
X165068490Y-85668800D02*
X162635490Y-83235800D01*
X166685350Y-85668800D02*
X165068490Y-85668800D01*
X162635490Y-81887840D02*
X162172650Y-81425000D01*
X162635490Y-83235800D02*
X162635490Y-81887840D01*
X198185250Y-88265000D02*
X198194250Y-88256000D01*
X195908250Y-88265000D02*
X198185250Y-88265000D01*
X198194250Y-88256000D02*
X199726250Y-88256000D01*
X172872850Y-90356300D02*
X174059850Y-91543300D01*
X174059850Y-94183200D02*
X173323250Y-94919800D01*
X174059850Y-91543300D02*
X174059850Y-94183200D01*
X208008250Y-89063000D02*
X201808250Y-89063000D01*
X200533250Y-89063000D02*
X199726250Y-88256000D01*
X201808250Y-89063000D02*
X200533250Y-89063000D01*
X22906250Y-34595000D02*
X346748750Y-34595000D01*
X359526250Y-34595000D02*
X359611250Y-34680000D01*
X356281250Y-34595000D02*
X359526250Y-34595000D01*
X169826550Y-90356300D02*
X169872850Y-90356300D01*
X169822860Y-90359990D02*
X169826550Y-90356300D01*
X169822860Y-94356190D02*
X169822860Y-90359990D01*
X169299030Y-94880020D02*
X169822860Y-94356190D01*
X56164068Y-94880018D02*
X169299030Y-94880020D01*
X53943250Y-92659200D02*
X56164068Y-94880018D01*
X56236250Y-53645000D02*
X41956250Y-53645000D01*
X22906250Y-53645000D02*
X37186250Y-53645000D01*
X37186250Y-53645000D02*
X41956250Y-53645000D01*
X56236250Y-53645000D02*
X141961250Y-53645000D01*
X146731250Y-53645000D02*
X161011250Y-53645000D01*
X165781250Y-53645000D02*
X180061250Y-53645000D01*
X184831250Y-53645000D02*
X199111250Y-53645000D01*
X380178750Y-34680000D02*
X380093750Y-34595000D01*
X383423750Y-34680000D02*
X380178750Y-34680000D01*
X363417500Y-53645000D02*
X349137500Y-53645000D01*
X332461250Y-53645000D02*
X318181250Y-53645000D01*
X318181250Y-53645000D02*
X299131250Y-53645000D01*
X299131250Y-53645000D02*
X280081250Y-53645000D01*
X280081250Y-53645000D02*
X203881250Y-53645000D01*
X165781250Y-53645000D02*
X161011250Y-53645000D01*
X146731250Y-53645000D02*
X141961250Y-53645000D01*
X56907860Y-94430010D02*
X55060850Y-92583000D01*
X166721642Y-94430010D02*
X56907860Y-94430010D01*
X363417500Y-43674650D02*
X372497150Y-34595000D01*
X363417500Y-53645000D02*
X363417500Y-43674650D01*
X169372850Y-90356300D02*
X169372850Y-90841822D01*
X169372850Y-90356300D02*
X169372850Y-94169790D01*
X169112630Y-94430010D02*
X166721642Y-94430010D01*
X169372850Y-94169790D02*
X169112630Y-94430010D01*
X372497150Y-34595000D02*
X377531150Y-34595000D01*
X377531150Y-34595000D02*
X380093750Y-34595000D01*
X377259650Y-34595000D02*
X377531150Y-34595000D01*
X170536250Y-72695000D02*
X156256250Y-72695000D01*
X151486250Y-72695000D02*
X137206250Y-72695000D01*
X108643750Y-72707500D02*
X108631250Y-72695000D01*
X122959450Y-72707500D02*
X108643750Y-72707500D01*
X94380700Y-72695000D02*
X80056250Y-72695000D01*
X75286250Y-72695000D02*
X61006250Y-72695000D01*
X56236250Y-72695000D02*
X41956250Y-72695000D01*
X37186250Y-72695000D02*
X22906250Y-72695000D01*
X37186250Y-72695000D02*
X41956250Y-72695000D01*
X56236250Y-72695000D02*
X61006250Y-72695000D01*
X75286250Y-72695000D02*
X80056250Y-72695000D01*
X175306250Y-72695000D02*
X189586250Y-72695000D01*
X194356250Y-72695000D02*
X208636250Y-72695000D01*
X94380700Y-72695000D02*
X108631250Y-72695000D01*
X151486250Y-72695000D02*
X156256250Y-72695000D01*
X147237450Y-93980000D02*
X146500850Y-93243400D01*
X166371652Y-93980000D02*
X147237450Y-93980000D01*
X146500850Y-93243400D02*
X146500850Y-93243400D01*
X380178750Y-53730000D02*
X380093750Y-53645000D01*
X383423750Y-53730000D02*
X380178750Y-53730000D01*
X356281250Y-72695000D02*
X349130000Y-72695000D01*
X356281250Y-72695000D02*
X370561250Y-72695000D01*
X344367500Y-72695000D02*
X330087500Y-72695000D01*
X330087500Y-72695000D02*
X322497650Y-72695000D01*
X322497650Y-72695000D02*
X322936250Y-72695000D01*
X322936250Y-72695000D02*
X308656250Y-72695000D01*
X308656250Y-72695000D02*
X303886250Y-72695000D01*
X303886250Y-72695000D02*
X289606250Y-72695000D01*
X208636250Y-72695000D02*
X213406250Y-72695000D01*
X213406250Y-72695000D02*
X227686250Y-72695000D01*
X227686250Y-72695000D02*
X232456250Y-72695000D01*
X232456250Y-72695000D02*
X246736250Y-72695000D01*
X359234440Y-72695000D02*
X370561250Y-72695000D01*
X251498750Y-72695000D02*
X359234440Y-72695000D01*
X145764250Y-93980000D02*
X146500850Y-93243400D01*
X57626250Y-93980000D02*
X145764250Y-93980000D01*
X56254650Y-92608400D02*
X57626250Y-93980000D01*
X137193750Y-72707500D02*
X137206250Y-72695000D01*
X122959450Y-72707500D02*
X137193750Y-72707500D01*
X168872850Y-93223400D02*
X168872850Y-90356300D01*
X168116250Y-93980000D02*
X168872850Y-93223400D01*
X166371652Y-93980000D02*
X168116250Y-93980000D01*
X246736250Y-72695000D02*
X251506250Y-72695000D01*
X370561250Y-63177500D02*
X375840650Y-57898100D01*
X370561250Y-64272100D02*
X370561250Y-63177500D01*
X375840650Y-57898100D02*
X380093750Y-53645000D01*
X375323750Y-58415000D02*
X375840650Y-57898100D01*
X370561250Y-72695000D02*
X370561250Y-64272100D01*
X139580000Y-91745000D02*
X125300000Y-91745000D01*
X35846250Y-91745000D02*
X35761250Y-91830000D01*
X125300000Y-91745000D02*
X35846250Y-91745000D01*
X139665000Y-91830000D02*
X139580000Y-91745000D01*
X152442500Y-91830000D02*
X147576650Y-91830000D01*
X147576650Y-91830000D02*
X141404450Y-91830000D01*
X141404450Y-91830000D02*
X139665000Y-91830000D01*
X322758850Y-91737400D02*
X383423750Y-91737400D01*
X394366150Y-91737400D02*
X394373750Y-91745000D01*
X383423750Y-91737400D02*
X394366150Y-91737400D01*
X394373750Y-72695000D02*
X380093750Y-72695000D01*
X153943110Y-93330610D02*
X152442500Y-91830000D01*
X162644240Y-93330610D02*
X153943110Y-93330610D01*
X163356050Y-92618800D02*
X162883850Y-93091000D01*
X185865000Y-91745000D02*
X185780000Y-91830000D01*
X188309250Y-91745000D02*
X185865000Y-91745000D01*
X162883850Y-93091000D02*
X162644240Y-93330610D01*
X185712800Y-91897200D02*
X185780000Y-91830000D01*
X183915050Y-91897200D02*
X185712800Y-91897200D01*
X144894049Y-87281001D02*
X146069050Y-86106000D01*
X142609047Y-87281001D02*
X144894049Y-87281001D01*
X141404450Y-88485598D02*
X142609047Y-87281001D01*
X141404450Y-91830000D02*
X141404450Y-88485598D01*
X168372850Y-90356300D02*
X168372850Y-93086990D01*
X167904660Y-92618800D02*
X165896050Y-92618800D01*
X168372850Y-93086990D02*
X167904660Y-92618800D01*
X165896050Y-92618800D02*
X163356050Y-92618800D01*
X166122850Y-92618800D02*
X165896050Y-92618800D01*
X193071750Y-91745000D02*
X188309250Y-91745000D01*
X394373750Y-72695000D02*
X394373750Y-91745000D01*
X242129700Y-91745000D02*
X242137300Y-91737400D01*
X230395300Y-91745000D02*
X242129700Y-91745000D01*
X242137300Y-91737400D02*
X318237650Y-91737400D01*
X240835854Y-91737400D02*
X242137300Y-91737400D01*
X193071750Y-91745000D02*
X230395300Y-91745000D01*
X230395300Y-91745000D02*
X236065754Y-91745000D01*
X141442420Y-95330030D02*
X141065250Y-95707200D01*
X169931645Y-95330030D02*
X141442420Y-95330030D01*
X170372820Y-94888855D02*
X169931645Y-95330030D01*
X170372820Y-90356330D02*
X170372820Y-94888855D01*
X170372850Y-90356300D02*
X170372820Y-90356330D01*
X52637049Y-78144999D02*
X43851251Y-78144999D01*
X55721250Y-81229200D02*
X52637049Y-78144999D01*
X166685350Y-89668800D02*
X161880640Y-89668800D01*
X161880640Y-89668800D02*
X161530640Y-89318800D01*
X153477490Y-85692598D02*
X154049669Y-85120419D01*
X158006112Y-89318800D02*
X157554902Y-89770010D01*
X157554902Y-89770010D02*
X154950098Y-89770010D01*
X43851251Y-78144999D02*
X42111250Y-79885000D01*
X61339409Y-80310041D02*
X60420250Y-81229200D01*
X60420250Y-81229200D02*
X55721250Y-81229200D01*
X154950098Y-89770010D02*
X153477489Y-88297401D01*
X153477489Y-88297401D02*
X153477490Y-85692598D01*
X154049669Y-85120419D02*
X154049669Y-82463221D01*
X161530640Y-89318800D02*
X158006112Y-89318800D01*
X154049669Y-82463221D02*
X151896489Y-80310041D01*
X151896489Y-80310041D02*
X61339409Y-80310041D01*
X51636250Y-76306000D02*
X51636250Y-75105000D01*
X56109440Y-80779190D02*
X51636250Y-76306000D01*
X161690260Y-88842010D02*
X157846492Y-88842010D01*
X154499679Y-85306819D02*
X154499679Y-82276821D01*
X162017050Y-89168800D02*
X161690260Y-88842010D01*
X157846492Y-88842010D02*
X157368501Y-89320001D01*
X157368501Y-89320001D02*
X155136499Y-89320001D01*
X155136499Y-89320001D02*
X153927499Y-88111001D01*
X154499679Y-82276821D02*
X152082889Y-79860031D01*
X153927499Y-88111001D02*
X153927499Y-85878999D01*
X152082889Y-79860031D02*
X61153008Y-79860032D01*
X166685350Y-89168800D02*
X162017050Y-89168800D01*
X153927499Y-85878999D02*
X154499679Y-85306819D01*
X61153008Y-79860032D02*
X60233850Y-80779190D01*
X60233850Y-80779190D02*
X56109440Y-80779190D01*
X159438659Y-87613809D02*
X160216850Y-88392000D01*
X159438659Y-86579391D02*
X159438659Y-87613809D01*
X152269289Y-79410021D02*
X159438659Y-86579391D01*
X74991271Y-79410021D02*
X152269289Y-79410021D01*
X70686250Y-75105000D02*
X74991271Y-79410021D01*
X161918650Y-88433990D02*
X161918650Y-88392000D01*
X162153460Y-88668800D02*
X161918650Y-88433990D01*
X166685350Y-88668800D02*
X162153460Y-88668800D01*
X160216850Y-88392000D02*
X161918650Y-88392000D01*
X92773693Y-78960011D02*
X89736250Y-75922568D01*
X159315677Y-85819999D02*
X152455689Y-78960011D01*
X152455689Y-78960011D02*
X92773693Y-78960011D01*
X164245302Y-88168800D02*
X161896501Y-85819999D01*
X89736250Y-75922568D02*
X89736250Y-75105000D01*
X161896501Y-85819999D02*
X159315677Y-85819999D01*
X166685350Y-88168800D02*
X164245302Y-88168800D01*
X160367250Y-85369988D02*
X162082901Y-85369989D01*
X162082901Y-85369989D02*
X162831712Y-86118800D01*
X159502073Y-85369985D02*
X160367250Y-85369988D01*
X152642089Y-78510001D02*
X159502073Y-85369985D01*
X121716251Y-78510001D02*
X152642089Y-78510001D01*
X118311250Y-75105000D02*
X121716251Y-78510001D01*
X164522850Y-87668800D02*
X166685350Y-87668800D01*
X162972850Y-86118800D02*
X164522850Y-87668800D01*
X162831712Y-86118800D02*
X162972850Y-86118800D01*
X162269301Y-84919979D02*
X162668122Y-85318800D01*
X159688474Y-84919976D02*
X162269301Y-84919979D01*
X152828489Y-78059991D02*
X159688474Y-84919976D01*
X149841241Y-78059991D02*
X152828489Y-78059991D01*
X146886250Y-75105000D02*
X149841241Y-78059991D01*
X162809260Y-85318800D02*
X162668122Y-85318800D01*
X164659260Y-87168800D02*
X162809260Y-85318800D01*
X166685350Y-87168800D02*
X164659260Y-87168800D01*
X164218050Y-75105000D02*
X165936250Y-75105000D01*
X160503440Y-78819610D02*
X164218050Y-75105000D01*
X160503440Y-79382190D02*
X160503440Y-78819610D01*
X160503440Y-79382190D02*
X160503440Y-79037610D01*
X160503440Y-83346000D02*
X160503440Y-79382190D01*
X161627409Y-84469969D02*
X160503440Y-83346000D01*
X162596840Y-84469970D02*
X161627409Y-84469969D01*
X164795670Y-86668800D02*
X162596840Y-84469970D01*
X166685350Y-86668800D02*
X164795670Y-86668800D01*
X161512650Y-83718800D02*
X160953450Y-83159600D01*
X163943871Y-76015589D02*
X165645839Y-76015589D01*
X160953449Y-79006011D02*
X163943871Y-76015589D01*
X160953449Y-79019401D02*
X160953449Y-79006011D01*
X160953450Y-83159600D02*
X160953449Y-79019401D01*
X165645839Y-76015589D02*
X167462461Y-76015589D01*
X167462461Y-76015589D02*
X167589461Y-76015589D01*
X167589461Y-76015589D02*
X168535350Y-75069700D01*
X162482080Y-83718800D02*
X162071450Y-83718800D01*
X166685350Y-86168800D02*
X164932080Y-86168800D01*
X162071450Y-83718800D02*
X161512650Y-83718800D01*
X164932080Y-86168800D02*
X162482080Y-83718800D01*
X204187050Y-60684200D02*
X204036250Y-60835000D01*
X185637350Y-37818450D02*
X188935300Y-37818450D01*
X181271304Y-42184496D02*
X185637350Y-37818450D01*
X181271301Y-55472929D02*
X181271301Y-43131349D01*
X188935300Y-37818450D02*
X189748750Y-37005000D01*
X181271301Y-43131349D02*
X181271304Y-42184496D01*
X178491037Y-58250373D02*
X178493857Y-58250373D01*
X178493857Y-58250373D02*
X181271301Y-55472929D01*
X171886740Y-64854670D02*
X178491037Y-58250373D01*
X167722850Y-77403380D02*
X171886740Y-73239490D01*
X171886740Y-73239490D02*
X171886740Y-64854670D01*
X167722850Y-78955600D02*
X167722850Y-77403380D01*
X166685350Y-79993100D02*
X167722850Y-78955600D01*
X166685350Y-84168800D02*
X166685350Y-79993100D01*
X208230000Y-37573750D02*
X208798750Y-37005000D01*
X207535290Y-38268460D02*
X208230000Y-37573750D01*
X181721313Y-42370897D02*
X185823750Y-38268460D01*
X181721311Y-43119861D02*
X181721313Y-42370897D01*
X181721311Y-55659329D02*
X181721311Y-43119861D01*
X178680257Y-58700383D02*
X181721311Y-55659329D01*
X178677437Y-58700383D02*
X178680257Y-58700383D01*
X172336750Y-65041070D02*
X178677437Y-58700383D01*
X185823750Y-38268460D02*
X207535290Y-38268460D01*
X172336750Y-73425890D02*
X172336750Y-65041070D01*
X168522850Y-77239790D02*
X172336750Y-73425890D01*
X168522850Y-78994200D02*
X168320660Y-78994200D01*
X168320660Y-78994200D02*
X167135360Y-80179500D01*
X168522850Y-78994200D02*
X168522850Y-77239790D01*
X167135360Y-83243810D02*
X167372850Y-83481300D01*
X167135360Y-80179500D02*
X167135360Y-83243810D01*
X227076800Y-37776950D02*
X227848750Y-37005000D01*
X226135280Y-38718470D02*
X227076800Y-37776950D01*
X186010150Y-38718470D02*
X226135280Y-38718470D01*
X182171322Y-42557298D02*
X186010150Y-38718470D01*
X182171321Y-55845729D02*
X182171322Y-42557298D01*
X178863838Y-59150392D02*
X178866659Y-59150391D01*
X172786760Y-65227470D02*
X178863838Y-59150392D01*
X172786760Y-73612290D02*
X172786760Y-65227470D01*
X169322850Y-77076200D02*
X172786760Y-73612290D01*
X178866659Y-59150391D02*
X182171321Y-55845729D01*
X167872850Y-80280610D02*
X169172260Y-78981200D01*
X167872850Y-83481300D02*
X167872850Y-80280610D01*
X169172260Y-78981200D02*
X169322850Y-78981200D01*
X169322850Y-78981200D02*
X169322850Y-77076200D01*
X245745800Y-38157950D02*
X246898750Y-37005000D01*
X244735270Y-39168480D02*
X245745800Y-38157950D01*
X186196550Y-39168480D02*
X244735270Y-39168480D01*
X182621331Y-42743699D02*
X186196550Y-39168480D01*
X182621331Y-56032129D02*
X182621331Y-42743699D01*
X179053059Y-59600401D02*
X182621331Y-56032129D01*
X173236770Y-65413870D02*
X179050239Y-59600401D01*
X173236770Y-73845260D02*
X173236770Y-65413870D01*
X179050239Y-59600401D02*
X179053059Y-59600401D01*
X170122850Y-76959180D02*
X173236770Y-73845260D01*
X170122850Y-78817610D02*
X170122850Y-78740000D01*
X168372850Y-80567610D02*
X170122850Y-78817610D01*
X168372850Y-83481300D02*
X168372850Y-80567610D01*
X170122850Y-78740000D02*
X170122850Y-76959180D01*
X264224300Y-38729450D02*
X265948750Y-37005000D01*
X186382950Y-39618490D02*
X263335260Y-39618490D01*
X183071341Y-56218529D02*
X183071340Y-42930100D01*
X173686780Y-65603090D02*
X183071341Y-56218529D01*
X173686780Y-74031660D02*
X173686780Y-65603090D01*
X263335260Y-39618490D02*
X264224300Y-38729450D01*
X183071340Y-42930100D02*
X186382950Y-39618490D01*
X170922850Y-76795590D02*
X173686780Y-74031660D01*
X170900470Y-78676400D02*
X170922850Y-78676400D01*
X168872850Y-80704020D02*
X170900470Y-78676400D01*
X168872850Y-83481300D02*
X168872850Y-80704020D01*
X170922850Y-78676400D02*
X170922850Y-76795590D01*
X174136790Y-65789490D02*
X183521350Y-56404930D01*
X183521350Y-56404930D02*
X183521350Y-43116500D01*
X174136790Y-74218060D02*
X174136790Y-65789490D01*
X171722850Y-76632000D02*
X174136790Y-74218060D01*
X281935250Y-40068500D02*
X282956800Y-39046950D01*
X186569350Y-40068500D02*
X281935250Y-40068500D01*
X282956800Y-39046950D02*
X284998750Y-37005000D01*
X183521350Y-43116500D02*
X186569350Y-40068500D01*
X171722850Y-78512810D02*
X171722850Y-78511600D01*
X169372850Y-80862810D02*
X171722850Y-78512810D01*
X169372850Y-83481300D02*
X169372850Y-80862810D01*
X171722850Y-78511600D02*
X171722850Y-76632000D01*
X320506705Y-77275455D02*
X318336250Y-75105000D01*
X320506705Y-94649945D02*
X320506705Y-77275455D01*
X317189250Y-97967400D02*
X320506705Y-94649945D01*
X188537450Y-97967400D02*
X317189250Y-97967400D01*
X179088850Y-88518800D02*
X188537450Y-97967400D01*
X177164258Y-88518800D02*
X179088850Y-88518800D01*
X176314258Y-87668800D02*
X177164258Y-88518800D01*
X173560350Y-87668800D02*
X176314258Y-87668800D01*
X179252440Y-89318800D02*
X188351050Y-98417410D01*
X177327848Y-89318800D02*
X179252440Y-89318800D01*
X176177848Y-88168800D02*
X177327848Y-89318800D01*
X173560350Y-88168800D02*
X176177848Y-88168800D01*
X193566340Y-98417410D02*
X193566341Y-98417409D01*
X188351050Y-98417410D02*
X193566340Y-98417410D01*
X193113550Y-98417410D02*
X193566341Y-98417409D01*
X339042499Y-75830001D02*
X339767500Y-75105000D01*
X338109841Y-76762659D02*
X339042499Y-75830001D01*
X320956715Y-79164673D02*
X323358729Y-76762659D01*
X320956715Y-94836345D02*
X320956715Y-79164673D01*
X317375651Y-98417409D02*
X320956715Y-94836345D01*
X323358729Y-76762659D02*
X338109841Y-76762659D01*
X193566341Y-98417409D02*
X317375651Y-98417409D01*
X321406724Y-79351074D02*
X323545129Y-77212669D01*
X321427319Y-95002151D02*
X321427319Y-79371669D01*
X321427319Y-79371669D02*
X321406724Y-79351074D01*
X360464900Y-75838850D02*
X361198750Y-75105000D01*
X360122000Y-76181750D02*
X360464900Y-75838850D01*
X317751260Y-98678210D02*
X321427319Y-95002151D01*
X317562050Y-98867420D02*
X317751260Y-98678210D01*
X361198750Y-75105000D02*
X365802500Y-75105000D01*
X317562052Y-98867418D02*
X317751260Y-98678210D01*
X316242832Y-98867418D02*
X317562052Y-98867418D01*
X179416030Y-90118800D02*
X188164650Y-98867420D01*
X177463850Y-90118800D02*
X179416030Y-90118800D01*
X316242830Y-98867420D02*
X316242832Y-98867418D01*
X176013850Y-88668800D02*
X177463850Y-90118800D01*
X188164650Y-98867420D02*
X316242830Y-98867420D01*
X173560350Y-88668800D02*
X176013850Y-88668800D01*
X359091081Y-77212669D02*
X359851150Y-76452600D01*
X323545129Y-77212669D02*
X359091081Y-77212669D01*
X359851150Y-76452600D02*
X360464900Y-75838850D01*
X175877440Y-89168800D02*
X173560350Y-89168800D01*
X177526450Y-90817810D02*
X175877440Y-89168800D01*
X389773750Y-75105000D02*
X380962750Y-75105000D01*
X380962750Y-75105000D02*
X380432150Y-74574400D01*
X380432150Y-74574400D02*
X376006950Y-74574400D01*
X376006950Y-74574400D02*
X372918671Y-77662679D01*
X321877329Y-95188551D02*
X317748451Y-99317429D01*
X321877329Y-79516879D02*
X321877329Y-95188551D01*
X372918671Y-77662679D02*
X323731529Y-77662679D01*
X179579620Y-90918800D02*
X177526450Y-90918800D01*
X187978250Y-99317430D02*
X179579620Y-90918800D01*
X177526450Y-90918800D02*
X177526450Y-90817810D01*
X323731529Y-77662679D02*
X321877329Y-79516879D01*
X317748451Y-99317429D02*
X187978250Y-99317430D01*
X26236250Y-32630000D02*
X26236250Y-27305000D01*
X45286250Y-27305000D02*
X45286250Y-32630000D01*
X64336250Y-27305000D02*
X64336250Y-32630000D01*
X83386250Y-27305000D02*
X83386250Y-32630000D01*
X104817500Y-27305000D02*
X104817500Y-32630000D01*
X126248750Y-32630000D02*
X126248750Y-27305000D01*
X145298750Y-32630000D02*
X145298750Y-27305000D01*
X164348750Y-32630000D02*
X164348750Y-27305000D01*
X183398750Y-32630000D02*
X183398750Y-27305000D01*
X202448750Y-32630000D02*
X202448750Y-27305000D01*
X221498750Y-32630000D02*
X221498750Y-27305000D01*
X240548750Y-32630000D02*
X240548750Y-27305000D01*
X259598750Y-32630000D02*
X259598750Y-27305000D01*
X278648750Y-27305000D02*
X278648750Y-32630000D01*
X297698750Y-27305000D02*
X297698750Y-32630000D01*
X316748750Y-32630000D02*
X316748750Y-27305000D01*
X335768750Y-27305000D02*
X335768750Y-32535000D01*
X359611250Y-32630000D02*
X359611250Y-27305000D01*
X26236250Y-51680000D02*
X26236250Y-46355000D01*
X45286250Y-51680000D02*
X45286250Y-46355000D01*
X64336250Y-51680000D02*
X64336250Y-46355000D01*
X83386250Y-51680000D02*
X83386250Y-46355000D01*
X107198750Y-48425998D02*
X107198750Y-46355000D01*
X107198750Y-51680000D02*
X107198750Y-48425998D01*
X131011250Y-51680000D02*
X131011250Y-46355000D01*
X150061250Y-46355000D02*
X150061250Y-51680000D01*
X169111250Y-46355000D02*
X169111250Y-51680000D01*
X188161250Y-46355000D02*
X188161250Y-51680000D01*
X207211250Y-46355000D02*
X207211250Y-51680000D01*
X226261250Y-48425998D02*
X226261250Y-46355000D01*
X226261250Y-51680000D02*
X226261250Y-48425998D01*
X245311250Y-51680000D02*
X245311250Y-46355000D01*
X264361250Y-51680000D02*
X264361250Y-46355000D01*
X283411250Y-51680000D02*
X283411250Y-46355000D01*
X302461250Y-51680000D02*
X302461250Y-46355000D01*
X321511250Y-51680000D02*
X321511250Y-46355000D01*
X352467500Y-46355000D02*
X352467500Y-51503400D01*
X26236250Y-67475998D02*
X26236250Y-65405000D01*
X26236250Y-70730000D02*
X26236250Y-67475998D01*
X45286250Y-70730000D02*
X45286250Y-65405000D01*
X64336250Y-70730000D02*
X64336250Y-65405000D01*
X83386250Y-67475998D02*
X83386250Y-65405000D01*
X83386250Y-70730000D02*
X83386250Y-67475998D01*
X111961250Y-70730000D02*
X111961250Y-65405000D01*
X140536250Y-67475998D02*
X140536250Y-65405000D01*
X140536250Y-70730000D02*
X140536250Y-67475998D01*
X159586250Y-70730000D02*
X159586250Y-65405000D01*
X178636250Y-67475998D02*
X178636250Y-65405000D01*
X178636250Y-70730000D02*
X178636250Y-67475998D01*
X197686250Y-70730000D02*
X197686250Y-65405000D01*
X216736250Y-70730000D02*
X216736250Y-65405000D01*
X235786250Y-70730000D02*
X235786250Y-65405000D01*
X254836250Y-70730000D02*
X254836250Y-65405000D01*
X273886250Y-70730000D02*
X273886250Y-65405000D01*
X292936250Y-67475998D02*
X292936250Y-65405000D01*
X292936250Y-70730000D02*
X292936250Y-67475998D01*
X311986250Y-67475998D02*
X311986250Y-65405000D01*
X311986250Y-70730000D02*
X311986250Y-67475998D01*
X333417500Y-68313998D02*
X333417500Y-65405000D01*
X333417500Y-70730000D02*
X333417500Y-68313998D01*
X359611250Y-70730000D02*
X359611250Y-65405000D01*
X35761250Y-89780000D02*
X35761250Y-84455000D01*
X64336250Y-89780000D02*
X64336250Y-84455000D01*
X83386250Y-89780000D02*
X83386250Y-84455000D01*
X104817500Y-89780000D02*
X104817500Y-84455000D01*
X128630000Y-89780000D02*
X128630000Y-84455000D01*
X152442500Y-84455000D02*
X152442500Y-89780000D01*
X185780000Y-84455000D02*
X185780000Y-89780000D01*
X216736250Y-86525998D02*
X216736250Y-84455000D01*
X216736250Y-89780000D02*
X216736250Y-86525998D01*
X252455000Y-89780000D02*
X252455000Y-84455000D01*
X288173750Y-84455000D02*
X288173750Y-89780000D01*
X307223750Y-84455000D02*
X307223750Y-89780000D01*
X326273750Y-89780000D02*
X326273750Y-84455000D01*
X345323750Y-84455000D02*
X345323750Y-89780000D01*
X364373750Y-84455000D02*
X364373750Y-89780000D01*
X383423750Y-27305000D02*
X383423750Y-32630000D01*
X383423750Y-46355000D02*
X383423750Y-51680000D01*
X383423750Y-70730000D02*
X383423750Y-65405000D01*
X383423750Y-89687400D02*
X383423750Y-84455000D01*
X355769140Y-22607410D02*
X355668950Y-22707600D01*
X355769140Y-21336000D02*
X355769140Y-22607410D01*
X348764550Y-23073402D02*
X348764550Y-22961400D01*
X349609550Y-23918402D02*
X348764550Y-23073402D01*
X349609550Y-24286400D02*
X349609550Y-23918402D01*
X349609550Y-27302100D02*
X349609550Y-24286400D01*
X348608650Y-28303000D02*
X349609550Y-27302100D01*
X350589850Y-28277600D02*
X350589850Y-26543000D01*
X350589850Y-26543000D02*
X350589850Y-26543000D01*
X339481750Y-23021400D02*
X339338350Y-23164800D01*
X339481750Y-21234400D02*
X339481750Y-23021400D01*
X347110050Y-32229600D02*
X348049850Y-33169400D01*
X347110050Y-24336900D02*
X347110050Y-32229600D01*
X347059550Y-24286400D02*
X347110050Y-24336900D01*
D23*
X183468800Y-95882782D02*
X183574362Y-100622500D01*
X140304208Y-100622500D01*
X140306445Y-99584200D01*
X155881578Y-99584200D01*
X155893838Y-99708682D01*
X155930148Y-99828380D01*
X155989113Y-99938694D01*
X156068465Y-100035385D01*
X156165156Y-100114737D01*
X156275470Y-100173702D01*
X156395168Y-100210012D01*
X156519650Y-100222272D01*
X156933900Y-100219200D01*
X157092650Y-100060450D01*
X157092650Y-99136200D01*
X157346650Y-99136200D01*
X157346650Y-100060450D01*
X157505400Y-100219200D01*
X157919650Y-100222272D01*
X158044132Y-100210012D01*
X158163830Y-100173702D01*
X158274144Y-100114737D01*
X158370835Y-100035385D01*
X158450187Y-99938694D01*
X158509152Y-99828380D01*
X158545462Y-99708682D01*
X158557722Y-99584200D01*
X158557304Y-99544800D01*
X160826778Y-99544800D01*
X160839038Y-99669282D01*
X160875348Y-99788980D01*
X160934313Y-99899294D01*
X161013665Y-99995985D01*
X161110356Y-100075337D01*
X161220670Y-100134302D01*
X161340368Y-100170612D01*
X161464850Y-100182872D01*
X161879100Y-100179800D01*
X162037850Y-100021050D01*
X162037850Y-99071800D01*
X160988600Y-99071800D01*
X160829850Y-99230550D01*
X160826778Y-99544800D01*
X158557304Y-99544800D01*
X158554650Y-99294950D01*
X158395900Y-99136200D01*
X157346650Y-99136200D01*
X157092650Y-99136200D01*
X156043400Y-99136200D01*
X155884650Y-99294950D01*
X155881578Y-99584200D01*
X140306445Y-99584200D01*
X140313267Y-96418928D01*
X140405476Y-96511137D01*
X140574994Y-96624405D01*
X140763352Y-96702426D01*
X140963311Y-96742200D01*
X141167189Y-96742200D01*
X141367148Y-96702426D01*
X141555506Y-96624405D01*
X141725024Y-96511137D01*
X141869187Y-96366974D01*
X141982455Y-96197456D01*
X142026953Y-96090030D01*
X156072922Y-96090030D01*
X156031245Y-96140813D01*
X155949178Y-96294349D01*
X155898642Y-96460945D01*
X155881578Y-96634199D01*
X155881578Y-97284201D01*
X155898642Y-97457455D01*
X155949178Y-97624051D01*
X156031245Y-97777587D01*
X156141688Y-97912162D01*
X156148244Y-97917542D01*
X156068465Y-97983015D01*
X155989113Y-98079706D01*
X155930148Y-98190020D01*
X155893838Y-98309718D01*
X155881578Y-98434200D01*
X155884650Y-98723450D01*
X156043400Y-98882200D01*
X157092650Y-98882200D01*
X157092650Y-98862200D01*
X157346650Y-98862200D01*
X157346650Y-98882200D01*
X158395900Y-98882200D01*
X158554650Y-98723450D01*
X158557722Y-98434200D01*
X158545462Y-98309718D01*
X158509152Y-98190020D01*
X158450187Y-98079706D01*
X158370835Y-97983015D01*
X158291056Y-97917542D01*
X158297612Y-97912162D01*
X158408055Y-97777587D01*
X158439264Y-97719200D01*
X160826778Y-97719200D01*
X160826778Y-97844800D01*
X160839038Y-97969282D01*
X160875348Y-98088980D01*
X160878459Y-98094800D01*
X160875348Y-98100620D01*
X160839038Y-98220318D01*
X160826778Y-98344800D01*
X160829850Y-98659050D01*
X160988600Y-98817800D01*
X162037850Y-98817800D01*
X162037850Y-98797800D01*
X162291850Y-98797800D01*
X162291850Y-98817800D01*
X162311850Y-98817800D01*
X162311850Y-99071800D01*
X162291850Y-99071800D01*
X162291850Y-100021050D01*
X162450600Y-100179800D01*
X162864850Y-100182872D01*
X162989332Y-100170612D01*
X163109030Y-100134302D01*
X163219344Y-100075337D01*
X163264850Y-100037991D01*
X163310356Y-100075337D01*
X163420670Y-100134302D01*
X163540368Y-100170612D01*
X163664850Y-100182872D01*
X165064850Y-100182872D01*
X165189332Y-100170612D01*
X165309030Y-100134302D01*
X165419344Y-100075337D01*
X165516035Y-99995985D01*
X165595387Y-99899294D01*
X165654352Y-99788980D01*
X165679888Y-99704800D01*
X167270728Y-99704800D01*
X167308050Y-99708476D01*
X167345372Y-99704800D01*
X167345383Y-99704800D01*
X167457036Y-99693803D01*
X167600297Y-99650346D01*
X167732326Y-99579774D01*
X167796498Y-99527109D01*
X167794178Y-99745600D01*
X167806438Y-99870082D01*
X167842748Y-99989780D01*
X167901713Y-100100094D01*
X167981065Y-100196785D01*
X168077756Y-100276137D01*
X168188070Y-100335102D01*
X168307768Y-100371412D01*
X168432250Y-100383672D01*
X168846500Y-100380600D01*
X169005250Y-100221850D01*
X169005250Y-99297600D01*
X169259250Y-99297600D01*
X169259250Y-100221850D01*
X169418000Y-100380600D01*
X169832250Y-100383672D01*
X169956732Y-100371412D01*
X170076430Y-100335102D01*
X170186744Y-100276137D01*
X170283435Y-100196785D01*
X170362787Y-100100094D01*
X170421752Y-99989780D01*
X170458062Y-99870082D01*
X170470322Y-99745600D01*
X170467250Y-99456350D01*
X170308500Y-99297600D01*
X169259250Y-99297600D01*
X169005250Y-99297600D01*
X168985250Y-99297600D01*
X168985250Y-99043600D01*
X169005250Y-99043600D01*
X169005250Y-99023600D01*
X169259250Y-99023600D01*
X169259250Y-99043600D01*
X170308500Y-99043600D01*
X170419300Y-98932800D01*
X172289978Y-98932800D01*
X172302238Y-99057282D01*
X172338548Y-99176980D01*
X172397513Y-99287294D01*
X172476865Y-99383985D01*
X172573556Y-99463337D01*
X172683870Y-99522302D01*
X172803568Y-99558612D01*
X172928050Y-99570872D01*
X173342300Y-99567800D01*
X173501050Y-99409050D01*
X173501050Y-98484800D01*
X173755050Y-98484800D01*
X173755050Y-99409050D01*
X173913800Y-99567800D01*
X174328050Y-99570872D01*
X174452532Y-99558612D01*
X174572230Y-99522302D01*
X174682544Y-99463337D01*
X174779235Y-99383985D01*
X174858587Y-99287294D01*
X174917552Y-99176980D01*
X174953862Y-99057282D01*
X174966122Y-98932800D01*
X174963050Y-98643550D01*
X174804300Y-98484800D01*
X173755050Y-98484800D01*
X173501050Y-98484800D01*
X172451800Y-98484800D01*
X172293050Y-98643550D01*
X172289978Y-98932800D01*
X170419300Y-98932800D01*
X170467250Y-98884850D01*
X170470322Y-98595600D01*
X170458062Y-98471118D01*
X170421752Y-98351420D01*
X170362787Y-98241106D01*
X170283435Y-98144415D01*
X170203656Y-98078942D01*
X170210212Y-98073562D01*
X170320655Y-97938987D01*
X170402722Y-97785451D01*
X170453258Y-97618855D01*
X170470322Y-97445601D01*
X170470322Y-97416129D01*
X171783844Y-96102608D01*
X171812841Y-96078811D01*
X171907814Y-95963086D01*
X171978386Y-95831057D01*
X172003237Y-95749134D01*
X172011848Y-95756201D01*
X172289978Y-96034331D01*
X172289978Y-96632801D01*
X172307042Y-96806055D01*
X172357578Y-96972651D01*
X172439645Y-97126187D01*
X172550088Y-97260762D01*
X172556644Y-97266142D01*
X172476865Y-97331615D01*
X172397513Y-97428306D01*
X172338548Y-97538620D01*
X172302238Y-97658318D01*
X172289978Y-97782800D01*
X172293050Y-98072050D01*
X172451800Y-98230800D01*
X173501050Y-98230800D01*
X173501050Y-98210800D01*
X173755050Y-98210800D01*
X173755050Y-98230800D01*
X174804300Y-98230800D01*
X174963050Y-98072050D01*
X174966122Y-97782800D01*
X174953862Y-97658318D01*
X174917552Y-97538620D01*
X174858587Y-97428306D01*
X174779235Y-97331615D01*
X174699456Y-97266142D01*
X174706012Y-97260762D01*
X174816455Y-97126187D01*
X174898522Y-96972651D01*
X174949058Y-96806055D01*
X174966122Y-96632801D01*
X174966122Y-95982799D01*
X174949058Y-95809545D01*
X174898522Y-95642949D01*
X174816455Y-95489413D01*
X174808251Y-95479416D01*
X174808251Y-95347800D01*
X175055000Y-95101051D01*
X175055000Y-95494525D01*
X175156261Y-96003601D01*
X175354893Y-96483141D01*
X175643262Y-96914715D01*
X176010285Y-97281738D01*
X176441859Y-97570107D01*
X176921399Y-97768739D01*
X177430475Y-97870000D01*
X177949525Y-97870000D01*
X178458601Y-97768739D01*
X178938141Y-97570107D01*
X179369715Y-97281738D01*
X179736738Y-96914715D01*
X180025107Y-96483141D01*
X180223739Y-96003601D01*
X180325000Y-95494525D01*
X180325000Y-94975475D01*
X180223739Y-94466399D01*
X180025107Y-93986859D01*
X179736738Y-93555285D01*
X179369715Y-93188262D01*
X178938141Y-92899893D01*
X178458601Y-92701261D01*
X177949525Y-92600000D01*
X177833833Y-92600000D01*
X177927516Y-92561195D01*
X178097034Y-92447927D01*
X178241197Y-92303764D01*
X178354465Y-92134246D01*
X178432486Y-91945888D01*
X178472260Y-91745929D01*
X178472260Y-91678800D01*
X179264819Y-91678800D01*
X183468800Y-95882782D01*
G04 #@! TA.AperFunction,Conductor*
D24*
G36*
X183468800Y-95882782D02*
G01*
X183574362Y-100622500D01*
X140304208Y-100622500D01*
X140306445Y-99584200D01*
X155881578Y-99584200D01*
X155893838Y-99708682D01*
X155930148Y-99828380D01*
X155989113Y-99938694D01*
X156068465Y-100035385D01*
X156165156Y-100114737D01*
X156275470Y-100173702D01*
X156395168Y-100210012D01*
X156519650Y-100222272D01*
X156933900Y-100219200D01*
X157092650Y-100060450D01*
X157092650Y-99136200D01*
X157346650Y-99136200D01*
X157346650Y-100060450D01*
X157505400Y-100219200D01*
X157919650Y-100222272D01*
X158044132Y-100210012D01*
X158163830Y-100173702D01*
X158274144Y-100114737D01*
X158370835Y-100035385D01*
X158450187Y-99938694D01*
X158509152Y-99828380D01*
X158545462Y-99708682D01*
X158557722Y-99584200D01*
X158557304Y-99544800D01*
X160826778Y-99544800D01*
X160839038Y-99669282D01*
X160875348Y-99788980D01*
X160934313Y-99899294D01*
X161013665Y-99995985D01*
X161110356Y-100075337D01*
X161220670Y-100134302D01*
X161340368Y-100170612D01*
X161464850Y-100182872D01*
X161879100Y-100179800D01*
X162037850Y-100021050D01*
X162037850Y-99071800D01*
X160988600Y-99071800D01*
X160829850Y-99230550D01*
X160826778Y-99544800D01*
X158557304Y-99544800D01*
X158554650Y-99294950D01*
X158395900Y-99136200D01*
X157346650Y-99136200D01*
X157092650Y-99136200D01*
X156043400Y-99136200D01*
X155884650Y-99294950D01*
X155881578Y-99584200D01*
X140306445Y-99584200D01*
X140313267Y-96418928D01*
X140405476Y-96511137D01*
X140574994Y-96624405D01*
X140763352Y-96702426D01*
X140963311Y-96742200D01*
X141167189Y-96742200D01*
X141367148Y-96702426D01*
X141555506Y-96624405D01*
X141725024Y-96511137D01*
X141869187Y-96366974D01*
X141982455Y-96197456D01*
X142026953Y-96090030D01*
X156072922Y-96090030D01*
X156031245Y-96140813D01*
X155949178Y-96294349D01*
X155898642Y-96460945D01*
X155881578Y-96634199D01*
X155881578Y-97284201D01*
X155898642Y-97457455D01*
X155949178Y-97624051D01*
X156031245Y-97777587D01*
X156141688Y-97912162D01*
X156148244Y-97917542D01*
X156068465Y-97983015D01*
X155989113Y-98079706D01*
X155930148Y-98190020D01*
X155893838Y-98309718D01*
X155881578Y-98434200D01*
X155884650Y-98723450D01*
X156043400Y-98882200D01*
X157092650Y-98882200D01*
X157092650Y-98862200D01*
X157346650Y-98862200D01*
X157346650Y-98882200D01*
X158395900Y-98882200D01*
X158554650Y-98723450D01*
X158557722Y-98434200D01*
X158545462Y-98309718D01*
X158509152Y-98190020D01*
X158450187Y-98079706D01*
X158370835Y-97983015D01*
X158291056Y-97917542D01*
X158297612Y-97912162D01*
X158408055Y-97777587D01*
X158439264Y-97719200D01*
X160826778Y-97719200D01*
X160826778Y-97844800D01*
X160839038Y-97969282D01*
X160875348Y-98088980D01*
X160878459Y-98094800D01*
X160875348Y-98100620D01*
X160839038Y-98220318D01*
X160826778Y-98344800D01*
X160829850Y-98659050D01*
X160988600Y-98817800D01*
X162037850Y-98817800D01*
X162037850Y-98797800D01*
X162291850Y-98797800D01*
X162291850Y-98817800D01*
X162311850Y-98817800D01*
X162311850Y-99071800D01*
X162291850Y-99071800D01*
X162291850Y-100021050D01*
X162450600Y-100179800D01*
X162864850Y-100182872D01*
X162989332Y-100170612D01*
X163109030Y-100134302D01*
X163219344Y-100075337D01*
X163264850Y-100037991D01*
X163310356Y-100075337D01*
X163420670Y-100134302D01*
X163540368Y-100170612D01*
X163664850Y-100182872D01*
X165064850Y-100182872D01*
X165189332Y-100170612D01*
X165309030Y-100134302D01*
X165419344Y-100075337D01*
X165516035Y-99995985D01*
X165595387Y-99899294D01*
X165654352Y-99788980D01*
X165679888Y-99704800D01*
X167270728Y-99704800D01*
X167308050Y-99708476D01*
X167345372Y-99704800D01*
X167345383Y-99704800D01*
X167457036Y-99693803D01*
X167600297Y-99650346D01*
X167732326Y-99579774D01*
X167796498Y-99527109D01*
X167794178Y-99745600D01*
X167806438Y-99870082D01*
X167842748Y-99989780D01*
X167901713Y-100100094D01*
X167981065Y-100196785D01*
X168077756Y-100276137D01*
X168188070Y-100335102D01*
X168307768Y-100371412D01*
X168432250Y-100383672D01*
X168846500Y-100380600D01*
X169005250Y-100221850D01*
X169005250Y-99297600D01*
X169259250Y-99297600D01*
X169259250Y-100221850D01*
X169418000Y-100380600D01*
X169832250Y-100383672D01*
X169956732Y-100371412D01*
X170076430Y-100335102D01*
X170186744Y-100276137D01*
X170283435Y-100196785D01*
X170362787Y-100100094D01*
X170421752Y-99989780D01*
X170458062Y-99870082D01*
X170470322Y-99745600D01*
X170467250Y-99456350D01*
X170308500Y-99297600D01*
X169259250Y-99297600D01*
X169005250Y-99297600D01*
X168985250Y-99297600D01*
X168985250Y-99043600D01*
X169005250Y-99043600D01*
X169005250Y-99023600D01*
X169259250Y-99023600D01*
X169259250Y-99043600D01*
X170308500Y-99043600D01*
X170419300Y-98932800D01*
X172289978Y-98932800D01*
X172302238Y-99057282D01*
X172338548Y-99176980D01*
X172397513Y-99287294D01*
X172476865Y-99383985D01*
X172573556Y-99463337D01*
X172683870Y-99522302D01*
X172803568Y-99558612D01*
X172928050Y-99570872D01*
X173342300Y-99567800D01*
X173501050Y-99409050D01*
X173501050Y-98484800D01*
X173755050Y-98484800D01*
X173755050Y-99409050D01*
X173913800Y-99567800D01*
X174328050Y-99570872D01*
X174452532Y-99558612D01*
X174572230Y-99522302D01*
X174682544Y-99463337D01*
X174779235Y-99383985D01*
X174858587Y-99287294D01*
X174917552Y-99176980D01*
X174953862Y-99057282D01*
X174966122Y-98932800D01*
X174963050Y-98643550D01*
X174804300Y-98484800D01*
X173755050Y-98484800D01*
X173501050Y-98484800D01*
X172451800Y-98484800D01*
X172293050Y-98643550D01*
X172289978Y-98932800D01*
X170419300Y-98932800D01*
X170467250Y-98884850D01*
X170470322Y-98595600D01*
X170458062Y-98471118D01*
X170421752Y-98351420D01*
X170362787Y-98241106D01*
X170283435Y-98144415D01*
X170203656Y-98078942D01*
X170210212Y-98073562D01*
X170320655Y-97938987D01*
X170402722Y-97785451D01*
X170453258Y-97618855D01*
X170470322Y-97445601D01*
X170470322Y-97416129D01*
X171783844Y-96102608D01*
X171812841Y-96078811D01*
X171907814Y-95963086D01*
X171978386Y-95831057D01*
X172003237Y-95749134D01*
X172011848Y-95756201D01*
X172289978Y-96034331D01*
X172289978Y-96632801D01*
X172307042Y-96806055D01*
X172357578Y-96972651D01*
X172439645Y-97126187D01*
X172550088Y-97260762D01*
X172556644Y-97266142D01*
X172476865Y-97331615D01*
X172397513Y-97428306D01*
X172338548Y-97538620D01*
X172302238Y-97658318D01*
X172289978Y-97782800D01*
X172293050Y-98072050D01*
X172451800Y-98230800D01*
X173501050Y-98230800D01*
X173501050Y-98210800D01*
X173755050Y-98210800D01*
X173755050Y-98230800D01*
X174804300Y-98230800D01*
X174963050Y-98072050D01*
X174966122Y-97782800D01*
X174953862Y-97658318D01*
X174917552Y-97538620D01*
X174858587Y-97428306D01*
X174779235Y-97331615D01*
X174699456Y-97266142D01*
X174706012Y-97260762D01*
X174816455Y-97126187D01*
X174898522Y-96972651D01*
X174949058Y-96806055D01*
X174966122Y-96632801D01*
X174966122Y-95982799D01*
X174949058Y-95809545D01*
X174898522Y-95642949D01*
X174816455Y-95489413D01*
X174808251Y-95479416D01*
X174808251Y-95347800D01*
X175055000Y-95101051D01*
X175055000Y-95494525D01*
X175156261Y-96003601D01*
X175354893Y-96483141D01*
X175643262Y-96914715D01*
X176010285Y-97281738D01*
X176441859Y-97570107D01*
X176921399Y-97768739D01*
X177430475Y-97870000D01*
X177949525Y-97870000D01*
X178458601Y-97768739D01*
X178938141Y-97570107D01*
X179369715Y-97281738D01*
X179736738Y-96914715D01*
X180025107Y-96483141D01*
X180223739Y-96003601D01*
X180325000Y-95494525D01*
X180325000Y-94975475D01*
X180223739Y-94466399D01*
X180025107Y-93986859D01*
X179736738Y-93555285D01*
X179369715Y-93188262D01*
X178938141Y-92899893D01*
X178458601Y-92701261D01*
X177949525Y-92600000D01*
X177833833Y-92600000D01*
X177927516Y-92561195D01*
X178097034Y-92447927D01*
X178241197Y-92303764D01*
X178354465Y-92134246D01*
X178432486Y-91945888D01*
X178472260Y-91745929D01*
X178472260Y-91678800D01*
X179264819Y-91678800D01*
X183468800Y-95882782D01*
G37*
G04 #@! TD.AperFunction*
D23*
X167811242Y-96622345D02*
X167794178Y-96795599D01*
X167794178Y-97383870D01*
X166993249Y-98184800D01*
X165679888Y-98184800D01*
X165654352Y-98100620D01*
X165651241Y-98094800D01*
X165654352Y-98088980D01*
X165690662Y-97969282D01*
X165702922Y-97844800D01*
X165699850Y-97530550D01*
X165541100Y-97371800D01*
X164491850Y-97371800D01*
X164491850Y-97391800D01*
X164237850Y-97391800D01*
X164237850Y-97371800D01*
X164217850Y-97371800D01*
X164217850Y-97117800D01*
X164237850Y-97117800D01*
X164237850Y-97097800D01*
X164491850Y-97097800D01*
X164491850Y-97117800D01*
X165541100Y-97117800D01*
X165699850Y-96959050D01*
X165702922Y-96644800D01*
X165692604Y-96540040D01*
X167836209Y-96540040D01*
X167811242Y-96622345D01*
G04 #@! TA.AperFunction,Conductor*
D24*
G36*
X167811242Y-96622345D02*
G01*
X167794178Y-96795599D01*
X167794178Y-97383870D01*
X166993249Y-98184800D01*
X165679888Y-98184800D01*
X165654352Y-98100620D01*
X165651241Y-98094800D01*
X165654352Y-98088980D01*
X165690662Y-97969282D01*
X165702922Y-97844800D01*
X165699850Y-97530550D01*
X165541100Y-97371800D01*
X164491850Y-97371800D01*
X164491850Y-97391800D01*
X164237850Y-97391800D01*
X164237850Y-97371800D01*
X164217850Y-97371800D01*
X164217850Y-97117800D01*
X164237850Y-97117800D01*
X164237850Y-97097800D01*
X164491850Y-97097800D01*
X164491850Y-97117800D01*
X165541100Y-97117800D01*
X165699850Y-96959050D01*
X165702922Y-96644800D01*
X165692604Y-96540040D01*
X167836209Y-96540040D01*
X167811242Y-96622345D01*
G37*
G04 #@! TD.AperFunction*
D23*
X172769829Y-92313603D02*
X172769828Y-93325418D01*
X172294321Y-93800926D01*
X172230603Y-93820254D01*
X172132850Y-93872505D01*
X172132850Y-91676623D01*
X172769829Y-92313603D01*
G04 #@! TA.AperFunction,Conductor*
D24*
G36*
X172769829Y-92313603D02*
G01*
X172769828Y-93325418D01*
X172294321Y-93800926D01*
X172230603Y-93820254D01*
X172132850Y-93872505D01*
X172132850Y-91676623D01*
X172769829Y-92313603D01*
G37*
G04 #@! TD.AperFunction*
D23*
X159853065Y-91404415D02*
X159773713Y-91501106D01*
X159714748Y-91611420D01*
X159678438Y-91731118D01*
X159666178Y-91855600D01*
X159669250Y-92144850D01*
X159828000Y-92303600D01*
X160877250Y-92303600D01*
X160877250Y-92283600D01*
X161131250Y-92283600D01*
X161131250Y-92303600D01*
X161151250Y-92303600D01*
X161151250Y-92557600D01*
X161131250Y-92557600D01*
X161131250Y-92570610D01*
X160877250Y-92570610D01*
X160877250Y-92557600D01*
X159828000Y-92557600D01*
X159814990Y-92570610D01*
X154257912Y-92570610D01*
X153329291Y-91641989D01*
X153321078Y-91558599D01*
X159093729Y-91558599D01*
X159131051Y-91562275D01*
X159168373Y-91558599D01*
X159168384Y-91558599D01*
X159280037Y-91547602D01*
X159423298Y-91504145D01*
X159555276Y-91433600D01*
X159632989Y-91433600D01*
X159832948Y-91393826D01*
X159899618Y-91366210D01*
X159853065Y-91404415D01*
G04 #@! TA.AperFunction,Conductor*
D24*
G36*
X159853065Y-91404415D02*
G01*
X159773713Y-91501106D01*
X159714748Y-91611420D01*
X159678438Y-91731118D01*
X159666178Y-91855600D01*
X159669250Y-92144850D01*
X159828000Y-92303600D01*
X160877250Y-92303600D01*
X160877250Y-92283600D01*
X161131250Y-92283600D01*
X161131250Y-92303600D01*
X161151250Y-92303600D01*
X161151250Y-92557600D01*
X161131250Y-92557600D01*
X161131250Y-92570610D01*
X160877250Y-92570610D01*
X160877250Y-92557600D01*
X159828000Y-92557600D01*
X159814990Y-92570610D01*
X154257912Y-92570610D01*
X153329291Y-91641989D01*
X153321078Y-91558599D01*
X159093729Y-91558599D01*
X159131051Y-91562275D01*
X159168373Y-91558599D01*
X159168384Y-91558599D01*
X159280037Y-91547602D01*
X159423298Y-91504145D01*
X159555276Y-91433600D01*
X159632989Y-91433600D01*
X159832948Y-91393826D01*
X159899618Y-91366210D01*
X159853065Y-91404415D01*
G37*
G04 #@! TD.AperFunction*
D23*
X164120349Y-90896301D02*
X164236074Y-90991274D01*
X164368103Y-91061846D01*
X164511364Y-91105303D01*
X164623017Y-91116300D01*
X164623025Y-91116300D01*
X164660350Y-91119976D01*
X164697675Y-91116300D01*
X166725592Y-91116300D01*
X166727846Y-91120517D01*
X166814971Y-91226679D01*
X166921133Y-91313804D01*
X167042253Y-91378544D01*
X167173675Y-91418411D01*
X167310350Y-91431872D01*
X167435350Y-91431872D01*
X167572025Y-91418411D01*
X167594199Y-91411684D01*
X167609415Y-91416674D01*
X167612850Y-91417072D01*
X167612851Y-91858800D01*
X163393375Y-91858800D01*
X163356050Y-91855124D01*
X163318725Y-91858800D01*
X163318717Y-91858800D01*
X163207064Y-91869797D01*
X163063803Y-91913254D01*
X162931774Y-91983826D01*
X162843830Y-92056000D01*
X162781911Y-92056000D01*
X162581952Y-92095774D01*
X162393594Y-92173795D01*
X162224076Y-92287063D01*
X162207541Y-92303598D01*
X162180502Y-92303598D01*
X162339250Y-92144850D01*
X162342322Y-91855600D01*
X162330062Y-91731118D01*
X162293752Y-91611420D01*
X162234787Y-91501106D01*
X162155435Y-91404415D01*
X162075656Y-91338942D01*
X162082212Y-91333562D01*
X162192655Y-91198987D01*
X162274722Y-91045451D01*
X162325258Y-90878855D01*
X162325263Y-90878800D01*
X164105986Y-90878800D01*
X164120349Y-90896301D01*
G04 #@! TA.AperFunction,Conductor*
D24*
G36*
X164120349Y-90896301D02*
G01*
X164236074Y-90991274D01*
X164368103Y-91061846D01*
X164511364Y-91105303D01*
X164623017Y-91116300D01*
X164623025Y-91116300D01*
X164660350Y-91119976D01*
X164697675Y-91116300D01*
X166725592Y-91116300D01*
X166727846Y-91120517D01*
X166814971Y-91226679D01*
X166921133Y-91313804D01*
X167042253Y-91378544D01*
X167173675Y-91418411D01*
X167310350Y-91431872D01*
X167435350Y-91431872D01*
X167572025Y-91418411D01*
X167594199Y-91411684D01*
X167609415Y-91416674D01*
X167612850Y-91417072D01*
X167612851Y-91858800D01*
X163393375Y-91858800D01*
X163356050Y-91855124D01*
X163318725Y-91858800D01*
X163318717Y-91858800D01*
X163207064Y-91869797D01*
X163063803Y-91913254D01*
X162931774Y-91983826D01*
X162843830Y-92056000D01*
X162781911Y-92056000D01*
X162581952Y-92095774D01*
X162393594Y-92173795D01*
X162224076Y-92287063D01*
X162207541Y-92303598D01*
X162180502Y-92303598D01*
X162339250Y-92144850D01*
X162342322Y-91855600D01*
X162330062Y-91731118D01*
X162293752Y-91611420D01*
X162234787Y-91501106D01*
X162155435Y-91404415D01*
X162075656Y-91338942D01*
X162082212Y-91333562D01*
X162192655Y-91198987D01*
X162274722Y-91045451D01*
X162325258Y-90878855D01*
X162325263Y-90878800D01*
X164105986Y-90878800D01*
X164120349Y-90896301D01*
G37*
G04 #@! TD.AperFunction*
D23*
X183253214Y-86202984D02*
X183194010Y-86291589D01*
X183082068Y-86561842D01*
X183025000Y-86848740D01*
X183025000Y-87141260D01*
X183082068Y-87428158D01*
X183194010Y-87698411D01*
X183289710Y-87841636D01*
X183360562Y-91022913D01*
X183255276Y-91093263D01*
X183111113Y-91237426D01*
X183019454Y-91374603D01*
X180331408Y-88686557D01*
X180421500Y-88685600D01*
X180580250Y-88526850D01*
X180580250Y-87477600D01*
X180834250Y-87477600D01*
X180834250Y-88526850D01*
X180993000Y-88685600D01*
X181282250Y-88688672D01*
X181406732Y-88676412D01*
X181526430Y-88640102D01*
X181636744Y-88581137D01*
X181733435Y-88501785D01*
X181812787Y-88405094D01*
X181871752Y-88294780D01*
X181908062Y-88175082D01*
X181920322Y-88050600D01*
X181917250Y-87636350D01*
X181758500Y-87477600D01*
X180834250Y-87477600D01*
X180580250Y-87477600D01*
X180560250Y-87477600D01*
X180560250Y-87223600D01*
X180580250Y-87223600D01*
X180580250Y-86174350D01*
X180834250Y-86174350D01*
X180834250Y-87223600D01*
X181758500Y-87223600D01*
X181917250Y-87064850D01*
X181920322Y-86650600D01*
X181908062Y-86526118D01*
X181871752Y-86406420D01*
X181812787Y-86296106D01*
X181733435Y-86199415D01*
X181636744Y-86120063D01*
X181526430Y-86061098D01*
X181406732Y-86024788D01*
X181282250Y-86012528D01*
X180993000Y-86015600D01*
X180834250Y-86174350D01*
X180580250Y-86174350D01*
X180421500Y-86015600D01*
X180132250Y-86012528D01*
X180007768Y-86024788D01*
X179888070Y-86061098D01*
X179777756Y-86120063D01*
X179681065Y-86199415D01*
X179615592Y-86279194D01*
X179610212Y-86272638D01*
X179475637Y-86162195D01*
X179322101Y-86080128D01*
X179317723Y-86078800D01*
X179617726Y-86078800D01*
X179655049Y-86082476D01*
X179692374Y-86078800D01*
X179692383Y-86078800D01*
X179804036Y-86067803D01*
X179947297Y-86024346D01*
X180079326Y-85953774D01*
X180195051Y-85858801D01*
X180218853Y-85829798D01*
X180636854Y-85411799D01*
X182688919Y-85411799D01*
X182726241Y-85415475D01*
X182763563Y-85411799D01*
X182763574Y-85411799D01*
X182875227Y-85400802D01*
X183018488Y-85357345D01*
X183150517Y-85286773D01*
X183231331Y-85220451D01*
X183253214Y-86202984D01*
G04 #@! TA.AperFunction,Conductor*
D24*
G36*
X183253214Y-86202984D02*
G01*
X183194010Y-86291589D01*
X183082068Y-86561842D01*
X183025000Y-86848740D01*
X183025000Y-87141260D01*
X183082068Y-87428158D01*
X183194010Y-87698411D01*
X183289710Y-87841636D01*
X183360562Y-91022913D01*
X183255276Y-91093263D01*
X183111113Y-91237426D01*
X183019454Y-91374603D01*
X180331408Y-88686557D01*
X180421500Y-88685600D01*
X180580250Y-88526850D01*
X180580250Y-87477600D01*
X180834250Y-87477600D01*
X180834250Y-88526850D01*
X180993000Y-88685600D01*
X181282250Y-88688672D01*
X181406732Y-88676412D01*
X181526430Y-88640102D01*
X181636744Y-88581137D01*
X181733435Y-88501785D01*
X181812787Y-88405094D01*
X181871752Y-88294780D01*
X181908062Y-88175082D01*
X181920322Y-88050600D01*
X181917250Y-87636350D01*
X181758500Y-87477600D01*
X180834250Y-87477600D01*
X180580250Y-87477600D01*
X180560250Y-87477600D01*
X180560250Y-87223600D01*
X180580250Y-87223600D01*
X180580250Y-86174350D01*
X180834250Y-86174350D01*
X180834250Y-87223600D01*
X181758500Y-87223600D01*
X181917250Y-87064850D01*
X181920322Y-86650600D01*
X181908062Y-86526118D01*
X181871752Y-86406420D01*
X181812787Y-86296106D01*
X181733435Y-86199415D01*
X181636744Y-86120063D01*
X181526430Y-86061098D01*
X181406732Y-86024788D01*
X181282250Y-86012528D01*
X180993000Y-86015600D01*
X180834250Y-86174350D01*
X180580250Y-86174350D01*
X180421500Y-86015600D01*
X180132250Y-86012528D01*
X180007768Y-86024788D01*
X179888070Y-86061098D01*
X179777756Y-86120063D01*
X179681065Y-86199415D01*
X179615592Y-86279194D01*
X179610212Y-86272638D01*
X179475637Y-86162195D01*
X179322101Y-86080128D01*
X179317723Y-86078800D01*
X179617726Y-86078800D01*
X179655049Y-86082476D01*
X179692374Y-86078800D01*
X179692383Y-86078800D01*
X179804036Y-86067803D01*
X179947297Y-86024346D01*
X180079326Y-85953774D01*
X180195051Y-85858801D01*
X180218853Y-85829798D01*
X180636854Y-85411799D01*
X182688919Y-85411799D01*
X182726241Y-85415475D01*
X182763563Y-85411799D01*
X182763574Y-85411799D01*
X182875227Y-85400802D01*
X183018488Y-85357345D01*
X183150517Y-85286773D01*
X183231331Y-85220451D01*
X183253214Y-86202984D01*
G37*
G04 #@! TD.AperFunction*
D23*
X153289670Y-82778024D02*
X153289670Y-82934394D01*
X153264331Y-82917463D01*
X152948581Y-82786675D01*
X152613383Y-82720000D01*
X152271617Y-82720000D01*
X151936419Y-82786675D01*
X151620669Y-82917463D01*
X151336502Y-83107337D01*
X151094837Y-83349002D01*
X150904963Y-83633169D01*
X150774175Y-83948919D01*
X150707500Y-84284117D01*
X150707500Y-84625883D01*
X150774175Y-84961081D01*
X150904963Y-85276831D01*
X151060761Y-85510000D01*
X151026240Y-85510000D01*
X150739342Y-85567068D01*
X150469089Y-85679010D01*
X150225868Y-85841525D01*
X150019025Y-86048368D01*
X149856510Y-86291589D01*
X149744568Y-86561842D01*
X149687500Y-86848740D01*
X149687500Y-87141260D01*
X149744568Y-87428158D01*
X149856510Y-87698411D01*
X150019025Y-87941632D01*
X150225868Y-88148475D01*
X150469089Y-88310990D01*
X150739342Y-88422932D01*
X151026240Y-88480000D01*
X151318760Y-88480000D01*
X151605658Y-88422932D01*
X151682501Y-88391103D01*
X151682501Y-89075480D01*
X151661963Y-89100506D01*
X151602998Y-89210820D01*
X151566688Y-89330518D01*
X151554428Y-89455000D01*
X151554428Y-89955000D01*
X151562662Y-90038599D01*
X146587510Y-90038599D01*
X146772461Y-89961990D01*
X147015682Y-89799475D01*
X147222525Y-89592632D01*
X147385040Y-89349411D01*
X147496982Y-89079158D01*
X147554050Y-88792260D01*
X147554050Y-88499740D01*
X147496982Y-88212842D01*
X147385040Y-87942589D01*
X147222525Y-87699368D01*
X147015682Y-87492525D01*
X146841290Y-87376000D01*
X147015682Y-87259475D01*
X147222525Y-87052632D01*
X147385040Y-86809411D01*
X147496982Y-86539158D01*
X147554050Y-86252260D01*
X147554050Y-85959740D01*
X147496982Y-85672842D01*
X147385040Y-85402589D01*
X147222525Y-85159368D01*
X147015682Y-84952525D01*
X146841290Y-84836000D01*
X147015682Y-84719475D01*
X147222525Y-84512632D01*
X147385040Y-84269411D01*
X147496982Y-83999158D01*
X147554050Y-83712260D01*
X147554050Y-83419740D01*
X147496982Y-83132842D01*
X147385040Y-82862589D01*
X147222525Y-82619368D01*
X147015682Y-82412525D01*
X146772461Y-82250010D01*
X146502208Y-82138068D01*
X146215310Y-82081000D01*
X145922790Y-82081000D01*
X145635892Y-82138068D01*
X145365639Y-82250010D01*
X145122418Y-82412525D01*
X144915575Y-82619368D01*
X144797950Y-82795406D01*
X144626638Y-82565731D01*
X144410405Y-82370822D01*
X144160302Y-82221843D01*
X143885941Y-82124519D01*
X143656050Y-82245186D01*
X143656050Y-83439000D01*
X143676050Y-83439000D01*
X143676050Y-83693000D01*
X143656050Y-83693000D01*
X143656050Y-83713000D01*
X143402050Y-83713000D01*
X143402050Y-83693000D01*
X142208895Y-83693000D01*
X142087574Y-83922890D01*
X142132225Y-84070099D01*
X142257409Y-84332920D01*
X142431462Y-84566269D01*
X142647695Y-84761178D01*
X142764584Y-84830805D01*
X142582418Y-84952525D01*
X142375575Y-85159368D01*
X142213060Y-85402589D01*
X142101118Y-85672842D01*
X142044050Y-85959740D01*
X142044050Y-86252260D01*
X142101118Y-86539158D01*
X142155377Y-86670150D01*
X142098043Y-86717202D01*
X142098039Y-86717206D01*
X142069046Y-86741000D01*
X142045252Y-86769993D01*
X140893448Y-87921799D01*
X140864450Y-87945597D01*
X140840652Y-87974595D01*
X140840651Y-87974596D01*
X140769476Y-88061322D01*
X140698904Y-88193352D01*
X140668630Y-88293156D01*
X140655448Y-88336612D01*
X140651514Y-88376553D01*
X140640774Y-88485598D01*
X140644451Y-88522930D01*
X140644450Y-91070000D01*
X140368711Y-91070000D01*
X140324889Y-91026178D01*
X140341736Y-83209110D01*
X142087574Y-83209110D01*
X142208895Y-83439000D01*
X143402050Y-83439000D01*
X143402050Y-82245186D01*
X143172159Y-82124519D01*
X142897798Y-82221843D01*
X142647695Y-82370822D01*
X142431462Y-82565731D01*
X142257409Y-82799080D01*
X142132225Y-83061901D01*
X142087574Y-83209110D01*
X140341736Y-83209110D01*
X140346347Y-81070041D01*
X151581688Y-81070041D01*
X153289670Y-82778024D01*
G04 #@! TA.AperFunction,Conductor*
D24*
G36*
X153289670Y-82778024D02*
G01*
X153289670Y-82934394D01*
X153264331Y-82917463D01*
X152948581Y-82786675D01*
X152613383Y-82720000D01*
X152271617Y-82720000D01*
X151936419Y-82786675D01*
X151620669Y-82917463D01*
X151336502Y-83107337D01*
X151094837Y-83349002D01*
X150904963Y-83633169D01*
X150774175Y-83948919D01*
X150707500Y-84284117D01*
X150707500Y-84625883D01*
X150774175Y-84961081D01*
X150904963Y-85276831D01*
X151060761Y-85510000D01*
X151026240Y-85510000D01*
X150739342Y-85567068D01*
X150469089Y-85679010D01*
X150225868Y-85841525D01*
X150019025Y-86048368D01*
X149856510Y-86291589D01*
X149744568Y-86561842D01*
X149687500Y-86848740D01*
X149687500Y-87141260D01*
X149744568Y-87428158D01*
X149856510Y-87698411D01*
X150019025Y-87941632D01*
X150225868Y-88148475D01*
X150469089Y-88310990D01*
X150739342Y-88422932D01*
X151026240Y-88480000D01*
X151318760Y-88480000D01*
X151605658Y-88422932D01*
X151682501Y-88391103D01*
X151682501Y-89075480D01*
X151661963Y-89100506D01*
X151602998Y-89210820D01*
X151566688Y-89330518D01*
X151554428Y-89455000D01*
X151554428Y-89955000D01*
X151562662Y-90038599D01*
X146587510Y-90038599D01*
X146772461Y-89961990D01*
X147015682Y-89799475D01*
X147222525Y-89592632D01*
X147385040Y-89349411D01*
X147496982Y-89079158D01*
X147554050Y-88792260D01*
X147554050Y-88499740D01*
X147496982Y-88212842D01*
X147385040Y-87942589D01*
X147222525Y-87699368D01*
X147015682Y-87492525D01*
X146841290Y-87376000D01*
X147015682Y-87259475D01*
X147222525Y-87052632D01*
X147385040Y-86809411D01*
X147496982Y-86539158D01*
X147554050Y-86252260D01*
X147554050Y-85959740D01*
X147496982Y-85672842D01*
X147385040Y-85402589D01*
X147222525Y-85159368D01*
X147015682Y-84952525D01*
X146841290Y-84836000D01*
X147015682Y-84719475D01*
X147222525Y-84512632D01*
X147385040Y-84269411D01*
X147496982Y-83999158D01*
X147554050Y-83712260D01*
X147554050Y-83419740D01*
X147496982Y-83132842D01*
X147385040Y-82862589D01*
X147222525Y-82619368D01*
X147015682Y-82412525D01*
X146772461Y-82250010D01*
X146502208Y-82138068D01*
X146215310Y-82081000D01*
X145922790Y-82081000D01*
X145635892Y-82138068D01*
X145365639Y-82250010D01*
X145122418Y-82412525D01*
X144915575Y-82619368D01*
X144797950Y-82795406D01*
X144626638Y-82565731D01*
X144410405Y-82370822D01*
X144160302Y-82221843D01*
X143885941Y-82124519D01*
X143656050Y-82245186D01*
X143656050Y-83439000D01*
X143676050Y-83439000D01*
X143676050Y-83693000D01*
X143656050Y-83693000D01*
X143656050Y-83713000D01*
X143402050Y-83713000D01*
X143402050Y-83693000D01*
X142208895Y-83693000D01*
X142087574Y-83922890D01*
X142132225Y-84070099D01*
X142257409Y-84332920D01*
X142431462Y-84566269D01*
X142647695Y-84761178D01*
X142764584Y-84830805D01*
X142582418Y-84952525D01*
X142375575Y-85159368D01*
X142213060Y-85402589D01*
X142101118Y-85672842D01*
X142044050Y-85959740D01*
X142044050Y-86252260D01*
X142101118Y-86539158D01*
X142155377Y-86670150D01*
X142098043Y-86717202D01*
X142098039Y-86717206D01*
X142069046Y-86741000D01*
X142045252Y-86769993D01*
X140893448Y-87921799D01*
X140864450Y-87945597D01*
X140840652Y-87974595D01*
X140840651Y-87974596D01*
X140769476Y-88061322D01*
X140698904Y-88193352D01*
X140668630Y-88293156D01*
X140655448Y-88336612D01*
X140651514Y-88376553D01*
X140640774Y-88485598D01*
X140644451Y-88522930D01*
X140644450Y-91070000D01*
X140368711Y-91070000D01*
X140324889Y-91026178D01*
X140341736Y-83209110D01*
X142087574Y-83209110D01*
X142208895Y-83439000D01*
X143402050Y-83439000D01*
X143402050Y-82245186D01*
X143172159Y-82124519D01*
X142897798Y-82221843D01*
X142647695Y-82370822D01*
X142431462Y-82565731D01*
X142257409Y-82799080D01*
X142132225Y-83061901D01*
X142087574Y-83209110D01*
X140341736Y-83209110D01*
X140346347Y-81070041D01*
X151581688Y-81070041D01*
X153289670Y-82778024D01*
G37*
G04 #@! TD.AperFunction*
D23*
X183170657Y-82496172D02*
X182225040Y-83441789D01*
X180172973Y-83441789D01*
X180135650Y-83438113D01*
X180098327Y-83441789D01*
X180098318Y-83441789D01*
X179986665Y-83452786D01*
X179843404Y-83496243D01*
X179711375Y-83566815D01*
X179595650Y-83661788D01*
X179571847Y-83690792D01*
X179503839Y-83758800D01*
X178607361Y-83758800D01*
X178647887Y-83718274D01*
X178761155Y-83548756D01*
X178839176Y-83360398D01*
X178878950Y-83160439D01*
X178878950Y-82956561D01*
X178839176Y-82756602D01*
X178761155Y-82568244D01*
X178647887Y-82398726D01*
X178503724Y-82254563D01*
X178334206Y-82141295D01*
X178216582Y-82092573D01*
X178320049Y-82071992D01*
X178713144Y-81909167D01*
X179066920Y-81672781D01*
X179367781Y-81371920D01*
X179604167Y-81018144D01*
X179766992Y-80625049D01*
X179850000Y-80207741D01*
X179850000Y-79782259D01*
X179766992Y-79364951D01*
X179604167Y-78971856D01*
X179367781Y-78618080D01*
X179284501Y-78534800D01*
X183082430Y-78534800D01*
X183170657Y-82496172D01*
G04 #@! TA.AperFunction,Conductor*
D24*
G36*
X183170657Y-82496172D02*
G01*
X182225040Y-83441789D01*
X180172973Y-83441789D01*
X180135650Y-83438113D01*
X180098327Y-83441789D01*
X180098318Y-83441789D01*
X179986665Y-83452786D01*
X179843404Y-83496243D01*
X179711375Y-83566815D01*
X179595650Y-83661788D01*
X179571847Y-83690792D01*
X179503839Y-83758800D01*
X178607361Y-83758800D01*
X178647887Y-83718274D01*
X178761155Y-83548756D01*
X178839176Y-83360398D01*
X178878950Y-83160439D01*
X178878950Y-82956561D01*
X178839176Y-82756602D01*
X178761155Y-82568244D01*
X178647887Y-82398726D01*
X178503724Y-82254563D01*
X178334206Y-82141295D01*
X178216582Y-82092573D01*
X178320049Y-82071992D01*
X178713144Y-81909167D01*
X179066920Y-81672781D01*
X179367781Y-81371920D01*
X179604167Y-81018144D01*
X179766992Y-80625049D01*
X179850000Y-80207741D01*
X179850000Y-79782259D01*
X179766992Y-79364951D01*
X179604167Y-78971856D01*
X179367781Y-78618080D01*
X179284501Y-78534800D01*
X183082430Y-78534800D01*
X183170657Y-82496172D01*
G37*
G04 #@! TD.AperFunction*
D23*
X162299650Y-79248000D02*
X162319650Y-79248000D01*
X162319650Y-79502000D01*
X162299650Y-79502000D01*
X162299650Y-79522000D01*
X162045650Y-79522000D01*
X162045650Y-79502000D01*
X162025650Y-79502000D01*
X162025650Y-79248000D01*
X162045650Y-79248000D01*
X162045650Y-79228000D01*
X162299650Y-79228000D01*
X162299650Y-79248000D01*
G04 #@! TA.AperFunction,Conductor*
D24*
G36*
X162299650Y-79248000D02*
G01*
X162319650Y-79248000D01*
X162319650Y-79502000D01*
X162299650Y-79502000D01*
X162299650Y-79522000D01*
X162045650Y-79522000D01*
X162045650Y-79502000D01*
X162025650Y-79502000D01*
X162025650Y-79248000D01*
X162045650Y-79248000D01*
X162045650Y-79228000D01*
X162299650Y-79228000D01*
X162299650Y-79248000D01*
G37*
G04 #@! TD.AperFunction*
D23*
X166287450Y-78638400D02*
X166307450Y-78638400D01*
X166307450Y-78892400D01*
X166287450Y-78892400D01*
X166287450Y-78912400D01*
X166033450Y-78912400D01*
X166033450Y-78892400D01*
X166013450Y-78892400D01*
X166013450Y-78638400D01*
X166033450Y-78638400D01*
X166033450Y-78618400D01*
X166287450Y-78618400D01*
X166287450Y-78638400D01*
G04 #@! TA.AperFunction,Conductor*
D24*
G36*
X166287450Y-78638400D02*
G01*
X166307450Y-78638400D01*
X166307450Y-78892400D01*
X166287450Y-78892400D01*
X166287450Y-78912400D01*
X166033450Y-78912400D01*
X166033450Y-78892400D01*
X166013450Y-78892400D01*
X166013450Y-78638400D01*
X166033450Y-78638400D01*
X166033450Y-78618400D01*
X166287450Y-78618400D01*
X166287450Y-78638400D01*
G37*
G04 #@! TD.AperFunction*
D23*
X365091158Y-23259710D02*
X364855252Y-23417337D01*
X364613587Y-23659002D01*
X364423713Y-23943169D01*
X364292925Y-24258919D01*
X364226250Y-24594117D01*
X364226250Y-24935883D01*
X364292925Y-25271081D01*
X364423713Y-25586831D01*
X364613587Y-25870998D01*
X364855252Y-26112663D01*
X365095357Y-26273096D01*
X365097479Y-27795932D01*
X364669391Y-27509893D01*
X364189851Y-27311261D01*
X363680775Y-27210000D01*
X363161725Y-27210000D01*
X362652649Y-27311261D01*
X362173109Y-27509893D01*
X361741535Y-27798262D01*
X361374512Y-28165285D01*
X361086143Y-28596859D01*
X360887511Y-29076399D01*
X360786250Y-29585475D01*
X360786250Y-30104525D01*
X360887511Y-30613601D01*
X361086143Y-31093141D01*
X361374512Y-31524715D01*
X361741535Y-31891738D01*
X362173109Y-32180107D01*
X362652649Y-32378739D01*
X363161725Y-32480000D01*
X363680775Y-32480000D01*
X364189851Y-32378739D01*
X364669391Y-32180107D01*
X365100965Y-31891738D01*
X365103183Y-31889520D01*
X365110175Y-36907682D01*
X350625244Y-37077464D01*
X350625244Y-34493061D01*
X355246250Y-34493061D01*
X355246250Y-34696939D01*
X355286024Y-34896898D01*
X355364045Y-35085256D01*
X355477313Y-35254774D01*
X355621476Y-35398937D01*
X355790994Y-35512205D01*
X355979352Y-35590226D01*
X356179311Y-35630000D01*
X356383189Y-35630000D01*
X356583148Y-35590226D01*
X356771506Y-35512205D01*
X356941024Y-35398937D01*
X356984961Y-35355000D01*
X358828311Y-35355000D01*
X358830713Y-35359494D01*
X358910065Y-35456185D01*
X359006756Y-35535537D01*
X359117070Y-35594502D01*
X359236768Y-35630812D01*
X359361250Y-35643072D01*
X359861250Y-35643072D01*
X359985732Y-35630812D01*
X360105430Y-35594502D01*
X360215744Y-35535537D01*
X360312435Y-35456185D01*
X360391787Y-35359494D01*
X360450752Y-35249180D01*
X360487062Y-35129482D01*
X360499322Y-35005000D01*
X360499322Y-34505000D01*
X360487062Y-34380518D01*
X360450752Y-34260820D01*
X360391787Y-34150506D01*
X360312435Y-34053815D01*
X360215744Y-33974463D01*
X360105430Y-33915498D01*
X359985732Y-33879188D01*
X359861250Y-33866928D01*
X359744237Y-33866928D01*
X359675236Y-33845997D01*
X359563583Y-33835000D01*
X359563572Y-33835000D01*
X359526250Y-33831324D01*
X359488928Y-33835000D01*
X356984961Y-33835000D01*
X356941024Y-33791063D01*
X356771506Y-33677795D01*
X356583148Y-33599774D01*
X356383189Y-33560000D01*
X356179311Y-33560000D01*
X355979352Y-33599774D01*
X355790994Y-33677795D01*
X355621476Y-33791063D01*
X355477313Y-33935226D01*
X355364045Y-34104744D01*
X355286024Y-34293102D01*
X355246250Y-34493061D01*
X350625244Y-34493061D01*
X350625245Y-32071016D01*
X351100852Y-31595409D01*
X351129851Y-31571611D01*
X351165389Y-31528308D01*
X351213105Y-31523608D01*
X351379701Y-31473072D01*
X351533237Y-31391005D01*
X351667812Y-31280562D01*
X351778255Y-31145987D01*
X351860322Y-30992451D01*
X351910858Y-30825855D01*
X351927922Y-30652601D01*
X351927922Y-30002599D01*
X351910858Y-29829345D01*
X351871240Y-29698740D01*
X356856250Y-29698740D01*
X356856250Y-29991260D01*
X356913318Y-30278158D01*
X357025260Y-30548411D01*
X357187775Y-30791632D01*
X357394618Y-30998475D01*
X357637839Y-31160990D01*
X357908092Y-31272932D01*
X358194990Y-31330000D01*
X358487510Y-31330000D01*
X358774408Y-31272932D01*
X358851250Y-31241103D01*
X358851250Y-31925481D01*
X358830713Y-31950506D01*
X358771748Y-32060820D01*
X358735438Y-32180518D01*
X358723178Y-32305000D01*
X358723178Y-32805000D01*
X358735438Y-32929482D01*
X358771748Y-33049180D01*
X358830713Y-33159494D01*
X358910065Y-33256185D01*
X359006756Y-33335537D01*
X359117070Y-33394502D01*
X359236768Y-33430812D01*
X359361250Y-33443072D01*
X359861250Y-33443072D01*
X359985732Y-33430812D01*
X360105430Y-33394502D01*
X360215744Y-33335537D01*
X360312435Y-33256185D01*
X360391787Y-33159494D01*
X360450752Y-33049180D01*
X360487062Y-32929482D01*
X360499322Y-32805000D01*
X360499322Y-32305000D01*
X360487062Y-32180518D01*
X360450752Y-32060820D01*
X360391787Y-31950506D01*
X360371250Y-31925482D01*
X360371250Y-28868148D01*
X360433081Y-28842537D01*
X360717248Y-28652663D01*
X360958913Y-28410998D01*
X361148787Y-28126831D01*
X361279575Y-27811081D01*
X361346250Y-27475883D01*
X361346250Y-27134117D01*
X361279575Y-26798919D01*
X361148787Y-26483169D01*
X360958913Y-26199002D01*
X360717248Y-25957337D01*
X360433081Y-25767463D01*
X360117331Y-25636675D01*
X359782133Y-25570000D01*
X359440367Y-25570000D01*
X359105169Y-25636675D01*
X358789419Y-25767463D01*
X358505252Y-25957337D01*
X358263587Y-26199002D01*
X358073713Y-26483169D01*
X357942925Y-26798919D01*
X357876250Y-27134117D01*
X357876250Y-27475883D01*
X357942925Y-27811081D01*
X358073713Y-28126831D01*
X358229511Y-28360000D01*
X358194990Y-28360000D01*
X357908092Y-28417068D01*
X357637839Y-28529010D01*
X357394618Y-28691525D01*
X357187775Y-28898368D01*
X357025260Y-29141589D01*
X356913318Y-29411842D01*
X356856250Y-29698740D01*
X351871240Y-29698740D01*
X351860322Y-29662749D01*
X351778255Y-29509213D01*
X351667812Y-29374638D01*
X351580034Y-29302600D01*
X351667812Y-29230562D01*
X351778255Y-29095987D01*
X351860322Y-28942451D01*
X351910858Y-28775855D01*
X351927922Y-28602601D01*
X351927922Y-27952599D01*
X351910858Y-27779345D01*
X351860322Y-27612749D01*
X351778255Y-27459213D01*
X351667812Y-27324638D01*
X351533237Y-27214195D01*
X351424862Y-27156267D01*
X351507055Y-27033256D01*
X351585076Y-26844898D01*
X351624850Y-26644939D01*
X351624850Y-26441061D01*
X351585076Y-26241102D01*
X351507055Y-26052744D01*
X351393787Y-25883226D01*
X351249624Y-25739063D01*
X351080106Y-25625795D01*
X350891748Y-25547774D01*
X350691789Y-25508000D01*
X350487911Y-25508000D01*
X350369550Y-25531543D01*
X350369550Y-25246400D01*
X350554102Y-25246400D01*
X350739572Y-25209508D01*
X350884550Y-25149456D01*
X351029528Y-25209508D01*
X351214998Y-25246400D01*
X351404102Y-25246400D01*
X351589572Y-25209508D01*
X351734970Y-25149282D01*
X351874542Y-25207981D01*
X352059810Y-25245875D01*
X352248911Y-25246897D01*
X352434578Y-25211008D01*
X352609676Y-25139587D01*
X352618873Y-25134670D01*
X352632481Y-24938936D01*
X352237189Y-24543644D01*
X352269550Y-24380952D01*
X352269550Y-24191848D01*
X352268721Y-24187681D01*
X352353298Y-24272258D01*
X352339155Y-24286400D01*
X352489325Y-24436570D01*
X352555741Y-24588945D01*
X352677963Y-24764791D01*
X352832142Y-24913414D01*
X353012353Y-25029102D01*
X353215549Y-25100808D01*
X353382550Y-24973902D01*
X353382550Y-23433400D01*
X352830477Y-23433400D01*
X353012820Y-23420723D01*
X353086131Y-23246408D01*
X353099837Y-23179400D01*
X353382550Y-23179400D01*
X353382550Y-21638898D01*
X353636550Y-21638898D01*
X353636550Y-23179400D01*
X353656550Y-23179400D01*
X353656550Y-23433400D01*
X353636550Y-23433400D01*
X353636550Y-24973902D01*
X353803551Y-25100808D01*
X354006747Y-25029102D01*
X354186958Y-24913414D01*
X354341137Y-24764791D01*
X354463359Y-24588945D01*
X354548926Y-24392633D01*
X354594550Y-24183400D01*
X354594550Y-23630417D01*
X354605545Y-23650987D01*
X354715988Y-23785562D01*
X354850563Y-23896005D01*
X355004099Y-23978072D01*
X355170695Y-24028608D01*
X355343949Y-24045672D01*
X355993951Y-24045672D01*
X356167205Y-24028608D01*
X356333801Y-23978072D01*
X356487337Y-23896005D01*
X356621912Y-23785562D01*
X356627292Y-23779006D01*
X356692765Y-23858785D01*
X356789456Y-23938137D01*
X356899770Y-23997102D01*
X357019468Y-24033412D01*
X357143950Y-24045672D01*
X357433200Y-24042600D01*
X357591950Y-23883850D01*
X357591950Y-22834600D01*
X357845950Y-22834600D01*
X357845950Y-23883850D01*
X358004700Y-24042600D01*
X358293950Y-24045672D01*
X358418432Y-24033412D01*
X358538130Y-23997102D01*
X358648444Y-23938137D01*
X358745135Y-23858785D01*
X358824487Y-23762094D01*
X358883452Y-23651780D01*
X358919762Y-23532082D01*
X358932022Y-23407600D01*
X358928950Y-22993350D01*
X358770200Y-22834600D01*
X357845950Y-22834600D01*
X357591950Y-22834600D01*
X357571950Y-22834600D01*
X357571950Y-22580600D01*
X357591950Y-22580600D01*
X357591950Y-21531350D01*
X357845950Y-21531350D01*
X357845950Y-22580600D01*
X358770200Y-22580600D01*
X358928950Y-22421850D01*
X358932022Y-22007600D01*
X358919762Y-21883118D01*
X358883452Y-21763420D01*
X358824487Y-21653106D01*
X358745135Y-21556415D01*
X358648444Y-21477063D01*
X358538130Y-21418098D01*
X358418432Y-21381788D01*
X358293950Y-21369528D01*
X358004700Y-21372600D01*
X357845950Y-21531350D01*
X357591950Y-21531350D01*
X357433200Y-21372600D01*
X357143950Y-21369528D01*
X357019468Y-21381788D01*
X356899770Y-21418098D01*
X356797179Y-21472935D01*
X356804140Y-21437939D01*
X356804140Y-21234061D01*
X356764366Y-21034102D01*
X356686345Y-20845744D01*
X356573077Y-20676226D01*
X356428914Y-20532063D01*
X356259396Y-20418795D01*
X356071038Y-20340774D01*
X355871079Y-20301000D01*
X355667201Y-20301000D01*
X355467242Y-20340774D01*
X355278884Y-20418795D01*
X355109366Y-20532063D01*
X354965203Y-20676226D01*
X354851935Y-20845744D01*
X354773914Y-21034102D01*
X354734140Y-21234061D01*
X354734140Y-21437939D01*
X354764373Y-21589930D01*
X354715988Y-21629638D01*
X354605545Y-21764213D01*
X354523478Y-21917749D01*
X354479829Y-22061641D01*
X354463359Y-22023855D01*
X354341137Y-21848009D01*
X354186958Y-21699386D01*
X354006747Y-21583698D01*
X353803551Y-21511992D01*
X353636550Y-21638898D01*
X353382550Y-21638898D01*
X353215549Y-21511992D01*
X353012353Y-21583698D01*
X352832142Y-21699386D01*
X352677963Y-21848009D01*
X352555741Y-22023855D01*
X352533411Y-22075085D01*
X352449558Y-22039819D01*
X352264290Y-22001925D01*
X352075189Y-22000903D01*
X351912471Y-22032356D01*
X351854551Y-21961780D01*
X351825547Y-21937977D01*
X351687972Y-21800402D01*
X351664169Y-21771398D01*
X351548444Y-21676425D01*
X351416415Y-21605853D01*
X351273154Y-21562396D01*
X351161501Y-21551399D01*
X351161490Y-21551399D01*
X351124168Y-21547723D01*
X351086846Y-21551399D01*
X347234874Y-21551399D01*
X347197551Y-21547723D01*
X347160229Y-21551399D01*
X347160218Y-21551399D01*
X347048565Y-21562396D01*
X346905304Y-21605853D01*
X346773275Y-21676425D01*
X346657550Y-21771398D01*
X346633747Y-21800402D01*
X346553553Y-21880596D01*
X346524549Y-21904399D01*
X346477458Y-21961780D01*
X346429576Y-22020124D01*
X346426490Y-22025897D01*
X346309290Y-22001925D01*
X346120189Y-22000903D01*
X345934522Y-22036792D01*
X345836436Y-22076800D01*
X345813359Y-22023855D01*
X345691137Y-21848009D01*
X345536958Y-21699386D01*
X345356747Y-21583698D01*
X345153551Y-21511992D01*
X344986550Y-21638898D01*
X344986550Y-23179400D01*
X345273919Y-23179400D01*
X345284942Y-23236428D01*
X345356363Y-23411526D01*
X345361280Y-23420723D01*
X345543623Y-23433400D01*
X344986550Y-23433400D01*
X344986550Y-24973902D01*
X345153551Y-25100808D01*
X345356747Y-25029102D01*
X345536958Y-24913414D01*
X345691137Y-24764791D01*
X345813359Y-24588945D01*
X345879775Y-24436570D01*
X346029945Y-24286400D01*
X346015803Y-24272258D01*
X346100379Y-24187681D01*
X346099550Y-24191848D01*
X346099550Y-24380952D01*
X346131911Y-24543644D01*
X345736619Y-24938936D01*
X345750227Y-25134670D01*
X345924542Y-25207981D01*
X346109810Y-25245875D01*
X346298911Y-25246897D01*
X346350050Y-25237012D01*
X346350051Y-32192268D01*
X346346374Y-32229600D01*
X346350051Y-32266933D01*
X346361048Y-32378586D01*
X346361279Y-32379346D01*
X346404504Y-32521846D01*
X346475076Y-32653876D01*
X346515720Y-32703400D01*
X346542524Y-32736060D01*
X346536778Y-32794400D01*
X346536778Y-33544400D01*
X346540399Y-33581166D01*
X346446852Y-33599774D01*
X346258494Y-33677795D01*
X346088976Y-33791063D01*
X346045039Y-33835000D01*
X336332408Y-33835000D01*
X336292930Y-33813898D01*
X336173232Y-33777588D01*
X336048750Y-33765328D01*
X335548750Y-33765328D01*
X335424268Y-33777588D01*
X335304570Y-33813898D01*
X335265092Y-33835000D01*
X334979656Y-33835000D01*
X334968239Y-32964400D01*
X335018213Y-33057894D01*
X335097565Y-33154585D01*
X335194256Y-33233937D01*
X335304570Y-33292902D01*
X335424268Y-33329212D01*
X335548750Y-33341472D01*
X336048750Y-33341472D01*
X336173232Y-33329212D01*
X336292930Y-33292902D01*
X336403244Y-33233937D01*
X336499935Y-33154585D01*
X336579287Y-33057894D01*
X336638252Y-32947580D01*
X336674562Y-32827882D01*
X336686822Y-32703400D01*
X336686822Y-32203400D01*
X336674562Y-32078918D01*
X336638252Y-31959220D01*
X336579287Y-31848906D01*
X336528750Y-31787326D01*
X336528750Y-29585475D01*
X336973750Y-29585475D01*
X336973750Y-30104525D01*
X337075011Y-30613601D01*
X337273643Y-31093141D01*
X337562012Y-31524715D01*
X337929035Y-31891738D01*
X338360609Y-32180107D01*
X338840149Y-32378739D01*
X339349225Y-32480000D01*
X339868275Y-32480000D01*
X340377351Y-32378739D01*
X340856891Y-32180107D01*
X341288465Y-31891738D01*
X341655488Y-31524715D01*
X341943857Y-31093141D01*
X342142489Y-30613601D01*
X342243750Y-30104525D01*
X342243750Y-29698740D01*
X343203750Y-29698740D01*
X343203750Y-29991260D01*
X343260818Y-30278158D01*
X343372760Y-30548411D01*
X343535275Y-30791632D01*
X343742118Y-30998475D01*
X343985339Y-31160990D01*
X344255592Y-31272932D01*
X344542490Y-31330000D01*
X344835010Y-31330000D01*
X345121908Y-31272932D01*
X345392161Y-31160990D01*
X345635382Y-30998475D01*
X345842225Y-30791632D01*
X346004740Y-30548411D01*
X346116682Y-30278158D01*
X346173750Y-29991260D01*
X346173750Y-29698740D01*
X346116682Y-29411842D01*
X346004740Y-29141589D01*
X345842225Y-28898368D01*
X345635382Y-28691525D01*
X345392161Y-28529010D01*
X345121908Y-28417068D01*
X344835010Y-28360000D01*
X344542490Y-28360000D01*
X344255592Y-28417068D01*
X343985339Y-28529010D01*
X343742118Y-28691525D01*
X343535275Y-28898368D01*
X343372760Y-29141589D01*
X343260818Y-29411842D01*
X343203750Y-29698740D01*
X342243750Y-29698740D01*
X342243750Y-29585475D01*
X342142489Y-29076399D01*
X341943857Y-28596859D01*
X341655488Y-28165285D01*
X341288465Y-27798262D01*
X340856891Y-27509893D01*
X340377351Y-27311261D01*
X339868275Y-27210000D01*
X339349225Y-27210000D01*
X338840149Y-27311261D01*
X338360609Y-27509893D01*
X337929035Y-27798262D01*
X337562012Y-28165285D01*
X337273643Y-28596859D01*
X337075011Y-29076399D01*
X336973750Y-29585475D01*
X336528750Y-29585475D01*
X336528750Y-28880575D01*
X336620581Y-28842537D01*
X336904748Y-28652663D01*
X337146413Y-28410998D01*
X337336287Y-28126831D01*
X337467075Y-27811081D01*
X337533750Y-27475883D01*
X337533750Y-27134117D01*
X337467075Y-26798919D01*
X337336287Y-26483169D01*
X337146413Y-26199002D01*
X336904748Y-25957337D01*
X336620581Y-25767463D01*
X336304831Y-25636675D01*
X335969633Y-25570000D01*
X335627867Y-25570000D01*
X335292669Y-25636675D01*
X334976919Y-25767463D01*
X334874753Y-25835728D01*
X334858471Y-24594117D01*
X340413750Y-24594117D01*
X340413750Y-24935883D01*
X340480425Y-25271081D01*
X340611213Y-25586831D01*
X340801087Y-25870998D01*
X341042752Y-26112663D01*
X341326919Y-26302537D01*
X341642669Y-26433325D01*
X341977867Y-26500000D01*
X342319633Y-26500000D01*
X342654831Y-26433325D01*
X342970581Y-26302537D01*
X343254748Y-26112663D01*
X343496413Y-25870998D01*
X343686287Y-25586831D01*
X343817075Y-25271081D01*
X343883750Y-24935883D01*
X343883750Y-24594117D01*
X343863398Y-24491799D01*
X343905741Y-24588945D01*
X344027963Y-24764791D01*
X344182142Y-24913414D01*
X344362353Y-25029102D01*
X344565549Y-25100808D01*
X344732550Y-24973902D01*
X344732550Y-23433400D01*
X343774550Y-23433400D01*
X343774550Y-24156255D01*
X343686287Y-23943169D01*
X343496413Y-23659002D01*
X343254748Y-23417337D01*
X342970581Y-23227463D01*
X342654831Y-23096675D01*
X342319633Y-23030000D01*
X341977867Y-23030000D01*
X341642669Y-23096675D01*
X341326919Y-23227463D01*
X341042752Y-23417337D01*
X340801087Y-23659002D01*
X340611213Y-23943169D01*
X340480425Y-24258919D01*
X340413750Y-24594117D01*
X334858471Y-24594117D01*
X334848906Y-23864800D01*
X336075278Y-23864800D01*
X336087538Y-23989282D01*
X336123848Y-24108980D01*
X336182813Y-24219294D01*
X336262165Y-24315985D01*
X336358856Y-24395337D01*
X336469170Y-24454302D01*
X336588868Y-24490612D01*
X336713350Y-24502872D01*
X337002600Y-24499800D01*
X337161350Y-24341050D01*
X337161350Y-23291800D01*
X336237100Y-23291800D01*
X336078350Y-23450550D01*
X336075278Y-23864800D01*
X334848906Y-23864800D01*
X334830547Y-22464800D01*
X336075278Y-22464800D01*
X336078350Y-22879050D01*
X336237100Y-23037800D01*
X337161350Y-23037800D01*
X337161350Y-21988550D01*
X337415350Y-21988550D01*
X337415350Y-23037800D01*
X337435350Y-23037800D01*
X337435350Y-23291800D01*
X337415350Y-23291800D01*
X337415350Y-24341050D01*
X337574100Y-24499800D01*
X337863350Y-24502872D01*
X337987832Y-24490612D01*
X338107530Y-24454302D01*
X338217844Y-24395337D01*
X338314535Y-24315985D01*
X338380008Y-24236206D01*
X338385388Y-24242762D01*
X338519963Y-24353205D01*
X338673499Y-24435272D01*
X338840095Y-24485808D01*
X339013349Y-24502872D01*
X339663351Y-24502872D01*
X339836605Y-24485808D01*
X340003201Y-24435272D01*
X340156737Y-24353205D01*
X340291312Y-24242762D01*
X340401755Y-24108187D01*
X340483822Y-23954651D01*
X340534358Y-23788055D01*
X340551422Y-23614801D01*
X340551422Y-22714799D01*
X340534358Y-22541545D01*
X340500340Y-22429400D01*
X343774550Y-22429400D01*
X343774550Y-23179400D01*
X344732550Y-23179400D01*
X344732550Y-21638898D01*
X344565549Y-21511992D01*
X344362353Y-21583698D01*
X344182142Y-21699386D01*
X344027963Y-21848009D01*
X343905741Y-22023855D01*
X343820174Y-22220167D01*
X343774550Y-22429400D01*
X340500340Y-22429400D01*
X340483822Y-22374949D01*
X340401755Y-22221413D01*
X340291312Y-22086838D01*
X340241750Y-22046163D01*
X340241750Y-21938111D01*
X340285687Y-21894174D01*
X340398955Y-21724656D01*
X340476976Y-21536298D01*
X340516750Y-21336339D01*
X340516750Y-21132461D01*
X340476976Y-20932502D01*
X340398955Y-20744144D01*
X340285687Y-20574626D01*
X340141524Y-20430463D01*
X339972006Y-20317195D01*
X339783648Y-20239174D01*
X339583689Y-20199400D01*
X339379811Y-20199400D01*
X339179852Y-20239174D01*
X338991494Y-20317195D01*
X338821976Y-20430463D01*
X338677813Y-20574626D01*
X338564545Y-20744144D01*
X338486524Y-20932502D01*
X338446750Y-21132461D01*
X338446750Y-21336339D01*
X338486524Y-21536298D01*
X338564545Y-21724656D01*
X338677172Y-21893214D01*
X338673499Y-21894328D01*
X338519963Y-21976395D01*
X338385388Y-22086838D01*
X338380008Y-22093394D01*
X338314535Y-22013615D01*
X338217844Y-21934263D01*
X338107530Y-21875298D01*
X337987832Y-21838988D01*
X337863350Y-21826728D01*
X337574100Y-21829800D01*
X337415350Y-21988550D01*
X337161350Y-21988550D01*
X337002600Y-21829800D01*
X336713350Y-21826728D01*
X336588868Y-21838988D01*
X336469170Y-21875298D01*
X336358856Y-21934263D01*
X336262165Y-22013615D01*
X336182813Y-22110306D01*
X336123848Y-22220620D01*
X336087538Y-22340318D01*
X336075278Y-22464800D01*
X334830547Y-22464800D01*
X334798924Y-20053400D01*
X343774550Y-20053400D01*
X343774550Y-20453400D01*
X343820174Y-20662633D01*
X343905741Y-20858945D01*
X344027963Y-21034791D01*
X344182142Y-21183414D01*
X344362353Y-21299102D01*
X344565549Y-21370808D01*
X344732550Y-21243902D01*
X344732550Y-20053400D01*
X344986550Y-20053400D01*
X344986550Y-21243902D01*
X345153551Y-21370808D01*
X345356747Y-21299102D01*
X345536958Y-21183414D01*
X345691137Y-21034791D01*
X345813359Y-20858945D01*
X345898926Y-20662633D01*
X345944550Y-20453400D01*
X345944550Y-20053400D01*
X352424550Y-20053400D01*
X352424550Y-20453400D01*
X352470174Y-20662633D01*
X352555741Y-20858945D01*
X352677963Y-21034791D01*
X352832142Y-21183414D01*
X353012353Y-21299102D01*
X353215549Y-21370808D01*
X353382550Y-21243902D01*
X353382550Y-20053400D01*
X353636550Y-20053400D01*
X353636550Y-21243902D01*
X353803551Y-21370808D01*
X354006747Y-21299102D01*
X354186958Y-21183414D01*
X354341137Y-21034791D01*
X354463359Y-20858945D01*
X354548926Y-20662633D01*
X354594550Y-20453400D01*
X354594550Y-20053400D01*
X353636550Y-20053400D01*
X353382550Y-20053400D01*
X352424550Y-20053400D01*
X345944550Y-20053400D01*
X344986550Y-20053400D01*
X344732550Y-20053400D01*
X343774550Y-20053400D01*
X334798924Y-20053400D01*
X334790348Y-19399400D01*
X343774550Y-19399400D01*
X343774550Y-19799400D01*
X344732550Y-19799400D01*
X344732550Y-18608898D01*
X344986550Y-18608898D01*
X344986550Y-19799400D01*
X345944550Y-19799400D01*
X345944550Y-19399400D01*
X352424550Y-19399400D01*
X352424550Y-19799400D01*
X353382550Y-19799400D01*
X353382550Y-18608898D01*
X353636550Y-18608898D01*
X353636550Y-19799400D01*
X354594550Y-19799400D01*
X354594550Y-19399400D01*
X354548926Y-19190167D01*
X354463359Y-18993855D01*
X354341137Y-18818009D01*
X354186958Y-18669386D01*
X354006747Y-18553698D01*
X353803551Y-18481992D01*
X353636550Y-18608898D01*
X353382550Y-18608898D01*
X353215549Y-18481992D01*
X353012353Y-18553698D01*
X352832142Y-18669386D01*
X352677963Y-18818009D01*
X352555741Y-18993855D01*
X352470174Y-19190167D01*
X352424550Y-19399400D01*
X345944550Y-19399400D01*
X345898926Y-19190167D01*
X345813359Y-18993855D01*
X345691137Y-18818009D01*
X345536958Y-18669386D01*
X345356747Y-18553698D01*
X345153551Y-18481992D01*
X344986550Y-18608898D01*
X344732550Y-18608898D01*
X344565549Y-18481992D01*
X344362353Y-18553698D01*
X344182142Y-18669386D01*
X344027963Y-18818009D01*
X343905741Y-18993855D01*
X343820174Y-19190167D01*
X343774550Y-19399400D01*
X334790348Y-19399400D01*
X334748618Y-16217500D01*
X365081345Y-16217500D01*
X365091158Y-23259710D01*
G04 #@! TA.AperFunction,Conductor*
D24*
G36*
X365091158Y-23259710D02*
G01*
X364855252Y-23417337D01*
X364613587Y-23659002D01*
X364423713Y-23943169D01*
X364292925Y-24258919D01*
X364226250Y-24594117D01*
X364226250Y-24935883D01*
X364292925Y-25271081D01*
X364423713Y-25586831D01*
X364613587Y-25870998D01*
X364855252Y-26112663D01*
X365095357Y-26273096D01*
X365097479Y-27795932D01*
X364669391Y-27509893D01*
X364189851Y-27311261D01*
X363680775Y-27210000D01*
X363161725Y-27210000D01*
X362652649Y-27311261D01*
X362173109Y-27509893D01*
X361741535Y-27798262D01*
X361374512Y-28165285D01*
X361086143Y-28596859D01*
X360887511Y-29076399D01*
X360786250Y-29585475D01*
X360786250Y-30104525D01*
X360887511Y-30613601D01*
X361086143Y-31093141D01*
X361374512Y-31524715D01*
X361741535Y-31891738D01*
X362173109Y-32180107D01*
X362652649Y-32378739D01*
X363161725Y-32480000D01*
X363680775Y-32480000D01*
X364189851Y-32378739D01*
X364669391Y-32180107D01*
X365100965Y-31891738D01*
X365103183Y-31889520D01*
X365110175Y-36907682D01*
X350625244Y-37077464D01*
X350625244Y-34493061D01*
X355246250Y-34493061D01*
X355246250Y-34696939D01*
X355286024Y-34896898D01*
X355364045Y-35085256D01*
X355477313Y-35254774D01*
X355621476Y-35398937D01*
X355790994Y-35512205D01*
X355979352Y-35590226D01*
X356179311Y-35630000D01*
X356383189Y-35630000D01*
X356583148Y-35590226D01*
X356771506Y-35512205D01*
X356941024Y-35398937D01*
X356984961Y-35355000D01*
X358828311Y-35355000D01*
X358830713Y-35359494D01*
X358910065Y-35456185D01*
X359006756Y-35535537D01*
X359117070Y-35594502D01*
X359236768Y-35630812D01*
X359361250Y-35643072D01*
X359861250Y-35643072D01*
X359985732Y-35630812D01*
X360105430Y-35594502D01*
X360215744Y-35535537D01*
X360312435Y-35456185D01*
X360391787Y-35359494D01*
X360450752Y-35249180D01*
X360487062Y-35129482D01*
X360499322Y-35005000D01*
X360499322Y-34505000D01*
X360487062Y-34380518D01*
X360450752Y-34260820D01*
X360391787Y-34150506D01*
X360312435Y-34053815D01*
X360215744Y-33974463D01*
X360105430Y-33915498D01*
X359985732Y-33879188D01*
X359861250Y-33866928D01*
X359744237Y-33866928D01*
X359675236Y-33845997D01*
X359563583Y-33835000D01*
X359563572Y-33835000D01*
X359526250Y-33831324D01*
X359488928Y-33835000D01*
X356984961Y-33835000D01*
X356941024Y-33791063D01*
X356771506Y-33677795D01*
X356583148Y-33599774D01*
X356383189Y-33560000D01*
X356179311Y-33560000D01*
X355979352Y-33599774D01*
X355790994Y-33677795D01*
X355621476Y-33791063D01*
X355477313Y-33935226D01*
X355364045Y-34104744D01*
X355286024Y-34293102D01*
X355246250Y-34493061D01*
X350625244Y-34493061D01*
X350625245Y-32071016D01*
X351100852Y-31595409D01*
X351129851Y-31571611D01*
X351165389Y-31528308D01*
X351213105Y-31523608D01*
X351379701Y-31473072D01*
X351533237Y-31391005D01*
X351667812Y-31280562D01*
X351778255Y-31145987D01*
X351860322Y-30992451D01*
X351910858Y-30825855D01*
X351927922Y-30652601D01*
X351927922Y-30002599D01*
X351910858Y-29829345D01*
X351871240Y-29698740D01*
X356856250Y-29698740D01*
X356856250Y-29991260D01*
X356913318Y-30278158D01*
X357025260Y-30548411D01*
X357187775Y-30791632D01*
X357394618Y-30998475D01*
X357637839Y-31160990D01*
X357908092Y-31272932D01*
X358194990Y-31330000D01*
X358487510Y-31330000D01*
X358774408Y-31272932D01*
X358851250Y-31241103D01*
X358851250Y-31925481D01*
X358830713Y-31950506D01*
X358771748Y-32060820D01*
X358735438Y-32180518D01*
X358723178Y-32305000D01*
X358723178Y-32805000D01*
X358735438Y-32929482D01*
X358771748Y-33049180D01*
X358830713Y-33159494D01*
X358910065Y-33256185D01*
X359006756Y-33335537D01*
X359117070Y-33394502D01*
X359236768Y-33430812D01*
X359361250Y-33443072D01*
X359861250Y-33443072D01*
X359985732Y-33430812D01*
X360105430Y-33394502D01*
X360215744Y-33335537D01*
X360312435Y-33256185D01*
X360391787Y-33159494D01*
X360450752Y-33049180D01*
X360487062Y-32929482D01*
X360499322Y-32805000D01*
X360499322Y-32305000D01*
X360487062Y-32180518D01*
X360450752Y-32060820D01*
X360391787Y-31950506D01*
X360371250Y-31925482D01*
X360371250Y-28868148D01*
X360433081Y-28842537D01*
X360717248Y-28652663D01*
X360958913Y-28410998D01*
X361148787Y-28126831D01*
X361279575Y-27811081D01*
X361346250Y-27475883D01*
X361346250Y-27134117D01*
X361279575Y-26798919D01*
X361148787Y-26483169D01*
X360958913Y-26199002D01*
X360717248Y-25957337D01*
X360433081Y-25767463D01*
X360117331Y-25636675D01*
X359782133Y-25570000D01*
X359440367Y-25570000D01*
X359105169Y-25636675D01*
X358789419Y-25767463D01*
X358505252Y-25957337D01*
X358263587Y-26199002D01*
X358073713Y-26483169D01*
X357942925Y-26798919D01*
X357876250Y-27134117D01*
X357876250Y-27475883D01*
X357942925Y-27811081D01*
X358073713Y-28126831D01*
X358229511Y-28360000D01*
X358194990Y-28360000D01*
X357908092Y-28417068D01*
X357637839Y-28529010D01*
X357394618Y-28691525D01*
X357187775Y-28898368D01*
X357025260Y-29141589D01*
X356913318Y-29411842D01*
X356856250Y-29698740D01*
X351871240Y-29698740D01*
X351860322Y-29662749D01*
X351778255Y-29509213D01*
X351667812Y-29374638D01*
X351580034Y-29302600D01*
X351667812Y-29230562D01*
X351778255Y-29095987D01*
X351860322Y-28942451D01*
X351910858Y-28775855D01*
X351927922Y-28602601D01*
X351927922Y-27952599D01*
X351910858Y-27779345D01*
X351860322Y-27612749D01*
X351778255Y-27459213D01*
X351667812Y-27324638D01*
X351533237Y-27214195D01*
X351424862Y-27156267D01*
X351507055Y-27033256D01*
X351585076Y-26844898D01*
X351624850Y-26644939D01*
X351624850Y-26441061D01*
X351585076Y-26241102D01*
X351507055Y-26052744D01*
X351393787Y-25883226D01*
X351249624Y-25739063D01*
X351080106Y-25625795D01*
X350891748Y-25547774D01*
X350691789Y-25508000D01*
X350487911Y-25508000D01*
X350369550Y-25531543D01*
X350369550Y-25246400D01*
X350554102Y-25246400D01*
X350739572Y-25209508D01*
X350884550Y-25149456D01*
X351029528Y-25209508D01*
X351214998Y-25246400D01*
X351404102Y-25246400D01*
X351589572Y-25209508D01*
X351734970Y-25149282D01*
X351874542Y-25207981D01*
X352059810Y-25245875D01*
X352248911Y-25246897D01*
X352434578Y-25211008D01*
X352609676Y-25139587D01*
X352618873Y-25134670D01*
X352632481Y-24938936D01*
X352237189Y-24543644D01*
X352269550Y-24380952D01*
X352269550Y-24191848D01*
X352268721Y-24187681D01*
X352353298Y-24272258D01*
X352339155Y-24286400D01*
X352489325Y-24436570D01*
X352555741Y-24588945D01*
X352677963Y-24764791D01*
X352832142Y-24913414D01*
X353012353Y-25029102D01*
X353215549Y-25100808D01*
X353382550Y-24973902D01*
X353382550Y-23433400D01*
X352830477Y-23433400D01*
X353012820Y-23420723D01*
X353086131Y-23246408D01*
X353099837Y-23179400D01*
X353382550Y-23179400D01*
X353382550Y-21638898D01*
X353636550Y-21638898D01*
X353636550Y-23179400D01*
X353656550Y-23179400D01*
X353656550Y-23433400D01*
X353636550Y-23433400D01*
X353636550Y-24973902D01*
X353803551Y-25100808D01*
X354006747Y-25029102D01*
X354186958Y-24913414D01*
X354341137Y-24764791D01*
X354463359Y-24588945D01*
X354548926Y-24392633D01*
X354594550Y-24183400D01*
X354594550Y-23630417D01*
X354605545Y-23650987D01*
X354715988Y-23785562D01*
X354850563Y-23896005D01*
X355004099Y-23978072D01*
X355170695Y-24028608D01*
X355343949Y-24045672D01*
X355993951Y-24045672D01*
X356167205Y-24028608D01*
X356333801Y-23978072D01*
X356487337Y-23896005D01*
X356621912Y-23785562D01*
X356627292Y-23779006D01*
X356692765Y-23858785D01*
X356789456Y-23938137D01*
X356899770Y-23997102D01*
X357019468Y-24033412D01*
X357143950Y-24045672D01*
X357433200Y-24042600D01*
X357591950Y-23883850D01*
X357591950Y-22834600D01*
X357845950Y-22834600D01*
X357845950Y-23883850D01*
X358004700Y-24042600D01*
X358293950Y-24045672D01*
X358418432Y-24033412D01*
X358538130Y-23997102D01*
X358648444Y-23938137D01*
X358745135Y-23858785D01*
X358824487Y-23762094D01*
X358883452Y-23651780D01*
X358919762Y-23532082D01*
X358932022Y-23407600D01*
X358928950Y-22993350D01*
X358770200Y-22834600D01*
X357845950Y-22834600D01*
X357591950Y-22834600D01*
X357571950Y-22834600D01*
X357571950Y-22580600D01*
X357591950Y-22580600D01*
X357591950Y-21531350D01*
X357845950Y-21531350D01*
X357845950Y-22580600D01*
X358770200Y-22580600D01*
X358928950Y-22421850D01*
X358932022Y-22007600D01*
X358919762Y-21883118D01*
X358883452Y-21763420D01*
X358824487Y-21653106D01*
X358745135Y-21556415D01*
X358648444Y-21477063D01*
X358538130Y-21418098D01*
X358418432Y-21381788D01*
X358293950Y-21369528D01*
X358004700Y-21372600D01*
X357845950Y-21531350D01*
X357591950Y-21531350D01*
X357433200Y-21372600D01*
X357143950Y-21369528D01*
X357019468Y-21381788D01*
X356899770Y-21418098D01*
X356797179Y-21472935D01*
X356804140Y-21437939D01*
X356804140Y-21234061D01*
X356764366Y-21034102D01*
X356686345Y-20845744D01*
X356573077Y-20676226D01*
X356428914Y-20532063D01*
X356259396Y-20418795D01*
X356071038Y-20340774D01*
X355871079Y-20301000D01*
X355667201Y-20301000D01*
X355467242Y-20340774D01*
X355278884Y-20418795D01*
X355109366Y-20532063D01*
X354965203Y-20676226D01*
X354851935Y-20845744D01*
X354773914Y-21034102D01*
X354734140Y-21234061D01*
X354734140Y-21437939D01*
X354764373Y-21589930D01*
X354715988Y-21629638D01*
X354605545Y-21764213D01*
X354523478Y-21917749D01*
X354479829Y-22061641D01*
X354463359Y-22023855D01*
X354341137Y-21848009D01*
X354186958Y-21699386D01*
X354006747Y-21583698D01*
X353803551Y-21511992D01*
X353636550Y-21638898D01*
X353382550Y-21638898D01*
X353215549Y-21511992D01*
X353012353Y-21583698D01*
X352832142Y-21699386D01*
X352677963Y-21848009D01*
X352555741Y-22023855D01*
X352533411Y-22075085D01*
X352449558Y-22039819D01*
X352264290Y-22001925D01*
X352075189Y-22000903D01*
X351912471Y-22032356D01*
X351854551Y-21961780D01*
X351825547Y-21937977D01*
X351687972Y-21800402D01*
X351664169Y-21771398D01*
X351548444Y-21676425D01*
X351416415Y-21605853D01*
X351273154Y-21562396D01*
X351161501Y-21551399D01*
X351161490Y-21551399D01*
X351124168Y-21547723D01*
X351086846Y-21551399D01*
X347234874Y-21551399D01*
X347197551Y-21547723D01*
X347160229Y-21551399D01*
X347160218Y-21551399D01*
X347048565Y-21562396D01*
X346905304Y-21605853D01*
X346773275Y-21676425D01*
X346657550Y-21771398D01*
X346633747Y-21800402D01*
X346553553Y-21880596D01*
X346524549Y-21904399D01*
X346477458Y-21961780D01*
X346429576Y-22020124D01*
X346426490Y-22025897D01*
X346309290Y-22001925D01*
X346120189Y-22000903D01*
X345934522Y-22036792D01*
X345836436Y-22076800D01*
X345813359Y-22023855D01*
X345691137Y-21848009D01*
X345536958Y-21699386D01*
X345356747Y-21583698D01*
X345153551Y-21511992D01*
X344986550Y-21638898D01*
X344986550Y-23179400D01*
X345273919Y-23179400D01*
X345284942Y-23236428D01*
X345356363Y-23411526D01*
X345361280Y-23420723D01*
X345543623Y-23433400D01*
X344986550Y-23433400D01*
X344986550Y-24973902D01*
X345153551Y-25100808D01*
X345356747Y-25029102D01*
X345536958Y-24913414D01*
X345691137Y-24764791D01*
X345813359Y-24588945D01*
X345879775Y-24436570D01*
X346029945Y-24286400D01*
X346015803Y-24272258D01*
X346100379Y-24187681D01*
X346099550Y-24191848D01*
X346099550Y-24380952D01*
X346131911Y-24543644D01*
X345736619Y-24938936D01*
X345750227Y-25134670D01*
X345924542Y-25207981D01*
X346109810Y-25245875D01*
X346298911Y-25246897D01*
X346350050Y-25237012D01*
X346350051Y-32192268D01*
X346346374Y-32229600D01*
X346350051Y-32266933D01*
X346361048Y-32378586D01*
X346361279Y-32379346D01*
X346404504Y-32521846D01*
X346475076Y-32653876D01*
X346515720Y-32703400D01*
X346542524Y-32736060D01*
X346536778Y-32794400D01*
X346536778Y-33544400D01*
X346540399Y-33581166D01*
X346446852Y-33599774D01*
X346258494Y-33677795D01*
X346088976Y-33791063D01*
X346045039Y-33835000D01*
X336332408Y-33835000D01*
X336292930Y-33813898D01*
X336173232Y-33777588D01*
X336048750Y-33765328D01*
X335548750Y-33765328D01*
X335424268Y-33777588D01*
X335304570Y-33813898D01*
X335265092Y-33835000D01*
X334979656Y-33835000D01*
X334968239Y-32964400D01*
X335018213Y-33057894D01*
X335097565Y-33154585D01*
X335194256Y-33233937D01*
X335304570Y-33292902D01*
X335424268Y-33329212D01*
X335548750Y-33341472D01*
X336048750Y-33341472D01*
X336173232Y-33329212D01*
X336292930Y-33292902D01*
X336403244Y-33233937D01*
X336499935Y-33154585D01*
X336579287Y-33057894D01*
X336638252Y-32947580D01*
X336674562Y-32827882D01*
X336686822Y-32703400D01*
X336686822Y-32203400D01*
X336674562Y-32078918D01*
X336638252Y-31959220D01*
X336579287Y-31848906D01*
X336528750Y-31787326D01*
X336528750Y-29585475D01*
X336973750Y-29585475D01*
X336973750Y-30104525D01*
X337075011Y-30613601D01*
X337273643Y-31093141D01*
X337562012Y-31524715D01*
X337929035Y-31891738D01*
X338360609Y-32180107D01*
X338840149Y-32378739D01*
X339349225Y-32480000D01*
X339868275Y-32480000D01*
X340377351Y-32378739D01*
X340856891Y-32180107D01*
X341288465Y-31891738D01*
X341655488Y-31524715D01*
X341943857Y-31093141D01*
X342142489Y-30613601D01*
X342243750Y-30104525D01*
X342243750Y-29698740D01*
X343203750Y-29698740D01*
X343203750Y-29991260D01*
X343260818Y-30278158D01*
X343372760Y-30548411D01*
X343535275Y-30791632D01*
X343742118Y-30998475D01*
X343985339Y-31160990D01*
X344255592Y-31272932D01*
X344542490Y-31330000D01*
X344835010Y-31330000D01*
X345121908Y-31272932D01*
X345392161Y-31160990D01*
X345635382Y-30998475D01*
X345842225Y-30791632D01*
X346004740Y-30548411D01*
X346116682Y-30278158D01*
X346173750Y-29991260D01*
X346173750Y-29698740D01*
X346116682Y-29411842D01*
X346004740Y-29141589D01*
X345842225Y-28898368D01*
X345635382Y-28691525D01*
X345392161Y-28529010D01*
X345121908Y-28417068D01*
X344835010Y-28360000D01*
X344542490Y-28360000D01*
X344255592Y-28417068D01*
X343985339Y-28529010D01*
X343742118Y-28691525D01*
X343535275Y-28898368D01*
X343372760Y-29141589D01*
X343260818Y-29411842D01*
X343203750Y-29698740D01*
X342243750Y-29698740D01*
X342243750Y-29585475D01*
X342142489Y-29076399D01*
X341943857Y-28596859D01*
X341655488Y-28165285D01*
X341288465Y-27798262D01*
X340856891Y-27509893D01*
X340377351Y-27311261D01*
X339868275Y-27210000D01*
X339349225Y-27210000D01*
X338840149Y-27311261D01*
X338360609Y-27509893D01*
X337929035Y-27798262D01*
X337562012Y-28165285D01*
X337273643Y-28596859D01*
X337075011Y-29076399D01*
X336973750Y-29585475D01*
X336528750Y-29585475D01*
X336528750Y-28880575D01*
X336620581Y-28842537D01*
X336904748Y-28652663D01*
X337146413Y-28410998D01*
X337336287Y-28126831D01*
X337467075Y-27811081D01*
X337533750Y-27475883D01*
X337533750Y-27134117D01*
X337467075Y-26798919D01*
X337336287Y-26483169D01*
X337146413Y-26199002D01*
X336904748Y-25957337D01*
X336620581Y-25767463D01*
X336304831Y-25636675D01*
X335969633Y-25570000D01*
X335627867Y-25570000D01*
X335292669Y-25636675D01*
X334976919Y-25767463D01*
X334874753Y-25835728D01*
X334858471Y-24594117D01*
X340413750Y-24594117D01*
X340413750Y-24935883D01*
X340480425Y-25271081D01*
X340611213Y-25586831D01*
X340801087Y-25870998D01*
X341042752Y-26112663D01*
X341326919Y-26302537D01*
X341642669Y-26433325D01*
X341977867Y-26500000D01*
X342319633Y-26500000D01*
X342654831Y-26433325D01*
X342970581Y-26302537D01*
X343254748Y-26112663D01*
X343496413Y-25870998D01*
X343686287Y-25586831D01*
X343817075Y-25271081D01*
X343883750Y-24935883D01*
X343883750Y-24594117D01*
X343863398Y-24491799D01*
X343905741Y-24588945D01*
X344027963Y-24764791D01*
X344182142Y-24913414D01*
X344362353Y-25029102D01*
X344565549Y-25100808D01*
X344732550Y-24973902D01*
X344732550Y-23433400D01*
X343774550Y-23433400D01*
X343774550Y-24156255D01*
X343686287Y-23943169D01*
X343496413Y-23659002D01*
X343254748Y-23417337D01*
X342970581Y-23227463D01*
X342654831Y-23096675D01*
X342319633Y-23030000D01*
X341977867Y-23030000D01*
X341642669Y-23096675D01*
X341326919Y-23227463D01*
X341042752Y-23417337D01*
X340801087Y-23659002D01*
X340611213Y-23943169D01*
X340480425Y-24258919D01*
X340413750Y-24594117D01*
X334858471Y-24594117D01*
X334848906Y-23864800D01*
X336075278Y-23864800D01*
X336087538Y-23989282D01*
X336123848Y-24108980D01*
X336182813Y-24219294D01*
X336262165Y-24315985D01*
X336358856Y-24395337D01*
X336469170Y-24454302D01*
X336588868Y-24490612D01*
X336713350Y-24502872D01*
X337002600Y-24499800D01*
X337161350Y-24341050D01*
X337161350Y-23291800D01*
X336237100Y-23291800D01*
X336078350Y-23450550D01*
X336075278Y-23864800D01*
X334848906Y-23864800D01*
X334830547Y-22464800D01*
X336075278Y-22464800D01*
X336078350Y-22879050D01*
X336237100Y-23037800D01*
X337161350Y-23037800D01*
X337161350Y-21988550D01*
X337415350Y-21988550D01*
X337415350Y-23037800D01*
X337435350Y-23037800D01*
X337435350Y-23291800D01*
X337415350Y-23291800D01*
X337415350Y-24341050D01*
X337574100Y-24499800D01*
X337863350Y-24502872D01*
X337987832Y-24490612D01*
X338107530Y-24454302D01*
X338217844Y-24395337D01*
X338314535Y-24315985D01*
X338380008Y-24236206D01*
X338385388Y-24242762D01*
X338519963Y-24353205D01*
X338673499Y-24435272D01*
X338840095Y-24485808D01*
X339013349Y-24502872D01*
X339663351Y-24502872D01*
X339836605Y-24485808D01*
X340003201Y-24435272D01*
X340156737Y-24353205D01*
X340291312Y-24242762D01*
X340401755Y-24108187D01*
X340483822Y-23954651D01*
X340534358Y-23788055D01*
X340551422Y-23614801D01*
X340551422Y-22714799D01*
X340534358Y-22541545D01*
X340500340Y-22429400D01*
X343774550Y-22429400D01*
X343774550Y-23179400D01*
X344732550Y-23179400D01*
X344732550Y-21638898D01*
X344565549Y-21511992D01*
X344362353Y-21583698D01*
X344182142Y-21699386D01*
X344027963Y-21848009D01*
X343905741Y-22023855D01*
X343820174Y-22220167D01*
X343774550Y-22429400D01*
X340500340Y-22429400D01*
X340483822Y-22374949D01*
X340401755Y-22221413D01*
X340291312Y-22086838D01*
X340241750Y-22046163D01*
X340241750Y-21938111D01*
X340285687Y-21894174D01*
X340398955Y-21724656D01*
X340476976Y-21536298D01*
X340516750Y-21336339D01*
X340516750Y-21132461D01*
X340476976Y-20932502D01*
X340398955Y-20744144D01*
X340285687Y-20574626D01*
X340141524Y-20430463D01*
X339972006Y-20317195D01*
X339783648Y-20239174D01*
X339583689Y-20199400D01*
X339379811Y-20199400D01*
X339179852Y-20239174D01*
X338991494Y-20317195D01*
X338821976Y-20430463D01*
X338677813Y-20574626D01*
X338564545Y-20744144D01*
X338486524Y-20932502D01*
X338446750Y-21132461D01*
X338446750Y-21336339D01*
X338486524Y-21536298D01*
X338564545Y-21724656D01*
X338677172Y-21893214D01*
X338673499Y-21894328D01*
X338519963Y-21976395D01*
X338385388Y-22086838D01*
X338380008Y-22093394D01*
X338314535Y-22013615D01*
X338217844Y-21934263D01*
X338107530Y-21875298D01*
X337987832Y-21838988D01*
X337863350Y-21826728D01*
X337574100Y-21829800D01*
X337415350Y-21988550D01*
X337161350Y-21988550D01*
X337002600Y-21829800D01*
X336713350Y-21826728D01*
X336588868Y-21838988D01*
X336469170Y-21875298D01*
X336358856Y-21934263D01*
X336262165Y-22013615D01*
X336182813Y-22110306D01*
X336123848Y-22220620D01*
X336087538Y-22340318D01*
X336075278Y-22464800D01*
X334830547Y-22464800D01*
X334798924Y-20053400D01*
X343774550Y-20053400D01*
X343774550Y-20453400D01*
X343820174Y-20662633D01*
X343905741Y-20858945D01*
X344027963Y-21034791D01*
X344182142Y-21183414D01*
X344362353Y-21299102D01*
X344565549Y-21370808D01*
X344732550Y-21243902D01*
X344732550Y-20053400D01*
X344986550Y-20053400D01*
X344986550Y-21243902D01*
X345153551Y-21370808D01*
X345356747Y-21299102D01*
X345536958Y-21183414D01*
X345691137Y-21034791D01*
X345813359Y-20858945D01*
X345898926Y-20662633D01*
X345944550Y-20453400D01*
X345944550Y-20053400D01*
X352424550Y-20053400D01*
X352424550Y-20453400D01*
X352470174Y-20662633D01*
X352555741Y-20858945D01*
X352677963Y-21034791D01*
X352832142Y-21183414D01*
X353012353Y-21299102D01*
X353215549Y-21370808D01*
X353382550Y-21243902D01*
X353382550Y-20053400D01*
X353636550Y-20053400D01*
X353636550Y-21243902D01*
X353803551Y-21370808D01*
X354006747Y-21299102D01*
X354186958Y-21183414D01*
X354341137Y-21034791D01*
X354463359Y-20858945D01*
X354548926Y-20662633D01*
X354594550Y-20453400D01*
X354594550Y-20053400D01*
X353636550Y-20053400D01*
X353382550Y-20053400D01*
X352424550Y-20053400D01*
X345944550Y-20053400D01*
X344986550Y-20053400D01*
X344732550Y-20053400D01*
X343774550Y-20053400D01*
X334798924Y-20053400D01*
X334790348Y-19399400D01*
X343774550Y-19399400D01*
X343774550Y-19799400D01*
X344732550Y-19799400D01*
X344732550Y-18608898D01*
X344986550Y-18608898D01*
X344986550Y-19799400D01*
X345944550Y-19799400D01*
X345944550Y-19399400D01*
X352424550Y-19399400D01*
X352424550Y-19799400D01*
X353382550Y-19799400D01*
X353382550Y-18608898D01*
X353636550Y-18608898D01*
X353636550Y-19799400D01*
X354594550Y-19799400D01*
X354594550Y-19399400D01*
X354548926Y-19190167D01*
X354463359Y-18993855D01*
X354341137Y-18818009D01*
X354186958Y-18669386D01*
X354006747Y-18553698D01*
X353803551Y-18481992D01*
X353636550Y-18608898D01*
X353382550Y-18608898D01*
X353215549Y-18481992D01*
X353012353Y-18553698D01*
X352832142Y-18669386D01*
X352677963Y-18818009D01*
X352555741Y-18993855D01*
X352470174Y-19190167D01*
X352424550Y-19399400D01*
X345944550Y-19399400D01*
X345898926Y-19190167D01*
X345813359Y-18993855D01*
X345691137Y-18818009D01*
X345536958Y-18669386D01*
X345356747Y-18553698D01*
X345153551Y-18481992D01*
X344986550Y-18608898D01*
X344732550Y-18608898D01*
X344565549Y-18481992D01*
X344362353Y-18553698D01*
X344182142Y-18669386D01*
X344027963Y-18818009D01*
X343905741Y-18993855D01*
X343820174Y-19190167D01*
X343774550Y-19399400D01*
X334790348Y-19399400D01*
X334748618Y-16217500D01*
X365081345Y-16217500D01*
X365091158Y-23259710D01*
G37*
G04 #@! TD.AperFunction*
D23*
X346104550Y-22866848D02*
X346104550Y-23055952D01*
X346106620Y-23066360D01*
X346015803Y-22975543D01*
X346029945Y-22961400D01*
X346015803Y-22947258D01*
X346106620Y-22856440D01*
X346104550Y-22866848D01*
G04 #@! TA.AperFunction,Conductor*
D24*
G36*
X346104550Y-22866848D02*
G01*
X346104550Y-23055952D01*
X346106620Y-23066360D01*
X346015803Y-22975543D01*
X346029945Y-22961400D01*
X346015803Y-22947258D01*
X346106620Y-22856440D01*
X346104550Y-22866848D01*
G37*
G04 #@! TD.AperFunction*
D23*
X352358298Y-22947258D02*
X352344155Y-22961400D01*
X352358298Y-22975543D01*
X352273721Y-23060119D01*
X352274550Y-23055952D01*
X352274550Y-22866848D01*
X352273721Y-22862681D01*
X352358298Y-22947258D01*
G04 #@! TA.AperFunction,Conductor*
D24*
G36*
X352358298Y-22947258D02*
G01*
X352344155Y-22961400D01*
X352358298Y-22975543D01*
X352273721Y-23060119D01*
X352274550Y-23055952D01*
X352274550Y-22866848D01*
X352273721Y-22862681D01*
X352358298Y-22947258D01*
G37*
G04 #@! TD.AperFunction*
M02*
