G04 #@! TF.GenerationSoftware,KiCad,Pcbnew,(5.1.12)-1*
G04 #@! TF.CreationDate,2021-12-20T16:37:03-08:00*
G04 #@! TF.ProjectId,logboi,6c6f6762-6f69-42e6-9b69-6361645f7063,rev?*
G04 #@! TF.SameCoordinates,Original*
G04 #@! TF.FileFunction,Soldermask,Bot*
G04 #@! TF.FilePolarity,Negative*
%FSLAX46Y46*%
G04 Gerber Fmt 4.6, Leading zero omitted, Abs format (unit mm)*
G04 Created by KiCad (PCBNEW (5.1.12)-1) date 2021-12-20 16:37:03*
%MOMM*%
%LPD*%
G01*
G04 APERTURE LIST*
%ADD10C,3.152000*%
%ADD11C,4.102000*%
%ADD12C,1.802000*%
%ADD13C,2.302000*%
%ADD14C,4.602000*%
%ADD15C,0.752000*%
%ADD16O,1.002000X2.502000*%
%ADD17O,1.002000X1.802000*%
%ADD18O,1.802000X1.802000*%
%ADD19C,0.100000*%
G04 APERTURE END LIST*
D10*
X368177500Y-41895000D03*
X344377500Y-41895000D03*
D11*
X344377500Y-57135000D03*
X368177500Y-57135000D03*
D12*
X361357500Y-48895000D03*
X351197500Y-48895000D03*
D11*
X356277500Y-48895000D03*
D13*
X352467500Y-46355000D03*
X358817500Y-43815000D03*
D10*
X268165000Y-79995000D03*
X244365000Y-79995000D03*
D11*
X244365000Y-95235000D03*
X268165000Y-95235000D03*
D12*
X261345000Y-86995000D03*
X251185000Y-86995000D03*
D11*
X256265000Y-86995000D03*
D13*
X252455000Y-84455000D03*
X258805000Y-81915000D03*
D12*
X368501250Y-67945000D03*
X358341250Y-67945000D03*
D11*
X363421250Y-67945000D03*
D13*
X359611250Y-65405000D03*
X365961250Y-62865000D03*
D12*
X368501250Y-29845000D03*
X358341250Y-29845000D03*
D11*
X363421250Y-29845000D03*
D13*
X359611250Y-27305000D03*
X365961250Y-24765000D03*
D14*
X377708750Y-77470000D03*
X58621250Y-39370000D03*
X58621250Y-77470000D03*
X377708750Y-39370000D03*
G36*
G01*
X383673750Y-89913400D02*
X383173750Y-89913400D01*
G75*
G02*
X383122750Y-89862400I0J51000D01*
G01*
X383122750Y-89362400D01*
G75*
G02*
X383173750Y-89311400I51000J0D01*
G01*
X383673750Y-89311400D01*
G75*
G02*
X383724750Y-89362400I0J-51000D01*
G01*
X383724750Y-89862400D01*
G75*
G02*
X383673750Y-89913400I-51000J0D01*
G01*
G37*
G36*
G01*
X383673750Y-92113400D02*
X383173750Y-92113400D01*
G75*
G02*
X383122750Y-92062400I0J51000D01*
G01*
X383122750Y-91562400D01*
G75*
G02*
X383173750Y-91511400I51000J0D01*
G01*
X383673750Y-91511400D01*
G75*
G02*
X383724750Y-91562400I0J-51000D01*
G01*
X383724750Y-92062400D01*
G75*
G02*
X383673750Y-92113400I-51000J0D01*
G01*
G37*
G36*
G01*
X383648350Y-70829000D02*
X383148350Y-70829000D01*
G75*
G02*
X383097350Y-70778000I0J51000D01*
G01*
X383097350Y-70278000D01*
G75*
G02*
X383148350Y-70227000I51000J0D01*
G01*
X383648350Y-70227000D01*
G75*
G02*
X383699350Y-70278000I0J-51000D01*
G01*
X383699350Y-70778000D01*
G75*
G02*
X383648350Y-70829000I-51000J0D01*
G01*
G37*
G36*
G01*
X383648350Y-73029000D02*
X383148350Y-73029000D01*
G75*
G02*
X383097350Y-72978000I0J51000D01*
G01*
X383097350Y-72478000D01*
G75*
G02*
X383148350Y-72427000I51000J0D01*
G01*
X383648350Y-72427000D01*
G75*
G02*
X383699350Y-72478000I0J-51000D01*
G01*
X383699350Y-72978000D01*
G75*
G02*
X383648350Y-73029000I-51000J0D01*
G01*
G37*
G36*
G01*
X383673750Y-51906000D02*
X383173750Y-51906000D01*
G75*
G02*
X383122750Y-51855000I0J51000D01*
G01*
X383122750Y-51355000D01*
G75*
G02*
X383173750Y-51304000I51000J0D01*
G01*
X383673750Y-51304000D01*
G75*
G02*
X383724750Y-51355000I0J-51000D01*
G01*
X383724750Y-51855000D01*
G75*
G02*
X383673750Y-51906000I-51000J0D01*
G01*
G37*
G36*
G01*
X383673750Y-54106000D02*
X383173750Y-54106000D01*
G75*
G02*
X383122750Y-54055000I0J51000D01*
G01*
X383122750Y-53555000D01*
G75*
G02*
X383173750Y-53504000I51000J0D01*
G01*
X383673750Y-53504000D01*
G75*
G02*
X383724750Y-53555000I0J-51000D01*
G01*
X383724750Y-54055000D01*
G75*
G02*
X383673750Y-54106000I-51000J0D01*
G01*
G37*
G36*
G01*
X383673750Y-32856000D02*
X383173750Y-32856000D01*
G75*
G02*
X383122750Y-32805000I0J51000D01*
G01*
X383122750Y-32305000D01*
G75*
G02*
X383173750Y-32254000I51000J0D01*
G01*
X383673750Y-32254000D01*
G75*
G02*
X383724750Y-32305000I0J-51000D01*
G01*
X383724750Y-32805000D01*
G75*
G02*
X383673750Y-32856000I-51000J0D01*
G01*
G37*
G36*
G01*
X383673750Y-35056000D02*
X383173750Y-35056000D01*
G75*
G02*
X383122750Y-35005000I0J51000D01*
G01*
X383122750Y-34505000D01*
G75*
G02*
X383173750Y-34454000I51000J0D01*
G01*
X383673750Y-34454000D01*
G75*
G02*
X383724750Y-34505000I0J-51000D01*
G01*
X383724750Y-35005000D01*
G75*
G02*
X383673750Y-35056000I-51000J0D01*
G01*
G37*
G36*
G01*
X364598350Y-89879000D02*
X364098350Y-89879000D01*
G75*
G02*
X364047350Y-89828000I0J51000D01*
G01*
X364047350Y-89328000D01*
G75*
G02*
X364098350Y-89277000I51000J0D01*
G01*
X364598350Y-89277000D01*
G75*
G02*
X364649350Y-89328000I0J-51000D01*
G01*
X364649350Y-89828000D01*
G75*
G02*
X364598350Y-89879000I-51000J0D01*
G01*
G37*
G36*
G01*
X364598350Y-92079000D02*
X364098350Y-92079000D01*
G75*
G02*
X364047350Y-92028000I0J51000D01*
G01*
X364047350Y-91528000D01*
G75*
G02*
X364098350Y-91477000I51000J0D01*
G01*
X364598350Y-91477000D01*
G75*
G02*
X364649350Y-91528000I0J-51000D01*
G01*
X364649350Y-92028000D01*
G75*
G02*
X364598350Y-92079000I-51000J0D01*
G01*
G37*
G36*
G01*
X345548350Y-89879000D02*
X345048350Y-89879000D01*
G75*
G02*
X344997350Y-89828000I0J51000D01*
G01*
X344997350Y-89328000D01*
G75*
G02*
X345048350Y-89277000I51000J0D01*
G01*
X345548350Y-89277000D01*
G75*
G02*
X345599350Y-89328000I0J-51000D01*
G01*
X345599350Y-89828000D01*
G75*
G02*
X345548350Y-89879000I-51000J0D01*
G01*
G37*
G36*
G01*
X345548350Y-92079000D02*
X345048350Y-92079000D01*
G75*
G02*
X344997350Y-92028000I0J51000D01*
G01*
X344997350Y-91528000D01*
G75*
G02*
X345048350Y-91477000I51000J0D01*
G01*
X345548350Y-91477000D01*
G75*
G02*
X345599350Y-91528000I0J-51000D01*
G01*
X345599350Y-92028000D01*
G75*
G02*
X345548350Y-92079000I-51000J0D01*
G01*
G37*
G36*
G01*
X326498350Y-89879000D02*
X325998350Y-89879000D01*
G75*
G02*
X325947350Y-89828000I0J51000D01*
G01*
X325947350Y-89328000D01*
G75*
G02*
X325998350Y-89277000I51000J0D01*
G01*
X326498350Y-89277000D01*
G75*
G02*
X326549350Y-89328000I0J-51000D01*
G01*
X326549350Y-89828000D01*
G75*
G02*
X326498350Y-89879000I-51000J0D01*
G01*
G37*
G36*
G01*
X326498350Y-92079000D02*
X325998350Y-92079000D01*
G75*
G02*
X325947350Y-92028000I0J51000D01*
G01*
X325947350Y-91528000D01*
G75*
G02*
X325998350Y-91477000I51000J0D01*
G01*
X326498350Y-91477000D01*
G75*
G02*
X326549350Y-91528000I0J-51000D01*
G01*
X326549350Y-92028000D01*
G75*
G02*
X326498350Y-92079000I-51000J0D01*
G01*
G37*
G36*
G01*
X307499150Y-89879000D02*
X306999150Y-89879000D01*
G75*
G02*
X306948150Y-89828000I0J51000D01*
G01*
X306948150Y-89328000D01*
G75*
G02*
X306999150Y-89277000I51000J0D01*
G01*
X307499150Y-89277000D01*
G75*
G02*
X307550150Y-89328000I0J-51000D01*
G01*
X307550150Y-89828000D01*
G75*
G02*
X307499150Y-89879000I-51000J0D01*
G01*
G37*
G36*
G01*
X307499150Y-92079000D02*
X306999150Y-92079000D01*
G75*
G02*
X306948150Y-92028000I0J51000D01*
G01*
X306948150Y-91528000D01*
G75*
G02*
X306999150Y-91477000I51000J0D01*
G01*
X307499150Y-91477000D01*
G75*
G02*
X307550150Y-91528000I0J-51000D01*
G01*
X307550150Y-92028000D01*
G75*
G02*
X307499150Y-92079000I-51000J0D01*
G01*
G37*
G36*
G01*
X288449150Y-89879000D02*
X287949150Y-89879000D01*
G75*
G02*
X287898150Y-89828000I0J51000D01*
G01*
X287898150Y-89328000D01*
G75*
G02*
X287949150Y-89277000I51000J0D01*
G01*
X288449150Y-89277000D01*
G75*
G02*
X288500150Y-89328000I0J-51000D01*
G01*
X288500150Y-89828000D01*
G75*
G02*
X288449150Y-89879000I-51000J0D01*
G01*
G37*
G36*
G01*
X288449150Y-92079000D02*
X287949150Y-92079000D01*
G75*
G02*
X287898150Y-92028000I0J51000D01*
G01*
X287898150Y-91528000D01*
G75*
G02*
X287949150Y-91477000I51000J0D01*
G01*
X288449150Y-91477000D01*
G75*
G02*
X288500150Y-91528000I0J-51000D01*
G01*
X288500150Y-92028000D01*
G75*
G02*
X288449150Y-92079000I-51000J0D01*
G01*
G37*
G36*
G01*
X252730400Y-89879000D02*
X252230400Y-89879000D01*
G75*
G02*
X252179400Y-89828000I0J51000D01*
G01*
X252179400Y-89328000D01*
G75*
G02*
X252230400Y-89277000I51000J0D01*
G01*
X252730400Y-89277000D01*
G75*
G02*
X252781400Y-89328000I0J-51000D01*
G01*
X252781400Y-89828000D01*
G75*
G02*
X252730400Y-89879000I-51000J0D01*
G01*
G37*
G36*
G01*
X252730400Y-92079000D02*
X252230400Y-92079000D01*
G75*
G02*
X252179400Y-92028000I0J51000D01*
G01*
X252179400Y-91528000D01*
G75*
G02*
X252230400Y-91477000I51000J0D01*
G01*
X252730400Y-91477000D01*
G75*
G02*
X252781400Y-91528000I0J-51000D01*
G01*
X252781400Y-92028000D01*
G75*
G02*
X252730400Y-92079000I-51000J0D01*
G01*
G37*
G36*
G01*
X217011650Y-89879000D02*
X216511650Y-89879000D01*
G75*
G02*
X216460650Y-89828000I0J51000D01*
G01*
X216460650Y-89328000D01*
G75*
G02*
X216511650Y-89277000I51000J0D01*
G01*
X217011650Y-89277000D01*
G75*
G02*
X217062650Y-89328000I0J-51000D01*
G01*
X217062650Y-89828000D01*
G75*
G02*
X217011650Y-89879000I-51000J0D01*
G01*
G37*
G36*
G01*
X217011650Y-92079000D02*
X216511650Y-92079000D01*
G75*
G02*
X216460650Y-92028000I0J51000D01*
G01*
X216460650Y-91528000D01*
G75*
G02*
X216511650Y-91477000I51000J0D01*
G01*
X217011650Y-91477000D01*
G75*
G02*
X217062650Y-91528000I0J-51000D01*
G01*
X217062650Y-92028000D01*
G75*
G02*
X217011650Y-92079000I-51000J0D01*
G01*
G37*
G36*
G01*
X186055400Y-89904400D02*
X185555400Y-89904400D01*
G75*
G02*
X185504400Y-89853400I0J51000D01*
G01*
X185504400Y-89353400D01*
G75*
G02*
X185555400Y-89302400I51000J0D01*
G01*
X186055400Y-89302400D01*
G75*
G02*
X186106400Y-89353400I0J-51000D01*
G01*
X186106400Y-89853400D01*
G75*
G02*
X186055400Y-89904400I-51000J0D01*
G01*
G37*
G36*
G01*
X186055400Y-92104400D02*
X185555400Y-92104400D01*
G75*
G02*
X185504400Y-92053400I0J51000D01*
G01*
X185504400Y-91553400D01*
G75*
G02*
X185555400Y-91502400I51000J0D01*
G01*
X186055400Y-91502400D01*
G75*
G02*
X186106400Y-91553400I0J-51000D01*
G01*
X186106400Y-92053400D01*
G75*
G02*
X186055400Y-92104400I-51000J0D01*
G01*
G37*
G36*
G01*
X152692500Y-90006000D02*
X152192500Y-90006000D01*
G75*
G02*
X152141500Y-89955000I0J51000D01*
G01*
X152141500Y-89455000D01*
G75*
G02*
X152192500Y-89404000I51000J0D01*
G01*
X152692500Y-89404000D01*
G75*
G02*
X152743500Y-89455000I0J-51000D01*
G01*
X152743500Y-89955000D01*
G75*
G02*
X152692500Y-90006000I-51000J0D01*
G01*
G37*
G36*
G01*
X152692500Y-92206000D02*
X152192500Y-92206000D01*
G75*
G02*
X152141500Y-92155000I0J51000D01*
G01*
X152141500Y-91655000D01*
G75*
G02*
X152192500Y-91604000I51000J0D01*
G01*
X152692500Y-91604000D01*
G75*
G02*
X152743500Y-91655000I0J-51000D01*
G01*
X152743500Y-92155000D01*
G75*
G02*
X152692500Y-92206000I-51000J0D01*
G01*
G37*
G36*
G01*
X128905400Y-89904400D02*
X128405400Y-89904400D01*
G75*
G02*
X128354400Y-89853400I0J51000D01*
G01*
X128354400Y-89353400D01*
G75*
G02*
X128405400Y-89302400I51000J0D01*
G01*
X128905400Y-89302400D01*
G75*
G02*
X128956400Y-89353400I0J-51000D01*
G01*
X128956400Y-89853400D01*
G75*
G02*
X128905400Y-89904400I-51000J0D01*
G01*
G37*
G36*
G01*
X128905400Y-92104400D02*
X128405400Y-92104400D01*
G75*
G02*
X128354400Y-92053400I0J51000D01*
G01*
X128354400Y-91553400D01*
G75*
G02*
X128405400Y-91502400I51000J0D01*
G01*
X128905400Y-91502400D01*
G75*
G02*
X128956400Y-91553400I0J-51000D01*
G01*
X128956400Y-92053400D01*
G75*
G02*
X128905400Y-92104400I-51000J0D01*
G01*
G37*
G36*
G01*
X105092900Y-89904400D02*
X104592900Y-89904400D01*
G75*
G02*
X104541900Y-89853400I0J51000D01*
G01*
X104541900Y-89353400D01*
G75*
G02*
X104592900Y-89302400I51000J0D01*
G01*
X105092900Y-89302400D01*
G75*
G02*
X105143900Y-89353400I0J-51000D01*
G01*
X105143900Y-89853400D01*
G75*
G02*
X105092900Y-89904400I-51000J0D01*
G01*
G37*
G36*
G01*
X105092900Y-92104400D02*
X104592900Y-92104400D01*
G75*
G02*
X104541900Y-92053400I0J51000D01*
G01*
X104541900Y-91553400D01*
G75*
G02*
X104592900Y-91502400I51000J0D01*
G01*
X105092900Y-91502400D01*
G75*
G02*
X105143900Y-91553400I0J-51000D01*
G01*
X105143900Y-92053400D01*
G75*
G02*
X105092900Y-92104400I-51000J0D01*
G01*
G37*
G36*
G01*
X83661650Y-89904400D02*
X83161650Y-89904400D01*
G75*
G02*
X83110650Y-89853400I0J51000D01*
G01*
X83110650Y-89353400D01*
G75*
G02*
X83161650Y-89302400I51000J0D01*
G01*
X83661650Y-89302400D01*
G75*
G02*
X83712650Y-89353400I0J-51000D01*
G01*
X83712650Y-89853400D01*
G75*
G02*
X83661650Y-89904400I-51000J0D01*
G01*
G37*
G36*
G01*
X83661650Y-92104400D02*
X83161650Y-92104400D01*
G75*
G02*
X83110650Y-92053400I0J51000D01*
G01*
X83110650Y-91553400D01*
G75*
G02*
X83161650Y-91502400I51000J0D01*
G01*
X83661650Y-91502400D01*
G75*
G02*
X83712650Y-91553400I0J-51000D01*
G01*
X83712650Y-92053400D01*
G75*
G02*
X83661650Y-92104400I-51000J0D01*
G01*
G37*
G36*
G01*
X64611650Y-89904400D02*
X64111650Y-89904400D01*
G75*
G02*
X64060650Y-89853400I0J51000D01*
G01*
X64060650Y-89353400D01*
G75*
G02*
X64111650Y-89302400I51000J0D01*
G01*
X64611650Y-89302400D01*
G75*
G02*
X64662650Y-89353400I0J-51000D01*
G01*
X64662650Y-89853400D01*
G75*
G02*
X64611650Y-89904400I-51000J0D01*
G01*
G37*
G36*
G01*
X64611650Y-92104400D02*
X64111650Y-92104400D01*
G75*
G02*
X64060650Y-92053400I0J51000D01*
G01*
X64060650Y-91553400D01*
G75*
G02*
X64111650Y-91502400I51000J0D01*
G01*
X64611650Y-91502400D01*
G75*
G02*
X64662650Y-91553400I0J-51000D01*
G01*
X64662650Y-92053400D01*
G75*
G02*
X64611650Y-92104400I-51000J0D01*
G01*
G37*
G36*
G01*
X36011250Y-90006000D02*
X35511250Y-90006000D01*
G75*
G02*
X35460250Y-89955000I0J51000D01*
G01*
X35460250Y-89455000D01*
G75*
G02*
X35511250Y-89404000I51000J0D01*
G01*
X36011250Y-89404000D01*
G75*
G02*
X36062250Y-89455000I0J-51000D01*
G01*
X36062250Y-89955000D01*
G75*
G02*
X36011250Y-90006000I-51000J0D01*
G01*
G37*
G36*
G01*
X36011250Y-92206000D02*
X35511250Y-92206000D01*
G75*
G02*
X35460250Y-92155000I0J51000D01*
G01*
X35460250Y-91655000D01*
G75*
G02*
X35511250Y-91604000I51000J0D01*
G01*
X36011250Y-91604000D01*
G75*
G02*
X36062250Y-91655000I0J-51000D01*
G01*
X36062250Y-92155000D01*
G75*
G02*
X36011250Y-92206000I-51000J0D01*
G01*
G37*
G36*
G01*
X359835850Y-70829000D02*
X359335850Y-70829000D01*
G75*
G02*
X359284850Y-70778000I0J51000D01*
G01*
X359284850Y-70278000D01*
G75*
G02*
X359335850Y-70227000I51000J0D01*
G01*
X359835850Y-70227000D01*
G75*
G02*
X359886850Y-70278000I0J-51000D01*
G01*
X359886850Y-70778000D01*
G75*
G02*
X359835850Y-70829000I-51000J0D01*
G01*
G37*
G36*
G01*
X359835850Y-73029000D02*
X359335850Y-73029000D01*
G75*
G02*
X359284850Y-72978000I0J51000D01*
G01*
X359284850Y-72478000D01*
G75*
G02*
X359335850Y-72427000I51000J0D01*
G01*
X359835850Y-72427000D01*
G75*
G02*
X359886850Y-72478000I0J-51000D01*
G01*
X359886850Y-72978000D01*
G75*
G02*
X359835850Y-73029000I-51000J0D01*
G01*
G37*
G36*
G01*
X333642100Y-70829000D02*
X333142100Y-70829000D01*
G75*
G02*
X333091100Y-70778000I0J51000D01*
G01*
X333091100Y-70278000D01*
G75*
G02*
X333142100Y-70227000I51000J0D01*
G01*
X333642100Y-70227000D01*
G75*
G02*
X333693100Y-70278000I0J-51000D01*
G01*
X333693100Y-70778000D01*
G75*
G02*
X333642100Y-70829000I-51000J0D01*
G01*
G37*
G36*
G01*
X333642100Y-73029000D02*
X333142100Y-73029000D01*
G75*
G02*
X333091100Y-72978000I0J51000D01*
G01*
X333091100Y-72478000D01*
G75*
G02*
X333142100Y-72427000I51000J0D01*
G01*
X333642100Y-72427000D01*
G75*
G02*
X333693100Y-72478000I0J-51000D01*
G01*
X333693100Y-72978000D01*
G75*
G02*
X333642100Y-73029000I-51000J0D01*
G01*
G37*
G36*
G01*
X312210850Y-70829000D02*
X311710850Y-70829000D01*
G75*
G02*
X311659850Y-70778000I0J51000D01*
G01*
X311659850Y-70278000D01*
G75*
G02*
X311710850Y-70227000I51000J0D01*
G01*
X312210850Y-70227000D01*
G75*
G02*
X312261850Y-70278000I0J-51000D01*
G01*
X312261850Y-70778000D01*
G75*
G02*
X312210850Y-70829000I-51000J0D01*
G01*
G37*
G36*
G01*
X312210850Y-73029000D02*
X311710850Y-73029000D01*
G75*
G02*
X311659850Y-72978000I0J51000D01*
G01*
X311659850Y-72478000D01*
G75*
G02*
X311710850Y-72427000I51000J0D01*
G01*
X312210850Y-72427000D01*
G75*
G02*
X312261850Y-72478000I0J-51000D01*
G01*
X312261850Y-72978000D01*
G75*
G02*
X312210850Y-73029000I-51000J0D01*
G01*
G37*
G36*
G01*
X293211650Y-70829000D02*
X292711650Y-70829000D01*
G75*
G02*
X292660650Y-70778000I0J51000D01*
G01*
X292660650Y-70278000D01*
G75*
G02*
X292711650Y-70227000I51000J0D01*
G01*
X293211650Y-70227000D01*
G75*
G02*
X293262650Y-70278000I0J-51000D01*
G01*
X293262650Y-70778000D01*
G75*
G02*
X293211650Y-70829000I-51000J0D01*
G01*
G37*
G36*
G01*
X293211650Y-73029000D02*
X292711650Y-73029000D01*
G75*
G02*
X292660650Y-72978000I0J51000D01*
G01*
X292660650Y-72478000D01*
G75*
G02*
X292711650Y-72427000I51000J0D01*
G01*
X293211650Y-72427000D01*
G75*
G02*
X293262650Y-72478000I0J-51000D01*
G01*
X293262650Y-72978000D01*
G75*
G02*
X293211650Y-73029000I-51000J0D01*
G01*
G37*
G36*
G01*
X274161650Y-70829000D02*
X273661650Y-70829000D01*
G75*
G02*
X273610650Y-70778000I0J51000D01*
G01*
X273610650Y-70278000D01*
G75*
G02*
X273661650Y-70227000I51000J0D01*
G01*
X274161650Y-70227000D01*
G75*
G02*
X274212650Y-70278000I0J-51000D01*
G01*
X274212650Y-70778000D01*
G75*
G02*
X274161650Y-70829000I-51000J0D01*
G01*
G37*
G36*
G01*
X274161650Y-73029000D02*
X273661650Y-73029000D01*
G75*
G02*
X273610650Y-72978000I0J51000D01*
G01*
X273610650Y-72478000D01*
G75*
G02*
X273661650Y-72427000I51000J0D01*
G01*
X274161650Y-72427000D01*
G75*
G02*
X274212650Y-72478000I0J-51000D01*
G01*
X274212650Y-72978000D01*
G75*
G02*
X274161650Y-73029000I-51000J0D01*
G01*
G37*
G36*
G01*
X255111650Y-70829000D02*
X254611650Y-70829000D01*
G75*
G02*
X254560650Y-70778000I0J51000D01*
G01*
X254560650Y-70278000D01*
G75*
G02*
X254611650Y-70227000I51000J0D01*
G01*
X255111650Y-70227000D01*
G75*
G02*
X255162650Y-70278000I0J-51000D01*
G01*
X255162650Y-70778000D01*
G75*
G02*
X255111650Y-70829000I-51000J0D01*
G01*
G37*
G36*
G01*
X255111650Y-73029000D02*
X254611650Y-73029000D01*
G75*
G02*
X254560650Y-72978000I0J51000D01*
G01*
X254560650Y-72478000D01*
G75*
G02*
X254611650Y-72427000I51000J0D01*
G01*
X255111650Y-72427000D01*
G75*
G02*
X255162650Y-72478000I0J-51000D01*
G01*
X255162650Y-72978000D01*
G75*
G02*
X255111650Y-73029000I-51000J0D01*
G01*
G37*
G36*
G01*
X236061650Y-70829000D02*
X235561650Y-70829000D01*
G75*
G02*
X235510650Y-70778000I0J51000D01*
G01*
X235510650Y-70278000D01*
G75*
G02*
X235561650Y-70227000I51000J0D01*
G01*
X236061650Y-70227000D01*
G75*
G02*
X236112650Y-70278000I0J-51000D01*
G01*
X236112650Y-70778000D01*
G75*
G02*
X236061650Y-70829000I-51000J0D01*
G01*
G37*
G36*
G01*
X236061650Y-73029000D02*
X235561650Y-73029000D01*
G75*
G02*
X235510650Y-72978000I0J51000D01*
G01*
X235510650Y-72478000D01*
G75*
G02*
X235561650Y-72427000I51000J0D01*
G01*
X236061650Y-72427000D01*
G75*
G02*
X236112650Y-72478000I0J-51000D01*
G01*
X236112650Y-72978000D01*
G75*
G02*
X236061650Y-73029000I-51000J0D01*
G01*
G37*
G36*
G01*
X217011650Y-70829000D02*
X216511650Y-70829000D01*
G75*
G02*
X216460650Y-70778000I0J51000D01*
G01*
X216460650Y-70278000D01*
G75*
G02*
X216511650Y-70227000I51000J0D01*
G01*
X217011650Y-70227000D01*
G75*
G02*
X217062650Y-70278000I0J-51000D01*
G01*
X217062650Y-70778000D01*
G75*
G02*
X217011650Y-70829000I-51000J0D01*
G01*
G37*
G36*
G01*
X217011650Y-73029000D02*
X216511650Y-73029000D01*
G75*
G02*
X216460650Y-72978000I0J51000D01*
G01*
X216460650Y-72478000D01*
G75*
G02*
X216511650Y-72427000I51000J0D01*
G01*
X217011650Y-72427000D01*
G75*
G02*
X217062650Y-72478000I0J-51000D01*
G01*
X217062650Y-72978000D01*
G75*
G02*
X217011650Y-73029000I-51000J0D01*
G01*
G37*
G36*
G01*
X197936250Y-70846600D02*
X197436250Y-70846600D01*
G75*
G02*
X197385250Y-70795600I0J51000D01*
G01*
X197385250Y-70295600D01*
G75*
G02*
X197436250Y-70244600I51000J0D01*
G01*
X197936250Y-70244600D01*
G75*
G02*
X197987250Y-70295600I0J-51000D01*
G01*
X197987250Y-70795600D01*
G75*
G02*
X197936250Y-70846600I-51000J0D01*
G01*
G37*
G36*
G01*
X197936250Y-73046600D02*
X197436250Y-73046600D01*
G75*
G02*
X197385250Y-72995600I0J51000D01*
G01*
X197385250Y-72495600D01*
G75*
G02*
X197436250Y-72444600I51000J0D01*
G01*
X197936250Y-72444600D01*
G75*
G02*
X197987250Y-72495600I0J-51000D01*
G01*
X197987250Y-72995600D01*
G75*
G02*
X197936250Y-73046600I-51000J0D01*
G01*
G37*
G36*
G01*
X178911650Y-70854400D02*
X178411650Y-70854400D01*
G75*
G02*
X178360650Y-70803400I0J51000D01*
G01*
X178360650Y-70303400D01*
G75*
G02*
X178411650Y-70252400I51000J0D01*
G01*
X178911650Y-70252400D01*
G75*
G02*
X178962650Y-70303400I0J-51000D01*
G01*
X178962650Y-70803400D01*
G75*
G02*
X178911650Y-70854400I-51000J0D01*
G01*
G37*
G36*
G01*
X178911650Y-73054400D02*
X178411650Y-73054400D01*
G75*
G02*
X178360650Y-73003400I0J51000D01*
G01*
X178360650Y-72503400D01*
G75*
G02*
X178411650Y-72452400I51000J0D01*
G01*
X178911650Y-72452400D01*
G75*
G02*
X178962650Y-72503400I0J-51000D01*
G01*
X178962650Y-73003400D01*
G75*
G02*
X178911650Y-73054400I-51000J0D01*
G01*
G37*
G36*
G01*
X159861650Y-70854400D02*
X159361650Y-70854400D01*
G75*
G02*
X159310650Y-70803400I0J51000D01*
G01*
X159310650Y-70303400D01*
G75*
G02*
X159361650Y-70252400I51000J0D01*
G01*
X159861650Y-70252400D01*
G75*
G02*
X159912650Y-70303400I0J-51000D01*
G01*
X159912650Y-70803400D01*
G75*
G02*
X159861650Y-70854400I-51000J0D01*
G01*
G37*
G36*
G01*
X159861650Y-73054400D02*
X159361650Y-73054400D01*
G75*
G02*
X159310650Y-73003400I0J51000D01*
G01*
X159310650Y-72503400D01*
G75*
G02*
X159361650Y-72452400I51000J0D01*
G01*
X159861650Y-72452400D01*
G75*
G02*
X159912650Y-72503400I0J-51000D01*
G01*
X159912650Y-73003400D01*
G75*
G02*
X159861650Y-73054400I-51000J0D01*
G01*
G37*
G36*
G01*
X140811650Y-70854400D02*
X140311650Y-70854400D01*
G75*
G02*
X140260650Y-70803400I0J51000D01*
G01*
X140260650Y-70303400D01*
G75*
G02*
X140311650Y-70252400I51000J0D01*
G01*
X140811650Y-70252400D01*
G75*
G02*
X140862650Y-70303400I0J-51000D01*
G01*
X140862650Y-70803400D01*
G75*
G02*
X140811650Y-70854400I-51000J0D01*
G01*
G37*
G36*
G01*
X140811650Y-73054400D02*
X140311650Y-73054400D01*
G75*
G02*
X140260650Y-73003400I0J51000D01*
G01*
X140260650Y-72503400D01*
G75*
G02*
X140311650Y-72452400I51000J0D01*
G01*
X140811650Y-72452400D01*
G75*
G02*
X140862650Y-72503400I0J-51000D01*
G01*
X140862650Y-73003400D01*
G75*
G02*
X140811650Y-73054400I-51000J0D01*
G01*
G37*
G36*
G01*
X112236650Y-70854400D02*
X111736650Y-70854400D01*
G75*
G02*
X111685650Y-70803400I0J51000D01*
G01*
X111685650Y-70303400D01*
G75*
G02*
X111736650Y-70252400I51000J0D01*
G01*
X112236650Y-70252400D01*
G75*
G02*
X112287650Y-70303400I0J-51000D01*
G01*
X112287650Y-70803400D01*
G75*
G02*
X112236650Y-70854400I-51000J0D01*
G01*
G37*
G36*
G01*
X112236650Y-73054400D02*
X111736650Y-73054400D01*
G75*
G02*
X111685650Y-73003400I0J51000D01*
G01*
X111685650Y-72503400D01*
G75*
G02*
X111736650Y-72452400I51000J0D01*
G01*
X112236650Y-72452400D01*
G75*
G02*
X112287650Y-72503400I0J-51000D01*
G01*
X112287650Y-73003400D01*
G75*
G02*
X112236650Y-73054400I-51000J0D01*
G01*
G37*
G36*
G01*
X83661650Y-70854400D02*
X83161650Y-70854400D01*
G75*
G02*
X83110650Y-70803400I0J51000D01*
G01*
X83110650Y-70303400D01*
G75*
G02*
X83161650Y-70252400I51000J0D01*
G01*
X83661650Y-70252400D01*
G75*
G02*
X83712650Y-70303400I0J-51000D01*
G01*
X83712650Y-70803400D01*
G75*
G02*
X83661650Y-70854400I-51000J0D01*
G01*
G37*
G36*
G01*
X83661650Y-73054400D02*
X83161650Y-73054400D01*
G75*
G02*
X83110650Y-73003400I0J51000D01*
G01*
X83110650Y-72503400D01*
G75*
G02*
X83161650Y-72452400I51000J0D01*
G01*
X83661650Y-72452400D01*
G75*
G02*
X83712650Y-72503400I0J-51000D01*
G01*
X83712650Y-73003400D01*
G75*
G02*
X83661650Y-73054400I-51000J0D01*
G01*
G37*
G36*
G01*
X64611650Y-70854400D02*
X64111650Y-70854400D01*
G75*
G02*
X64060650Y-70803400I0J51000D01*
G01*
X64060650Y-70303400D01*
G75*
G02*
X64111650Y-70252400I51000J0D01*
G01*
X64611650Y-70252400D01*
G75*
G02*
X64662650Y-70303400I0J-51000D01*
G01*
X64662650Y-70803400D01*
G75*
G02*
X64611650Y-70854400I-51000J0D01*
G01*
G37*
G36*
G01*
X64611650Y-73054400D02*
X64111650Y-73054400D01*
G75*
G02*
X64060650Y-73003400I0J51000D01*
G01*
X64060650Y-72503400D01*
G75*
G02*
X64111650Y-72452400I51000J0D01*
G01*
X64611650Y-72452400D01*
G75*
G02*
X64662650Y-72503400I0J-51000D01*
G01*
X64662650Y-73003400D01*
G75*
G02*
X64611650Y-73054400I-51000J0D01*
G01*
G37*
G36*
G01*
X45536250Y-70879800D02*
X45036250Y-70879800D01*
G75*
G02*
X44985250Y-70828800I0J51000D01*
G01*
X44985250Y-70328800D01*
G75*
G02*
X45036250Y-70277800I51000J0D01*
G01*
X45536250Y-70277800D01*
G75*
G02*
X45587250Y-70328800I0J-51000D01*
G01*
X45587250Y-70828800D01*
G75*
G02*
X45536250Y-70879800I-51000J0D01*
G01*
G37*
G36*
G01*
X45536250Y-73079800D02*
X45036250Y-73079800D01*
G75*
G02*
X44985250Y-73028800I0J51000D01*
G01*
X44985250Y-72528800D01*
G75*
G02*
X45036250Y-72477800I51000J0D01*
G01*
X45536250Y-72477800D01*
G75*
G02*
X45587250Y-72528800I0J-51000D01*
G01*
X45587250Y-73028800D01*
G75*
G02*
X45536250Y-73079800I-51000J0D01*
G01*
G37*
G36*
G01*
X26486250Y-70879800D02*
X25986250Y-70879800D01*
G75*
G02*
X25935250Y-70828800I0J51000D01*
G01*
X25935250Y-70328800D01*
G75*
G02*
X25986250Y-70277800I51000J0D01*
G01*
X26486250Y-70277800D01*
G75*
G02*
X26537250Y-70328800I0J-51000D01*
G01*
X26537250Y-70828800D01*
G75*
G02*
X26486250Y-70879800I-51000J0D01*
G01*
G37*
G36*
G01*
X26486250Y-73079800D02*
X25986250Y-73079800D01*
G75*
G02*
X25935250Y-73028800I0J51000D01*
G01*
X25935250Y-72528800D01*
G75*
G02*
X25986250Y-72477800I51000J0D01*
G01*
X26486250Y-72477800D01*
G75*
G02*
X26537250Y-72528800I0J-51000D01*
G01*
X26537250Y-73028800D01*
G75*
G02*
X26486250Y-73079800I-51000J0D01*
G01*
G37*
G36*
G01*
X352717500Y-51804400D02*
X352217500Y-51804400D01*
G75*
G02*
X352166500Y-51753400I0J51000D01*
G01*
X352166500Y-51253400D01*
G75*
G02*
X352217500Y-51202400I51000J0D01*
G01*
X352717500Y-51202400D01*
G75*
G02*
X352768500Y-51253400I0J-51000D01*
G01*
X352768500Y-51753400D01*
G75*
G02*
X352717500Y-51804400I-51000J0D01*
G01*
G37*
G36*
G01*
X352717500Y-54004400D02*
X352217500Y-54004400D01*
G75*
G02*
X352166500Y-53953400I0J51000D01*
G01*
X352166500Y-53453400D01*
G75*
G02*
X352217500Y-53402400I51000J0D01*
G01*
X352717500Y-53402400D01*
G75*
G02*
X352768500Y-53453400I0J-51000D01*
G01*
X352768500Y-53953400D01*
G75*
G02*
X352717500Y-54004400I-51000J0D01*
G01*
G37*
G36*
G01*
X321761250Y-51804400D02*
X321261250Y-51804400D01*
G75*
G02*
X321210250Y-51753400I0J51000D01*
G01*
X321210250Y-51253400D01*
G75*
G02*
X321261250Y-51202400I51000J0D01*
G01*
X321761250Y-51202400D01*
G75*
G02*
X321812250Y-51253400I0J-51000D01*
G01*
X321812250Y-51753400D01*
G75*
G02*
X321761250Y-51804400I-51000J0D01*
G01*
G37*
G36*
G01*
X321761250Y-54004400D02*
X321261250Y-54004400D01*
G75*
G02*
X321210250Y-53953400I0J51000D01*
G01*
X321210250Y-53453400D01*
G75*
G02*
X321261250Y-53402400I51000J0D01*
G01*
X321761250Y-53402400D01*
G75*
G02*
X321812250Y-53453400I0J-51000D01*
G01*
X321812250Y-53953400D01*
G75*
G02*
X321761250Y-54004400I-51000J0D01*
G01*
G37*
G36*
G01*
X302711250Y-51804400D02*
X302211250Y-51804400D01*
G75*
G02*
X302160250Y-51753400I0J51000D01*
G01*
X302160250Y-51253400D01*
G75*
G02*
X302211250Y-51202400I51000J0D01*
G01*
X302711250Y-51202400D01*
G75*
G02*
X302762250Y-51253400I0J-51000D01*
G01*
X302762250Y-51753400D01*
G75*
G02*
X302711250Y-51804400I-51000J0D01*
G01*
G37*
G36*
G01*
X302711250Y-54004400D02*
X302211250Y-54004400D01*
G75*
G02*
X302160250Y-53953400I0J51000D01*
G01*
X302160250Y-53453400D01*
G75*
G02*
X302211250Y-53402400I51000J0D01*
G01*
X302711250Y-53402400D01*
G75*
G02*
X302762250Y-53453400I0J-51000D01*
G01*
X302762250Y-53953400D01*
G75*
G02*
X302711250Y-54004400I-51000J0D01*
G01*
G37*
G36*
G01*
X283661250Y-51804400D02*
X283161250Y-51804400D01*
G75*
G02*
X283110250Y-51753400I0J51000D01*
G01*
X283110250Y-51253400D01*
G75*
G02*
X283161250Y-51202400I51000J0D01*
G01*
X283661250Y-51202400D01*
G75*
G02*
X283712250Y-51253400I0J-51000D01*
G01*
X283712250Y-51753400D01*
G75*
G02*
X283661250Y-51804400I-51000J0D01*
G01*
G37*
G36*
G01*
X283661250Y-54004400D02*
X283161250Y-54004400D01*
G75*
G02*
X283110250Y-53953400I0J51000D01*
G01*
X283110250Y-53453400D01*
G75*
G02*
X283161250Y-53402400I51000J0D01*
G01*
X283661250Y-53402400D01*
G75*
G02*
X283712250Y-53453400I0J-51000D01*
G01*
X283712250Y-53953400D01*
G75*
G02*
X283661250Y-54004400I-51000J0D01*
G01*
G37*
G36*
G01*
X264611250Y-51804400D02*
X264111250Y-51804400D01*
G75*
G02*
X264060250Y-51753400I0J51000D01*
G01*
X264060250Y-51253400D01*
G75*
G02*
X264111250Y-51202400I51000J0D01*
G01*
X264611250Y-51202400D01*
G75*
G02*
X264662250Y-51253400I0J-51000D01*
G01*
X264662250Y-51753400D01*
G75*
G02*
X264611250Y-51804400I-51000J0D01*
G01*
G37*
G36*
G01*
X264611250Y-54004400D02*
X264111250Y-54004400D01*
G75*
G02*
X264060250Y-53953400I0J51000D01*
G01*
X264060250Y-53453400D01*
G75*
G02*
X264111250Y-53402400I51000J0D01*
G01*
X264611250Y-53402400D01*
G75*
G02*
X264662250Y-53453400I0J-51000D01*
G01*
X264662250Y-53953400D01*
G75*
G02*
X264611250Y-54004400I-51000J0D01*
G01*
G37*
G36*
G01*
X245561250Y-51804400D02*
X245061250Y-51804400D01*
G75*
G02*
X245010250Y-51753400I0J51000D01*
G01*
X245010250Y-51253400D01*
G75*
G02*
X245061250Y-51202400I51000J0D01*
G01*
X245561250Y-51202400D01*
G75*
G02*
X245612250Y-51253400I0J-51000D01*
G01*
X245612250Y-51753400D01*
G75*
G02*
X245561250Y-51804400I-51000J0D01*
G01*
G37*
G36*
G01*
X245561250Y-54004400D02*
X245061250Y-54004400D01*
G75*
G02*
X245010250Y-53953400I0J51000D01*
G01*
X245010250Y-53453400D01*
G75*
G02*
X245061250Y-53402400I51000J0D01*
G01*
X245561250Y-53402400D01*
G75*
G02*
X245612250Y-53453400I0J-51000D01*
G01*
X245612250Y-53953400D01*
G75*
G02*
X245561250Y-54004400I-51000J0D01*
G01*
G37*
G36*
G01*
X226511250Y-51804400D02*
X226011250Y-51804400D01*
G75*
G02*
X225960250Y-51753400I0J51000D01*
G01*
X225960250Y-51253400D01*
G75*
G02*
X226011250Y-51202400I51000J0D01*
G01*
X226511250Y-51202400D01*
G75*
G02*
X226562250Y-51253400I0J-51000D01*
G01*
X226562250Y-51753400D01*
G75*
G02*
X226511250Y-51804400I-51000J0D01*
G01*
G37*
G36*
G01*
X226511250Y-54004400D02*
X226011250Y-54004400D01*
G75*
G02*
X225960250Y-53953400I0J51000D01*
G01*
X225960250Y-53453400D01*
G75*
G02*
X226011250Y-53402400I51000J0D01*
G01*
X226511250Y-53402400D01*
G75*
G02*
X226562250Y-53453400I0J-51000D01*
G01*
X226562250Y-53953400D01*
G75*
G02*
X226511250Y-54004400I-51000J0D01*
G01*
G37*
G36*
G01*
X207461250Y-51804400D02*
X206961250Y-51804400D01*
G75*
G02*
X206910250Y-51753400I0J51000D01*
G01*
X206910250Y-51253400D01*
G75*
G02*
X206961250Y-51202400I51000J0D01*
G01*
X207461250Y-51202400D01*
G75*
G02*
X207512250Y-51253400I0J-51000D01*
G01*
X207512250Y-51753400D01*
G75*
G02*
X207461250Y-51804400I-51000J0D01*
G01*
G37*
G36*
G01*
X207461250Y-54004400D02*
X206961250Y-54004400D01*
G75*
G02*
X206910250Y-53953400I0J51000D01*
G01*
X206910250Y-53453400D01*
G75*
G02*
X206961250Y-53402400I51000J0D01*
G01*
X207461250Y-53402400D01*
G75*
G02*
X207512250Y-53453400I0J-51000D01*
G01*
X207512250Y-53953400D01*
G75*
G02*
X207461250Y-54004400I-51000J0D01*
G01*
G37*
G36*
G01*
X188411250Y-51804400D02*
X187911250Y-51804400D01*
G75*
G02*
X187860250Y-51753400I0J51000D01*
G01*
X187860250Y-51253400D01*
G75*
G02*
X187911250Y-51202400I51000J0D01*
G01*
X188411250Y-51202400D01*
G75*
G02*
X188462250Y-51253400I0J-51000D01*
G01*
X188462250Y-51753400D01*
G75*
G02*
X188411250Y-51804400I-51000J0D01*
G01*
G37*
G36*
G01*
X188411250Y-54004400D02*
X187911250Y-54004400D01*
G75*
G02*
X187860250Y-53953400I0J51000D01*
G01*
X187860250Y-53453400D01*
G75*
G02*
X187911250Y-53402400I51000J0D01*
G01*
X188411250Y-53402400D01*
G75*
G02*
X188462250Y-53453400I0J-51000D01*
G01*
X188462250Y-53953400D01*
G75*
G02*
X188411250Y-54004400I-51000J0D01*
G01*
G37*
G36*
G01*
X169361250Y-51804400D02*
X168861250Y-51804400D01*
G75*
G02*
X168810250Y-51753400I0J51000D01*
G01*
X168810250Y-51253400D01*
G75*
G02*
X168861250Y-51202400I51000J0D01*
G01*
X169361250Y-51202400D01*
G75*
G02*
X169412250Y-51253400I0J-51000D01*
G01*
X169412250Y-51753400D01*
G75*
G02*
X169361250Y-51804400I-51000J0D01*
G01*
G37*
G36*
G01*
X169361250Y-54004400D02*
X168861250Y-54004400D01*
G75*
G02*
X168810250Y-53953400I0J51000D01*
G01*
X168810250Y-53453400D01*
G75*
G02*
X168861250Y-53402400I51000J0D01*
G01*
X169361250Y-53402400D01*
G75*
G02*
X169412250Y-53453400I0J-51000D01*
G01*
X169412250Y-53953400D01*
G75*
G02*
X169361250Y-54004400I-51000J0D01*
G01*
G37*
G36*
G01*
X150311250Y-51804400D02*
X149811250Y-51804400D01*
G75*
G02*
X149760250Y-51753400I0J51000D01*
G01*
X149760250Y-51253400D01*
G75*
G02*
X149811250Y-51202400I51000J0D01*
G01*
X150311250Y-51202400D01*
G75*
G02*
X150362250Y-51253400I0J-51000D01*
G01*
X150362250Y-51753400D01*
G75*
G02*
X150311250Y-51804400I-51000J0D01*
G01*
G37*
G36*
G01*
X150311250Y-54004400D02*
X149811250Y-54004400D01*
G75*
G02*
X149760250Y-53953400I0J51000D01*
G01*
X149760250Y-53453400D01*
G75*
G02*
X149811250Y-53402400I51000J0D01*
G01*
X150311250Y-53402400D01*
G75*
G02*
X150362250Y-53453400I0J-51000D01*
G01*
X150362250Y-53953400D01*
G75*
G02*
X150311250Y-54004400I-51000J0D01*
G01*
G37*
G36*
G01*
X131261250Y-51804400D02*
X130761250Y-51804400D01*
G75*
G02*
X130710250Y-51753400I0J51000D01*
G01*
X130710250Y-51253400D01*
G75*
G02*
X130761250Y-51202400I51000J0D01*
G01*
X131261250Y-51202400D01*
G75*
G02*
X131312250Y-51253400I0J-51000D01*
G01*
X131312250Y-51753400D01*
G75*
G02*
X131261250Y-51804400I-51000J0D01*
G01*
G37*
G36*
G01*
X131261250Y-54004400D02*
X130761250Y-54004400D01*
G75*
G02*
X130710250Y-53953400I0J51000D01*
G01*
X130710250Y-53453400D01*
G75*
G02*
X130761250Y-53402400I51000J0D01*
G01*
X131261250Y-53402400D01*
G75*
G02*
X131312250Y-53453400I0J-51000D01*
G01*
X131312250Y-53953400D01*
G75*
G02*
X131261250Y-54004400I-51000J0D01*
G01*
G37*
G36*
G01*
X107448750Y-51804400D02*
X106948750Y-51804400D01*
G75*
G02*
X106897750Y-51753400I0J51000D01*
G01*
X106897750Y-51253400D01*
G75*
G02*
X106948750Y-51202400I51000J0D01*
G01*
X107448750Y-51202400D01*
G75*
G02*
X107499750Y-51253400I0J-51000D01*
G01*
X107499750Y-51753400D01*
G75*
G02*
X107448750Y-51804400I-51000J0D01*
G01*
G37*
G36*
G01*
X107448750Y-54004400D02*
X106948750Y-54004400D01*
G75*
G02*
X106897750Y-53953400I0J51000D01*
G01*
X106897750Y-53453400D01*
G75*
G02*
X106948750Y-53402400I51000J0D01*
G01*
X107448750Y-53402400D01*
G75*
G02*
X107499750Y-53453400I0J-51000D01*
G01*
X107499750Y-53953400D01*
G75*
G02*
X107448750Y-54004400I-51000J0D01*
G01*
G37*
G36*
G01*
X83610850Y-51804400D02*
X83110850Y-51804400D01*
G75*
G02*
X83059850Y-51753400I0J51000D01*
G01*
X83059850Y-51253400D01*
G75*
G02*
X83110850Y-51202400I51000J0D01*
G01*
X83610850Y-51202400D01*
G75*
G02*
X83661850Y-51253400I0J-51000D01*
G01*
X83661850Y-51753400D01*
G75*
G02*
X83610850Y-51804400I-51000J0D01*
G01*
G37*
G36*
G01*
X83610850Y-54004400D02*
X83110850Y-54004400D01*
G75*
G02*
X83059850Y-53953400I0J51000D01*
G01*
X83059850Y-53453400D01*
G75*
G02*
X83110850Y-53402400I51000J0D01*
G01*
X83610850Y-53402400D01*
G75*
G02*
X83661850Y-53453400I0J-51000D01*
G01*
X83661850Y-53953400D01*
G75*
G02*
X83610850Y-54004400I-51000J0D01*
G01*
G37*
G36*
G01*
X64560850Y-51804400D02*
X64060850Y-51804400D01*
G75*
G02*
X64009850Y-51753400I0J51000D01*
G01*
X64009850Y-51253400D01*
G75*
G02*
X64060850Y-51202400I51000J0D01*
G01*
X64560850Y-51202400D01*
G75*
G02*
X64611850Y-51253400I0J-51000D01*
G01*
X64611850Y-51753400D01*
G75*
G02*
X64560850Y-51804400I-51000J0D01*
G01*
G37*
G36*
G01*
X64560850Y-54004400D02*
X64060850Y-54004400D01*
G75*
G02*
X64009850Y-53953400I0J51000D01*
G01*
X64009850Y-53453400D01*
G75*
G02*
X64060850Y-53402400I51000J0D01*
G01*
X64560850Y-53402400D01*
G75*
G02*
X64611850Y-53453400I0J-51000D01*
G01*
X64611850Y-53953400D01*
G75*
G02*
X64560850Y-54004400I-51000J0D01*
G01*
G37*
G36*
G01*
X45510850Y-51804400D02*
X45010850Y-51804400D01*
G75*
G02*
X44959850Y-51753400I0J51000D01*
G01*
X44959850Y-51253400D01*
G75*
G02*
X45010850Y-51202400I51000J0D01*
G01*
X45510850Y-51202400D01*
G75*
G02*
X45561850Y-51253400I0J-51000D01*
G01*
X45561850Y-51753400D01*
G75*
G02*
X45510850Y-51804400I-51000J0D01*
G01*
G37*
G36*
G01*
X45510850Y-54004400D02*
X45010850Y-54004400D01*
G75*
G02*
X44959850Y-53953400I0J51000D01*
G01*
X44959850Y-53453400D01*
G75*
G02*
X45010850Y-53402400I51000J0D01*
G01*
X45510850Y-53402400D01*
G75*
G02*
X45561850Y-53453400I0J-51000D01*
G01*
X45561850Y-53953400D01*
G75*
G02*
X45510850Y-54004400I-51000J0D01*
G01*
G37*
G36*
G01*
X26460850Y-51804400D02*
X25960850Y-51804400D01*
G75*
G02*
X25909850Y-51753400I0J51000D01*
G01*
X25909850Y-51253400D01*
G75*
G02*
X25960850Y-51202400I51000J0D01*
G01*
X26460850Y-51202400D01*
G75*
G02*
X26511850Y-51253400I0J-51000D01*
G01*
X26511850Y-51753400D01*
G75*
G02*
X26460850Y-51804400I-51000J0D01*
G01*
G37*
G36*
G01*
X26460850Y-54004400D02*
X25960850Y-54004400D01*
G75*
G02*
X25909850Y-53953400I0J51000D01*
G01*
X25909850Y-53453400D01*
G75*
G02*
X25960850Y-53402400I51000J0D01*
G01*
X26460850Y-53402400D01*
G75*
G02*
X26511850Y-53453400I0J-51000D01*
G01*
X26511850Y-53953400D01*
G75*
G02*
X26460850Y-54004400I-51000J0D01*
G01*
G37*
G36*
G01*
X359861250Y-32856000D02*
X359361250Y-32856000D01*
G75*
G02*
X359310250Y-32805000I0J51000D01*
G01*
X359310250Y-32305000D01*
G75*
G02*
X359361250Y-32254000I51000J0D01*
G01*
X359861250Y-32254000D01*
G75*
G02*
X359912250Y-32305000I0J-51000D01*
G01*
X359912250Y-32805000D01*
G75*
G02*
X359861250Y-32856000I-51000J0D01*
G01*
G37*
G36*
G01*
X359861250Y-35056000D02*
X359361250Y-35056000D01*
G75*
G02*
X359310250Y-35005000I0J51000D01*
G01*
X359310250Y-34505000D01*
G75*
G02*
X359361250Y-34454000I51000J0D01*
G01*
X359861250Y-34454000D01*
G75*
G02*
X359912250Y-34505000I0J-51000D01*
G01*
X359912250Y-35005000D01*
G75*
G02*
X359861250Y-35056000I-51000J0D01*
G01*
G37*
G36*
G01*
X336048750Y-32754400D02*
X335548750Y-32754400D01*
G75*
G02*
X335497750Y-32703400I0J51000D01*
G01*
X335497750Y-32203400D01*
G75*
G02*
X335548750Y-32152400I51000J0D01*
G01*
X336048750Y-32152400D01*
G75*
G02*
X336099750Y-32203400I0J-51000D01*
G01*
X336099750Y-32703400D01*
G75*
G02*
X336048750Y-32754400I-51000J0D01*
G01*
G37*
G36*
G01*
X336048750Y-34954400D02*
X335548750Y-34954400D01*
G75*
G02*
X335497750Y-34903400I0J51000D01*
G01*
X335497750Y-34403400D01*
G75*
G02*
X335548750Y-34352400I51000J0D01*
G01*
X336048750Y-34352400D01*
G75*
G02*
X336099750Y-34403400I0J-51000D01*
G01*
X336099750Y-34903400D01*
G75*
G02*
X336048750Y-34954400I-51000J0D01*
G01*
G37*
G36*
G01*
X316998750Y-32754400D02*
X316498750Y-32754400D01*
G75*
G02*
X316447750Y-32703400I0J51000D01*
G01*
X316447750Y-32203400D01*
G75*
G02*
X316498750Y-32152400I51000J0D01*
G01*
X316998750Y-32152400D01*
G75*
G02*
X317049750Y-32203400I0J-51000D01*
G01*
X317049750Y-32703400D01*
G75*
G02*
X316998750Y-32754400I-51000J0D01*
G01*
G37*
G36*
G01*
X316998750Y-34954400D02*
X316498750Y-34954400D01*
G75*
G02*
X316447750Y-34903400I0J51000D01*
G01*
X316447750Y-34403400D01*
G75*
G02*
X316498750Y-34352400I51000J0D01*
G01*
X316998750Y-34352400D01*
G75*
G02*
X317049750Y-34403400I0J-51000D01*
G01*
X317049750Y-34903400D01*
G75*
G02*
X316998750Y-34954400I-51000J0D01*
G01*
G37*
G36*
G01*
X297948750Y-32754400D02*
X297448750Y-32754400D01*
G75*
G02*
X297397750Y-32703400I0J51000D01*
G01*
X297397750Y-32203400D01*
G75*
G02*
X297448750Y-32152400I51000J0D01*
G01*
X297948750Y-32152400D01*
G75*
G02*
X297999750Y-32203400I0J-51000D01*
G01*
X297999750Y-32703400D01*
G75*
G02*
X297948750Y-32754400I-51000J0D01*
G01*
G37*
G36*
G01*
X297948750Y-34954400D02*
X297448750Y-34954400D01*
G75*
G02*
X297397750Y-34903400I0J51000D01*
G01*
X297397750Y-34403400D01*
G75*
G02*
X297448750Y-34352400I51000J0D01*
G01*
X297948750Y-34352400D01*
G75*
G02*
X297999750Y-34403400I0J-51000D01*
G01*
X297999750Y-34903400D01*
G75*
G02*
X297948750Y-34954400I-51000J0D01*
G01*
G37*
G36*
G01*
X278898750Y-32754400D02*
X278398750Y-32754400D01*
G75*
G02*
X278347750Y-32703400I0J51000D01*
G01*
X278347750Y-32203400D01*
G75*
G02*
X278398750Y-32152400I51000J0D01*
G01*
X278898750Y-32152400D01*
G75*
G02*
X278949750Y-32203400I0J-51000D01*
G01*
X278949750Y-32703400D01*
G75*
G02*
X278898750Y-32754400I-51000J0D01*
G01*
G37*
G36*
G01*
X278898750Y-34954400D02*
X278398750Y-34954400D01*
G75*
G02*
X278347750Y-34903400I0J51000D01*
G01*
X278347750Y-34403400D01*
G75*
G02*
X278398750Y-34352400I51000J0D01*
G01*
X278898750Y-34352400D01*
G75*
G02*
X278949750Y-34403400I0J-51000D01*
G01*
X278949750Y-34903400D01*
G75*
G02*
X278898750Y-34954400I-51000J0D01*
G01*
G37*
G36*
G01*
X259848750Y-32754400D02*
X259348750Y-32754400D01*
G75*
G02*
X259297750Y-32703400I0J51000D01*
G01*
X259297750Y-32203400D01*
G75*
G02*
X259348750Y-32152400I51000J0D01*
G01*
X259848750Y-32152400D01*
G75*
G02*
X259899750Y-32203400I0J-51000D01*
G01*
X259899750Y-32703400D01*
G75*
G02*
X259848750Y-32754400I-51000J0D01*
G01*
G37*
G36*
G01*
X259848750Y-34954400D02*
X259348750Y-34954400D01*
G75*
G02*
X259297750Y-34903400I0J51000D01*
G01*
X259297750Y-34403400D01*
G75*
G02*
X259348750Y-34352400I51000J0D01*
G01*
X259848750Y-34352400D01*
G75*
G02*
X259899750Y-34403400I0J-51000D01*
G01*
X259899750Y-34903400D01*
G75*
G02*
X259848750Y-34954400I-51000J0D01*
G01*
G37*
G36*
G01*
X240798750Y-32754400D02*
X240298750Y-32754400D01*
G75*
G02*
X240247750Y-32703400I0J51000D01*
G01*
X240247750Y-32203400D01*
G75*
G02*
X240298750Y-32152400I51000J0D01*
G01*
X240798750Y-32152400D01*
G75*
G02*
X240849750Y-32203400I0J-51000D01*
G01*
X240849750Y-32703400D01*
G75*
G02*
X240798750Y-32754400I-51000J0D01*
G01*
G37*
G36*
G01*
X240798750Y-34954400D02*
X240298750Y-34954400D01*
G75*
G02*
X240247750Y-34903400I0J51000D01*
G01*
X240247750Y-34403400D01*
G75*
G02*
X240298750Y-34352400I51000J0D01*
G01*
X240798750Y-34352400D01*
G75*
G02*
X240849750Y-34403400I0J-51000D01*
G01*
X240849750Y-34903400D01*
G75*
G02*
X240798750Y-34954400I-51000J0D01*
G01*
G37*
G36*
G01*
X221748750Y-32754400D02*
X221248750Y-32754400D01*
G75*
G02*
X221197750Y-32703400I0J51000D01*
G01*
X221197750Y-32203400D01*
G75*
G02*
X221248750Y-32152400I51000J0D01*
G01*
X221748750Y-32152400D01*
G75*
G02*
X221799750Y-32203400I0J-51000D01*
G01*
X221799750Y-32703400D01*
G75*
G02*
X221748750Y-32754400I-51000J0D01*
G01*
G37*
G36*
G01*
X221748750Y-34954400D02*
X221248750Y-34954400D01*
G75*
G02*
X221197750Y-34903400I0J51000D01*
G01*
X221197750Y-34403400D01*
G75*
G02*
X221248750Y-34352400I51000J0D01*
G01*
X221748750Y-34352400D01*
G75*
G02*
X221799750Y-34403400I0J-51000D01*
G01*
X221799750Y-34903400D01*
G75*
G02*
X221748750Y-34954400I-51000J0D01*
G01*
G37*
G36*
G01*
X202698750Y-32754400D02*
X202198750Y-32754400D01*
G75*
G02*
X202147750Y-32703400I0J51000D01*
G01*
X202147750Y-32203400D01*
G75*
G02*
X202198750Y-32152400I51000J0D01*
G01*
X202698750Y-32152400D01*
G75*
G02*
X202749750Y-32203400I0J-51000D01*
G01*
X202749750Y-32703400D01*
G75*
G02*
X202698750Y-32754400I-51000J0D01*
G01*
G37*
G36*
G01*
X202698750Y-34954400D02*
X202198750Y-34954400D01*
G75*
G02*
X202147750Y-34903400I0J51000D01*
G01*
X202147750Y-34403400D01*
G75*
G02*
X202198750Y-34352400I51000J0D01*
G01*
X202698750Y-34352400D01*
G75*
G02*
X202749750Y-34403400I0J-51000D01*
G01*
X202749750Y-34903400D01*
G75*
G02*
X202698750Y-34954400I-51000J0D01*
G01*
G37*
G36*
G01*
X183648750Y-32754400D02*
X183148750Y-32754400D01*
G75*
G02*
X183097750Y-32703400I0J51000D01*
G01*
X183097750Y-32203400D01*
G75*
G02*
X183148750Y-32152400I51000J0D01*
G01*
X183648750Y-32152400D01*
G75*
G02*
X183699750Y-32203400I0J-51000D01*
G01*
X183699750Y-32703400D01*
G75*
G02*
X183648750Y-32754400I-51000J0D01*
G01*
G37*
G36*
G01*
X183648750Y-34954400D02*
X183148750Y-34954400D01*
G75*
G02*
X183097750Y-34903400I0J51000D01*
G01*
X183097750Y-34403400D01*
G75*
G02*
X183148750Y-34352400I51000J0D01*
G01*
X183648750Y-34352400D01*
G75*
G02*
X183699750Y-34403400I0J-51000D01*
G01*
X183699750Y-34903400D01*
G75*
G02*
X183648750Y-34954400I-51000J0D01*
G01*
G37*
G36*
G01*
X164598750Y-32754400D02*
X164098750Y-32754400D01*
G75*
G02*
X164047750Y-32703400I0J51000D01*
G01*
X164047750Y-32203400D01*
G75*
G02*
X164098750Y-32152400I51000J0D01*
G01*
X164598750Y-32152400D01*
G75*
G02*
X164649750Y-32203400I0J-51000D01*
G01*
X164649750Y-32703400D01*
G75*
G02*
X164598750Y-32754400I-51000J0D01*
G01*
G37*
G36*
G01*
X164598750Y-34954400D02*
X164098750Y-34954400D01*
G75*
G02*
X164047750Y-34903400I0J51000D01*
G01*
X164047750Y-34403400D01*
G75*
G02*
X164098750Y-34352400I51000J0D01*
G01*
X164598750Y-34352400D01*
G75*
G02*
X164649750Y-34403400I0J-51000D01*
G01*
X164649750Y-34903400D01*
G75*
G02*
X164598750Y-34954400I-51000J0D01*
G01*
G37*
G36*
G01*
X145548750Y-32754400D02*
X145048750Y-32754400D01*
G75*
G02*
X144997750Y-32703400I0J51000D01*
G01*
X144997750Y-32203400D01*
G75*
G02*
X145048750Y-32152400I51000J0D01*
G01*
X145548750Y-32152400D01*
G75*
G02*
X145599750Y-32203400I0J-51000D01*
G01*
X145599750Y-32703400D01*
G75*
G02*
X145548750Y-32754400I-51000J0D01*
G01*
G37*
G36*
G01*
X145548750Y-34954400D02*
X145048750Y-34954400D01*
G75*
G02*
X144997750Y-34903400I0J51000D01*
G01*
X144997750Y-34403400D01*
G75*
G02*
X145048750Y-34352400I51000J0D01*
G01*
X145548750Y-34352400D01*
G75*
G02*
X145599750Y-34403400I0J-51000D01*
G01*
X145599750Y-34903400D01*
G75*
G02*
X145548750Y-34954400I-51000J0D01*
G01*
G37*
G36*
G01*
X126498750Y-32754400D02*
X125998750Y-32754400D01*
G75*
G02*
X125947750Y-32703400I0J51000D01*
G01*
X125947750Y-32203400D01*
G75*
G02*
X125998750Y-32152400I51000J0D01*
G01*
X126498750Y-32152400D01*
G75*
G02*
X126549750Y-32203400I0J-51000D01*
G01*
X126549750Y-32703400D01*
G75*
G02*
X126498750Y-32754400I-51000J0D01*
G01*
G37*
G36*
G01*
X126498750Y-34954400D02*
X125998750Y-34954400D01*
G75*
G02*
X125947750Y-34903400I0J51000D01*
G01*
X125947750Y-34403400D01*
G75*
G02*
X125998750Y-34352400I51000J0D01*
G01*
X126498750Y-34352400D01*
G75*
G02*
X126549750Y-34403400I0J-51000D01*
G01*
X126549750Y-34903400D01*
G75*
G02*
X126498750Y-34954400I-51000J0D01*
G01*
G37*
G36*
G01*
X105067500Y-32754400D02*
X104567500Y-32754400D01*
G75*
G02*
X104516500Y-32703400I0J51000D01*
G01*
X104516500Y-32203400D01*
G75*
G02*
X104567500Y-32152400I51000J0D01*
G01*
X105067500Y-32152400D01*
G75*
G02*
X105118500Y-32203400I0J-51000D01*
G01*
X105118500Y-32703400D01*
G75*
G02*
X105067500Y-32754400I-51000J0D01*
G01*
G37*
G36*
G01*
X105067500Y-34954400D02*
X104567500Y-34954400D01*
G75*
G02*
X104516500Y-34903400I0J51000D01*
G01*
X104516500Y-34403400D01*
G75*
G02*
X104567500Y-34352400I51000J0D01*
G01*
X105067500Y-34352400D01*
G75*
G02*
X105118500Y-34403400I0J-51000D01*
G01*
X105118500Y-34903400D01*
G75*
G02*
X105067500Y-34954400I-51000J0D01*
G01*
G37*
G36*
G01*
X83636250Y-32754400D02*
X83136250Y-32754400D01*
G75*
G02*
X83085250Y-32703400I0J51000D01*
G01*
X83085250Y-32203400D01*
G75*
G02*
X83136250Y-32152400I51000J0D01*
G01*
X83636250Y-32152400D01*
G75*
G02*
X83687250Y-32203400I0J-51000D01*
G01*
X83687250Y-32703400D01*
G75*
G02*
X83636250Y-32754400I-51000J0D01*
G01*
G37*
G36*
G01*
X83636250Y-34954400D02*
X83136250Y-34954400D01*
G75*
G02*
X83085250Y-34903400I0J51000D01*
G01*
X83085250Y-34403400D01*
G75*
G02*
X83136250Y-34352400I51000J0D01*
G01*
X83636250Y-34352400D01*
G75*
G02*
X83687250Y-34403400I0J-51000D01*
G01*
X83687250Y-34903400D01*
G75*
G02*
X83636250Y-34954400I-51000J0D01*
G01*
G37*
G36*
G01*
X64586250Y-32754400D02*
X64086250Y-32754400D01*
G75*
G02*
X64035250Y-32703400I0J51000D01*
G01*
X64035250Y-32203400D01*
G75*
G02*
X64086250Y-32152400I51000J0D01*
G01*
X64586250Y-32152400D01*
G75*
G02*
X64637250Y-32203400I0J-51000D01*
G01*
X64637250Y-32703400D01*
G75*
G02*
X64586250Y-32754400I-51000J0D01*
G01*
G37*
G36*
G01*
X64586250Y-34954400D02*
X64086250Y-34954400D01*
G75*
G02*
X64035250Y-34903400I0J51000D01*
G01*
X64035250Y-34403400D01*
G75*
G02*
X64086250Y-34352400I51000J0D01*
G01*
X64586250Y-34352400D01*
G75*
G02*
X64637250Y-34403400I0J-51000D01*
G01*
X64637250Y-34903400D01*
G75*
G02*
X64586250Y-34954400I-51000J0D01*
G01*
G37*
G36*
G01*
X45536250Y-32754400D02*
X45036250Y-32754400D01*
G75*
G02*
X44985250Y-32703400I0J51000D01*
G01*
X44985250Y-32203400D01*
G75*
G02*
X45036250Y-32152400I51000J0D01*
G01*
X45536250Y-32152400D01*
G75*
G02*
X45587250Y-32203400I0J-51000D01*
G01*
X45587250Y-32703400D01*
G75*
G02*
X45536250Y-32754400I-51000J0D01*
G01*
G37*
G36*
G01*
X45536250Y-34954400D02*
X45036250Y-34954400D01*
G75*
G02*
X44985250Y-34903400I0J51000D01*
G01*
X44985250Y-34403400D01*
G75*
G02*
X45036250Y-34352400I51000J0D01*
G01*
X45536250Y-34352400D01*
G75*
G02*
X45587250Y-34403400I0J-51000D01*
G01*
X45587250Y-34903400D01*
G75*
G02*
X45536250Y-34954400I-51000J0D01*
G01*
G37*
G36*
G01*
X26486250Y-32754400D02*
X25986250Y-32754400D01*
G75*
G02*
X25935250Y-32703400I0J51000D01*
G01*
X25935250Y-32203400D01*
G75*
G02*
X25986250Y-32152400I51000J0D01*
G01*
X26486250Y-32152400D01*
G75*
G02*
X26537250Y-32203400I0J-51000D01*
G01*
X26537250Y-32703400D01*
G75*
G02*
X26486250Y-32754400I-51000J0D01*
G01*
G37*
G36*
G01*
X26486250Y-34954400D02*
X25986250Y-34954400D01*
G75*
G02*
X25935250Y-34903400I0J51000D01*
G01*
X25935250Y-34403400D01*
G75*
G02*
X25986250Y-34352400I51000J0D01*
G01*
X26486250Y-34352400D01*
G75*
G02*
X26537250Y-34403400I0J-51000D01*
G01*
X26537250Y-34903400D01*
G75*
G02*
X26486250Y-34954400I-51000J0D01*
G01*
G37*
G36*
G01*
X348705450Y-33845400D02*
X347394250Y-33845400D01*
G75*
G02*
X347123850Y-33575000I0J270400D01*
G01*
X347123850Y-32763800D01*
G75*
G02*
X347394250Y-32493400I270400J0D01*
G01*
X348705450Y-32493400D01*
G75*
G02*
X348975850Y-32763800I0J-270400D01*
G01*
X348975850Y-33575000D01*
G75*
G02*
X348705450Y-33845400I-270400J0D01*
G01*
G37*
G36*
G01*
X348705450Y-36645400D02*
X347394250Y-36645400D01*
G75*
G02*
X347123850Y-36375000I0J270400D01*
G01*
X347123850Y-35563800D01*
G75*
G02*
X347394250Y-35293400I270400J0D01*
G01*
X348705450Y-35293400D01*
G75*
G02*
X348975850Y-35563800I0J-270400D01*
G01*
X348975850Y-36375000D01*
G75*
G02*
X348705450Y-36645400I-270400J0D01*
G01*
G37*
G36*
G01*
X200857250Y-85913000D02*
X200857250Y-84813000D01*
G75*
G02*
X200908250Y-84762000I51000J0D01*
G01*
X202708250Y-84762000D01*
G75*
G02*
X202759250Y-84813000I0J-51000D01*
G01*
X202759250Y-85913000D01*
G75*
G02*
X202708250Y-85964000I-51000J0D01*
G01*
X200908250Y-85964000D01*
G75*
G02*
X200857250Y-85913000I0J51000D01*
G01*
G37*
G36*
G01*
X207057250Y-89613000D02*
X207057250Y-88513000D01*
G75*
G02*
X207108250Y-88462000I51000J0D01*
G01*
X208908250Y-88462000D01*
G75*
G02*
X208959250Y-88513000I0J-51000D01*
G01*
X208959250Y-89613000D01*
G75*
G02*
X208908250Y-89664000I-51000J0D01*
G01*
X207108250Y-89664000D01*
G75*
G02*
X207057250Y-89613000I0J51000D01*
G01*
G37*
G36*
G01*
X200857250Y-89613000D02*
X200857250Y-88513000D01*
G75*
G02*
X200908250Y-88462000I51000J0D01*
G01*
X202708250Y-88462000D01*
G75*
G02*
X202759250Y-88513000I0J-51000D01*
G01*
X202759250Y-89613000D01*
G75*
G02*
X202708250Y-89664000I-51000J0D01*
G01*
X200908250Y-89664000D01*
G75*
G02*
X200857250Y-89613000I0J51000D01*
G01*
G37*
G36*
G01*
X207057250Y-85913000D02*
X207057250Y-84813000D01*
G75*
G02*
X207108250Y-84762000I51000J0D01*
G01*
X208908250Y-84762000D01*
G75*
G02*
X208959250Y-84813000I0J-51000D01*
G01*
X208959250Y-85913000D01*
G75*
G02*
X208908250Y-85964000I-51000J0D01*
G01*
X207108250Y-85964000D01*
G75*
G02*
X207057250Y-85913000I0J51000D01*
G01*
G37*
G36*
G01*
X161413850Y-99544801D02*
X161413850Y-98344799D01*
G75*
G02*
X161464849Y-98293800I50999J0D01*
G01*
X162864851Y-98293800D01*
G75*
G02*
X162915850Y-98344799I0J-50999D01*
G01*
X162915850Y-99544801D01*
G75*
G02*
X162864851Y-99595800I-50999J0D01*
G01*
X161464849Y-99595800D01*
G75*
G02*
X161413850Y-99544801I0J50999D01*
G01*
G37*
G36*
G01*
X163613850Y-99544801D02*
X163613850Y-98344799D01*
G75*
G02*
X163664849Y-98293800I50999J0D01*
G01*
X165064851Y-98293800D01*
G75*
G02*
X165115850Y-98344799I0J-50999D01*
G01*
X165115850Y-99544801D01*
G75*
G02*
X165064851Y-99595800I-50999J0D01*
G01*
X163664849Y-99595800D01*
G75*
G02*
X163613850Y-99544801I0J50999D01*
G01*
G37*
G36*
G01*
X163613850Y-97844801D02*
X163613850Y-96644799D01*
G75*
G02*
X163664849Y-96593800I50999J0D01*
G01*
X165064851Y-96593800D01*
G75*
G02*
X165115850Y-96644799I0J-50999D01*
G01*
X165115850Y-97844801D01*
G75*
G02*
X165064851Y-97895800I-50999J0D01*
G01*
X163664849Y-97895800D01*
G75*
G02*
X163613850Y-97844801I0J50999D01*
G01*
G37*
G36*
G01*
X161413850Y-97844801D02*
X161413850Y-96644799D01*
G75*
G02*
X161464849Y-96593800I50999J0D01*
G01*
X162864851Y-96593800D01*
G75*
G02*
X162915850Y-96644799I0J-50999D01*
G01*
X162915850Y-97844801D01*
G75*
G02*
X162864851Y-97895800I-50999J0D01*
G01*
X161464849Y-97895800D01*
G75*
G02*
X161413850Y-97844801I0J50999D01*
G01*
G37*
G36*
G01*
X172973850Y-84118800D02*
X172973850Y-89718800D01*
G75*
G02*
X172922850Y-89769800I-51000J0D01*
G01*
X167322850Y-89769800D01*
G75*
G02*
X167271850Y-89718800I0J51000D01*
G01*
X167271850Y-84118800D01*
G75*
G02*
X167322850Y-84067800I51000J0D01*
G01*
X172922850Y-84067800D01*
G75*
G02*
X172973850Y-84118800I0J-51000D01*
G01*
G37*
G36*
G01*
X173048850Y-83080800D02*
X173048850Y-83881800D01*
G75*
G02*
X172960850Y-83969800I-88000J0D01*
G01*
X172784850Y-83969800D01*
G75*
G02*
X172696850Y-83881800I0J88000D01*
G01*
X172696850Y-83080800D01*
G75*
G02*
X172784850Y-82992800I88000J0D01*
G01*
X172960850Y-82992800D01*
G75*
G02*
X173048850Y-83080800I0J-88000D01*
G01*
G37*
G36*
G01*
X172548850Y-83080800D02*
X172548850Y-83881800D01*
G75*
G02*
X172460850Y-83969800I-88000J0D01*
G01*
X172284850Y-83969800D01*
G75*
G02*
X172196850Y-83881800I0J88000D01*
G01*
X172196850Y-83080800D01*
G75*
G02*
X172284850Y-82992800I88000J0D01*
G01*
X172460850Y-82992800D01*
G75*
G02*
X172548850Y-83080800I0J-88000D01*
G01*
G37*
G36*
G01*
X172048850Y-83080800D02*
X172048850Y-83881800D01*
G75*
G02*
X171960850Y-83969800I-88000J0D01*
G01*
X171784850Y-83969800D01*
G75*
G02*
X171696850Y-83881800I0J88000D01*
G01*
X171696850Y-83080800D01*
G75*
G02*
X171784850Y-82992800I88000J0D01*
G01*
X171960850Y-82992800D01*
G75*
G02*
X172048850Y-83080800I0J-88000D01*
G01*
G37*
G36*
G01*
X171548850Y-83080800D02*
X171548850Y-83881800D01*
G75*
G02*
X171460850Y-83969800I-88000J0D01*
G01*
X171284850Y-83969800D01*
G75*
G02*
X171196850Y-83881800I0J88000D01*
G01*
X171196850Y-83080800D01*
G75*
G02*
X171284850Y-82992800I88000J0D01*
G01*
X171460850Y-82992800D01*
G75*
G02*
X171548850Y-83080800I0J-88000D01*
G01*
G37*
G36*
G01*
X171048850Y-83080800D02*
X171048850Y-83881800D01*
G75*
G02*
X170960850Y-83969800I-88000J0D01*
G01*
X170784850Y-83969800D01*
G75*
G02*
X170696850Y-83881800I0J88000D01*
G01*
X170696850Y-83080800D01*
G75*
G02*
X170784850Y-82992800I88000J0D01*
G01*
X170960850Y-82992800D01*
G75*
G02*
X171048850Y-83080800I0J-88000D01*
G01*
G37*
G36*
G01*
X170548850Y-83080800D02*
X170548850Y-83881800D01*
G75*
G02*
X170460850Y-83969800I-88000J0D01*
G01*
X170284850Y-83969800D01*
G75*
G02*
X170196850Y-83881800I0J88000D01*
G01*
X170196850Y-83080800D01*
G75*
G02*
X170284850Y-82992800I88000J0D01*
G01*
X170460850Y-82992800D01*
G75*
G02*
X170548850Y-83080800I0J-88000D01*
G01*
G37*
G36*
G01*
X170048850Y-83080800D02*
X170048850Y-83881800D01*
G75*
G02*
X169960850Y-83969800I-88000J0D01*
G01*
X169784850Y-83969800D01*
G75*
G02*
X169696850Y-83881800I0J88000D01*
G01*
X169696850Y-83080800D01*
G75*
G02*
X169784850Y-82992800I88000J0D01*
G01*
X169960850Y-82992800D01*
G75*
G02*
X170048850Y-83080800I0J-88000D01*
G01*
G37*
G36*
G01*
X169548850Y-83080800D02*
X169548850Y-83881800D01*
G75*
G02*
X169460850Y-83969800I-88000J0D01*
G01*
X169284850Y-83969800D01*
G75*
G02*
X169196850Y-83881800I0J88000D01*
G01*
X169196850Y-83080800D01*
G75*
G02*
X169284850Y-82992800I88000J0D01*
G01*
X169460850Y-82992800D01*
G75*
G02*
X169548850Y-83080800I0J-88000D01*
G01*
G37*
G36*
G01*
X169048850Y-83080800D02*
X169048850Y-83881800D01*
G75*
G02*
X168960850Y-83969800I-88000J0D01*
G01*
X168784850Y-83969800D01*
G75*
G02*
X168696850Y-83881800I0J88000D01*
G01*
X168696850Y-83080800D01*
G75*
G02*
X168784850Y-82992800I88000J0D01*
G01*
X168960850Y-82992800D01*
G75*
G02*
X169048850Y-83080800I0J-88000D01*
G01*
G37*
G36*
G01*
X168548850Y-83080800D02*
X168548850Y-83881800D01*
G75*
G02*
X168460850Y-83969800I-88000J0D01*
G01*
X168284850Y-83969800D01*
G75*
G02*
X168196850Y-83881800I0J88000D01*
G01*
X168196850Y-83080800D01*
G75*
G02*
X168284850Y-82992800I88000J0D01*
G01*
X168460850Y-82992800D01*
G75*
G02*
X168548850Y-83080800I0J-88000D01*
G01*
G37*
G36*
G01*
X168048850Y-83080800D02*
X168048850Y-83881800D01*
G75*
G02*
X167960850Y-83969800I-88000J0D01*
G01*
X167784850Y-83969800D01*
G75*
G02*
X167696850Y-83881800I0J88000D01*
G01*
X167696850Y-83080800D01*
G75*
G02*
X167784850Y-82992800I88000J0D01*
G01*
X167960850Y-82992800D01*
G75*
G02*
X168048850Y-83080800I0J-88000D01*
G01*
G37*
G36*
G01*
X167548850Y-83080800D02*
X167548850Y-83881800D01*
G75*
G02*
X167460850Y-83969800I-88000J0D01*
G01*
X167284850Y-83969800D01*
G75*
G02*
X167196850Y-83881800I0J88000D01*
G01*
X167196850Y-83080800D01*
G75*
G02*
X167284850Y-82992800I88000J0D01*
G01*
X167460850Y-82992800D01*
G75*
G02*
X167548850Y-83080800I0J-88000D01*
G01*
G37*
G36*
G01*
X167173850Y-84080800D02*
X167173850Y-84256800D01*
G75*
G02*
X167085850Y-84344800I-88000J0D01*
G01*
X166284850Y-84344800D01*
G75*
G02*
X166196850Y-84256800I0J88000D01*
G01*
X166196850Y-84080800D01*
G75*
G02*
X166284850Y-83992800I88000J0D01*
G01*
X167085850Y-83992800D01*
G75*
G02*
X167173850Y-84080800I0J-88000D01*
G01*
G37*
G36*
G01*
X167173850Y-84580800D02*
X167173850Y-84756800D01*
G75*
G02*
X167085850Y-84844800I-88000J0D01*
G01*
X166284850Y-84844800D01*
G75*
G02*
X166196850Y-84756800I0J88000D01*
G01*
X166196850Y-84580800D01*
G75*
G02*
X166284850Y-84492800I88000J0D01*
G01*
X167085850Y-84492800D01*
G75*
G02*
X167173850Y-84580800I0J-88000D01*
G01*
G37*
G36*
G01*
X167173850Y-85080800D02*
X167173850Y-85256800D01*
G75*
G02*
X167085850Y-85344800I-88000J0D01*
G01*
X166284850Y-85344800D01*
G75*
G02*
X166196850Y-85256800I0J88000D01*
G01*
X166196850Y-85080800D01*
G75*
G02*
X166284850Y-84992800I88000J0D01*
G01*
X167085850Y-84992800D01*
G75*
G02*
X167173850Y-85080800I0J-88000D01*
G01*
G37*
G36*
G01*
X167173850Y-85580800D02*
X167173850Y-85756800D01*
G75*
G02*
X167085850Y-85844800I-88000J0D01*
G01*
X166284850Y-85844800D01*
G75*
G02*
X166196850Y-85756800I0J88000D01*
G01*
X166196850Y-85580800D01*
G75*
G02*
X166284850Y-85492800I88000J0D01*
G01*
X167085850Y-85492800D01*
G75*
G02*
X167173850Y-85580800I0J-88000D01*
G01*
G37*
G36*
G01*
X167173850Y-86080800D02*
X167173850Y-86256800D01*
G75*
G02*
X167085850Y-86344800I-88000J0D01*
G01*
X166284850Y-86344800D01*
G75*
G02*
X166196850Y-86256800I0J88000D01*
G01*
X166196850Y-86080800D01*
G75*
G02*
X166284850Y-85992800I88000J0D01*
G01*
X167085850Y-85992800D01*
G75*
G02*
X167173850Y-86080800I0J-88000D01*
G01*
G37*
G36*
G01*
X167173850Y-86580800D02*
X167173850Y-86756800D01*
G75*
G02*
X167085850Y-86844800I-88000J0D01*
G01*
X166284850Y-86844800D01*
G75*
G02*
X166196850Y-86756800I0J88000D01*
G01*
X166196850Y-86580800D01*
G75*
G02*
X166284850Y-86492800I88000J0D01*
G01*
X167085850Y-86492800D01*
G75*
G02*
X167173850Y-86580800I0J-88000D01*
G01*
G37*
G36*
G01*
X167173850Y-87080800D02*
X167173850Y-87256800D01*
G75*
G02*
X167085850Y-87344800I-88000J0D01*
G01*
X166284850Y-87344800D01*
G75*
G02*
X166196850Y-87256800I0J88000D01*
G01*
X166196850Y-87080800D01*
G75*
G02*
X166284850Y-86992800I88000J0D01*
G01*
X167085850Y-86992800D01*
G75*
G02*
X167173850Y-87080800I0J-88000D01*
G01*
G37*
G36*
G01*
X167173850Y-87580800D02*
X167173850Y-87756800D01*
G75*
G02*
X167085850Y-87844800I-88000J0D01*
G01*
X166284850Y-87844800D01*
G75*
G02*
X166196850Y-87756800I0J88000D01*
G01*
X166196850Y-87580800D01*
G75*
G02*
X166284850Y-87492800I88000J0D01*
G01*
X167085850Y-87492800D01*
G75*
G02*
X167173850Y-87580800I0J-88000D01*
G01*
G37*
G36*
G01*
X167173850Y-88080800D02*
X167173850Y-88256800D01*
G75*
G02*
X167085850Y-88344800I-88000J0D01*
G01*
X166284850Y-88344800D01*
G75*
G02*
X166196850Y-88256800I0J88000D01*
G01*
X166196850Y-88080800D01*
G75*
G02*
X166284850Y-87992800I88000J0D01*
G01*
X167085850Y-87992800D01*
G75*
G02*
X167173850Y-88080800I0J-88000D01*
G01*
G37*
G36*
G01*
X167173850Y-88580800D02*
X167173850Y-88756800D01*
G75*
G02*
X167085850Y-88844800I-88000J0D01*
G01*
X166284850Y-88844800D01*
G75*
G02*
X166196850Y-88756800I0J88000D01*
G01*
X166196850Y-88580800D01*
G75*
G02*
X166284850Y-88492800I88000J0D01*
G01*
X167085850Y-88492800D01*
G75*
G02*
X167173850Y-88580800I0J-88000D01*
G01*
G37*
G36*
G01*
X167173850Y-89080800D02*
X167173850Y-89256800D01*
G75*
G02*
X167085850Y-89344800I-88000J0D01*
G01*
X166284850Y-89344800D01*
G75*
G02*
X166196850Y-89256800I0J88000D01*
G01*
X166196850Y-89080800D01*
G75*
G02*
X166284850Y-88992800I88000J0D01*
G01*
X167085850Y-88992800D01*
G75*
G02*
X167173850Y-89080800I0J-88000D01*
G01*
G37*
G36*
G01*
X167173850Y-89580800D02*
X167173850Y-89756800D01*
G75*
G02*
X167085850Y-89844800I-88000J0D01*
G01*
X166284850Y-89844800D01*
G75*
G02*
X166196850Y-89756800I0J88000D01*
G01*
X166196850Y-89580800D01*
G75*
G02*
X166284850Y-89492800I88000J0D01*
G01*
X167085850Y-89492800D01*
G75*
G02*
X167173850Y-89580800I0J-88000D01*
G01*
G37*
G36*
G01*
X167548850Y-89955800D02*
X167548850Y-90756800D01*
G75*
G02*
X167460850Y-90844800I-88000J0D01*
G01*
X167284850Y-90844800D01*
G75*
G02*
X167196850Y-90756800I0J88000D01*
G01*
X167196850Y-89955800D01*
G75*
G02*
X167284850Y-89867800I88000J0D01*
G01*
X167460850Y-89867800D01*
G75*
G02*
X167548850Y-89955800I0J-88000D01*
G01*
G37*
G36*
G01*
X168048850Y-89955800D02*
X168048850Y-90756800D01*
G75*
G02*
X167960850Y-90844800I-88000J0D01*
G01*
X167784850Y-90844800D01*
G75*
G02*
X167696850Y-90756800I0J88000D01*
G01*
X167696850Y-89955800D01*
G75*
G02*
X167784850Y-89867800I88000J0D01*
G01*
X167960850Y-89867800D01*
G75*
G02*
X168048850Y-89955800I0J-88000D01*
G01*
G37*
G36*
G01*
X168548850Y-89955800D02*
X168548850Y-90756800D01*
G75*
G02*
X168460850Y-90844800I-88000J0D01*
G01*
X168284850Y-90844800D01*
G75*
G02*
X168196850Y-90756800I0J88000D01*
G01*
X168196850Y-89955800D01*
G75*
G02*
X168284850Y-89867800I88000J0D01*
G01*
X168460850Y-89867800D01*
G75*
G02*
X168548850Y-89955800I0J-88000D01*
G01*
G37*
G36*
G01*
X169048850Y-89955800D02*
X169048850Y-90756800D01*
G75*
G02*
X168960850Y-90844800I-88000J0D01*
G01*
X168784850Y-90844800D01*
G75*
G02*
X168696850Y-90756800I0J88000D01*
G01*
X168696850Y-89955800D01*
G75*
G02*
X168784850Y-89867800I88000J0D01*
G01*
X168960850Y-89867800D01*
G75*
G02*
X169048850Y-89955800I0J-88000D01*
G01*
G37*
G36*
G01*
X169548850Y-89955800D02*
X169548850Y-90756800D01*
G75*
G02*
X169460850Y-90844800I-88000J0D01*
G01*
X169284850Y-90844800D01*
G75*
G02*
X169196850Y-90756800I0J88000D01*
G01*
X169196850Y-89955800D01*
G75*
G02*
X169284850Y-89867800I88000J0D01*
G01*
X169460850Y-89867800D01*
G75*
G02*
X169548850Y-89955800I0J-88000D01*
G01*
G37*
G36*
G01*
X170048850Y-89955800D02*
X170048850Y-90756800D01*
G75*
G02*
X169960850Y-90844800I-88000J0D01*
G01*
X169784850Y-90844800D01*
G75*
G02*
X169696850Y-90756800I0J88000D01*
G01*
X169696850Y-89955800D01*
G75*
G02*
X169784850Y-89867800I88000J0D01*
G01*
X169960850Y-89867800D01*
G75*
G02*
X170048850Y-89955800I0J-88000D01*
G01*
G37*
G36*
G01*
X170548850Y-89955800D02*
X170548850Y-90756800D01*
G75*
G02*
X170460850Y-90844800I-88000J0D01*
G01*
X170284850Y-90844800D01*
G75*
G02*
X170196850Y-90756800I0J88000D01*
G01*
X170196850Y-89955800D01*
G75*
G02*
X170284850Y-89867800I88000J0D01*
G01*
X170460850Y-89867800D01*
G75*
G02*
X170548850Y-89955800I0J-88000D01*
G01*
G37*
G36*
G01*
X171048850Y-89955800D02*
X171048850Y-90756800D01*
G75*
G02*
X170960850Y-90844800I-88000J0D01*
G01*
X170784850Y-90844800D01*
G75*
G02*
X170696850Y-90756800I0J88000D01*
G01*
X170696850Y-89955800D01*
G75*
G02*
X170784850Y-89867800I88000J0D01*
G01*
X170960850Y-89867800D01*
G75*
G02*
X171048850Y-89955800I0J-88000D01*
G01*
G37*
G36*
G01*
X171548850Y-89955800D02*
X171548850Y-90756800D01*
G75*
G02*
X171460850Y-90844800I-88000J0D01*
G01*
X171284850Y-90844800D01*
G75*
G02*
X171196850Y-90756800I0J88000D01*
G01*
X171196850Y-89955800D01*
G75*
G02*
X171284850Y-89867800I88000J0D01*
G01*
X171460850Y-89867800D01*
G75*
G02*
X171548850Y-89955800I0J-88000D01*
G01*
G37*
G36*
G01*
X172048850Y-89955800D02*
X172048850Y-90756800D01*
G75*
G02*
X171960850Y-90844800I-88000J0D01*
G01*
X171784850Y-90844800D01*
G75*
G02*
X171696850Y-90756800I0J88000D01*
G01*
X171696850Y-89955800D01*
G75*
G02*
X171784850Y-89867800I88000J0D01*
G01*
X171960850Y-89867800D01*
G75*
G02*
X172048850Y-89955800I0J-88000D01*
G01*
G37*
G36*
G01*
X172548850Y-89955800D02*
X172548850Y-90756800D01*
G75*
G02*
X172460850Y-90844800I-88000J0D01*
G01*
X172284850Y-90844800D01*
G75*
G02*
X172196850Y-90756800I0J88000D01*
G01*
X172196850Y-89955800D01*
G75*
G02*
X172284850Y-89867800I88000J0D01*
G01*
X172460850Y-89867800D01*
G75*
G02*
X172548850Y-89955800I0J-88000D01*
G01*
G37*
G36*
G01*
X173048850Y-89955800D02*
X173048850Y-90756800D01*
G75*
G02*
X172960850Y-90844800I-88000J0D01*
G01*
X172784850Y-90844800D01*
G75*
G02*
X172696850Y-90756800I0J88000D01*
G01*
X172696850Y-89955800D01*
G75*
G02*
X172784850Y-89867800I88000J0D01*
G01*
X172960850Y-89867800D01*
G75*
G02*
X173048850Y-89955800I0J-88000D01*
G01*
G37*
G36*
G01*
X174048850Y-89580800D02*
X174048850Y-89756800D01*
G75*
G02*
X173960850Y-89844800I-88000J0D01*
G01*
X173159850Y-89844800D01*
G75*
G02*
X173071850Y-89756800I0J88000D01*
G01*
X173071850Y-89580800D01*
G75*
G02*
X173159850Y-89492800I88000J0D01*
G01*
X173960850Y-89492800D01*
G75*
G02*
X174048850Y-89580800I0J-88000D01*
G01*
G37*
G36*
G01*
X174048850Y-89080800D02*
X174048850Y-89256800D01*
G75*
G02*
X173960850Y-89344800I-88000J0D01*
G01*
X173159850Y-89344800D01*
G75*
G02*
X173071850Y-89256800I0J88000D01*
G01*
X173071850Y-89080800D01*
G75*
G02*
X173159850Y-88992800I88000J0D01*
G01*
X173960850Y-88992800D01*
G75*
G02*
X174048850Y-89080800I0J-88000D01*
G01*
G37*
G36*
G01*
X174048850Y-88580800D02*
X174048850Y-88756800D01*
G75*
G02*
X173960850Y-88844800I-88000J0D01*
G01*
X173159850Y-88844800D01*
G75*
G02*
X173071850Y-88756800I0J88000D01*
G01*
X173071850Y-88580800D01*
G75*
G02*
X173159850Y-88492800I88000J0D01*
G01*
X173960850Y-88492800D01*
G75*
G02*
X174048850Y-88580800I0J-88000D01*
G01*
G37*
G36*
G01*
X174048850Y-88080800D02*
X174048850Y-88256800D01*
G75*
G02*
X173960850Y-88344800I-88000J0D01*
G01*
X173159850Y-88344800D01*
G75*
G02*
X173071850Y-88256800I0J88000D01*
G01*
X173071850Y-88080800D01*
G75*
G02*
X173159850Y-87992800I88000J0D01*
G01*
X173960850Y-87992800D01*
G75*
G02*
X174048850Y-88080800I0J-88000D01*
G01*
G37*
G36*
G01*
X174048850Y-87580800D02*
X174048850Y-87756800D01*
G75*
G02*
X173960850Y-87844800I-88000J0D01*
G01*
X173159850Y-87844800D01*
G75*
G02*
X173071850Y-87756800I0J88000D01*
G01*
X173071850Y-87580800D01*
G75*
G02*
X173159850Y-87492800I88000J0D01*
G01*
X173960850Y-87492800D01*
G75*
G02*
X174048850Y-87580800I0J-88000D01*
G01*
G37*
G36*
G01*
X174048850Y-87080800D02*
X174048850Y-87256800D01*
G75*
G02*
X173960850Y-87344800I-88000J0D01*
G01*
X173159850Y-87344800D01*
G75*
G02*
X173071850Y-87256800I0J88000D01*
G01*
X173071850Y-87080800D01*
G75*
G02*
X173159850Y-86992800I88000J0D01*
G01*
X173960850Y-86992800D01*
G75*
G02*
X174048850Y-87080800I0J-88000D01*
G01*
G37*
G36*
G01*
X174048850Y-86580800D02*
X174048850Y-86756800D01*
G75*
G02*
X173960850Y-86844800I-88000J0D01*
G01*
X173159850Y-86844800D01*
G75*
G02*
X173071850Y-86756800I0J88000D01*
G01*
X173071850Y-86580800D01*
G75*
G02*
X173159850Y-86492800I88000J0D01*
G01*
X173960850Y-86492800D01*
G75*
G02*
X174048850Y-86580800I0J-88000D01*
G01*
G37*
G36*
G01*
X174048850Y-86080800D02*
X174048850Y-86256800D01*
G75*
G02*
X173960850Y-86344800I-88000J0D01*
G01*
X173159850Y-86344800D01*
G75*
G02*
X173071850Y-86256800I0J88000D01*
G01*
X173071850Y-86080800D01*
G75*
G02*
X173159850Y-85992800I88000J0D01*
G01*
X173960850Y-85992800D01*
G75*
G02*
X174048850Y-86080800I0J-88000D01*
G01*
G37*
G36*
G01*
X174048850Y-85580800D02*
X174048850Y-85756800D01*
G75*
G02*
X173960850Y-85844800I-88000J0D01*
G01*
X173159850Y-85844800D01*
G75*
G02*
X173071850Y-85756800I0J88000D01*
G01*
X173071850Y-85580800D01*
G75*
G02*
X173159850Y-85492800I88000J0D01*
G01*
X173960850Y-85492800D01*
G75*
G02*
X174048850Y-85580800I0J-88000D01*
G01*
G37*
G36*
G01*
X174048850Y-85080800D02*
X174048850Y-85256800D01*
G75*
G02*
X173960850Y-85344800I-88000J0D01*
G01*
X173159850Y-85344800D01*
G75*
G02*
X173071850Y-85256800I0J88000D01*
G01*
X173071850Y-85080800D01*
G75*
G02*
X173159850Y-84992800I88000J0D01*
G01*
X173960850Y-84992800D01*
G75*
G02*
X174048850Y-85080800I0J-88000D01*
G01*
G37*
G36*
G01*
X174048850Y-84580800D02*
X174048850Y-84756800D01*
G75*
G02*
X173960850Y-84844800I-88000J0D01*
G01*
X173159850Y-84844800D01*
G75*
G02*
X173071850Y-84756800I0J88000D01*
G01*
X173071850Y-84580800D01*
G75*
G02*
X173159850Y-84492800I88000J0D01*
G01*
X173960850Y-84492800D01*
G75*
G02*
X174048850Y-84580800I0J-88000D01*
G01*
G37*
G36*
G01*
X174048850Y-84080800D02*
X174048850Y-84256800D01*
G75*
G02*
X173960850Y-84344800I-88000J0D01*
G01*
X173159850Y-84344800D01*
G75*
G02*
X173071850Y-84256800I0J88000D01*
G01*
X173071850Y-84080800D01*
G75*
G02*
X173159850Y-83992800I88000J0D01*
G01*
X173960850Y-83992800D01*
G75*
G02*
X174048850Y-84080800I0J-88000D01*
G01*
G37*
G36*
G01*
X156740822Y-98383200D02*
X157698478Y-98383200D01*
G75*
G02*
X157970650Y-98655372I0J-272172D01*
G01*
X157970650Y-99363028D01*
G75*
G02*
X157698478Y-99635200I-272172J0D01*
G01*
X156740822Y-99635200D01*
G75*
G02*
X156468650Y-99363028I0J272172D01*
G01*
X156468650Y-98655372D01*
G75*
G02*
X156740822Y-98383200I272172J0D01*
G01*
G37*
G36*
G01*
X156740822Y-96333200D02*
X157698478Y-96333200D01*
G75*
G02*
X157970650Y-96605372I0J-272172D01*
G01*
X157970650Y-97313028D01*
G75*
G02*
X157698478Y-97585200I-272172J0D01*
G01*
X156740822Y-97585200D01*
G75*
G02*
X156468650Y-97313028I0J272172D01*
G01*
X156468650Y-96605372D01*
G75*
G02*
X156740822Y-96333200I272172J0D01*
G01*
G37*
D12*
X292301250Y-48895000D03*
X282141250Y-48895000D03*
D11*
X287221250Y-48895000D03*
D13*
X283411250Y-46355000D03*
X289761250Y-43815000D03*
G36*
G01*
X358344950Y-22228772D02*
X358344950Y-23186428D01*
G75*
G02*
X358072778Y-23458600I-272172J0D01*
G01*
X357365122Y-23458600D01*
G75*
G02*
X357092950Y-23186428I0J272172D01*
G01*
X357092950Y-22228772D01*
G75*
G02*
X357365122Y-21956600I272172J0D01*
G01*
X358072778Y-21956600D01*
G75*
G02*
X358344950Y-22228772I0J-272172D01*
G01*
G37*
G36*
G01*
X356294950Y-22228772D02*
X356294950Y-23186428D01*
G75*
G02*
X356022778Y-23458600I-272172J0D01*
G01*
X355315122Y-23458600D01*
G75*
G02*
X355042950Y-23186428I0J272172D01*
G01*
X355042950Y-22228772D01*
G75*
G02*
X355315122Y-21956600I272172J0D01*
G01*
X356022778Y-21956600D01*
G75*
G02*
X356294950Y-22228772I0J-272172D01*
G01*
G37*
G36*
G01*
X336662350Y-23643628D02*
X336662350Y-22685972D01*
G75*
G02*
X336934522Y-22413800I272172J0D01*
G01*
X337642178Y-22413800D01*
G75*
G02*
X337914350Y-22685972I0J-272172D01*
G01*
X337914350Y-23643628D01*
G75*
G02*
X337642178Y-23915800I-272172J0D01*
G01*
X336934522Y-23915800D01*
G75*
G02*
X336662350Y-23643628I0J272172D01*
G01*
G37*
G36*
G01*
X338712350Y-23643628D02*
X338712350Y-22685972D01*
G75*
G02*
X338984522Y-22413800I272172J0D01*
G01*
X339692178Y-22413800D01*
G75*
G02*
X339964350Y-22685972I0J-272172D01*
G01*
X339964350Y-23643628D01*
G75*
G02*
X339692178Y-23915800I-272172J0D01*
G01*
X338984522Y-23915800D01*
G75*
G02*
X338712350Y-23643628I0J272172D01*
G01*
G37*
D15*
X347909550Y-24286400D03*
X346209550Y-24286400D03*
X347059550Y-24286400D03*
X348759550Y-24286400D03*
X349609550Y-24286400D03*
X350459550Y-24286400D03*
X351309550Y-24286400D03*
X352159550Y-24286400D03*
X346209550Y-22961400D03*
X347064550Y-22961400D03*
X347914550Y-22961400D03*
X348764550Y-22961400D03*
X349614550Y-22961400D03*
X350464550Y-22961400D03*
X351314550Y-22961400D03*
X352164550Y-22961400D03*
D16*
X344859550Y-23306400D03*
X353509550Y-23306400D03*
D17*
X344859550Y-19926400D03*
X353509550Y-19926400D03*
D12*
X137520000Y-86995000D03*
X127360000Y-86995000D03*
D11*
X132440000Y-86995000D03*
D13*
X128630000Y-84455000D03*
X134980000Y-81915000D03*
D10*
X127671250Y-60945000D03*
X103871250Y-60945000D03*
D11*
X103871250Y-76185000D03*
X127671250Y-76185000D03*
D12*
X120851250Y-67945000D03*
X110691250Y-67945000D03*
D11*
X115771250Y-67945000D03*
D13*
X111961250Y-65405000D03*
X118311250Y-62865000D03*
D12*
X116088750Y-48895000D03*
X105928750Y-48895000D03*
D11*
X111008750Y-48895000D03*
D13*
X107198750Y-46355000D03*
X113548750Y-43815000D03*
D12*
X113707500Y-29845000D03*
X103547500Y-29845000D03*
D11*
X108627500Y-29845000D03*
D13*
X104817500Y-27305000D03*
X111167500Y-24765000D03*
D12*
X230388750Y-29845000D03*
X220228750Y-29845000D03*
D11*
X225308750Y-29845000D03*
D13*
X221498750Y-27305000D03*
X227848750Y-24765000D03*
D12*
X225626250Y-86995000D03*
X215466250Y-86995000D03*
D11*
X220546250Y-86995000D03*
D13*
X216736250Y-84455000D03*
X223086250Y-81915000D03*
D10*
X201490000Y-79995000D03*
X177690000Y-79995000D03*
D11*
X177690000Y-95235000D03*
X201490000Y-95235000D03*
D12*
X194670000Y-86995000D03*
X184510000Y-86995000D03*
D11*
X189590000Y-86995000D03*
D13*
X185780000Y-84455000D03*
X192130000Y-81915000D03*
D12*
X392313750Y-86995000D03*
X382153750Y-86995000D03*
D11*
X387233750Y-86995000D03*
D13*
X383423750Y-84455000D03*
X389773750Y-81915000D03*
D12*
X392313750Y-67945000D03*
X382153750Y-67945000D03*
D11*
X387233750Y-67945000D03*
D13*
X383423750Y-65405000D03*
X389773750Y-62865000D03*
D12*
X392313750Y-48895000D03*
X382153750Y-48895000D03*
D11*
X387233750Y-48895000D03*
D13*
X383423750Y-46355000D03*
X389773750Y-43815000D03*
D12*
X392313750Y-29845000D03*
X382153750Y-29845000D03*
D11*
X387233750Y-29845000D03*
D13*
X383423750Y-27305000D03*
X389773750Y-24765000D03*
D12*
X35126250Y-29845000D03*
X24966250Y-29845000D03*
D11*
X30046250Y-29845000D03*
D13*
X26236250Y-27305000D03*
X32586250Y-24765000D03*
D12*
X54176250Y-29845000D03*
X44016250Y-29845000D03*
D11*
X49096250Y-29845000D03*
D13*
X45286250Y-27305000D03*
X51636250Y-24765000D03*
D12*
X73226250Y-29845000D03*
X63066250Y-29845000D03*
D11*
X68146250Y-29845000D03*
D13*
X64336250Y-27305000D03*
X70686250Y-24765000D03*
D12*
X92276250Y-29845000D03*
X82116250Y-29845000D03*
D11*
X87196250Y-29845000D03*
D13*
X83386250Y-27305000D03*
X89736250Y-24765000D03*
D12*
X135138750Y-29845000D03*
X124978750Y-29845000D03*
D11*
X130058750Y-29845000D03*
D13*
X126248750Y-27305000D03*
X132598750Y-24765000D03*
D12*
X154188750Y-29845000D03*
X144028750Y-29845000D03*
D11*
X149108750Y-29845000D03*
D13*
X145298750Y-27305000D03*
X151648750Y-24765000D03*
D12*
X173238750Y-29845000D03*
X163078750Y-29845000D03*
D11*
X168158750Y-29845000D03*
D13*
X164348750Y-27305000D03*
X170698750Y-24765000D03*
D12*
X192288750Y-29845000D03*
X182128750Y-29845000D03*
D11*
X187208750Y-29845000D03*
D13*
X183398750Y-27305000D03*
X189748750Y-24765000D03*
D12*
X211338750Y-29845000D03*
X201178750Y-29845000D03*
D11*
X206258750Y-29845000D03*
D13*
X202448750Y-27305000D03*
X208798750Y-24765000D03*
D12*
X249438750Y-29845000D03*
X239278750Y-29845000D03*
D11*
X244358750Y-29845000D03*
D13*
X240548750Y-27305000D03*
X246898750Y-24765000D03*
D12*
X268488750Y-29845000D03*
X258328750Y-29845000D03*
D11*
X263408750Y-29845000D03*
D13*
X259598750Y-27305000D03*
X265948750Y-24765000D03*
D12*
X287538750Y-29845000D03*
X277378750Y-29845000D03*
D11*
X282458750Y-29845000D03*
D13*
X278648750Y-27305000D03*
X284998750Y-24765000D03*
D12*
X306588750Y-29845000D03*
X296428750Y-29845000D03*
D11*
X301508750Y-29845000D03*
D13*
X297698750Y-27305000D03*
X304048750Y-24765000D03*
D12*
X325638750Y-29845000D03*
X315478750Y-29845000D03*
D11*
X320558750Y-29845000D03*
D13*
X316748750Y-27305000D03*
X323098750Y-24765000D03*
D12*
X344688750Y-29845000D03*
X334528750Y-29845000D03*
D11*
X339608750Y-29845000D03*
D13*
X335798750Y-27305000D03*
X342148750Y-24765000D03*
D12*
X35126250Y-48895000D03*
X24966250Y-48895000D03*
D11*
X30046250Y-48895000D03*
D13*
X26236250Y-46355000D03*
X32586250Y-43815000D03*
D12*
X54176250Y-48895000D03*
X44016250Y-48895000D03*
D11*
X49096250Y-48895000D03*
D13*
X45286250Y-46355000D03*
X51636250Y-43815000D03*
D12*
X73226250Y-48895000D03*
X63066250Y-48895000D03*
D11*
X68146250Y-48895000D03*
D13*
X64336250Y-46355000D03*
X70686250Y-43815000D03*
D12*
X92276250Y-48895000D03*
X82116250Y-48895000D03*
D11*
X87196250Y-48895000D03*
D13*
X83386250Y-46355000D03*
X89736250Y-43815000D03*
D12*
X139901250Y-48895000D03*
X129741250Y-48895000D03*
D11*
X134821250Y-48895000D03*
D13*
X131011250Y-46355000D03*
X137361250Y-43815000D03*
D12*
X158951250Y-48895000D03*
X148791250Y-48895000D03*
D11*
X153871250Y-48895000D03*
D13*
X150061250Y-46355000D03*
X156411250Y-43815000D03*
D12*
X178001250Y-48895000D03*
X167841250Y-48895000D03*
D11*
X172921250Y-48895000D03*
D13*
X169111250Y-46355000D03*
X175461250Y-43815000D03*
D12*
X197051250Y-48895000D03*
X186891250Y-48895000D03*
D11*
X191971250Y-48895000D03*
D13*
X188161250Y-46355000D03*
X194511250Y-43815000D03*
D12*
X216101250Y-48895000D03*
X205941250Y-48895000D03*
D11*
X211021250Y-48895000D03*
D13*
X207211250Y-46355000D03*
X213561250Y-43815000D03*
D12*
X235151250Y-48895000D03*
X224991250Y-48895000D03*
D11*
X230071250Y-48895000D03*
D13*
X226261250Y-46355000D03*
X232611250Y-43815000D03*
D12*
X254201250Y-48895000D03*
X244041250Y-48895000D03*
D11*
X249121250Y-48895000D03*
D13*
X245311250Y-46355000D03*
X251661250Y-43815000D03*
D12*
X273251250Y-48895000D03*
X263091250Y-48895000D03*
D11*
X268171250Y-48895000D03*
D13*
X264361250Y-46355000D03*
X270711250Y-43815000D03*
D12*
X311351250Y-48895000D03*
X301191250Y-48895000D03*
D11*
X306271250Y-48895000D03*
D13*
X302461250Y-46355000D03*
X308811250Y-43815000D03*
D12*
X330401250Y-48895000D03*
X320241250Y-48895000D03*
D11*
X325321250Y-48895000D03*
D13*
X321511250Y-46355000D03*
X327861250Y-43815000D03*
D12*
X35126250Y-67945000D03*
X24966250Y-67945000D03*
D11*
X30046250Y-67945000D03*
D13*
X26236250Y-65405000D03*
X32586250Y-62865000D03*
D12*
X54176250Y-67945000D03*
X44016250Y-67945000D03*
D11*
X49096250Y-67945000D03*
D13*
X45286250Y-65405000D03*
X51636250Y-62865000D03*
D12*
X73226250Y-67945000D03*
X63066250Y-67945000D03*
D11*
X68146250Y-67945000D03*
D13*
X64336250Y-65405000D03*
X70686250Y-62865000D03*
D12*
X92276250Y-67945000D03*
X82116250Y-67945000D03*
D11*
X87196250Y-67945000D03*
D13*
X83386250Y-65405000D03*
X89736250Y-62865000D03*
D12*
X149426250Y-67945000D03*
X139266250Y-67945000D03*
D11*
X144346250Y-67945000D03*
D13*
X140536250Y-65405000D03*
X146886250Y-62865000D03*
D12*
X168476250Y-67945000D03*
X158316250Y-67945000D03*
D11*
X163396250Y-67945000D03*
D13*
X159586250Y-65405000D03*
X165936250Y-62865000D03*
D12*
X187526250Y-67945000D03*
X177366250Y-67945000D03*
D11*
X182446250Y-67945000D03*
D13*
X178636250Y-65405000D03*
X184986250Y-62865000D03*
D12*
X206576250Y-67945000D03*
X196416250Y-67945000D03*
D11*
X201496250Y-67945000D03*
D13*
X197686250Y-65405000D03*
X204036250Y-62865000D03*
D12*
X225626250Y-67945000D03*
X215466250Y-67945000D03*
D11*
X220546250Y-67945000D03*
D13*
X216736250Y-65405000D03*
X223086250Y-62865000D03*
D12*
X244676250Y-67945000D03*
X234516250Y-67945000D03*
D11*
X239596250Y-67945000D03*
D13*
X235786250Y-65405000D03*
X242136250Y-62865000D03*
D12*
X263726250Y-67945000D03*
X253566250Y-67945000D03*
D11*
X258646250Y-67945000D03*
D13*
X254836250Y-65405000D03*
X261186250Y-62865000D03*
D12*
X282776250Y-67945000D03*
X272616250Y-67945000D03*
D11*
X277696250Y-67945000D03*
D13*
X273886250Y-65405000D03*
X280236250Y-62865000D03*
D12*
X301826250Y-67945000D03*
X291666250Y-67945000D03*
D11*
X296746250Y-67945000D03*
D13*
X292936250Y-65405000D03*
X299286250Y-62865000D03*
D12*
X320876250Y-67945000D03*
X310716250Y-67945000D03*
D11*
X315796250Y-67945000D03*
D13*
X311986250Y-65405000D03*
X318336250Y-62865000D03*
D12*
X342307500Y-67945000D03*
X332147500Y-67945000D03*
D11*
X337227500Y-67945000D03*
D13*
X333417500Y-65405000D03*
X339767500Y-62865000D03*
D10*
X51471250Y-79995000D03*
X27671250Y-79995000D03*
D11*
X27671250Y-95235000D03*
X51471250Y-95235000D03*
D12*
X44651250Y-86995000D03*
X34491250Y-86995000D03*
D11*
X39571250Y-86995000D03*
D13*
X35761250Y-84455000D03*
X42111250Y-81915000D03*
D12*
X73226250Y-86995000D03*
X63066250Y-86995000D03*
D11*
X68146250Y-86995000D03*
D13*
X64336250Y-84455000D03*
X70686250Y-81915000D03*
D12*
X92276250Y-86995000D03*
X82116250Y-86995000D03*
D11*
X87196250Y-86995000D03*
D13*
X83386250Y-84455000D03*
X89736250Y-81915000D03*
D12*
X113707500Y-86995000D03*
X103547500Y-86995000D03*
D11*
X108627500Y-86995000D03*
D13*
X104817500Y-84455000D03*
X111167500Y-81915000D03*
D12*
X161332500Y-86995000D03*
X151172500Y-86995000D03*
D11*
X156252500Y-86995000D03*
D13*
X152442500Y-84455000D03*
X158792500Y-81915000D03*
D12*
X297063750Y-86995000D03*
X286903750Y-86995000D03*
D11*
X291983750Y-86995000D03*
D13*
X288173750Y-84455000D03*
X294523750Y-81915000D03*
D12*
X316113750Y-86995000D03*
X305953750Y-86995000D03*
D11*
X311033750Y-86995000D03*
D13*
X307223750Y-84455000D03*
X313573750Y-81915000D03*
D12*
X335163750Y-86995000D03*
X325003750Y-86995000D03*
D11*
X330083750Y-86995000D03*
D13*
X326273750Y-84455000D03*
X332623750Y-81915000D03*
D12*
X354213750Y-86995000D03*
X344053750Y-86995000D03*
D11*
X349133750Y-86995000D03*
D13*
X345323750Y-84455000D03*
X351673750Y-81915000D03*
D12*
X373263750Y-86995000D03*
X363103750Y-86995000D03*
D11*
X368183750Y-86995000D03*
D13*
X364373750Y-84455000D03*
X370723750Y-81915000D03*
D18*
X146069050Y-83566000D03*
X143529050Y-83566000D03*
X146069050Y-86106000D03*
X143529050Y-86106000D03*
X146069050Y-88646000D03*
G36*
G01*
X142628050Y-89496000D02*
X142628050Y-87796000D01*
G75*
G02*
X142679050Y-87745000I51000J0D01*
G01*
X144379050Y-87745000D01*
G75*
G02*
X144430050Y-87796000I0J-51000D01*
G01*
X144430050Y-89496000D01*
G75*
G02*
X144379050Y-89547000I-51000J0D01*
G01*
X142679050Y-89547000D01*
G75*
G02*
X142628050Y-89496000I0J51000D01*
G01*
G37*
G36*
G01*
X161693822Y-78749000D02*
X162651478Y-78749000D01*
G75*
G02*
X162923650Y-79021172I0J-272172D01*
G01*
X162923650Y-79728828D01*
G75*
G02*
X162651478Y-80001000I-272172J0D01*
G01*
X161693822Y-80001000D01*
G75*
G02*
X161421650Y-79728828I0J272172D01*
G01*
X161421650Y-79021172D01*
G75*
G02*
X161693822Y-78749000I272172J0D01*
G01*
G37*
G36*
G01*
X161693822Y-80799000D02*
X162651478Y-80799000D01*
G75*
G02*
X162923650Y-81071172I0J-272172D01*
G01*
X162923650Y-81778828D01*
G75*
G02*
X162651478Y-82051000I-272172J0D01*
G01*
X161693822Y-82051000D01*
G75*
G02*
X161421650Y-81778828I0J272172D01*
G01*
X161421650Y-81071172D01*
G75*
G02*
X161693822Y-80799000I272172J0D01*
G01*
G37*
G36*
G01*
X351068678Y-30953600D02*
X350111022Y-30953600D01*
G75*
G02*
X349838850Y-30681428I0J272172D01*
G01*
X349838850Y-29973772D01*
G75*
G02*
X350111022Y-29701600I272172J0D01*
G01*
X351068678Y-29701600D01*
G75*
G02*
X351340850Y-29973772I0J-272172D01*
G01*
X351340850Y-30681428D01*
G75*
G02*
X351068678Y-30953600I-272172J0D01*
G01*
G37*
G36*
G01*
X351068678Y-28903600D02*
X350111022Y-28903600D01*
G75*
G02*
X349838850Y-28631428I0J272172D01*
G01*
X349838850Y-27923772D01*
G75*
G02*
X350111022Y-27651600I272172J0D01*
G01*
X351068678Y-27651600D01*
G75*
G02*
X351340850Y-27923772I0J-272172D01*
G01*
X351340850Y-28631428D01*
G75*
G02*
X351068678Y-28903600I-272172J0D01*
G01*
G37*
G36*
G01*
X349087478Y-30979000D02*
X348129822Y-30979000D01*
G75*
G02*
X347857650Y-30706828I0J272172D01*
G01*
X347857650Y-29999172D01*
G75*
G02*
X348129822Y-29727000I272172J0D01*
G01*
X349087478Y-29727000D01*
G75*
G02*
X349359650Y-29999172I0J-272172D01*
G01*
X349359650Y-30706828D01*
G75*
G02*
X349087478Y-30979000I-272172J0D01*
G01*
G37*
G36*
G01*
X349087478Y-28929000D02*
X348129822Y-28929000D01*
G75*
G02*
X347857650Y-28656828I0J272172D01*
G01*
X347857650Y-27949172D01*
G75*
G02*
X348129822Y-27677000I272172J0D01*
G01*
X349087478Y-27677000D01*
G75*
G02*
X349359650Y-27949172I0J-272172D01*
G01*
X349359650Y-28656828D01*
G75*
G02*
X349087478Y-28929000I-272172J0D01*
G01*
G37*
G36*
G01*
X197715422Y-87630000D02*
X198673078Y-87630000D01*
G75*
G02*
X198945250Y-87902172I0J-272172D01*
G01*
X198945250Y-88609828D01*
G75*
G02*
X198673078Y-88882000I-272172J0D01*
G01*
X197715422Y-88882000D01*
G75*
G02*
X197443250Y-88609828I0J272172D01*
G01*
X197443250Y-87902172D01*
G75*
G02*
X197715422Y-87630000I272172J0D01*
G01*
G37*
G36*
G01*
X197715422Y-89680000D02*
X198673078Y-89680000D01*
G75*
G02*
X198945250Y-89952172I0J-272172D01*
G01*
X198945250Y-90659828D01*
G75*
G02*
X198673078Y-90932000I-272172J0D01*
G01*
X197715422Y-90932000D01*
G75*
G02*
X197443250Y-90659828I0J272172D01*
G01*
X197443250Y-89952172D01*
G75*
G02*
X197715422Y-89680000I272172J0D01*
G01*
G37*
G36*
G01*
X180081250Y-87829428D02*
X180081250Y-86871772D01*
G75*
G02*
X180353422Y-86599600I272172J0D01*
G01*
X181061078Y-86599600D01*
G75*
G02*
X181333250Y-86871772I0J-272172D01*
G01*
X181333250Y-87829428D01*
G75*
G02*
X181061078Y-88101600I-272172J0D01*
G01*
X180353422Y-88101600D01*
G75*
G02*
X180081250Y-87829428I0J272172D01*
G01*
G37*
G36*
G01*
X178031250Y-87829428D02*
X178031250Y-86871772D01*
G75*
G02*
X178303422Y-86599600I272172J0D01*
G01*
X179011078Y-86599600D01*
G75*
G02*
X179283250Y-86871772I0J-272172D01*
G01*
X179283250Y-87829428D01*
G75*
G02*
X179011078Y-88101600I-272172J0D01*
G01*
X178303422Y-88101600D01*
G75*
G02*
X178031250Y-87829428I0J272172D01*
G01*
G37*
G36*
G01*
X168653422Y-98544600D02*
X169611078Y-98544600D01*
G75*
G02*
X169883250Y-98816772I0J-272172D01*
G01*
X169883250Y-99524428D01*
G75*
G02*
X169611078Y-99796600I-272172J0D01*
G01*
X168653422Y-99796600D01*
G75*
G02*
X168381250Y-99524428I0J272172D01*
G01*
X168381250Y-98816772D01*
G75*
G02*
X168653422Y-98544600I272172J0D01*
G01*
G37*
G36*
G01*
X168653422Y-96494600D02*
X169611078Y-96494600D01*
G75*
G02*
X169883250Y-96766772I0J-272172D01*
G01*
X169883250Y-97474428D01*
G75*
G02*
X169611078Y-97746600I-272172J0D01*
G01*
X168653422Y-97746600D01*
G75*
G02*
X168381250Y-97474428I0J272172D01*
G01*
X168381250Y-96766772D01*
G75*
G02*
X168653422Y-96494600I272172J0D01*
G01*
G37*
G36*
G01*
X173778850Y-77295972D02*
X173778850Y-78253628D01*
G75*
G02*
X173506678Y-78525800I-272172J0D01*
G01*
X172799022Y-78525800D01*
G75*
G02*
X172526850Y-78253628I0J272172D01*
G01*
X172526850Y-77295972D01*
G75*
G02*
X172799022Y-77023800I272172J0D01*
G01*
X173506678Y-77023800D01*
G75*
G02*
X173778850Y-77295972I0J-272172D01*
G01*
G37*
G36*
G01*
X175828850Y-77295972D02*
X175828850Y-78253628D01*
G75*
G02*
X175556678Y-78525800I-272172J0D01*
G01*
X174849022Y-78525800D01*
G75*
G02*
X174576850Y-78253628I0J272172D01*
G01*
X174576850Y-77295972D01*
G75*
G02*
X174849022Y-77023800I272172J0D01*
G01*
X175556678Y-77023800D01*
G75*
G02*
X175828850Y-77295972I0J-272172D01*
G01*
G37*
G36*
G01*
X160525422Y-91804600D02*
X161483078Y-91804600D01*
G75*
G02*
X161755250Y-92076772I0J-272172D01*
G01*
X161755250Y-92784428D01*
G75*
G02*
X161483078Y-93056600I-272172J0D01*
G01*
X160525422Y-93056600D01*
G75*
G02*
X160253250Y-92784428I0J272172D01*
G01*
X160253250Y-92076772D01*
G75*
G02*
X160525422Y-91804600I272172J0D01*
G01*
G37*
G36*
G01*
X160525422Y-89754600D02*
X161483078Y-89754600D01*
G75*
G02*
X161755250Y-90026772I0J-272172D01*
G01*
X161755250Y-90734428D01*
G75*
G02*
X161483078Y-91006600I-272172J0D01*
G01*
X160525422Y-91006600D01*
G75*
G02*
X160253250Y-90734428I0J272172D01*
G01*
X160253250Y-90026772D01*
G75*
G02*
X160525422Y-89754600I272172J0D01*
G01*
G37*
G36*
G01*
X165534450Y-79244228D02*
X165534450Y-78286572D01*
G75*
G02*
X165806622Y-78014400I272172J0D01*
G01*
X166514278Y-78014400D01*
G75*
G02*
X166786450Y-78286572I0J-272172D01*
G01*
X166786450Y-79244228D01*
G75*
G02*
X166514278Y-79516400I-272172J0D01*
G01*
X165806622Y-79516400D01*
G75*
G02*
X165534450Y-79244228I0J272172D01*
G01*
G37*
G36*
G01*
X163484450Y-79244228D02*
X163484450Y-78286572D01*
G75*
G02*
X163756622Y-78014400I272172J0D01*
G01*
X164464278Y-78014400D01*
G75*
G02*
X164736450Y-78286572I0J-272172D01*
G01*
X164736450Y-79244228D01*
G75*
G02*
X164464278Y-79516400I-272172J0D01*
G01*
X163756622Y-79516400D01*
G75*
G02*
X163484450Y-79244228I0J272172D01*
G01*
G37*
G36*
G01*
X173149222Y-97731800D02*
X174106878Y-97731800D01*
G75*
G02*
X174379050Y-98003972I0J-272172D01*
G01*
X174379050Y-98711628D01*
G75*
G02*
X174106878Y-98983800I-272172J0D01*
G01*
X173149222Y-98983800D01*
G75*
G02*
X172877050Y-98711628I0J272172D01*
G01*
X172877050Y-98003972D01*
G75*
G02*
X173149222Y-97731800I272172J0D01*
G01*
G37*
G36*
G01*
X173149222Y-95681800D02*
X174106878Y-95681800D01*
G75*
G02*
X174379050Y-95953972I0J-272172D01*
G01*
X174379050Y-96661628D01*
G75*
G02*
X174106878Y-96933800I-272172J0D01*
G01*
X173149222Y-96933800D01*
G75*
G02*
X172877050Y-96661628I0J272172D01*
G01*
X172877050Y-95953972D01*
G75*
G02*
X173149222Y-95681800I272172J0D01*
G01*
G37*
D19*
G36*
X167517405Y-82990810D02*
G01*
X167528401Y-82991893D01*
X167528786Y-82991969D01*
X167533460Y-82993387D01*
X167533822Y-82993537D01*
X167538123Y-82995836D01*
X167538449Y-82996054D01*
X167544746Y-83001221D01*
X167564873Y-83014670D01*
X167587147Y-83023896D01*
X167610798Y-83028600D01*
X167634904Y-83028600D01*
X167658554Y-83023895D01*
X167680828Y-83014669D01*
X167700954Y-83001221D01*
X167707251Y-82996054D01*
X167707577Y-82995836D01*
X167711878Y-82993537D01*
X167712240Y-82993387D01*
X167716914Y-82991969D01*
X167717299Y-82991893D01*
X167728295Y-82990810D01*
X167728491Y-82990800D01*
X167784850Y-82990800D01*
X167786582Y-82991800D01*
X167786582Y-82993800D01*
X167785046Y-82994790D01*
X167768077Y-82996461D01*
X167751943Y-83001356D01*
X167737076Y-83009302D01*
X167724046Y-83019996D01*
X167713352Y-83033026D01*
X167705406Y-83047893D01*
X167700511Y-83064027D01*
X167698850Y-83080894D01*
X167698850Y-83881706D01*
X167700511Y-83898573D01*
X167705406Y-83914707D01*
X167713352Y-83929574D01*
X167724046Y-83942604D01*
X167737076Y-83953298D01*
X167751943Y-83961244D01*
X167768077Y-83966139D01*
X167784944Y-83967800D01*
X167960756Y-83967800D01*
X167977623Y-83966139D01*
X167993757Y-83961244D01*
X168008624Y-83953298D01*
X168021654Y-83942604D01*
X168032348Y-83929574D01*
X168040294Y-83914707D01*
X168045189Y-83898573D01*
X168046850Y-83881706D01*
X168046850Y-83080894D01*
X168045189Y-83064027D01*
X168040294Y-83047893D01*
X168032348Y-83033026D01*
X168021654Y-83019996D01*
X168008624Y-83009302D01*
X167993757Y-83001356D01*
X167977623Y-82996461D01*
X167960654Y-82994790D01*
X167959028Y-82993625D01*
X167959224Y-82991635D01*
X167960850Y-82990800D01*
X168017209Y-82990800D01*
X168017405Y-82990810D01*
X168028401Y-82991893D01*
X168028786Y-82991969D01*
X168033460Y-82993387D01*
X168033822Y-82993537D01*
X168038123Y-82995836D01*
X168038449Y-82996054D01*
X168044746Y-83001221D01*
X168064873Y-83014670D01*
X168087147Y-83023896D01*
X168110798Y-83028600D01*
X168134904Y-83028600D01*
X168158554Y-83023895D01*
X168180828Y-83014669D01*
X168200954Y-83001221D01*
X168207251Y-82996054D01*
X168207577Y-82995836D01*
X168211878Y-82993537D01*
X168212240Y-82993387D01*
X168216914Y-82991969D01*
X168217299Y-82991893D01*
X168228295Y-82990810D01*
X168228491Y-82990800D01*
X168284850Y-82990800D01*
X168286582Y-82991800D01*
X168286582Y-82993800D01*
X168285046Y-82994790D01*
X168268077Y-82996461D01*
X168251943Y-83001356D01*
X168237076Y-83009302D01*
X168224046Y-83019996D01*
X168213352Y-83033026D01*
X168205406Y-83047893D01*
X168200511Y-83064027D01*
X168198850Y-83080894D01*
X168198850Y-83881706D01*
X168200511Y-83898573D01*
X168205406Y-83914707D01*
X168213352Y-83929574D01*
X168224046Y-83942604D01*
X168237076Y-83953298D01*
X168251943Y-83961244D01*
X168268077Y-83966139D01*
X168284944Y-83967800D01*
X168460756Y-83967800D01*
X168477623Y-83966139D01*
X168493757Y-83961244D01*
X168508624Y-83953298D01*
X168521654Y-83942604D01*
X168532348Y-83929574D01*
X168540294Y-83914707D01*
X168545189Y-83898573D01*
X168546850Y-83881706D01*
X168546850Y-83080894D01*
X168545189Y-83064027D01*
X168540294Y-83047893D01*
X168532348Y-83033026D01*
X168521654Y-83019996D01*
X168508624Y-83009302D01*
X168493757Y-83001356D01*
X168477623Y-82996461D01*
X168460654Y-82994790D01*
X168459028Y-82993625D01*
X168459224Y-82991635D01*
X168460850Y-82990800D01*
X168517209Y-82990800D01*
X168517405Y-82990810D01*
X168528401Y-82991893D01*
X168528786Y-82991969D01*
X168533460Y-82993387D01*
X168533822Y-82993537D01*
X168538123Y-82995836D01*
X168538449Y-82996054D01*
X168544746Y-83001221D01*
X168564873Y-83014670D01*
X168587147Y-83023896D01*
X168610798Y-83028600D01*
X168634904Y-83028600D01*
X168658554Y-83023895D01*
X168680828Y-83014669D01*
X168700954Y-83001221D01*
X168707251Y-82996054D01*
X168707577Y-82995836D01*
X168711878Y-82993537D01*
X168712240Y-82993387D01*
X168716914Y-82991969D01*
X168717299Y-82991893D01*
X168728295Y-82990810D01*
X168728491Y-82990800D01*
X168784850Y-82990800D01*
X168786582Y-82991800D01*
X168786582Y-82993800D01*
X168785046Y-82994790D01*
X168768077Y-82996461D01*
X168751943Y-83001356D01*
X168737076Y-83009302D01*
X168724046Y-83019996D01*
X168713352Y-83033026D01*
X168705406Y-83047893D01*
X168700511Y-83064027D01*
X168698850Y-83080894D01*
X168698850Y-83881706D01*
X168700511Y-83898573D01*
X168705406Y-83914707D01*
X168713352Y-83929574D01*
X168724046Y-83942604D01*
X168737076Y-83953298D01*
X168751943Y-83961244D01*
X168768077Y-83966139D01*
X168784944Y-83967800D01*
X168960756Y-83967800D01*
X168977623Y-83966139D01*
X168993757Y-83961244D01*
X169008624Y-83953298D01*
X169021654Y-83942604D01*
X169032348Y-83929574D01*
X169040294Y-83914707D01*
X169045189Y-83898573D01*
X169046850Y-83881706D01*
X169046850Y-83080894D01*
X169045189Y-83064027D01*
X169040294Y-83047893D01*
X169032348Y-83033026D01*
X169021654Y-83019996D01*
X169008624Y-83009302D01*
X168993757Y-83001356D01*
X168977623Y-82996461D01*
X168960654Y-82994790D01*
X168959028Y-82993625D01*
X168959224Y-82991635D01*
X168960850Y-82990800D01*
X169017209Y-82990800D01*
X169017405Y-82990810D01*
X169028401Y-82991893D01*
X169028786Y-82991969D01*
X169033460Y-82993387D01*
X169033822Y-82993537D01*
X169038123Y-82995836D01*
X169038449Y-82996054D01*
X169044746Y-83001221D01*
X169064873Y-83014670D01*
X169087147Y-83023896D01*
X169110798Y-83028600D01*
X169134904Y-83028600D01*
X169158554Y-83023895D01*
X169180828Y-83014669D01*
X169200954Y-83001221D01*
X169207251Y-82996054D01*
X169207577Y-82995836D01*
X169211878Y-82993537D01*
X169212240Y-82993387D01*
X169216914Y-82991969D01*
X169217299Y-82991893D01*
X169228295Y-82990810D01*
X169228491Y-82990800D01*
X169284850Y-82990800D01*
X169286582Y-82991800D01*
X169286582Y-82993800D01*
X169285046Y-82994790D01*
X169268077Y-82996461D01*
X169251943Y-83001356D01*
X169237076Y-83009302D01*
X169224046Y-83019996D01*
X169213352Y-83033026D01*
X169205406Y-83047893D01*
X169200511Y-83064027D01*
X169198850Y-83080894D01*
X169198850Y-83881706D01*
X169200511Y-83898573D01*
X169205406Y-83914707D01*
X169213352Y-83929574D01*
X169224046Y-83942604D01*
X169237076Y-83953298D01*
X169251943Y-83961244D01*
X169268077Y-83966139D01*
X169284944Y-83967800D01*
X169460756Y-83967800D01*
X169477623Y-83966139D01*
X169493757Y-83961244D01*
X169508624Y-83953298D01*
X169521654Y-83942604D01*
X169532348Y-83929574D01*
X169540294Y-83914707D01*
X169545189Y-83898573D01*
X169546850Y-83881706D01*
X169546850Y-83080894D01*
X169545189Y-83064027D01*
X169540294Y-83047893D01*
X169532348Y-83033026D01*
X169521654Y-83019996D01*
X169508624Y-83009302D01*
X169493757Y-83001356D01*
X169477623Y-82996461D01*
X169460654Y-82994790D01*
X169459028Y-82993625D01*
X169459224Y-82991635D01*
X169460850Y-82990800D01*
X169517209Y-82990800D01*
X169517405Y-82990810D01*
X169528401Y-82991893D01*
X169528786Y-82991969D01*
X169533460Y-82993387D01*
X169533822Y-82993537D01*
X169538123Y-82995836D01*
X169538449Y-82996054D01*
X169544746Y-83001221D01*
X169564873Y-83014670D01*
X169587147Y-83023896D01*
X169610798Y-83028600D01*
X169634904Y-83028600D01*
X169658554Y-83023895D01*
X169680828Y-83014669D01*
X169700954Y-83001221D01*
X169707251Y-82996054D01*
X169707577Y-82995836D01*
X169711878Y-82993537D01*
X169712240Y-82993387D01*
X169716914Y-82991969D01*
X169717299Y-82991893D01*
X169728295Y-82990810D01*
X169728491Y-82990800D01*
X169784850Y-82990800D01*
X169786582Y-82991800D01*
X169786582Y-82993800D01*
X169785046Y-82994790D01*
X169768077Y-82996461D01*
X169751943Y-83001356D01*
X169737076Y-83009302D01*
X169724046Y-83019996D01*
X169713352Y-83033026D01*
X169705406Y-83047893D01*
X169700511Y-83064027D01*
X169698850Y-83080894D01*
X169698850Y-83881706D01*
X169700511Y-83898573D01*
X169705406Y-83914707D01*
X169713352Y-83929574D01*
X169724046Y-83942604D01*
X169737076Y-83953298D01*
X169751943Y-83961244D01*
X169768077Y-83966139D01*
X169784944Y-83967800D01*
X169960756Y-83967800D01*
X169977623Y-83966139D01*
X169993757Y-83961244D01*
X170008624Y-83953298D01*
X170021654Y-83942604D01*
X170032348Y-83929574D01*
X170040294Y-83914707D01*
X170045189Y-83898573D01*
X170046850Y-83881706D01*
X170046850Y-83080894D01*
X170045189Y-83064027D01*
X170040294Y-83047893D01*
X170032348Y-83033026D01*
X170021654Y-83019996D01*
X170008624Y-83009302D01*
X169993757Y-83001356D01*
X169977623Y-82996461D01*
X169960654Y-82994790D01*
X169959028Y-82993625D01*
X169959224Y-82991635D01*
X169960850Y-82990800D01*
X170017209Y-82990800D01*
X170017405Y-82990810D01*
X170028401Y-82991893D01*
X170028786Y-82991969D01*
X170033460Y-82993387D01*
X170033822Y-82993537D01*
X170038123Y-82995836D01*
X170038449Y-82996054D01*
X170044746Y-83001221D01*
X170064873Y-83014670D01*
X170087147Y-83023896D01*
X170110798Y-83028600D01*
X170134904Y-83028600D01*
X170158554Y-83023895D01*
X170180828Y-83014669D01*
X170200954Y-83001221D01*
X170207251Y-82996054D01*
X170207577Y-82995836D01*
X170211878Y-82993537D01*
X170212240Y-82993387D01*
X170216914Y-82991969D01*
X170217299Y-82991893D01*
X170228295Y-82990810D01*
X170228491Y-82990800D01*
X170284850Y-82990800D01*
X170286582Y-82991800D01*
X170286582Y-82993800D01*
X170285046Y-82994790D01*
X170268077Y-82996461D01*
X170251943Y-83001356D01*
X170237076Y-83009302D01*
X170224046Y-83019996D01*
X170213352Y-83033026D01*
X170205406Y-83047893D01*
X170200511Y-83064027D01*
X170198850Y-83080894D01*
X170198850Y-83881706D01*
X170200511Y-83898573D01*
X170205406Y-83914707D01*
X170213352Y-83929574D01*
X170224046Y-83942604D01*
X170237076Y-83953298D01*
X170251943Y-83961244D01*
X170268077Y-83966139D01*
X170284944Y-83967800D01*
X170460756Y-83967800D01*
X170477623Y-83966139D01*
X170493757Y-83961244D01*
X170508624Y-83953298D01*
X170521654Y-83942604D01*
X170532348Y-83929574D01*
X170540294Y-83914707D01*
X170545189Y-83898573D01*
X170546850Y-83881706D01*
X170546850Y-83080894D01*
X170545189Y-83064027D01*
X170540294Y-83047893D01*
X170532348Y-83033026D01*
X170521654Y-83019996D01*
X170508624Y-83009302D01*
X170493757Y-83001356D01*
X170477623Y-82996461D01*
X170460654Y-82994790D01*
X170459028Y-82993625D01*
X170459224Y-82991635D01*
X170460850Y-82990800D01*
X170517209Y-82990800D01*
X170517405Y-82990810D01*
X170528401Y-82991893D01*
X170528786Y-82991969D01*
X170533460Y-82993387D01*
X170533822Y-82993537D01*
X170538123Y-82995836D01*
X170538449Y-82996054D01*
X170544746Y-83001221D01*
X170564873Y-83014670D01*
X170587147Y-83023896D01*
X170610798Y-83028600D01*
X170634904Y-83028600D01*
X170658554Y-83023895D01*
X170680828Y-83014669D01*
X170700954Y-83001221D01*
X170707251Y-82996054D01*
X170707577Y-82995836D01*
X170711878Y-82993537D01*
X170712240Y-82993387D01*
X170716914Y-82991969D01*
X170717299Y-82991893D01*
X170728295Y-82990810D01*
X170728491Y-82990800D01*
X170784850Y-82990800D01*
X170786582Y-82991800D01*
X170786582Y-82993800D01*
X170785046Y-82994790D01*
X170768077Y-82996461D01*
X170751943Y-83001356D01*
X170737076Y-83009302D01*
X170724046Y-83019996D01*
X170713352Y-83033026D01*
X170705406Y-83047893D01*
X170700511Y-83064027D01*
X170698850Y-83080894D01*
X170698850Y-83881706D01*
X170700511Y-83898573D01*
X170705406Y-83914707D01*
X170713352Y-83929574D01*
X170724046Y-83942604D01*
X170737076Y-83953298D01*
X170751943Y-83961244D01*
X170768077Y-83966139D01*
X170784944Y-83967800D01*
X170960756Y-83967800D01*
X170977623Y-83966139D01*
X170993757Y-83961244D01*
X171008624Y-83953298D01*
X171021654Y-83942604D01*
X171032348Y-83929574D01*
X171040294Y-83914707D01*
X171045189Y-83898573D01*
X171046850Y-83881706D01*
X171046850Y-83080894D01*
X171045189Y-83064027D01*
X171040294Y-83047893D01*
X171032348Y-83033026D01*
X171021654Y-83019996D01*
X171008624Y-83009302D01*
X170993757Y-83001356D01*
X170977623Y-82996461D01*
X170960654Y-82994790D01*
X170959028Y-82993625D01*
X170959224Y-82991635D01*
X170960850Y-82990800D01*
X171017209Y-82990800D01*
X171017405Y-82990810D01*
X171028401Y-82991893D01*
X171028786Y-82991969D01*
X171033460Y-82993387D01*
X171033822Y-82993537D01*
X171038123Y-82995836D01*
X171038449Y-82996054D01*
X171044746Y-83001221D01*
X171064873Y-83014670D01*
X171087147Y-83023896D01*
X171110798Y-83028600D01*
X171134904Y-83028600D01*
X171158554Y-83023895D01*
X171180828Y-83014669D01*
X171200954Y-83001221D01*
X171207251Y-82996054D01*
X171207577Y-82995836D01*
X171211878Y-82993537D01*
X171212240Y-82993387D01*
X171216914Y-82991969D01*
X171217299Y-82991893D01*
X171228295Y-82990810D01*
X171228491Y-82990800D01*
X171284850Y-82990800D01*
X171286582Y-82991800D01*
X171286582Y-82993800D01*
X171285046Y-82994790D01*
X171268077Y-82996461D01*
X171251943Y-83001356D01*
X171237076Y-83009302D01*
X171224046Y-83019996D01*
X171213352Y-83033026D01*
X171205406Y-83047893D01*
X171200511Y-83064027D01*
X171198850Y-83080894D01*
X171198850Y-83881706D01*
X171200511Y-83898573D01*
X171205406Y-83914707D01*
X171213352Y-83929574D01*
X171224046Y-83942604D01*
X171237076Y-83953298D01*
X171251943Y-83961244D01*
X171268077Y-83966139D01*
X171284944Y-83967800D01*
X171460756Y-83967800D01*
X171477623Y-83966139D01*
X171493757Y-83961244D01*
X171508624Y-83953298D01*
X171521654Y-83942604D01*
X171532348Y-83929574D01*
X171540294Y-83914707D01*
X171545189Y-83898573D01*
X171546850Y-83881706D01*
X171546850Y-83080894D01*
X171545189Y-83064027D01*
X171540294Y-83047893D01*
X171532348Y-83033026D01*
X171521654Y-83019996D01*
X171508624Y-83009302D01*
X171493757Y-83001356D01*
X171477623Y-82996461D01*
X171460654Y-82994790D01*
X171459028Y-82993625D01*
X171459224Y-82991635D01*
X171460850Y-82990800D01*
X171517209Y-82990800D01*
X171517405Y-82990810D01*
X171528401Y-82991893D01*
X171528786Y-82991969D01*
X171533460Y-82993387D01*
X171533822Y-82993537D01*
X171538123Y-82995836D01*
X171538449Y-82996054D01*
X171544746Y-83001221D01*
X171564873Y-83014670D01*
X171587147Y-83023896D01*
X171610798Y-83028600D01*
X171634904Y-83028600D01*
X171658554Y-83023895D01*
X171680828Y-83014669D01*
X171700954Y-83001221D01*
X171707251Y-82996054D01*
X171707577Y-82995836D01*
X171711878Y-82993537D01*
X171712240Y-82993387D01*
X171716914Y-82991969D01*
X171717299Y-82991893D01*
X171728295Y-82990810D01*
X171728491Y-82990800D01*
X171784850Y-82990800D01*
X171786582Y-82991800D01*
X171786582Y-82993800D01*
X171785046Y-82994790D01*
X171768077Y-82996461D01*
X171751943Y-83001356D01*
X171737076Y-83009302D01*
X171724046Y-83019996D01*
X171713352Y-83033026D01*
X171705406Y-83047893D01*
X171700511Y-83064027D01*
X171698850Y-83080894D01*
X171698850Y-83881706D01*
X171700511Y-83898573D01*
X171705406Y-83914707D01*
X171713352Y-83929574D01*
X171724046Y-83942604D01*
X171737076Y-83953298D01*
X171751943Y-83961244D01*
X171768077Y-83966139D01*
X171784944Y-83967800D01*
X171960756Y-83967800D01*
X171977623Y-83966139D01*
X171993757Y-83961244D01*
X172008624Y-83953298D01*
X172021654Y-83942604D01*
X172032348Y-83929574D01*
X172040294Y-83914707D01*
X172045189Y-83898573D01*
X172046850Y-83881706D01*
X172046850Y-83080894D01*
X172045189Y-83064027D01*
X172040294Y-83047893D01*
X172032348Y-83033026D01*
X172021654Y-83019996D01*
X172008624Y-83009302D01*
X171993757Y-83001356D01*
X171977623Y-82996461D01*
X171960654Y-82994790D01*
X171959028Y-82993625D01*
X171959224Y-82991635D01*
X171960850Y-82990800D01*
X172017209Y-82990800D01*
X172017405Y-82990810D01*
X172028401Y-82991893D01*
X172028786Y-82991969D01*
X172033460Y-82993387D01*
X172033822Y-82993537D01*
X172038123Y-82995836D01*
X172038449Y-82996054D01*
X172044746Y-83001221D01*
X172064873Y-83014670D01*
X172087147Y-83023896D01*
X172110798Y-83028600D01*
X172134904Y-83028600D01*
X172158554Y-83023895D01*
X172180828Y-83014669D01*
X172200954Y-83001221D01*
X172207251Y-82996054D01*
X172207577Y-82995836D01*
X172211878Y-82993537D01*
X172212240Y-82993387D01*
X172216914Y-82991969D01*
X172217299Y-82991893D01*
X172228295Y-82990810D01*
X172228491Y-82990800D01*
X172284850Y-82990800D01*
X172286582Y-82991800D01*
X172286582Y-82993800D01*
X172285046Y-82994790D01*
X172268077Y-82996461D01*
X172251943Y-83001356D01*
X172237076Y-83009302D01*
X172224046Y-83019996D01*
X172213352Y-83033026D01*
X172205406Y-83047893D01*
X172200511Y-83064027D01*
X172198850Y-83080894D01*
X172198850Y-83881706D01*
X172200511Y-83898573D01*
X172205406Y-83914707D01*
X172213352Y-83929574D01*
X172224046Y-83942604D01*
X172237076Y-83953298D01*
X172251943Y-83961244D01*
X172268077Y-83966139D01*
X172284944Y-83967800D01*
X172460756Y-83967800D01*
X172477623Y-83966139D01*
X172493757Y-83961244D01*
X172508624Y-83953298D01*
X172521654Y-83942604D01*
X172532348Y-83929574D01*
X172540294Y-83914707D01*
X172545189Y-83898573D01*
X172546850Y-83881706D01*
X172546850Y-83080894D01*
X172545189Y-83064027D01*
X172540294Y-83047893D01*
X172532348Y-83033026D01*
X172521654Y-83019996D01*
X172508624Y-83009302D01*
X172493757Y-83001356D01*
X172477623Y-82996461D01*
X172460654Y-82994790D01*
X172459028Y-82993625D01*
X172459224Y-82991635D01*
X172460850Y-82990800D01*
X172517209Y-82990800D01*
X172517405Y-82990810D01*
X172528401Y-82991893D01*
X172528786Y-82991969D01*
X172533460Y-82993387D01*
X172533822Y-82993537D01*
X172538123Y-82995836D01*
X172538449Y-82996054D01*
X172544746Y-83001221D01*
X172564873Y-83014670D01*
X172587147Y-83023896D01*
X172610798Y-83028600D01*
X172634904Y-83028600D01*
X172658554Y-83023895D01*
X172680828Y-83014669D01*
X172700954Y-83001221D01*
X172707251Y-82996054D01*
X172707577Y-82995836D01*
X172711878Y-82993537D01*
X172712240Y-82993387D01*
X172716914Y-82991969D01*
X172717299Y-82991893D01*
X172728295Y-82990810D01*
X172728491Y-82990800D01*
X172784850Y-82990800D01*
X172786582Y-82991800D01*
X172786582Y-82993800D01*
X172785046Y-82994790D01*
X172768077Y-82996461D01*
X172751943Y-83001356D01*
X172737076Y-83009302D01*
X172724046Y-83019996D01*
X172713352Y-83033026D01*
X172705406Y-83047893D01*
X172700511Y-83064027D01*
X172698850Y-83080894D01*
X172698850Y-83881706D01*
X172700511Y-83898573D01*
X172705406Y-83914707D01*
X172713352Y-83929574D01*
X172724046Y-83942604D01*
X172737076Y-83953298D01*
X172751943Y-83961244D01*
X172768077Y-83966139D01*
X172784944Y-83967800D01*
X172960756Y-83967800D01*
X172977623Y-83966139D01*
X172993757Y-83961244D01*
X173008624Y-83953298D01*
X173021654Y-83942604D01*
X173032348Y-83929574D01*
X173040294Y-83914707D01*
X173045189Y-83898573D01*
X173046850Y-83881706D01*
X173046850Y-83867801D01*
X173047850Y-83866069D01*
X173049850Y-83866069D01*
X173050840Y-83867605D01*
X173053222Y-83891792D01*
X173060222Y-83914867D01*
X173071587Y-83936131D01*
X173086882Y-83954768D01*
X173105519Y-83970063D01*
X173126783Y-83981428D01*
X173149858Y-83988428D01*
X173174045Y-83990810D01*
X173175671Y-83991975D01*
X173175475Y-83993965D01*
X173173849Y-83994800D01*
X173159944Y-83994800D01*
X173143077Y-83996461D01*
X173126943Y-84001356D01*
X173112076Y-84009302D01*
X173099046Y-84019996D01*
X173088352Y-84033026D01*
X173080406Y-84047893D01*
X173075511Y-84064027D01*
X173073850Y-84080894D01*
X173073850Y-84256706D01*
X173075511Y-84273573D01*
X173080406Y-84289707D01*
X173088352Y-84304574D01*
X173099046Y-84317604D01*
X173112076Y-84328298D01*
X173126943Y-84336244D01*
X173143077Y-84341139D01*
X173159944Y-84342800D01*
X173960756Y-84342800D01*
X173977623Y-84341139D01*
X173993757Y-84336244D01*
X174008624Y-84328298D01*
X174021654Y-84317604D01*
X174032348Y-84304574D01*
X174040294Y-84289707D01*
X174045189Y-84273573D01*
X174046860Y-84256604D01*
X174048025Y-84254978D01*
X174050015Y-84255174D01*
X174050850Y-84256800D01*
X174050850Y-84313159D01*
X174050840Y-84313355D01*
X174049757Y-84324351D01*
X174049681Y-84324736D01*
X174048263Y-84329410D01*
X174048113Y-84329772D01*
X174045814Y-84334073D01*
X174045596Y-84334399D01*
X174040429Y-84340696D01*
X174026980Y-84360823D01*
X174017754Y-84383097D01*
X174013050Y-84406748D01*
X174013050Y-84430854D01*
X174017755Y-84454504D01*
X174026981Y-84476778D01*
X174040429Y-84496904D01*
X174045596Y-84503201D01*
X174045814Y-84503527D01*
X174048113Y-84507828D01*
X174048263Y-84508190D01*
X174049681Y-84512864D01*
X174049757Y-84513249D01*
X174050840Y-84524245D01*
X174050850Y-84524441D01*
X174050850Y-84580800D01*
X174049850Y-84582532D01*
X174047850Y-84582532D01*
X174046860Y-84580996D01*
X174045189Y-84564027D01*
X174040294Y-84547893D01*
X174032348Y-84533026D01*
X174021654Y-84519996D01*
X174008624Y-84509302D01*
X173993757Y-84501356D01*
X173977623Y-84496461D01*
X173960756Y-84494800D01*
X173159944Y-84494800D01*
X173143077Y-84496461D01*
X173126943Y-84501356D01*
X173112076Y-84509302D01*
X173099046Y-84519996D01*
X173088352Y-84533026D01*
X173080406Y-84547893D01*
X173075511Y-84564027D01*
X173073850Y-84580894D01*
X173073850Y-84756706D01*
X173075511Y-84773573D01*
X173080406Y-84789707D01*
X173088352Y-84804574D01*
X173099046Y-84817604D01*
X173112076Y-84828298D01*
X173126943Y-84836244D01*
X173143077Y-84841139D01*
X173159944Y-84842800D01*
X173960756Y-84842800D01*
X173977623Y-84841139D01*
X173993757Y-84836244D01*
X174008624Y-84828298D01*
X174021654Y-84817604D01*
X174032348Y-84804574D01*
X174040294Y-84789707D01*
X174045189Y-84773573D01*
X174046860Y-84756604D01*
X174048025Y-84754978D01*
X174050015Y-84755174D01*
X174050850Y-84756800D01*
X174050850Y-84813159D01*
X174050840Y-84813355D01*
X174049757Y-84824351D01*
X174049681Y-84824736D01*
X174048263Y-84829410D01*
X174048113Y-84829772D01*
X174045814Y-84834073D01*
X174045596Y-84834399D01*
X174040429Y-84840696D01*
X174026980Y-84860823D01*
X174017754Y-84883097D01*
X174013050Y-84906748D01*
X174013050Y-84930854D01*
X174017755Y-84954504D01*
X174026981Y-84976778D01*
X174040429Y-84996904D01*
X174045596Y-85003201D01*
X174045814Y-85003527D01*
X174048113Y-85007828D01*
X174048263Y-85008190D01*
X174049681Y-85012864D01*
X174049757Y-85013249D01*
X174050840Y-85024245D01*
X174050850Y-85024441D01*
X174050850Y-85080800D01*
X174049850Y-85082532D01*
X174047850Y-85082532D01*
X174046860Y-85080996D01*
X174045189Y-85064027D01*
X174040294Y-85047893D01*
X174032348Y-85033026D01*
X174021654Y-85019996D01*
X174008624Y-85009302D01*
X173993757Y-85001356D01*
X173977623Y-84996461D01*
X173960756Y-84994800D01*
X173159944Y-84994800D01*
X173143077Y-84996461D01*
X173126943Y-85001356D01*
X173112076Y-85009302D01*
X173099046Y-85019996D01*
X173088352Y-85033026D01*
X173080406Y-85047893D01*
X173075511Y-85064027D01*
X173073850Y-85080894D01*
X173073850Y-85256706D01*
X173075511Y-85273573D01*
X173080406Y-85289707D01*
X173088352Y-85304574D01*
X173099046Y-85317604D01*
X173112076Y-85328298D01*
X173126943Y-85336244D01*
X173143077Y-85341139D01*
X173159944Y-85342800D01*
X173960756Y-85342800D01*
X173977623Y-85341139D01*
X173993757Y-85336244D01*
X174008624Y-85328298D01*
X174021654Y-85317604D01*
X174032348Y-85304574D01*
X174040294Y-85289707D01*
X174045189Y-85273573D01*
X174046860Y-85256604D01*
X174048025Y-85254978D01*
X174050015Y-85255174D01*
X174050850Y-85256800D01*
X174050850Y-85313159D01*
X174050840Y-85313355D01*
X174049757Y-85324351D01*
X174049681Y-85324736D01*
X174048263Y-85329410D01*
X174048113Y-85329772D01*
X174045814Y-85334073D01*
X174045596Y-85334399D01*
X174040429Y-85340696D01*
X174026980Y-85360823D01*
X174017754Y-85383097D01*
X174013050Y-85406748D01*
X174013050Y-85430854D01*
X174017755Y-85454504D01*
X174026981Y-85476778D01*
X174040429Y-85496904D01*
X174045596Y-85503201D01*
X174045814Y-85503527D01*
X174048113Y-85507828D01*
X174048263Y-85508190D01*
X174049681Y-85512864D01*
X174049757Y-85513249D01*
X174050840Y-85524245D01*
X174050850Y-85524441D01*
X174050850Y-85580800D01*
X174049850Y-85582532D01*
X174047850Y-85582532D01*
X174046860Y-85580996D01*
X174045189Y-85564027D01*
X174040294Y-85547893D01*
X174032348Y-85533026D01*
X174021654Y-85519996D01*
X174008624Y-85509302D01*
X173993757Y-85501356D01*
X173977623Y-85496461D01*
X173960756Y-85494800D01*
X173159944Y-85494800D01*
X173143077Y-85496461D01*
X173126943Y-85501356D01*
X173112076Y-85509302D01*
X173099046Y-85519996D01*
X173088352Y-85533026D01*
X173080406Y-85547893D01*
X173075511Y-85564027D01*
X173073850Y-85580894D01*
X173073850Y-85756706D01*
X173075511Y-85773573D01*
X173080406Y-85789707D01*
X173088352Y-85804574D01*
X173099046Y-85817604D01*
X173112076Y-85828298D01*
X173126943Y-85836244D01*
X173143077Y-85841139D01*
X173159944Y-85842800D01*
X173960756Y-85842800D01*
X173977623Y-85841139D01*
X173993757Y-85836244D01*
X174008624Y-85828298D01*
X174021654Y-85817604D01*
X174032348Y-85804574D01*
X174040294Y-85789707D01*
X174045189Y-85773573D01*
X174046860Y-85756604D01*
X174048025Y-85754978D01*
X174050015Y-85755174D01*
X174050850Y-85756800D01*
X174050850Y-85813159D01*
X174050840Y-85813355D01*
X174049757Y-85824351D01*
X174049681Y-85824736D01*
X174048263Y-85829410D01*
X174048113Y-85829772D01*
X174045814Y-85834073D01*
X174045596Y-85834399D01*
X174040429Y-85840696D01*
X174026980Y-85860823D01*
X174017754Y-85883097D01*
X174013050Y-85906748D01*
X174013050Y-85930854D01*
X174017755Y-85954504D01*
X174026981Y-85976778D01*
X174040429Y-85996904D01*
X174045596Y-86003201D01*
X174045814Y-86003527D01*
X174048113Y-86007828D01*
X174048263Y-86008190D01*
X174049681Y-86012864D01*
X174049757Y-86013249D01*
X174050840Y-86024245D01*
X174050850Y-86024441D01*
X174050850Y-86080800D01*
X174049850Y-86082532D01*
X174047850Y-86082532D01*
X174046860Y-86080996D01*
X174045189Y-86064027D01*
X174040294Y-86047893D01*
X174032348Y-86033026D01*
X174021654Y-86019996D01*
X174008624Y-86009302D01*
X173993757Y-86001356D01*
X173977623Y-85996461D01*
X173960756Y-85994800D01*
X173159944Y-85994800D01*
X173143077Y-85996461D01*
X173126943Y-86001356D01*
X173112076Y-86009302D01*
X173099046Y-86019996D01*
X173088352Y-86033026D01*
X173080406Y-86047893D01*
X173075511Y-86064027D01*
X173073850Y-86080894D01*
X173073850Y-86256706D01*
X173075511Y-86273573D01*
X173080406Y-86289707D01*
X173088352Y-86304574D01*
X173099046Y-86317604D01*
X173112076Y-86328298D01*
X173126943Y-86336244D01*
X173143077Y-86341139D01*
X173159944Y-86342800D01*
X173960756Y-86342800D01*
X173977623Y-86341139D01*
X173993757Y-86336244D01*
X174008624Y-86328298D01*
X174021654Y-86317604D01*
X174032348Y-86304574D01*
X174040294Y-86289707D01*
X174045189Y-86273573D01*
X174046860Y-86256604D01*
X174048025Y-86254978D01*
X174050015Y-86255174D01*
X174050850Y-86256800D01*
X174050850Y-86313159D01*
X174050840Y-86313355D01*
X174049757Y-86324351D01*
X174049681Y-86324736D01*
X174048263Y-86329410D01*
X174048113Y-86329772D01*
X174045814Y-86334073D01*
X174045596Y-86334399D01*
X174040429Y-86340696D01*
X174026980Y-86360823D01*
X174017754Y-86383097D01*
X174013050Y-86406748D01*
X174013050Y-86430854D01*
X174017755Y-86454504D01*
X174026981Y-86476778D01*
X174040429Y-86496904D01*
X174045596Y-86503201D01*
X174045814Y-86503527D01*
X174048113Y-86507828D01*
X174048263Y-86508190D01*
X174049681Y-86512864D01*
X174049757Y-86513249D01*
X174050840Y-86524245D01*
X174050850Y-86524441D01*
X174050850Y-86580800D01*
X174049850Y-86582532D01*
X174047850Y-86582532D01*
X174046860Y-86580996D01*
X174045189Y-86564027D01*
X174040294Y-86547893D01*
X174032348Y-86533026D01*
X174021654Y-86519996D01*
X174008624Y-86509302D01*
X173993757Y-86501356D01*
X173977623Y-86496461D01*
X173960756Y-86494800D01*
X173159944Y-86494800D01*
X173143077Y-86496461D01*
X173126943Y-86501356D01*
X173112076Y-86509302D01*
X173099046Y-86519996D01*
X173088352Y-86533026D01*
X173080406Y-86547893D01*
X173075511Y-86564027D01*
X173073850Y-86580894D01*
X173073850Y-86756706D01*
X173075511Y-86773573D01*
X173080406Y-86789707D01*
X173088352Y-86804574D01*
X173099046Y-86817604D01*
X173112076Y-86828298D01*
X173126943Y-86836244D01*
X173143077Y-86841139D01*
X173159944Y-86842800D01*
X173960756Y-86842800D01*
X173977623Y-86841139D01*
X173993757Y-86836244D01*
X174008624Y-86828298D01*
X174021654Y-86817604D01*
X174032348Y-86804574D01*
X174040294Y-86789707D01*
X174045189Y-86773573D01*
X174046860Y-86756604D01*
X174048025Y-86754978D01*
X174050015Y-86755174D01*
X174050850Y-86756800D01*
X174050850Y-86813159D01*
X174050840Y-86813355D01*
X174049757Y-86824351D01*
X174049681Y-86824736D01*
X174048263Y-86829410D01*
X174048113Y-86829772D01*
X174045814Y-86834073D01*
X174045596Y-86834399D01*
X174040429Y-86840696D01*
X174026980Y-86860823D01*
X174017754Y-86883097D01*
X174013050Y-86906748D01*
X174013050Y-86930854D01*
X174017755Y-86954504D01*
X174026981Y-86976778D01*
X174040429Y-86996904D01*
X174045596Y-87003201D01*
X174045814Y-87003527D01*
X174048113Y-87007828D01*
X174048263Y-87008190D01*
X174049681Y-87012864D01*
X174049757Y-87013249D01*
X174050840Y-87024245D01*
X174050850Y-87024441D01*
X174050850Y-87080800D01*
X174049850Y-87082532D01*
X174047850Y-87082532D01*
X174046860Y-87080996D01*
X174045189Y-87064027D01*
X174040294Y-87047893D01*
X174032348Y-87033026D01*
X174021654Y-87019996D01*
X174008624Y-87009302D01*
X173993757Y-87001356D01*
X173977623Y-86996461D01*
X173960756Y-86994800D01*
X173159944Y-86994800D01*
X173143077Y-86996461D01*
X173126943Y-87001356D01*
X173112076Y-87009302D01*
X173099046Y-87019996D01*
X173088352Y-87033026D01*
X173080406Y-87047893D01*
X173075511Y-87064027D01*
X173073850Y-87080894D01*
X173073850Y-87256706D01*
X173075511Y-87273573D01*
X173080406Y-87289707D01*
X173088352Y-87304574D01*
X173099046Y-87317604D01*
X173112076Y-87328298D01*
X173126943Y-87336244D01*
X173143077Y-87341139D01*
X173159944Y-87342800D01*
X173960756Y-87342800D01*
X173977623Y-87341139D01*
X173993757Y-87336244D01*
X174008624Y-87328298D01*
X174021654Y-87317604D01*
X174032348Y-87304574D01*
X174040294Y-87289707D01*
X174045189Y-87273573D01*
X174046860Y-87256604D01*
X174048025Y-87254978D01*
X174050015Y-87255174D01*
X174050850Y-87256800D01*
X174050850Y-87313159D01*
X174050840Y-87313355D01*
X174049757Y-87324351D01*
X174049681Y-87324736D01*
X174048263Y-87329410D01*
X174048113Y-87329772D01*
X174045814Y-87334073D01*
X174045596Y-87334399D01*
X174040429Y-87340696D01*
X174026980Y-87360823D01*
X174017754Y-87383097D01*
X174013050Y-87406748D01*
X174013050Y-87430854D01*
X174017755Y-87454504D01*
X174026981Y-87476778D01*
X174040429Y-87496904D01*
X174045596Y-87503201D01*
X174045814Y-87503527D01*
X174048113Y-87507828D01*
X174048263Y-87508190D01*
X174049681Y-87512864D01*
X174049757Y-87513249D01*
X174050840Y-87524245D01*
X174050850Y-87524441D01*
X174050850Y-87580800D01*
X174049850Y-87582532D01*
X174047850Y-87582532D01*
X174046860Y-87580996D01*
X174045189Y-87564027D01*
X174040294Y-87547893D01*
X174032348Y-87533026D01*
X174021654Y-87519996D01*
X174008624Y-87509302D01*
X173993757Y-87501356D01*
X173977623Y-87496461D01*
X173960756Y-87494800D01*
X173159944Y-87494800D01*
X173143077Y-87496461D01*
X173126943Y-87501356D01*
X173112076Y-87509302D01*
X173099046Y-87519996D01*
X173088352Y-87533026D01*
X173080406Y-87547893D01*
X173075511Y-87564027D01*
X173073850Y-87580894D01*
X173073850Y-87756706D01*
X173075511Y-87773573D01*
X173080406Y-87789707D01*
X173088352Y-87804574D01*
X173099046Y-87817604D01*
X173112076Y-87828298D01*
X173126943Y-87836244D01*
X173143077Y-87841139D01*
X173159944Y-87842800D01*
X173960756Y-87842800D01*
X173977623Y-87841139D01*
X173993757Y-87836244D01*
X174008624Y-87828298D01*
X174021654Y-87817604D01*
X174032348Y-87804574D01*
X174040294Y-87789707D01*
X174045189Y-87773573D01*
X174046860Y-87756604D01*
X174048025Y-87754978D01*
X174050015Y-87755174D01*
X174050850Y-87756800D01*
X174050850Y-87813159D01*
X174050840Y-87813355D01*
X174049757Y-87824351D01*
X174049681Y-87824736D01*
X174048263Y-87829410D01*
X174048113Y-87829772D01*
X174045814Y-87834073D01*
X174045596Y-87834399D01*
X174040429Y-87840696D01*
X174026980Y-87860823D01*
X174017754Y-87883097D01*
X174013050Y-87906748D01*
X174013050Y-87930854D01*
X174017755Y-87954504D01*
X174026981Y-87976778D01*
X174040429Y-87996904D01*
X174045596Y-88003201D01*
X174045814Y-88003527D01*
X174048113Y-88007828D01*
X174048263Y-88008190D01*
X174049681Y-88012864D01*
X174049757Y-88013249D01*
X174050840Y-88024245D01*
X174050850Y-88024441D01*
X174050850Y-88080800D01*
X174049850Y-88082532D01*
X174047850Y-88082532D01*
X174046860Y-88080996D01*
X174045189Y-88064027D01*
X174040294Y-88047893D01*
X174032348Y-88033026D01*
X174021654Y-88019996D01*
X174008624Y-88009302D01*
X173993757Y-88001356D01*
X173977623Y-87996461D01*
X173960756Y-87994800D01*
X173159944Y-87994800D01*
X173143077Y-87996461D01*
X173126943Y-88001356D01*
X173112076Y-88009302D01*
X173099046Y-88019996D01*
X173088352Y-88033026D01*
X173080406Y-88047893D01*
X173075511Y-88064027D01*
X173073850Y-88080894D01*
X173073850Y-88256706D01*
X173075511Y-88273573D01*
X173080406Y-88289707D01*
X173088352Y-88304574D01*
X173099046Y-88317604D01*
X173112076Y-88328298D01*
X173126943Y-88336244D01*
X173143077Y-88341139D01*
X173159944Y-88342800D01*
X173960756Y-88342800D01*
X173977623Y-88341139D01*
X173993757Y-88336244D01*
X174008624Y-88328298D01*
X174021654Y-88317604D01*
X174032348Y-88304574D01*
X174040294Y-88289707D01*
X174045189Y-88273573D01*
X174046860Y-88256604D01*
X174048025Y-88254978D01*
X174050015Y-88255174D01*
X174050850Y-88256800D01*
X174050850Y-88313159D01*
X174050840Y-88313355D01*
X174049757Y-88324351D01*
X174049681Y-88324736D01*
X174048263Y-88329410D01*
X174048113Y-88329772D01*
X174045814Y-88334073D01*
X174045596Y-88334399D01*
X174040429Y-88340696D01*
X174026980Y-88360823D01*
X174017754Y-88383097D01*
X174013050Y-88406748D01*
X174013050Y-88430854D01*
X174017755Y-88454504D01*
X174026981Y-88476778D01*
X174040429Y-88496904D01*
X174045596Y-88503201D01*
X174045814Y-88503527D01*
X174048113Y-88507828D01*
X174048263Y-88508190D01*
X174049681Y-88512864D01*
X174049757Y-88513249D01*
X174050840Y-88524245D01*
X174050850Y-88524441D01*
X174050850Y-88580800D01*
X174049850Y-88582532D01*
X174047850Y-88582532D01*
X174046860Y-88580996D01*
X174045189Y-88564027D01*
X174040294Y-88547893D01*
X174032348Y-88533026D01*
X174021654Y-88519996D01*
X174008624Y-88509302D01*
X173993757Y-88501356D01*
X173977623Y-88496461D01*
X173960756Y-88494800D01*
X173159944Y-88494800D01*
X173143077Y-88496461D01*
X173126943Y-88501356D01*
X173112076Y-88509302D01*
X173099046Y-88519996D01*
X173088352Y-88533026D01*
X173080406Y-88547893D01*
X173075511Y-88564027D01*
X173073850Y-88580894D01*
X173073850Y-88756706D01*
X173075511Y-88773573D01*
X173080406Y-88789707D01*
X173088352Y-88804574D01*
X173099046Y-88817604D01*
X173112076Y-88828298D01*
X173126943Y-88836244D01*
X173143077Y-88841139D01*
X173159944Y-88842800D01*
X173960756Y-88842800D01*
X173977623Y-88841139D01*
X173993757Y-88836244D01*
X174008624Y-88828298D01*
X174021654Y-88817604D01*
X174032348Y-88804574D01*
X174040294Y-88789707D01*
X174045189Y-88773573D01*
X174046860Y-88756604D01*
X174048025Y-88754978D01*
X174050015Y-88755174D01*
X174050850Y-88756800D01*
X174050850Y-88813159D01*
X174050840Y-88813355D01*
X174049757Y-88824351D01*
X174049681Y-88824736D01*
X174048263Y-88829410D01*
X174048113Y-88829772D01*
X174045814Y-88834073D01*
X174045596Y-88834399D01*
X174040429Y-88840696D01*
X174026980Y-88860823D01*
X174017754Y-88883097D01*
X174013050Y-88906748D01*
X174013050Y-88930854D01*
X174017755Y-88954504D01*
X174026981Y-88976778D01*
X174040429Y-88996904D01*
X174045596Y-89003201D01*
X174045814Y-89003527D01*
X174048113Y-89007828D01*
X174048263Y-89008190D01*
X174049681Y-89012864D01*
X174049757Y-89013249D01*
X174050840Y-89024245D01*
X174050850Y-89024441D01*
X174050850Y-89080800D01*
X174049850Y-89082532D01*
X174047850Y-89082532D01*
X174046860Y-89080996D01*
X174045189Y-89064027D01*
X174040294Y-89047893D01*
X174032348Y-89033026D01*
X174021654Y-89019996D01*
X174008624Y-89009302D01*
X173993757Y-89001356D01*
X173977623Y-88996461D01*
X173960756Y-88994800D01*
X173159944Y-88994800D01*
X173143077Y-88996461D01*
X173126943Y-89001356D01*
X173112076Y-89009302D01*
X173099046Y-89019996D01*
X173088352Y-89033026D01*
X173080406Y-89047893D01*
X173075511Y-89064027D01*
X173073850Y-89080894D01*
X173073850Y-89256706D01*
X173075511Y-89273573D01*
X173080406Y-89289707D01*
X173088352Y-89304574D01*
X173099046Y-89317604D01*
X173112076Y-89328298D01*
X173126943Y-89336244D01*
X173143077Y-89341139D01*
X173159944Y-89342800D01*
X173960756Y-89342800D01*
X173977623Y-89341139D01*
X173993757Y-89336244D01*
X174008624Y-89328298D01*
X174021654Y-89317604D01*
X174032348Y-89304574D01*
X174040294Y-89289707D01*
X174045189Y-89273573D01*
X174046860Y-89256604D01*
X174048025Y-89254978D01*
X174050015Y-89255174D01*
X174050850Y-89256800D01*
X174050850Y-89313159D01*
X174050840Y-89313355D01*
X174049757Y-89324351D01*
X174049681Y-89324736D01*
X174048263Y-89329410D01*
X174048113Y-89329772D01*
X174045814Y-89334073D01*
X174045596Y-89334399D01*
X174040429Y-89340696D01*
X174026980Y-89360823D01*
X174017754Y-89383097D01*
X174013050Y-89406748D01*
X174013050Y-89430854D01*
X174017755Y-89454504D01*
X174026981Y-89476778D01*
X174040429Y-89496904D01*
X174045596Y-89503201D01*
X174045814Y-89503527D01*
X174048113Y-89507828D01*
X174048263Y-89508190D01*
X174049681Y-89512864D01*
X174049757Y-89513249D01*
X174050840Y-89524245D01*
X174050850Y-89524441D01*
X174050850Y-89580800D01*
X174049850Y-89582532D01*
X174047850Y-89582532D01*
X174046860Y-89580996D01*
X174045189Y-89564027D01*
X174040294Y-89547893D01*
X174032348Y-89533026D01*
X174021654Y-89519996D01*
X174008624Y-89509302D01*
X173993757Y-89501356D01*
X173977623Y-89496461D01*
X173960756Y-89494800D01*
X173159944Y-89494800D01*
X173143077Y-89496461D01*
X173126943Y-89501356D01*
X173112076Y-89509302D01*
X173099046Y-89519996D01*
X173088352Y-89533026D01*
X173080406Y-89547893D01*
X173075511Y-89564027D01*
X173073850Y-89580894D01*
X173073850Y-89756706D01*
X173075511Y-89773573D01*
X173080406Y-89789707D01*
X173088352Y-89804574D01*
X173099046Y-89817604D01*
X173112076Y-89828298D01*
X173126943Y-89836244D01*
X173143077Y-89841139D01*
X173159944Y-89842800D01*
X173173849Y-89842800D01*
X173175581Y-89843800D01*
X173175581Y-89845800D01*
X173174045Y-89846790D01*
X173149858Y-89849172D01*
X173126783Y-89856172D01*
X173105519Y-89867537D01*
X173086882Y-89882832D01*
X173071587Y-89901469D01*
X173060222Y-89922733D01*
X173053222Y-89945808D01*
X173050840Y-89969995D01*
X173049675Y-89971621D01*
X173047685Y-89971425D01*
X173046850Y-89969799D01*
X173046850Y-89955894D01*
X173045189Y-89939027D01*
X173040294Y-89922893D01*
X173032348Y-89908026D01*
X173021654Y-89894996D01*
X173008624Y-89884302D01*
X172993757Y-89876356D01*
X172977623Y-89871461D01*
X172960756Y-89869800D01*
X172784944Y-89869800D01*
X172768077Y-89871461D01*
X172751943Y-89876356D01*
X172737076Y-89884302D01*
X172724046Y-89894996D01*
X172713352Y-89908026D01*
X172705406Y-89922893D01*
X172700511Y-89939027D01*
X172698850Y-89955894D01*
X172698850Y-90756706D01*
X172700511Y-90773573D01*
X172705406Y-90789707D01*
X172713352Y-90804574D01*
X172724046Y-90817604D01*
X172737076Y-90828298D01*
X172751943Y-90836244D01*
X172768077Y-90841139D01*
X172785046Y-90842810D01*
X172786672Y-90843975D01*
X172786476Y-90845965D01*
X172784850Y-90846800D01*
X172728491Y-90846800D01*
X172728295Y-90846790D01*
X172717299Y-90845707D01*
X172716914Y-90845631D01*
X172712240Y-90844213D01*
X172711878Y-90844063D01*
X172707577Y-90841764D01*
X172707251Y-90841546D01*
X172700954Y-90836379D01*
X172680827Y-90822930D01*
X172658553Y-90813704D01*
X172634902Y-90809000D01*
X172610796Y-90809000D01*
X172587146Y-90813705D01*
X172564872Y-90822931D01*
X172544746Y-90836379D01*
X172538449Y-90841546D01*
X172538123Y-90841764D01*
X172533822Y-90844063D01*
X172533460Y-90844213D01*
X172528786Y-90845631D01*
X172528401Y-90845707D01*
X172517405Y-90846790D01*
X172517209Y-90846800D01*
X172460850Y-90846800D01*
X172459118Y-90845800D01*
X172459118Y-90843800D01*
X172460654Y-90842810D01*
X172477623Y-90841139D01*
X172493757Y-90836244D01*
X172508624Y-90828298D01*
X172521654Y-90817604D01*
X172532348Y-90804574D01*
X172540294Y-90789707D01*
X172545189Y-90773573D01*
X172546850Y-90756706D01*
X172546850Y-89955894D01*
X172545189Y-89939027D01*
X172540294Y-89922893D01*
X172532348Y-89908026D01*
X172521654Y-89894996D01*
X172508624Y-89884302D01*
X172493757Y-89876356D01*
X172477623Y-89871461D01*
X172460756Y-89869800D01*
X172284944Y-89869800D01*
X172268077Y-89871461D01*
X172251943Y-89876356D01*
X172237076Y-89884302D01*
X172224046Y-89894996D01*
X172213352Y-89908026D01*
X172205406Y-89922893D01*
X172200511Y-89939027D01*
X172198850Y-89955894D01*
X172198850Y-90756706D01*
X172200511Y-90773573D01*
X172205406Y-90789707D01*
X172213352Y-90804574D01*
X172224046Y-90817604D01*
X172237076Y-90828298D01*
X172251943Y-90836244D01*
X172268077Y-90841139D01*
X172285046Y-90842810D01*
X172286672Y-90843975D01*
X172286476Y-90845965D01*
X172284850Y-90846800D01*
X172228491Y-90846800D01*
X172228295Y-90846790D01*
X172217299Y-90845707D01*
X172216914Y-90845631D01*
X172212240Y-90844213D01*
X172211878Y-90844063D01*
X172207577Y-90841764D01*
X172207251Y-90841546D01*
X172200954Y-90836379D01*
X172180827Y-90822930D01*
X172158553Y-90813704D01*
X172134902Y-90809000D01*
X172110796Y-90809000D01*
X172087146Y-90813705D01*
X172064872Y-90822931D01*
X172044746Y-90836379D01*
X172038449Y-90841546D01*
X172038123Y-90841764D01*
X172033822Y-90844063D01*
X172033460Y-90844213D01*
X172028786Y-90845631D01*
X172028401Y-90845707D01*
X172017405Y-90846790D01*
X172017209Y-90846800D01*
X171960850Y-90846800D01*
X171959118Y-90845800D01*
X171959118Y-90843800D01*
X171960654Y-90842810D01*
X171977623Y-90841139D01*
X171993757Y-90836244D01*
X172008624Y-90828298D01*
X172021654Y-90817604D01*
X172032348Y-90804574D01*
X172040294Y-90789707D01*
X172045189Y-90773573D01*
X172046850Y-90756706D01*
X172046850Y-89955894D01*
X172045189Y-89939027D01*
X172040294Y-89922893D01*
X172032348Y-89908026D01*
X172021654Y-89894996D01*
X172008624Y-89884302D01*
X171993757Y-89876356D01*
X171977623Y-89871461D01*
X171960756Y-89869800D01*
X171784944Y-89869800D01*
X171768077Y-89871461D01*
X171751943Y-89876356D01*
X171737076Y-89884302D01*
X171724046Y-89894996D01*
X171713352Y-89908026D01*
X171705406Y-89922893D01*
X171700511Y-89939027D01*
X171698850Y-89955894D01*
X171698850Y-90756706D01*
X171700511Y-90773573D01*
X171705406Y-90789707D01*
X171713352Y-90804574D01*
X171724046Y-90817604D01*
X171737076Y-90828298D01*
X171751943Y-90836244D01*
X171768077Y-90841139D01*
X171785046Y-90842810D01*
X171786672Y-90843975D01*
X171786476Y-90845965D01*
X171784850Y-90846800D01*
X171728491Y-90846800D01*
X171728295Y-90846790D01*
X171717299Y-90845707D01*
X171716914Y-90845631D01*
X171712240Y-90844213D01*
X171711878Y-90844063D01*
X171707577Y-90841764D01*
X171707251Y-90841546D01*
X171700954Y-90836379D01*
X171680827Y-90822930D01*
X171658553Y-90813704D01*
X171634902Y-90809000D01*
X171610796Y-90809000D01*
X171587146Y-90813705D01*
X171564872Y-90822931D01*
X171544746Y-90836379D01*
X171538449Y-90841546D01*
X171538123Y-90841764D01*
X171533822Y-90844063D01*
X171533460Y-90844213D01*
X171528786Y-90845631D01*
X171528401Y-90845707D01*
X171517405Y-90846790D01*
X171517209Y-90846800D01*
X171460850Y-90846800D01*
X171459118Y-90845800D01*
X171459118Y-90843800D01*
X171460654Y-90842810D01*
X171477623Y-90841139D01*
X171493757Y-90836244D01*
X171508624Y-90828298D01*
X171521654Y-90817604D01*
X171532348Y-90804574D01*
X171540294Y-90789707D01*
X171545189Y-90773573D01*
X171546850Y-90756706D01*
X171546850Y-89955894D01*
X171545189Y-89939027D01*
X171540294Y-89922893D01*
X171532348Y-89908026D01*
X171521654Y-89894996D01*
X171508624Y-89884302D01*
X171493757Y-89876356D01*
X171477623Y-89871461D01*
X171460756Y-89869800D01*
X171284944Y-89869800D01*
X171268077Y-89871461D01*
X171251943Y-89876356D01*
X171237076Y-89884302D01*
X171224046Y-89894996D01*
X171213352Y-89908026D01*
X171205406Y-89922893D01*
X171200511Y-89939027D01*
X171198850Y-89955894D01*
X171198850Y-90756706D01*
X171200511Y-90773573D01*
X171205406Y-90789707D01*
X171213352Y-90804574D01*
X171224046Y-90817604D01*
X171237076Y-90828298D01*
X171251943Y-90836244D01*
X171268077Y-90841139D01*
X171285046Y-90842810D01*
X171286672Y-90843975D01*
X171286476Y-90845965D01*
X171284850Y-90846800D01*
X171228491Y-90846800D01*
X171228295Y-90846790D01*
X171217299Y-90845707D01*
X171216914Y-90845631D01*
X171212240Y-90844213D01*
X171211878Y-90844063D01*
X171207577Y-90841764D01*
X171207251Y-90841546D01*
X171200954Y-90836379D01*
X171180827Y-90822930D01*
X171158553Y-90813704D01*
X171134902Y-90809000D01*
X171110796Y-90809000D01*
X171087146Y-90813705D01*
X171064872Y-90822931D01*
X171044746Y-90836379D01*
X171038449Y-90841546D01*
X171038123Y-90841764D01*
X171033822Y-90844063D01*
X171033460Y-90844213D01*
X171028786Y-90845631D01*
X171028401Y-90845707D01*
X171017405Y-90846790D01*
X171017209Y-90846800D01*
X170960850Y-90846800D01*
X170959118Y-90845800D01*
X170959118Y-90843800D01*
X170960654Y-90842810D01*
X170977623Y-90841139D01*
X170993757Y-90836244D01*
X171008624Y-90828298D01*
X171021654Y-90817604D01*
X171032348Y-90804574D01*
X171040294Y-90789707D01*
X171045189Y-90773573D01*
X171046850Y-90756706D01*
X171046850Y-89955894D01*
X171045189Y-89939027D01*
X171040294Y-89922893D01*
X171032348Y-89908026D01*
X171021654Y-89894996D01*
X171008624Y-89884302D01*
X170993757Y-89876356D01*
X170977623Y-89871461D01*
X170960756Y-89869800D01*
X170784944Y-89869800D01*
X170768077Y-89871461D01*
X170751943Y-89876356D01*
X170737076Y-89884302D01*
X170724046Y-89894996D01*
X170713352Y-89908026D01*
X170705406Y-89922893D01*
X170700511Y-89939027D01*
X170698850Y-89955894D01*
X170698850Y-90756706D01*
X170700511Y-90773573D01*
X170705406Y-90789707D01*
X170713352Y-90804574D01*
X170724046Y-90817604D01*
X170737076Y-90828298D01*
X170751943Y-90836244D01*
X170768077Y-90841139D01*
X170785046Y-90842810D01*
X170786672Y-90843975D01*
X170786476Y-90845965D01*
X170784850Y-90846800D01*
X170728491Y-90846800D01*
X170728295Y-90846790D01*
X170717299Y-90845707D01*
X170716914Y-90845631D01*
X170712240Y-90844213D01*
X170711878Y-90844063D01*
X170707577Y-90841764D01*
X170707251Y-90841546D01*
X170700954Y-90836379D01*
X170680827Y-90822930D01*
X170658553Y-90813704D01*
X170634902Y-90809000D01*
X170610796Y-90809000D01*
X170587146Y-90813705D01*
X170564872Y-90822931D01*
X170544746Y-90836379D01*
X170538449Y-90841546D01*
X170538123Y-90841764D01*
X170533822Y-90844063D01*
X170533460Y-90844213D01*
X170528786Y-90845631D01*
X170528401Y-90845707D01*
X170517405Y-90846790D01*
X170517209Y-90846800D01*
X170460850Y-90846800D01*
X170459118Y-90845800D01*
X170459118Y-90843800D01*
X170460654Y-90842810D01*
X170477623Y-90841139D01*
X170493757Y-90836244D01*
X170508624Y-90828298D01*
X170521654Y-90817604D01*
X170532348Y-90804574D01*
X170540294Y-90789707D01*
X170545189Y-90773573D01*
X170546850Y-90756706D01*
X170546850Y-89955894D01*
X170545189Y-89939027D01*
X170540294Y-89922893D01*
X170532348Y-89908026D01*
X170521654Y-89894996D01*
X170508624Y-89884302D01*
X170493757Y-89876356D01*
X170477623Y-89871461D01*
X170460756Y-89869800D01*
X170284944Y-89869800D01*
X170268077Y-89871461D01*
X170251943Y-89876356D01*
X170237076Y-89884302D01*
X170224046Y-89894996D01*
X170213352Y-89908026D01*
X170205406Y-89922893D01*
X170200511Y-89939027D01*
X170198850Y-89955894D01*
X170198850Y-90756706D01*
X170200511Y-90773573D01*
X170205406Y-90789707D01*
X170213352Y-90804574D01*
X170224046Y-90817604D01*
X170237076Y-90828298D01*
X170251943Y-90836244D01*
X170268077Y-90841139D01*
X170285046Y-90842810D01*
X170286672Y-90843975D01*
X170286476Y-90845965D01*
X170284850Y-90846800D01*
X170228491Y-90846800D01*
X170228295Y-90846790D01*
X170217299Y-90845707D01*
X170216914Y-90845631D01*
X170212240Y-90844213D01*
X170211878Y-90844063D01*
X170207577Y-90841764D01*
X170207251Y-90841546D01*
X170200954Y-90836379D01*
X170180827Y-90822930D01*
X170158553Y-90813704D01*
X170134902Y-90809000D01*
X170110796Y-90809000D01*
X170087146Y-90813705D01*
X170064872Y-90822931D01*
X170044746Y-90836379D01*
X170038449Y-90841546D01*
X170038123Y-90841764D01*
X170033822Y-90844063D01*
X170033460Y-90844213D01*
X170028786Y-90845631D01*
X170028401Y-90845707D01*
X170017405Y-90846790D01*
X170017209Y-90846800D01*
X169960850Y-90846800D01*
X169959118Y-90845800D01*
X169959118Y-90843800D01*
X169960654Y-90842810D01*
X169977623Y-90841139D01*
X169993757Y-90836244D01*
X170008624Y-90828298D01*
X170021654Y-90817604D01*
X170032348Y-90804574D01*
X170040294Y-90789707D01*
X170045189Y-90773573D01*
X170046850Y-90756706D01*
X170046850Y-89955894D01*
X170045189Y-89939027D01*
X170040294Y-89922893D01*
X170032348Y-89908026D01*
X170021654Y-89894996D01*
X170008624Y-89884302D01*
X169993757Y-89876356D01*
X169977623Y-89871461D01*
X169960756Y-89869800D01*
X169784944Y-89869800D01*
X169768077Y-89871461D01*
X169751943Y-89876356D01*
X169737076Y-89884302D01*
X169724046Y-89894996D01*
X169713352Y-89908026D01*
X169705406Y-89922893D01*
X169700511Y-89939027D01*
X169698850Y-89955894D01*
X169698850Y-90756706D01*
X169700511Y-90773573D01*
X169705406Y-90789707D01*
X169713352Y-90804574D01*
X169724046Y-90817604D01*
X169737076Y-90828298D01*
X169751943Y-90836244D01*
X169768077Y-90841139D01*
X169785046Y-90842810D01*
X169786672Y-90843975D01*
X169786476Y-90845965D01*
X169784850Y-90846800D01*
X169728491Y-90846800D01*
X169728295Y-90846790D01*
X169717299Y-90845707D01*
X169716914Y-90845631D01*
X169712240Y-90844213D01*
X169711878Y-90844063D01*
X169707577Y-90841764D01*
X169707251Y-90841546D01*
X169700954Y-90836379D01*
X169680827Y-90822930D01*
X169658553Y-90813704D01*
X169634902Y-90809000D01*
X169610796Y-90809000D01*
X169587146Y-90813705D01*
X169564872Y-90822931D01*
X169544746Y-90836379D01*
X169538449Y-90841546D01*
X169538123Y-90841764D01*
X169533822Y-90844063D01*
X169533460Y-90844213D01*
X169528786Y-90845631D01*
X169528401Y-90845707D01*
X169517405Y-90846790D01*
X169517209Y-90846800D01*
X169460850Y-90846800D01*
X169459118Y-90845800D01*
X169459118Y-90843800D01*
X169460654Y-90842810D01*
X169477623Y-90841139D01*
X169493757Y-90836244D01*
X169508624Y-90828298D01*
X169521654Y-90817604D01*
X169532348Y-90804574D01*
X169540294Y-90789707D01*
X169545189Y-90773573D01*
X169546850Y-90756706D01*
X169546850Y-89955894D01*
X169545189Y-89939027D01*
X169540294Y-89922893D01*
X169532348Y-89908026D01*
X169521654Y-89894996D01*
X169508624Y-89884302D01*
X169493757Y-89876356D01*
X169477623Y-89871461D01*
X169460756Y-89869800D01*
X169284944Y-89869800D01*
X169268077Y-89871461D01*
X169251943Y-89876356D01*
X169237076Y-89884302D01*
X169224046Y-89894996D01*
X169213352Y-89908026D01*
X169205406Y-89922893D01*
X169200511Y-89939027D01*
X169198850Y-89955894D01*
X169198850Y-90756706D01*
X169200511Y-90773573D01*
X169205406Y-90789707D01*
X169213352Y-90804574D01*
X169224046Y-90817604D01*
X169237076Y-90828298D01*
X169251943Y-90836244D01*
X169268077Y-90841139D01*
X169285046Y-90842810D01*
X169286672Y-90843975D01*
X169286476Y-90845965D01*
X169284850Y-90846800D01*
X169228491Y-90846800D01*
X169228295Y-90846790D01*
X169217299Y-90845707D01*
X169216914Y-90845631D01*
X169212240Y-90844213D01*
X169211878Y-90844063D01*
X169207577Y-90841764D01*
X169207251Y-90841546D01*
X169200954Y-90836379D01*
X169180827Y-90822930D01*
X169158553Y-90813704D01*
X169134902Y-90809000D01*
X169110796Y-90809000D01*
X169087146Y-90813705D01*
X169064872Y-90822931D01*
X169044746Y-90836379D01*
X169038449Y-90841546D01*
X169038123Y-90841764D01*
X169033822Y-90844063D01*
X169033460Y-90844213D01*
X169028786Y-90845631D01*
X169028401Y-90845707D01*
X169017405Y-90846790D01*
X169017209Y-90846800D01*
X168960850Y-90846800D01*
X168959118Y-90845800D01*
X168959118Y-90843800D01*
X168960654Y-90842810D01*
X168977623Y-90841139D01*
X168993757Y-90836244D01*
X169008624Y-90828298D01*
X169021654Y-90817604D01*
X169032348Y-90804574D01*
X169040294Y-90789707D01*
X169045189Y-90773573D01*
X169046850Y-90756706D01*
X169046850Y-89955894D01*
X169045189Y-89939027D01*
X169040294Y-89922893D01*
X169032348Y-89908026D01*
X169021654Y-89894996D01*
X169008624Y-89884302D01*
X168993757Y-89876356D01*
X168977623Y-89871461D01*
X168960756Y-89869800D01*
X168784944Y-89869800D01*
X168768077Y-89871461D01*
X168751943Y-89876356D01*
X168737076Y-89884302D01*
X168724046Y-89894996D01*
X168713352Y-89908026D01*
X168705406Y-89922893D01*
X168700511Y-89939027D01*
X168698850Y-89955894D01*
X168698850Y-90756706D01*
X168700511Y-90773573D01*
X168705406Y-90789707D01*
X168713352Y-90804574D01*
X168724046Y-90817604D01*
X168737076Y-90828298D01*
X168751943Y-90836244D01*
X168768077Y-90841139D01*
X168785046Y-90842810D01*
X168786672Y-90843975D01*
X168786476Y-90845965D01*
X168784850Y-90846800D01*
X168728491Y-90846800D01*
X168728295Y-90846790D01*
X168717299Y-90845707D01*
X168716914Y-90845631D01*
X168712240Y-90844213D01*
X168711878Y-90844063D01*
X168707577Y-90841764D01*
X168707251Y-90841546D01*
X168700954Y-90836379D01*
X168680827Y-90822930D01*
X168658553Y-90813704D01*
X168634902Y-90809000D01*
X168610796Y-90809000D01*
X168587146Y-90813705D01*
X168564872Y-90822931D01*
X168544746Y-90836379D01*
X168538449Y-90841546D01*
X168538123Y-90841764D01*
X168533822Y-90844063D01*
X168533460Y-90844213D01*
X168528786Y-90845631D01*
X168528401Y-90845707D01*
X168517405Y-90846790D01*
X168517209Y-90846800D01*
X168460850Y-90846800D01*
X168459118Y-90845800D01*
X168459118Y-90843800D01*
X168460654Y-90842810D01*
X168477623Y-90841139D01*
X168493757Y-90836244D01*
X168508624Y-90828298D01*
X168521654Y-90817604D01*
X168532348Y-90804574D01*
X168540294Y-90789707D01*
X168545189Y-90773573D01*
X168546850Y-90756706D01*
X168546850Y-89955894D01*
X168545189Y-89939027D01*
X168540294Y-89922893D01*
X168532348Y-89908026D01*
X168521654Y-89894996D01*
X168508624Y-89884302D01*
X168493757Y-89876356D01*
X168477623Y-89871461D01*
X168460756Y-89869800D01*
X168284944Y-89869800D01*
X168268077Y-89871461D01*
X168251943Y-89876356D01*
X168237076Y-89884302D01*
X168224046Y-89894996D01*
X168213352Y-89908026D01*
X168205406Y-89922893D01*
X168200511Y-89939027D01*
X168198850Y-89955894D01*
X168198850Y-90756706D01*
X168200511Y-90773573D01*
X168205406Y-90789707D01*
X168213352Y-90804574D01*
X168224046Y-90817604D01*
X168237076Y-90828298D01*
X168251943Y-90836244D01*
X168268077Y-90841139D01*
X168285046Y-90842810D01*
X168286672Y-90843975D01*
X168286476Y-90845965D01*
X168284850Y-90846800D01*
X168228491Y-90846800D01*
X168228295Y-90846790D01*
X168217299Y-90845707D01*
X168216914Y-90845631D01*
X168212240Y-90844213D01*
X168211878Y-90844063D01*
X168207577Y-90841764D01*
X168207251Y-90841546D01*
X168200954Y-90836379D01*
X168180827Y-90822930D01*
X168158553Y-90813704D01*
X168134902Y-90809000D01*
X168110796Y-90809000D01*
X168087146Y-90813705D01*
X168064872Y-90822931D01*
X168044746Y-90836379D01*
X168038449Y-90841546D01*
X168038123Y-90841764D01*
X168033822Y-90844063D01*
X168033460Y-90844213D01*
X168028786Y-90845631D01*
X168028401Y-90845707D01*
X168017405Y-90846790D01*
X168017209Y-90846800D01*
X167960850Y-90846800D01*
X167959118Y-90845800D01*
X167959118Y-90843800D01*
X167960654Y-90842810D01*
X167977623Y-90841139D01*
X167993757Y-90836244D01*
X168008624Y-90828298D01*
X168021654Y-90817604D01*
X168032348Y-90804574D01*
X168040294Y-90789707D01*
X168045189Y-90773573D01*
X168046850Y-90756706D01*
X168046850Y-89955894D01*
X168045189Y-89939027D01*
X168040294Y-89922893D01*
X168032348Y-89908026D01*
X168021654Y-89894996D01*
X168008624Y-89884302D01*
X167993757Y-89876356D01*
X167977623Y-89871461D01*
X167960756Y-89869800D01*
X167784944Y-89869800D01*
X167768077Y-89871461D01*
X167751943Y-89876356D01*
X167737076Y-89884302D01*
X167724046Y-89894996D01*
X167713352Y-89908026D01*
X167705406Y-89922893D01*
X167700511Y-89939027D01*
X167698850Y-89955894D01*
X167698850Y-90756706D01*
X167700511Y-90773573D01*
X167705406Y-90789707D01*
X167713352Y-90804574D01*
X167724046Y-90817604D01*
X167737076Y-90828298D01*
X167751943Y-90836244D01*
X167768077Y-90841139D01*
X167785046Y-90842810D01*
X167786672Y-90843975D01*
X167786476Y-90845965D01*
X167784850Y-90846800D01*
X167728491Y-90846800D01*
X167728295Y-90846790D01*
X167717299Y-90845707D01*
X167716914Y-90845631D01*
X167712240Y-90844213D01*
X167711878Y-90844063D01*
X167707577Y-90841764D01*
X167707251Y-90841546D01*
X167700954Y-90836379D01*
X167680827Y-90822930D01*
X167658553Y-90813704D01*
X167634902Y-90809000D01*
X167610796Y-90809000D01*
X167587146Y-90813705D01*
X167564872Y-90822931D01*
X167544746Y-90836379D01*
X167538449Y-90841546D01*
X167538123Y-90841764D01*
X167533822Y-90844063D01*
X167533460Y-90844213D01*
X167528786Y-90845631D01*
X167528401Y-90845707D01*
X167517405Y-90846790D01*
X167517209Y-90846800D01*
X167460850Y-90846800D01*
X167459118Y-90845800D01*
X167459118Y-90843800D01*
X167460654Y-90842810D01*
X167477623Y-90841139D01*
X167493757Y-90836244D01*
X167508624Y-90828298D01*
X167521654Y-90817604D01*
X167532348Y-90804574D01*
X167540294Y-90789707D01*
X167545189Y-90773573D01*
X167546850Y-90756706D01*
X167546850Y-89955894D01*
X167545189Y-89939027D01*
X167540294Y-89922893D01*
X167532348Y-89908026D01*
X167521654Y-89894996D01*
X167508624Y-89884302D01*
X167493757Y-89876356D01*
X167477623Y-89871461D01*
X167460756Y-89869800D01*
X167284944Y-89869800D01*
X167268077Y-89871461D01*
X167251943Y-89876356D01*
X167237076Y-89884302D01*
X167224046Y-89894996D01*
X167213352Y-89908026D01*
X167205406Y-89922893D01*
X167200511Y-89939027D01*
X167198850Y-89955894D01*
X167198850Y-89969799D01*
X167197850Y-89971531D01*
X167195850Y-89971531D01*
X167194860Y-89969995D01*
X167192478Y-89945808D01*
X167185478Y-89922733D01*
X167174113Y-89901469D01*
X167158818Y-89882832D01*
X167140181Y-89867537D01*
X167118917Y-89856172D01*
X167095842Y-89849172D01*
X167071655Y-89846790D01*
X167070029Y-89845625D01*
X167070225Y-89843635D01*
X167071851Y-89842800D01*
X167085756Y-89842800D01*
X167102623Y-89841139D01*
X167118757Y-89836244D01*
X167133624Y-89828298D01*
X167146654Y-89817604D01*
X167157348Y-89804574D01*
X167165294Y-89789707D01*
X167170189Y-89773573D01*
X167171850Y-89756706D01*
X167171850Y-89580894D01*
X167170189Y-89564027D01*
X167165294Y-89547893D01*
X167157348Y-89533026D01*
X167146654Y-89519996D01*
X167133624Y-89509302D01*
X167118757Y-89501356D01*
X167102623Y-89496461D01*
X167085756Y-89494800D01*
X166284944Y-89494800D01*
X166268077Y-89496461D01*
X166251943Y-89501356D01*
X166237076Y-89509302D01*
X166224046Y-89519996D01*
X166213352Y-89533026D01*
X166205406Y-89547893D01*
X166200511Y-89564027D01*
X166198840Y-89580996D01*
X166197675Y-89582622D01*
X166195685Y-89582426D01*
X166194850Y-89580800D01*
X166194850Y-89524441D01*
X166194860Y-89524245D01*
X166195943Y-89513249D01*
X166196019Y-89512864D01*
X166197437Y-89508190D01*
X166197587Y-89507828D01*
X166199886Y-89503527D01*
X166200104Y-89503201D01*
X166205271Y-89496904D01*
X166218720Y-89476777D01*
X166227946Y-89454503D01*
X166232650Y-89430852D01*
X166232650Y-89406746D01*
X166227945Y-89383096D01*
X166218719Y-89360822D01*
X166205271Y-89340696D01*
X166200104Y-89334399D01*
X166199886Y-89334073D01*
X166197587Y-89329772D01*
X166197437Y-89329410D01*
X166196019Y-89324736D01*
X166195943Y-89324351D01*
X166194860Y-89313355D01*
X166194850Y-89313159D01*
X166194850Y-89256800D01*
X166195850Y-89255068D01*
X166197850Y-89255068D01*
X166198840Y-89256604D01*
X166200511Y-89273573D01*
X166205406Y-89289707D01*
X166213352Y-89304574D01*
X166224046Y-89317604D01*
X166237076Y-89328298D01*
X166251943Y-89336244D01*
X166268077Y-89341139D01*
X166284944Y-89342800D01*
X167085756Y-89342800D01*
X167102623Y-89341139D01*
X167118757Y-89336244D01*
X167133624Y-89328298D01*
X167146654Y-89317604D01*
X167157348Y-89304574D01*
X167165294Y-89289707D01*
X167170189Y-89273573D01*
X167171850Y-89256706D01*
X167171850Y-89080894D01*
X167170189Y-89064027D01*
X167165294Y-89047893D01*
X167157348Y-89033026D01*
X167146654Y-89019996D01*
X167133624Y-89009302D01*
X167118757Y-89001356D01*
X167102623Y-88996461D01*
X167085756Y-88994800D01*
X166284944Y-88994800D01*
X166268077Y-88996461D01*
X166251943Y-89001356D01*
X166237076Y-89009302D01*
X166224046Y-89019996D01*
X166213352Y-89033026D01*
X166205406Y-89047893D01*
X166200511Y-89064027D01*
X166198840Y-89080996D01*
X166197675Y-89082622D01*
X166195685Y-89082426D01*
X166194850Y-89080800D01*
X166194850Y-89024441D01*
X166194860Y-89024245D01*
X166195943Y-89013249D01*
X166196019Y-89012864D01*
X166197437Y-89008190D01*
X166197587Y-89007828D01*
X166199886Y-89003527D01*
X166200104Y-89003201D01*
X166205271Y-88996904D01*
X166218720Y-88976777D01*
X166227946Y-88954503D01*
X166232650Y-88930852D01*
X166232650Y-88906746D01*
X166227945Y-88883096D01*
X166218719Y-88860822D01*
X166205271Y-88840696D01*
X166200104Y-88834399D01*
X166199886Y-88834073D01*
X166197587Y-88829772D01*
X166197437Y-88829410D01*
X166196019Y-88824736D01*
X166195943Y-88824351D01*
X166194860Y-88813355D01*
X166194850Y-88813159D01*
X166194850Y-88756800D01*
X166195850Y-88755068D01*
X166197850Y-88755068D01*
X166198840Y-88756604D01*
X166200511Y-88773573D01*
X166205406Y-88789707D01*
X166213352Y-88804574D01*
X166224046Y-88817604D01*
X166237076Y-88828298D01*
X166251943Y-88836244D01*
X166268077Y-88841139D01*
X166284944Y-88842800D01*
X167085756Y-88842800D01*
X167102623Y-88841139D01*
X167118757Y-88836244D01*
X167133624Y-88828298D01*
X167146654Y-88817604D01*
X167157348Y-88804574D01*
X167165294Y-88789707D01*
X167170189Y-88773573D01*
X167171850Y-88756706D01*
X167171850Y-88580894D01*
X167170189Y-88564027D01*
X167165294Y-88547893D01*
X167157348Y-88533026D01*
X167146654Y-88519996D01*
X167133624Y-88509302D01*
X167118757Y-88501356D01*
X167102623Y-88496461D01*
X167085756Y-88494800D01*
X166284944Y-88494800D01*
X166268077Y-88496461D01*
X166251943Y-88501356D01*
X166237076Y-88509302D01*
X166224046Y-88519996D01*
X166213352Y-88533026D01*
X166205406Y-88547893D01*
X166200511Y-88564027D01*
X166198840Y-88580996D01*
X166197675Y-88582622D01*
X166195685Y-88582426D01*
X166194850Y-88580800D01*
X166194850Y-88524441D01*
X166194860Y-88524245D01*
X166195943Y-88513249D01*
X166196019Y-88512864D01*
X166197437Y-88508190D01*
X166197587Y-88507828D01*
X166199886Y-88503527D01*
X166200104Y-88503201D01*
X166205271Y-88496904D01*
X166218720Y-88476777D01*
X166227946Y-88454503D01*
X166232650Y-88430852D01*
X166232650Y-88406746D01*
X166227945Y-88383096D01*
X166218719Y-88360822D01*
X166205271Y-88340696D01*
X166200104Y-88334399D01*
X166199886Y-88334073D01*
X166197587Y-88329772D01*
X166197437Y-88329410D01*
X166196019Y-88324736D01*
X166195943Y-88324351D01*
X166194860Y-88313355D01*
X166194850Y-88313159D01*
X166194850Y-88256800D01*
X166195850Y-88255068D01*
X166197850Y-88255068D01*
X166198840Y-88256604D01*
X166200511Y-88273573D01*
X166205406Y-88289707D01*
X166213352Y-88304574D01*
X166224046Y-88317604D01*
X166237076Y-88328298D01*
X166251943Y-88336244D01*
X166268077Y-88341139D01*
X166284944Y-88342800D01*
X167085756Y-88342800D01*
X167102623Y-88341139D01*
X167118757Y-88336244D01*
X167133624Y-88328298D01*
X167146654Y-88317604D01*
X167157348Y-88304574D01*
X167165294Y-88289707D01*
X167170189Y-88273573D01*
X167171850Y-88256706D01*
X167171850Y-88080894D01*
X167170189Y-88064027D01*
X167165294Y-88047893D01*
X167157348Y-88033026D01*
X167146654Y-88019996D01*
X167133624Y-88009302D01*
X167118757Y-88001356D01*
X167102623Y-87996461D01*
X167085756Y-87994800D01*
X166284944Y-87994800D01*
X166268077Y-87996461D01*
X166251943Y-88001356D01*
X166237076Y-88009302D01*
X166224046Y-88019996D01*
X166213352Y-88033026D01*
X166205406Y-88047893D01*
X166200511Y-88064027D01*
X166198840Y-88080996D01*
X166197675Y-88082622D01*
X166195685Y-88082426D01*
X166194850Y-88080800D01*
X166194850Y-88024441D01*
X166194860Y-88024245D01*
X166195943Y-88013249D01*
X166196019Y-88012864D01*
X166197437Y-88008190D01*
X166197587Y-88007828D01*
X166199886Y-88003527D01*
X166200104Y-88003201D01*
X166205271Y-87996904D01*
X166218720Y-87976777D01*
X166227946Y-87954503D01*
X166232650Y-87930852D01*
X166232650Y-87906746D01*
X166227945Y-87883096D01*
X166218719Y-87860822D01*
X166205271Y-87840696D01*
X166200104Y-87834399D01*
X166199886Y-87834073D01*
X166197587Y-87829772D01*
X166197437Y-87829410D01*
X166196019Y-87824736D01*
X166195943Y-87824351D01*
X166194860Y-87813355D01*
X166194850Y-87813159D01*
X166194850Y-87756800D01*
X166195850Y-87755068D01*
X166197850Y-87755068D01*
X166198840Y-87756604D01*
X166200511Y-87773573D01*
X166205406Y-87789707D01*
X166213352Y-87804574D01*
X166224046Y-87817604D01*
X166237076Y-87828298D01*
X166251943Y-87836244D01*
X166268077Y-87841139D01*
X166284944Y-87842800D01*
X167085756Y-87842800D01*
X167102623Y-87841139D01*
X167118757Y-87836244D01*
X167133624Y-87828298D01*
X167146654Y-87817604D01*
X167157348Y-87804574D01*
X167165294Y-87789707D01*
X167170189Y-87773573D01*
X167171850Y-87756706D01*
X167171850Y-87580894D01*
X167170189Y-87564027D01*
X167165294Y-87547893D01*
X167157348Y-87533026D01*
X167146654Y-87519996D01*
X167133624Y-87509302D01*
X167118757Y-87501356D01*
X167102623Y-87496461D01*
X167085756Y-87494800D01*
X166284944Y-87494800D01*
X166268077Y-87496461D01*
X166251943Y-87501356D01*
X166237076Y-87509302D01*
X166224046Y-87519996D01*
X166213352Y-87533026D01*
X166205406Y-87547893D01*
X166200511Y-87564027D01*
X166198840Y-87580996D01*
X166197675Y-87582622D01*
X166195685Y-87582426D01*
X166194850Y-87580800D01*
X166194850Y-87524441D01*
X166194860Y-87524245D01*
X166195943Y-87513249D01*
X166196019Y-87512864D01*
X166197437Y-87508190D01*
X166197587Y-87507828D01*
X166199886Y-87503527D01*
X166200104Y-87503201D01*
X166205271Y-87496904D01*
X166218720Y-87476777D01*
X166227946Y-87454503D01*
X166232650Y-87430852D01*
X166232650Y-87406746D01*
X166227945Y-87383096D01*
X166218719Y-87360822D01*
X166205271Y-87340696D01*
X166200104Y-87334399D01*
X166199886Y-87334073D01*
X166197587Y-87329772D01*
X166197437Y-87329410D01*
X166196019Y-87324736D01*
X166195943Y-87324351D01*
X166194860Y-87313355D01*
X166194850Y-87313159D01*
X166194850Y-87256800D01*
X166195850Y-87255068D01*
X166197850Y-87255068D01*
X166198840Y-87256604D01*
X166200511Y-87273573D01*
X166205406Y-87289707D01*
X166213352Y-87304574D01*
X166224046Y-87317604D01*
X166237076Y-87328298D01*
X166251943Y-87336244D01*
X166268077Y-87341139D01*
X166284944Y-87342800D01*
X167085756Y-87342800D01*
X167102623Y-87341139D01*
X167118757Y-87336244D01*
X167133624Y-87328298D01*
X167146654Y-87317604D01*
X167157348Y-87304574D01*
X167165294Y-87289707D01*
X167170189Y-87273573D01*
X167171850Y-87256706D01*
X167171850Y-87080894D01*
X167170189Y-87064027D01*
X167165294Y-87047893D01*
X167157348Y-87033026D01*
X167146654Y-87019996D01*
X167133624Y-87009302D01*
X167118757Y-87001356D01*
X167102623Y-86996461D01*
X167085756Y-86994800D01*
X166284944Y-86994800D01*
X166268077Y-86996461D01*
X166251943Y-87001356D01*
X166237076Y-87009302D01*
X166224046Y-87019996D01*
X166213352Y-87033026D01*
X166205406Y-87047893D01*
X166200511Y-87064027D01*
X166198840Y-87080996D01*
X166197675Y-87082622D01*
X166195685Y-87082426D01*
X166194850Y-87080800D01*
X166194850Y-87024441D01*
X166194860Y-87024245D01*
X166195943Y-87013249D01*
X166196019Y-87012864D01*
X166197437Y-87008190D01*
X166197587Y-87007828D01*
X166199886Y-87003527D01*
X166200104Y-87003201D01*
X166205271Y-86996904D01*
X166218720Y-86976777D01*
X166227946Y-86954503D01*
X166232650Y-86930852D01*
X166232650Y-86906746D01*
X166227945Y-86883096D01*
X166218719Y-86860822D01*
X166205271Y-86840696D01*
X166200104Y-86834399D01*
X166199886Y-86834073D01*
X166197587Y-86829772D01*
X166197437Y-86829410D01*
X166196019Y-86824736D01*
X166195943Y-86824351D01*
X166194860Y-86813355D01*
X166194850Y-86813159D01*
X166194850Y-86756800D01*
X166195850Y-86755068D01*
X166197850Y-86755068D01*
X166198840Y-86756604D01*
X166200511Y-86773573D01*
X166205406Y-86789707D01*
X166213352Y-86804574D01*
X166224046Y-86817604D01*
X166237076Y-86828298D01*
X166251943Y-86836244D01*
X166268077Y-86841139D01*
X166284944Y-86842800D01*
X167085756Y-86842800D01*
X167102623Y-86841139D01*
X167118757Y-86836244D01*
X167133624Y-86828298D01*
X167146654Y-86817604D01*
X167157348Y-86804574D01*
X167165294Y-86789707D01*
X167170189Y-86773573D01*
X167171850Y-86756706D01*
X167171850Y-86580894D01*
X167170189Y-86564027D01*
X167165294Y-86547893D01*
X167157348Y-86533026D01*
X167146654Y-86519996D01*
X167133624Y-86509302D01*
X167118757Y-86501356D01*
X167102623Y-86496461D01*
X167085756Y-86494800D01*
X166284944Y-86494800D01*
X166268077Y-86496461D01*
X166251943Y-86501356D01*
X166237076Y-86509302D01*
X166224046Y-86519996D01*
X166213352Y-86533026D01*
X166205406Y-86547893D01*
X166200511Y-86564027D01*
X166198840Y-86580996D01*
X166197675Y-86582622D01*
X166195685Y-86582426D01*
X166194850Y-86580800D01*
X166194850Y-86524441D01*
X166194860Y-86524245D01*
X166195943Y-86513249D01*
X166196019Y-86512864D01*
X166197437Y-86508190D01*
X166197587Y-86507828D01*
X166199886Y-86503527D01*
X166200104Y-86503201D01*
X166205271Y-86496904D01*
X166218720Y-86476777D01*
X166227946Y-86454503D01*
X166232650Y-86430852D01*
X166232650Y-86406746D01*
X166227945Y-86383096D01*
X166218719Y-86360822D01*
X166205271Y-86340696D01*
X166200104Y-86334399D01*
X166199886Y-86334073D01*
X166197587Y-86329772D01*
X166197437Y-86329410D01*
X166196019Y-86324736D01*
X166195943Y-86324351D01*
X166194860Y-86313355D01*
X166194850Y-86313159D01*
X166194850Y-86256800D01*
X166195850Y-86255068D01*
X166197850Y-86255068D01*
X166198840Y-86256604D01*
X166200511Y-86273573D01*
X166205406Y-86289707D01*
X166213352Y-86304574D01*
X166224046Y-86317604D01*
X166237076Y-86328298D01*
X166251943Y-86336244D01*
X166268077Y-86341139D01*
X166284944Y-86342800D01*
X167085756Y-86342800D01*
X167102623Y-86341139D01*
X167118757Y-86336244D01*
X167133624Y-86328298D01*
X167146654Y-86317604D01*
X167157348Y-86304574D01*
X167165294Y-86289707D01*
X167170189Y-86273573D01*
X167171850Y-86256706D01*
X167171850Y-86080894D01*
X167170189Y-86064027D01*
X167165294Y-86047893D01*
X167157348Y-86033026D01*
X167146654Y-86019996D01*
X167133624Y-86009302D01*
X167118757Y-86001356D01*
X167102623Y-85996461D01*
X167085756Y-85994800D01*
X166284944Y-85994800D01*
X166268077Y-85996461D01*
X166251943Y-86001356D01*
X166237076Y-86009302D01*
X166224046Y-86019996D01*
X166213352Y-86033026D01*
X166205406Y-86047893D01*
X166200511Y-86064027D01*
X166198840Y-86080996D01*
X166197675Y-86082622D01*
X166195685Y-86082426D01*
X166194850Y-86080800D01*
X166194850Y-86024441D01*
X166194860Y-86024245D01*
X166195943Y-86013249D01*
X166196019Y-86012864D01*
X166197437Y-86008190D01*
X166197587Y-86007828D01*
X166199886Y-86003527D01*
X166200104Y-86003201D01*
X166205271Y-85996904D01*
X166218720Y-85976777D01*
X166227946Y-85954503D01*
X166232650Y-85930852D01*
X166232650Y-85906746D01*
X166227945Y-85883096D01*
X166218719Y-85860822D01*
X166205271Y-85840696D01*
X166200104Y-85834399D01*
X166199886Y-85834073D01*
X166197587Y-85829772D01*
X166197437Y-85829410D01*
X166196019Y-85824736D01*
X166195943Y-85824351D01*
X166194860Y-85813355D01*
X166194850Y-85813159D01*
X166194850Y-85756800D01*
X166195850Y-85755068D01*
X166197850Y-85755068D01*
X166198840Y-85756604D01*
X166200511Y-85773573D01*
X166205406Y-85789707D01*
X166213352Y-85804574D01*
X166224046Y-85817604D01*
X166237076Y-85828298D01*
X166251943Y-85836244D01*
X166268077Y-85841139D01*
X166284944Y-85842800D01*
X167085756Y-85842800D01*
X167102623Y-85841139D01*
X167118757Y-85836244D01*
X167133624Y-85828298D01*
X167146654Y-85817604D01*
X167157348Y-85804574D01*
X167165294Y-85789707D01*
X167170189Y-85773573D01*
X167171850Y-85756706D01*
X167171850Y-85580894D01*
X167170189Y-85564027D01*
X167165294Y-85547893D01*
X167157348Y-85533026D01*
X167146654Y-85519996D01*
X167133624Y-85509302D01*
X167118757Y-85501356D01*
X167102623Y-85496461D01*
X167085756Y-85494800D01*
X166284944Y-85494800D01*
X166268077Y-85496461D01*
X166251943Y-85501356D01*
X166237076Y-85509302D01*
X166224046Y-85519996D01*
X166213352Y-85533026D01*
X166205406Y-85547893D01*
X166200511Y-85564027D01*
X166198840Y-85580996D01*
X166197675Y-85582622D01*
X166195685Y-85582426D01*
X166194850Y-85580800D01*
X166194850Y-85524441D01*
X166194860Y-85524245D01*
X166195943Y-85513249D01*
X166196019Y-85512864D01*
X166197437Y-85508190D01*
X166197587Y-85507828D01*
X166199886Y-85503527D01*
X166200104Y-85503201D01*
X166205271Y-85496904D01*
X166218720Y-85476777D01*
X166227946Y-85454503D01*
X166232650Y-85430852D01*
X166232650Y-85406746D01*
X166227945Y-85383096D01*
X166218719Y-85360822D01*
X166205271Y-85340696D01*
X166200104Y-85334399D01*
X166199886Y-85334073D01*
X166197587Y-85329772D01*
X166197437Y-85329410D01*
X166196019Y-85324736D01*
X166195943Y-85324351D01*
X166194860Y-85313355D01*
X166194850Y-85313159D01*
X166194850Y-85256800D01*
X166195850Y-85255068D01*
X166197850Y-85255068D01*
X166198840Y-85256604D01*
X166200511Y-85273573D01*
X166205406Y-85289707D01*
X166213352Y-85304574D01*
X166224046Y-85317604D01*
X166237076Y-85328298D01*
X166251943Y-85336244D01*
X166268077Y-85341139D01*
X166284944Y-85342800D01*
X167085756Y-85342800D01*
X167102623Y-85341139D01*
X167118757Y-85336244D01*
X167133624Y-85328298D01*
X167146654Y-85317604D01*
X167157348Y-85304574D01*
X167165294Y-85289707D01*
X167170189Y-85273573D01*
X167171850Y-85256706D01*
X167171850Y-85080894D01*
X167170189Y-85064027D01*
X167165294Y-85047893D01*
X167157348Y-85033026D01*
X167146654Y-85019996D01*
X167133624Y-85009302D01*
X167118757Y-85001356D01*
X167102623Y-84996461D01*
X167085756Y-84994800D01*
X166284944Y-84994800D01*
X166268077Y-84996461D01*
X166251943Y-85001356D01*
X166237076Y-85009302D01*
X166224046Y-85019996D01*
X166213352Y-85033026D01*
X166205406Y-85047893D01*
X166200511Y-85064027D01*
X166198840Y-85080996D01*
X166197675Y-85082622D01*
X166195685Y-85082426D01*
X166194850Y-85080800D01*
X166194850Y-85024441D01*
X166194860Y-85024245D01*
X166195943Y-85013249D01*
X166196019Y-85012864D01*
X166197437Y-85008190D01*
X166197587Y-85007828D01*
X166199886Y-85003527D01*
X166200104Y-85003201D01*
X166205271Y-84996904D01*
X166218720Y-84976777D01*
X166227946Y-84954503D01*
X166232650Y-84930852D01*
X166232650Y-84906746D01*
X166227945Y-84883096D01*
X166218719Y-84860822D01*
X166205271Y-84840696D01*
X166200104Y-84834399D01*
X166199886Y-84834073D01*
X166197587Y-84829772D01*
X166197437Y-84829410D01*
X166196019Y-84824736D01*
X166195943Y-84824351D01*
X166194860Y-84813355D01*
X166194850Y-84813159D01*
X166194850Y-84756800D01*
X166195850Y-84755068D01*
X166197850Y-84755068D01*
X166198840Y-84756604D01*
X166200511Y-84773573D01*
X166205406Y-84789707D01*
X166213352Y-84804574D01*
X166224046Y-84817604D01*
X166237076Y-84828298D01*
X166251943Y-84836244D01*
X166268077Y-84841139D01*
X166284944Y-84842800D01*
X167085756Y-84842800D01*
X167102623Y-84841139D01*
X167118757Y-84836244D01*
X167133624Y-84828298D01*
X167146654Y-84817604D01*
X167157348Y-84804574D01*
X167165294Y-84789707D01*
X167170189Y-84773573D01*
X167171850Y-84756706D01*
X167171850Y-84580894D01*
X167170189Y-84564027D01*
X167165294Y-84547893D01*
X167157348Y-84533026D01*
X167146654Y-84519996D01*
X167133624Y-84509302D01*
X167118757Y-84501356D01*
X167102623Y-84496461D01*
X167085756Y-84494800D01*
X166284944Y-84494800D01*
X166268077Y-84496461D01*
X166251943Y-84501356D01*
X166237076Y-84509302D01*
X166224046Y-84519996D01*
X166213352Y-84533026D01*
X166205406Y-84547893D01*
X166200511Y-84564027D01*
X166198840Y-84580996D01*
X166197675Y-84582622D01*
X166195685Y-84582426D01*
X166194850Y-84580800D01*
X166194850Y-84524441D01*
X166194860Y-84524245D01*
X166195943Y-84513249D01*
X166196019Y-84512864D01*
X166197437Y-84508190D01*
X166197587Y-84507828D01*
X166199886Y-84503527D01*
X166200104Y-84503201D01*
X166205271Y-84496904D01*
X166218720Y-84476777D01*
X166227946Y-84454503D01*
X166232650Y-84430852D01*
X166232650Y-84406746D01*
X166227945Y-84383096D01*
X166218719Y-84360822D01*
X166205271Y-84340696D01*
X166200104Y-84334399D01*
X166199886Y-84334073D01*
X166197587Y-84329772D01*
X166197437Y-84329410D01*
X166196019Y-84324736D01*
X166195943Y-84324351D01*
X166194860Y-84313355D01*
X166194850Y-84313159D01*
X166194850Y-84256800D01*
X166195850Y-84255068D01*
X166197850Y-84255068D01*
X166198840Y-84256604D01*
X166200511Y-84273573D01*
X166205406Y-84289707D01*
X166213352Y-84304574D01*
X166224046Y-84317604D01*
X166237076Y-84328298D01*
X166251943Y-84336244D01*
X166268077Y-84341139D01*
X166284944Y-84342800D01*
X167085756Y-84342800D01*
X167102623Y-84341139D01*
X167118757Y-84336244D01*
X167133624Y-84328298D01*
X167146654Y-84317604D01*
X167157348Y-84304574D01*
X167165294Y-84289707D01*
X167170189Y-84273573D01*
X167171850Y-84256706D01*
X167171850Y-84080894D01*
X167170758Y-84069800D01*
X167273850Y-84069800D01*
X167273850Y-89767800D01*
X172971850Y-89767800D01*
X172971850Y-84069800D01*
X167273850Y-84069800D01*
X167170758Y-84069800D01*
X167170189Y-84064027D01*
X167165294Y-84047893D01*
X167157348Y-84033026D01*
X167146654Y-84019996D01*
X167133624Y-84009302D01*
X167118757Y-84001356D01*
X167102623Y-83996461D01*
X167085756Y-83994800D01*
X167071851Y-83994800D01*
X167070119Y-83993800D01*
X167070119Y-83991800D01*
X167071655Y-83990810D01*
X167095842Y-83988428D01*
X167118917Y-83981428D01*
X167140181Y-83970063D01*
X167158818Y-83954768D01*
X167174113Y-83936131D01*
X167185478Y-83914867D01*
X167192478Y-83891792D01*
X167194860Y-83867605D01*
X167196025Y-83865979D01*
X167198015Y-83866175D01*
X167198850Y-83867801D01*
X167198850Y-83881706D01*
X167200511Y-83898573D01*
X167205406Y-83914707D01*
X167213352Y-83929574D01*
X167224046Y-83942604D01*
X167237076Y-83953298D01*
X167251943Y-83961244D01*
X167268077Y-83966139D01*
X167284944Y-83967800D01*
X167460756Y-83967800D01*
X167477623Y-83966139D01*
X167493757Y-83961244D01*
X167508624Y-83953298D01*
X167521654Y-83942604D01*
X167532348Y-83929574D01*
X167540294Y-83914707D01*
X167545189Y-83898573D01*
X167546850Y-83881706D01*
X167546850Y-83080894D01*
X167545189Y-83064027D01*
X167540294Y-83047893D01*
X167532348Y-83033026D01*
X167521654Y-83019996D01*
X167508624Y-83009302D01*
X167493757Y-83001356D01*
X167477623Y-82996461D01*
X167460654Y-82994790D01*
X167459028Y-82993625D01*
X167459224Y-82991635D01*
X167460850Y-82990800D01*
X167517209Y-82990800D01*
X167517405Y-82990810D01*
G37*
G36*
X349086060Y-24097951D02*
G01*
X349097584Y-24111993D01*
X349116221Y-24127288D01*
X349137484Y-24138653D01*
X349160559Y-24145653D01*
X349184550Y-24148016D01*
X349208542Y-24145653D01*
X349231616Y-24138653D01*
X349252880Y-24127288D01*
X349271517Y-24111992D01*
X349283040Y-24097951D01*
X349284912Y-24097247D01*
X349286458Y-24098516D01*
X349286249Y-24100331D01*
X349279721Y-24110102D01*
X349251664Y-24177835D01*
X349237361Y-24249745D01*
X349237361Y-24323055D01*
X349251664Y-24394965D01*
X349279721Y-24462698D01*
X349286249Y-24472469D01*
X349286380Y-24474465D01*
X349284717Y-24475576D01*
X349283040Y-24474849D01*
X349271516Y-24460807D01*
X349252879Y-24445512D01*
X349231616Y-24434147D01*
X349208541Y-24427147D01*
X349184550Y-24424784D01*
X349160558Y-24427147D01*
X349137484Y-24434147D01*
X349116220Y-24445512D01*
X349097583Y-24460808D01*
X349086060Y-24474849D01*
X349084188Y-24475553D01*
X349082642Y-24474284D01*
X349082851Y-24472469D01*
X349089379Y-24462698D01*
X349117436Y-24394965D01*
X349131739Y-24323055D01*
X349131739Y-24249745D01*
X349117436Y-24177835D01*
X349089379Y-24110102D01*
X349082851Y-24100331D01*
X349082720Y-24098335D01*
X349084383Y-24097224D01*
X349086060Y-24097951D01*
G37*
G36*
X346536060Y-24097951D02*
G01*
X346547584Y-24111993D01*
X346566221Y-24127288D01*
X346587484Y-24138653D01*
X346610559Y-24145653D01*
X346634550Y-24148016D01*
X346658542Y-24145653D01*
X346681616Y-24138653D01*
X346702880Y-24127288D01*
X346721517Y-24111992D01*
X346733040Y-24097951D01*
X346734912Y-24097247D01*
X346736458Y-24098516D01*
X346736249Y-24100331D01*
X346729721Y-24110102D01*
X346701664Y-24177835D01*
X346687361Y-24249745D01*
X346687361Y-24323055D01*
X346701664Y-24394965D01*
X346729721Y-24462698D01*
X346736249Y-24472469D01*
X346736380Y-24474465D01*
X346734717Y-24475576D01*
X346733040Y-24474849D01*
X346721516Y-24460807D01*
X346702879Y-24445512D01*
X346681616Y-24434147D01*
X346658541Y-24427147D01*
X346634550Y-24424784D01*
X346610558Y-24427147D01*
X346587484Y-24434147D01*
X346566220Y-24445512D01*
X346547583Y-24460808D01*
X346536060Y-24474849D01*
X346534188Y-24475553D01*
X346532642Y-24474284D01*
X346532851Y-24472469D01*
X346539379Y-24462698D01*
X346567436Y-24394965D01*
X346581739Y-24323055D01*
X346581739Y-24249745D01*
X346567436Y-24177835D01*
X346539379Y-24110102D01*
X346532851Y-24100331D01*
X346532720Y-24098335D01*
X346534383Y-24097224D01*
X346536060Y-24097951D01*
G37*
G36*
X351636060Y-24097951D02*
G01*
X351647584Y-24111993D01*
X351666221Y-24127288D01*
X351687484Y-24138653D01*
X351710559Y-24145653D01*
X351734550Y-24148016D01*
X351758542Y-24145653D01*
X351781616Y-24138653D01*
X351802880Y-24127288D01*
X351821517Y-24111992D01*
X351833040Y-24097951D01*
X351834912Y-24097247D01*
X351836458Y-24098516D01*
X351836249Y-24100331D01*
X351829721Y-24110102D01*
X351801664Y-24177835D01*
X351787361Y-24249745D01*
X351787361Y-24323055D01*
X351801664Y-24394965D01*
X351829721Y-24462698D01*
X351836249Y-24472469D01*
X351836380Y-24474465D01*
X351834717Y-24475576D01*
X351833040Y-24474849D01*
X351821516Y-24460807D01*
X351802879Y-24445512D01*
X351781616Y-24434147D01*
X351758541Y-24427147D01*
X351734550Y-24424784D01*
X351710558Y-24427147D01*
X351687484Y-24434147D01*
X351666220Y-24445512D01*
X351647583Y-24460808D01*
X351636060Y-24474849D01*
X351634188Y-24475553D01*
X351632642Y-24474284D01*
X351632851Y-24472469D01*
X351639379Y-24462698D01*
X351667436Y-24394965D01*
X351681739Y-24323055D01*
X351681739Y-24249745D01*
X351667436Y-24177835D01*
X351639379Y-24110102D01*
X351632851Y-24100331D01*
X351632720Y-24098335D01*
X351634383Y-24097224D01*
X351636060Y-24097951D01*
G37*
G36*
X350786060Y-24097951D02*
G01*
X350797584Y-24111993D01*
X350816221Y-24127288D01*
X350837484Y-24138653D01*
X350860559Y-24145653D01*
X350884550Y-24148016D01*
X350908542Y-24145653D01*
X350931616Y-24138653D01*
X350952880Y-24127288D01*
X350971517Y-24111992D01*
X350983040Y-24097951D01*
X350984912Y-24097247D01*
X350986458Y-24098516D01*
X350986249Y-24100331D01*
X350979721Y-24110102D01*
X350951664Y-24177835D01*
X350937361Y-24249745D01*
X350937361Y-24323055D01*
X350951664Y-24394965D01*
X350979721Y-24462698D01*
X350986249Y-24472469D01*
X350986380Y-24474465D01*
X350984717Y-24475576D01*
X350983040Y-24474849D01*
X350971516Y-24460807D01*
X350952879Y-24445512D01*
X350931616Y-24434147D01*
X350908541Y-24427147D01*
X350884550Y-24424784D01*
X350860558Y-24427147D01*
X350837484Y-24434147D01*
X350816220Y-24445512D01*
X350797583Y-24460808D01*
X350786060Y-24474849D01*
X350784188Y-24475553D01*
X350782642Y-24474284D01*
X350782851Y-24472469D01*
X350789379Y-24462698D01*
X350817436Y-24394965D01*
X350831739Y-24323055D01*
X350831739Y-24249745D01*
X350817436Y-24177835D01*
X350789379Y-24110102D01*
X350782851Y-24100331D01*
X350782720Y-24098335D01*
X350784383Y-24097224D01*
X350786060Y-24097951D01*
G37*
G36*
X349936060Y-24097951D02*
G01*
X349947584Y-24111993D01*
X349966221Y-24127288D01*
X349987484Y-24138653D01*
X350010559Y-24145653D01*
X350034550Y-24148016D01*
X350058542Y-24145653D01*
X350081616Y-24138653D01*
X350102880Y-24127288D01*
X350121517Y-24111992D01*
X350133040Y-24097951D01*
X350134912Y-24097247D01*
X350136458Y-24098516D01*
X350136249Y-24100331D01*
X350129721Y-24110102D01*
X350101664Y-24177835D01*
X350087361Y-24249745D01*
X350087361Y-24323055D01*
X350101664Y-24394965D01*
X350129721Y-24462698D01*
X350136249Y-24472469D01*
X350136380Y-24474465D01*
X350134717Y-24475576D01*
X350133040Y-24474849D01*
X350121516Y-24460807D01*
X350102879Y-24445512D01*
X350081616Y-24434147D01*
X350058541Y-24427147D01*
X350034550Y-24424784D01*
X350010558Y-24427147D01*
X349987484Y-24434147D01*
X349966220Y-24445512D01*
X349947583Y-24460808D01*
X349936060Y-24474849D01*
X349934188Y-24475553D01*
X349932642Y-24474284D01*
X349932851Y-24472469D01*
X349939379Y-24462698D01*
X349967436Y-24394965D01*
X349981739Y-24323055D01*
X349981739Y-24249745D01*
X349967436Y-24177835D01*
X349939379Y-24110102D01*
X349932851Y-24100331D01*
X349932720Y-24098335D01*
X349934383Y-24097224D01*
X349936060Y-24097951D01*
G37*
G36*
X347386060Y-24097951D02*
G01*
X347397584Y-24111993D01*
X347416221Y-24127288D01*
X347437484Y-24138653D01*
X347460559Y-24145653D01*
X347484550Y-24148016D01*
X347508542Y-24145653D01*
X347531616Y-24138653D01*
X347552880Y-24127288D01*
X347571517Y-24111992D01*
X347583040Y-24097951D01*
X347584912Y-24097247D01*
X347586458Y-24098516D01*
X347586249Y-24100331D01*
X347579721Y-24110102D01*
X347551664Y-24177835D01*
X347537361Y-24249745D01*
X347537361Y-24323055D01*
X347551664Y-24394965D01*
X347579721Y-24462698D01*
X347586249Y-24472469D01*
X347586380Y-24474465D01*
X347584717Y-24475576D01*
X347583040Y-24474849D01*
X347571516Y-24460807D01*
X347552879Y-24445512D01*
X347531616Y-24434147D01*
X347508541Y-24427147D01*
X347484550Y-24424784D01*
X347460558Y-24427147D01*
X347437484Y-24434147D01*
X347416220Y-24445512D01*
X347397583Y-24460808D01*
X347386060Y-24474849D01*
X347384188Y-24475553D01*
X347382642Y-24474284D01*
X347382851Y-24472469D01*
X347389379Y-24462698D01*
X347417436Y-24394965D01*
X347431739Y-24323055D01*
X347431739Y-24249745D01*
X347417436Y-24177835D01*
X347389379Y-24110102D01*
X347382851Y-24100331D01*
X347382720Y-24098335D01*
X347384383Y-24097224D01*
X347386060Y-24097951D01*
G37*
G36*
X348236060Y-24097951D02*
G01*
X348247584Y-24111993D01*
X348266221Y-24127288D01*
X348287484Y-24138653D01*
X348310559Y-24145653D01*
X348334550Y-24148016D01*
X348358542Y-24145653D01*
X348381616Y-24138653D01*
X348402880Y-24127288D01*
X348421517Y-24111992D01*
X348433040Y-24097951D01*
X348434912Y-24097247D01*
X348436458Y-24098516D01*
X348436249Y-24100331D01*
X348429721Y-24110102D01*
X348401664Y-24177835D01*
X348387361Y-24249745D01*
X348387361Y-24323055D01*
X348401664Y-24394965D01*
X348429721Y-24462698D01*
X348436249Y-24472469D01*
X348436380Y-24474465D01*
X348434717Y-24475576D01*
X348433040Y-24474849D01*
X348421516Y-24460807D01*
X348402879Y-24445512D01*
X348381616Y-24434147D01*
X348358541Y-24427147D01*
X348334550Y-24424784D01*
X348310558Y-24427147D01*
X348287484Y-24434147D01*
X348266220Y-24445512D01*
X348247583Y-24460808D01*
X348236060Y-24474849D01*
X348234188Y-24475553D01*
X348232642Y-24474284D01*
X348232851Y-24472469D01*
X348239379Y-24462698D01*
X348267436Y-24394965D01*
X348281739Y-24323055D01*
X348281739Y-24249745D01*
X348267436Y-24177835D01*
X348239379Y-24110102D01*
X348232851Y-24100331D01*
X348232720Y-24098335D01*
X348234383Y-24097224D01*
X348236060Y-24097951D01*
G37*
G36*
X347391060Y-22772951D02*
G01*
X347402584Y-22786993D01*
X347421221Y-22802288D01*
X347442484Y-22813653D01*
X347465559Y-22820653D01*
X347489550Y-22823016D01*
X347513542Y-22820653D01*
X347536616Y-22813653D01*
X347557880Y-22802288D01*
X347576517Y-22786992D01*
X347588040Y-22772951D01*
X347589912Y-22772247D01*
X347591458Y-22773516D01*
X347591249Y-22775331D01*
X347584721Y-22785102D01*
X347556664Y-22852835D01*
X347542361Y-22924745D01*
X347542361Y-22998055D01*
X347556664Y-23069965D01*
X347584721Y-23137698D01*
X347591249Y-23147469D01*
X347591380Y-23149465D01*
X347589717Y-23150576D01*
X347588040Y-23149849D01*
X347576516Y-23135807D01*
X347557879Y-23120512D01*
X347536616Y-23109147D01*
X347513541Y-23102147D01*
X347489550Y-23099784D01*
X347465558Y-23102147D01*
X347442484Y-23109147D01*
X347421220Y-23120512D01*
X347402583Y-23135808D01*
X347391060Y-23149849D01*
X347389188Y-23150553D01*
X347387642Y-23149284D01*
X347387851Y-23147469D01*
X347394379Y-23137698D01*
X347422436Y-23069965D01*
X347436739Y-22998055D01*
X347436739Y-22924745D01*
X347422436Y-22852835D01*
X347394379Y-22785102D01*
X347387851Y-22775331D01*
X347387720Y-22773335D01*
X347389383Y-22772224D01*
X347391060Y-22772951D01*
G37*
G36*
X350791060Y-22772951D02*
G01*
X350802584Y-22786993D01*
X350821221Y-22802288D01*
X350842484Y-22813653D01*
X350865559Y-22820653D01*
X350889550Y-22823016D01*
X350913542Y-22820653D01*
X350936616Y-22813653D01*
X350957880Y-22802288D01*
X350976517Y-22786992D01*
X350988040Y-22772951D01*
X350989912Y-22772247D01*
X350991458Y-22773516D01*
X350991249Y-22775331D01*
X350984721Y-22785102D01*
X350956664Y-22852835D01*
X350942361Y-22924745D01*
X350942361Y-22998055D01*
X350956664Y-23069965D01*
X350984721Y-23137698D01*
X350991249Y-23147469D01*
X350991380Y-23149465D01*
X350989717Y-23150576D01*
X350988040Y-23149849D01*
X350976516Y-23135807D01*
X350957879Y-23120512D01*
X350936616Y-23109147D01*
X350913541Y-23102147D01*
X350889550Y-23099784D01*
X350865558Y-23102147D01*
X350842484Y-23109147D01*
X350821220Y-23120512D01*
X350802583Y-23135808D01*
X350791060Y-23149849D01*
X350789188Y-23150553D01*
X350787642Y-23149284D01*
X350787851Y-23147469D01*
X350794379Y-23137698D01*
X350822436Y-23069965D01*
X350836739Y-22998055D01*
X350836739Y-22924745D01*
X350822436Y-22852835D01*
X350794379Y-22785102D01*
X350787851Y-22775331D01*
X350787720Y-22773335D01*
X350789383Y-22772224D01*
X350791060Y-22772951D01*
G37*
G36*
X349941060Y-22772951D02*
G01*
X349952584Y-22786993D01*
X349971221Y-22802288D01*
X349992484Y-22813653D01*
X350015559Y-22820653D01*
X350039550Y-22823016D01*
X350063542Y-22820653D01*
X350086616Y-22813653D01*
X350107880Y-22802288D01*
X350126517Y-22786992D01*
X350138040Y-22772951D01*
X350139912Y-22772247D01*
X350141458Y-22773516D01*
X350141249Y-22775331D01*
X350134721Y-22785102D01*
X350106664Y-22852835D01*
X350092361Y-22924745D01*
X350092361Y-22998055D01*
X350106664Y-23069965D01*
X350134721Y-23137698D01*
X350141249Y-23147469D01*
X350141380Y-23149465D01*
X350139717Y-23150576D01*
X350138040Y-23149849D01*
X350126516Y-23135807D01*
X350107879Y-23120512D01*
X350086616Y-23109147D01*
X350063541Y-23102147D01*
X350039550Y-23099784D01*
X350015558Y-23102147D01*
X349992484Y-23109147D01*
X349971220Y-23120512D01*
X349952583Y-23135808D01*
X349941060Y-23149849D01*
X349939188Y-23150553D01*
X349937642Y-23149284D01*
X349937851Y-23147469D01*
X349944379Y-23137698D01*
X349972436Y-23069965D01*
X349986739Y-22998055D01*
X349986739Y-22924745D01*
X349972436Y-22852835D01*
X349944379Y-22785102D01*
X349937851Y-22775331D01*
X349937720Y-22773335D01*
X349939383Y-22772224D01*
X349941060Y-22772951D01*
G37*
G36*
X348241060Y-22772951D02*
G01*
X348252584Y-22786993D01*
X348271221Y-22802288D01*
X348292484Y-22813653D01*
X348315559Y-22820653D01*
X348339550Y-22823016D01*
X348363542Y-22820653D01*
X348386616Y-22813653D01*
X348407880Y-22802288D01*
X348426517Y-22786992D01*
X348438040Y-22772951D01*
X348439912Y-22772247D01*
X348441458Y-22773516D01*
X348441249Y-22775331D01*
X348434721Y-22785102D01*
X348406664Y-22852835D01*
X348392361Y-22924745D01*
X348392361Y-22998055D01*
X348406664Y-23069965D01*
X348434721Y-23137698D01*
X348441249Y-23147469D01*
X348441380Y-23149465D01*
X348439717Y-23150576D01*
X348438040Y-23149849D01*
X348426516Y-23135807D01*
X348407879Y-23120512D01*
X348386616Y-23109147D01*
X348363541Y-23102147D01*
X348339550Y-23099784D01*
X348315558Y-23102147D01*
X348292484Y-23109147D01*
X348271220Y-23120512D01*
X348252583Y-23135808D01*
X348241060Y-23149849D01*
X348239188Y-23150553D01*
X348237642Y-23149284D01*
X348237851Y-23147469D01*
X348244379Y-23137698D01*
X348272436Y-23069965D01*
X348286739Y-22998055D01*
X348286739Y-22924745D01*
X348272436Y-22852835D01*
X348244379Y-22785102D01*
X348237851Y-22775331D01*
X348237720Y-22773335D01*
X348239383Y-22772224D01*
X348241060Y-22772951D01*
G37*
G36*
X349091060Y-22772951D02*
G01*
X349102584Y-22786993D01*
X349121221Y-22802288D01*
X349142484Y-22813653D01*
X349165559Y-22820653D01*
X349189550Y-22823016D01*
X349213542Y-22820653D01*
X349236616Y-22813653D01*
X349257880Y-22802288D01*
X349276517Y-22786992D01*
X349288040Y-22772951D01*
X349289912Y-22772247D01*
X349291458Y-22773516D01*
X349291249Y-22775331D01*
X349284721Y-22785102D01*
X349256664Y-22852835D01*
X349242361Y-22924745D01*
X349242361Y-22998055D01*
X349256664Y-23069965D01*
X349284721Y-23137698D01*
X349291249Y-23147469D01*
X349291380Y-23149465D01*
X349289717Y-23150576D01*
X349288040Y-23149849D01*
X349276516Y-23135807D01*
X349257879Y-23120512D01*
X349236616Y-23109147D01*
X349213541Y-23102147D01*
X349189550Y-23099784D01*
X349165558Y-23102147D01*
X349142484Y-23109147D01*
X349121220Y-23120512D01*
X349102583Y-23135808D01*
X349091060Y-23149849D01*
X349089188Y-23150553D01*
X349087642Y-23149284D01*
X349087851Y-23147469D01*
X349094379Y-23137698D01*
X349122436Y-23069965D01*
X349136739Y-22998055D01*
X349136739Y-22924745D01*
X349122436Y-22852835D01*
X349094379Y-22785102D01*
X349087851Y-22775331D01*
X349087720Y-22773335D01*
X349089383Y-22772224D01*
X349091060Y-22772951D01*
G37*
G36*
X351641060Y-22772951D02*
G01*
X351652584Y-22786993D01*
X351671221Y-22802288D01*
X351692484Y-22813653D01*
X351715559Y-22820653D01*
X351739550Y-22823016D01*
X351763542Y-22820653D01*
X351786616Y-22813653D01*
X351807880Y-22802288D01*
X351826517Y-22786992D01*
X351838040Y-22772951D01*
X351839912Y-22772247D01*
X351841458Y-22773516D01*
X351841249Y-22775331D01*
X351834721Y-22785102D01*
X351806664Y-22852835D01*
X351792361Y-22924745D01*
X351792361Y-22998055D01*
X351806664Y-23069965D01*
X351834721Y-23137698D01*
X351841249Y-23147469D01*
X351841380Y-23149465D01*
X351839717Y-23150576D01*
X351838040Y-23149849D01*
X351826516Y-23135807D01*
X351807879Y-23120512D01*
X351786616Y-23109147D01*
X351763541Y-23102147D01*
X351739550Y-23099784D01*
X351715558Y-23102147D01*
X351692484Y-23109147D01*
X351671220Y-23120512D01*
X351652583Y-23135808D01*
X351641060Y-23149849D01*
X351639188Y-23150553D01*
X351637642Y-23149284D01*
X351637851Y-23147469D01*
X351644379Y-23137698D01*
X351672436Y-23069965D01*
X351686739Y-22998055D01*
X351686739Y-22924745D01*
X351672436Y-22852835D01*
X351644379Y-22785102D01*
X351637851Y-22775331D01*
X351637720Y-22773335D01*
X351639383Y-22772224D01*
X351641060Y-22772951D01*
G37*
G36*
X346538557Y-22776689D02*
G01*
X346550084Y-22790734D01*
X346568721Y-22806029D01*
X346589985Y-22817394D01*
X346613060Y-22824394D01*
X346637051Y-22826757D01*
X346661042Y-22824394D01*
X346684117Y-22817394D01*
X346705381Y-22806028D01*
X346724017Y-22790733D01*
X346735543Y-22776689D01*
X346737415Y-22775985D01*
X346738961Y-22777254D01*
X346738752Y-22779069D01*
X346734721Y-22785102D01*
X346706664Y-22852835D01*
X346692361Y-22924745D01*
X346692361Y-22998055D01*
X346706664Y-23069965D01*
X346734721Y-23137698D01*
X346738752Y-23143731D01*
X346738883Y-23145727D01*
X346737220Y-23146838D01*
X346735543Y-23146111D01*
X346724016Y-23132066D01*
X346705379Y-23116771D01*
X346684115Y-23105406D01*
X346661040Y-23098406D01*
X346637049Y-23096043D01*
X346613058Y-23098406D01*
X346589983Y-23105406D01*
X346568719Y-23116772D01*
X346550083Y-23132067D01*
X346538557Y-23146111D01*
X346536685Y-23146815D01*
X346535139Y-23145546D01*
X346535348Y-23143731D01*
X346539379Y-23137698D01*
X346567436Y-23069965D01*
X346581739Y-22998055D01*
X346581739Y-22924745D01*
X346567436Y-22852835D01*
X346539379Y-22785102D01*
X346535348Y-22779069D01*
X346535217Y-22777073D01*
X346536880Y-22775962D01*
X346538557Y-22776689D01*
G37*
M02*
