G04 #@! TF.GenerationSoftware,KiCad,Pcbnew,(5.1.12)-1*
G04 #@! TF.CreationDate,2021-12-20T15:10:15-08:00*
G04 #@! TF.ProjectId,logboi,6c6f6762-6f69-42e6-9b69-6361645f7063,rev?*
G04 #@! TF.SameCoordinates,Original*
G04 #@! TF.FileFunction,Paste,Bot*
G04 #@! TF.FilePolarity,Positive*
%FSLAX46Y46*%
G04 Gerber Fmt 4.6, Leading zero omitted, Abs format (unit mm)*
G04 Created by KiCad (PCBNEW (5.1.12)-1) date 2021-12-20 15:10:15*
%MOMM*%
%LPD*%
G01*
G04 APERTURE LIST*
%ADD10R,0.500000X0.500000*%
%ADD11R,1.800000X1.100000*%
%ADD12R,1.400000X1.200000*%
G04 APERTURE END LIST*
D10*
X381042500Y-89612400D03*
X381042500Y-91812400D03*
X381017100Y-70528000D03*
X381017100Y-72728000D03*
X381042500Y-51605000D03*
X381042500Y-53805000D03*
X381042500Y-32555000D03*
X381042500Y-34755000D03*
X361967100Y-89578000D03*
X361967100Y-91778000D03*
X342917100Y-89578000D03*
X342917100Y-91778000D03*
X323867100Y-89578000D03*
X323867100Y-91778000D03*
X304867900Y-89578000D03*
X304867900Y-91778000D03*
X285817900Y-89578000D03*
X285817900Y-91778000D03*
X254861650Y-89578000D03*
X254861650Y-91778000D03*
X223905400Y-89578000D03*
X223905400Y-91778000D03*
X192949150Y-89603400D03*
X192949150Y-91803400D03*
X159586250Y-89705000D03*
X159586250Y-91905000D03*
X135799150Y-89603400D03*
X135799150Y-91803400D03*
X111986650Y-89603400D03*
X111986650Y-91803400D03*
X90555400Y-89603400D03*
X90555400Y-91803400D03*
X71505400Y-89603400D03*
X71505400Y-91803400D03*
X42905000Y-89705000D03*
X42905000Y-91905000D03*
X361967100Y-70528000D03*
X361967100Y-72728000D03*
X340535850Y-70528000D03*
X340535850Y-72728000D03*
X319104600Y-70528000D03*
X319104600Y-72728000D03*
X300105400Y-70528000D03*
X300105400Y-72728000D03*
X281055400Y-70528000D03*
X281055400Y-72728000D03*
X262005400Y-70528000D03*
X262005400Y-72728000D03*
X242955400Y-70528000D03*
X242955400Y-72728000D03*
X223905400Y-70528000D03*
X223905400Y-72728000D03*
X204830000Y-70545600D03*
X204830000Y-72745600D03*
X185805400Y-70553400D03*
X185805400Y-72753400D03*
X166755400Y-70553400D03*
X166755400Y-72753400D03*
X147705400Y-70553400D03*
X147705400Y-72753400D03*
X119130400Y-70553400D03*
X119130400Y-72753400D03*
X90555400Y-70553400D03*
X90555400Y-72753400D03*
X71505400Y-70553400D03*
X71505400Y-72753400D03*
X52430000Y-70578800D03*
X52430000Y-72778800D03*
X33380000Y-70578800D03*
X33380000Y-72778800D03*
X354848750Y-51503400D03*
X354848750Y-53703400D03*
X328655000Y-51503400D03*
X328655000Y-53703400D03*
X309605000Y-51503400D03*
X309605000Y-53703400D03*
X290555000Y-51503400D03*
X290555000Y-53703400D03*
X271505000Y-51503400D03*
X271505000Y-53703400D03*
X252455000Y-51503400D03*
X252455000Y-53703400D03*
X233405000Y-51503400D03*
X233405000Y-53703400D03*
X214355000Y-51503400D03*
X214355000Y-53703400D03*
X195305000Y-51503400D03*
X195305000Y-53703400D03*
X176255000Y-51503400D03*
X176255000Y-53703400D03*
X157205000Y-51503400D03*
X157205000Y-53703400D03*
X138155000Y-51503400D03*
X138155000Y-53703400D03*
X114342500Y-51503400D03*
X114342500Y-53703400D03*
X90504600Y-51503400D03*
X90504600Y-53703400D03*
X71454600Y-51503400D03*
X71454600Y-53703400D03*
X52404600Y-51503400D03*
X52404600Y-53703400D03*
X33354600Y-51503400D03*
X33354600Y-53703400D03*
X361992500Y-32555000D03*
X361992500Y-34755000D03*
X342942500Y-32453400D03*
X342942500Y-34653400D03*
X323892500Y-32453400D03*
X323892500Y-34653400D03*
X304842500Y-32453400D03*
X304842500Y-34653400D03*
X285792500Y-32453400D03*
X285792500Y-34653400D03*
X266742500Y-32453400D03*
X266742500Y-34653400D03*
X247692500Y-32453400D03*
X247692500Y-34653400D03*
X228642500Y-32453400D03*
X228642500Y-34653400D03*
X209592500Y-32453400D03*
X209592500Y-34653400D03*
X190542500Y-32453400D03*
X190542500Y-34653400D03*
X171492500Y-32453400D03*
X171492500Y-34653400D03*
X152442500Y-32453400D03*
X152442500Y-34653400D03*
X133392500Y-32453400D03*
X133392500Y-34653400D03*
X111961250Y-32453400D03*
X111961250Y-34653400D03*
X90530000Y-32453400D03*
X90530000Y-34653400D03*
X71480000Y-32453400D03*
X71480000Y-34653400D03*
X52430000Y-32453400D03*
X52430000Y-34653400D03*
X33380000Y-32453400D03*
X33380000Y-34653400D03*
G36*
G01*
X355818600Y-33794400D02*
X354568600Y-33794400D01*
G75*
G02*
X354318600Y-33544400I0J250000D01*
G01*
X354318600Y-32794400D01*
G75*
G02*
X354568600Y-32544400I250000J0D01*
G01*
X355818600Y-32544400D01*
G75*
G02*
X356068600Y-32794400I0J-250000D01*
G01*
X356068600Y-33544400D01*
G75*
G02*
X355818600Y-33794400I-250000J0D01*
G01*
G37*
G36*
G01*
X355818600Y-36594400D02*
X354568600Y-36594400D01*
G75*
G02*
X354318600Y-36344400I0J250000D01*
G01*
X354318600Y-35594400D01*
G75*
G02*
X354568600Y-35344400I250000J0D01*
G01*
X355818600Y-35344400D01*
G75*
G02*
X356068600Y-35594400I0J-250000D01*
G01*
X356068600Y-36344400D01*
G75*
G02*
X355818600Y-36594400I-250000J0D01*
G01*
G37*
D11*
X208952000Y-85363000D03*
X215152000Y-89063000D03*
X208952000Y-89063000D03*
X215152000Y-85363000D03*
D12*
X169308600Y-98944800D03*
X171508600Y-98944800D03*
X171508600Y-97244800D03*
X169308600Y-97244800D03*
G36*
G01*
X175731600Y-88703800D02*
X175731600Y-89333800D01*
G75*
G02*
X175481600Y-89583800I-250000J0D01*
G01*
X174851600Y-89583800D01*
G75*
G02*
X174601600Y-89333800I0J250000D01*
G01*
X174601600Y-88703800D01*
G75*
G02*
X174851600Y-88453800I250000J0D01*
G01*
X175481600Y-88453800D01*
G75*
G02*
X175731600Y-88703800I0J-250000D01*
G01*
G37*
G36*
G01*
X175731600Y-87303800D02*
X175731600Y-87933800D01*
G75*
G02*
X175481600Y-88183800I-250000J0D01*
G01*
X174851600Y-88183800D01*
G75*
G02*
X174601600Y-87933800I0J250000D01*
G01*
X174601600Y-87303800D01*
G75*
G02*
X174851600Y-87053800I250000J0D01*
G01*
X175481600Y-87053800D01*
G75*
G02*
X175731600Y-87303800I0J-250000D01*
G01*
G37*
G36*
G01*
X175731600Y-85903800D02*
X175731600Y-86533800D01*
G75*
G02*
X175481600Y-86783800I-250000J0D01*
G01*
X174851600Y-86783800D01*
G75*
G02*
X174601600Y-86533800I0J250000D01*
G01*
X174601600Y-85903800D01*
G75*
G02*
X174851600Y-85653800I250000J0D01*
G01*
X175481600Y-85653800D01*
G75*
G02*
X175731600Y-85903800I0J-250000D01*
G01*
G37*
G36*
G01*
X175731600Y-84503800D02*
X175731600Y-85133800D01*
G75*
G02*
X175481600Y-85383800I-250000J0D01*
G01*
X174851600Y-85383800D01*
G75*
G02*
X174601600Y-85133800I0J250000D01*
G01*
X174601600Y-84503800D01*
G75*
G02*
X174851600Y-84253800I250000J0D01*
G01*
X175481600Y-84253800D01*
G75*
G02*
X175731600Y-84503800I0J-250000D01*
G01*
G37*
G36*
G01*
X177131600Y-88703800D02*
X177131600Y-89333800D01*
G75*
G02*
X176881600Y-89583800I-250000J0D01*
G01*
X176251600Y-89583800D01*
G75*
G02*
X176001600Y-89333800I0J250000D01*
G01*
X176001600Y-88703800D01*
G75*
G02*
X176251600Y-88453800I250000J0D01*
G01*
X176881600Y-88453800D01*
G75*
G02*
X177131600Y-88703800I0J-250000D01*
G01*
G37*
G36*
G01*
X177131600Y-87303800D02*
X177131600Y-87933800D01*
G75*
G02*
X176881600Y-88183800I-250000J0D01*
G01*
X176251600Y-88183800D01*
G75*
G02*
X176001600Y-87933800I0J250000D01*
G01*
X176001600Y-87303800D01*
G75*
G02*
X176251600Y-87053800I250000J0D01*
G01*
X176881600Y-87053800D01*
G75*
G02*
X177131600Y-87303800I0J-250000D01*
G01*
G37*
G36*
G01*
X177131600Y-85903800D02*
X177131600Y-86533800D01*
G75*
G02*
X176881600Y-86783800I-250000J0D01*
G01*
X176251600Y-86783800D01*
G75*
G02*
X176001600Y-86533800I0J250000D01*
G01*
X176001600Y-85903800D01*
G75*
G02*
X176251600Y-85653800I250000J0D01*
G01*
X176881600Y-85653800D01*
G75*
G02*
X177131600Y-85903800I0J-250000D01*
G01*
G37*
G36*
G01*
X177131600Y-84503800D02*
X177131600Y-85133800D01*
G75*
G02*
X176881600Y-85383800I-250000J0D01*
G01*
X176251600Y-85383800D01*
G75*
G02*
X176001600Y-85133800I0J250000D01*
G01*
X176001600Y-84503800D01*
G75*
G02*
X176251600Y-84253800I250000J0D01*
G01*
X176881600Y-84253800D01*
G75*
G02*
X177131600Y-84503800I0J-250000D01*
G01*
G37*
G36*
G01*
X178531600Y-88703800D02*
X178531600Y-89333800D01*
G75*
G02*
X178281600Y-89583800I-250000J0D01*
G01*
X177651600Y-89583800D01*
G75*
G02*
X177401600Y-89333800I0J250000D01*
G01*
X177401600Y-88703800D01*
G75*
G02*
X177651600Y-88453800I250000J0D01*
G01*
X178281600Y-88453800D01*
G75*
G02*
X178531600Y-88703800I0J-250000D01*
G01*
G37*
G36*
G01*
X178531600Y-87303800D02*
X178531600Y-87933800D01*
G75*
G02*
X178281600Y-88183800I-250000J0D01*
G01*
X177651600Y-88183800D01*
G75*
G02*
X177401600Y-87933800I0J250000D01*
G01*
X177401600Y-87303800D01*
G75*
G02*
X177651600Y-87053800I250000J0D01*
G01*
X178281600Y-87053800D01*
G75*
G02*
X178531600Y-87303800I0J-250000D01*
G01*
G37*
G36*
G01*
X178531600Y-85903800D02*
X178531600Y-86533800D01*
G75*
G02*
X178281600Y-86783800I-250000J0D01*
G01*
X177651600Y-86783800D01*
G75*
G02*
X177401600Y-86533800I0J250000D01*
G01*
X177401600Y-85903800D01*
G75*
G02*
X177651600Y-85653800I250000J0D01*
G01*
X178281600Y-85653800D01*
G75*
G02*
X178531600Y-85903800I0J-250000D01*
G01*
G37*
G36*
G01*
X178531600Y-84503800D02*
X178531600Y-85133800D01*
G75*
G02*
X178281600Y-85383800I-250000J0D01*
G01*
X177651600Y-85383800D01*
G75*
G02*
X177401600Y-85133800I0J250000D01*
G01*
X177401600Y-84503800D01*
G75*
G02*
X177651600Y-84253800I250000J0D01*
G01*
X178281600Y-84253800D01*
G75*
G02*
X178531600Y-84503800I0J-250000D01*
G01*
G37*
G36*
G01*
X179931600Y-88703800D02*
X179931600Y-89333800D01*
G75*
G02*
X179681600Y-89583800I-250000J0D01*
G01*
X179051600Y-89583800D01*
G75*
G02*
X178801600Y-89333800I0J250000D01*
G01*
X178801600Y-88703800D01*
G75*
G02*
X179051600Y-88453800I250000J0D01*
G01*
X179681600Y-88453800D01*
G75*
G02*
X179931600Y-88703800I0J-250000D01*
G01*
G37*
G36*
G01*
X179931600Y-87303800D02*
X179931600Y-87933800D01*
G75*
G02*
X179681600Y-88183800I-250000J0D01*
G01*
X179051600Y-88183800D01*
G75*
G02*
X178801600Y-87933800I0J250000D01*
G01*
X178801600Y-87303800D01*
G75*
G02*
X179051600Y-87053800I250000J0D01*
G01*
X179681600Y-87053800D01*
G75*
G02*
X179931600Y-87303800I0J-250000D01*
G01*
G37*
G36*
G01*
X179931600Y-85903800D02*
X179931600Y-86533800D01*
G75*
G02*
X179681600Y-86783800I-250000J0D01*
G01*
X179051600Y-86783800D01*
G75*
G02*
X178801600Y-86533800I0J250000D01*
G01*
X178801600Y-85903800D01*
G75*
G02*
X179051600Y-85653800I250000J0D01*
G01*
X179681600Y-85653800D01*
G75*
G02*
X179931600Y-85903800I0J-250000D01*
G01*
G37*
G36*
G01*
X179931600Y-84503800D02*
X179931600Y-85133800D01*
G75*
G02*
X179681600Y-85383800I-250000J0D01*
G01*
X179051600Y-85383800D01*
G75*
G02*
X178801600Y-85133800I0J250000D01*
G01*
X178801600Y-84503800D01*
G75*
G02*
X179051600Y-84253800I250000J0D01*
G01*
X179681600Y-84253800D01*
G75*
G02*
X179931600Y-84503800I0J-250000D01*
G01*
G37*
G36*
G01*
X180141600Y-83106300D02*
X180141600Y-83856300D01*
G75*
G02*
X180079100Y-83918800I-62500J0D01*
G01*
X179954100Y-83918800D01*
G75*
G02*
X179891600Y-83856300I0J62500D01*
G01*
X179891600Y-83106300D01*
G75*
G02*
X179954100Y-83043800I62500J0D01*
G01*
X180079100Y-83043800D01*
G75*
G02*
X180141600Y-83106300I0J-62500D01*
G01*
G37*
G36*
G01*
X179641600Y-83106300D02*
X179641600Y-83856300D01*
G75*
G02*
X179579100Y-83918800I-62500J0D01*
G01*
X179454100Y-83918800D01*
G75*
G02*
X179391600Y-83856300I0J62500D01*
G01*
X179391600Y-83106300D01*
G75*
G02*
X179454100Y-83043800I62500J0D01*
G01*
X179579100Y-83043800D01*
G75*
G02*
X179641600Y-83106300I0J-62500D01*
G01*
G37*
G36*
G01*
X179141600Y-83106300D02*
X179141600Y-83856300D01*
G75*
G02*
X179079100Y-83918800I-62500J0D01*
G01*
X178954100Y-83918800D01*
G75*
G02*
X178891600Y-83856300I0J62500D01*
G01*
X178891600Y-83106300D01*
G75*
G02*
X178954100Y-83043800I62500J0D01*
G01*
X179079100Y-83043800D01*
G75*
G02*
X179141600Y-83106300I0J-62500D01*
G01*
G37*
G36*
G01*
X178641600Y-83106300D02*
X178641600Y-83856300D01*
G75*
G02*
X178579100Y-83918800I-62500J0D01*
G01*
X178454100Y-83918800D01*
G75*
G02*
X178391600Y-83856300I0J62500D01*
G01*
X178391600Y-83106300D01*
G75*
G02*
X178454100Y-83043800I62500J0D01*
G01*
X178579100Y-83043800D01*
G75*
G02*
X178641600Y-83106300I0J-62500D01*
G01*
G37*
G36*
G01*
X178141600Y-83106300D02*
X178141600Y-83856300D01*
G75*
G02*
X178079100Y-83918800I-62500J0D01*
G01*
X177954100Y-83918800D01*
G75*
G02*
X177891600Y-83856300I0J62500D01*
G01*
X177891600Y-83106300D01*
G75*
G02*
X177954100Y-83043800I62500J0D01*
G01*
X178079100Y-83043800D01*
G75*
G02*
X178141600Y-83106300I0J-62500D01*
G01*
G37*
G36*
G01*
X177641600Y-83106300D02*
X177641600Y-83856300D01*
G75*
G02*
X177579100Y-83918800I-62500J0D01*
G01*
X177454100Y-83918800D01*
G75*
G02*
X177391600Y-83856300I0J62500D01*
G01*
X177391600Y-83106300D01*
G75*
G02*
X177454100Y-83043800I62500J0D01*
G01*
X177579100Y-83043800D01*
G75*
G02*
X177641600Y-83106300I0J-62500D01*
G01*
G37*
G36*
G01*
X177141600Y-83106300D02*
X177141600Y-83856300D01*
G75*
G02*
X177079100Y-83918800I-62500J0D01*
G01*
X176954100Y-83918800D01*
G75*
G02*
X176891600Y-83856300I0J62500D01*
G01*
X176891600Y-83106300D01*
G75*
G02*
X176954100Y-83043800I62500J0D01*
G01*
X177079100Y-83043800D01*
G75*
G02*
X177141600Y-83106300I0J-62500D01*
G01*
G37*
G36*
G01*
X176641600Y-83106300D02*
X176641600Y-83856300D01*
G75*
G02*
X176579100Y-83918800I-62500J0D01*
G01*
X176454100Y-83918800D01*
G75*
G02*
X176391600Y-83856300I0J62500D01*
G01*
X176391600Y-83106300D01*
G75*
G02*
X176454100Y-83043800I62500J0D01*
G01*
X176579100Y-83043800D01*
G75*
G02*
X176641600Y-83106300I0J-62500D01*
G01*
G37*
G36*
G01*
X176141600Y-83106300D02*
X176141600Y-83856300D01*
G75*
G02*
X176079100Y-83918800I-62500J0D01*
G01*
X175954100Y-83918800D01*
G75*
G02*
X175891600Y-83856300I0J62500D01*
G01*
X175891600Y-83106300D01*
G75*
G02*
X175954100Y-83043800I62500J0D01*
G01*
X176079100Y-83043800D01*
G75*
G02*
X176141600Y-83106300I0J-62500D01*
G01*
G37*
G36*
G01*
X175641600Y-83106300D02*
X175641600Y-83856300D01*
G75*
G02*
X175579100Y-83918800I-62500J0D01*
G01*
X175454100Y-83918800D01*
G75*
G02*
X175391600Y-83856300I0J62500D01*
G01*
X175391600Y-83106300D01*
G75*
G02*
X175454100Y-83043800I62500J0D01*
G01*
X175579100Y-83043800D01*
G75*
G02*
X175641600Y-83106300I0J-62500D01*
G01*
G37*
G36*
G01*
X175141600Y-83106300D02*
X175141600Y-83856300D01*
G75*
G02*
X175079100Y-83918800I-62500J0D01*
G01*
X174954100Y-83918800D01*
G75*
G02*
X174891600Y-83856300I0J62500D01*
G01*
X174891600Y-83106300D01*
G75*
G02*
X174954100Y-83043800I62500J0D01*
G01*
X175079100Y-83043800D01*
G75*
G02*
X175141600Y-83106300I0J-62500D01*
G01*
G37*
G36*
G01*
X174641600Y-83106300D02*
X174641600Y-83856300D01*
G75*
G02*
X174579100Y-83918800I-62500J0D01*
G01*
X174454100Y-83918800D01*
G75*
G02*
X174391600Y-83856300I0J62500D01*
G01*
X174391600Y-83106300D01*
G75*
G02*
X174454100Y-83043800I62500J0D01*
G01*
X174579100Y-83043800D01*
G75*
G02*
X174641600Y-83106300I0J-62500D01*
G01*
G37*
G36*
G01*
X174266600Y-84106300D02*
X174266600Y-84231300D01*
G75*
G02*
X174204100Y-84293800I-62500J0D01*
G01*
X173454100Y-84293800D01*
G75*
G02*
X173391600Y-84231300I0J62500D01*
G01*
X173391600Y-84106300D01*
G75*
G02*
X173454100Y-84043800I62500J0D01*
G01*
X174204100Y-84043800D01*
G75*
G02*
X174266600Y-84106300I0J-62500D01*
G01*
G37*
G36*
G01*
X174266600Y-84606300D02*
X174266600Y-84731300D01*
G75*
G02*
X174204100Y-84793800I-62500J0D01*
G01*
X173454100Y-84793800D01*
G75*
G02*
X173391600Y-84731300I0J62500D01*
G01*
X173391600Y-84606300D01*
G75*
G02*
X173454100Y-84543800I62500J0D01*
G01*
X174204100Y-84543800D01*
G75*
G02*
X174266600Y-84606300I0J-62500D01*
G01*
G37*
G36*
G01*
X174266600Y-85106300D02*
X174266600Y-85231300D01*
G75*
G02*
X174204100Y-85293800I-62500J0D01*
G01*
X173454100Y-85293800D01*
G75*
G02*
X173391600Y-85231300I0J62500D01*
G01*
X173391600Y-85106300D01*
G75*
G02*
X173454100Y-85043800I62500J0D01*
G01*
X174204100Y-85043800D01*
G75*
G02*
X174266600Y-85106300I0J-62500D01*
G01*
G37*
G36*
G01*
X174266600Y-85606300D02*
X174266600Y-85731300D01*
G75*
G02*
X174204100Y-85793800I-62500J0D01*
G01*
X173454100Y-85793800D01*
G75*
G02*
X173391600Y-85731300I0J62500D01*
G01*
X173391600Y-85606300D01*
G75*
G02*
X173454100Y-85543800I62500J0D01*
G01*
X174204100Y-85543800D01*
G75*
G02*
X174266600Y-85606300I0J-62500D01*
G01*
G37*
G36*
G01*
X174266600Y-86106300D02*
X174266600Y-86231300D01*
G75*
G02*
X174204100Y-86293800I-62500J0D01*
G01*
X173454100Y-86293800D01*
G75*
G02*
X173391600Y-86231300I0J62500D01*
G01*
X173391600Y-86106300D01*
G75*
G02*
X173454100Y-86043800I62500J0D01*
G01*
X174204100Y-86043800D01*
G75*
G02*
X174266600Y-86106300I0J-62500D01*
G01*
G37*
G36*
G01*
X174266600Y-86606300D02*
X174266600Y-86731300D01*
G75*
G02*
X174204100Y-86793800I-62500J0D01*
G01*
X173454100Y-86793800D01*
G75*
G02*
X173391600Y-86731300I0J62500D01*
G01*
X173391600Y-86606300D01*
G75*
G02*
X173454100Y-86543800I62500J0D01*
G01*
X174204100Y-86543800D01*
G75*
G02*
X174266600Y-86606300I0J-62500D01*
G01*
G37*
G36*
G01*
X174266600Y-87106300D02*
X174266600Y-87231300D01*
G75*
G02*
X174204100Y-87293800I-62500J0D01*
G01*
X173454100Y-87293800D01*
G75*
G02*
X173391600Y-87231300I0J62500D01*
G01*
X173391600Y-87106300D01*
G75*
G02*
X173454100Y-87043800I62500J0D01*
G01*
X174204100Y-87043800D01*
G75*
G02*
X174266600Y-87106300I0J-62500D01*
G01*
G37*
G36*
G01*
X174266600Y-87606300D02*
X174266600Y-87731300D01*
G75*
G02*
X174204100Y-87793800I-62500J0D01*
G01*
X173454100Y-87793800D01*
G75*
G02*
X173391600Y-87731300I0J62500D01*
G01*
X173391600Y-87606300D01*
G75*
G02*
X173454100Y-87543800I62500J0D01*
G01*
X174204100Y-87543800D01*
G75*
G02*
X174266600Y-87606300I0J-62500D01*
G01*
G37*
G36*
G01*
X174266600Y-88106300D02*
X174266600Y-88231300D01*
G75*
G02*
X174204100Y-88293800I-62500J0D01*
G01*
X173454100Y-88293800D01*
G75*
G02*
X173391600Y-88231300I0J62500D01*
G01*
X173391600Y-88106300D01*
G75*
G02*
X173454100Y-88043800I62500J0D01*
G01*
X174204100Y-88043800D01*
G75*
G02*
X174266600Y-88106300I0J-62500D01*
G01*
G37*
G36*
G01*
X174266600Y-88606300D02*
X174266600Y-88731300D01*
G75*
G02*
X174204100Y-88793800I-62500J0D01*
G01*
X173454100Y-88793800D01*
G75*
G02*
X173391600Y-88731300I0J62500D01*
G01*
X173391600Y-88606300D01*
G75*
G02*
X173454100Y-88543800I62500J0D01*
G01*
X174204100Y-88543800D01*
G75*
G02*
X174266600Y-88606300I0J-62500D01*
G01*
G37*
G36*
G01*
X174266600Y-89106300D02*
X174266600Y-89231300D01*
G75*
G02*
X174204100Y-89293800I-62500J0D01*
G01*
X173454100Y-89293800D01*
G75*
G02*
X173391600Y-89231300I0J62500D01*
G01*
X173391600Y-89106300D01*
G75*
G02*
X173454100Y-89043800I62500J0D01*
G01*
X174204100Y-89043800D01*
G75*
G02*
X174266600Y-89106300I0J-62500D01*
G01*
G37*
G36*
G01*
X174266600Y-89606300D02*
X174266600Y-89731300D01*
G75*
G02*
X174204100Y-89793800I-62500J0D01*
G01*
X173454100Y-89793800D01*
G75*
G02*
X173391600Y-89731300I0J62500D01*
G01*
X173391600Y-89606300D01*
G75*
G02*
X173454100Y-89543800I62500J0D01*
G01*
X174204100Y-89543800D01*
G75*
G02*
X174266600Y-89606300I0J-62500D01*
G01*
G37*
G36*
G01*
X174641600Y-89981300D02*
X174641600Y-90731300D01*
G75*
G02*
X174579100Y-90793800I-62500J0D01*
G01*
X174454100Y-90793800D01*
G75*
G02*
X174391600Y-90731300I0J62500D01*
G01*
X174391600Y-89981300D01*
G75*
G02*
X174454100Y-89918800I62500J0D01*
G01*
X174579100Y-89918800D01*
G75*
G02*
X174641600Y-89981300I0J-62500D01*
G01*
G37*
G36*
G01*
X175141600Y-89981300D02*
X175141600Y-90731300D01*
G75*
G02*
X175079100Y-90793800I-62500J0D01*
G01*
X174954100Y-90793800D01*
G75*
G02*
X174891600Y-90731300I0J62500D01*
G01*
X174891600Y-89981300D01*
G75*
G02*
X174954100Y-89918800I62500J0D01*
G01*
X175079100Y-89918800D01*
G75*
G02*
X175141600Y-89981300I0J-62500D01*
G01*
G37*
G36*
G01*
X175641600Y-89981300D02*
X175641600Y-90731300D01*
G75*
G02*
X175579100Y-90793800I-62500J0D01*
G01*
X175454100Y-90793800D01*
G75*
G02*
X175391600Y-90731300I0J62500D01*
G01*
X175391600Y-89981300D01*
G75*
G02*
X175454100Y-89918800I62500J0D01*
G01*
X175579100Y-89918800D01*
G75*
G02*
X175641600Y-89981300I0J-62500D01*
G01*
G37*
G36*
G01*
X176141600Y-89981300D02*
X176141600Y-90731300D01*
G75*
G02*
X176079100Y-90793800I-62500J0D01*
G01*
X175954100Y-90793800D01*
G75*
G02*
X175891600Y-90731300I0J62500D01*
G01*
X175891600Y-89981300D01*
G75*
G02*
X175954100Y-89918800I62500J0D01*
G01*
X176079100Y-89918800D01*
G75*
G02*
X176141600Y-89981300I0J-62500D01*
G01*
G37*
G36*
G01*
X176641600Y-89981300D02*
X176641600Y-90731300D01*
G75*
G02*
X176579100Y-90793800I-62500J0D01*
G01*
X176454100Y-90793800D01*
G75*
G02*
X176391600Y-90731300I0J62500D01*
G01*
X176391600Y-89981300D01*
G75*
G02*
X176454100Y-89918800I62500J0D01*
G01*
X176579100Y-89918800D01*
G75*
G02*
X176641600Y-89981300I0J-62500D01*
G01*
G37*
G36*
G01*
X177141600Y-89981300D02*
X177141600Y-90731300D01*
G75*
G02*
X177079100Y-90793800I-62500J0D01*
G01*
X176954100Y-90793800D01*
G75*
G02*
X176891600Y-90731300I0J62500D01*
G01*
X176891600Y-89981300D01*
G75*
G02*
X176954100Y-89918800I62500J0D01*
G01*
X177079100Y-89918800D01*
G75*
G02*
X177141600Y-89981300I0J-62500D01*
G01*
G37*
G36*
G01*
X177641600Y-89981300D02*
X177641600Y-90731300D01*
G75*
G02*
X177579100Y-90793800I-62500J0D01*
G01*
X177454100Y-90793800D01*
G75*
G02*
X177391600Y-90731300I0J62500D01*
G01*
X177391600Y-89981300D01*
G75*
G02*
X177454100Y-89918800I62500J0D01*
G01*
X177579100Y-89918800D01*
G75*
G02*
X177641600Y-89981300I0J-62500D01*
G01*
G37*
G36*
G01*
X178141600Y-89981300D02*
X178141600Y-90731300D01*
G75*
G02*
X178079100Y-90793800I-62500J0D01*
G01*
X177954100Y-90793800D01*
G75*
G02*
X177891600Y-90731300I0J62500D01*
G01*
X177891600Y-89981300D01*
G75*
G02*
X177954100Y-89918800I62500J0D01*
G01*
X178079100Y-89918800D01*
G75*
G02*
X178141600Y-89981300I0J-62500D01*
G01*
G37*
G36*
G01*
X178641600Y-89981300D02*
X178641600Y-90731300D01*
G75*
G02*
X178579100Y-90793800I-62500J0D01*
G01*
X178454100Y-90793800D01*
G75*
G02*
X178391600Y-90731300I0J62500D01*
G01*
X178391600Y-89981300D01*
G75*
G02*
X178454100Y-89918800I62500J0D01*
G01*
X178579100Y-89918800D01*
G75*
G02*
X178641600Y-89981300I0J-62500D01*
G01*
G37*
G36*
G01*
X179141600Y-89981300D02*
X179141600Y-90731300D01*
G75*
G02*
X179079100Y-90793800I-62500J0D01*
G01*
X178954100Y-90793800D01*
G75*
G02*
X178891600Y-90731300I0J62500D01*
G01*
X178891600Y-89981300D01*
G75*
G02*
X178954100Y-89918800I62500J0D01*
G01*
X179079100Y-89918800D01*
G75*
G02*
X179141600Y-89981300I0J-62500D01*
G01*
G37*
G36*
G01*
X179641600Y-89981300D02*
X179641600Y-90731300D01*
G75*
G02*
X179579100Y-90793800I-62500J0D01*
G01*
X179454100Y-90793800D01*
G75*
G02*
X179391600Y-90731300I0J62500D01*
G01*
X179391600Y-89981300D01*
G75*
G02*
X179454100Y-89918800I62500J0D01*
G01*
X179579100Y-89918800D01*
G75*
G02*
X179641600Y-89981300I0J-62500D01*
G01*
G37*
G36*
G01*
X180141600Y-89981300D02*
X180141600Y-90731300D01*
G75*
G02*
X180079100Y-90793800I-62500J0D01*
G01*
X179954100Y-90793800D01*
G75*
G02*
X179891600Y-90731300I0J62500D01*
G01*
X179891600Y-89981300D01*
G75*
G02*
X179954100Y-89918800I62500J0D01*
G01*
X180079100Y-89918800D01*
G75*
G02*
X180141600Y-89981300I0J-62500D01*
G01*
G37*
G36*
G01*
X181141600Y-89606300D02*
X181141600Y-89731300D01*
G75*
G02*
X181079100Y-89793800I-62500J0D01*
G01*
X180329100Y-89793800D01*
G75*
G02*
X180266600Y-89731300I0J62500D01*
G01*
X180266600Y-89606300D01*
G75*
G02*
X180329100Y-89543800I62500J0D01*
G01*
X181079100Y-89543800D01*
G75*
G02*
X181141600Y-89606300I0J-62500D01*
G01*
G37*
G36*
G01*
X181141600Y-89106300D02*
X181141600Y-89231300D01*
G75*
G02*
X181079100Y-89293800I-62500J0D01*
G01*
X180329100Y-89293800D01*
G75*
G02*
X180266600Y-89231300I0J62500D01*
G01*
X180266600Y-89106300D01*
G75*
G02*
X180329100Y-89043800I62500J0D01*
G01*
X181079100Y-89043800D01*
G75*
G02*
X181141600Y-89106300I0J-62500D01*
G01*
G37*
G36*
G01*
X181141600Y-88606300D02*
X181141600Y-88731300D01*
G75*
G02*
X181079100Y-88793800I-62500J0D01*
G01*
X180329100Y-88793800D01*
G75*
G02*
X180266600Y-88731300I0J62500D01*
G01*
X180266600Y-88606300D01*
G75*
G02*
X180329100Y-88543800I62500J0D01*
G01*
X181079100Y-88543800D01*
G75*
G02*
X181141600Y-88606300I0J-62500D01*
G01*
G37*
G36*
G01*
X181141600Y-88106300D02*
X181141600Y-88231300D01*
G75*
G02*
X181079100Y-88293800I-62500J0D01*
G01*
X180329100Y-88293800D01*
G75*
G02*
X180266600Y-88231300I0J62500D01*
G01*
X180266600Y-88106300D01*
G75*
G02*
X180329100Y-88043800I62500J0D01*
G01*
X181079100Y-88043800D01*
G75*
G02*
X181141600Y-88106300I0J-62500D01*
G01*
G37*
G36*
G01*
X181141600Y-87606300D02*
X181141600Y-87731300D01*
G75*
G02*
X181079100Y-87793800I-62500J0D01*
G01*
X180329100Y-87793800D01*
G75*
G02*
X180266600Y-87731300I0J62500D01*
G01*
X180266600Y-87606300D01*
G75*
G02*
X180329100Y-87543800I62500J0D01*
G01*
X181079100Y-87543800D01*
G75*
G02*
X181141600Y-87606300I0J-62500D01*
G01*
G37*
G36*
G01*
X181141600Y-87106300D02*
X181141600Y-87231300D01*
G75*
G02*
X181079100Y-87293800I-62500J0D01*
G01*
X180329100Y-87293800D01*
G75*
G02*
X180266600Y-87231300I0J62500D01*
G01*
X180266600Y-87106300D01*
G75*
G02*
X180329100Y-87043800I62500J0D01*
G01*
X181079100Y-87043800D01*
G75*
G02*
X181141600Y-87106300I0J-62500D01*
G01*
G37*
G36*
G01*
X181141600Y-86606300D02*
X181141600Y-86731300D01*
G75*
G02*
X181079100Y-86793800I-62500J0D01*
G01*
X180329100Y-86793800D01*
G75*
G02*
X180266600Y-86731300I0J62500D01*
G01*
X180266600Y-86606300D01*
G75*
G02*
X180329100Y-86543800I62500J0D01*
G01*
X181079100Y-86543800D01*
G75*
G02*
X181141600Y-86606300I0J-62500D01*
G01*
G37*
G36*
G01*
X181141600Y-86106300D02*
X181141600Y-86231300D01*
G75*
G02*
X181079100Y-86293800I-62500J0D01*
G01*
X180329100Y-86293800D01*
G75*
G02*
X180266600Y-86231300I0J62500D01*
G01*
X180266600Y-86106300D01*
G75*
G02*
X180329100Y-86043800I62500J0D01*
G01*
X181079100Y-86043800D01*
G75*
G02*
X181141600Y-86106300I0J-62500D01*
G01*
G37*
G36*
G01*
X181141600Y-85606300D02*
X181141600Y-85731300D01*
G75*
G02*
X181079100Y-85793800I-62500J0D01*
G01*
X180329100Y-85793800D01*
G75*
G02*
X180266600Y-85731300I0J62500D01*
G01*
X180266600Y-85606300D01*
G75*
G02*
X180329100Y-85543800I62500J0D01*
G01*
X181079100Y-85543800D01*
G75*
G02*
X181141600Y-85606300I0J-62500D01*
G01*
G37*
G36*
G01*
X181141600Y-85106300D02*
X181141600Y-85231300D01*
G75*
G02*
X181079100Y-85293800I-62500J0D01*
G01*
X180329100Y-85293800D01*
G75*
G02*
X180266600Y-85231300I0J62500D01*
G01*
X180266600Y-85106300D01*
G75*
G02*
X180329100Y-85043800I62500J0D01*
G01*
X181079100Y-85043800D01*
G75*
G02*
X181141600Y-85106300I0J-62500D01*
G01*
G37*
G36*
G01*
X181141600Y-84606300D02*
X181141600Y-84731300D01*
G75*
G02*
X181079100Y-84793800I-62500J0D01*
G01*
X180329100Y-84793800D01*
G75*
G02*
X180266600Y-84731300I0J62500D01*
G01*
X180266600Y-84606300D01*
G75*
G02*
X180329100Y-84543800I62500J0D01*
G01*
X181079100Y-84543800D01*
G75*
G02*
X181141600Y-84606300I0J-62500D01*
G01*
G37*
G36*
G01*
X181141600Y-84106300D02*
X181141600Y-84231300D01*
G75*
G02*
X181079100Y-84293800I-62500J0D01*
G01*
X180329100Y-84293800D01*
G75*
G02*
X180266600Y-84231300I0J62500D01*
G01*
X180266600Y-84106300D01*
G75*
G02*
X180329100Y-84043800I62500J0D01*
G01*
X181079100Y-84043800D01*
G75*
G02*
X181141600Y-84106300I0J-62500D01*
G01*
G37*
G36*
G01*
X163913399Y-98434200D02*
X164813401Y-98434200D01*
G75*
G02*
X165063400Y-98684199I0J-249999D01*
G01*
X165063400Y-99334201D01*
G75*
G02*
X164813401Y-99584200I-249999J0D01*
G01*
X163913399Y-99584200D01*
G75*
G02*
X163663400Y-99334201I0J249999D01*
G01*
X163663400Y-98684199D01*
G75*
G02*
X163913399Y-98434200I249999J0D01*
G01*
G37*
G36*
G01*
X163913399Y-96384200D02*
X164813401Y-96384200D01*
G75*
G02*
X165063400Y-96634199I0J-249999D01*
G01*
X165063400Y-97284201D01*
G75*
G02*
X164813401Y-97534200I-249999J0D01*
G01*
X163913399Y-97534200D01*
G75*
G02*
X163663400Y-97284201I0J249999D01*
G01*
X163663400Y-96634199D01*
G75*
G02*
X163913399Y-96384200I249999J0D01*
G01*
G37*
G36*
G01*
X365437700Y-22257599D02*
X365437700Y-23157601D01*
G75*
G02*
X365187701Y-23407600I-249999J0D01*
G01*
X364537699Y-23407600D01*
G75*
G02*
X364287700Y-23157601I0J249999D01*
G01*
X364287700Y-22257599D01*
G75*
G02*
X364537699Y-22007600I249999J0D01*
G01*
X365187701Y-22007600D01*
G75*
G02*
X365437700Y-22257599I0J-249999D01*
G01*
G37*
G36*
G01*
X363387700Y-22257599D02*
X363387700Y-23157601D01*
G75*
G02*
X363137701Y-23407600I-249999J0D01*
G01*
X362487699Y-23407600D01*
G75*
G02*
X362237700Y-23157601I0J249999D01*
G01*
X362237700Y-22257599D01*
G75*
G02*
X362487699Y-22007600I249999J0D01*
G01*
X363137701Y-22007600D01*
G75*
G02*
X363387700Y-22257599I0J-249999D01*
G01*
G37*
G36*
G01*
X343857100Y-23614801D02*
X343857100Y-22714799D01*
G75*
G02*
X344107099Y-22464800I249999J0D01*
G01*
X344757101Y-22464800D01*
G75*
G02*
X345007100Y-22714799I0J-249999D01*
G01*
X345007100Y-23614801D01*
G75*
G02*
X344757101Y-23864800I-249999J0D01*
G01*
X344107099Y-23864800D01*
G75*
G02*
X343857100Y-23614801I0J249999D01*
G01*
G37*
G36*
G01*
X345907100Y-23614801D02*
X345907100Y-22714799D01*
G75*
G02*
X346157099Y-22464800I249999J0D01*
G01*
X346807101Y-22464800D01*
G75*
G02*
X347057100Y-22714799I0J-249999D01*
G01*
X347057100Y-23614801D01*
G75*
G02*
X346807101Y-23864800I-249999J0D01*
G01*
X346157099Y-23864800D01*
G75*
G02*
X345907100Y-23614801I0J249999D01*
G01*
G37*
G36*
G01*
X168866399Y-78800000D02*
X169766401Y-78800000D01*
G75*
G02*
X170016400Y-79049999I0J-249999D01*
G01*
X170016400Y-79700001D01*
G75*
G02*
X169766401Y-79950000I-249999J0D01*
G01*
X168866399Y-79950000D01*
G75*
G02*
X168616400Y-79700001I0J249999D01*
G01*
X168616400Y-79049999D01*
G75*
G02*
X168866399Y-78800000I249999J0D01*
G01*
G37*
G36*
G01*
X168866399Y-80850000D02*
X169766401Y-80850000D01*
G75*
G02*
X170016400Y-81099999I0J-249999D01*
G01*
X170016400Y-81750001D01*
G75*
G02*
X169766401Y-82000000I-249999J0D01*
G01*
X168866399Y-82000000D01*
G75*
G02*
X168616400Y-81750001I0J249999D01*
G01*
X168616400Y-81099999D01*
G75*
G02*
X168866399Y-80850000I249999J0D01*
G01*
G37*
G36*
G01*
X358183601Y-30902600D02*
X357283599Y-30902600D01*
G75*
G02*
X357033600Y-30652601I0J249999D01*
G01*
X357033600Y-30002599D01*
G75*
G02*
X357283599Y-29752600I249999J0D01*
G01*
X358183601Y-29752600D01*
G75*
G02*
X358433600Y-30002599I0J-249999D01*
G01*
X358433600Y-30652601D01*
G75*
G02*
X358183601Y-30902600I-249999J0D01*
G01*
G37*
G36*
G01*
X358183601Y-28852600D02*
X357283599Y-28852600D01*
G75*
G02*
X357033600Y-28602601I0J249999D01*
G01*
X357033600Y-27952599D01*
G75*
G02*
X357283599Y-27702600I249999J0D01*
G01*
X358183601Y-27702600D01*
G75*
G02*
X358433600Y-27952599I0J-249999D01*
G01*
X358433600Y-28602601D01*
G75*
G02*
X358183601Y-28852600I-249999J0D01*
G01*
G37*
G36*
G01*
X356202401Y-30928000D02*
X355302399Y-30928000D01*
G75*
G02*
X355052400Y-30678001I0J249999D01*
G01*
X355052400Y-30027999D01*
G75*
G02*
X355302399Y-29778000I249999J0D01*
G01*
X356202401Y-29778000D01*
G75*
G02*
X356452400Y-30027999I0J-249999D01*
G01*
X356452400Y-30678001D01*
G75*
G02*
X356202401Y-30928000I-249999J0D01*
G01*
G37*
G36*
G01*
X356202401Y-28878000D02*
X355302399Y-28878000D01*
G75*
G02*
X355052400Y-28628001I0J249999D01*
G01*
X355052400Y-27977999D01*
G75*
G02*
X355302399Y-27728000I249999J0D01*
G01*
X356202401Y-27728000D01*
G75*
G02*
X356452400Y-27977999I0J-249999D01*
G01*
X356452400Y-28628001D01*
G75*
G02*
X356202401Y-28878000I-249999J0D01*
G01*
G37*
G36*
G01*
X204887999Y-87681000D02*
X205788001Y-87681000D01*
G75*
G02*
X206038000Y-87930999I0J-249999D01*
G01*
X206038000Y-88581001D01*
G75*
G02*
X205788001Y-88831000I-249999J0D01*
G01*
X204887999Y-88831000D01*
G75*
G02*
X204638000Y-88581001I0J249999D01*
G01*
X204638000Y-87930999D01*
G75*
G02*
X204887999Y-87681000I249999J0D01*
G01*
G37*
G36*
G01*
X204887999Y-89731000D02*
X205788001Y-89731000D01*
G75*
G02*
X206038000Y-89980999I0J-249999D01*
G01*
X206038000Y-90631001D01*
G75*
G02*
X205788001Y-90881000I-249999J0D01*
G01*
X204887999Y-90881000D01*
G75*
G02*
X204638000Y-90631001I0J249999D01*
G01*
X204638000Y-89980999D01*
G75*
G02*
X204887999Y-89731000I249999J0D01*
G01*
G37*
G36*
G01*
X187276000Y-87800601D02*
X187276000Y-86900599D01*
G75*
G02*
X187525999Y-86650600I249999J0D01*
G01*
X188176001Y-86650600D01*
G75*
G02*
X188426000Y-86900599I0J-249999D01*
G01*
X188426000Y-87800601D01*
G75*
G02*
X188176001Y-88050600I-249999J0D01*
G01*
X187525999Y-88050600D01*
G75*
G02*
X187276000Y-87800601I0J249999D01*
G01*
G37*
G36*
G01*
X185226000Y-87800601D02*
X185226000Y-86900599D01*
G75*
G02*
X185475999Y-86650600I249999J0D01*
G01*
X186126001Y-86650600D01*
G75*
G02*
X186376000Y-86900599I0J-249999D01*
G01*
X186376000Y-87800601D01*
G75*
G02*
X186126001Y-88050600I-249999J0D01*
G01*
X185475999Y-88050600D01*
G75*
G02*
X185226000Y-87800601I0J249999D01*
G01*
G37*
G36*
G01*
X175825999Y-98595600D02*
X176726001Y-98595600D01*
G75*
G02*
X176976000Y-98845599I0J-249999D01*
G01*
X176976000Y-99495601D01*
G75*
G02*
X176726001Y-99745600I-249999J0D01*
G01*
X175825999Y-99745600D01*
G75*
G02*
X175576000Y-99495601I0J249999D01*
G01*
X175576000Y-98845599D01*
G75*
G02*
X175825999Y-98595600I249999J0D01*
G01*
G37*
G36*
G01*
X175825999Y-96545600D02*
X176726001Y-96545600D01*
G75*
G02*
X176976000Y-96795599I0J-249999D01*
G01*
X176976000Y-97445601D01*
G75*
G02*
X176726001Y-97695600I-249999J0D01*
G01*
X175825999Y-97695600D01*
G75*
G02*
X175576000Y-97445601I0J249999D01*
G01*
X175576000Y-96795599D01*
G75*
G02*
X175825999Y-96545600I249999J0D01*
G01*
G37*
G36*
G01*
X180871600Y-77324799D02*
X180871600Y-78224801D01*
G75*
G02*
X180621601Y-78474800I-249999J0D01*
G01*
X179971599Y-78474800D01*
G75*
G02*
X179721600Y-78224801I0J249999D01*
G01*
X179721600Y-77324799D01*
G75*
G02*
X179971599Y-77074800I249999J0D01*
G01*
X180621601Y-77074800D01*
G75*
G02*
X180871600Y-77324799I0J-249999D01*
G01*
G37*
G36*
G01*
X182921600Y-77324799D02*
X182921600Y-78224801D01*
G75*
G02*
X182671601Y-78474800I-249999J0D01*
G01*
X182021599Y-78474800D01*
G75*
G02*
X181771600Y-78224801I0J249999D01*
G01*
X181771600Y-77324799D01*
G75*
G02*
X182021599Y-77074800I249999J0D01*
G01*
X182671601Y-77074800D01*
G75*
G02*
X182921600Y-77324799I0J-249999D01*
G01*
G37*
G36*
G01*
X167697999Y-91855600D02*
X168598001Y-91855600D01*
G75*
G02*
X168848000Y-92105599I0J-249999D01*
G01*
X168848000Y-92755601D01*
G75*
G02*
X168598001Y-93005600I-249999J0D01*
G01*
X167697999Y-93005600D01*
G75*
G02*
X167448000Y-92755601I0J249999D01*
G01*
X167448000Y-92105599D01*
G75*
G02*
X167697999Y-91855600I249999J0D01*
G01*
G37*
G36*
G01*
X167697999Y-89805600D02*
X168598001Y-89805600D01*
G75*
G02*
X168848000Y-90055599I0J-249999D01*
G01*
X168848000Y-90705601D01*
G75*
G02*
X168598001Y-90955600I-249999J0D01*
G01*
X167697999Y-90955600D01*
G75*
G02*
X167448000Y-90705601I0J249999D01*
G01*
X167448000Y-90055599D01*
G75*
G02*
X167697999Y-89805600I249999J0D01*
G01*
G37*
G36*
G01*
X172729200Y-79215401D02*
X172729200Y-78315399D01*
G75*
G02*
X172979199Y-78065400I249999J0D01*
G01*
X173629201Y-78065400D01*
G75*
G02*
X173879200Y-78315399I0J-249999D01*
G01*
X173879200Y-79215401D01*
G75*
G02*
X173629201Y-79465400I-249999J0D01*
G01*
X172979199Y-79465400D01*
G75*
G02*
X172729200Y-79215401I0J249999D01*
G01*
G37*
G36*
G01*
X170679200Y-79215401D02*
X170679200Y-78315399D01*
G75*
G02*
X170929199Y-78065400I249999J0D01*
G01*
X171579201Y-78065400D01*
G75*
G02*
X171829200Y-78315399I0J-249999D01*
G01*
X171829200Y-79215401D01*
G75*
G02*
X171579201Y-79465400I-249999J0D01*
G01*
X170929199Y-79465400D01*
G75*
G02*
X170679200Y-79215401I0J249999D01*
G01*
G37*
G36*
G01*
X180321799Y-97782800D02*
X181221801Y-97782800D01*
G75*
G02*
X181471800Y-98032799I0J-249999D01*
G01*
X181471800Y-98682801D01*
G75*
G02*
X181221801Y-98932800I-249999J0D01*
G01*
X180321799Y-98932800D01*
G75*
G02*
X180071800Y-98682801I0J249999D01*
G01*
X180071800Y-98032799D01*
G75*
G02*
X180321799Y-97782800I249999J0D01*
G01*
G37*
G36*
G01*
X180321799Y-95732800D02*
X181221801Y-95732800D01*
G75*
G02*
X181471800Y-95982799I0J-249999D01*
G01*
X181471800Y-96632801D01*
G75*
G02*
X181221801Y-96882800I-249999J0D01*
G01*
X180321799Y-96882800D01*
G75*
G02*
X180071800Y-96632801I0J249999D01*
G01*
X180071800Y-95982799D01*
G75*
G02*
X180321799Y-95732800I249999J0D01*
G01*
G37*
M02*
