G04 #@! TF.GenerationSoftware,KiCad,Pcbnew,(5.1.12)-1*
G04 #@! TF.CreationDate,2021-12-20T15:10:15-08:00*
G04 #@! TF.ProjectId,logboi,6c6f6762-6f69-42e6-9b69-6361645f7063,rev?*
G04 #@! TF.SameCoordinates,Original*
G04 #@! TF.FileFunction,Copper,L1,Top*
G04 #@! TF.FilePolarity,Positive*
%FSLAX46Y46*%
G04 Gerber Fmt 4.6, Leading zero omitted, Abs format (unit mm)*
G04 Created by KiCad (PCBNEW (5.1.12)-1) date 2021-12-20 15:10:15*
%MOMM*%
%LPD*%
G01*
G04 APERTURE LIST*
G04 #@! TA.AperFunction,ComponentPad*
%ADD10C,4.500000*%
G04 #@! TD*
G04 #@! TA.AperFunction,ComponentPad*
%ADD11C,2.200000*%
G04 #@! TD*
G04 #@! TA.AperFunction,ComponentPad*
%ADD12C,0.650000*%
G04 #@! TD*
G04 #@! TA.AperFunction,ComponentPad*
%ADD13O,0.900000X2.400000*%
G04 #@! TD*
G04 #@! TA.AperFunction,ComponentPad*
%ADD14O,0.900000X1.700000*%
G04 #@! TD*
G04 #@! TA.AperFunction,ComponentPad*
%ADD15O,1.700000X1.700000*%
G04 #@! TD*
G04 #@! TA.AperFunction,ComponentPad*
%ADD16R,1.700000X1.700000*%
G04 #@! TD*
G04 #@! TA.AperFunction,ViaPad*
%ADD17C,0.800000*%
G04 #@! TD*
G04 #@! TA.AperFunction,Conductor*
%ADD18C,0.250000*%
G04 #@! TD*
G04 #@! TA.AperFunction,Conductor*
%ADD19C,0.254000*%
G04 #@! TD*
G04 #@! TA.AperFunction,Conductor*
%ADD20C,0.100000*%
G04 #@! TD*
G04 APERTURE END LIST*
D10*
X375327500Y-77470000D03*
X65765000Y-39370000D03*
X65765000Y-77470000D03*
X375327500Y-39370000D03*
D11*
X290555000Y-46355000D03*
X296905000Y-43815000D03*
D12*
X355053300Y-24286400D03*
X353353300Y-24286400D03*
X354203300Y-24286400D03*
X355903300Y-24286400D03*
X356753300Y-24286400D03*
X357603300Y-24286400D03*
X358453300Y-24286400D03*
X359303300Y-24286400D03*
X353353300Y-22961400D03*
X354208300Y-22961400D03*
X355058300Y-22961400D03*
X355908300Y-22961400D03*
X356758300Y-22961400D03*
X357608300Y-22961400D03*
X358458300Y-22961400D03*
X359308300Y-22961400D03*
D13*
X352003300Y-23306400D03*
X360653300Y-23306400D03*
D14*
X352003300Y-19926400D03*
X360653300Y-19926400D03*
D11*
X135773750Y-84455000D03*
X142123750Y-81915000D03*
X119105000Y-65405000D03*
X125455000Y-62865000D03*
X114342500Y-46355000D03*
X120692500Y-43815000D03*
X111961250Y-27305000D03*
X118311250Y-24765000D03*
X228642500Y-27305000D03*
X234992500Y-24765000D03*
X223880000Y-84455000D03*
X230230000Y-81915000D03*
X192923750Y-84455000D03*
X199273750Y-81915000D03*
X381042500Y-84455000D03*
X387392500Y-81915000D03*
X381042500Y-65405000D03*
X387392500Y-62865000D03*
X381042500Y-46355000D03*
X387392500Y-43815000D03*
X381042500Y-27305000D03*
X387392500Y-24765000D03*
X33380000Y-27305000D03*
X39730000Y-24765000D03*
X52430000Y-27305000D03*
X58780000Y-24765000D03*
X71480000Y-27305000D03*
X77830000Y-24765000D03*
X90530000Y-27305000D03*
X96880000Y-24765000D03*
X133392500Y-27305000D03*
X139742500Y-24765000D03*
X152442500Y-27305000D03*
X158792500Y-24765000D03*
X171492500Y-27305000D03*
X177842500Y-24765000D03*
X190542500Y-27305000D03*
X196892500Y-24765000D03*
X209592500Y-27305000D03*
X215942500Y-24765000D03*
X247692500Y-27305000D03*
X254042500Y-24765000D03*
X266742500Y-27305000D03*
X273092500Y-24765000D03*
X285792500Y-27305000D03*
X292142500Y-24765000D03*
X304842500Y-27305000D03*
X311192500Y-24765000D03*
X323892500Y-27305000D03*
X330242500Y-24765000D03*
X342942500Y-27305000D03*
X349292500Y-24765000D03*
X361992500Y-27305000D03*
X368342500Y-24765000D03*
X33380000Y-46355000D03*
X39730000Y-43815000D03*
X52430000Y-46355000D03*
X58780000Y-43815000D03*
X71480000Y-46355000D03*
X77830000Y-43815000D03*
X90530000Y-46355000D03*
X96880000Y-43815000D03*
X138155000Y-46355000D03*
X144505000Y-43815000D03*
X157205000Y-46355000D03*
X163555000Y-43815000D03*
X176255000Y-46355000D03*
X182605000Y-43815000D03*
X195305000Y-46355000D03*
X201655000Y-43815000D03*
X214355000Y-46355000D03*
X220705000Y-43815000D03*
X233405000Y-46355000D03*
X239755000Y-43815000D03*
X252455000Y-46355000D03*
X258805000Y-43815000D03*
X271505000Y-46355000D03*
X277855000Y-43815000D03*
X309605000Y-46355000D03*
X315955000Y-43815000D03*
X328655000Y-46355000D03*
X335005000Y-43815000D03*
X354848750Y-46355000D03*
X361198750Y-43815000D03*
X33380000Y-65405000D03*
X39730000Y-62865000D03*
X52430000Y-65405000D03*
X58780000Y-62865000D03*
X71480000Y-65405000D03*
X77830000Y-62865000D03*
X90530000Y-65405000D03*
X96880000Y-62865000D03*
X147680000Y-65405000D03*
X154030000Y-62865000D03*
X166730000Y-65405000D03*
X173080000Y-62865000D03*
X185780000Y-65405000D03*
X192130000Y-62865000D03*
X204830000Y-65405000D03*
X211180000Y-62865000D03*
X223880000Y-65405000D03*
X230230000Y-62865000D03*
X242930000Y-65405000D03*
X249280000Y-62865000D03*
X261980000Y-65405000D03*
X268330000Y-62865000D03*
X281030000Y-65405000D03*
X287380000Y-62865000D03*
X300080000Y-65405000D03*
X306430000Y-62865000D03*
X319130000Y-65405000D03*
X325480000Y-62865000D03*
X340561250Y-65405000D03*
X346911250Y-62865000D03*
X361992500Y-65405000D03*
X368342500Y-62865000D03*
X42905000Y-84455000D03*
X49255000Y-81915000D03*
X71480000Y-84455000D03*
X77830000Y-81915000D03*
X90530000Y-84455000D03*
X96880000Y-81915000D03*
X111961250Y-84455000D03*
X118311250Y-81915000D03*
X159586250Y-84455000D03*
X165936250Y-81915000D03*
X254836250Y-84455000D03*
X261186250Y-81915000D03*
X285792500Y-84455000D03*
X292142500Y-81915000D03*
X304842500Y-84455000D03*
X311192500Y-81915000D03*
X323892500Y-84455000D03*
X330242500Y-81915000D03*
X342942500Y-84455000D03*
X349292500Y-81915000D03*
X361992500Y-84455000D03*
X368342500Y-81915000D03*
D15*
X153212800Y-83566000D03*
X150672800Y-83566000D03*
X153212800Y-86106000D03*
X150672800Y-86106000D03*
X153212800Y-88646000D03*
D16*
X150672800Y-88646000D03*
D17*
X162982790Y-96097210D03*
X162982790Y-92363410D03*
X187851000Y-85376800D03*
X186766200Y-82372200D03*
X173964600Y-76835000D03*
X184395176Y-76818424D03*
X173399200Y-91751400D03*
X179501800Y-92710000D03*
X184581010Y-87718800D03*
X181266600Y-79337400D03*
X184987700Y-83058500D03*
X166674800Y-90398600D03*
X184581010Y-91643990D03*
X195922210Y-90271600D03*
X171221400Y-80238600D03*
X203052000Y-88265000D03*
X180467000Y-94919800D03*
X358662500Y-34595000D03*
X353892500Y-34595000D03*
X339612500Y-34595000D03*
X334842500Y-34595000D03*
X320562500Y-34595000D03*
X315792500Y-34595000D03*
X301512500Y-34595000D03*
X296742500Y-34595000D03*
X282462500Y-34595000D03*
X277692500Y-34595000D03*
X263412500Y-34595000D03*
X258642500Y-34595000D03*
X244362500Y-34595000D03*
X239592500Y-34595000D03*
X225312500Y-34595000D03*
X220542500Y-34595000D03*
X206262500Y-34595000D03*
X201492500Y-34595000D03*
X187212500Y-34595000D03*
X182442500Y-34595000D03*
X168162500Y-34595000D03*
X163392500Y-34595000D03*
X149112500Y-34595000D03*
X144342500Y-34595000D03*
X130062500Y-34595000D03*
X122911250Y-34595000D03*
X108631250Y-34595000D03*
X101480000Y-34595000D03*
X87200000Y-34595000D03*
X82430000Y-34595000D03*
X68150000Y-34595000D03*
X63380000Y-34595000D03*
X49100000Y-34595000D03*
X44330000Y-34595000D03*
X30050000Y-34595000D03*
X61087000Y-92659200D03*
X365798750Y-53645000D03*
X351518750Y-53645000D03*
X339605000Y-53645000D03*
X325325000Y-53645000D03*
X320555000Y-53645000D03*
X306275000Y-53645000D03*
X301505000Y-53645000D03*
X287225000Y-53645000D03*
X282455000Y-53645000D03*
X268175000Y-53645000D03*
X263405000Y-53645000D03*
X249125000Y-53645000D03*
X244355000Y-53645000D03*
X230075000Y-53645000D03*
X225305000Y-53645000D03*
X211025000Y-53645000D03*
X206255000Y-53645000D03*
X191975000Y-53645000D03*
X187205000Y-53645000D03*
X172925000Y-53645000D03*
X168155000Y-53645000D03*
X153875000Y-53645000D03*
X149105000Y-53645000D03*
X134825000Y-53645000D03*
X125292500Y-53645000D03*
X111012500Y-53645000D03*
X101480000Y-53645000D03*
X87200000Y-53645000D03*
X82430000Y-53645000D03*
X68150000Y-53645000D03*
X63380000Y-53645000D03*
X49100000Y-53645000D03*
X44330000Y-53645000D03*
X30050000Y-53645000D03*
X377712500Y-34595000D03*
X62204600Y-92583000D03*
X130103200Y-72707500D03*
X372942500Y-72695000D03*
X358662500Y-72695000D03*
X351511250Y-72695000D03*
X337231250Y-72695000D03*
X330080000Y-72695000D03*
X315800000Y-72695000D03*
X311030000Y-72695000D03*
X296750000Y-72695000D03*
X291980000Y-72695000D03*
X277700000Y-72695000D03*
X272930000Y-72695000D03*
X258650000Y-72695000D03*
X253880000Y-72695000D03*
X239600000Y-72695000D03*
X234830000Y-72695000D03*
X220550000Y-72695000D03*
X215780000Y-72695000D03*
X201500000Y-72695000D03*
X196730000Y-72695000D03*
X182450000Y-72695000D03*
X177680000Y-72695000D03*
X163400000Y-72695000D03*
X158630000Y-72695000D03*
X144350000Y-72695000D03*
X115775000Y-72695000D03*
X101524450Y-72695000D03*
X87200000Y-72695000D03*
X82430000Y-72695000D03*
X68150000Y-72695000D03*
X63380000Y-72695000D03*
X49100000Y-72695000D03*
X44330000Y-72695000D03*
X30050000Y-72695000D03*
X377712500Y-53645000D03*
X153644600Y-93243400D03*
X63398400Y-92608400D03*
X195453000Y-91745000D03*
X372942500Y-91745000D03*
X358662500Y-91745000D03*
X353892500Y-91745000D03*
X339612500Y-91745000D03*
X334842500Y-91745000D03*
X320562500Y-91745000D03*
X315792500Y-91745000D03*
X301512500Y-91745000D03*
X296742500Y-91745000D03*
X282462500Y-91745000D03*
X265786250Y-91745000D03*
X251506250Y-91745000D03*
X234830000Y-91745000D03*
X220550000Y-91745000D03*
X146723750Y-91745000D03*
X132443750Y-91745000D03*
X122911250Y-91745000D03*
X108631250Y-91745000D03*
X87200000Y-91745000D03*
X82430000Y-91745000D03*
X68150000Y-91745000D03*
X53855000Y-91745000D03*
X391992500Y-91745000D03*
X377712500Y-91745000D03*
X391992500Y-72695000D03*
X377712500Y-72695000D03*
X170027600Y-93091000D03*
X191058800Y-91897200D03*
X148209000Y-95707200D03*
X49255000Y-79885000D03*
X39730000Y-75105000D03*
X39730000Y-60835000D03*
X39730000Y-56055000D03*
X39730000Y-41785000D03*
X39730000Y-37005000D03*
X58780000Y-75105000D03*
X58780000Y-60835000D03*
X58780000Y-56055000D03*
X58780000Y-41785000D03*
X58780000Y-37005000D03*
X58780000Y-75105000D03*
X58780000Y-75105000D03*
X77830000Y-75105000D03*
X77830000Y-60835000D03*
X77830000Y-56055000D03*
X77830000Y-41785000D03*
X77830000Y-37005000D03*
X96880000Y-75105000D03*
X96880000Y-60835000D03*
X96880000Y-56055000D03*
X96880000Y-41785000D03*
X96880000Y-37005000D03*
X125455000Y-75105000D03*
X125455000Y-60835000D03*
X120692500Y-56055000D03*
X120692500Y-41785000D03*
X118311250Y-37005000D03*
X165936250Y-79885000D03*
X154030000Y-75105000D03*
X154030000Y-60835000D03*
X144505000Y-56055000D03*
X144505000Y-41785000D03*
X139742500Y-37005000D03*
X173080000Y-75105000D03*
X173080000Y-60835000D03*
X163555000Y-56055000D03*
X163555000Y-41785000D03*
X158792500Y-37005000D03*
X230230000Y-79885000D03*
X192130000Y-75105000D03*
X192130000Y-60835000D03*
X182605000Y-56055000D03*
X182605000Y-41785000D03*
X177842500Y-37005000D03*
X175679100Y-75069700D03*
X261186250Y-79885000D03*
X211180000Y-75105000D03*
X211180000Y-60835000D03*
X201655000Y-56055000D03*
X201655000Y-41785000D03*
X196892500Y-37005000D03*
X292142500Y-79885000D03*
X230230000Y-75105000D03*
X230230000Y-60835000D03*
X220705000Y-56055000D03*
X220705000Y-41785000D03*
X215942500Y-37005000D03*
X311192500Y-79885000D03*
X249280000Y-75105000D03*
X249280000Y-60835000D03*
X239755000Y-56055000D03*
X239755000Y-41785000D03*
X234992500Y-37005000D03*
X268330000Y-75105000D03*
X330242500Y-79885000D03*
X268330000Y-60835000D03*
X258805000Y-56055000D03*
X258805000Y-41785000D03*
X254042500Y-37005000D03*
X349292500Y-79885000D03*
X287380000Y-75105000D03*
X287380000Y-60835000D03*
X277855000Y-56055000D03*
X277855000Y-41785000D03*
X273092500Y-37005000D03*
X368342500Y-79885000D03*
X306430000Y-75105000D03*
X306430000Y-60835000D03*
X296905000Y-56055000D03*
X296905000Y-41785000D03*
X292142500Y-37005000D03*
X325480000Y-75105000D03*
X325480000Y-60835000D03*
X315955000Y-56055000D03*
X315955000Y-41785000D03*
X311192500Y-37005000D03*
X346911250Y-75105000D03*
X346911250Y-60835000D03*
X335005000Y-56055000D03*
X335005000Y-41785000D03*
X330242500Y-37005000D03*
X361198750Y-41785000D03*
X368342500Y-75105000D03*
X368342500Y-60835000D03*
X361198750Y-56055000D03*
X349292500Y-37005000D03*
X387392500Y-37005000D03*
X387392500Y-41785000D03*
X387392500Y-56055000D03*
X387392500Y-60835000D03*
X387392500Y-75105000D03*
X362912890Y-21336000D03*
X357733600Y-26543000D03*
X346625500Y-21234400D03*
D18*
X162982790Y-92363410D02*
X162982790Y-92363410D01*
X152037799Y-84930999D02*
X154513247Y-84930999D01*
X150672800Y-83566000D02*
X152037799Y-84930999D01*
X155199824Y-85617576D02*
X155199824Y-91064824D01*
X154513247Y-84930999D02*
X155199824Y-85617576D01*
X157445590Y-93310590D02*
X162982790Y-93310590D01*
X155199824Y-91064824D02*
X157445590Y-93310590D01*
X162982790Y-93310590D02*
X162982790Y-92363410D01*
X162982790Y-96097210D02*
X162982790Y-93310590D01*
X187851000Y-85376800D02*
X187851000Y-83457000D01*
X187851000Y-83457000D02*
X186766200Y-82372200D01*
X186766200Y-82372200D02*
X186766200Y-82372200D01*
X186766200Y-79189448D02*
X184395176Y-76818424D01*
X186766200Y-82372200D02*
X186766200Y-79189448D01*
X184030752Y-76454000D02*
X174320200Y-76454000D01*
X174320200Y-76454000D02*
X174320200Y-76479400D01*
X174320200Y-76479400D02*
X173964600Y-76835000D01*
X173964600Y-76835000D02*
X173964600Y-76835000D01*
X184395176Y-76818424D02*
X184030752Y-76454000D01*
X185000997Y-81972201D02*
X182219600Y-84753598D01*
X186366201Y-81972201D02*
X185000997Y-81972201D01*
X186766200Y-82372200D02*
X186366201Y-81972201D01*
X182219600Y-91059000D02*
X181527200Y-91751400D01*
X182219600Y-84753598D02*
X182219600Y-91059000D01*
X180460400Y-91751400D02*
X179501800Y-92710000D01*
X181527200Y-91751400D02*
X180460400Y-91751400D01*
X174357800Y-92710000D02*
X173399200Y-91751400D01*
X179501800Y-92710000D02*
X174357800Y-92710000D01*
X185127400Y-83198200D02*
X185178200Y-83198200D01*
X184987700Y-83058500D02*
X185127400Y-83198200D01*
X166674800Y-90398600D02*
X166674800Y-90398600D01*
X184581010Y-91796390D02*
X184581010Y-87718800D01*
X184581010Y-91643990D02*
X184581010Y-91796390D01*
X184581010Y-83465190D02*
X184987700Y-83058500D01*
X184581010Y-87718800D02*
X184581010Y-83465190D01*
X185553005Y-88690795D02*
X185108505Y-88246295D01*
X194341405Y-88690795D02*
X185553005Y-88690795D01*
X195922210Y-90271600D02*
X194341405Y-88690795D01*
X185108505Y-88246295D02*
X184581010Y-87718800D01*
X172122600Y-79337400D02*
X171221400Y-80238600D01*
X181266600Y-79337400D02*
X172122600Y-79337400D01*
X171221400Y-81559400D02*
X171221400Y-80238600D01*
X170141900Y-82638900D02*
X171221400Y-81559400D01*
X170141900Y-89573100D02*
X170141900Y-82638900D01*
X169316400Y-90398600D02*
X170141900Y-89573100D01*
X166674800Y-90398600D02*
X169316400Y-90398600D01*
X155649834Y-84682234D02*
X154533600Y-83566000D01*
X154533600Y-83566000D02*
X153212800Y-83566000D01*
X157757580Y-92860580D02*
X155649834Y-90752834D01*
X161444220Y-92860580D02*
X157757580Y-92860580D01*
X162666391Y-91638409D02*
X161444220Y-92860580D01*
X164660657Y-91638409D02*
X162666391Y-91638409D01*
X167942048Y-94919800D02*
X164660657Y-91638409D01*
X155649834Y-90752834D02*
X155649834Y-84682234D01*
X180467000Y-94919800D02*
X167942048Y-94919800D01*
X183717749Y-97560001D02*
X181077548Y-94919800D01*
X193756999Y-97560001D02*
X183717749Y-97560001D01*
X181077548Y-94919800D02*
X180467000Y-94919800D01*
X203052000Y-88265000D02*
X193756999Y-97560001D01*
X358662500Y-34595000D02*
X353892500Y-34595000D01*
X47924989Y-35770011D02*
X49100000Y-34595000D01*
X47924989Y-74089809D02*
X47924989Y-35770011D01*
X61087000Y-87251820D02*
X47924989Y-74089809D01*
X61087000Y-92659200D02*
X61087000Y-87251820D01*
X206255000Y-53645000D02*
X211025000Y-53645000D01*
X48374999Y-54370001D02*
X49100000Y-53645000D01*
X48374999Y-73903409D02*
X48374999Y-54370001D01*
X62204600Y-87733010D02*
X48374999Y-73903409D01*
X62204600Y-92583000D02*
X62204600Y-87733010D01*
X187205000Y-53645000D02*
X191975000Y-53645000D01*
X339605000Y-53645000D02*
X351518750Y-53645000D01*
X177680000Y-72695000D02*
X182450000Y-72695000D01*
X196730000Y-72695000D02*
X201500000Y-72695000D01*
X153644600Y-89077800D02*
X153212800Y-88646000D01*
X153644600Y-93243400D02*
X153644600Y-89077800D01*
X49100000Y-73992000D02*
X49100000Y-72695000D01*
X63398400Y-92608400D02*
X63398400Y-88290400D01*
X63398400Y-88290400D02*
X49100000Y-73992000D01*
X315792500Y-91745000D02*
X320562500Y-91745000D01*
X191058800Y-91897200D02*
X191058800Y-91897200D01*
X171119800Y-94183200D02*
X170027600Y-93091000D01*
X182118000Y-94183200D02*
X171119800Y-94183200D01*
X183756300Y-92544900D02*
X182118000Y-94183200D01*
X190411100Y-92544900D02*
X183756300Y-92544900D01*
X191058800Y-91897200D02*
X190411100Y-92544900D01*
X149580600Y-86106000D02*
X150672800Y-86106000D01*
X148209000Y-87477600D02*
X149580600Y-86106000D01*
X148209000Y-95707200D02*
X148209000Y-87477600D01*
X49255000Y-79885000D02*
X49255000Y-81915000D01*
X44475000Y-75105000D02*
X49255000Y-79885000D01*
X39730000Y-75105000D02*
X44475000Y-75105000D01*
X39730000Y-60835000D02*
X39730000Y-75105000D01*
X39730000Y-60835000D02*
X39730000Y-56055000D01*
X39730000Y-56055000D02*
X39730000Y-24765000D01*
X58780000Y-75105000D02*
X58780000Y-60835000D01*
X58780000Y-56055000D02*
X58780000Y-60835000D01*
X58780000Y-24765000D02*
X58780000Y-56055000D01*
X74021002Y-81915000D02*
X74904600Y-81915000D01*
X74904600Y-81915000D02*
X77830000Y-81915000D01*
X66324802Y-74218800D02*
X74021002Y-81915000D01*
X64897000Y-74218800D02*
X66324802Y-74218800D01*
X64010800Y-75105000D02*
X64897000Y-74218800D01*
X58780000Y-75105000D02*
X64010800Y-75105000D01*
X77830000Y-60835000D02*
X77830000Y-75105000D01*
X77830000Y-24765000D02*
X77830000Y-60835000D01*
X90070000Y-75105000D02*
X96880000Y-81915000D01*
X77830000Y-75105000D02*
X90070000Y-75105000D01*
X96880000Y-60835000D02*
X96880000Y-75105000D01*
X96880000Y-60835000D02*
X96880000Y-56055000D01*
X96880000Y-24765000D02*
X96880000Y-56055000D01*
X118311250Y-80040248D02*
X118311250Y-81915000D01*
X112131001Y-73859999D02*
X118311250Y-80040248D01*
X98125001Y-73859999D02*
X112131001Y-73859999D01*
X96880000Y-75105000D02*
X98125001Y-73859999D01*
X125455000Y-75105000D02*
X125455000Y-60835000D01*
X120692500Y-56072500D02*
X120692500Y-56055000D01*
X125455000Y-60835000D02*
X120692500Y-56072500D01*
X120692500Y-56055000D02*
X120692500Y-41785000D01*
X118311250Y-39403750D02*
X120692500Y-41785000D01*
X118311250Y-37005000D02*
X118311250Y-39403750D01*
X118311250Y-30746002D02*
X118311250Y-37005000D01*
X118311250Y-24765000D02*
X118311250Y-30746002D01*
X135931001Y-73859999D02*
X142123750Y-80052748D01*
X142123750Y-80052748D02*
X142123750Y-81915000D01*
X126700001Y-73859999D02*
X135931001Y-73859999D01*
X125455000Y-75105000D02*
X126700001Y-73859999D01*
X165936250Y-79885000D02*
X165936250Y-81915000D01*
X139742500Y-24765000D02*
X139742500Y-37005000D01*
X144505000Y-41767500D02*
X144505000Y-41785000D01*
X139742500Y-37005000D02*
X144505000Y-41767500D01*
X144505000Y-48094002D02*
X144505000Y-56055000D01*
X144505000Y-41785000D02*
X144505000Y-48094002D01*
X144505000Y-56055000D02*
X148463000Y-60013000D01*
X153208000Y-60013000D02*
X154030000Y-60835000D01*
X148463000Y-60013000D02*
X153208000Y-60013000D01*
X165936250Y-79885000D02*
X165936250Y-78865050D01*
X162176200Y-75105000D02*
X154030000Y-75105000D01*
X165936250Y-78865050D02*
X162176200Y-75105000D01*
X154030000Y-60835000D02*
X154030000Y-75105000D01*
X158792500Y-30746002D02*
X158792500Y-37005000D01*
X158792500Y-24765000D02*
X158792500Y-30746002D01*
X163555000Y-41767500D02*
X163555000Y-41785000D01*
X158792500Y-37005000D02*
X163555000Y-41767500D01*
X163555000Y-56055000D02*
X163555000Y-41785000D01*
X168300000Y-56055000D02*
X173080000Y-60835000D01*
X163555000Y-56055000D02*
X168300000Y-56055000D01*
X173080000Y-60835000D02*
X173080000Y-75105000D01*
X197718116Y-81915000D02*
X199273750Y-81915000D01*
X191633117Y-75830001D02*
X197718116Y-81915000D01*
X173805001Y-75830001D02*
X191633117Y-75830001D01*
X173080000Y-75105000D02*
X173805001Y-75830001D01*
X230230000Y-81915000D02*
X230230000Y-79885000D01*
X184248800Y-75105000D02*
X192130000Y-75105000D01*
X192130000Y-60835000D02*
X192130000Y-75105000D01*
X228489999Y-78144999D02*
X230230000Y-79885000D01*
X195169999Y-78144999D02*
X228489999Y-78144999D01*
X192130000Y-75105000D02*
X195169999Y-78144999D01*
X182605000Y-41785000D02*
X182605000Y-56055000D01*
X177842500Y-24765000D02*
X177842500Y-37005000D01*
X182605000Y-41767500D02*
X182605000Y-41785000D01*
X177842500Y-37005000D02*
X182605000Y-41767500D01*
X175714400Y-75105000D02*
X175679100Y-75069700D01*
X184248800Y-75105000D02*
X175714400Y-75105000D01*
X187350000Y-56055000D02*
X192130000Y-60835000D01*
X182605000Y-56055000D02*
X187350000Y-56055000D01*
X261186250Y-81915000D02*
X261186250Y-79885000D01*
X211180000Y-75105000D02*
X211180000Y-60835000D01*
X196892500Y-24765000D02*
X196892500Y-37005000D01*
X201655000Y-41767500D02*
X201655000Y-41785000D01*
X196892500Y-37005000D02*
X201655000Y-41767500D01*
X201655000Y-41785000D02*
X201655000Y-56055000D01*
X252787180Y-79885000D02*
X261186250Y-79885000D01*
X213664810Y-77589810D02*
X250491990Y-77589810D01*
X250491990Y-77589810D02*
X252787180Y-79885000D01*
X211180000Y-75105000D02*
X213664810Y-77589810D01*
X206400000Y-56055000D02*
X211180000Y-60835000D01*
X201655000Y-56055000D02*
X206400000Y-56055000D01*
X292142500Y-79885000D02*
X292142500Y-81915000D01*
X230230000Y-60835000D02*
X230230000Y-75105000D01*
X215942500Y-24765000D02*
X215942500Y-37005000D01*
X220705000Y-41767500D02*
X220705000Y-41785000D01*
X215942500Y-37005000D02*
X220705000Y-41767500D01*
X220705000Y-41785000D02*
X220705000Y-56055000D01*
X232264800Y-77139800D02*
X250678390Y-77139800D01*
X230230000Y-75105000D02*
X232264800Y-77139800D01*
X250678390Y-77139800D02*
X251389820Y-77851230D01*
X290108730Y-77851230D02*
X292142500Y-79885000D01*
X251389820Y-77851230D02*
X290108730Y-77851230D01*
X225450000Y-56055000D02*
X230230000Y-60835000D01*
X220705000Y-56055000D02*
X225450000Y-56055000D01*
X311192500Y-79885000D02*
X311192500Y-81915000D01*
X249280000Y-75105000D02*
X249280000Y-60835000D01*
X234992500Y-24765000D02*
X234992500Y-37005000D01*
X239755000Y-41767500D02*
X239755000Y-41785000D01*
X234992500Y-37005000D02*
X239755000Y-41767500D01*
X239755000Y-41785000D02*
X239755000Y-56055000D01*
X249280000Y-75105000D02*
X251576220Y-77401220D01*
X308708720Y-77401220D02*
X311192500Y-79885000D01*
X251576220Y-77401220D02*
X308708720Y-77401220D01*
X244500000Y-56055000D02*
X249280000Y-60835000D01*
X239755000Y-56055000D02*
X244500000Y-56055000D01*
X330242500Y-81915000D02*
X330242500Y-79885000D01*
X268330000Y-75105000D02*
X268330000Y-60835000D01*
X254042500Y-24765000D02*
X254042500Y-37005000D01*
X258805000Y-41767500D02*
X258805000Y-41785000D01*
X254042500Y-37005000D02*
X258805000Y-41767500D01*
X258805000Y-41785000D02*
X258805000Y-56055000D01*
X270176210Y-76951210D02*
X268330000Y-75105000D01*
X327308710Y-76951210D02*
X270176210Y-76951210D01*
X330242500Y-79885000D02*
X327308710Y-76951210D01*
X263550000Y-56055000D02*
X268330000Y-60835000D01*
X258805000Y-56055000D02*
X263550000Y-56055000D01*
X349292500Y-81915000D02*
X349292500Y-79885000D01*
X287380000Y-60835000D02*
X287380000Y-75105000D01*
X273092500Y-29044002D02*
X273092500Y-37005000D01*
X273092500Y-24765000D02*
X273092500Y-29044002D01*
X277855000Y-41767500D02*
X277855000Y-41785000D01*
X273092500Y-37005000D02*
X277855000Y-41767500D01*
X277855000Y-41785000D02*
X277855000Y-56055000D01*
X345908700Y-76501200D02*
X348241550Y-78834050D01*
X288776200Y-76501200D02*
X345908700Y-76501200D01*
X348241550Y-78834050D02*
X349292500Y-79885000D01*
X287380000Y-75105000D02*
X288776200Y-76501200D01*
X282600000Y-56055000D02*
X287380000Y-60835000D01*
X277855000Y-56055000D02*
X282600000Y-56055000D01*
X368342500Y-81915000D02*
X368342500Y-79885000D01*
X306430000Y-60835000D02*
X306430000Y-75105000D01*
X292142500Y-24765000D02*
X292142500Y-37005000D01*
X296905000Y-41767500D02*
X296905000Y-41785000D01*
X292142500Y-37005000D02*
X296905000Y-41767500D01*
X296905000Y-41785000D02*
X296905000Y-56055000D01*
X307330900Y-76005900D02*
X364463400Y-76005900D01*
X364463400Y-76005900D02*
X366681950Y-78224450D01*
X366681950Y-78224450D02*
X368342500Y-79885000D01*
X306430000Y-75105000D02*
X307330900Y-76005900D01*
X301650000Y-56055000D02*
X306430000Y-60835000D01*
X296905000Y-56055000D02*
X301650000Y-56055000D01*
X325480000Y-60835000D02*
X325480000Y-75105000D01*
X315955000Y-56055000D02*
X315955000Y-41785000D01*
X311192500Y-37022500D02*
X311192500Y-37005000D01*
X311192500Y-37022500D02*
X311633800Y-37463800D01*
X311192500Y-24765000D02*
X311192500Y-37022500D01*
X315955000Y-41785000D02*
X311633800Y-37463800D01*
X320700000Y-56055000D02*
X325480000Y-60835000D01*
X315955000Y-56055000D02*
X320700000Y-56055000D01*
X346911250Y-60835000D02*
X346911250Y-75105000D01*
X335005000Y-41785000D02*
X335005000Y-56055000D01*
X330242500Y-37022500D02*
X330242500Y-37005000D01*
X335005000Y-41785000D02*
X330242500Y-37022500D01*
X330242500Y-37005000D02*
X330242500Y-24765000D01*
X342131250Y-56055000D02*
X346911250Y-60835000D01*
X335005000Y-56055000D02*
X342131250Y-56055000D01*
X368342500Y-60835000D02*
X368342500Y-75105000D01*
X361198750Y-56055000D02*
X361198750Y-41785000D01*
X354072500Y-41785000D02*
X349292500Y-37005000D01*
X361198750Y-41785000D02*
X354072500Y-41785000D01*
X349292500Y-37005000D02*
X349292500Y-24765000D01*
X363562500Y-56055000D02*
X368342500Y-60835000D01*
X361198750Y-56055000D02*
X363562500Y-56055000D01*
X386630500Y-81153000D02*
X387392500Y-81915000D01*
X373684800Y-81153000D02*
X386630500Y-81153000D01*
X368342500Y-75810700D02*
X373684800Y-81153000D01*
X368342500Y-75105000D02*
X368342500Y-75810700D01*
X368342500Y-24765000D02*
X387392500Y-24765000D01*
X387392500Y-24765000D02*
X387392500Y-43815000D01*
X387392500Y-43815000D02*
X387392500Y-75105000D01*
X358774081Y-21336000D02*
X359867200Y-21336000D01*
X357608300Y-22501781D02*
X358774081Y-21336000D01*
X357608300Y-22961400D02*
X357608300Y-22501781D01*
X362912890Y-21336000D02*
X359867200Y-21336000D01*
X356103299Y-23974399D02*
X356758300Y-23319398D01*
X356103299Y-24185501D02*
X356103299Y-23974399D01*
X356758300Y-23319398D02*
X356758300Y-22961400D01*
X356002400Y-24286400D02*
X356103299Y-24185501D01*
X355903300Y-24286400D02*
X356002400Y-24286400D01*
X355903300Y-24712700D02*
X357733600Y-26543000D01*
X355903300Y-24286400D02*
X355903300Y-24712700D01*
X347870902Y-21234400D02*
X346625500Y-21234400D01*
X351572903Y-24936401D02*
X347870902Y-21234400D01*
X354862918Y-24936401D02*
X351572903Y-24936401D01*
X355053300Y-24746019D02*
X354862918Y-24936401D01*
X355053300Y-24286400D02*
X355053300Y-24746019D01*
D19*
X367220276Y-23433563D02*
X366994837Y-23659002D01*
X366804963Y-23943169D01*
X366674175Y-24258919D01*
X366607500Y-24594117D01*
X366607500Y-24935883D01*
X366674175Y-25271081D01*
X366804963Y-25586831D01*
X366994837Y-25870998D01*
X367140190Y-26016351D01*
X367093001Y-27538197D01*
X367050641Y-27509893D01*
X366571101Y-27311261D01*
X366062025Y-27210000D01*
X365542975Y-27210000D01*
X365033899Y-27311261D01*
X364554359Y-27509893D01*
X364122785Y-27798262D01*
X363755762Y-28165285D01*
X363467393Y-28596859D01*
X363442966Y-28655831D01*
X363089507Y-28658670D01*
X363098498Y-28652663D01*
X363340163Y-28410998D01*
X363530037Y-28126831D01*
X363660825Y-27811081D01*
X363727500Y-27475883D01*
X363727500Y-27134117D01*
X363660825Y-26798919D01*
X363530037Y-26483169D01*
X363340163Y-26199002D01*
X363098498Y-25957337D01*
X362814331Y-25767463D01*
X362498581Y-25636675D01*
X362163383Y-25570000D01*
X361821617Y-25570000D01*
X361486419Y-25636675D01*
X361170669Y-25767463D01*
X360886502Y-25957337D01*
X360644837Y-26199002D01*
X360454963Y-26483169D01*
X360324175Y-26798919D01*
X360257500Y-27134117D01*
X360257500Y-27475883D01*
X360324175Y-27811081D01*
X360454963Y-28126831D01*
X360610761Y-28360000D01*
X360576240Y-28360000D01*
X360289342Y-28417068D01*
X360019089Y-28529010D01*
X359785319Y-28685210D01*
X352828694Y-28741087D01*
X352779132Y-28691525D01*
X352535911Y-28529010D01*
X352265658Y-28417068D01*
X351978760Y-28360000D01*
X351686240Y-28360000D01*
X351399342Y-28417068D01*
X351129089Y-28529010D01*
X350885868Y-28691525D01*
X350820174Y-28757219D01*
X350052500Y-28763385D01*
X350052500Y-26328148D01*
X350114331Y-26302537D01*
X350398498Y-26112663D01*
X350640163Y-25870998D01*
X350830037Y-25586831D01*
X350923322Y-25361622D01*
X351009104Y-25447404D01*
X351032902Y-25476402D01*
X351061900Y-25500200D01*
X351148626Y-25571375D01*
X351250438Y-25625795D01*
X351280656Y-25641947D01*
X351423917Y-25685404D01*
X351535570Y-25696401D01*
X351535579Y-25696401D01*
X351572902Y-25700077D01*
X351610225Y-25696401D01*
X354825596Y-25696401D01*
X354862918Y-25700077D01*
X354900240Y-25696401D01*
X354900251Y-25696401D01*
X355011904Y-25685404D01*
X355155165Y-25641947D01*
X355287194Y-25571375D01*
X355402919Y-25476402D01*
X355426722Y-25447398D01*
X355494959Y-25379161D01*
X356698600Y-26582802D01*
X356698600Y-26644939D01*
X356738374Y-26844898D01*
X356816395Y-27033256D01*
X356929663Y-27202774D01*
X357073826Y-27346937D01*
X357243344Y-27460205D01*
X357431702Y-27538226D01*
X357631661Y-27578000D01*
X357835539Y-27578000D01*
X358035498Y-27538226D01*
X358223856Y-27460205D01*
X358393374Y-27346937D01*
X358537537Y-27202774D01*
X358650805Y-27033256D01*
X358728826Y-26844898D01*
X358768600Y-26644939D01*
X358768600Y-26441061D01*
X358728826Y-26241102D01*
X358650805Y-26052744D01*
X358537537Y-25883226D01*
X358393374Y-25739063D01*
X358223856Y-25625795D01*
X358035498Y-25547774D01*
X357835539Y-25508000D01*
X357773402Y-25508000D01*
X357511802Y-25246400D01*
X357697852Y-25246400D01*
X357883322Y-25209508D01*
X358028300Y-25149456D01*
X358173278Y-25209508D01*
X358358748Y-25246400D01*
X358547852Y-25246400D01*
X358733322Y-25209508D01*
X358878720Y-25149282D01*
X359018292Y-25207981D01*
X359203560Y-25245875D01*
X359392661Y-25246897D01*
X359578328Y-25211008D01*
X359753426Y-25139587D01*
X359762623Y-25134670D01*
X359776231Y-24938936D01*
X359380939Y-24543644D01*
X359413300Y-24380952D01*
X359413300Y-24191848D01*
X359412471Y-24187681D01*
X359497048Y-24272258D01*
X359482905Y-24286400D01*
X359633075Y-24436570D01*
X359699491Y-24588945D01*
X359821713Y-24764791D01*
X359975892Y-24913414D01*
X360156103Y-25029102D01*
X360359299Y-25100808D01*
X360526300Y-24973902D01*
X360526300Y-23433400D01*
X360780300Y-23433400D01*
X360780300Y-24973902D01*
X360947301Y-25100808D01*
X361150497Y-25029102D01*
X361330708Y-24913414D01*
X361484887Y-24764791D01*
X361607109Y-24588945D01*
X361692676Y-24392633D01*
X361738300Y-24183400D01*
X361738300Y-23433400D01*
X360780300Y-23433400D01*
X360526300Y-23433400D01*
X359974227Y-23433400D01*
X360156570Y-23420723D01*
X360229881Y-23246408D01*
X360243587Y-23179400D01*
X360526300Y-23179400D01*
X360526300Y-23159400D01*
X360780300Y-23159400D01*
X360780300Y-23179400D01*
X361738300Y-23179400D01*
X361738300Y-22429400D01*
X361692676Y-22220167D01*
X361638555Y-22096000D01*
X362209179Y-22096000D01*
X362253116Y-22139937D01*
X362422634Y-22253205D01*
X362610992Y-22331226D01*
X362810951Y-22371000D01*
X363014829Y-22371000D01*
X363214788Y-22331226D01*
X363403146Y-22253205D01*
X363572664Y-22139937D01*
X363716827Y-21995774D01*
X363830095Y-21826256D01*
X363908116Y-21637898D01*
X363947890Y-21437939D01*
X363947890Y-21234061D01*
X363908116Y-21034102D01*
X363830095Y-20845744D01*
X363716827Y-20676226D01*
X363572664Y-20532063D01*
X363403146Y-20418795D01*
X363214788Y-20340774D01*
X363014829Y-20301000D01*
X362810951Y-20301000D01*
X362610992Y-20340774D01*
X362422634Y-20418795D01*
X362253116Y-20532063D01*
X362209179Y-20576000D01*
X361711567Y-20576000D01*
X361738300Y-20453400D01*
X361738300Y-20053400D01*
X360780300Y-20053400D01*
X360780300Y-20073400D01*
X360526300Y-20073400D01*
X360526300Y-20053400D01*
X359568300Y-20053400D01*
X359568300Y-20453400D01*
X359595033Y-20576000D01*
X358811403Y-20576000D01*
X358774080Y-20572324D01*
X358736757Y-20576000D01*
X358736748Y-20576000D01*
X358625095Y-20586997D01*
X358481834Y-20630454D01*
X358349805Y-20701026D01*
X358234080Y-20795999D01*
X358210282Y-20824997D01*
X357097298Y-21937982D01*
X357068300Y-21961780D01*
X357010113Y-22032681D01*
X356852852Y-22001400D01*
X356663748Y-22001400D01*
X356478278Y-22038292D01*
X356333300Y-22098344D01*
X356188322Y-22038292D01*
X356002852Y-22001400D01*
X355813748Y-22001400D01*
X355628278Y-22038292D01*
X355483300Y-22098344D01*
X355338322Y-22038292D01*
X355152852Y-22001400D01*
X354963748Y-22001400D01*
X354778278Y-22038292D01*
X354633300Y-22098344D01*
X354488322Y-22038292D01*
X354302852Y-22001400D01*
X354113748Y-22001400D01*
X353928278Y-22038292D01*
X353780361Y-22099562D01*
X353638308Y-22039819D01*
X353453040Y-22001925D01*
X353263939Y-22000903D01*
X353078272Y-22036792D01*
X352980186Y-22076800D01*
X352957109Y-22023855D01*
X352834887Y-21848009D01*
X352680708Y-21699386D01*
X352500497Y-21583698D01*
X352297301Y-21511992D01*
X352130300Y-21638898D01*
X352130300Y-23179400D01*
X352417669Y-23179400D01*
X352428692Y-23236428D01*
X352500113Y-23411526D01*
X352505030Y-23420723D01*
X352687373Y-23433400D01*
X352130300Y-23433400D01*
X352130300Y-23453400D01*
X351876300Y-23453400D01*
X351876300Y-23433400D01*
X351856300Y-23433400D01*
X351856300Y-23179400D01*
X351876300Y-23179400D01*
X351876300Y-21638898D01*
X351709299Y-21511992D01*
X351506103Y-21583698D01*
X351325892Y-21699386D01*
X351171713Y-21848009D01*
X351049491Y-22023855D01*
X350963924Y-22220167D01*
X350918300Y-22429400D01*
X350918300Y-23206996D01*
X348434706Y-20723403D01*
X348410903Y-20694399D01*
X348295178Y-20599426D01*
X348163149Y-20528854D01*
X348019888Y-20485397D01*
X347908235Y-20474400D01*
X347908224Y-20474400D01*
X347870902Y-20470724D01*
X347833580Y-20474400D01*
X347329211Y-20474400D01*
X347285274Y-20430463D01*
X347115756Y-20317195D01*
X346927398Y-20239174D01*
X346727439Y-20199400D01*
X346523561Y-20199400D01*
X346323602Y-20239174D01*
X346135244Y-20317195D01*
X345965726Y-20430463D01*
X345821563Y-20574626D01*
X345708295Y-20744144D01*
X345630274Y-20932502D01*
X345590500Y-21132461D01*
X345590500Y-21336339D01*
X345630274Y-21536298D01*
X345708295Y-21724656D01*
X345821563Y-21894174D01*
X345965726Y-22038337D01*
X346135244Y-22151605D01*
X346323602Y-22229626D01*
X346523561Y-22269400D01*
X346727439Y-22269400D01*
X346927398Y-22229626D01*
X347115756Y-22151605D01*
X347285274Y-22038337D01*
X347329211Y-21994400D01*
X347556101Y-21994400D01*
X348695879Y-23134178D01*
X348470669Y-23227463D01*
X348186502Y-23417337D01*
X347944837Y-23659002D01*
X347754963Y-23943169D01*
X347624175Y-24258919D01*
X347557500Y-24594117D01*
X347557500Y-24935883D01*
X347624175Y-25271081D01*
X347754963Y-25586831D01*
X347944837Y-25870998D01*
X348186502Y-26112663D01*
X348470669Y-26302537D01*
X348532501Y-26328149D01*
X348532501Y-27898548D01*
X348432215Y-27798262D01*
X348000641Y-27509893D01*
X347521101Y-27311261D01*
X347012025Y-27210000D01*
X346492975Y-27210000D01*
X345983899Y-27311261D01*
X345504359Y-27509893D01*
X345072785Y-27798262D01*
X344705762Y-28165285D01*
X344417393Y-28596859D01*
X344329375Y-28809354D01*
X343807722Y-28813544D01*
X344048498Y-28652663D01*
X344290163Y-28410998D01*
X344480037Y-28126831D01*
X344610825Y-27811081D01*
X344677500Y-27475883D01*
X344677500Y-27134117D01*
X344610825Y-26798919D01*
X344480037Y-26483169D01*
X344290163Y-26199002D01*
X344048498Y-25957337D01*
X343764331Y-25767463D01*
X343448581Y-25636675D01*
X343113383Y-25570000D01*
X342771617Y-25570000D01*
X342436419Y-25636675D01*
X342120669Y-25767463D01*
X342046817Y-25816809D01*
X342112559Y-20053400D01*
X350918300Y-20053400D01*
X350918300Y-20453400D01*
X350963924Y-20662633D01*
X351049491Y-20858945D01*
X351171713Y-21034791D01*
X351325892Y-21183414D01*
X351506103Y-21299102D01*
X351709299Y-21370808D01*
X351876300Y-21243902D01*
X351876300Y-20053400D01*
X352130300Y-20053400D01*
X352130300Y-21243902D01*
X352297301Y-21370808D01*
X352500497Y-21299102D01*
X352680708Y-21183414D01*
X352834887Y-21034791D01*
X352957109Y-20858945D01*
X353042676Y-20662633D01*
X353088300Y-20453400D01*
X353088300Y-20053400D01*
X352130300Y-20053400D01*
X351876300Y-20053400D01*
X350918300Y-20053400D01*
X342112559Y-20053400D01*
X342120019Y-19399400D01*
X350918300Y-19399400D01*
X350918300Y-19799400D01*
X351876300Y-19799400D01*
X351876300Y-18608898D01*
X352130300Y-18608898D01*
X352130300Y-19799400D01*
X353088300Y-19799400D01*
X353088300Y-19399400D01*
X359568300Y-19399400D01*
X359568300Y-19799400D01*
X360526300Y-19799400D01*
X360526300Y-18608898D01*
X360780300Y-18608898D01*
X360780300Y-19799400D01*
X361738300Y-19799400D01*
X361738300Y-19399400D01*
X361692676Y-19190167D01*
X361607109Y-18993855D01*
X361484887Y-18818009D01*
X361330708Y-18669386D01*
X361150497Y-18553698D01*
X360947301Y-18481992D01*
X360780300Y-18608898D01*
X360526300Y-18608898D01*
X360359299Y-18481992D01*
X360156103Y-18553698D01*
X359975892Y-18669386D01*
X359821713Y-18818009D01*
X359699491Y-18993855D01*
X359613924Y-19190167D01*
X359568300Y-19399400D01*
X353088300Y-19399400D01*
X353042676Y-19190167D01*
X352957109Y-18993855D01*
X352834887Y-18818009D01*
X352680708Y-18669386D01*
X352500497Y-18553698D01*
X352297301Y-18481992D01*
X352130300Y-18608898D01*
X351876300Y-18608898D01*
X351709299Y-18481992D01*
X351506103Y-18553698D01*
X351325892Y-18669386D01*
X351171713Y-18818009D01*
X351049491Y-18993855D01*
X350963924Y-19190167D01*
X350918300Y-19399400D01*
X342120019Y-19399400D01*
X342156315Y-16217500D01*
X367444030Y-16217500D01*
X367220276Y-23433563D01*
G04 #@! TA.AperFunction,Conductor*
D20*
G36*
X367220276Y-23433563D02*
G01*
X366994837Y-23659002D01*
X366804963Y-23943169D01*
X366674175Y-24258919D01*
X366607500Y-24594117D01*
X366607500Y-24935883D01*
X366674175Y-25271081D01*
X366804963Y-25586831D01*
X366994837Y-25870998D01*
X367140190Y-26016351D01*
X367093001Y-27538197D01*
X367050641Y-27509893D01*
X366571101Y-27311261D01*
X366062025Y-27210000D01*
X365542975Y-27210000D01*
X365033899Y-27311261D01*
X364554359Y-27509893D01*
X364122785Y-27798262D01*
X363755762Y-28165285D01*
X363467393Y-28596859D01*
X363442966Y-28655831D01*
X363089507Y-28658670D01*
X363098498Y-28652663D01*
X363340163Y-28410998D01*
X363530037Y-28126831D01*
X363660825Y-27811081D01*
X363727500Y-27475883D01*
X363727500Y-27134117D01*
X363660825Y-26798919D01*
X363530037Y-26483169D01*
X363340163Y-26199002D01*
X363098498Y-25957337D01*
X362814331Y-25767463D01*
X362498581Y-25636675D01*
X362163383Y-25570000D01*
X361821617Y-25570000D01*
X361486419Y-25636675D01*
X361170669Y-25767463D01*
X360886502Y-25957337D01*
X360644837Y-26199002D01*
X360454963Y-26483169D01*
X360324175Y-26798919D01*
X360257500Y-27134117D01*
X360257500Y-27475883D01*
X360324175Y-27811081D01*
X360454963Y-28126831D01*
X360610761Y-28360000D01*
X360576240Y-28360000D01*
X360289342Y-28417068D01*
X360019089Y-28529010D01*
X359785319Y-28685210D01*
X352828694Y-28741087D01*
X352779132Y-28691525D01*
X352535911Y-28529010D01*
X352265658Y-28417068D01*
X351978760Y-28360000D01*
X351686240Y-28360000D01*
X351399342Y-28417068D01*
X351129089Y-28529010D01*
X350885868Y-28691525D01*
X350820174Y-28757219D01*
X350052500Y-28763385D01*
X350052500Y-26328148D01*
X350114331Y-26302537D01*
X350398498Y-26112663D01*
X350640163Y-25870998D01*
X350830037Y-25586831D01*
X350923322Y-25361622D01*
X351009104Y-25447404D01*
X351032902Y-25476402D01*
X351061900Y-25500200D01*
X351148626Y-25571375D01*
X351250438Y-25625795D01*
X351280656Y-25641947D01*
X351423917Y-25685404D01*
X351535570Y-25696401D01*
X351535579Y-25696401D01*
X351572902Y-25700077D01*
X351610225Y-25696401D01*
X354825596Y-25696401D01*
X354862918Y-25700077D01*
X354900240Y-25696401D01*
X354900251Y-25696401D01*
X355011904Y-25685404D01*
X355155165Y-25641947D01*
X355287194Y-25571375D01*
X355402919Y-25476402D01*
X355426722Y-25447398D01*
X355494959Y-25379161D01*
X356698600Y-26582802D01*
X356698600Y-26644939D01*
X356738374Y-26844898D01*
X356816395Y-27033256D01*
X356929663Y-27202774D01*
X357073826Y-27346937D01*
X357243344Y-27460205D01*
X357431702Y-27538226D01*
X357631661Y-27578000D01*
X357835539Y-27578000D01*
X358035498Y-27538226D01*
X358223856Y-27460205D01*
X358393374Y-27346937D01*
X358537537Y-27202774D01*
X358650805Y-27033256D01*
X358728826Y-26844898D01*
X358768600Y-26644939D01*
X358768600Y-26441061D01*
X358728826Y-26241102D01*
X358650805Y-26052744D01*
X358537537Y-25883226D01*
X358393374Y-25739063D01*
X358223856Y-25625795D01*
X358035498Y-25547774D01*
X357835539Y-25508000D01*
X357773402Y-25508000D01*
X357511802Y-25246400D01*
X357697852Y-25246400D01*
X357883322Y-25209508D01*
X358028300Y-25149456D01*
X358173278Y-25209508D01*
X358358748Y-25246400D01*
X358547852Y-25246400D01*
X358733322Y-25209508D01*
X358878720Y-25149282D01*
X359018292Y-25207981D01*
X359203560Y-25245875D01*
X359392661Y-25246897D01*
X359578328Y-25211008D01*
X359753426Y-25139587D01*
X359762623Y-25134670D01*
X359776231Y-24938936D01*
X359380939Y-24543644D01*
X359413300Y-24380952D01*
X359413300Y-24191848D01*
X359412471Y-24187681D01*
X359497048Y-24272258D01*
X359482905Y-24286400D01*
X359633075Y-24436570D01*
X359699491Y-24588945D01*
X359821713Y-24764791D01*
X359975892Y-24913414D01*
X360156103Y-25029102D01*
X360359299Y-25100808D01*
X360526300Y-24973902D01*
X360526300Y-23433400D01*
X360780300Y-23433400D01*
X360780300Y-24973902D01*
X360947301Y-25100808D01*
X361150497Y-25029102D01*
X361330708Y-24913414D01*
X361484887Y-24764791D01*
X361607109Y-24588945D01*
X361692676Y-24392633D01*
X361738300Y-24183400D01*
X361738300Y-23433400D01*
X360780300Y-23433400D01*
X360526300Y-23433400D01*
X359974227Y-23433400D01*
X360156570Y-23420723D01*
X360229881Y-23246408D01*
X360243587Y-23179400D01*
X360526300Y-23179400D01*
X360526300Y-23159400D01*
X360780300Y-23159400D01*
X360780300Y-23179400D01*
X361738300Y-23179400D01*
X361738300Y-22429400D01*
X361692676Y-22220167D01*
X361638555Y-22096000D01*
X362209179Y-22096000D01*
X362253116Y-22139937D01*
X362422634Y-22253205D01*
X362610992Y-22331226D01*
X362810951Y-22371000D01*
X363014829Y-22371000D01*
X363214788Y-22331226D01*
X363403146Y-22253205D01*
X363572664Y-22139937D01*
X363716827Y-21995774D01*
X363830095Y-21826256D01*
X363908116Y-21637898D01*
X363947890Y-21437939D01*
X363947890Y-21234061D01*
X363908116Y-21034102D01*
X363830095Y-20845744D01*
X363716827Y-20676226D01*
X363572664Y-20532063D01*
X363403146Y-20418795D01*
X363214788Y-20340774D01*
X363014829Y-20301000D01*
X362810951Y-20301000D01*
X362610992Y-20340774D01*
X362422634Y-20418795D01*
X362253116Y-20532063D01*
X362209179Y-20576000D01*
X361711567Y-20576000D01*
X361738300Y-20453400D01*
X361738300Y-20053400D01*
X360780300Y-20053400D01*
X360780300Y-20073400D01*
X360526300Y-20073400D01*
X360526300Y-20053400D01*
X359568300Y-20053400D01*
X359568300Y-20453400D01*
X359595033Y-20576000D01*
X358811403Y-20576000D01*
X358774080Y-20572324D01*
X358736757Y-20576000D01*
X358736748Y-20576000D01*
X358625095Y-20586997D01*
X358481834Y-20630454D01*
X358349805Y-20701026D01*
X358234080Y-20795999D01*
X358210282Y-20824997D01*
X357097298Y-21937982D01*
X357068300Y-21961780D01*
X357010113Y-22032681D01*
X356852852Y-22001400D01*
X356663748Y-22001400D01*
X356478278Y-22038292D01*
X356333300Y-22098344D01*
X356188322Y-22038292D01*
X356002852Y-22001400D01*
X355813748Y-22001400D01*
X355628278Y-22038292D01*
X355483300Y-22098344D01*
X355338322Y-22038292D01*
X355152852Y-22001400D01*
X354963748Y-22001400D01*
X354778278Y-22038292D01*
X354633300Y-22098344D01*
X354488322Y-22038292D01*
X354302852Y-22001400D01*
X354113748Y-22001400D01*
X353928278Y-22038292D01*
X353780361Y-22099562D01*
X353638308Y-22039819D01*
X353453040Y-22001925D01*
X353263939Y-22000903D01*
X353078272Y-22036792D01*
X352980186Y-22076800D01*
X352957109Y-22023855D01*
X352834887Y-21848009D01*
X352680708Y-21699386D01*
X352500497Y-21583698D01*
X352297301Y-21511992D01*
X352130300Y-21638898D01*
X352130300Y-23179400D01*
X352417669Y-23179400D01*
X352428692Y-23236428D01*
X352500113Y-23411526D01*
X352505030Y-23420723D01*
X352687373Y-23433400D01*
X352130300Y-23433400D01*
X352130300Y-23453400D01*
X351876300Y-23453400D01*
X351876300Y-23433400D01*
X351856300Y-23433400D01*
X351856300Y-23179400D01*
X351876300Y-23179400D01*
X351876300Y-21638898D01*
X351709299Y-21511992D01*
X351506103Y-21583698D01*
X351325892Y-21699386D01*
X351171713Y-21848009D01*
X351049491Y-22023855D01*
X350963924Y-22220167D01*
X350918300Y-22429400D01*
X350918300Y-23206996D01*
X348434706Y-20723403D01*
X348410903Y-20694399D01*
X348295178Y-20599426D01*
X348163149Y-20528854D01*
X348019888Y-20485397D01*
X347908235Y-20474400D01*
X347908224Y-20474400D01*
X347870902Y-20470724D01*
X347833580Y-20474400D01*
X347329211Y-20474400D01*
X347285274Y-20430463D01*
X347115756Y-20317195D01*
X346927398Y-20239174D01*
X346727439Y-20199400D01*
X346523561Y-20199400D01*
X346323602Y-20239174D01*
X346135244Y-20317195D01*
X345965726Y-20430463D01*
X345821563Y-20574626D01*
X345708295Y-20744144D01*
X345630274Y-20932502D01*
X345590500Y-21132461D01*
X345590500Y-21336339D01*
X345630274Y-21536298D01*
X345708295Y-21724656D01*
X345821563Y-21894174D01*
X345965726Y-22038337D01*
X346135244Y-22151605D01*
X346323602Y-22229626D01*
X346523561Y-22269400D01*
X346727439Y-22269400D01*
X346927398Y-22229626D01*
X347115756Y-22151605D01*
X347285274Y-22038337D01*
X347329211Y-21994400D01*
X347556101Y-21994400D01*
X348695879Y-23134178D01*
X348470669Y-23227463D01*
X348186502Y-23417337D01*
X347944837Y-23659002D01*
X347754963Y-23943169D01*
X347624175Y-24258919D01*
X347557500Y-24594117D01*
X347557500Y-24935883D01*
X347624175Y-25271081D01*
X347754963Y-25586831D01*
X347944837Y-25870998D01*
X348186502Y-26112663D01*
X348470669Y-26302537D01*
X348532501Y-26328149D01*
X348532501Y-27898548D01*
X348432215Y-27798262D01*
X348000641Y-27509893D01*
X347521101Y-27311261D01*
X347012025Y-27210000D01*
X346492975Y-27210000D01*
X345983899Y-27311261D01*
X345504359Y-27509893D01*
X345072785Y-27798262D01*
X344705762Y-28165285D01*
X344417393Y-28596859D01*
X344329375Y-28809354D01*
X343807722Y-28813544D01*
X344048498Y-28652663D01*
X344290163Y-28410998D01*
X344480037Y-28126831D01*
X344610825Y-27811081D01*
X344677500Y-27475883D01*
X344677500Y-27134117D01*
X344610825Y-26798919D01*
X344480037Y-26483169D01*
X344290163Y-26199002D01*
X344048498Y-25957337D01*
X343764331Y-25767463D01*
X343448581Y-25636675D01*
X343113383Y-25570000D01*
X342771617Y-25570000D01*
X342436419Y-25636675D01*
X342120669Y-25767463D01*
X342046817Y-25816809D01*
X342112559Y-20053400D01*
X350918300Y-20053400D01*
X350918300Y-20453400D01*
X350963924Y-20662633D01*
X351049491Y-20858945D01*
X351171713Y-21034791D01*
X351325892Y-21183414D01*
X351506103Y-21299102D01*
X351709299Y-21370808D01*
X351876300Y-21243902D01*
X351876300Y-20053400D01*
X352130300Y-20053400D01*
X352130300Y-21243902D01*
X352297301Y-21370808D01*
X352500497Y-21299102D01*
X352680708Y-21183414D01*
X352834887Y-21034791D01*
X352957109Y-20858945D01*
X353042676Y-20662633D01*
X353088300Y-20453400D01*
X353088300Y-20053400D01*
X352130300Y-20053400D01*
X351876300Y-20053400D01*
X350918300Y-20053400D01*
X342112559Y-20053400D01*
X342120019Y-19399400D01*
X350918300Y-19399400D01*
X350918300Y-19799400D01*
X351876300Y-19799400D01*
X351876300Y-18608898D01*
X352130300Y-18608898D01*
X352130300Y-19799400D01*
X353088300Y-19799400D01*
X353088300Y-19399400D01*
X359568300Y-19399400D01*
X359568300Y-19799400D01*
X360526300Y-19799400D01*
X360526300Y-18608898D01*
X360780300Y-18608898D01*
X360780300Y-19799400D01*
X361738300Y-19799400D01*
X361738300Y-19399400D01*
X361692676Y-19190167D01*
X361607109Y-18993855D01*
X361484887Y-18818009D01*
X361330708Y-18669386D01*
X361150497Y-18553698D01*
X360947301Y-18481992D01*
X360780300Y-18608898D01*
X360526300Y-18608898D01*
X360359299Y-18481992D01*
X360156103Y-18553698D01*
X359975892Y-18669386D01*
X359821713Y-18818009D01*
X359699491Y-18993855D01*
X359613924Y-19190167D01*
X359568300Y-19399400D01*
X353088300Y-19399400D01*
X353042676Y-19190167D01*
X352957109Y-18993855D01*
X352834887Y-18818009D01*
X352680708Y-18669386D01*
X352500497Y-18553698D01*
X352297301Y-18481992D01*
X352130300Y-18608898D01*
X351876300Y-18608898D01*
X351709299Y-18481992D01*
X351506103Y-18553698D01*
X351325892Y-18669386D01*
X351171713Y-18818009D01*
X351049491Y-18993855D01*
X350963924Y-19190167D01*
X350918300Y-19399400D01*
X342120019Y-19399400D01*
X342156315Y-16217500D01*
X367444030Y-16217500D01*
X367220276Y-23433563D01*
G37*
G04 #@! TD.AperFunction*
D19*
X353248300Y-22866848D02*
X353248300Y-23055952D01*
X353250370Y-23066360D01*
X353159553Y-22975543D01*
X353173695Y-22961400D01*
X353159553Y-22947258D01*
X353250370Y-22856440D01*
X353248300Y-22866848D01*
G04 #@! TA.AperFunction,Conductor*
D20*
G36*
X353248300Y-22866848D02*
G01*
X353248300Y-23055952D01*
X353250370Y-23066360D01*
X353159553Y-22975543D01*
X353173695Y-22961400D01*
X353159553Y-22947258D01*
X353250370Y-22856440D01*
X353248300Y-22866848D01*
G37*
G04 #@! TD.AperFunction*
D19*
X359502048Y-22947258D02*
X359487905Y-22961400D01*
X359502048Y-22975543D01*
X359417471Y-23060119D01*
X359418300Y-23055952D01*
X359418300Y-22866848D01*
X359417471Y-22862681D01*
X359502048Y-22947258D01*
G04 #@! TA.AperFunction,Conductor*
D20*
G36*
X359502048Y-22947258D02*
G01*
X359487905Y-22961400D01*
X359502048Y-22975543D01*
X359417471Y-23060119D01*
X359418300Y-23055952D01*
X359418300Y-22866848D01*
X359417471Y-22862681D01*
X359502048Y-22947258D01*
G37*
G04 #@! TD.AperFunction*
D19*
X154889835Y-84997037D02*
X154889834Y-90715511D01*
X154886158Y-90752834D01*
X154889834Y-90790156D01*
X154889834Y-90790166D01*
X154900831Y-90901819D01*
X154940798Y-91033574D01*
X154944288Y-91045080D01*
X155014860Y-91177110D01*
X155054705Y-91225660D01*
X155109833Y-91292835D01*
X155138837Y-91316638D01*
X157193781Y-93371583D01*
X157217579Y-93400581D01*
X157246577Y-93424379D01*
X157333303Y-93495554D01*
X157426367Y-93545298D01*
X157465333Y-93566126D01*
X157608594Y-93609583D01*
X157720247Y-93620580D01*
X157720257Y-93620580D01*
X157757580Y-93624256D01*
X157794902Y-93620580D01*
X161406898Y-93620580D01*
X161444220Y-93624256D01*
X161481542Y-93620580D01*
X161481553Y-93620580D01*
X161593206Y-93609583D01*
X161736467Y-93566126D01*
X161868496Y-93495554D01*
X161984221Y-93400581D01*
X162008024Y-93371577D01*
X162981193Y-92398409D01*
X164345856Y-92398409D01*
X167378248Y-95430802D01*
X167402047Y-95459801D01*
X167517772Y-95554774D01*
X167649801Y-95625346D01*
X167793062Y-95668803D01*
X167904715Y-95679800D01*
X167904723Y-95679800D01*
X167942048Y-95683476D01*
X167979373Y-95679800D01*
X179763289Y-95679800D01*
X179807226Y-95723737D01*
X179976744Y-95837005D01*
X180165102Y-95915026D01*
X180365061Y-95954800D01*
X180568939Y-95954800D01*
X180768898Y-95915026D01*
X180930878Y-95847931D01*
X183153950Y-98071004D01*
X183177748Y-98100002D01*
X183206746Y-98123800D01*
X183293472Y-98194975D01*
X183425502Y-98265547D01*
X183568763Y-98309004D01*
X183680416Y-98320001D01*
X183680425Y-98320001D01*
X183717748Y-98323677D01*
X183755071Y-98320001D01*
X190941446Y-98320001D01*
X190974704Y-100622500D01*
X147649427Y-100622500D01*
X147643695Y-96574259D01*
X147718744Y-96624405D01*
X147907102Y-96702426D01*
X148107061Y-96742200D01*
X148310939Y-96742200D01*
X148510898Y-96702426D01*
X148699256Y-96624405D01*
X148868774Y-96511137D01*
X149012937Y-96366974D01*
X149126205Y-96197456D01*
X149204226Y-96009098D01*
X149244000Y-95809139D01*
X149244000Y-95605261D01*
X149204226Y-95405302D01*
X149126205Y-95216944D01*
X149012937Y-95047426D01*
X148969000Y-95003489D01*
X148969000Y-87792401D01*
X149260532Y-87500869D01*
X149233298Y-87551820D01*
X149196988Y-87671518D01*
X149184728Y-87796000D01*
X149184728Y-89496000D01*
X149196988Y-89620482D01*
X149233298Y-89740180D01*
X149292263Y-89850494D01*
X149371615Y-89947185D01*
X149468306Y-90026537D01*
X149578620Y-90085502D01*
X149698318Y-90121812D01*
X149822800Y-90134072D01*
X151522800Y-90134072D01*
X151647282Y-90121812D01*
X151766980Y-90085502D01*
X151877294Y-90026537D01*
X151973985Y-89947185D01*
X152053337Y-89850494D01*
X152112302Y-89740180D01*
X152134313Y-89667620D01*
X152266168Y-89799475D01*
X152509389Y-89961990D01*
X152779642Y-90073932D01*
X152884601Y-90094810D01*
X152884600Y-92539689D01*
X152840663Y-92583626D01*
X152727395Y-92753144D01*
X152649374Y-92941502D01*
X152609600Y-93141461D01*
X152609600Y-93345339D01*
X152649374Y-93545298D01*
X152727395Y-93733656D01*
X152840663Y-93903174D01*
X152984826Y-94047337D01*
X153154344Y-94160605D01*
X153342702Y-94238626D01*
X153542661Y-94278400D01*
X153746539Y-94278400D01*
X153946498Y-94238626D01*
X154134856Y-94160605D01*
X154304374Y-94047337D01*
X154448537Y-93903174D01*
X154561805Y-93733656D01*
X154639826Y-93545298D01*
X154679600Y-93345339D01*
X154679600Y-93141461D01*
X154639826Y-92941502D01*
X154561805Y-92753144D01*
X154448537Y-92583626D01*
X154404600Y-92539689D01*
X154404600Y-89535275D01*
X154528790Y-89349411D01*
X154640732Y-89079158D01*
X154697800Y-88792260D01*
X154697800Y-88499740D01*
X154640732Y-88212842D01*
X154528790Y-87942589D01*
X154366275Y-87699368D01*
X154159432Y-87492525D01*
X153985040Y-87376000D01*
X154159432Y-87259475D01*
X154366275Y-87052632D01*
X154528790Y-86809411D01*
X154640732Y-86539158D01*
X154697800Y-86252260D01*
X154697800Y-85959740D01*
X154640732Y-85672842D01*
X154528790Y-85402589D01*
X154366275Y-85159368D01*
X154159432Y-84952525D01*
X153985040Y-84836000D01*
X154159432Y-84719475D01*
X154366275Y-84512632D01*
X154381959Y-84489160D01*
X154889835Y-84997037D01*
G04 #@! TA.AperFunction,Conductor*
D20*
G36*
X154889835Y-84997037D02*
G01*
X154889834Y-90715511D01*
X154886158Y-90752834D01*
X154889834Y-90790156D01*
X154889834Y-90790166D01*
X154900831Y-90901819D01*
X154940798Y-91033574D01*
X154944288Y-91045080D01*
X155014860Y-91177110D01*
X155054705Y-91225660D01*
X155109833Y-91292835D01*
X155138837Y-91316638D01*
X157193781Y-93371583D01*
X157217579Y-93400581D01*
X157246577Y-93424379D01*
X157333303Y-93495554D01*
X157426367Y-93545298D01*
X157465333Y-93566126D01*
X157608594Y-93609583D01*
X157720247Y-93620580D01*
X157720257Y-93620580D01*
X157757580Y-93624256D01*
X157794902Y-93620580D01*
X161406898Y-93620580D01*
X161444220Y-93624256D01*
X161481542Y-93620580D01*
X161481553Y-93620580D01*
X161593206Y-93609583D01*
X161736467Y-93566126D01*
X161868496Y-93495554D01*
X161984221Y-93400581D01*
X162008024Y-93371577D01*
X162981193Y-92398409D01*
X164345856Y-92398409D01*
X167378248Y-95430802D01*
X167402047Y-95459801D01*
X167517772Y-95554774D01*
X167649801Y-95625346D01*
X167793062Y-95668803D01*
X167904715Y-95679800D01*
X167904723Y-95679800D01*
X167942048Y-95683476D01*
X167979373Y-95679800D01*
X179763289Y-95679800D01*
X179807226Y-95723737D01*
X179976744Y-95837005D01*
X180165102Y-95915026D01*
X180365061Y-95954800D01*
X180568939Y-95954800D01*
X180768898Y-95915026D01*
X180930878Y-95847931D01*
X183153950Y-98071004D01*
X183177748Y-98100002D01*
X183206746Y-98123800D01*
X183293472Y-98194975D01*
X183425502Y-98265547D01*
X183568763Y-98309004D01*
X183680416Y-98320001D01*
X183680425Y-98320001D01*
X183717748Y-98323677D01*
X183755071Y-98320001D01*
X190941446Y-98320001D01*
X190974704Y-100622500D01*
X147649427Y-100622500D01*
X147643695Y-96574259D01*
X147718744Y-96624405D01*
X147907102Y-96702426D01*
X148107061Y-96742200D01*
X148310939Y-96742200D01*
X148510898Y-96702426D01*
X148699256Y-96624405D01*
X148868774Y-96511137D01*
X149012937Y-96366974D01*
X149126205Y-96197456D01*
X149204226Y-96009098D01*
X149244000Y-95809139D01*
X149244000Y-95605261D01*
X149204226Y-95405302D01*
X149126205Y-95216944D01*
X149012937Y-95047426D01*
X148969000Y-95003489D01*
X148969000Y-87792401D01*
X149260532Y-87500869D01*
X149233298Y-87551820D01*
X149196988Y-87671518D01*
X149184728Y-87796000D01*
X149184728Y-89496000D01*
X149196988Y-89620482D01*
X149233298Y-89740180D01*
X149292263Y-89850494D01*
X149371615Y-89947185D01*
X149468306Y-90026537D01*
X149578620Y-90085502D01*
X149698318Y-90121812D01*
X149822800Y-90134072D01*
X151522800Y-90134072D01*
X151647282Y-90121812D01*
X151766980Y-90085502D01*
X151877294Y-90026537D01*
X151973985Y-89947185D01*
X152053337Y-89850494D01*
X152112302Y-89740180D01*
X152134313Y-89667620D01*
X152266168Y-89799475D01*
X152509389Y-89961990D01*
X152779642Y-90073932D01*
X152884601Y-90094810D01*
X152884600Y-92539689D01*
X152840663Y-92583626D01*
X152727395Y-92753144D01*
X152649374Y-92941502D01*
X152609600Y-93141461D01*
X152609600Y-93345339D01*
X152649374Y-93545298D01*
X152727395Y-93733656D01*
X152840663Y-93903174D01*
X152984826Y-94047337D01*
X153154344Y-94160605D01*
X153342702Y-94238626D01*
X153542661Y-94278400D01*
X153746539Y-94278400D01*
X153946498Y-94238626D01*
X154134856Y-94160605D01*
X154304374Y-94047337D01*
X154448537Y-93903174D01*
X154561805Y-93733656D01*
X154639826Y-93545298D01*
X154679600Y-93345339D01*
X154679600Y-93141461D01*
X154639826Y-92941502D01*
X154561805Y-92753144D01*
X154448537Y-92583626D01*
X154404600Y-92539689D01*
X154404600Y-89535275D01*
X154528790Y-89349411D01*
X154640732Y-89079158D01*
X154697800Y-88792260D01*
X154697800Y-88499740D01*
X154640732Y-88212842D01*
X154528790Y-87942589D01*
X154366275Y-87699368D01*
X154159432Y-87492525D01*
X153985040Y-87376000D01*
X154159432Y-87259475D01*
X154366275Y-87052632D01*
X154528790Y-86809411D01*
X154640732Y-86539158D01*
X154697800Y-86252260D01*
X154697800Y-85959740D01*
X154640732Y-85672842D01*
X154528790Y-85402589D01*
X154366275Y-85159368D01*
X154159432Y-84952525D01*
X153985040Y-84836000D01*
X154159432Y-84719475D01*
X154366275Y-84512632D01*
X154381959Y-84489160D01*
X154889835Y-84997037D01*
G37*
G04 #@! TD.AperFunction*
D19*
X163846939Y-77850541D02*
X165176251Y-79179853D01*
X165176251Y-79181288D01*
X165132313Y-79225226D01*
X165019045Y-79394744D01*
X164941024Y-79583102D01*
X164901250Y-79783061D01*
X164901250Y-79986939D01*
X164941024Y-80186898D01*
X165019045Y-80375256D01*
X165049502Y-80420839D01*
X164830252Y-80567337D01*
X164588587Y-80809002D01*
X164398713Y-81093169D01*
X164267925Y-81408919D01*
X164201250Y-81744117D01*
X164201250Y-82085883D01*
X164267925Y-82421081D01*
X164398713Y-82736831D01*
X164588587Y-83020998D01*
X164830252Y-83262663D01*
X165114419Y-83452537D01*
X165430169Y-83583325D01*
X165765367Y-83650000D01*
X166107133Y-83650000D01*
X166442331Y-83583325D01*
X166758081Y-83452537D01*
X167042248Y-83262663D01*
X167283913Y-83020998D01*
X167473787Y-82736831D01*
X167604575Y-82421081D01*
X167671250Y-82085883D01*
X167671250Y-81744117D01*
X167604575Y-81408919D01*
X167473787Y-81093169D01*
X167283913Y-80809002D01*
X167042248Y-80567337D01*
X166822998Y-80420839D01*
X166853455Y-80375256D01*
X166931476Y-80186898D01*
X166971250Y-79986939D01*
X166971250Y-79783061D01*
X166931476Y-79583102D01*
X166853455Y-79394744D01*
X166740187Y-79225226D01*
X166696250Y-79181289D01*
X166696250Y-78902375D01*
X166699926Y-78865050D01*
X166696250Y-78827725D01*
X166696250Y-78827717D01*
X166685253Y-78716064D01*
X166641796Y-78572803D01*
X166571224Y-78440774D01*
X166476251Y-78325049D01*
X166447253Y-78301251D01*
X166044245Y-77898243D01*
X183516200Y-78277549D01*
X183456830Y-78317219D01*
X183155969Y-78618080D01*
X182919583Y-78971856D01*
X182756758Y-79364951D01*
X182673750Y-79782259D01*
X182673750Y-80207741D01*
X182756758Y-80625049D01*
X182919583Y-81018144D01*
X183155969Y-81371920D01*
X183456830Y-81672781D01*
X183810606Y-81909167D01*
X184203701Y-82071992D01*
X184515179Y-82133949D01*
X184497444Y-82141295D01*
X184327926Y-82254563D01*
X184183763Y-82398726D01*
X184070495Y-82568244D01*
X183992474Y-82756602D01*
X183952700Y-82956561D01*
X183952700Y-83032794D01*
X183946036Y-83040914D01*
X183875464Y-83172944D01*
X183864494Y-83209110D01*
X183832008Y-83316204D01*
X183821011Y-83427857D01*
X183817334Y-83465190D01*
X183821011Y-83502522D01*
X183821010Y-87015089D01*
X183777073Y-87059026D01*
X183663805Y-87228544D01*
X183585784Y-87416902D01*
X183546010Y-87616861D01*
X183546010Y-87820739D01*
X183585784Y-88020698D01*
X183663805Y-88209056D01*
X183777073Y-88378574D01*
X183821011Y-88422512D01*
X183821010Y-90940279D01*
X183777073Y-90984216D01*
X183663805Y-91153734D01*
X183585784Y-91342092D01*
X183546010Y-91542051D01*
X183546010Y-91745929D01*
X183558872Y-91810591D01*
X183464053Y-91839354D01*
X183332023Y-91909926D01*
X183306764Y-91930656D01*
X183216299Y-92004899D01*
X183192501Y-92033897D01*
X181803199Y-93423200D01*
X171434602Y-93423200D01*
X171062600Y-93051199D01*
X171062600Y-92989061D01*
X171022826Y-92789102D01*
X170944805Y-92600744D01*
X170831537Y-92431226D01*
X170687374Y-92287063D01*
X170517856Y-92173795D01*
X170329498Y-92095774D01*
X170129539Y-92056000D01*
X169925661Y-92056000D01*
X169725702Y-92095774D01*
X169537344Y-92173795D01*
X169367826Y-92287063D01*
X169223663Y-92431226D01*
X169110395Y-92600744D01*
X169032374Y-92789102D01*
X168992600Y-92989061D01*
X168992600Y-93192939D01*
X169032374Y-93392898D01*
X169110395Y-93581256D01*
X169223663Y-93750774D01*
X169367826Y-93894937D01*
X169537344Y-94008205D01*
X169725702Y-94086226D01*
X169925661Y-94126000D01*
X169987799Y-94126000D01*
X170021599Y-94159800D01*
X168256850Y-94159800D01*
X165224461Y-91127412D01*
X165200658Y-91098408D01*
X165084933Y-91003435D01*
X164952904Y-90932863D01*
X164809643Y-90889406D01*
X164697990Y-90878409D01*
X164697979Y-90878409D01*
X164660657Y-90874733D01*
X164623335Y-90878409D01*
X162703714Y-90878409D01*
X162666391Y-90874733D01*
X162629068Y-90878409D01*
X162629058Y-90878409D01*
X162517405Y-90889406D01*
X162374144Y-90932863D01*
X162242115Y-91003435D01*
X162126390Y-91098408D01*
X162102592Y-91127406D01*
X161129419Y-92100580D01*
X158072382Y-92100580D01*
X156409834Y-90438033D01*
X156409834Y-90296661D01*
X165639800Y-90296661D01*
X165639800Y-90500539D01*
X165679574Y-90700498D01*
X165757595Y-90888856D01*
X165870863Y-91058374D01*
X166015026Y-91202537D01*
X166184544Y-91315805D01*
X166372902Y-91393826D01*
X166572861Y-91433600D01*
X166776739Y-91433600D01*
X166976698Y-91393826D01*
X167165056Y-91315805D01*
X167334574Y-91202537D01*
X167378511Y-91158600D01*
X169279078Y-91158600D01*
X169316400Y-91162276D01*
X169353722Y-91158600D01*
X169353733Y-91158600D01*
X169465386Y-91147603D01*
X169608647Y-91104146D01*
X169740676Y-91033574D01*
X169856401Y-90938601D01*
X169880203Y-90909598D01*
X170652904Y-90136898D01*
X170681901Y-90113101D01*
X170776874Y-89997376D01*
X170847446Y-89865347D01*
X170890903Y-89722086D01*
X170901900Y-89610433D01*
X170901900Y-89610424D01*
X170905576Y-89573101D01*
X170901900Y-89535778D01*
X170901900Y-82953701D01*
X171732404Y-82123198D01*
X171761401Y-82099401D01*
X171856374Y-81983676D01*
X171926946Y-81851647D01*
X171970403Y-81708386D01*
X171981400Y-81596733D01*
X171981400Y-81596732D01*
X171985077Y-81559400D01*
X171981400Y-81522067D01*
X171981400Y-80942311D01*
X172025337Y-80898374D01*
X172138605Y-80728856D01*
X172216626Y-80540498D01*
X172256400Y-80340539D01*
X172256400Y-80278402D01*
X172437402Y-80097400D01*
X180562889Y-80097400D01*
X180606826Y-80141337D01*
X180776344Y-80254605D01*
X180964702Y-80332626D01*
X181164661Y-80372400D01*
X181368539Y-80372400D01*
X181568498Y-80332626D01*
X181756856Y-80254605D01*
X181926374Y-80141337D01*
X182070537Y-79997174D01*
X182183805Y-79827656D01*
X182261826Y-79639298D01*
X182301600Y-79439339D01*
X182301600Y-79235461D01*
X182261826Y-79035502D01*
X182183805Y-78847144D01*
X182070537Y-78677626D01*
X181926374Y-78533463D01*
X181756856Y-78420195D01*
X181568498Y-78342174D01*
X181368539Y-78302400D01*
X181164661Y-78302400D01*
X180964702Y-78342174D01*
X180776344Y-78420195D01*
X180606826Y-78533463D01*
X180562889Y-78577400D01*
X172159922Y-78577400D01*
X172122599Y-78573724D01*
X172085276Y-78577400D01*
X172085267Y-78577400D01*
X171973614Y-78588397D01*
X171830353Y-78631854D01*
X171698324Y-78702426D01*
X171582599Y-78797399D01*
X171558801Y-78826397D01*
X171181598Y-79203600D01*
X171119461Y-79203600D01*
X170919502Y-79243374D01*
X170731144Y-79321395D01*
X170561626Y-79434663D01*
X170417463Y-79578826D01*
X170304195Y-79748344D01*
X170226174Y-79936702D01*
X170186400Y-80136661D01*
X170186400Y-80340539D01*
X170226174Y-80540498D01*
X170304195Y-80728856D01*
X170417463Y-80898374D01*
X170461400Y-80942311D01*
X170461400Y-81244598D01*
X169630898Y-82075101D01*
X169601900Y-82098899D01*
X169578102Y-82127897D01*
X169578101Y-82127898D01*
X169506926Y-82214624D01*
X169436354Y-82346654D01*
X169392898Y-82489915D01*
X169378224Y-82638900D01*
X169381901Y-82676232D01*
X169381901Y-85814142D01*
X169179661Y-85679010D01*
X168909408Y-85567068D01*
X168622510Y-85510000D01*
X168329990Y-85510000D01*
X168043092Y-85567068D01*
X167772839Y-85679010D01*
X167529618Y-85841525D01*
X167322775Y-86048368D01*
X167160260Y-86291589D01*
X167048318Y-86561842D01*
X166991250Y-86848740D01*
X166991250Y-87141260D01*
X167048318Y-87428158D01*
X167160260Y-87698411D01*
X167322775Y-87941632D01*
X167529618Y-88148475D01*
X167772839Y-88310990D01*
X168043092Y-88422932D01*
X168329990Y-88480000D01*
X168622510Y-88480000D01*
X168909408Y-88422932D01*
X169179661Y-88310990D01*
X169381900Y-88175858D01*
X169381900Y-89258298D01*
X169001599Y-89638600D01*
X167378511Y-89638600D01*
X167334574Y-89594663D01*
X167165056Y-89481395D01*
X166976698Y-89403374D01*
X166776739Y-89363600D01*
X166572861Y-89363600D01*
X166372902Y-89403374D01*
X166184544Y-89481395D01*
X166015026Y-89594663D01*
X165870863Y-89738826D01*
X165757595Y-89908344D01*
X165679574Y-90096702D01*
X165639800Y-90296661D01*
X156409834Y-90296661D01*
X156409834Y-86848740D01*
X156831250Y-86848740D01*
X156831250Y-87141260D01*
X156888318Y-87428158D01*
X157000260Y-87698411D01*
X157162775Y-87941632D01*
X157369618Y-88148475D01*
X157612839Y-88310990D01*
X157883092Y-88422932D01*
X158169990Y-88480000D01*
X158462510Y-88480000D01*
X158749408Y-88422932D01*
X159019661Y-88310990D01*
X159262882Y-88148475D01*
X159469725Y-87941632D01*
X159632240Y-87698411D01*
X159744182Y-87428158D01*
X159801250Y-87141260D01*
X159801250Y-86848740D01*
X159778721Y-86735475D01*
X160761250Y-86735475D01*
X160761250Y-87254525D01*
X160862511Y-87763601D01*
X161061143Y-88243141D01*
X161349512Y-88674715D01*
X161716535Y-89041738D01*
X162148109Y-89330107D01*
X162627649Y-89528739D01*
X163136725Y-89630000D01*
X163655775Y-89630000D01*
X164164851Y-89528739D01*
X164644391Y-89330107D01*
X165075965Y-89041738D01*
X165442988Y-88674715D01*
X165731357Y-88243141D01*
X165929989Y-87763601D01*
X166031250Y-87254525D01*
X166031250Y-86735475D01*
X165929989Y-86226399D01*
X165731357Y-85746859D01*
X165442988Y-85315285D01*
X165075965Y-84948262D01*
X164644391Y-84659893D01*
X164164851Y-84461261D01*
X163655775Y-84360000D01*
X163136725Y-84360000D01*
X162627649Y-84461261D01*
X162148109Y-84659893D01*
X161716535Y-84948262D01*
X161349512Y-85315285D01*
X161061143Y-85746859D01*
X160862511Y-86226399D01*
X160761250Y-86735475D01*
X159778721Y-86735475D01*
X159744182Y-86561842D01*
X159632240Y-86291589D01*
X159564360Y-86190000D01*
X159757133Y-86190000D01*
X160092331Y-86123325D01*
X160408081Y-85992537D01*
X160692248Y-85802663D01*
X160933913Y-85560998D01*
X161123787Y-85276831D01*
X161254575Y-84961081D01*
X161321250Y-84625883D01*
X161321250Y-84284117D01*
X161254575Y-83948919D01*
X161123787Y-83633169D01*
X160933913Y-83349002D01*
X160692248Y-83107337D01*
X160408081Y-82917463D01*
X160092331Y-82786675D01*
X159757133Y-82720000D01*
X159415367Y-82720000D01*
X159080169Y-82786675D01*
X158764419Y-82917463D01*
X158480252Y-83107337D01*
X158238587Y-83349002D01*
X158048713Y-83633169D01*
X157917925Y-83948919D01*
X157851250Y-84284117D01*
X157851250Y-84625883D01*
X157917925Y-84961081D01*
X158048713Y-85276831D01*
X158204511Y-85510000D01*
X158169990Y-85510000D01*
X157883092Y-85567068D01*
X157612839Y-85679010D01*
X157369618Y-85841525D01*
X157162775Y-86048368D01*
X157000260Y-86291589D01*
X156888318Y-86561842D01*
X156831250Y-86848740D01*
X156409834Y-86848740D01*
X156409834Y-84719556D01*
X156413510Y-84682233D01*
X156409834Y-84644910D01*
X156409834Y-84644901D01*
X156398837Y-84533248D01*
X156355380Y-84389987D01*
X156284808Y-84257958D01*
X156189835Y-84142233D01*
X156160837Y-84118435D01*
X155097404Y-83055002D01*
X155073601Y-83025999D01*
X154957876Y-82931026D01*
X154825847Y-82860454D01*
X154682586Y-82816997D01*
X154570933Y-82806000D01*
X154570922Y-82806000D01*
X154533600Y-82802324D01*
X154496278Y-82806000D01*
X154490978Y-82806000D01*
X154366275Y-82619368D01*
X154159432Y-82412525D01*
X153916211Y-82250010D01*
X153645958Y-82138068D01*
X153359060Y-82081000D01*
X153066540Y-82081000D01*
X152779642Y-82138068D01*
X152509389Y-82250010D01*
X152266168Y-82412525D01*
X152059325Y-82619368D01*
X151941700Y-82795406D01*
X151770388Y-82565731D01*
X151554155Y-82370822D01*
X151304052Y-82221843D01*
X151029691Y-82124519D01*
X150799800Y-82245186D01*
X150799800Y-83439000D01*
X150819800Y-83439000D01*
X150819800Y-83693000D01*
X150799800Y-83693000D01*
X150799800Y-83713000D01*
X150545800Y-83713000D01*
X150545800Y-83693000D01*
X149352645Y-83693000D01*
X149231324Y-83922890D01*
X149275975Y-84070099D01*
X149401159Y-84332920D01*
X149575212Y-84566269D01*
X149791445Y-84761178D01*
X149908334Y-84830805D01*
X149726168Y-84952525D01*
X149519325Y-85159368D01*
X149376002Y-85373867D01*
X149288353Y-85400454D01*
X149156324Y-85471026D01*
X149040599Y-85565999D01*
X149016801Y-85594997D01*
X147697998Y-86913801D01*
X147669000Y-86937599D01*
X147645202Y-86966597D01*
X147645201Y-86966598D01*
X147630117Y-86984978D01*
X147624771Y-83209110D01*
X149231324Y-83209110D01*
X149352645Y-83439000D01*
X150545800Y-83439000D01*
X150545800Y-82245186D01*
X150315909Y-82124519D01*
X150041548Y-82221843D01*
X149791445Y-82370822D01*
X149575212Y-82565731D01*
X149401159Y-82799080D01*
X149275975Y-83061901D01*
X149231324Y-83209110D01*
X147624771Y-83209110D01*
X147616684Y-77498191D01*
X163846939Y-77850541D01*
G04 #@! TA.AperFunction,Conductor*
D20*
G36*
X163846939Y-77850541D02*
G01*
X165176251Y-79179853D01*
X165176251Y-79181288D01*
X165132313Y-79225226D01*
X165019045Y-79394744D01*
X164941024Y-79583102D01*
X164901250Y-79783061D01*
X164901250Y-79986939D01*
X164941024Y-80186898D01*
X165019045Y-80375256D01*
X165049502Y-80420839D01*
X164830252Y-80567337D01*
X164588587Y-80809002D01*
X164398713Y-81093169D01*
X164267925Y-81408919D01*
X164201250Y-81744117D01*
X164201250Y-82085883D01*
X164267925Y-82421081D01*
X164398713Y-82736831D01*
X164588587Y-83020998D01*
X164830252Y-83262663D01*
X165114419Y-83452537D01*
X165430169Y-83583325D01*
X165765367Y-83650000D01*
X166107133Y-83650000D01*
X166442331Y-83583325D01*
X166758081Y-83452537D01*
X167042248Y-83262663D01*
X167283913Y-83020998D01*
X167473787Y-82736831D01*
X167604575Y-82421081D01*
X167671250Y-82085883D01*
X167671250Y-81744117D01*
X167604575Y-81408919D01*
X167473787Y-81093169D01*
X167283913Y-80809002D01*
X167042248Y-80567337D01*
X166822998Y-80420839D01*
X166853455Y-80375256D01*
X166931476Y-80186898D01*
X166971250Y-79986939D01*
X166971250Y-79783061D01*
X166931476Y-79583102D01*
X166853455Y-79394744D01*
X166740187Y-79225226D01*
X166696250Y-79181289D01*
X166696250Y-78902375D01*
X166699926Y-78865050D01*
X166696250Y-78827725D01*
X166696250Y-78827717D01*
X166685253Y-78716064D01*
X166641796Y-78572803D01*
X166571224Y-78440774D01*
X166476251Y-78325049D01*
X166447253Y-78301251D01*
X166044245Y-77898243D01*
X183516200Y-78277549D01*
X183456830Y-78317219D01*
X183155969Y-78618080D01*
X182919583Y-78971856D01*
X182756758Y-79364951D01*
X182673750Y-79782259D01*
X182673750Y-80207741D01*
X182756758Y-80625049D01*
X182919583Y-81018144D01*
X183155969Y-81371920D01*
X183456830Y-81672781D01*
X183810606Y-81909167D01*
X184203701Y-82071992D01*
X184515179Y-82133949D01*
X184497444Y-82141295D01*
X184327926Y-82254563D01*
X184183763Y-82398726D01*
X184070495Y-82568244D01*
X183992474Y-82756602D01*
X183952700Y-82956561D01*
X183952700Y-83032794D01*
X183946036Y-83040914D01*
X183875464Y-83172944D01*
X183864494Y-83209110D01*
X183832008Y-83316204D01*
X183821011Y-83427857D01*
X183817334Y-83465190D01*
X183821011Y-83502522D01*
X183821010Y-87015089D01*
X183777073Y-87059026D01*
X183663805Y-87228544D01*
X183585784Y-87416902D01*
X183546010Y-87616861D01*
X183546010Y-87820739D01*
X183585784Y-88020698D01*
X183663805Y-88209056D01*
X183777073Y-88378574D01*
X183821011Y-88422512D01*
X183821010Y-90940279D01*
X183777073Y-90984216D01*
X183663805Y-91153734D01*
X183585784Y-91342092D01*
X183546010Y-91542051D01*
X183546010Y-91745929D01*
X183558872Y-91810591D01*
X183464053Y-91839354D01*
X183332023Y-91909926D01*
X183306764Y-91930656D01*
X183216299Y-92004899D01*
X183192501Y-92033897D01*
X181803199Y-93423200D01*
X171434602Y-93423200D01*
X171062600Y-93051199D01*
X171062600Y-92989061D01*
X171022826Y-92789102D01*
X170944805Y-92600744D01*
X170831537Y-92431226D01*
X170687374Y-92287063D01*
X170517856Y-92173795D01*
X170329498Y-92095774D01*
X170129539Y-92056000D01*
X169925661Y-92056000D01*
X169725702Y-92095774D01*
X169537344Y-92173795D01*
X169367826Y-92287063D01*
X169223663Y-92431226D01*
X169110395Y-92600744D01*
X169032374Y-92789102D01*
X168992600Y-92989061D01*
X168992600Y-93192939D01*
X169032374Y-93392898D01*
X169110395Y-93581256D01*
X169223663Y-93750774D01*
X169367826Y-93894937D01*
X169537344Y-94008205D01*
X169725702Y-94086226D01*
X169925661Y-94126000D01*
X169987799Y-94126000D01*
X170021599Y-94159800D01*
X168256850Y-94159800D01*
X165224461Y-91127412D01*
X165200658Y-91098408D01*
X165084933Y-91003435D01*
X164952904Y-90932863D01*
X164809643Y-90889406D01*
X164697990Y-90878409D01*
X164697979Y-90878409D01*
X164660657Y-90874733D01*
X164623335Y-90878409D01*
X162703714Y-90878409D01*
X162666391Y-90874733D01*
X162629068Y-90878409D01*
X162629058Y-90878409D01*
X162517405Y-90889406D01*
X162374144Y-90932863D01*
X162242115Y-91003435D01*
X162126390Y-91098408D01*
X162102592Y-91127406D01*
X161129419Y-92100580D01*
X158072382Y-92100580D01*
X156409834Y-90438033D01*
X156409834Y-90296661D01*
X165639800Y-90296661D01*
X165639800Y-90500539D01*
X165679574Y-90700498D01*
X165757595Y-90888856D01*
X165870863Y-91058374D01*
X166015026Y-91202537D01*
X166184544Y-91315805D01*
X166372902Y-91393826D01*
X166572861Y-91433600D01*
X166776739Y-91433600D01*
X166976698Y-91393826D01*
X167165056Y-91315805D01*
X167334574Y-91202537D01*
X167378511Y-91158600D01*
X169279078Y-91158600D01*
X169316400Y-91162276D01*
X169353722Y-91158600D01*
X169353733Y-91158600D01*
X169465386Y-91147603D01*
X169608647Y-91104146D01*
X169740676Y-91033574D01*
X169856401Y-90938601D01*
X169880203Y-90909598D01*
X170652904Y-90136898D01*
X170681901Y-90113101D01*
X170776874Y-89997376D01*
X170847446Y-89865347D01*
X170890903Y-89722086D01*
X170901900Y-89610433D01*
X170901900Y-89610424D01*
X170905576Y-89573101D01*
X170901900Y-89535778D01*
X170901900Y-82953701D01*
X171732404Y-82123198D01*
X171761401Y-82099401D01*
X171856374Y-81983676D01*
X171926946Y-81851647D01*
X171970403Y-81708386D01*
X171981400Y-81596733D01*
X171981400Y-81596732D01*
X171985077Y-81559400D01*
X171981400Y-81522067D01*
X171981400Y-80942311D01*
X172025337Y-80898374D01*
X172138605Y-80728856D01*
X172216626Y-80540498D01*
X172256400Y-80340539D01*
X172256400Y-80278402D01*
X172437402Y-80097400D01*
X180562889Y-80097400D01*
X180606826Y-80141337D01*
X180776344Y-80254605D01*
X180964702Y-80332626D01*
X181164661Y-80372400D01*
X181368539Y-80372400D01*
X181568498Y-80332626D01*
X181756856Y-80254605D01*
X181926374Y-80141337D01*
X182070537Y-79997174D01*
X182183805Y-79827656D01*
X182261826Y-79639298D01*
X182301600Y-79439339D01*
X182301600Y-79235461D01*
X182261826Y-79035502D01*
X182183805Y-78847144D01*
X182070537Y-78677626D01*
X181926374Y-78533463D01*
X181756856Y-78420195D01*
X181568498Y-78342174D01*
X181368539Y-78302400D01*
X181164661Y-78302400D01*
X180964702Y-78342174D01*
X180776344Y-78420195D01*
X180606826Y-78533463D01*
X180562889Y-78577400D01*
X172159922Y-78577400D01*
X172122599Y-78573724D01*
X172085276Y-78577400D01*
X172085267Y-78577400D01*
X171973614Y-78588397D01*
X171830353Y-78631854D01*
X171698324Y-78702426D01*
X171582599Y-78797399D01*
X171558801Y-78826397D01*
X171181598Y-79203600D01*
X171119461Y-79203600D01*
X170919502Y-79243374D01*
X170731144Y-79321395D01*
X170561626Y-79434663D01*
X170417463Y-79578826D01*
X170304195Y-79748344D01*
X170226174Y-79936702D01*
X170186400Y-80136661D01*
X170186400Y-80340539D01*
X170226174Y-80540498D01*
X170304195Y-80728856D01*
X170417463Y-80898374D01*
X170461400Y-80942311D01*
X170461400Y-81244598D01*
X169630898Y-82075101D01*
X169601900Y-82098899D01*
X169578102Y-82127897D01*
X169578101Y-82127898D01*
X169506926Y-82214624D01*
X169436354Y-82346654D01*
X169392898Y-82489915D01*
X169378224Y-82638900D01*
X169381901Y-82676232D01*
X169381901Y-85814142D01*
X169179661Y-85679010D01*
X168909408Y-85567068D01*
X168622510Y-85510000D01*
X168329990Y-85510000D01*
X168043092Y-85567068D01*
X167772839Y-85679010D01*
X167529618Y-85841525D01*
X167322775Y-86048368D01*
X167160260Y-86291589D01*
X167048318Y-86561842D01*
X166991250Y-86848740D01*
X166991250Y-87141260D01*
X167048318Y-87428158D01*
X167160260Y-87698411D01*
X167322775Y-87941632D01*
X167529618Y-88148475D01*
X167772839Y-88310990D01*
X168043092Y-88422932D01*
X168329990Y-88480000D01*
X168622510Y-88480000D01*
X168909408Y-88422932D01*
X169179661Y-88310990D01*
X169381900Y-88175858D01*
X169381900Y-89258298D01*
X169001599Y-89638600D01*
X167378511Y-89638600D01*
X167334574Y-89594663D01*
X167165056Y-89481395D01*
X166976698Y-89403374D01*
X166776739Y-89363600D01*
X166572861Y-89363600D01*
X166372902Y-89403374D01*
X166184544Y-89481395D01*
X166015026Y-89594663D01*
X165870863Y-89738826D01*
X165757595Y-89908344D01*
X165679574Y-90096702D01*
X165639800Y-90296661D01*
X156409834Y-90296661D01*
X156409834Y-86848740D01*
X156831250Y-86848740D01*
X156831250Y-87141260D01*
X156888318Y-87428158D01*
X157000260Y-87698411D01*
X157162775Y-87941632D01*
X157369618Y-88148475D01*
X157612839Y-88310990D01*
X157883092Y-88422932D01*
X158169990Y-88480000D01*
X158462510Y-88480000D01*
X158749408Y-88422932D01*
X159019661Y-88310990D01*
X159262882Y-88148475D01*
X159469725Y-87941632D01*
X159632240Y-87698411D01*
X159744182Y-87428158D01*
X159801250Y-87141260D01*
X159801250Y-86848740D01*
X159778721Y-86735475D01*
X160761250Y-86735475D01*
X160761250Y-87254525D01*
X160862511Y-87763601D01*
X161061143Y-88243141D01*
X161349512Y-88674715D01*
X161716535Y-89041738D01*
X162148109Y-89330107D01*
X162627649Y-89528739D01*
X163136725Y-89630000D01*
X163655775Y-89630000D01*
X164164851Y-89528739D01*
X164644391Y-89330107D01*
X165075965Y-89041738D01*
X165442988Y-88674715D01*
X165731357Y-88243141D01*
X165929989Y-87763601D01*
X166031250Y-87254525D01*
X166031250Y-86735475D01*
X165929989Y-86226399D01*
X165731357Y-85746859D01*
X165442988Y-85315285D01*
X165075965Y-84948262D01*
X164644391Y-84659893D01*
X164164851Y-84461261D01*
X163655775Y-84360000D01*
X163136725Y-84360000D01*
X162627649Y-84461261D01*
X162148109Y-84659893D01*
X161716535Y-84948262D01*
X161349512Y-85315285D01*
X161061143Y-85746859D01*
X160862511Y-86226399D01*
X160761250Y-86735475D01*
X159778721Y-86735475D01*
X159744182Y-86561842D01*
X159632240Y-86291589D01*
X159564360Y-86190000D01*
X159757133Y-86190000D01*
X160092331Y-86123325D01*
X160408081Y-85992537D01*
X160692248Y-85802663D01*
X160933913Y-85560998D01*
X161123787Y-85276831D01*
X161254575Y-84961081D01*
X161321250Y-84625883D01*
X161321250Y-84284117D01*
X161254575Y-83948919D01*
X161123787Y-83633169D01*
X160933913Y-83349002D01*
X160692248Y-83107337D01*
X160408081Y-82917463D01*
X160092331Y-82786675D01*
X159757133Y-82720000D01*
X159415367Y-82720000D01*
X159080169Y-82786675D01*
X158764419Y-82917463D01*
X158480252Y-83107337D01*
X158238587Y-83349002D01*
X158048713Y-83633169D01*
X157917925Y-83948919D01*
X157851250Y-84284117D01*
X157851250Y-84625883D01*
X157917925Y-84961081D01*
X158048713Y-85276831D01*
X158204511Y-85510000D01*
X158169990Y-85510000D01*
X157883092Y-85567068D01*
X157612839Y-85679010D01*
X157369618Y-85841525D01*
X157162775Y-86048368D01*
X157000260Y-86291589D01*
X156888318Y-86561842D01*
X156831250Y-86848740D01*
X156409834Y-86848740D01*
X156409834Y-84719556D01*
X156413510Y-84682233D01*
X156409834Y-84644910D01*
X156409834Y-84644901D01*
X156398837Y-84533248D01*
X156355380Y-84389987D01*
X156284808Y-84257958D01*
X156189835Y-84142233D01*
X156160837Y-84118435D01*
X155097404Y-83055002D01*
X155073601Y-83025999D01*
X154957876Y-82931026D01*
X154825847Y-82860454D01*
X154682586Y-82816997D01*
X154570933Y-82806000D01*
X154570922Y-82806000D01*
X154533600Y-82802324D01*
X154496278Y-82806000D01*
X154490978Y-82806000D01*
X154366275Y-82619368D01*
X154159432Y-82412525D01*
X153916211Y-82250010D01*
X153645958Y-82138068D01*
X153359060Y-82081000D01*
X153066540Y-82081000D01*
X152779642Y-82138068D01*
X152509389Y-82250010D01*
X152266168Y-82412525D01*
X152059325Y-82619368D01*
X151941700Y-82795406D01*
X151770388Y-82565731D01*
X151554155Y-82370822D01*
X151304052Y-82221843D01*
X151029691Y-82124519D01*
X150799800Y-82245186D01*
X150799800Y-83439000D01*
X150819800Y-83439000D01*
X150819800Y-83693000D01*
X150799800Y-83693000D01*
X150799800Y-83713000D01*
X150545800Y-83713000D01*
X150545800Y-83693000D01*
X149352645Y-83693000D01*
X149231324Y-83922890D01*
X149275975Y-84070099D01*
X149401159Y-84332920D01*
X149575212Y-84566269D01*
X149791445Y-84761178D01*
X149908334Y-84830805D01*
X149726168Y-84952525D01*
X149519325Y-85159368D01*
X149376002Y-85373867D01*
X149288353Y-85400454D01*
X149156324Y-85471026D01*
X149040599Y-85565999D01*
X149016801Y-85594997D01*
X147697998Y-86913801D01*
X147669000Y-86937599D01*
X147645202Y-86966597D01*
X147645201Y-86966598D01*
X147630117Y-86984978D01*
X147624771Y-83209110D01*
X149231324Y-83209110D01*
X149352645Y-83439000D01*
X150545800Y-83439000D01*
X150545800Y-82245186D01*
X150315909Y-82124519D01*
X150041548Y-82221843D01*
X149791445Y-82370822D01*
X149575212Y-82565731D01*
X149401159Y-82799080D01*
X149275975Y-83061901D01*
X149231324Y-83209110D01*
X147624771Y-83209110D01*
X147616684Y-77498191D01*
X163846939Y-77850541D01*
G37*
G04 #@! TD.AperFunction*
D19*
X190654182Y-78432511D02*
X190760684Y-85805733D01*
X190707118Y-85841525D01*
X190500275Y-86048368D01*
X190337760Y-86291589D01*
X190225818Y-86561842D01*
X190168750Y-86848740D01*
X190168750Y-87141260D01*
X190225818Y-87428158D01*
X190337760Y-87698411D01*
X190493034Y-87930795D01*
X185867806Y-87930795D01*
X185672309Y-87735298D01*
X185672304Y-87735292D01*
X185616010Y-87678998D01*
X185616010Y-87616861D01*
X185576236Y-87416902D01*
X185498215Y-87228544D01*
X185384947Y-87059026D01*
X185341010Y-87015089D01*
X185341010Y-84032430D01*
X185477956Y-83975705D01*
X185647474Y-83862437D01*
X185791637Y-83718274D01*
X185904905Y-83548756D01*
X185982926Y-83360398D01*
X186022700Y-83160439D01*
X186022700Y-82956561D01*
X185982926Y-82756602D01*
X185904905Y-82568244D01*
X185791637Y-82398726D01*
X185647474Y-82254563D01*
X185477956Y-82141295D01*
X185360332Y-82092573D01*
X185463799Y-82071992D01*
X185856894Y-81909167D01*
X186210670Y-81672781D01*
X186511531Y-81371920D01*
X186747917Y-81018144D01*
X186910742Y-80625049D01*
X186993750Y-80207741D01*
X186993750Y-79782259D01*
X186910742Y-79364951D01*
X186747917Y-78971856D01*
X186511531Y-78618080D01*
X186229914Y-78336463D01*
X190654182Y-78432511D01*
G04 #@! TA.AperFunction,Conductor*
D20*
G36*
X190654182Y-78432511D02*
G01*
X190760684Y-85805733D01*
X190707118Y-85841525D01*
X190500275Y-86048368D01*
X190337760Y-86291589D01*
X190225818Y-86561842D01*
X190168750Y-86848740D01*
X190168750Y-87141260D01*
X190225818Y-87428158D01*
X190337760Y-87698411D01*
X190493034Y-87930795D01*
X185867806Y-87930795D01*
X185672309Y-87735298D01*
X185672304Y-87735292D01*
X185616010Y-87678998D01*
X185616010Y-87616861D01*
X185576236Y-87416902D01*
X185498215Y-87228544D01*
X185384947Y-87059026D01*
X185341010Y-87015089D01*
X185341010Y-84032430D01*
X185477956Y-83975705D01*
X185647474Y-83862437D01*
X185791637Y-83718274D01*
X185904905Y-83548756D01*
X185982926Y-83360398D01*
X186022700Y-83160439D01*
X186022700Y-82956561D01*
X185982926Y-82756602D01*
X185904905Y-82568244D01*
X185791637Y-82398726D01*
X185647474Y-82254563D01*
X185477956Y-82141295D01*
X185360332Y-82092573D01*
X185463799Y-82071992D01*
X185856894Y-81909167D01*
X186210670Y-81672781D01*
X186511531Y-81371920D01*
X186747917Y-81018144D01*
X186910742Y-80625049D01*
X186993750Y-80207741D01*
X186993750Y-79782259D01*
X186910742Y-79364951D01*
X186747917Y-78971856D01*
X186511531Y-78618080D01*
X186229914Y-78336463D01*
X190654182Y-78432511D01*
G37*
G04 #@! TD.AperFunction*
D19*
X152059325Y-84512632D02*
X152266168Y-84719475D01*
X152440560Y-84836000D01*
X152266168Y-84952525D01*
X152059325Y-85159368D01*
X151942800Y-85333760D01*
X151826275Y-85159368D01*
X151619432Y-84952525D01*
X151437266Y-84830805D01*
X151554155Y-84761178D01*
X151770388Y-84566269D01*
X151941700Y-84336594D01*
X152059325Y-84512632D01*
G04 #@! TA.AperFunction,Conductor*
D20*
G36*
X152059325Y-84512632D02*
G01*
X152266168Y-84719475D01*
X152440560Y-84836000D01*
X152266168Y-84952525D01*
X152059325Y-85159368D01*
X151942800Y-85333760D01*
X151826275Y-85159368D01*
X151619432Y-84952525D01*
X151437266Y-84830805D01*
X151554155Y-84761178D01*
X151770388Y-84566269D01*
X151941700Y-84336594D01*
X152059325Y-84512632D01*
G37*
G04 #@! TD.AperFunction*
M02*
