G04 #@! TF.GenerationSoftware,KiCad,Pcbnew,(5.1.12)-1*
G04 #@! TF.CreationDate,2021-12-20T15:10:15-08:00*
G04 #@! TF.ProjectId,logboi,6c6f6762-6f69-42e6-9b69-6361645f7063,rev?*
G04 #@! TF.SameCoordinates,Original*
G04 #@! TF.FileFunction,Legend,Top*
G04 #@! TF.FilePolarity,Positive*
%FSLAX46Y46*%
G04 Gerber Fmt 4.6, Leading zero omitted, Abs format (unit mm)*
G04 Created by KiCad (PCBNEW (5.1.12)-1) date 2021-12-20 15:10:15*
%MOMM*%
%LPD*%
G01*
G04 APERTURE LIST*
%ADD10C,0.500000*%
%ADD11C,0.120000*%
%ADD12C,0.150000*%
G04 APERTURE END LIST*
D10*
X237700228Y-88472828D02*
X237843085Y-88615685D01*
X237700228Y-88758542D01*
X237557371Y-88615685D01*
X237700228Y-88472828D01*
X237700228Y-88758542D01*
X239557371Y-88758542D02*
X239271657Y-88615685D01*
X239128800Y-88329971D01*
X239128800Y-85758542D01*
X241843085Y-88615685D02*
X241557371Y-88758542D01*
X240985942Y-88758542D01*
X240700228Y-88615685D01*
X240557371Y-88329971D01*
X240557371Y-87187114D01*
X240700228Y-86901400D01*
X240985942Y-86758542D01*
X241557371Y-86758542D01*
X241843085Y-86901400D01*
X241985942Y-87187114D01*
X241985942Y-87472828D01*
X240557371Y-87758542D01*
X243271657Y-86758542D02*
X243271657Y-88758542D01*
X243271657Y-87044257D02*
X243414514Y-86901400D01*
X243700228Y-86758542D01*
X244128800Y-86758542D01*
X244414514Y-86901400D01*
X244557371Y-87187114D01*
X244557371Y-88758542D01*
X246843085Y-89901400D02*
X246700228Y-89758542D01*
X246414514Y-89329971D01*
X246271657Y-89044257D01*
X246128800Y-88615685D01*
X245985942Y-87901400D01*
X245985942Y-87329971D01*
X246128800Y-86615685D01*
X246271657Y-86187114D01*
X246414514Y-85901400D01*
X246700228Y-85472828D01*
X246843085Y-85329971D01*
X247700228Y-89901400D02*
X247843085Y-89758542D01*
X248128800Y-89329971D01*
X248271657Y-89044257D01*
X248414514Y-88615685D01*
X248557371Y-87901400D01*
X248557371Y-87329971D01*
X248414514Y-86615685D01*
X248271657Y-86187114D01*
X248128800Y-85901400D01*
X247843085Y-85472828D01*
X247700228Y-85329971D01*
D11*
X287380000Y-41910000D02*
X301350000Y-41910000D01*
X301350000Y-41910000D02*
X301350000Y-55880000D01*
X301350000Y-55880000D02*
X287380000Y-55880000D01*
X287380000Y-55880000D02*
X287380000Y-41910000D01*
X132598750Y-80010000D02*
X146568750Y-80010000D01*
X146568750Y-80010000D02*
X146568750Y-93980000D01*
X146568750Y-93980000D02*
X132598750Y-93980000D01*
X132598750Y-93980000D02*
X132598750Y-80010000D01*
X115930000Y-60960000D02*
X129900000Y-60960000D01*
X129900000Y-60960000D02*
X129900000Y-74930000D01*
X129900000Y-74930000D02*
X115930000Y-74930000D01*
X115930000Y-74930000D02*
X115930000Y-60960000D01*
X111167500Y-41910000D02*
X125137500Y-41910000D01*
X125137500Y-41910000D02*
X125137500Y-55880000D01*
X125137500Y-55880000D02*
X111167500Y-55880000D01*
X111167500Y-55880000D02*
X111167500Y-41910000D01*
X108786250Y-22860000D02*
X122756250Y-22860000D01*
X122756250Y-22860000D02*
X122756250Y-36830000D01*
X122756250Y-36830000D02*
X108786250Y-36830000D01*
X108786250Y-36830000D02*
X108786250Y-22860000D01*
X225467500Y-22860000D02*
X239437500Y-22860000D01*
X239437500Y-22860000D02*
X239437500Y-36830000D01*
X239437500Y-36830000D02*
X225467500Y-36830000D01*
X225467500Y-36830000D02*
X225467500Y-22860000D01*
X220705000Y-80010000D02*
X234675000Y-80010000D01*
X234675000Y-80010000D02*
X234675000Y-93980000D01*
X234675000Y-93980000D02*
X220705000Y-93980000D01*
X220705000Y-93980000D02*
X220705000Y-80010000D01*
X189748750Y-80010000D02*
X203718750Y-80010000D01*
X203718750Y-80010000D02*
X203718750Y-93980000D01*
X203718750Y-93980000D02*
X189748750Y-93980000D01*
X189748750Y-93980000D02*
X189748750Y-80010000D01*
X377867500Y-80010000D02*
X391837500Y-80010000D01*
X391837500Y-80010000D02*
X391837500Y-93980000D01*
X391837500Y-93980000D02*
X377867500Y-93980000D01*
X377867500Y-93980000D02*
X377867500Y-80010000D01*
X377867500Y-60960000D02*
X391837500Y-60960000D01*
X391837500Y-60960000D02*
X391837500Y-74930000D01*
X391837500Y-74930000D02*
X377867500Y-74930000D01*
X377867500Y-74930000D02*
X377867500Y-60960000D01*
X377867500Y-41910000D02*
X391837500Y-41910000D01*
X391837500Y-41910000D02*
X391837500Y-55880000D01*
X391837500Y-55880000D02*
X377867500Y-55880000D01*
X377867500Y-55880000D02*
X377867500Y-41910000D01*
X377867500Y-22860000D02*
X391837500Y-22860000D01*
X391837500Y-22860000D02*
X391837500Y-36830000D01*
X391837500Y-36830000D02*
X377867500Y-36830000D01*
X377867500Y-36830000D02*
X377867500Y-22860000D01*
X30205000Y-22860000D02*
X44175000Y-22860000D01*
X44175000Y-22860000D02*
X44175000Y-36830000D01*
X44175000Y-36830000D02*
X30205000Y-36830000D01*
X30205000Y-36830000D02*
X30205000Y-22860000D01*
X49255000Y-22860000D02*
X63225000Y-22860000D01*
X63225000Y-22860000D02*
X63225000Y-36830000D01*
X63225000Y-36830000D02*
X49255000Y-36830000D01*
X49255000Y-36830000D02*
X49255000Y-22860000D01*
X68305000Y-22860000D02*
X82275000Y-22860000D01*
X82275000Y-22860000D02*
X82275000Y-36830000D01*
X82275000Y-36830000D02*
X68305000Y-36830000D01*
X68305000Y-36830000D02*
X68305000Y-22860000D01*
X87355000Y-22860000D02*
X101325000Y-22860000D01*
X101325000Y-22860000D02*
X101325000Y-36830000D01*
X101325000Y-36830000D02*
X87355000Y-36830000D01*
X87355000Y-36830000D02*
X87355000Y-22860000D01*
X130217500Y-22860000D02*
X144187500Y-22860000D01*
X144187500Y-22860000D02*
X144187500Y-36830000D01*
X144187500Y-36830000D02*
X130217500Y-36830000D01*
X130217500Y-36830000D02*
X130217500Y-22860000D01*
X149267500Y-22860000D02*
X163237500Y-22860000D01*
X163237500Y-22860000D02*
X163237500Y-36830000D01*
X163237500Y-36830000D02*
X149267500Y-36830000D01*
X149267500Y-36830000D02*
X149267500Y-22860000D01*
X168317500Y-22860000D02*
X182287500Y-22860000D01*
X182287500Y-22860000D02*
X182287500Y-36830000D01*
X182287500Y-36830000D02*
X168317500Y-36830000D01*
X168317500Y-36830000D02*
X168317500Y-22860000D01*
X187367500Y-22860000D02*
X201337500Y-22860000D01*
X201337500Y-22860000D02*
X201337500Y-36830000D01*
X201337500Y-36830000D02*
X187367500Y-36830000D01*
X187367500Y-36830000D02*
X187367500Y-22860000D01*
X206417500Y-22860000D02*
X220387500Y-22860000D01*
X220387500Y-22860000D02*
X220387500Y-36830000D01*
X220387500Y-36830000D02*
X206417500Y-36830000D01*
X206417500Y-36830000D02*
X206417500Y-22860000D01*
X244517500Y-22860000D02*
X258487500Y-22860000D01*
X258487500Y-22860000D02*
X258487500Y-36830000D01*
X258487500Y-36830000D02*
X244517500Y-36830000D01*
X244517500Y-36830000D02*
X244517500Y-22860000D01*
X263567500Y-22860000D02*
X277537500Y-22860000D01*
X277537500Y-22860000D02*
X277537500Y-36830000D01*
X277537500Y-36830000D02*
X263567500Y-36830000D01*
X263567500Y-36830000D02*
X263567500Y-22860000D01*
X282617500Y-22860000D02*
X296587500Y-22860000D01*
X296587500Y-22860000D02*
X296587500Y-36830000D01*
X296587500Y-36830000D02*
X282617500Y-36830000D01*
X282617500Y-36830000D02*
X282617500Y-22860000D01*
X301667500Y-22860000D02*
X315637500Y-22860000D01*
X315637500Y-22860000D02*
X315637500Y-36830000D01*
X315637500Y-36830000D02*
X301667500Y-36830000D01*
X301667500Y-36830000D02*
X301667500Y-22860000D01*
X320717500Y-22860000D02*
X334687500Y-22860000D01*
X334687500Y-22860000D02*
X334687500Y-36830000D01*
X334687500Y-36830000D02*
X320717500Y-36830000D01*
X320717500Y-36830000D02*
X320717500Y-22860000D01*
X339767500Y-22860000D02*
X353737500Y-22860000D01*
X353737500Y-22860000D02*
X353737500Y-36830000D01*
X353737500Y-36830000D02*
X339767500Y-36830000D01*
X339767500Y-36830000D02*
X339767500Y-22860000D01*
X358817500Y-22860000D02*
X372787500Y-22860000D01*
X372787500Y-22860000D02*
X372787500Y-36830000D01*
X372787500Y-36830000D02*
X358817500Y-36830000D01*
X358817500Y-36830000D02*
X358817500Y-22860000D01*
X30205000Y-41910000D02*
X44175000Y-41910000D01*
X44175000Y-41910000D02*
X44175000Y-55880000D01*
X44175000Y-55880000D02*
X30205000Y-55880000D01*
X30205000Y-55880000D02*
X30205000Y-41910000D01*
X49255000Y-41910000D02*
X63225000Y-41910000D01*
X63225000Y-41910000D02*
X63225000Y-55880000D01*
X63225000Y-55880000D02*
X49255000Y-55880000D01*
X49255000Y-55880000D02*
X49255000Y-41910000D01*
X68305000Y-41910000D02*
X82275000Y-41910000D01*
X82275000Y-41910000D02*
X82275000Y-55880000D01*
X82275000Y-55880000D02*
X68305000Y-55880000D01*
X68305000Y-55880000D02*
X68305000Y-41910000D01*
X87355000Y-41910000D02*
X101325000Y-41910000D01*
X101325000Y-41910000D02*
X101325000Y-55880000D01*
X101325000Y-55880000D02*
X87355000Y-55880000D01*
X87355000Y-55880000D02*
X87355000Y-41910000D01*
X134980000Y-41910000D02*
X148950000Y-41910000D01*
X148950000Y-41910000D02*
X148950000Y-55880000D01*
X148950000Y-55880000D02*
X134980000Y-55880000D01*
X134980000Y-55880000D02*
X134980000Y-41910000D01*
X154030000Y-41910000D02*
X168000000Y-41910000D01*
X168000000Y-41910000D02*
X168000000Y-55880000D01*
X168000000Y-55880000D02*
X154030000Y-55880000D01*
X154030000Y-55880000D02*
X154030000Y-41910000D01*
X173080000Y-41910000D02*
X187050000Y-41910000D01*
X187050000Y-41910000D02*
X187050000Y-55880000D01*
X187050000Y-55880000D02*
X173080000Y-55880000D01*
X173080000Y-55880000D02*
X173080000Y-41910000D01*
X192130000Y-41910000D02*
X206100000Y-41910000D01*
X206100000Y-41910000D02*
X206100000Y-55880000D01*
X206100000Y-55880000D02*
X192130000Y-55880000D01*
X192130000Y-55880000D02*
X192130000Y-41910000D01*
X211180000Y-41910000D02*
X225150000Y-41910000D01*
X225150000Y-41910000D02*
X225150000Y-55880000D01*
X225150000Y-55880000D02*
X211180000Y-55880000D01*
X211180000Y-55880000D02*
X211180000Y-41910000D01*
X230230000Y-41910000D02*
X244200000Y-41910000D01*
X244200000Y-41910000D02*
X244200000Y-55880000D01*
X244200000Y-55880000D02*
X230230000Y-55880000D01*
X230230000Y-55880000D02*
X230230000Y-41910000D01*
X249280000Y-41910000D02*
X263250000Y-41910000D01*
X263250000Y-41910000D02*
X263250000Y-55880000D01*
X263250000Y-55880000D02*
X249280000Y-55880000D01*
X249280000Y-55880000D02*
X249280000Y-41910000D01*
X268330000Y-41910000D02*
X282300000Y-41910000D01*
X282300000Y-41910000D02*
X282300000Y-55880000D01*
X282300000Y-55880000D02*
X268330000Y-55880000D01*
X268330000Y-55880000D02*
X268330000Y-41910000D01*
X306430000Y-41910000D02*
X320400000Y-41910000D01*
X320400000Y-41910000D02*
X320400000Y-55880000D01*
X320400000Y-55880000D02*
X306430000Y-55880000D01*
X306430000Y-55880000D02*
X306430000Y-41910000D01*
X325480000Y-41910000D02*
X339450000Y-41910000D01*
X339450000Y-41910000D02*
X339450000Y-55880000D01*
X339450000Y-55880000D02*
X325480000Y-55880000D01*
X325480000Y-55880000D02*
X325480000Y-41910000D01*
X351673750Y-41910000D02*
X365643750Y-41910000D01*
X365643750Y-41910000D02*
X365643750Y-55880000D01*
X365643750Y-55880000D02*
X351673750Y-55880000D01*
X351673750Y-55880000D02*
X351673750Y-41910000D01*
X30205000Y-60960000D02*
X44175000Y-60960000D01*
X44175000Y-60960000D02*
X44175000Y-74930000D01*
X44175000Y-74930000D02*
X30205000Y-74930000D01*
X30205000Y-74930000D02*
X30205000Y-60960000D01*
X49255000Y-60960000D02*
X63225000Y-60960000D01*
X63225000Y-60960000D02*
X63225000Y-74930000D01*
X63225000Y-74930000D02*
X49255000Y-74930000D01*
X49255000Y-74930000D02*
X49255000Y-60960000D01*
X68305000Y-60960000D02*
X82275000Y-60960000D01*
X82275000Y-60960000D02*
X82275000Y-74930000D01*
X82275000Y-74930000D02*
X68305000Y-74930000D01*
X68305000Y-74930000D02*
X68305000Y-60960000D01*
X87355000Y-60960000D02*
X101325000Y-60960000D01*
X101325000Y-60960000D02*
X101325000Y-74930000D01*
X101325000Y-74930000D02*
X87355000Y-74930000D01*
X87355000Y-74930000D02*
X87355000Y-60960000D01*
X144505000Y-60960000D02*
X158475000Y-60960000D01*
X158475000Y-60960000D02*
X158475000Y-74930000D01*
X158475000Y-74930000D02*
X144505000Y-74930000D01*
X144505000Y-74930000D02*
X144505000Y-60960000D01*
X163555000Y-60960000D02*
X177525000Y-60960000D01*
X177525000Y-60960000D02*
X177525000Y-74930000D01*
X177525000Y-74930000D02*
X163555000Y-74930000D01*
X163555000Y-74930000D02*
X163555000Y-60960000D01*
X182605000Y-60960000D02*
X196575000Y-60960000D01*
X196575000Y-60960000D02*
X196575000Y-74930000D01*
X196575000Y-74930000D02*
X182605000Y-74930000D01*
X182605000Y-74930000D02*
X182605000Y-60960000D01*
X201655000Y-60960000D02*
X215625000Y-60960000D01*
X215625000Y-60960000D02*
X215625000Y-74930000D01*
X215625000Y-74930000D02*
X201655000Y-74930000D01*
X201655000Y-74930000D02*
X201655000Y-60960000D01*
X220705000Y-60960000D02*
X234675000Y-60960000D01*
X234675000Y-60960000D02*
X234675000Y-74930000D01*
X234675000Y-74930000D02*
X220705000Y-74930000D01*
X220705000Y-74930000D02*
X220705000Y-60960000D01*
X239755000Y-60960000D02*
X253725000Y-60960000D01*
X253725000Y-60960000D02*
X253725000Y-74930000D01*
X253725000Y-74930000D02*
X239755000Y-74930000D01*
X239755000Y-74930000D02*
X239755000Y-60960000D01*
X258805000Y-60960000D02*
X272775000Y-60960000D01*
X272775000Y-60960000D02*
X272775000Y-74930000D01*
X272775000Y-74930000D02*
X258805000Y-74930000D01*
X258805000Y-74930000D02*
X258805000Y-60960000D01*
X277855000Y-60960000D02*
X291825000Y-60960000D01*
X291825000Y-60960000D02*
X291825000Y-74930000D01*
X291825000Y-74930000D02*
X277855000Y-74930000D01*
X277855000Y-74930000D02*
X277855000Y-60960000D01*
X296905000Y-60960000D02*
X310875000Y-60960000D01*
X310875000Y-60960000D02*
X310875000Y-74930000D01*
X310875000Y-74930000D02*
X296905000Y-74930000D01*
X296905000Y-74930000D02*
X296905000Y-60960000D01*
X315955000Y-60960000D02*
X329925000Y-60960000D01*
X329925000Y-60960000D02*
X329925000Y-74930000D01*
X329925000Y-74930000D02*
X315955000Y-74930000D01*
X315955000Y-74930000D02*
X315955000Y-60960000D01*
X337386250Y-60960000D02*
X351356250Y-60960000D01*
X351356250Y-60960000D02*
X351356250Y-74930000D01*
X351356250Y-74930000D02*
X337386250Y-74930000D01*
X337386250Y-74930000D02*
X337386250Y-60960000D01*
X358817500Y-60960000D02*
X372787500Y-60960000D01*
X372787500Y-60960000D02*
X372787500Y-74930000D01*
X372787500Y-74930000D02*
X358817500Y-74930000D01*
X358817500Y-74930000D02*
X358817500Y-60960000D01*
X39730000Y-80010000D02*
X53700000Y-80010000D01*
X53700000Y-80010000D02*
X53700000Y-93980000D01*
X53700000Y-93980000D02*
X39730000Y-93980000D01*
X39730000Y-93980000D02*
X39730000Y-80010000D01*
X68305000Y-80010000D02*
X82275000Y-80010000D01*
X82275000Y-80010000D02*
X82275000Y-93980000D01*
X82275000Y-93980000D02*
X68305000Y-93980000D01*
X68305000Y-93980000D02*
X68305000Y-80010000D01*
X87355000Y-80010000D02*
X101325000Y-80010000D01*
X101325000Y-80010000D02*
X101325000Y-93980000D01*
X101325000Y-93980000D02*
X87355000Y-93980000D01*
X87355000Y-93980000D02*
X87355000Y-80010000D01*
X108786250Y-80010000D02*
X122756250Y-80010000D01*
X122756250Y-80010000D02*
X122756250Y-93980000D01*
X122756250Y-93980000D02*
X108786250Y-93980000D01*
X108786250Y-93980000D02*
X108786250Y-80010000D01*
X156411250Y-80010000D02*
X170381250Y-80010000D01*
X170381250Y-80010000D02*
X170381250Y-93980000D01*
X170381250Y-93980000D02*
X156411250Y-93980000D01*
X156411250Y-93980000D02*
X156411250Y-80010000D01*
X251661250Y-80010000D02*
X265631250Y-80010000D01*
X265631250Y-80010000D02*
X265631250Y-93980000D01*
X265631250Y-93980000D02*
X251661250Y-93980000D01*
X251661250Y-93980000D02*
X251661250Y-80010000D01*
X282617500Y-80010000D02*
X296587500Y-80010000D01*
X296587500Y-80010000D02*
X296587500Y-93980000D01*
X296587500Y-93980000D02*
X282617500Y-93980000D01*
X282617500Y-93980000D02*
X282617500Y-80010000D01*
X301667500Y-80010000D02*
X315637500Y-80010000D01*
X315637500Y-80010000D02*
X315637500Y-93980000D01*
X315637500Y-93980000D02*
X301667500Y-93980000D01*
X301667500Y-93980000D02*
X301667500Y-80010000D01*
X320717500Y-80010000D02*
X334687500Y-80010000D01*
X334687500Y-80010000D02*
X334687500Y-93980000D01*
X334687500Y-93980000D02*
X320717500Y-93980000D01*
X320717500Y-93980000D02*
X320717500Y-80010000D01*
X339767500Y-80010000D02*
X353737500Y-80010000D01*
X353737500Y-80010000D02*
X353737500Y-93980000D01*
X353737500Y-93980000D02*
X339767500Y-93980000D01*
X339767500Y-93980000D02*
X339767500Y-80010000D01*
X358817500Y-80010000D02*
X372787500Y-80010000D01*
X372787500Y-80010000D02*
X372787500Y-93980000D01*
X372787500Y-93980000D02*
X358817500Y-93980000D01*
X358817500Y-93980000D02*
X358817500Y-80010000D01*
D12*
X293150714Y-41473380D02*
X293150714Y-40473380D01*
X293722142Y-41473380D02*
X293293571Y-40901952D01*
X293722142Y-40473380D02*
X293150714Y-41044809D01*
X294055476Y-40473380D02*
X294674523Y-40473380D01*
X294341190Y-40854333D01*
X294484047Y-40854333D01*
X294579285Y-40901952D01*
X294626904Y-40949571D01*
X294674523Y-41044809D01*
X294674523Y-41282904D01*
X294626904Y-41378142D01*
X294579285Y-41425761D01*
X294484047Y-41473380D01*
X294198333Y-41473380D01*
X294103095Y-41425761D01*
X294055476Y-41378142D01*
X295626904Y-41473380D02*
X295055476Y-41473380D01*
X295341190Y-41473380D02*
X295341190Y-40473380D01*
X295245952Y-40616238D01*
X295150714Y-40711476D01*
X295055476Y-40759095D01*
X138369464Y-79573380D02*
X138369464Y-78573380D01*
X138940892Y-79573380D02*
X138512321Y-79001952D01*
X138940892Y-78573380D02*
X138369464Y-79144809D01*
X139845654Y-78573380D02*
X139369464Y-78573380D01*
X139321845Y-79049571D01*
X139369464Y-79001952D01*
X139464702Y-78954333D01*
X139702797Y-78954333D01*
X139798035Y-79001952D01*
X139845654Y-79049571D01*
X139893273Y-79144809D01*
X139893273Y-79382904D01*
X139845654Y-79478142D01*
X139798035Y-79525761D01*
X139702797Y-79573380D01*
X139464702Y-79573380D01*
X139369464Y-79525761D01*
X139321845Y-79478142D01*
X140750416Y-78573380D02*
X140559940Y-78573380D01*
X140464702Y-78621000D01*
X140417083Y-78668619D01*
X140321845Y-78811476D01*
X140274226Y-79001952D01*
X140274226Y-79382904D01*
X140321845Y-79478142D01*
X140369464Y-79525761D01*
X140464702Y-79573380D01*
X140655178Y-79573380D01*
X140750416Y-79525761D01*
X140798035Y-79478142D01*
X140845654Y-79382904D01*
X140845654Y-79144809D01*
X140798035Y-79049571D01*
X140750416Y-79001952D01*
X140655178Y-78954333D01*
X140464702Y-78954333D01*
X140369464Y-79001952D01*
X140321845Y-79049571D01*
X140274226Y-79144809D01*
X121700714Y-60523380D02*
X121700714Y-59523380D01*
X122272142Y-60523380D02*
X121843571Y-59951952D01*
X122272142Y-59523380D02*
X121700714Y-60094809D01*
X122605476Y-59523380D02*
X123224523Y-59523380D01*
X122891190Y-59904333D01*
X123034047Y-59904333D01*
X123129285Y-59951952D01*
X123176904Y-59999571D01*
X123224523Y-60094809D01*
X123224523Y-60332904D01*
X123176904Y-60428142D01*
X123129285Y-60475761D01*
X123034047Y-60523380D01*
X122748333Y-60523380D01*
X122653095Y-60475761D01*
X122605476Y-60428142D01*
X123700714Y-60523380D02*
X123891190Y-60523380D01*
X123986428Y-60475761D01*
X124034047Y-60428142D01*
X124129285Y-60285285D01*
X124176904Y-60094809D01*
X124176904Y-59713857D01*
X124129285Y-59618619D01*
X124081666Y-59571000D01*
X123986428Y-59523380D01*
X123795952Y-59523380D01*
X123700714Y-59571000D01*
X123653095Y-59618619D01*
X123605476Y-59713857D01*
X123605476Y-59951952D01*
X123653095Y-60047190D01*
X123700714Y-60094809D01*
X123795952Y-60142428D01*
X123986428Y-60142428D01*
X124081666Y-60094809D01*
X124129285Y-60047190D01*
X124176904Y-59951952D01*
X116938214Y-41473380D02*
X116938214Y-40473380D01*
X117509642Y-41473380D02*
X117081071Y-40901952D01*
X117509642Y-40473380D02*
X116938214Y-41044809D01*
X117890595Y-40568619D02*
X117938214Y-40521000D01*
X118033452Y-40473380D01*
X118271547Y-40473380D01*
X118366785Y-40521000D01*
X118414404Y-40568619D01*
X118462023Y-40663857D01*
X118462023Y-40759095D01*
X118414404Y-40901952D01*
X117842976Y-41473380D01*
X118462023Y-41473380D01*
X118842976Y-40568619D02*
X118890595Y-40521000D01*
X118985833Y-40473380D01*
X119223928Y-40473380D01*
X119319166Y-40521000D01*
X119366785Y-40568619D01*
X119414404Y-40663857D01*
X119414404Y-40759095D01*
X119366785Y-40901952D01*
X118795357Y-41473380D01*
X119414404Y-41473380D01*
X115033154Y-22423380D02*
X115033154Y-21423380D01*
X115604583Y-22423380D02*
X115176011Y-21851952D01*
X115604583Y-21423380D02*
X115033154Y-21994809D01*
X116461726Y-21756714D02*
X116461726Y-22423380D01*
X116223630Y-21375761D02*
X115985535Y-22090047D01*
X116604583Y-22090047D01*
X231238214Y-22423380D02*
X231238214Y-21423380D01*
X231809642Y-22423380D02*
X231381071Y-21851952D01*
X231809642Y-21423380D02*
X231238214Y-21994809D01*
X232762023Y-22423380D02*
X232190595Y-22423380D01*
X232476309Y-22423380D02*
X232476309Y-21423380D01*
X232381071Y-21566238D01*
X232285833Y-21661476D01*
X232190595Y-21709095D01*
X233381071Y-21423380D02*
X233476309Y-21423380D01*
X233571547Y-21471000D01*
X233619166Y-21518619D01*
X233666785Y-21613857D01*
X233714404Y-21804333D01*
X233714404Y-22042428D01*
X233666785Y-22232904D01*
X233619166Y-22328142D01*
X233571547Y-22375761D01*
X233476309Y-22423380D01*
X233381071Y-22423380D01*
X233285833Y-22375761D01*
X233238214Y-22328142D01*
X233190595Y-22232904D01*
X233142976Y-22042428D01*
X233142976Y-21804333D01*
X233190595Y-21613857D01*
X233238214Y-21518619D01*
X233285833Y-21471000D01*
X233381071Y-21423380D01*
X226475714Y-79573380D02*
X226475714Y-78573380D01*
X227047142Y-79573380D02*
X226618571Y-79001952D01*
X227047142Y-78573380D02*
X226475714Y-79144809D01*
X227951904Y-78573380D02*
X227475714Y-78573380D01*
X227428095Y-79049571D01*
X227475714Y-79001952D01*
X227570952Y-78954333D01*
X227809047Y-78954333D01*
X227904285Y-79001952D01*
X227951904Y-79049571D01*
X227999523Y-79144809D01*
X227999523Y-79382904D01*
X227951904Y-79478142D01*
X227904285Y-79525761D01*
X227809047Y-79573380D01*
X227570952Y-79573380D01*
X227475714Y-79525761D01*
X227428095Y-79478142D01*
X228475714Y-79573380D02*
X228666190Y-79573380D01*
X228761428Y-79525761D01*
X228809047Y-79478142D01*
X228904285Y-79335285D01*
X228951904Y-79144809D01*
X228951904Y-78763857D01*
X228904285Y-78668619D01*
X228856666Y-78621000D01*
X228761428Y-78573380D01*
X228570952Y-78573380D01*
X228475714Y-78621000D01*
X228428095Y-78668619D01*
X228380476Y-78763857D01*
X228380476Y-79001952D01*
X228428095Y-79097190D01*
X228475714Y-79144809D01*
X228570952Y-79192428D01*
X228761428Y-79192428D01*
X228856666Y-79144809D01*
X228904285Y-79097190D01*
X228951904Y-79001952D01*
X195519464Y-79573380D02*
X195519464Y-78573380D01*
X196090892Y-79573380D02*
X195662321Y-79001952D01*
X196090892Y-78573380D02*
X195519464Y-79144809D01*
X196995654Y-78573380D02*
X196519464Y-78573380D01*
X196471845Y-79049571D01*
X196519464Y-79001952D01*
X196614702Y-78954333D01*
X196852797Y-78954333D01*
X196948035Y-79001952D01*
X196995654Y-79049571D01*
X197043273Y-79144809D01*
X197043273Y-79382904D01*
X196995654Y-79478142D01*
X196948035Y-79525761D01*
X196852797Y-79573380D01*
X196614702Y-79573380D01*
X196519464Y-79525761D01*
X196471845Y-79478142D01*
X197614702Y-79001952D02*
X197519464Y-78954333D01*
X197471845Y-78906714D01*
X197424226Y-78811476D01*
X197424226Y-78763857D01*
X197471845Y-78668619D01*
X197519464Y-78621000D01*
X197614702Y-78573380D01*
X197805178Y-78573380D01*
X197900416Y-78621000D01*
X197948035Y-78668619D01*
X197995654Y-78763857D01*
X197995654Y-78811476D01*
X197948035Y-78906714D01*
X197900416Y-78954333D01*
X197805178Y-79001952D01*
X197614702Y-79001952D01*
X197519464Y-79049571D01*
X197471845Y-79097190D01*
X197424226Y-79192428D01*
X197424226Y-79382904D01*
X197471845Y-79478142D01*
X197519464Y-79525761D01*
X197614702Y-79573380D01*
X197805178Y-79573380D01*
X197900416Y-79525761D01*
X197948035Y-79478142D01*
X197995654Y-79382904D01*
X197995654Y-79192428D01*
X197948035Y-79097190D01*
X197900416Y-79049571D01*
X197805178Y-79001952D01*
X383638214Y-79573380D02*
X383638214Y-78573380D01*
X384209642Y-79573380D02*
X383781071Y-79001952D01*
X384209642Y-78573380D02*
X383638214Y-79144809D01*
X385066785Y-78573380D02*
X384876309Y-78573380D01*
X384781071Y-78621000D01*
X384733452Y-78668619D01*
X384638214Y-78811476D01*
X384590595Y-79001952D01*
X384590595Y-79382904D01*
X384638214Y-79478142D01*
X384685833Y-79525761D01*
X384781071Y-79573380D01*
X384971547Y-79573380D01*
X385066785Y-79525761D01*
X385114404Y-79478142D01*
X385162023Y-79382904D01*
X385162023Y-79144809D01*
X385114404Y-79049571D01*
X385066785Y-79001952D01*
X384971547Y-78954333D01*
X384781071Y-78954333D01*
X384685833Y-79001952D01*
X384638214Y-79049571D01*
X384590595Y-79144809D01*
X385638214Y-79573380D02*
X385828690Y-79573380D01*
X385923928Y-79525761D01*
X385971547Y-79478142D01*
X386066785Y-79335285D01*
X386114404Y-79144809D01*
X386114404Y-78763857D01*
X386066785Y-78668619D01*
X386019166Y-78621000D01*
X385923928Y-78573380D01*
X385733452Y-78573380D01*
X385638214Y-78621000D01*
X385590595Y-78668619D01*
X385542976Y-78763857D01*
X385542976Y-79001952D01*
X385590595Y-79097190D01*
X385638214Y-79144809D01*
X385733452Y-79192428D01*
X385923928Y-79192428D01*
X386019166Y-79144809D01*
X386066785Y-79097190D01*
X386114404Y-79001952D01*
X383638214Y-60523380D02*
X383638214Y-59523380D01*
X384209642Y-60523380D02*
X383781071Y-59951952D01*
X384209642Y-59523380D02*
X383638214Y-60094809D01*
X385066785Y-59523380D02*
X384876309Y-59523380D01*
X384781071Y-59571000D01*
X384733452Y-59618619D01*
X384638214Y-59761476D01*
X384590595Y-59951952D01*
X384590595Y-60332904D01*
X384638214Y-60428142D01*
X384685833Y-60475761D01*
X384781071Y-60523380D01*
X384971547Y-60523380D01*
X385066785Y-60475761D01*
X385114404Y-60428142D01*
X385162023Y-60332904D01*
X385162023Y-60094809D01*
X385114404Y-59999571D01*
X385066785Y-59951952D01*
X384971547Y-59904333D01*
X384781071Y-59904333D01*
X384685833Y-59951952D01*
X384638214Y-59999571D01*
X384590595Y-60094809D01*
X385733452Y-59951952D02*
X385638214Y-59904333D01*
X385590595Y-59856714D01*
X385542976Y-59761476D01*
X385542976Y-59713857D01*
X385590595Y-59618619D01*
X385638214Y-59571000D01*
X385733452Y-59523380D01*
X385923928Y-59523380D01*
X386019166Y-59571000D01*
X386066785Y-59618619D01*
X386114404Y-59713857D01*
X386114404Y-59761476D01*
X386066785Y-59856714D01*
X386019166Y-59904333D01*
X385923928Y-59951952D01*
X385733452Y-59951952D01*
X385638214Y-59999571D01*
X385590595Y-60047190D01*
X385542976Y-60142428D01*
X385542976Y-60332904D01*
X385590595Y-60428142D01*
X385638214Y-60475761D01*
X385733452Y-60523380D01*
X385923928Y-60523380D01*
X386019166Y-60475761D01*
X386066785Y-60428142D01*
X386114404Y-60332904D01*
X386114404Y-60142428D01*
X386066785Y-60047190D01*
X386019166Y-59999571D01*
X385923928Y-59951952D01*
X383638214Y-41473380D02*
X383638214Y-40473380D01*
X384209642Y-41473380D02*
X383781071Y-40901952D01*
X384209642Y-40473380D02*
X383638214Y-41044809D01*
X385066785Y-40473380D02*
X384876309Y-40473380D01*
X384781071Y-40521000D01*
X384733452Y-40568619D01*
X384638214Y-40711476D01*
X384590595Y-40901952D01*
X384590595Y-41282904D01*
X384638214Y-41378142D01*
X384685833Y-41425761D01*
X384781071Y-41473380D01*
X384971547Y-41473380D01*
X385066785Y-41425761D01*
X385114404Y-41378142D01*
X385162023Y-41282904D01*
X385162023Y-41044809D01*
X385114404Y-40949571D01*
X385066785Y-40901952D01*
X384971547Y-40854333D01*
X384781071Y-40854333D01*
X384685833Y-40901952D01*
X384638214Y-40949571D01*
X384590595Y-41044809D01*
X385495357Y-40473380D02*
X386162023Y-40473380D01*
X385733452Y-41473380D01*
X383638214Y-22423380D02*
X383638214Y-21423380D01*
X384209642Y-22423380D02*
X383781071Y-21851952D01*
X384209642Y-21423380D02*
X383638214Y-21994809D01*
X385066785Y-21423380D02*
X384876309Y-21423380D01*
X384781071Y-21471000D01*
X384733452Y-21518619D01*
X384638214Y-21661476D01*
X384590595Y-21851952D01*
X384590595Y-22232904D01*
X384638214Y-22328142D01*
X384685833Y-22375761D01*
X384781071Y-22423380D01*
X384971547Y-22423380D01*
X385066785Y-22375761D01*
X385114404Y-22328142D01*
X385162023Y-22232904D01*
X385162023Y-21994809D01*
X385114404Y-21899571D01*
X385066785Y-21851952D01*
X384971547Y-21804333D01*
X384781071Y-21804333D01*
X384685833Y-21851952D01*
X384638214Y-21899571D01*
X384590595Y-21994809D01*
X386019166Y-21423380D02*
X385828690Y-21423380D01*
X385733452Y-21471000D01*
X385685833Y-21518619D01*
X385590595Y-21661476D01*
X385542976Y-21851952D01*
X385542976Y-22232904D01*
X385590595Y-22328142D01*
X385638214Y-22375761D01*
X385733452Y-22423380D01*
X385923928Y-22423380D01*
X386019166Y-22375761D01*
X386066785Y-22328142D01*
X386114404Y-22232904D01*
X386114404Y-21994809D01*
X386066785Y-21899571D01*
X386019166Y-21851952D01*
X385923928Y-21804333D01*
X385733452Y-21804333D01*
X385638214Y-21851952D01*
X385590595Y-21899571D01*
X385542976Y-21994809D01*
X36451904Y-22423380D02*
X36451904Y-21423380D01*
X37023333Y-22423380D02*
X36594761Y-21851952D01*
X37023333Y-21423380D02*
X36451904Y-21994809D01*
X37642380Y-21423380D02*
X37737619Y-21423380D01*
X37832857Y-21471000D01*
X37880476Y-21518619D01*
X37928095Y-21613857D01*
X37975714Y-21804333D01*
X37975714Y-22042428D01*
X37928095Y-22232904D01*
X37880476Y-22328142D01*
X37832857Y-22375761D01*
X37737619Y-22423380D01*
X37642380Y-22423380D01*
X37547142Y-22375761D01*
X37499523Y-22328142D01*
X37451904Y-22232904D01*
X37404285Y-22042428D01*
X37404285Y-21804333D01*
X37451904Y-21613857D01*
X37499523Y-21518619D01*
X37547142Y-21471000D01*
X37642380Y-21423380D01*
X55501904Y-22423380D02*
X55501904Y-21423380D01*
X56073333Y-22423380D02*
X55644761Y-21851952D01*
X56073333Y-21423380D02*
X55501904Y-21994809D01*
X57025714Y-22423380D02*
X56454285Y-22423380D01*
X56740000Y-22423380D02*
X56740000Y-21423380D01*
X56644761Y-21566238D01*
X56549523Y-21661476D01*
X56454285Y-21709095D01*
X74551904Y-22423380D02*
X74551904Y-21423380D01*
X75123333Y-22423380D02*
X74694761Y-21851952D01*
X75123333Y-21423380D02*
X74551904Y-21994809D01*
X75504285Y-21518619D02*
X75551904Y-21471000D01*
X75647142Y-21423380D01*
X75885238Y-21423380D01*
X75980476Y-21471000D01*
X76028095Y-21518619D01*
X76075714Y-21613857D01*
X76075714Y-21709095D01*
X76028095Y-21851952D01*
X75456666Y-22423380D01*
X76075714Y-22423380D01*
X93601904Y-22423380D02*
X93601904Y-21423380D01*
X94173333Y-22423380D02*
X93744761Y-21851952D01*
X94173333Y-21423380D02*
X93601904Y-21994809D01*
X94506666Y-21423380D02*
X95125714Y-21423380D01*
X94792380Y-21804333D01*
X94935238Y-21804333D01*
X95030476Y-21851952D01*
X95078095Y-21899571D01*
X95125714Y-21994809D01*
X95125714Y-22232904D01*
X95078095Y-22328142D01*
X95030476Y-22375761D01*
X94935238Y-22423380D01*
X94649523Y-22423380D01*
X94554285Y-22375761D01*
X94506666Y-22328142D01*
X136464404Y-22423380D02*
X136464404Y-21423380D01*
X137035833Y-22423380D02*
X136607261Y-21851952D01*
X137035833Y-21423380D02*
X136464404Y-21994809D01*
X137940595Y-21423380D02*
X137464404Y-21423380D01*
X137416785Y-21899571D01*
X137464404Y-21851952D01*
X137559642Y-21804333D01*
X137797738Y-21804333D01*
X137892976Y-21851952D01*
X137940595Y-21899571D01*
X137988214Y-21994809D01*
X137988214Y-22232904D01*
X137940595Y-22328142D01*
X137892976Y-22375761D01*
X137797738Y-22423380D01*
X137559642Y-22423380D01*
X137464404Y-22375761D01*
X137416785Y-22328142D01*
X155514404Y-22423380D02*
X155514404Y-21423380D01*
X156085833Y-22423380D02*
X155657261Y-21851952D01*
X156085833Y-21423380D02*
X155514404Y-21994809D01*
X156942976Y-21423380D02*
X156752500Y-21423380D01*
X156657261Y-21471000D01*
X156609642Y-21518619D01*
X156514404Y-21661476D01*
X156466785Y-21851952D01*
X156466785Y-22232904D01*
X156514404Y-22328142D01*
X156562023Y-22375761D01*
X156657261Y-22423380D01*
X156847738Y-22423380D01*
X156942976Y-22375761D01*
X156990595Y-22328142D01*
X157038214Y-22232904D01*
X157038214Y-21994809D01*
X156990595Y-21899571D01*
X156942976Y-21851952D01*
X156847738Y-21804333D01*
X156657261Y-21804333D01*
X156562023Y-21851952D01*
X156514404Y-21899571D01*
X156466785Y-21994809D01*
X174564404Y-22423380D02*
X174564404Y-21423380D01*
X175135833Y-22423380D02*
X174707261Y-21851952D01*
X175135833Y-21423380D02*
X174564404Y-21994809D01*
X175469166Y-21423380D02*
X176135833Y-21423380D01*
X175707261Y-22423380D01*
X193614404Y-22423380D02*
X193614404Y-21423380D01*
X194185833Y-22423380D02*
X193757261Y-21851952D01*
X194185833Y-21423380D02*
X193614404Y-21994809D01*
X194757261Y-21851952D02*
X194662023Y-21804333D01*
X194614404Y-21756714D01*
X194566785Y-21661476D01*
X194566785Y-21613857D01*
X194614404Y-21518619D01*
X194662023Y-21471000D01*
X194757261Y-21423380D01*
X194947738Y-21423380D01*
X195042976Y-21471000D01*
X195090595Y-21518619D01*
X195138214Y-21613857D01*
X195138214Y-21661476D01*
X195090595Y-21756714D01*
X195042976Y-21804333D01*
X194947738Y-21851952D01*
X194757261Y-21851952D01*
X194662023Y-21899571D01*
X194614404Y-21947190D01*
X194566785Y-22042428D01*
X194566785Y-22232904D01*
X194614404Y-22328142D01*
X194662023Y-22375761D01*
X194757261Y-22423380D01*
X194947738Y-22423380D01*
X195042976Y-22375761D01*
X195090595Y-22328142D01*
X195138214Y-22232904D01*
X195138214Y-22042428D01*
X195090595Y-21947190D01*
X195042976Y-21899571D01*
X194947738Y-21851952D01*
X212664404Y-22423380D02*
X212664404Y-21423380D01*
X213235833Y-22423380D02*
X212807261Y-21851952D01*
X213235833Y-21423380D02*
X212664404Y-21994809D01*
X213712023Y-22423380D02*
X213902500Y-22423380D01*
X213997738Y-22375761D01*
X214045357Y-22328142D01*
X214140595Y-22185285D01*
X214188214Y-21994809D01*
X214188214Y-21613857D01*
X214140595Y-21518619D01*
X214092976Y-21471000D01*
X213997738Y-21423380D01*
X213807261Y-21423380D01*
X213712023Y-21471000D01*
X213664404Y-21518619D01*
X213616785Y-21613857D01*
X213616785Y-21851952D01*
X213664404Y-21947190D01*
X213712023Y-21994809D01*
X213807261Y-22042428D01*
X213997738Y-22042428D01*
X214092976Y-21994809D01*
X214140595Y-21947190D01*
X214188214Y-21851952D01*
X250288214Y-22423380D02*
X250288214Y-21423380D01*
X250859642Y-22423380D02*
X250431071Y-21851952D01*
X250859642Y-21423380D02*
X250288214Y-21994809D01*
X251812023Y-22423380D02*
X251240595Y-22423380D01*
X251526309Y-22423380D02*
X251526309Y-21423380D01*
X251431071Y-21566238D01*
X251335833Y-21661476D01*
X251240595Y-21709095D01*
X252764404Y-22423380D02*
X252192976Y-22423380D01*
X252478690Y-22423380D02*
X252478690Y-21423380D01*
X252383452Y-21566238D01*
X252288214Y-21661476D01*
X252192976Y-21709095D01*
X269338214Y-22423380D02*
X269338214Y-21423380D01*
X269909642Y-22423380D02*
X269481071Y-21851952D01*
X269909642Y-21423380D02*
X269338214Y-21994809D01*
X270862023Y-22423380D02*
X270290595Y-22423380D01*
X270576309Y-22423380D02*
X270576309Y-21423380D01*
X270481071Y-21566238D01*
X270385833Y-21661476D01*
X270290595Y-21709095D01*
X271242976Y-21518619D02*
X271290595Y-21471000D01*
X271385833Y-21423380D01*
X271623928Y-21423380D01*
X271719166Y-21471000D01*
X271766785Y-21518619D01*
X271814404Y-21613857D01*
X271814404Y-21709095D01*
X271766785Y-21851952D01*
X271195357Y-22423380D01*
X271814404Y-22423380D01*
X288388214Y-22423380D02*
X288388214Y-21423380D01*
X288959642Y-22423380D02*
X288531071Y-21851952D01*
X288959642Y-21423380D02*
X288388214Y-21994809D01*
X289912023Y-22423380D02*
X289340595Y-22423380D01*
X289626309Y-22423380D02*
X289626309Y-21423380D01*
X289531071Y-21566238D01*
X289435833Y-21661476D01*
X289340595Y-21709095D01*
X290245357Y-21423380D02*
X290864404Y-21423380D01*
X290531071Y-21804333D01*
X290673928Y-21804333D01*
X290769166Y-21851952D01*
X290816785Y-21899571D01*
X290864404Y-21994809D01*
X290864404Y-22232904D01*
X290816785Y-22328142D01*
X290769166Y-22375761D01*
X290673928Y-22423380D01*
X290388214Y-22423380D01*
X290292976Y-22375761D01*
X290245357Y-22328142D01*
X307438214Y-22423380D02*
X307438214Y-21423380D01*
X308009642Y-22423380D02*
X307581071Y-21851952D01*
X308009642Y-21423380D02*
X307438214Y-21994809D01*
X308962023Y-22423380D02*
X308390595Y-22423380D01*
X308676309Y-22423380D02*
X308676309Y-21423380D01*
X308581071Y-21566238D01*
X308485833Y-21661476D01*
X308390595Y-21709095D01*
X309819166Y-21756714D02*
X309819166Y-22423380D01*
X309581071Y-21375761D02*
X309342976Y-22090047D01*
X309962023Y-22090047D01*
X326488214Y-22423380D02*
X326488214Y-21423380D01*
X327059642Y-22423380D02*
X326631071Y-21851952D01*
X327059642Y-21423380D02*
X326488214Y-21994809D01*
X328012023Y-22423380D02*
X327440595Y-22423380D01*
X327726309Y-22423380D02*
X327726309Y-21423380D01*
X327631071Y-21566238D01*
X327535833Y-21661476D01*
X327440595Y-21709095D01*
X328916785Y-21423380D02*
X328440595Y-21423380D01*
X328392976Y-21899571D01*
X328440595Y-21851952D01*
X328535833Y-21804333D01*
X328773928Y-21804333D01*
X328869166Y-21851952D01*
X328916785Y-21899571D01*
X328964404Y-21994809D01*
X328964404Y-22232904D01*
X328916785Y-22328142D01*
X328869166Y-22375761D01*
X328773928Y-22423380D01*
X328535833Y-22423380D01*
X328440595Y-22375761D01*
X328392976Y-22328142D01*
X345538214Y-22423380D02*
X345538214Y-21423380D01*
X346109642Y-22423380D02*
X345681071Y-21851952D01*
X346109642Y-21423380D02*
X345538214Y-21994809D01*
X347062023Y-22423380D02*
X346490595Y-22423380D01*
X346776309Y-22423380D02*
X346776309Y-21423380D01*
X346681071Y-21566238D01*
X346585833Y-21661476D01*
X346490595Y-21709095D01*
X347919166Y-21423380D02*
X347728690Y-21423380D01*
X347633452Y-21471000D01*
X347585833Y-21518619D01*
X347490595Y-21661476D01*
X347442976Y-21851952D01*
X347442976Y-22232904D01*
X347490595Y-22328142D01*
X347538214Y-22375761D01*
X347633452Y-22423380D01*
X347823928Y-22423380D01*
X347919166Y-22375761D01*
X347966785Y-22328142D01*
X348014404Y-22232904D01*
X348014404Y-21994809D01*
X347966785Y-21899571D01*
X347919166Y-21851952D01*
X347823928Y-21804333D01*
X347633452Y-21804333D01*
X347538214Y-21851952D01*
X347490595Y-21899571D01*
X347442976Y-21994809D01*
X364588214Y-22423380D02*
X364588214Y-21423380D01*
X365159642Y-22423380D02*
X364731071Y-21851952D01*
X365159642Y-21423380D02*
X364588214Y-21994809D01*
X366112023Y-22423380D02*
X365540595Y-22423380D01*
X365826309Y-22423380D02*
X365826309Y-21423380D01*
X365731071Y-21566238D01*
X365635833Y-21661476D01*
X365540595Y-21709095D01*
X366445357Y-21423380D02*
X367112023Y-21423380D01*
X366683452Y-22423380D01*
X35975714Y-41473380D02*
X35975714Y-40473380D01*
X36547142Y-41473380D02*
X36118571Y-40901952D01*
X36547142Y-40473380D02*
X35975714Y-41044809D01*
X37499523Y-41473380D02*
X36928095Y-41473380D01*
X37213809Y-41473380D02*
X37213809Y-40473380D01*
X37118571Y-40616238D01*
X37023333Y-40711476D01*
X36928095Y-40759095D01*
X38070952Y-40901952D02*
X37975714Y-40854333D01*
X37928095Y-40806714D01*
X37880476Y-40711476D01*
X37880476Y-40663857D01*
X37928095Y-40568619D01*
X37975714Y-40521000D01*
X38070952Y-40473380D01*
X38261428Y-40473380D01*
X38356666Y-40521000D01*
X38404285Y-40568619D01*
X38451904Y-40663857D01*
X38451904Y-40711476D01*
X38404285Y-40806714D01*
X38356666Y-40854333D01*
X38261428Y-40901952D01*
X38070952Y-40901952D01*
X37975714Y-40949571D01*
X37928095Y-40997190D01*
X37880476Y-41092428D01*
X37880476Y-41282904D01*
X37928095Y-41378142D01*
X37975714Y-41425761D01*
X38070952Y-41473380D01*
X38261428Y-41473380D01*
X38356666Y-41425761D01*
X38404285Y-41378142D01*
X38451904Y-41282904D01*
X38451904Y-41092428D01*
X38404285Y-40997190D01*
X38356666Y-40949571D01*
X38261428Y-40901952D01*
X55025714Y-41473380D02*
X55025714Y-40473380D01*
X55597142Y-41473380D02*
X55168571Y-40901952D01*
X55597142Y-40473380D02*
X55025714Y-41044809D01*
X56549523Y-41473380D02*
X55978095Y-41473380D01*
X56263809Y-41473380D02*
X56263809Y-40473380D01*
X56168571Y-40616238D01*
X56073333Y-40711476D01*
X55978095Y-40759095D01*
X57025714Y-41473380D02*
X57216190Y-41473380D01*
X57311428Y-41425761D01*
X57359047Y-41378142D01*
X57454285Y-41235285D01*
X57501904Y-41044809D01*
X57501904Y-40663857D01*
X57454285Y-40568619D01*
X57406666Y-40521000D01*
X57311428Y-40473380D01*
X57120952Y-40473380D01*
X57025714Y-40521000D01*
X56978095Y-40568619D01*
X56930476Y-40663857D01*
X56930476Y-40901952D01*
X56978095Y-40997190D01*
X57025714Y-41044809D01*
X57120952Y-41092428D01*
X57311428Y-41092428D01*
X57406666Y-41044809D01*
X57454285Y-40997190D01*
X57501904Y-40901952D01*
X74075714Y-41473380D02*
X74075714Y-40473380D01*
X74647142Y-41473380D02*
X74218571Y-40901952D01*
X74647142Y-40473380D02*
X74075714Y-41044809D01*
X75028095Y-40568619D02*
X75075714Y-40521000D01*
X75170952Y-40473380D01*
X75409047Y-40473380D01*
X75504285Y-40521000D01*
X75551904Y-40568619D01*
X75599523Y-40663857D01*
X75599523Y-40759095D01*
X75551904Y-40901952D01*
X74980476Y-41473380D01*
X75599523Y-41473380D01*
X76218571Y-40473380D02*
X76313809Y-40473380D01*
X76409047Y-40521000D01*
X76456666Y-40568619D01*
X76504285Y-40663857D01*
X76551904Y-40854333D01*
X76551904Y-41092428D01*
X76504285Y-41282904D01*
X76456666Y-41378142D01*
X76409047Y-41425761D01*
X76313809Y-41473380D01*
X76218571Y-41473380D01*
X76123333Y-41425761D01*
X76075714Y-41378142D01*
X76028095Y-41282904D01*
X75980476Y-41092428D01*
X75980476Y-40854333D01*
X76028095Y-40663857D01*
X76075714Y-40568619D01*
X76123333Y-40521000D01*
X76218571Y-40473380D01*
X93125714Y-41473380D02*
X93125714Y-40473380D01*
X93697142Y-41473380D02*
X93268571Y-40901952D01*
X93697142Y-40473380D02*
X93125714Y-41044809D01*
X94078095Y-40568619D02*
X94125714Y-40521000D01*
X94220952Y-40473380D01*
X94459047Y-40473380D01*
X94554285Y-40521000D01*
X94601904Y-40568619D01*
X94649523Y-40663857D01*
X94649523Y-40759095D01*
X94601904Y-40901952D01*
X94030476Y-41473380D01*
X94649523Y-41473380D01*
X95601904Y-41473380D02*
X95030476Y-41473380D01*
X95316190Y-41473380D02*
X95316190Y-40473380D01*
X95220952Y-40616238D01*
X95125714Y-40711476D01*
X95030476Y-40759095D01*
X140750714Y-41473380D02*
X140750714Y-40473380D01*
X141322142Y-41473380D02*
X140893571Y-40901952D01*
X141322142Y-40473380D02*
X140750714Y-41044809D01*
X141703095Y-40568619D02*
X141750714Y-40521000D01*
X141845952Y-40473380D01*
X142084047Y-40473380D01*
X142179285Y-40521000D01*
X142226904Y-40568619D01*
X142274523Y-40663857D01*
X142274523Y-40759095D01*
X142226904Y-40901952D01*
X141655476Y-41473380D01*
X142274523Y-41473380D01*
X142607857Y-40473380D02*
X143226904Y-40473380D01*
X142893571Y-40854333D01*
X143036428Y-40854333D01*
X143131666Y-40901952D01*
X143179285Y-40949571D01*
X143226904Y-41044809D01*
X143226904Y-41282904D01*
X143179285Y-41378142D01*
X143131666Y-41425761D01*
X143036428Y-41473380D01*
X142750714Y-41473380D01*
X142655476Y-41425761D01*
X142607857Y-41378142D01*
X159800714Y-41473380D02*
X159800714Y-40473380D01*
X160372142Y-41473380D02*
X159943571Y-40901952D01*
X160372142Y-40473380D02*
X159800714Y-41044809D01*
X160753095Y-40568619D02*
X160800714Y-40521000D01*
X160895952Y-40473380D01*
X161134047Y-40473380D01*
X161229285Y-40521000D01*
X161276904Y-40568619D01*
X161324523Y-40663857D01*
X161324523Y-40759095D01*
X161276904Y-40901952D01*
X160705476Y-41473380D01*
X161324523Y-41473380D01*
X162181666Y-40806714D02*
X162181666Y-41473380D01*
X161943571Y-40425761D02*
X161705476Y-41140047D01*
X162324523Y-41140047D01*
X178850714Y-41473380D02*
X178850714Y-40473380D01*
X179422142Y-41473380D02*
X178993571Y-40901952D01*
X179422142Y-40473380D02*
X178850714Y-41044809D01*
X179803095Y-40568619D02*
X179850714Y-40521000D01*
X179945952Y-40473380D01*
X180184047Y-40473380D01*
X180279285Y-40521000D01*
X180326904Y-40568619D01*
X180374523Y-40663857D01*
X180374523Y-40759095D01*
X180326904Y-40901952D01*
X179755476Y-41473380D01*
X180374523Y-41473380D01*
X181279285Y-40473380D02*
X180803095Y-40473380D01*
X180755476Y-40949571D01*
X180803095Y-40901952D01*
X180898333Y-40854333D01*
X181136428Y-40854333D01*
X181231666Y-40901952D01*
X181279285Y-40949571D01*
X181326904Y-41044809D01*
X181326904Y-41282904D01*
X181279285Y-41378142D01*
X181231666Y-41425761D01*
X181136428Y-41473380D01*
X180898333Y-41473380D01*
X180803095Y-41425761D01*
X180755476Y-41378142D01*
X197900714Y-41473380D02*
X197900714Y-40473380D01*
X198472142Y-41473380D02*
X198043571Y-40901952D01*
X198472142Y-40473380D02*
X197900714Y-41044809D01*
X198853095Y-40568619D02*
X198900714Y-40521000D01*
X198995952Y-40473380D01*
X199234047Y-40473380D01*
X199329285Y-40521000D01*
X199376904Y-40568619D01*
X199424523Y-40663857D01*
X199424523Y-40759095D01*
X199376904Y-40901952D01*
X198805476Y-41473380D01*
X199424523Y-41473380D01*
X200281666Y-40473380D02*
X200091190Y-40473380D01*
X199995952Y-40521000D01*
X199948333Y-40568619D01*
X199853095Y-40711476D01*
X199805476Y-40901952D01*
X199805476Y-41282904D01*
X199853095Y-41378142D01*
X199900714Y-41425761D01*
X199995952Y-41473380D01*
X200186428Y-41473380D01*
X200281666Y-41425761D01*
X200329285Y-41378142D01*
X200376904Y-41282904D01*
X200376904Y-41044809D01*
X200329285Y-40949571D01*
X200281666Y-40901952D01*
X200186428Y-40854333D01*
X199995952Y-40854333D01*
X199900714Y-40901952D01*
X199853095Y-40949571D01*
X199805476Y-41044809D01*
X216950714Y-41473380D02*
X216950714Y-40473380D01*
X217522142Y-41473380D02*
X217093571Y-40901952D01*
X217522142Y-40473380D02*
X216950714Y-41044809D01*
X217903095Y-40568619D02*
X217950714Y-40521000D01*
X218045952Y-40473380D01*
X218284047Y-40473380D01*
X218379285Y-40521000D01*
X218426904Y-40568619D01*
X218474523Y-40663857D01*
X218474523Y-40759095D01*
X218426904Y-40901952D01*
X217855476Y-41473380D01*
X218474523Y-41473380D01*
X218807857Y-40473380D02*
X219474523Y-40473380D01*
X219045952Y-41473380D01*
X236000714Y-41473380D02*
X236000714Y-40473380D01*
X236572142Y-41473380D02*
X236143571Y-40901952D01*
X236572142Y-40473380D02*
X236000714Y-41044809D01*
X236953095Y-40568619D02*
X237000714Y-40521000D01*
X237095952Y-40473380D01*
X237334047Y-40473380D01*
X237429285Y-40521000D01*
X237476904Y-40568619D01*
X237524523Y-40663857D01*
X237524523Y-40759095D01*
X237476904Y-40901952D01*
X236905476Y-41473380D01*
X237524523Y-41473380D01*
X238095952Y-40901952D02*
X238000714Y-40854333D01*
X237953095Y-40806714D01*
X237905476Y-40711476D01*
X237905476Y-40663857D01*
X237953095Y-40568619D01*
X238000714Y-40521000D01*
X238095952Y-40473380D01*
X238286428Y-40473380D01*
X238381666Y-40521000D01*
X238429285Y-40568619D01*
X238476904Y-40663857D01*
X238476904Y-40711476D01*
X238429285Y-40806714D01*
X238381666Y-40854333D01*
X238286428Y-40901952D01*
X238095952Y-40901952D01*
X238000714Y-40949571D01*
X237953095Y-40997190D01*
X237905476Y-41092428D01*
X237905476Y-41282904D01*
X237953095Y-41378142D01*
X238000714Y-41425761D01*
X238095952Y-41473380D01*
X238286428Y-41473380D01*
X238381666Y-41425761D01*
X238429285Y-41378142D01*
X238476904Y-41282904D01*
X238476904Y-41092428D01*
X238429285Y-40997190D01*
X238381666Y-40949571D01*
X238286428Y-40901952D01*
X255050714Y-41473380D02*
X255050714Y-40473380D01*
X255622142Y-41473380D02*
X255193571Y-40901952D01*
X255622142Y-40473380D02*
X255050714Y-41044809D01*
X256003095Y-40568619D02*
X256050714Y-40521000D01*
X256145952Y-40473380D01*
X256384047Y-40473380D01*
X256479285Y-40521000D01*
X256526904Y-40568619D01*
X256574523Y-40663857D01*
X256574523Y-40759095D01*
X256526904Y-40901952D01*
X255955476Y-41473380D01*
X256574523Y-41473380D01*
X257050714Y-41473380D02*
X257241190Y-41473380D01*
X257336428Y-41425761D01*
X257384047Y-41378142D01*
X257479285Y-41235285D01*
X257526904Y-41044809D01*
X257526904Y-40663857D01*
X257479285Y-40568619D01*
X257431666Y-40521000D01*
X257336428Y-40473380D01*
X257145952Y-40473380D01*
X257050714Y-40521000D01*
X257003095Y-40568619D01*
X256955476Y-40663857D01*
X256955476Y-40901952D01*
X257003095Y-40997190D01*
X257050714Y-41044809D01*
X257145952Y-41092428D01*
X257336428Y-41092428D01*
X257431666Y-41044809D01*
X257479285Y-40997190D01*
X257526904Y-40901952D01*
X274100714Y-41473380D02*
X274100714Y-40473380D01*
X274672142Y-41473380D02*
X274243571Y-40901952D01*
X274672142Y-40473380D02*
X274100714Y-41044809D01*
X275005476Y-40473380D02*
X275624523Y-40473380D01*
X275291190Y-40854333D01*
X275434047Y-40854333D01*
X275529285Y-40901952D01*
X275576904Y-40949571D01*
X275624523Y-41044809D01*
X275624523Y-41282904D01*
X275576904Y-41378142D01*
X275529285Y-41425761D01*
X275434047Y-41473380D01*
X275148333Y-41473380D01*
X275053095Y-41425761D01*
X275005476Y-41378142D01*
X276243571Y-40473380D02*
X276338809Y-40473380D01*
X276434047Y-40521000D01*
X276481666Y-40568619D01*
X276529285Y-40663857D01*
X276576904Y-40854333D01*
X276576904Y-41092428D01*
X276529285Y-41282904D01*
X276481666Y-41378142D01*
X276434047Y-41425761D01*
X276338809Y-41473380D01*
X276243571Y-41473380D01*
X276148333Y-41425761D01*
X276100714Y-41378142D01*
X276053095Y-41282904D01*
X276005476Y-41092428D01*
X276005476Y-40854333D01*
X276053095Y-40663857D01*
X276100714Y-40568619D01*
X276148333Y-40521000D01*
X276243571Y-40473380D01*
X312200714Y-41473380D02*
X312200714Y-40473380D01*
X312772142Y-41473380D02*
X312343571Y-40901952D01*
X312772142Y-40473380D02*
X312200714Y-41044809D01*
X313105476Y-40473380D02*
X313724523Y-40473380D01*
X313391190Y-40854333D01*
X313534047Y-40854333D01*
X313629285Y-40901952D01*
X313676904Y-40949571D01*
X313724523Y-41044809D01*
X313724523Y-41282904D01*
X313676904Y-41378142D01*
X313629285Y-41425761D01*
X313534047Y-41473380D01*
X313248333Y-41473380D01*
X313153095Y-41425761D01*
X313105476Y-41378142D01*
X314105476Y-40568619D02*
X314153095Y-40521000D01*
X314248333Y-40473380D01*
X314486428Y-40473380D01*
X314581666Y-40521000D01*
X314629285Y-40568619D01*
X314676904Y-40663857D01*
X314676904Y-40759095D01*
X314629285Y-40901952D01*
X314057857Y-41473380D01*
X314676904Y-41473380D01*
X331250714Y-41473380D02*
X331250714Y-40473380D01*
X331822142Y-41473380D02*
X331393571Y-40901952D01*
X331822142Y-40473380D02*
X331250714Y-41044809D01*
X332155476Y-40473380D02*
X332774523Y-40473380D01*
X332441190Y-40854333D01*
X332584047Y-40854333D01*
X332679285Y-40901952D01*
X332726904Y-40949571D01*
X332774523Y-41044809D01*
X332774523Y-41282904D01*
X332726904Y-41378142D01*
X332679285Y-41425761D01*
X332584047Y-41473380D01*
X332298333Y-41473380D01*
X332203095Y-41425761D01*
X332155476Y-41378142D01*
X333107857Y-40473380D02*
X333726904Y-40473380D01*
X333393571Y-40854333D01*
X333536428Y-40854333D01*
X333631666Y-40901952D01*
X333679285Y-40949571D01*
X333726904Y-41044809D01*
X333726904Y-41282904D01*
X333679285Y-41378142D01*
X333631666Y-41425761D01*
X333536428Y-41473380D01*
X333250714Y-41473380D01*
X333155476Y-41425761D01*
X333107857Y-41378142D01*
X357444464Y-41473380D02*
X357444464Y-40473380D01*
X358015892Y-41473380D02*
X357587321Y-40901952D01*
X358015892Y-40473380D02*
X357444464Y-41044809D01*
X358349226Y-40473380D02*
X358968273Y-40473380D01*
X358634940Y-40854333D01*
X358777797Y-40854333D01*
X358873035Y-40901952D01*
X358920654Y-40949571D01*
X358968273Y-41044809D01*
X358968273Y-41282904D01*
X358920654Y-41378142D01*
X358873035Y-41425761D01*
X358777797Y-41473380D01*
X358492083Y-41473380D01*
X358396845Y-41425761D01*
X358349226Y-41378142D01*
X359825416Y-40806714D02*
X359825416Y-41473380D01*
X359587321Y-40425761D02*
X359349226Y-41140047D01*
X359968273Y-41140047D01*
X35975714Y-60523380D02*
X35975714Y-59523380D01*
X36547142Y-60523380D02*
X36118571Y-59951952D01*
X36547142Y-59523380D02*
X35975714Y-60094809D01*
X36880476Y-59523380D02*
X37499523Y-59523380D01*
X37166190Y-59904333D01*
X37309047Y-59904333D01*
X37404285Y-59951952D01*
X37451904Y-59999571D01*
X37499523Y-60094809D01*
X37499523Y-60332904D01*
X37451904Y-60428142D01*
X37404285Y-60475761D01*
X37309047Y-60523380D01*
X37023333Y-60523380D01*
X36928095Y-60475761D01*
X36880476Y-60428142D01*
X38404285Y-59523380D02*
X37928095Y-59523380D01*
X37880476Y-59999571D01*
X37928095Y-59951952D01*
X38023333Y-59904333D01*
X38261428Y-59904333D01*
X38356666Y-59951952D01*
X38404285Y-59999571D01*
X38451904Y-60094809D01*
X38451904Y-60332904D01*
X38404285Y-60428142D01*
X38356666Y-60475761D01*
X38261428Y-60523380D01*
X38023333Y-60523380D01*
X37928095Y-60475761D01*
X37880476Y-60428142D01*
X55025714Y-60523380D02*
X55025714Y-59523380D01*
X55597142Y-60523380D02*
X55168571Y-59951952D01*
X55597142Y-59523380D02*
X55025714Y-60094809D01*
X55930476Y-59523380D02*
X56549523Y-59523380D01*
X56216190Y-59904333D01*
X56359047Y-59904333D01*
X56454285Y-59951952D01*
X56501904Y-59999571D01*
X56549523Y-60094809D01*
X56549523Y-60332904D01*
X56501904Y-60428142D01*
X56454285Y-60475761D01*
X56359047Y-60523380D01*
X56073333Y-60523380D01*
X55978095Y-60475761D01*
X55930476Y-60428142D01*
X57406666Y-59523380D02*
X57216190Y-59523380D01*
X57120952Y-59571000D01*
X57073333Y-59618619D01*
X56978095Y-59761476D01*
X56930476Y-59951952D01*
X56930476Y-60332904D01*
X56978095Y-60428142D01*
X57025714Y-60475761D01*
X57120952Y-60523380D01*
X57311428Y-60523380D01*
X57406666Y-60475761D01*
X57454285Y-60428142D01*
X57501904Y-60332904D01*
X57501904Y-60094809D01*
X57454285Y-59999571D01*
X57406666Y-59951952D01*
X57311428Y-59904333D01*
X57120952Y-59904333D01*
X57025714Y-59951952D01*
X56978095Y-59999571D01*
X56930476Y-60094809D01*
X74075714Y-60523380D02*
X74075714Y-59523380D01*
X74647142Y-60523380D02*
X74218571Y-59951952D01*
X74647142Y-59523380D02*
X74075714Y-60094809D01*
X74980476Y-59523380D02*
X75599523Y-59523380D01*
X75266190Y-59904333D01*
X75409047Y-59904333D01*
X75504285Y-59951952D01*
X75551904Y-59999571D01*
X75599523Y-60094809D01*
X75599523Y-60332904D01*
X75551904Y-60428142D01*
X75504285Y-60475761D01*
X75409047Y-60523380D01*
X75123333Y-60523380D01*
X75028095Y-60475761D01*
X74980476Y-60428142D01*
X75932857Y-59523380D02*
X76599523Y-59523380D01*
X76170952Y-60523380D01*
X93125714Y-60523380D02*
X93125714Y-59523380D01*
X93697142Y-60523380D02*
X93268571Y-59951952D01*
X93697142Y-59523380D02*
X93125714Y-60094809D01*
X94030476Y-59523380D02*
X94649523Y-59523380D01*
X94316190Y-59904333D01*
X94459047Y-59904333D01*
X94554285Y-59951952D01*
X94601904Y-59999571D01*
X94649523Y-60094809D01*
X94649523Y-60332904D01*
X94601904Y-60428142D01*
X94554285Y-60475761D01*
X94459047Y-60523380D01*
X94173333Y-60523380D01*
X94078095Y-60475761D01*
X94030476Y-60428142D01*
X95220952Y-59951952D02*
X95125714Y-59904333D01*
X95078095Y-59856714D01*
X95030476Y-59761476D01*
X95030476Y-59713857D01*
X95078095Y-59618619D01*
X95125714Y-59571000D01*
X95220952Y-59523380D01*
X95411428Y-59523380D01*
X95506666Y-59571000D01*
X95554285Y-59618619D01*
X95601904Y-59713857D01*
X95601904Y-59761476D01*
X95554285Y-59856714D01*
X95506666Y-59904333D01*
X95411428Y-59951952D01*
X95220952Y-59951952D01*
X95125714Y-59999571D01*
X95078095Y-60047190D01*
X95030476Y-60142428D01*
X95030476Y-60332904D01*
X95078095Y-60428142D01*
X95125714Y-60475761D01*
X95220952Y-60523380D01*
X95411428Y-60523380D01*
X95506666Y-60475761D01*
X95554285Y-60428142D01*
X95601904Y-60332904D01*
X95601904Y-60142428D01*
X95554285Y-60047190D01*
X95506666Y-59999571D01*
X95411428Y-59951952D01*
X150275714Y-60523380D02*
X150275714Y-59523380D01*
X150847142Y-60523380D02*
X150418571Y-59951952D01*
X150847142Y-59523380D02*
X150275714Y-60094809D01*
X151704285Y-59856714D02*
X151704285Y-60523380D01*
X151466190Y-59475761D02*
X151228095Y-60190047D01*
X151847142Y-60190047D01*
X152418571Y-59523380D02*
X152513809Y-59523380D01*
X152609047Y-59571000D01*
X152656666Y-59618619D01*
X152704285Y-59713857D01*
X152751904Y-59904333D01*
X152751904Y-60142428D01*
X152704285Y-60332904D01*
X152656666Y-60428142D01*
X152609047Y-60475761D01*
X152513809Y-60523380D01*
X152418571Y-60523380D01*
X152323333Y-60475761D01*
X152275714Y-60428142D01*
X152228095Y-60332904D01*
X152180476Y-60142428D01*
X152180476Y-59904333D01*
X152228095Y-59713857D01*
X152275714Y-59618619D01*
X152323333Y-59571000D01*
X152418571Y-59523380D01*
X169325714Y-60523380D02*
X169325714Y-59523380D01*
X169897142Y-60523380D02*
X169468571Y-59951952D01*
X169897142Y-59523380D02*
X169325714Y-60094809D01*
X170754285Y-59856714D02*
X170754285Y-60523380D01*
X170516190Y-59475761D02*
X170278095Y-60190047D01*
X170897142Y-60190047D01*
X171801904Y-60523380D02*
X171230476Y-60523380D01*
X171516190Y-60523380D02*
X171516190Y-59523380D01*
X171420952Y-59666238D01*
X171325714Y-59761476D01*
X171230476Y-59809095D01*
X188375714Y-60523380D02*
X188375714Y-59523380D01*
X188947142Y-60523380D02*
X188518571Y-59951952D01*
X188947142Y-59523380D02*
X188375714Y-60094809D01*
X189804285Y-59856714D02*
X189804285Y-60523380D01*
X189566190Y-59475761D02*
X189328095Y-60190047D01*
X189947142Y-60190047D01*
X190280476Y-59618619D02*
X190328095Y-59571000D01*
X190423333Y-59523380D01*
X190661428Y-59523380D01*
X190756666Y-59571000D01*
X190804285Y-59618619D01*
X190851904Y-59713857D01*
X190851904Y-59809095D01*
X190804285Y-59951952D01*
X190232857Y-60523380D01*
X190851904Y-60523380D01*
X207425714Y-60523380D02*
X207425714Y-59523380D01*
X207997142Y-60523380D02*
X207568571Y-59951952D01*
X207997142Y-59523380D02*
X207425714Y-60094809D01*
X208854285Y-59856714D02*
X208854285Y-60523380D01*
X208616190Y-59475761D02*
X208378095Y-60190047D01*
X208997142Y-60190047D01*
X209282857Y-59523380D02*
X209901904Y-59523380D01*
X209568571Y-59904333D01*
X209711428Y-59904333D01*
X209806666Y-59951952D01*
X209854285Y-59999571D01*
X209901904Y-60094809D01*
X209901904Y-60332904D01*
X209854285Y-60428142D01*
X209806666Y-60475761D01*
X209711428Y-60523380D01*
X209425714Y-60523380D01*
X209330476Y-60475761D01*
X209282857Y-60428142D01*
X226475714Y-60523380D02*
X226475714Y-59523380D01*
X227047142Y-60523380D02*
X226618571Y-59951952D01*
X227047142Y-59523380D02*
X226475714Y-60094809D01*
X227904285Y-59856714D02*
X227904285Y-60523380D01*
X227666190Y-59475761D02*
X227428095Y-60190047D01*
X228047142Y-60190047D01*
X228856666Y-59856714D02*
X228856666Y-60523380D01*
X228618571Y-59475761D02*
X228380476Y-60190047D01*
X228999523Y-60190047D01*
X245525714Y-60523380D02*
X245525714Y-59523380D01*
X246097142Y-60523380D02*
X245668571Y-59951952D01*
X246097142Y-59523380D02*
X245525714Y-60094809D01*
X246954285Y-59856714D02*
X246954285Y-60523380D01*
X246716190Y-59475761D02*
X246478095Y-60190047D01*
X247097142Y-60190047D01*
X247954285Y-59523380D02*
X247478095Y-59523380D01*
X247430476Y-59999571D01*
X247478095Y-59951952D01*
X247573333Y-59904333D01*
X247811428Y-59904333D01*
X247906666Y-59951952D01*
X247954285Y-59999571D01*
X248001904Y-60094809D01*
X248001904Y-60332904D01*
X247954285Y-60428142D01*
X247906666Y-60475761D01*
X247811428Y-60523380D01*
X247573333Y-60523380D01*
X247478095Y-60475761D01*
X247430476Y-60428142D01*
X264575714Y-60523380D02*
X264575714Y-59523380D01*
X265147142Y-60523380D02*
X264718571Y-59951952D01*
X265147142Y-59523380D02*
X264575714Y-60094809D01*
X266004285Y-59856714D02*
X266004285Y-60523380D01*
X265766190Y-59475761D02*
X265528095Y-60190047D01*
X266147142Y-60190047D01*
X266956666Y-59523380D02*
X266766190Y-59523380D01*
X266670952Y-59571000D01*
X266623333Y-59618619D01*
X266528095Y-59761476D01*
X266480476Y-59951952D01*
X266480476Y-60332904D01*
X266528095Y-60428142D01*
X266575714Y-60475761D01*
X266670952Y-60523380D01*
X266861428Y-60523380D01*
X266956666Y-60475761D01*
X267004285Y-60428142D01*
X267051904Y-60332904D01*
X267051904Y-60094809D01*
X267004285Y-59999571D01*
X266956666Y-59951952D01*
X266861428Y-59904333D01*
X266670952Y-59904333D01*
X266575714Y-59951952D01*
X266528095Y-59999571D01*
X266480476Y-60094809D01*
X283625714Y-60523380D02*
X283625714Y-59523380D01*
X284197142Y-60523380D02*
X283768571Y-59951952D01*
X284197142Y-59523380D02*
X283625714Y-60094809D01*
X285054285Y-59856714D02*
X285054285Y-60523380D01*
X284816190Y-59475761D02*
X284578095Y-60190047D01*
X285197142Y-60190047D01*
X285482857Y-59523380D02*
X286149523Y-59523380D01*
X285720952Y-60523380D01*
X302675714Y-60523380D02*
X302675714Y-59523380D01*
X303247142Y-60523380D02*
X302818571Y-59951952D01*
X303247142Y-59523380D02*
X302675714Y-60094809D01*
X304104285Y-59856714D02*
X304104285Y-60523380D01*
X303866190Y-59475761D02*
X303628095Y-60190047D01*
X304247142Y-60190047D01*
X304770952Y-59951952D02*
X304675714Y-59904333D01*
X304628095Y-59856714D01*
X304580476Y-59761476D01*
X304580476Y-59713857D01*
X304628095Y-59618619D01*
X304675714Y-59571000D01*
X304770952Y-59523380D01*
X304961428Y-59523380D01*
X305056666Y-59571000D01*
X305104285Y-59618619D01*
X305151904Y-59713857D01*
X305151904Y-59761476D01*
X305104285Y-59856714D01*
X305056666Y-59904333D01*
X304961428Y-59951952D01*
X304770952Y-59951952D01*
X304675714Y-59999571D01*
X304628095Y-60047190D01*
X304580476Y-60142428D01*
X304580476Y-60332904D01*
X304628095Y-60428142D01*
X304675714Y-60475761D01*
X304770952Y-60523380D01*
X304961428Y-60523380D01*
X305056666Y-60475761D01*
X305104285Y-60428142D01*
X305151904Y-60332904D01*
X305151904Y-60142428D01*
X305104285Y-60047190D01*
X305056666Y-59999571D01*
X304961428Y-59951952D01*
X321725714Y-60523380D02*
X321725714Y-59523380D01*
X322297142Y-60523380D02*
X321868571Y-59951952D01*
X322297142Y-59523380D02*
X321725714Y-60094809D01*
X323154285Y-59856714D02*
X323154285Y-60523380D01*
X322916190Y-59475761D02*
X322678095Y-60190047D01*
X323297142Y-60190047D01*
X323725714Y-60523380D02*
X323916190Y-60523380D01*
X324011428Y-60475761D01*
X324059047Y-60428142D01*
X324154285Y-60285285D01*
X324201904Y-60094809D01*
X324201904Y-59713857D01*
X324154285Y-59618619D01*
X324106666Y-59571000D01*
X324011428Y-59523380D01*
X323820952Y-59523380D01*
X323725714Y-59571000D01*
X323678095Y-59618619D01*
X323630476Y-59713857D01*
X323630476Y-59951952D01*
X323678095Y-60047190D01*
X323725714Y-60094809D01*
X323820952Y-60142428D01*
X324011428Y-60142428D01*
X324106666Y-60094809D01*
X324154285Y-60047190D01*
X324201904Y-59951952D01*
X343156964Y-60523380D02*
X343156964Y-59523380D01*
X343728392Y-60523380D02*
X343299821Y-59951952D01*
X343728392Y-59523380D02*
X343156964Y-60094809D01*
X344633154Y-59523380D02*
X344156964Y-59523380D01*
X344109345Y-59999571D01*
X344156964Y-59951952D01*
X344252202Y-59904333D01*
X344490297Y-59904333D01*
X344585535Y-59951952D01*
X344633154Y-59999571D01*
X344680773Y-60094809D01*
X344680773Y-60332904D01*
X344633154Y-60428142D01*
X344585535Y-60475761D01*
X344490297Y-60523380D01*
X344252202Y-60523380D01*
X344156964Y-60475761D01*
X344109345Y-60428142D01*
X345299821Y-59523380D02*
X345395059Y-59523380D01*
X345490297Y-59571000D01*
X345537916Y-59618619D01*
X345585535Y-59713857D01*
X345633154Y-59904333D01*
X345633154Y-60142428D01*
X345585535Y-60332904D01*
X345537916Y-60428142D01*
X345490297Y-60475761D01*
X345395059Y-60523380D01*
X345299821Y-60523380D01*
X345204583Y-60475761D01*
X345156964Y-60428142D01*
X345109345Y-60332904D01*
X345061726Y-60142428D01*
X345061726Y-59904333D01*
X345109345Y-59713857D01*
X345156964Y-59618619D01*
X345204583Y-59571000D01*
X345299821Y-59523380D01*
X364588214Y-60523380D02*
X364588214Y-59523380D01*
X365159642Y-60523380D02*
X364731071Y-59951952D01*
X365159642Y-59523380D02*
X364588214Y-60094809D01*
X366064404Y-59523380D02*
X365588214Y-59523380D01*
X365540595Y-59999571D01*
X365588214Y-59951952D01*
X365683452Y-59904333D01*
X365921547Y-59904333D01*
X366016785Y-59951952D01*
X366064404Y-59999571D01*
X366112023Y-60094809D01*
X366112023Y-60332904D01*
X366064404Y-60428142D01*
X366016785Y-60475761D01*
X365921547Y-60523380D01*
X365683452Y-60523380D01*
X365588214Y-60475761D01*
X365540595Y-60428142D01*
X367064404Y-60523380D02*
X366492976Y-60523380D01*
X366778690Y-60523380D02*
X366778690Y-59523380D01*
X366683452Y-59666238D01*
X366588214Y-59761476D01*
X366492976Y-59809095D01*
X45500714Y-79573380D02*
X45500714Y-78573380D01*
X46072142Y-79573380D02*
X45643571Y-79001952D01*
X46072142Y-78573380D02*
X45500714Y-79144809D01*
X46976904Y-78573380D02*
X46500714Y-78573380D01*
X46453095Y-79049571D01*
X46500714Y-79001952D01*
X46595952Y-78954333D01*
X46834047Y-78954333D01*
X46929285Y-79001952D01*
X46976904Y-79049571D01*
X47024523Y-79144809D01*
X47024523Y-79382904D01*
X46976904Y-79478142D01*
X46929285Y-79525761D01*
X46834047Y-79573380D01*
X46595952Y-79573380D01*
X46500714Y-79525761D01*
X46453095Y-79478142D01*
X47405476Y-78668619D02*
X47453095Y-78621000D01*
X47548333Y-78573380D01*
X47786428Y-78573380D01*
X47881666Y-78621000D01*
X47929285Y-78668619D01*
X47976904Y-78763857D01*
X47976904Y-78859095D01*
X47929285Y-79001952D01*
X47357857Y-79573380D01*
X47976904Y-79573380D01*
X74075714Y-79573380D02*
X74075714Y-78573380D01*
X74647142Y-79573380D02*
X74218571Y-79001952D01*
X74647142Y-78573380D02*
X74075714Y-79144809D01*
X75551904Y-78573380D02*
X75075714Y-78573380D01*
X75028095Y-79049571D01*
X75075714Y-79001952D01*
X75170952Y-78954333D01*
X75409047Y-78954333D01*
X75504285Y-79001952D01*
X75551904Y-79049571D01*
X75599523Y-79144809D01*
X75599523Y-79382904D01*
X75551904Y-79478142D01*
X75504285Y-79525761D01*
X75409047Y-79573380D01*
X75170952Y-79573380D01*
X75075714Y-79525761D01*
X75028095Y-79478142D01*
X75932857Y-78573380D02*
X76551904Y-78573380D01*
X76218571Y-78954333D01*
X76361428Y-78954333D01*
X76456666Y-79001952D01*
X76504285Y-79049571D01*
X76551904Y-79144809D01*
X76551904Y-79382904D01*
X76504285Y-79478142D01*
X76456666Y-79525761D01*
X76361428Y-79573380D01*
X76075714Y-79573380D01*
X75980476Y-79525761D01*
X75932857Y-79478142D01*
X93125714Y-79573380D02*
X93125714Y-78573380D01*
X93697142Y-79573380D02*
X93268571Y-79001952D01*
X93697142Y-78573380D02*
X93125714Y-79144809D01*
X94601904Y-78573380D02*
X94125714Y-78573380D01*
X94078095Y-79049571D01*
X94125714Y-79001952D01*
X94220952Y-78954333D01*
X94459047Y-78954333D01*
X94554285Y-79001952D01*
X94601904Y-79049571D01*
X94649523Y-79144809D01*
X94649523Y-79382904D01*
X94601904Y-79478142D01*
X94554285Y-79525761D01*
X94459047Y-79573380D01*
X94220952Y-79573380D01*
X94125714Y-79525761D01*
X94078095Y-79478142D01*
X95506666Y-78906714D02*
X95506666Y-79573380D01*
X95268571Y-78525761D02*
X95030476Y-79240047D01*
X95649523Y-79240047D01*
X114556964Y-79573380D02*
X114556964Y-78573380D01*
X115128392Y-79573380D02*
X114699821Y-79001952D01*
X115128392Y-78573380D02*
X114556964Y-79144809D01*
X116033154Y-78573380D02*
X115556964Y-78573380D01*
X115509345Y-79049571D01*
X115556964Y-79001952D01*
X115652202Y-78954333D01*
X115890297Y-78954333D01*
X115985535Y-79001952D01*
X116033154Y-79049571D01*
X116080773Y-79144809D01*
X116080773Y-79382904D01*
X116033154Y-79478142D01*
X115985535Y-79525761D01*
X115890297Y-79573380D01*
X115652202Y-79573380D01*
X115556964Y-79525761D01*
X115509345Y-79478142D01*
X116985535Y-78573380D02*
X116509345Y-78573380D01*
X116461726Y-79049571D01*
X116509345Y-79001952D01*
X116604583Y-78954333D01*
X116842678Y-78954333D01*
X116937916Y-79001952D01*
X116985535Y-79049571D01*
X117033154Y-79144809D01*
X117033154Y-79382904D01*
X116985535Y-79478142D01*
X116937916Y-79525761D01*
X116842678Y-79573380D01*
X116604583Y-79573380D01*
X116509345Y-79525761D01*
X116461726Y-79478142D01*
X162181964Y-79573380D02*
X162181964Y-78573380D01*
X162753392Y-79573380D02*
X162324821Y-79001952D01*
X162753392Y-78573380D02*
X162181964Y-79144809D01*
X163658154Y-78573380D02*
X163181964Y-78573380D01*
X163134345Y-79049571D01*
X163181964Y-79001952D01*
X163277202Y-78954333D01*
X163515297Y-78954333D01*
X163610535Y-79001952D01*
X163658154Y-79049571D01*
X163705773Y-79144809D01*
X163705773Y-79382904D01*
X163658154Y-79478142D01*
X163610535Y-79525761D01*
X163515297Y-79573380D01*
X163277202Y-79573380D01*
X163181964Y-79525761D01*
X163134345Y-79478142D01*
X164039107Y-78573380D02*
X164705773Y-78573380D01*
X164277202Y-79573380D01*
X257431964Y-79573380D02*
X257431964Y-78573380D01*
X258003392Y-79573380D02*
X257574821Y-79001952D01*
X258003392Y-78573380D02*
X257431964Y-79144809D01*
X258860535Y-78573380D02*
X258670059Y-78573380D01*
X258574821Y-78621000D01*
X258527202Y-78668619D01*
X258431964Y-78811476D01*
X258384345Y-79001952D01*
X258384345Y-79382904D01*
X258431964Y-79478142D01*
X258479583Y-79525761D01*
X258574821Y-79573380D01*
X258765297Y-79573380D01*
X258860535Y-79525761D01*
X258908154Y-79478142D01*
X258955773Y-79382904D01*
X258955773Y-79144809D01*
X258908154Y-79049571D01*
X258860535Y-79001952D01*
X258765297Y-78954333D01*
X258574821Y-78954333D01*
X258479583Y-79001952D01*
X258431964Y-79049571D01*
X258384345Y-79144809D01*
X259574821Y-78573380D02*
X259670059Y-78573380D01*
X259765297Y-78621000D01*
X259812916Y-78668619D01*
X259860535Y-78763857D01*
X259908154Y-78954333D01*
X259908154Y-79192428D01*
X259860535Y-79382904D01*
X259812916Y-79478142D01*
X259765297Y-79525761D01*
X259670059Y-79573380D01*
X259574821Y-79573380D01*
X259479583Y-79525761D01*
X259431964Y-79478142D01*
X259384345Y-79382904D01*
X259336726Y-79192428D01*
X259336726Y-78954333D01*
X259384345Y-78763857D01*
X259431964Y-78668619D01*
X259479583Y-78621000D01*
X259574821Y-78573380D01*
X288388214Y-79573380D02*
X288388214Y-78573380D01*
X288959642Y-79573380D02*
X288531071Y-79001952D01*
X288959642Y-78573380D02*
X288388214Y-79144809D01*
X289816785Y-78573380D02*
X289626309Y-78573380D01*
X289531071Y-78621000D01*
X289483452Y-78668619D01*
X289388214Y-78811476D01*
X289340595Y-79001952D01*
X289340595Y-79382904D01*
X289388214Y-79478142D01*
X289435833Y-79525761D01*
X289531071Y-79573380D01*
X289721547Y-79573380D01*
X289816785Y-79525761D01*
X289864404Y-79478142D01*
X289912023Y-79382904D01*
X289912023Y-79144809D01*
X289864404Y-79049571D01*
X289816785Y-79001952D01*
X289721547Y-78954333D01*
X289531071Y-78954333D01*
X289435833Y-79001952D01*
X289388214Y-79049571D01*
X289340595Y-79144809D01*
X290864404Y-79573380D02*
X290292976Y-79573380D01*
X290578690Y-79573380D02*
X290578690Y-78573380D01*
X290483452Y-78716238D01*
X290388214Y-78811476D01*
X290292976Y-78859095D01*
X307438214Y-79573380D02*
X307438214Y-78573380D01*
X308009642Y-79573380D02*
X307581071Y-79001952D01*
X308009642Y-78573380D02*
X307438214Y-79144809D01*
X308866785Y-78573380D02*
X308676309Y-78573380D01*
X308581071Y-78621000D01*
X308533452Y-78668619D01*
X308438214Y-78811476D01*
X308390595Y-79001952D01*
X308390595Y-79382904D01*
X308438214Y-79478142D01*
X308485833Y-79525761D01*
X308581071Y-79573380D01*
X308771547Y-79573380D01*
X308866785Y-79525761D01*
X308914404Y-79478142D01*
X308962023Y-79382904D01*
X308962023Y-79144809D01*
X308914404Y-79049571D01*
X308866785Y-79001952D01*
X308771547Y-78954333D01*
X308581071Y-78954333D01*
X308485833Y-79001952D01*
X308438214Y-79049571D01*
X308390595Y-79144809D01*
X309342976Y-78668619D02*
X309390595Y-78621000D01*
X309485833Y-78573380D01*
X309723928Y-78573380D01*
X309819166Y-78621000D01*
X309866785Y-78668619D01*
X309914404Y-78763857D01*
X309914404Y-78859095D01*
X309866785Y-79001952D01*
X309295357Y-79573380D01*
X309914404Y-79573380D01*
X326488214Y-79573380D02*
X326488214Y-78573380D01*
X327059642Y-79573380D02*
X326631071Y-79001952D01*
X327059642Y-78573380D02*
X326488214Y-79144809D01*
X327916785Y-78573380D02*
X327726309Y-78573380D01*
X327631071Y-78621000D01*
X327583452Y-78668619D01*
X327488214Y-78811476D01*
X327440595Y-79001952D01*
X327440595Y-79382904D01*
X327488214Y-79478142D01*
X327535833Y-79525761D01*
X327631071Y-79573380D01*
X327821547Y-79573380D01*
X327916785Y-79525761D01*
X327964404Y-79478142D01*
X328012023Y-79382904D01*
X328012023Y-79144809D01*
X327964404Y-79049571D01*
X327916785Y-79001952D01*
X327821547Y-78954333D01*
X327631071Y-78954333D01*
X327535833Y-79001952D01*
X327488214Y-79049571D01*
X327440595Y-79144809D01*
X328345357Y-78573380D02*
X328964404Y-78573380D01*
X328631071Y-78954333D01*
X328773928Y-78954333D01*
X328869166Y-79001952D01*
X328916785Y-79049571D01*
X328964404Y-79144809D01*
X328964404Y-79382904D01*
X328916785Y-79478142D01*
X328869166Y-79525761D01*
X328773928Y-79573380D01*
X328488214Y-79573380D01*
X328392976Y-79525761D01*
X328345357Y-79478142D01*
X345538214Y-79573380D02*
X345538214Y-78573380D01*
X346109642Y-79573380D02*
X345681071Y-79001952D01*
X346109642Y-78573380D02*
X345538214Y-79144809D01*
X346966785Y-78573380D02*
X346776309Y-78573380D01*
X346681071Y-78621000D01*
X346633452Y-78668619D01*
X346538214Y-78811476D01*
X346490595Y-79001952D01*
X346490595Y-79382904D01*
X346538214Y-79478142D01*
X346585833Y-79525761D01*
X346681071Y-79573380D01*
X346871547Y-79573380D01*
X346966785Y-79525761D01*
X347014404Y-79478142D01*
X347062023Y-79382904D01*
X347062023Y-79144809D01*
X347014404Y-79049571D01*
X346966785Y-79001952D01*
X346871547Y-78954333D01*
X346681071Y-78954333D01*
X346585833Y-79001952D01*
X346538214Y-79049571D01*
X346490595Y-79144809D01*
X347919166Y-78906714D02*
X347919166Y-79573380D01*
X347681071Y-78525761D02*
X347442976Y-79240047D01*
X348062023Y-79240047D01*
X364588214Y-79573380D02*
X364588214Y-78573380D01*
X365159642Y-79573380D02*
X364731071Y-79001952D01*
X365159642Y-78573380D02*
X364588214Y-79144809D01*
X366016785Y-78573380D02*
X365826309Y-78573380D01*
X365731071Y-78621000D01*
X365683452Y-78668619D01*
X365588214Y-78811476D01*
X365540595Y-79001952D01*
X365540595Y-79382904D01*
X365588214Y-79478142D01*
X365635833Y-79525761D01*
X365731071Y-79573380D01*
X365921547Y-79573380D01*
X366016785Y-79525761D01*
X366064404Y-79478142D01*
X366112023Y-79382904D01*
X366112023Y-79144809D01*
X366064404Y-79049571D01*
X366016785Y-79001952D01*
X365921547Y-78954333D01*
X365731071Y-78954333D01*
X365635833Y-79001952D01*
X365588214Y-79049571D01*
X365540595Y-79144809D01*
X367016785Y-78573380D02*
X366540595Y-78573380D01*
X366492976Y-79049571D01*
X366540595Y-79001952D01*
X366635833Y-78954333D01*
X366873928Y-78954333D01*
X366969166Y-79001952D01*
X367016785Y-79049571D01*
X367064404Y-79144809D01*
X367064404Y-79382904D01*
X367016785Y-79478142D01*
X366969166Y-79525761D01*
X366873928Y-79573380D01*
X366635833Y-79573380D01*
X366540595Y-79525761D01*
X366492976Y-79478142D01*
M02*
