G04 #@! TF.GenerationSoftware,KiCad,Pcbnew,(5.1.12)-1*
G04 #@! TF.CreationDate,2021-12-22T13:58:05-08:00*
G04 #@! TF.ProjectId,logboi,6c6f6762-6f69-42e6-9b69-6361645f7063,rev?*
G04 #@! TF.SameCoordinates,Original*
G04 #@! TF.FileFunction,Copper,L1,Top*
G04 #@! TF.FilePolarity,Positive*
%FSLAX46Y46*%
G04 Gerber Fmt 4.6, Leading zero omitted, Abs format (unit mm)*
G04 Created by KiCad (PCBNEW (5.1.12)-1) date 2021-12-22 13:58:05*
%MOMM*%
%LPD*%
G01*
G04 APERTURE LIST*
G04 #@! TA.AperFunction,ComponentPad*
%ADD10C,2.200000*%
G04 #@! TD*
G04 #@! TA.AperFunction,ComponentPad*
%ADD11C,4.500000*%
G04 #@! TD*
G04 #@! TA.AperFunction,ComponentPad*
%ADD12C,0.650000*%
G04 #@! TD*
G04 #@! TA.AperFunction,ComponentPad*
%ADD13O,0.900000X2.400000*%
G04 #@! TD*
G04 #@! TA.AperFunction,ComponentPad*
%ADD14O,0.900000X1.700000*%
G04 #@! TD*
G04 #@! TA.AperFunction,ComponentPad*
%ADD15O,1.700000X1.700000*%
G04 #@! TD*
G04 #@! TA.AperFunction,ComponentPad*
%ADD16R,1.700000X1.700000*%
G04 #@! TD*
G04 #@! TA.AperFunction,ViaPad*
%ADD17C,0.800000*%
G04 #@! TD*
G04 #@! TA.AperFunction,Conductor*
%ADD18C,0.250000*%
G04 #@! TD*
G04 #@! TA.AperFunction,Conductor*
%ADD19C,0.254000*%
G04 #@! TD*
G04 #@! TA.AperFunction,Conductor*
%ADD20C,0.100000*%
G04 #@! TD*
G04 APERTURE END LIST*
D10*
X102436250Y-84455000D03*
X108786250Y-81915000D03*
X109580000Y-65405000D03*
X115930000Y-62865000D03*
X104817500Y-46355000D03*
X111167500Y-43815000D03*
X102436250Y-27305000D03*
X108786250Y-24765000D03*
X364373750Y-65405000D03*
X370723750Y-62865000D03*
X338180000Y-65405000D03*
X344530000Y-62865000D03*
X352467500Y-46355000D03*
X358817500Y-43815000D03*
X252455000Y-84455000D03*
X258805000Y-81915000D03*
X359611250Y-27305000D03*
X365961250Y-24765000D03*
D11*
X377708750Y-77470000D03*
X53858750Y-39370000D03*
X53858750Y-77470000D03*
X377708750Y-39370000D03*
D10*
X283411250Y-46355000D03*
X289761250Y-43815000D03*
D12*
X347909550Y-24286400D03*
X346209550Y-24286400D03*
X347059550Y-24286400D03*
X348759550Y-24286400D03*
X349609550Y-24286400D03*
X350459550Y-24286400D03*
X351309550Y-24286400D03*
X352159550Y-24286400D03*
X346209550Y-22961400D03*
X347064550Y-22961400D03*
X347914550Y-22961400D03*
X348764550Y-22961400D03*
X349614550Y-22961400D03*
X350464550Y-22961400D03*
X351314550Y-22961400D03*
X352164550Y-22961400D03*
D13*
X344859550Y-23306400D03*
X353509550Y-23306400D03*
D14*
X344859550Y-19926400D03*
X353509550Y-19926400D03*
D10*
X128630000Y-84455000D03*
X134980000Y-81915000D03*
X221498750Y-27305000D03*
X227848750Y-24765000D03*
X216736250Y-84455000D03*
X223086250Y-81915000D03*
X185780000Y-84455000D03*
X192130000Y-81915000D03*
X383423750Y-84455000D03*
X389773750Y-81915000D03*
X383423750Y-65405000D03*
X389773750Y-62865000D03*
X383423750Y-46355000D03*
X389773750Y-43815000D03*
X383423750Y-27305000D03*
X389773750Y-24765000D03*
X21473750Y-27305000D03*
X27823750Y-24765000D03*
X40523750Y-27305000D03*
X46873750Y-24765000D03*
X59573750Y-27305000D03*
X65923750Y-24765000D03*
X78623750Y-27305000D03*
X84973750Y-24765000D03*
X126248750Y-27305000D03*
X132598750Y-24765000D03*
X145298750Y-27305000D03*
X151648750Y-24765000D03*
X164348750Y-27305000D03*
X170698750Y-24765000D03*
X183398750Y-27305000D03*
X189748750Y-24765000D03*
X202448750Y-27305000D03*
X208798750Y-24765000D03*
X240548750Y-27305000D03*
X246898750Y-24765000D03*
X259598750Y-27305000D03*
X265948750Y-24765000D03*
X278648750Y-27305000D03*
X284998750Y-24765000D03*
X297698750Y-27305000D03*
X304048750Y-24765000D03*
X316748750Y-27305000D03*
X323098750Y-24765000D03*
X335798750Y-27305000D03*
X342148750Y-24765000D03*
X21473750Y-46355000D03*
X27823750Y-43815000D03*
X40523750Y-46355000D03*
X46873750Y-43815000D03*
X59573750Y-46355000D03*
X65923750Y-43815000D03*
X78623750Y-46355000D03*
X84973750Y-43815000D03*
X131011250Y-46355000D03*
X137361250Y-43815000D03*
X150061250Y-46355000D03*
X156411250Y-43815000D03*
X169111250Y-46355000D03*
X175461250Y-43815000D03*
X188161250Y-46355000D03*
X194511250Y-43815000D03*
X207211250Y-46355000D03*
X213561250Y-43815000D03*
X226261250Y-46355000D03*
X232611250Y-43815000D03*
X245311250Y-46355000D03*
X251661250Y-43815000D03*
X264361250Y-46355000D03*
X270711250Y-43815000D03*
X302461250Y-46355000D03*
X308811250Y-43815000D03*
X321511250Y-46355000D03*
X327861250Y-43815000D03*
X21473750Y-65405000D03*
X27823750Y-62865000D03*
X40523750Y-65405000D03*
X46873750Y-62865000D03*
X59573750Y-65405000D03*
X65923750Y-62865000D03*
X78623750Y-65405000D03*
X84973750Y-62865000D03*
X140536250Y-65405000D03*
X146886250Y-62865000D03*
X159586250Y-65405000D03*
X165936250Y-62865000D03*
X178636250Y-65405000D03*
X184986250Y-62865000D03*
X197686250Y-65405000D03*
X204036250Y-62865000D03*
X216736250Y-65405000D03*
X223086250Y-62865000D03*
X235786250Y-65405000D03*
X242136250Y-62865000D03*
X254836250Y-65405000D03*
X261186250Y-62865000D03*
X273886250Y-65405000D03*
X280236250Y-62865000D03*
X292936250Y-65405000D03*
X299286250Y-62865000D03*
X311986250Y-65405000D03*
X318336250Y-62865000D03*
X30998750Y-84455000D03*
X37348750Y-81915000D03*
X59573750Y-84455000D03*
X65923750Y-81915000D03*
X78623750Y-84455000D03*
X84973750Y-81915000D03*
X152442500Y-84455000D03*
X158792500Y-81915000D03*
X288173750Y-84455000D03*
X294523750Y-81915000D03*
X307223750Y-84455000D03*
X313573750Y-81915000D03*
X326273750Y-84455000D03*
X332623750Y-81915000D03*
X345323750Y-84455000D03*
X351673750Y-81915000D03*
X364373750Y-84455000D03*
X370723750Y-81915000D03*
D15*
X236541900Y-94132400D03*
X236541900Y-91592400D03*
X234001900Y-94132400D03*
X234001900Y-91592400D03*
X231461900Y-94132400D03*
D16*
X231461900Y-91592400D03*
D17*
X155839040Y-96097210D03*
X155839040Y-92363410D03*
X180707250Y-85376800D03*
X179622450Y-82372200D03*
X166820850Y-76835000D03*
X177251426Y-76818424D03*
X166255450Y-91751400D03*
X172358050Y-92710000D03*
X210297300Y-85363000D03*
X177437260Y-87718800D03*
X174122850Y-79337400D03*
X177843950Y-83058500D03*
X188778460Y-90271600D03*
X164077650Y-80238600D03*
X196562300Y-90271600D03*
X175531100Y-91948000D03*
X159531050Y-90398600D03*
X195908250Y-88265000D03*
X173323250Y-94919800D03*
X209962900Y-89063000D03*
X346748750Y-34595000D03*
X332468750Y-34595000D03*
X327698750Y-34595000D03*
X313418750Y-34595000D03*
X308648750Y-34595000D03*
X294368750Y-34595000D03*
X289598750Y-34595000D03*
X275318750Y-34595000D03*
X270548750Y-34595000D03*
X256268750Y-34595000D03*
X251498750Y-34595000D03*
X237218750Y-34595000D03*
X232448750Y-34595000D03*
X218168750Y-34595000D03*
X213398750Y-34595000D03*
X199118750Y-34595000D03*
X194348750Y-34595000D03*
X180068750Y-34595000D03*
X175298750Y-34595000D03*
X161018750Y-34595000D03*
X156248750Y-34595000D03*
X141968750Y-34595000D03*
X137198750Y-34595000D03*
X122918750Y-34595000D03*
X113386250Y-34595000D03*
X99106250Y-34595000D03*
X91955000Y-34595000D03*
X75293750Y-34595000D03*
X70523750Y-34595000D03*
X56243750Y-34595000D03*
X51473750Y-34595000D03*
X37193750Y-34595000D03*
X32423750Y-34595000D03*
X18143750Y-34595000D03*
X49180750Y-92659200D03*
X356281250Y-34595000D03*
X363417500Y-53645000D03*
X349133750Y-53657500D03*
X332461250Y-53645000D03*
X318181250Y-53645000D03*
X313411250Y-53645000D03*
X299131250Y-53645000D03*
X294361250Y-53645000D03*
X280081250Y-53645000D03*
X275311250Y-53645000D03*
X261031250Y-53645000D03*
X256261250Y-53645000D03*
X241981250Y-53645000D03*
X237211250Y-53645000D03*
X222931250Y-53645000D03*
X218161250Y-53645000D03*
X203881250Y-53645000D03*
X199111250Y-53645000D03*
X184831250Y-53645000D03*
X180061250Y-53645000D03*
X165781250Y-53645000D03*
X161011250Y-53645000D03*
X146731250Y-53645000D03*
X141961250Y-53645000D03*
X127681250Y-53645000D03*
X115767500Y-53645000D03*
X101487500Y-53645000D03*
X89573750Y-53645000D03*
X75293750Y-53645000D03*
X70523750Y-53645000D03*
X56243750Y-53645000D03*
X51473750Y-53645000D03*
X37193750Y-53645000D03*
X32423750Y-53645000D03*
X18143750Y-53645000D03*
X380093750Y-34595000D03*
X50298350Y-92583000D03*
X120578200Y-72707500D03*
X375323750Y-72695000D03*
X361043750Y-72695000D03*
X349130000Y-72695000D03*
X334850000Y-72695000D03*
X322936250Y-72695000D03*
X308656250Y-72695000D03*
X303886250Y-72695000D03*
X289606250Y-72695000D03*
X284836250Y-72695000D03*
X270556250Y-72695000D03*
X265786250Y-72695000D03*
X251506250Y-72695000D03*
X246736250Y-72695000D03*
X232456250Y-72695000D03*
X227686250Y-72695000D03*
X213406250Y-72695000D03*
X208636250Y-72695000D03*
X194356250Y-72695000D03*
X189586250Y-72695000D03*
X175306250Y-72695000D03*
X170536250Y-72695000D03*
X156256250Y-72695000D03*
X151486250Y-72695000D03*
X137206250Y-72695000D03*
X106250000Y-72695000D03*
X89618200Y-72695000D03*
X75293750Y-72695000D03*
X70523750Y-72695000D03*
X56243750Y-72695000D03*
X51473750Y-72695000D03*
X37193750Y-72695000D03*
X32423750Y-72695000D03*
X18143750Y-72695000D03*
X380093750Y-53645000D03*
X51492150Y-92608400D03*
X188309250Y-91745000D03*
X375323750Y-91745000D03*
X361043750Y-91745000D03*
X356273750Y-91745000D03*
X341993750Y-91745000D03*
X337223750Y-91745000D03*
X322943750Y-91745000D03*
X318173750Y-91745000D03*
X303893750Y-91745000D03*
X299123750Y-91745000D03*
X284843750Y-91745000D03*
X263405000Y-91745000D03*
X249125000Y-91745000D03*
X227686250Y-91745000D03*
X213406250Y-91745000D03*
X139580000Y-91745000D03*
X125300000Y-91745000D03*
X113386250Y-91745000D03*
X99106250Y-91745000D03*
X75293750Y-91745000D03*
X70523750Y-91745000D03*
X56243750Y-91745000D03*
X41948750Y-91745000D03*
X394373750Y-91745000D03*
X380093750Y-91745000D03*
X394373750Y-72695000D03*
X380093750Y-72695000D03*
X162883850Y-93091000D03*
X183915050Y-91897200D03*
X37348750Y-79885000D03*
X27823750Y-75105000D03*
X27823750Y-60835000D03*
X27823750Y-56055000D03*
X27823750Y-41785000D03*
X27823750Y-37005000D03*
X46873750Y-75105000D03*
X46873750Y-60835000D03*
X46873750Y-56055000D03*
X46873750Y-41785000D03*
X46873750Y-37005000D03*
X46873750Y-75105000D03*
X46873750Y-75105000D03*
X65923750Y-75105000D03*
X65923750Y-60835000D03*
X65923750Y-56055000D03*
X65923750Y-41785000D03*
X65923750Y-37005000D03*
X84973750Y-75105000D03*
X84973750Y-60835000D03*
X84973750Y-56055000D03*
X84973750Y-41785000D03*
X84973750Y-37005000D03*
X115930000Y-75105000D03*
X115930000Y-60835000D03*
X111167500Y-56055000D03*
X111167500Y-41785000D03*
X108786250Y-37005000D03*
X158792500Y-79885000D03*
X146886250Y-75105000D03*
X146886250Y-60835000D03*
X137361250Y-56055000D03*
X137361250Y-41785000D03*
X132598750Y-37005000D03*
X165936250Y-75105000D03*
X165936250Y-60835000D03*
X156411250Y-56055000D03*
X156411250Y-41785000D03*
X151648750Y-37005000D03*
X223086250Y-79885000D03*
X184986250Y-75105000D03*
X184986250Y-60835000D03*
X175461250Y-56055000D03*
X175461250Y-41785000D03*
X170698750Y-37005000D03*
X168535350Y-75069700D03*
X258805000Y-79885000D03*
X204036250Y-75105000D03*
X204036250Y-60835000D03*
X194511250Y-56055000D03*
X194511250Y-41785000D03*
X189748750Y-37005000D03*
X294523750Y-79885000D03*
X223086250Y-75105000D03*
X223086250Y-60835000D03*
X213561250Y-56055000D03*
X213561250Y-41785000D03*
X208798750Y-37005000D03*
X313573750Y-79885000D03*
X242136250Y-75105000D03*
X242136250Y-60835000D03*
X232611250Y-56055000D03*
X232611250Y-41785000D03*
X227848750Y-37005000D03*
X261186250Y-75105000D03*
X332623750Y-79885000D03*
X261186250Y-60835000D03*
X251661250Y-56055000D03*
X251661250Y-41785000D03*
X246898750Y-37005000D03*
X351673750Y-79885000D03*
X280236250Y-75105000D03*
X280236250Y-60835000D03*
X270711250Y-56055000D03*
X270711250Y-41785000D03*
X265948750Y-37005000D03*
X370723750Y-79885000D03*
X299286250Y-75105000D03*
X299286250Y-60835000D03*
X289761250Y-56055000D03*
X289761250Y-41785000D03*
X284998750Y-37005000D03*
X318336250Y-75105000D03*
X318336250Y-60835000D03*
X308811250Y-56055000D03*
X308811250Y-41785000D03*
X304048750Y-37005000D03*
X344530000Y-75105000D03*
X344530000Y-60835000D03*
X327861250Y-56055000D03*
X327861250Y-41785000D03*
X323098750Y-37005000D03*
X233660101Y-97014199D03*
X358817500Y-41785000D03*
X370723750Y-60835000D03*
X358817500Y-56055000D03*
X342148750Y-37005000D03*
X370711050Y-75133200D03*
X235373500Y-97739200D03*
X389773750Y-37005000D03*
X389773750Y-41785000D03*
X389773750Y-56055000D03*
X389773750Y-60835000D03*
X389773750Y-75105000D03*
X231868300Y-98501200D03*
X355769140Y-21336000D03*
X350589850Y-26543000D03*
X339481750Y-21234400D03*
D18*
X155839040Y-92363410D02*
X155839040Y-92363410D01*
X155839040Y-93310590D02*
X155839040Y-92363410D01*
X155839040Y-96097210D02*
X155839040Y-93310590D01*
X180707250Y-85376800D02*
X180707250Y-83457000D01*
X180707250Y-83457000D02*
X179622450Y-82372200D01*
X179622450Y-82372200D02*
X179622450Y-82372200D01*
X179622450Y-79189448D02*
X177251426Y-76818424D01*
X179622450Y-82372200D02*
X179622450Y-79189448D01*
X176887002Y-76454000D02*
X167176450Y-76454000D01*
X167176450Y-76454000D02*
X167176450Y-76479400D01*
X167176450Y-76479400D02*
X166820850Y-76835000D01*
X166820850Y-76835000D02*
X166820850Y-76835000D01*
X177251426Y-76818424D02*
X176887002Y-76454000D01*
X177857247Y-81972201D02*
X175075850Y-84753598D01*
X179222451Y-81972201D02*
X177857247Y-81972201D01*
X179622450Y-82372200D02*
X179222451Y-81972201D01*
X175075850Y-91059000D02*
X174383450Y-91751400D01*
X175075850Y-84753598D02*
X175075850Y-91059000D01*
X173316650Y-91751400D02*
X172358050Y-92710000D01*
X174383450Y-91751400D02*
X173316650Y-91751400D01*
X167214050Y-92710000D02*
X166255450Y-91751400D01*
X172358050Y-92710000D02*
X167214050Y-92710000D01*
X234663589Y-89714089D02*
X236541900Y-91592400D01*
X232428389Y-89714089D02*
X234663589Y-89714089D01*
X230190611Y-87476311D02*
X232428389Y-89714089D01*
X230190611Y-85405699D02*
X230190611Y-87476311D01*
X228881539Y-84096627D02*
X230190611Y-85405699D01*
X223158874Y-84096626D02*
X228881539Y-84096627D01*
X220438300Y-81376052D02*
X223158874Y-84096626D01*
X214284248Y-81376052D02*
X220438300Y-81376052D01*
X210297300Y-85363000D02*
X214284248Y-81376052D01*
X177983650Y-83198200D02*
X178034450Y-83198200D01*
X177843950Y-83058500D02*
X177983650Y-83198200D01*
X159531050Y-90398600D02*
X159531050Y-90398600D01*
X177437260Y-83465190D02*
X177843950Y-83058500D01*
X177437260Y-87718800D02*
X177437260Y-83465190D01*
X178409255Y-88690795D02*
X177964755Y-88246295D01*
X187197655Y-88690795D02*
X178409255Y-88690795D01*
X188778460Y-90271600D02*
X187197655Y-88690795D01*
X177964755Y-88246295D02*
X177437260Y-87718800D01*
X164978850Y-79337400D02*
X164077650Y-80238600D01*
X174122850Y-79337400D02*
X164978850Y-79337400D01*
X164077650Y-81559400D02*
X164077650Y-80238600D01*
X162998150Y-82638900D02*
X164077650Y-81559400D01*
X162998150Y-89573100D02*
X162998150Y-82638900D01*
X162172650Y-90398600D02*
X162998150Y-89573100D01*
X159531050Y-90398600D02*
X162172650Y-90398600D01*
X177437260Y-90041840D02*
X175531100Y-91948000D01*
X177437260Y-87718800D02*
X177437260Y-90041840D01*
X196562300Y-91084400D02*
X197527500Y-92049600D01*
X196562300Y-90271600D02*
X196562300Y-91084400D01*
X197527500Y-92049600D02*
X205503100Y-92049600D01*
X230584299Y-92470001D02*
X231461900Y-91592400D01*
X205923501Y-92470001D02*
X230584299Y-92470001D01*
X205503100Y-92049600D02*
X205923501Y-92470001D01*
X176573999Y-97560001D02*
X173933798Y-94919800D01*
X186613249Y-97560001D02*
X176573999Y-97560001D01*
X173933798Y-94919800D02*
X173323250Y-94919800D01*
X195908250Y-88265000D02*
X186613249Y-97560001D01*
X236541900Y-93495990D02*
X236541900Y-94132400D01*
X232167199Y-90164099D02*
X234312601Y-90164099D01*
X235176901Y-91028399D02*
X235176901Y-92130991D01*
X229740601Y-87737501D02*
X232167199Y-90164099D01*
X229740601Y-85592099D02*
X229740601Y-87737501D01*
X235176901Y-92130991D02*
X236541900Y-93495990D01*
X222972474Y-84546636D02*
X228695138Y-84546636D01*
X214907240Y-81826062D02*
X220251900Y-81826062D01*
X234312601Y-90164099D02*
X235176901Y-91028399D01*
X228695138Y-84546636D02*
X229740601Y-85592099D01*
X220251900Y-81826062D02*
X222972474Y-84546636D01*
X209962900Y-86770402D02*
X214907240Y-81826062D01*
X209962900Y-89063000D02*
X209962900Y-86770402D01*
X36018739Y-35770011D02*
X37193750Y-34595000D01*
X36018739Y-74089809D02*
X36018739Y-35770011D01*
X49180750Y-87251820D02*
X36018739Y-74089809D01*
X49180750Y-92659200D02*
X49180750Y-87251820D01*
X351518750Y-34595000D02*
X346748750Y-34595000D01*
X351518750Y-34595000D02*
X356281250Y-34595000D01*
X199111250Y-53645000D02*
X203881250Y-53645000D01*
X36468749Y-54370001D02*
X37193750Y-53645000D01*
X36468749Y-73903409D02*
X36468749Y-54370001D01*
X50298350Y-87733010D02*
X36468749Y-73903409D01*
X50298350Y-92583000D02*
X50298350Y-87733010D01*
X180061250Y-53645000D02*
X184831250Y-53645000D01*
X332461250Y-53645000D02*
X344375000Y-53645000D01*
X349133750Y-53657500D02*
X344371250Y-53657500D01*
X170536250Y-72695000D02*
X175306250Y-72695000D01*
X189586250Y-72695000D02*
X194356250Y-72695000D01*
X37193750Y-73992000D02*
X37193750Y-72695000D01*
X51492150Y-92608400D02*
X51492150Y-88290400D01*
X51492150Y-88290400D02*
X37193750Y-73992000D01*
X318173750Y-91745000D02*
X322943750Y-91745000D01*
X183915050Y-91897200D02*
X183915050Y-91897200D01*
X163976050Y-94183200D02*
X162883850Y-93091000D01*
X174974250Y-94183200D02*
X163976050Y-94183200D01*
X176612550Y-92544900D02*
X174974250Y-94183200D01*
X183267350Y-92544900D02*
X176612550Y-92544900D01*
X183915050Y-91897200D02*
X183267350Y-92544900D01*
X234052700Y-94183200D02*
X234001900Y-94132400D01*
X37348750Y-79885000D02*
X37348750Y-81915000D01*
X32568750Y-75105000D02*
X37348750Y-79885000D01*
X27823750Y-75105000D02*
X32568750Y-75105000D01*
X27823750Y-60835000D02*
X27823750Y-75105000D01*
X27823750Y-60835000D02*
X27823750Y-56055000D01*
X27823750Y-56055000D02*
X27823750Y-24765000D01*
X46873750Y-75105000D02*
X46873750Y-60835000D01*
X46873750Y-56055000D02*
X46873750Y-60835000D01*
X46873750Y-24765000D02*
X46873750Y-56055000D01*
X46873750Y-75105000D02*
X52083550Y-80314800D01*
X52083550Y-80314800D02*
X64228300Y-80314800D01*
X65828500Y-81915000D02*
X65923750Y-81915000D01*
X64228300Y-80314800D02*
X65828500Y-81915000D01*
X65923750Y-60835000D02*
X65923750Y-75105000D01*
X65923750Y-24765000D02*
X65923750Y-60835000D01*
X65923750Y-75105000D02*
X67095700Y-75105000D01*
X70733875Y-78743175D02*
X81801925Y-78743175D01*
X67095700Y-75105000D02*
X70733875Y-78743175D01*
X81801925Y-78743175D02*
X84973750Y-81915000D01*
X84973750Y-60835000D02*
X84973750Y-75105000D01*
X84973750Y-60835000D02*
X84973750Y-56055000D01*
X84973750Y-24765000D02*
X84973750Y-56055000D01*
X108786250Y-81915000D02*
X108786250Y-80040248D01*
X84973750Y-75105000D02*
X85586900Y-75105000D01*
X89106849Y-78624949D02*
X107370951Y-78624949D01*
X85586900Y-75105000D02*
X89106849Y-78624949D01*
X108786250Y-80040248D02*
X107370951Y-78624949D01*
X115930000Y-75105000D02*
X115930000Y-60835000D01*
X111167500Y-56072500D02*
X111167500Y-56055000D01*
X115930000Y-60835000D02*
X111167500Y-56072500D01*
X111167500Y-56055000D02*
X111167500Y-41785000D01*
X108786250Y-39403750D02*
X111167500Y-41785000D01*
X108786250Y-37005000D02*
X108786250Y-39403750D01*
X108786250Y-30746002D02*
X108786250Y-37005000D01*
X108786250Y-24765000D02*
X108786250Y-30746002D01*
X134980000Y-80052748D02*
X134980000Y-81915000D01*
X121835500Y-79654400D02*
X134581652Y-79654400D01*
X117286100Y-75105000D02*
X121835500Y-79654400D01*
X134581652Y-79654400D02*
X134980000Y-80052748D01*
X115930000Y-75105000D02*
X117286100Y-75105000D01*
X158792500Y-79885000D02*
X158792500Y-81915000D01*
X132598750Y-24765000D02*
X132598750Y-37005000D01*
X137361250Y-41767500D02*
X137361250Y-41785000D01*
X132598750Y-37005000D02*
X137361250Y-41767500D01*
X137361250Y-48094002D02*
X137361250Y-56055000D01*
X137361250Y-41785000D02*
X137361250Y-48094002D01*
X137361250Y-56055000D02*
X141319250Y-60013000D01*
X146064250Y-60013000D02*
X146886250Y-60835000D01*
X141319250Y-60013000D02*
X146064250Y-60013000D01*
X158792500Y-79885000D02*
X158792500Y-78865050D01*
X155032450Y-75105000D02*
X146886250Y-75105000D01*
X158792500Y-78865050D02*
X155032450Y-75105000D01*
X146886250Y-60835000D02*
X146886250Y-75105000D01*
X151648750Y-30746002D02*
X151648750Y-37005000D01*
X151648750Y-24765000D02*
X151648750Y-30746002D01*
X156411250Y-41767500D02*
X156411250Y-41785000D01*
X151648750Y-37005000D02*
X156411250Y-41767500D01*
X156411250Y-56055000D02*
X156411250Y-41785000D01*
X161156250Y-56055000D02*
X165936250Y-60835000D01*
X156411250Y-56055000D02*
X161156250Y-56055000D01*
X165936250Y-60835000D02*
X165936250Y-75105000D01*
X190574366Y-81915000D02*
X192130000Y-81915000D01*
X184489367Y-75830001D02*
X190574366Y-81915000D01*
X166661251Y-75830001D02*
X184489367Y-75830001D01*
X165936250Y-75105000D02*
X166661251Y-75830001D01*
X223086250Y-81915000D02*
X223086250Y-79885000D01*
X177105050Y-75105000D02*
X184986250Y-75105000D01*
X184986250Y-60835000D02*
X184986250Y-75105000D01*
X221346249Y-78144999D02*
X223086250Y-79885000D01*
X188026249Y-78144999D02*
X221346249Y-78144999D01*
X184986250Y-75105000D02*
X188026249Y-78144999D01*
X175461250Y-41785000D02*
X175461250Y-56055000D01*
X170698750Y-24765000D02*
X170698750Y-37005000D01*
X175461250Y-41767500D02*
X175461250Y-41785000D01*
X170698750Y-37005000D02*
X175461250Y-41767500D01*
X168570650Y-75105000D02*
X168535350Y-75069700D01*
X177105050Y-75105000D02*
X168570650Y-75105000D01*
X180206250Y-56055000D02*
X184986250Y-60835000D01*
X175461250Y-56055000D02*
X180206250Y-56055000D01*
X258805000Y-81915000D02*
X258805000Y-79885000D01*
X204036250Y-75105000D02*
X204036250Y-60835000D01*
X189748750Y-24765000D02*
X189748750Y-37005000D01*
X194511250Y-41767500D02*
X194511250Y-41785000D01*
X189748750Y-37005000D02*
X194511250Y-41767500D01*
X194511250Y-41785000D02*
X194511250Y-56055000D01*
X199256250Y-56055000D02*
X204036250Y-60835000D01*
X194511250Y-56055000D02*
X199256250Y-56055000D01*
X250405930Y-79885000D02*
X258805000Y-79885000D01*
X248110740Y-77589810D02*
X250405930Y-79885000D01*
X206521060Y-77589810D02*
X248110740Y-77589810D01*
X204036250Y-75105000D02*
X206521060Y-77589810D01*
X294523750Y-79885000D02*
X294523750Y-81915000D01*
X223086250Y-60835000D02*
X223086250Y-75105000D01*
X208798750Y-24765000D02*
X208798750Y-37005000D01*
X213561250Y-41767500D02*
X213561250Y-41785000D01*
X208798750Y-37005000D02*
X213561250Y-41767500D01*
X213561250Y-41785000D02*
X213561250Y-56055000D01*
X218306250Y-56055000D02*
X223086250Y-60835000D01*
X213561250Y-56055000D02*
X218306250Y-56055000D01*
X292489980Y-77851230D02*
X294523750Y-79885000D01*
X252851500Y-77139800D02*
X253562930Y-77851230D01*
X225121050Y-77139800D02*
X252851500Y-77139800D01*
X223086250Y-75105000D02*
X225121050Y-77139800D01*
X292489980Y-77851230D02*
X287335320Y-77851230D01*
X287335320Y-77851230D02*
X287727480Y-77851230D01*
X253562930Y-77851230D02*
X287335320Y-77851230D01*
X313573750Y-79885000D02*
X313573750Y-81915000D01*
X242136250Y-75105000D02*
X242136250Y-60835000D01*
X227848750Y-24765000D02*
X227848750Y-37005000D01*
X232611250Y-41767500D02*
X232611250Y-41785000D01*
X227848750Y-37005000D02*
X232611250Y-41767500D01*
X232611250Y-41785000D02*
X232611250Y-56055000D01*
X237356250Y-56055000D02*
X242136250Y-60835000D01*
X232611250Y-56055000D02*
X237356250Y-56055000D01*
X311239125Y-77550375D02*
X313573750Y-79885000D01*
X311089970Y-77401220D02*
X311239125Y-77550375D01*
X253749330Y-77401220D02*
X311089970Y-77401220D01*
X251453110Y-75105000D02*
X253749330Y-77401220D01*
X242136250Y-75105000D02*
X251453110Y-75105000D01*
X332623750Y-81915000D02*
X332623750Y-79885000D01*
X261186250Y-75105000D02*
X261186250Y-60835000D01*
X246898750Y-24765000D02*
X246898750Y-37005000D01*
X251661250Y-41767500D02*
X251661250Y-41785000D01*
X246898750Y-37005000D02*
X251661250Y-41767500D01*
X251661250Y-41785000D02*
X251661250Y-56055000D01*
X256406250Y-56055000D02*
X261186250Y-60835000D01*
X251661250Y-56055000D02*
X256406250Y-56055000D01*
X329689960Y-76951210D02*
X332623750Y-79885000D01*
X273655740Y-76951210D02*
X329689960Y-76951210D01*
X271809530Y-75105000D02*
X273655740Y-76951210D01*
X261186250Y-75105000D02*
X271809530Y-75105000D01*
X351673750Y-81915000D02*
X351673750Y-79885000D01*
X280236250Y-60835000D02*
X280236250Y-75105000D01*
X265948750Y-29044002D02*
X265948750Y-37005000D01*
X265948750Y-24765000D02*
X265948750Y-29044002D01*
X270711250Y-41767500D02*
X270711250Y-41785000D01*
X265948750Y-37005000D02*
X270711250Y-41767500D01*
X270711250Y-41785000D02*
X270711250Y-56055000D01*
X275456250Y-56055000D02*
X280236250Y-60835000D01*
X270711250Y-56055000D02*
X275456250Y-56055000D01*
X280236250Y-75105000D02*
X281632450Y-76501200D01*
X343999350Y-76501200D02*
X343084950Y-76501200D01*
X348289950Y-76501200D02*
X343999350Y-76501200D01*
X351673750Y-79885000D02*
X348289950Y-76501200D01*
X343084950Y-76501200D02*
X343527450Y-76501200D01*
X281632450Y-76501200D02*
X343084950Y-76501200D01*
X370723750Y-81915000D02*
X370723750Y-79885000D01*
X299286250Y-60835000D02*
X299286250Y-75105000D01*
X284998750Y-24765000D02*
X284998750Y-37005000D01*
X289761250Y-41767500D02*
X289761250Y-41785000D01*
X284998750Y-37005000D02*
X289761250Y-41767500D01*
X289761250Y-41785000D02*
X289761250Y-56055000D01*
X294506250Y-56055000D02*
X299286250Y-60835000D01*
X289761250Y-56055000D02*
X294506250Y-56055000D01*
X368562450Y-79885000D02*
X370723750Y-79885000D01*
X300187150Y-76005900D02*
X364683350Y-76005900D01*
X364683350Y-76005900D02*
X368562450Y-79885000D01*
X299286250Y-75105000D02*
X300187150Y-76005900D01*
X318336250Y-60835000D02*
X318336250Y-75105000D01*
X308811250Y-56055000D02*
X308811250Y-41785000D01*
X304048750Y-37022500D02*
X304048750Y-37005000D01*
X304048750Y-37022500D02*
X304490050Y-37463800D01*
X304048750Y-24765000D02*
X304048750Y-37022500D01*
X308811250Y-41785000D02*
X304490050Y-37463800D01*
X313556250Y-56055000D02*
X318336250Y-60835000D01*
X308811250Y-56055000D02*
X313556250Y-56055000D01*
X327861250Y-41785000D02*
X327861250Y-56055000D01*
X323098750Y-37022500D02*
X323098750Y-37005000D01*
X327861250Y-41785000D02*
X323098750Y-37022500D01*
X323098750Y-37005000D02*
X323098750Y-24765000D01*
X339750000Y-56055000D02*
X344530000Y-60835000D01*
X327861250Y-56055000D02*
X334862500Y-56055000D01*
X334862500Y-56055000D02*
X339750000Y-56055000D01*
X334862500Y-56055000D02*
X334987500Y-56055000D01*
X344530000Y-60835000D02*
X344530000Y-62865000D01*
X344530000Y-62865000D02*
X344530000Y-75105000D01*
X233660101Y-94474199D02*
X234001900Y-94132400D01*
X233660101Y-97014199D02*
X233660101Y-94474199D01*
X358817500Y-56055000D02*
X358817500Y-41785000D01*
X346928750Y-41785000D02*
X342148750Y-37005000D01*
X358817500Y-41785000D02*
X351691250Y-41785000D01*
X342148750Y-37005000D02*
X342148750Y-24765000D01*
X346928750Y-41785000D02*
X351691250Y-41785000D01*
X370711050Y-75133200D02*
X365948550Y-75133200D01*
X376730850Y-81153000D02*
X370711050Y-75133200D01*
X389011750Y-81153000D02*
X376730850Y-81153000D01*
X389773750Y-81915000D02*
X389011750Y-81153000D01*
X368436498Y-60835000D02*
X370723750Y-60835000D01*
X363656498Y-56055000D02*
X368436498Y-60835000D01*
X358817500Y-56055000D02*
X363656498Y-56055000D01*
X370723750Y-75120500D02*
X370711050Y-75133200D01*
X370723750Y-60835000D02*
X370723750Y-75120500D01*
X235322700Y-92913200D02*
X234001900Y-91592400D01*
X235373500Y-97739200D02*
X235322700Y-92913200D01*
X389773750Y-24765000D02*
X389773750Y-43815000D01*
X389773750Y-43815000D02*
X389773750Y-75105000D01*
X389773750Y-24765000D02*
X370723750Y-24765000D01*
X370723750Y-24765000D02*
X365961250Y-24765000D01*
X231868300Y-94538800D02*
X231461900Y-94132400D01*
X231868300Y-98501200D02*
X231868300Y-94538800D01*
X351630331Y-21336000D02*
X352723450Y-21336000D01*
X350464550Y-22501781D02*
X351630331Y-21336000D01*
X350464550Y-22961400D02*
X350464550Y-22501781D01*
X355769140Y-21336000D02*
X352723450Y-21336000D01*
X348959549Y-23974399D02*
X349614550Y-23319398D01*
X348959549Y-24185501D02*
X348959549Y-23974399D01*
X349614550Y-23319398D02*
X349614550Y-22961400D01*
X348858650Y-24286400D02*
X348959549Y-24185501D01*
X348759550Y-24286400D02*
X348858650Y-24286400D01*
X348759550Y-24712700D02*
X350589850Y-26543000D01*
X348759550Y-24286400D02*
X348759550Y-24712700D01*
X340727152Y-21234400D02*
X339481750Y-21234400D01*
X344429153Y-24936401D02*
X340727152Y-21234400D01*
X347719168Y-24936401D02*
X344429153Y-24936401D01*
X347909550Y-24746019D02*
X347719168Y-24936401D01*
X347909550Y-24286400D02*
X347909550Y-24746019D01*
D19*
X365167901Y-23215665D02*
X365139419Y-23227463D01*
X364855252Y-23417337D01*
X364613587Y-23659002D01*
X364423713Y-23943169D01*
X364292925Y-24258919D01*
X364226250Y-24594117D01*
X364226250Y-24935883D01*
X364292925Y-25271081D01*
X364423713Y-25586831D01*
X364613587Y-25870998D01*
X364855252Y-26112663D01*
X365112692Y-26284679D01*
X365085648Y-27788028D01*
X364669391Y-27509893D01*
X364189851Y-27311261D01*
X363680775Y-27210000D01*
X363161725Y-27210000D01*
X362652649Y-27311261D01*
X362173109Y-27509893D01*
X361741535Y-27798262D01*
X361374512Y-28165285D01*
X361086143Y-28596859D01*
X360887511Y-29076399D01*
X360786250Y-29585475D01*
X360786250Y-30104525D01*
X360887511Y-30613601D01*
X361086143Y-31093141D01*
X361374512Y-31524715D01*
X361741535Y-31891738D01*
X362173109Y-32180107D01*
X362652649Y-32378739D01*
X363161725Y-32480000D01*
X363680775Y-32480000D01*
X364189851Y-32378739D01*
X364669391Y-32180107D01*
X365010742Y-31952023D01*
X364917946Y-37110441D01*
X343508550Y-37289999D01*
X343183750Y-36965199D01*
X343183750Y-36903061D01*
X343143976Y-36703102D01*
X343065955Y-36514744D01*
X342952687Y-36345226D01*
X342908750Y-36301289D01*
X342908750Y-34493061D01*
X345713750Y-34493061D01*
X345713750Y-34696939D01*
X345753524Y-34896898D01*
X345831545Y-35085256D01*
X345944813Y-35254774D01*
X346088976Y-35398937D01*
X346258494Y-35512205D01*
X346446852Y-35590226D01*
X346646811Y-35630000D01*
X346850689Y-35630000D01*
X347050648Y-35590226D01*
X347239006Y-35512205D01*
X347408524Y-35398937D01*
X347452461Y-35355000D01*
X355577539Y-35355000D01*
X355621476Y-35398937D01*
X355790994Y-35512205D01*
X355979352Y-35590226D01*
X356179311Y-35630000D01*
X356383189Y-35630000D01*
X356583148Y-35590226D01*
X356771506Y-35512205D01*
X356941024Y-35398937D01*
X357085187Y-35254774D01*
X357198455Y-35085256D01*
X357276476Y-34896898D01*
X357316250Y-34696939D01*
X357316250Y-34493061D01*
X357276476Y-34293102D01*
X357198455Y-34104744D01*
X357085187Y-33935226D01*
X356941024Y-33791063D01*
X356771506Y-33677795D01*
X356583148Y-33599774D01*
X356383189Y-33560000D01*
X356179311Y-33560000D01*
X355979352Y-33599774D01*
X355790994Y-33677795D01*
X355621476Y-33791063D01*
X355577539Y-33835000D01*
X347452461Y-33835000D01*
X347408524Y-33791063D01*
X347239006Y-33677795D01*
X347050648Y-33599774D01*
X346850689Y-33560000D01*
X346646811Y-33560000D01*
X346446852Y-33599774D01*
X346258494Y-33677795D01*
X346088976Y-33791063D01*
X345944813Y-33935226D01*
X345831545Y-34104744D01*
X345753524Y-34293102D01*
X345713750Y-34493061D01*
X342908750Y-34493061D01*
X342908750Y-29698740D01*
X343203750Y-29698740D01*
X343203750Y-29991260D01*
X343260818Y-30278158D01*
X343372760Y-30548411D01*
X343535275Y-30791632D01*
X343742118Y-30998475D01*
X343985339Y-31160990D01*
X344255592Y-31272932D01*
X344542490Y-31330000D01*
X344835010Y-31330000D01*
X345121908Y-31272932D01*
X345392161Y-31160990D01*
X345635382Y-30998475D01*
X345842225Y-30791632D01*
X346004740Y-30548411D01*
X346116682Y-30278158D01*
X346173750Y-29991260D01*
X346173750Y-29698740D01*
X356856250Y-29698740D01*
X356856250Y-29991260D01*
X356913318Y-30278158D01*
X357025260Y-30548411D01*
X357187775Y-30791632D01*
X357394618Y-30998475D01*
X357637839Y-31160990D01*
X357908092Y-31272932D01*
X358194990Y-31330000D01*
X358487510Y-31330000D01*
X358774408Y-31272932D01*
X359044661Y-31160990D01*
X359287882Y-30998475D01*
X359494725Y-30791632D01*
X359657240Y-30548411D01*
X359769182Y-30278158D01*
X359826250Y-29991260D01*
X359826250Y-29698740D01*
X359769182Y-29411842D01*
X359657240Y-29141589D01*
X359589360Y-29040000D01*
X359782133Y-29040000D01*
X360117331Y-28973325D01*
X360433081Y-28842537D01*
X360717248Y-28652663D01*
X360958913Y-28410998D01*
X361148787Y-28126831D01*
X361279575Y-27811081D01*
X361346250Y-27475883D01*
X361346250Y-27134117D01*
X361279575Y-26798919D01*
X361148787Y-26483169D01*
X360958913Y-26199002D01*
X360717248Y-25957337D01*
X360433081Y-25767463D01*
X360117331Y-25636675D01*
X359782133Y-25570000D01*
X359440367Y-25570000D01*
X359105169Y-25636675D01*
X358789419Y-25767463D01*
X358505252Y-25957337D01*
X358263587Y-26199002D01*
X358073713Y-26483169D01*
X357942925Y-26798919D01*
X357876250Y-27134117D01*
X357876250Y-27475883D01*
X357942925Y-27811081D01*
X358073713Y-28126831D01*
X358229511Y-28360000D01*
X358194990Y-28360000D01*
X357908092Y-28417068D01*
X357637839Y-28529010D01*
X357394618Y-28691525D01*
X357187775Y-28898368D01*
X357025260Y-29141589D01*
X356913318Y-29411842D01*
X356856250Y-29698740D01*
X346173750Y-29698740D01*
X346116682Y-29411842D01*
X346004740Y-29141589D01*
X345842225Y-28898368D01*
X345635382Y-28691525D01*
X345392161Y-28529010D01*
X345121908Y-28417068D01*
X344835010Y-28360000D01*
X344542490Y-28360000D01*
X344255592Y-28417068D01*
X343985339Y-28529010D01*
X343742118Y-28691525D01*
X343535275Y-28898368D01*
X343372760Y-29141589D01*
X343260818Y-29411842D01*
X343203750Y-29698740D01*
X342908750Y-29698740D01*
X342908750Y-26328148D01*
X342970581Y-26302537D01*
X343254748Y-26112663D01*
X343496413Y-25870998D01*
X343686287Y-25586831D01*
X343779572Y-25361622D01*
X343865354Y-25447404D01*
X343889152Y-25476402D01*
X343918150Y-25500200D01*
X344004876Y-25571375D01*
X344106688Y-25625795D01*
X344136906Y-25641947D01*
X344280167Y-25685404D01*
X344391820Y-25696401D01*
X344391829Y-25696401D01*
X344429152Y-25700077D01*
X344466475Y-25696401D01*
X347681846Y-25696401D01*
X347719168Y-25700077D01*
X347756490Y-25696401D01*
X347756501Y-25696401D01*
X347868154Y-25685404D01*
X348011415Y-25641947D01*
X348143444Y-25571375D01*
X348259169Y-25476402D01*
X348282972Y-25447398D01*
X348351209Y-25379161D01*
X349554850Y-26582802D01*
X349554850Y-26644939D01*
X349594624Y-26844898D01*
X349672645Y-27033256D01*
X349785913Y-27202774D01*
X349930076Y-27346937D01*
X350099594Y-27460205D01*
X350287952Y-27538226D01*
X350487911Y-27578000D01*
X350691789Y-27578000D01*
X350891748Y-27538226D01*
X351080106Y-27460205D01*
X351249624Y-27346937D01*
X351393787Y-27202774D01*
X351507055Y-27033256D01*
X351585076Y-26844898D01*
X351624850Y-26644939D01*
X351624850Y-26441061D01*
X351585076Y-26241102D01*
X351507055Y-26052744D01*
X351393787Y-25883226D01*
X351249624Y-25739063D01*
X351080106Y-25625795D01*
X350891748Y-25547774D01*
X350691789Y-25508000D01*
X350629652Y-25508000D01*
X350368052Y-25246400D01*
X350554102Y-25246400D01*
X350739572Y-25209508D01*
X350884550Y-25149456D01*
X351029528Y-25209508D01*
X351214998Y-25246400D01*
X351404102Y-25246400D01*
X351589572Y-25209508D01*
X351734970Y-25149282D01*
X351874542Y-25207981D01*
X352059810Y-25245875D01*
X352248911Y-25246897D01*
X352434578Y-25211008D01*
X352609676Y-25139587D01*
X352618873Y-25134670D01*
X352632481Y-24938936D01*
X352237189Y-24543644D01*
X352269550Y-24380952D01*
X352269550Y-24191848D01*
X352268721Y-24187681D01*
X352353298Y-24272258D01*
X352339155Y-24286400D01*
X352489325Y-24436570D01*
X352555741Y-24588945D01*
X352677963Y-24764791D01*
X352832142Y-24913414D01*
X353012353Y-25029102D01*
X353215549Y-25100808D01*
X353382550Y-24973902D01*
X353382550Y-23433400D01*
X353636550Y-23433400D01*
X353636550Y-24973902D01*
X353803551Y-25100808D01*
X354006747Y-25029102D01*
X354186958Y-24913414D01*
X354341137Y-24764791D01*
X354463359Y-24588945D01*
X354548926Y-24392633D01*
X354594550Y-24183400D01*
X354594550Y-23433400D01*
X353636550Y-23433400D01*
X353382550Y-23433400D01*
X352830477Y-23433400D01*
X353012820Y-23420723D01*
X353086131Y-23246408D01*
X353099837Y-23179400D01*
X353382550Y-23179400D01*
X353382550Y-23159400D01*
X353636550Y-23159400D01*
X353636550Y-23179400D01*
X354594550Y-23179400D01*
X354594550Y-22429400D01*
X354548926Y-22220167D01*
X354494805Y-22096000D01*
X355065429Y-22096000D01*
X355109366Y-22139937D01*
X355278884Y-22253205D01*
X355467242Y-22331226D01*
X355667201Y-22371000D01*
X355871079Y-22371000D01*
X356071038Y-22331226D01*
X356259396Y-22253205D01*
X356428914Y-22139937D01*
X356573077Y-21995774D01*
X356686345Y-21826256D01*
X356764366Y-21637898D01*
X356804140Y-21437939D01*
X356804140Y-21234061D01*
X356764366Y-21034102D01*
X356686345Y-20845744D01*
X356573077Y-20676226D01*
X356428914Y-20532063D01*
X356259396Y-20418795D01*
X356071038Y-20340774D01*
X355871079Y-20301000D01*
X355667201Y-20301000D01*
X355467242Y-20340774D01*
X355278884Y-20418795D01*
X355109366Y-20532063D01*
X355065429Y-20576000D01*
X354567817Y-20576000D01*
X354594550Y-20453400D01*
X354594550Y-20053400D01*
X353636550Y-20053400D01*
X353636550Y-20073400D01*
X353382550Y-20073400D01*
X353382550Y-20053400D01*
X352424550Y-20053400D01*
X352424550Y-20453400D01*
X352451283Y-20576000D01*
X351667653Y-20576000D01*
X351630330Y-20572324D01*
X351593007Y-20576000D01*
X351592998Y-20576000D01*
X351481345Y-20586997D01*
X351338084Y-20630454D01*
X351206055Y-20701026D01*
X351090330Y-20795999D01*
X351066532Y-20824997D01*
X349953548Y-21937982D01*
X349924550Y-21961780D01*
X349866363Y-22032681D01*
X349709102Y-22001400D01*
X349519998Y-22001400D01*
X349334528Y-22038292D01*
X349189550Y-22098344D01*
X349044572Y-22038292D01*
X348859102Y-22001400D01*
X348669998Y-22001400D01*
X348484528Y-22038292D01*
X348339550Y-22098344D01*
X348194572Y-22038292D01*
X348009102Y-22001400D01*
X347819998Y-22001400D01*
X347634528Y-22038292D01*
X347489550Y-22098344D01*
X347344572Y-22038292D01*
X347159102Y-22001400D01*
X346969998Y-22001400D01*
X346784528Y-22038292D01*
X346636611Y-22099562D01*
X346494558Y-22039819D01*
X346309290Y-22001925D01*
X346120189Y-22000903D01*
X345934522Y-22036792D01*
X345836436Y-22076800D01*
X345813359Y-22023855D01*
X345691137Y-21848009D01*
X345536958Y-21699386D01*
X345356747Y-21583698D01*
X345153551Y-21511992D01*
X344986550Y-21638898D01*
X344986550Y-23179400D01*
X345273919Y-23179400D01*
X345284942Y-23236428D01*
X345356363Y-23411526D01*
X345361280Y-23420723D01*
X345543623Y-23433400D01*
X344986550Y-23433400D01*
X344986550Y-23453400D01*
X344732550Y-23453400D01*
X344732550Y-23433400D01*
X344712550Y-23433400D01*
X344712550Y-23179400D01*
X344732550Y-23179400D01*
X344732550Y-21638898D01*
X344565549Y-21511992D01*
X344362353Y-21583698D01*
X344182142Y-21699386D01*
X344027963Y-21848009D01*
X343905741Y-22023855D01*
X343820174Y-22220167D01*
X343774550Y-22429400D01*
X343774550Y-23206996D01*
X341290956Y-20723403D01*
X341267153Y-20694399D01*
X341151428Y-20599426D01*
X341019399Y-20528854D01*
X340876138Y-20485397D01*
X340764485Y-20474400D01*
X340764474Y-20474400D01*
X340727152Y-20470724D01*
X340689830Y-20474400D01*
X340185461Y-20474400D01*
X340141524Y-20430463D01*
X339972006Y-20317195D01*
X339783648Y-20239174D01*
X339583689Y-20199400D01*
X339379811Y-20199400D01*
X339179852Y-20239174D01*
X338991494Y-20317195D01*
X338821976Y-20430463D01*
X338677813Y-20574626D01*
X338564545Y-20744144D01*
X338486524Y-20932502D01*
X338446750Y-21132461D01*
X338446750Y-21336339D01*
X338486524Y-21536298D01*
X338564545Y-21724656D01*
X338677813Y-21894174D01*
X338821976Y-22038337D01*
X338991494Y-22151605D01*
X339179852Y-22229626D01*
X339379811Y-22269400D01*
X339583689Y-22269400D01*
X339783648Y-22229626D01*
X339972006Y-22151605D01*
X340141524Y-22038337D01*
X340185461Y-21994400D01*
X340412351Y-21994400D01*
X341552129Y-23134178D01*
X341326919Y-23227463D01*
X341042752Y-23417337D01*
X340801087Y-23659002D01*
X340611213Y-23943169D01*
X340480425Y-24258919D01*
X340413750Y-24594117D01*
X340413750Y-24935883D01*
X340480425Y-25271081D01*
X340611213Y-25586831D01*
X340801087Y-25870998D01*
X341042752Y-26112663D01*
X341326919Y-26302537D01*
X341388751Y-26328149D01*
X341388751Y-27898548D01*
X341288465Y-27798262D01*
X340856891Y-27509893D01*
X340377351Y-27311261D01*
X339868275Y-27210000D01*
X339349225Y-27210000D01*
X338840149Y-27311261D01*
X338360609Y-27509893D01*
X337929035Y-27798262D01*
X337562012Y-28165285D01*
X337273643Y-28596859D01*
X337075011Y-29076399D01*
X336973750Y-29585475D01*
X336973750Y-30104525D01*
X337075011Y-30613601D01*
X337273643Y-31093141D01*
X337562012Y-31524715D01*
X337929035Y-31891738D01*
X338360609Y-32180107D01*
X338840149Y-32378739D01*
X339349225Y-32480000D01*
X339868275Y-32480000D01*
X340377351Y-32378739D01*
X340856891Y-32180107D01*
X341288465Y-31891738D01*
X341388750Y-31791453D01*
X341388750Y-36301289D01*
X341344813Y-36345226D01*
X341231545Y-36514744D01*
X341153524Y-36703102D01*
X341113750Y-36903061D01*
X341113750Y-37106939D01*
X341153524Y-37306898D01*
X341154702Y-37309741D01*
X334885144Y-37362323D01*
X334922726Y-31280726D01*
X334961908Y-31272932D01*
X335232161Y-31160990D01*
X335475382Y-30998475D01*
X335682225Y-30791632D01*
X335844740Y-30548411D01*
X335956682Y-30278158D01*
X336013750Y-29991260D01*
X336013750Y-29698740D01*
X335956682Y-29411842D01*
X335844740Y-29141589D01*
X335776860Y-29040000D01*
X335969633Y-29040000D01*
X336304831Y-28973325D01*
X336620581Y-28842537D01*
X336904748Y-28652663D01*
X337146413Y-28410998D01*
X337336287Y-28126831D01*
X337467075Y-27811081D01*
X337533750Y-27475883D01*
X337533750Y-27134117D01*
X337467075Y-26798919D01*
X337336287Y-26483169D01*
X337146413Y-26199002D01*
X336904748Y-25957337D01*
X336620581Y-25767463D01*
X336304831Y-25636675D01*
X335969633Y-25570000D01*
X335627867Y-25570000D01*
X335292669Y-25636675D01*
X334976919Y-25767463D01*
X334956712Y-25780965D01*
X334992105Y-20053400D01*
X343774550Y-20053400D01*
X343774550Y-20453400D01*
X343820174Y-20662633D01*
X343905741Y-20858945D01*
X344027963Y-21034791D01*
X344182142Y-21183414D01*
X344362353Y-21299102D01*
X344565549Y-21370808D01*
X344732550Y-21243902D01*
X344732550Y-20053400D01*
X344986550Y-20053400D01*
X344986550Y-21243902D01*
X345153551Y-21370808D01*
X345356747Y-21299102D01*
X345536958Y-21183414D01*
X345691137Y-21034791D01*
X345813359Y-20858945D01*
X345898926Y-20662633D01*
X345944550Y-20453400D01*
X345944550Y-20053400D01*
X344986550Y-20053400D01*
X344732550Y-20053400D01*
X343774550Y-20053400D01*
X334992105Y-20053400D01*
X334996146Y-19399400D01*
X343774550Y-19399400D01*
X343774550Y-19799400D01*
X344732550Y-19799400D01*
X344732550Y-18608898D01*
X344986550Y-18608898D01*
X344986550Y-19799400D01*
X345944550Y-19799400D01*
X345944550Y-19399400D01*
X352424550Y-19399400D01*
X352424550Y-19799400D01*
X353382550Y-19799400D01*
X353382550Y-18608898D01*
X353636550Y-18608898D01*
X353636550Y-19799400D01*
X354594550Y-19799400D01*
X354594550Y-19399400D01*
X354548926Y-19190167D01*
X354463359Y-18993855D01*
X354341137Y-18818009D01*
X354186958Y-18669386D01*
X354006747Y-18553698D01*
X353803551Y-18481992D01*
X353636550Y-18608898D01*
X353382550Y-18608898D01*
X353215549Y-18481992D01*
X353012353Y-18553698D01*
X352832142Y-18669386D01*
X352677963Y-18818009D01*
X352555741Y-18993855D01*
X352470174Y-19190167D01*
X352424550Y-19399400D01*
X345944550Y-19399400D01*
X345898926Y-19190167D01*
X345813359Y-18993855D01*
X345691137Y-18818009D01*
X345536958Y-18669386D01*
X345356747Y-18553698D01*
X345153551Y-18481992D01*
X344986550Y-18608898D01*
X344732550Y-18608898D01*
X344565549Y-18481992D01*
X344362353Y-18553698D01*
X344182142Y-18669386D01*
X344027963Y-18818009D01*
X343905741Y-18993855D01*
X343820174Y-19190167D01*
X343774550Y-19399400D01*
X334996146Y-19399400D01*
X335015810Y-16217500D01*
X365293792Y-16217500D01*
X365167901Y-23215665D01*
G04 #@! TA.AperFunction,Conductor*
D20*
G36*
X365167901Y-23215665D02*
G01*
X365139419Y-23227463D01*
X364855252Y-23417337D01*
X364613587Y-23659002D01*
X364423713Y-23943169D01*
X364292925Y-24258919D01*
X364226250Y-24594117D01*
X364226250Y-24935883D01*
X364292925Y-25271081D01*
X364423713Y-25586831D01*
X364613587Y-25870998D01*
X364855252Y-26112663D01*
X365112692Y-26284679D01*
X365085648Y-27788028D01*
X364669391Y-27509893D01*
X364189851Y-27311261D01*
X363680775Y-27210000D01*
X363161725Y-27210000D01*
X362652649Y-27311261D01*
X362173109Y-27509893D01*
X361741535Y-27798262D01*
X361374512Y-28165285D01*
X361086143Y-28596859D01*
X360887511Y-29076399D01*
X360786250Y-29585475D01*
X360786250Y-30104525D01*
X360887511Y-30613601D01*
X361086143Y-31093141D01*
X361374512Y-31524715D01*
X361741535Y-31891738D01*
X362173109Y-32180107D01*
X362652649Y-32378739D01*
X363161725Y-32480000D01*
X363680775Y-32480000D01*
X364189851Y-32378739D01*
X364669391Y-32180107D01*
X365010742Y-31952023D01*
X364917946Y-37110441D01*
X343508550Y-37289999D01*
X343183750Y-36965199D01*
X343183750Y-36903061D01*
X343143976Y-36703102D01*
X343065955Y-36514744D01*
X342952687Y-36345226D01*
X342908750Y-36301289D01*
X342908750Y-34493061D01*
X345713750Y-34493061D01*
X345713750Y-34696939D01*
X345753524Y-34896898D01*
X345831545Y-35085256D01*
X345944813Y-35254774D01*
X346088976Y-35398937D01*
X346258494Y-35512205D01*
X346446852Y-35590226D01*
X346646811Y-35630000D01*
X346850689Y-35630000D01*
X347050648Y-35590226D01*
X347239006Y-35512205D01*
X347408524Y-35398937D01*
X347452461Y-35355000D01*
X355577539Y-35355000D01*
X355621476Y-35398937D01*
X355790994Y-35512205D01*
X355979352Y-35590226D01*
X356179311Y-35630000D01*
X356383189Y-35630000D01*
X356583148Y-35590226D01*
X356771506Y-35512205D01*
X356941024Y-35398937D01*
X357085187Y-35254774D01*
X357198455Y-35085256D01*
X357276476Y-34896898D01*
X357316250Y-34696939D01*
X357316250Y-34493061D01*
X357276476Y-34293102D01*
X357198455Y-34104744D01*
X357085187Y-33935226D01*
X356941024Y-33791063D01*
X356771506Y-33677795D01*
X356583148Y-33599774D01*
X356383189Y-33560000D01*
X356179311Y-33560000D01*
X355979352Y-33599774D01*
X355790994Y-33677795D01*
X355621476Y-33791063D01*
X355577539Y-33835000D01*
X347452461Y-33835000D01*
X347408524Y-33791063D01*
X347239006Y-33677795D01*
X347050648Y-33599774D01*
X346850689Y-33560000D01*
X346646811Y-33560000D01*
X346446852Y-33599774D01*
X346258494Y-33677795D01*
X346088976Y-33791063D01*
X345944813Y-33935226D01*
X345831545Y-34104744D01*
X345753524Y-34293102D01*
X345713750Y-34493061D01*
X342908750Y-34493061D01*
X342908750Y-29698740D01*
X343203750Y-29698740D01*
X343203750Y-29991260D01*
X343260818Y-30278158D01*
X343372760Y-30548411D01*
X343535275Y-30791632D01*
X343742118Y-30998475D01*
X343985339Y-31160990D01*
X344255592Y-31272932D01*
X344542490Y-31330000D01*
X344835010Y-31330000D01*
X345121908Y-31272932D01*
X345392161Y-31160990D01*
X345635382Y-30998475D01*
X345842225Y-30791632D01*
X346004740Y-30548411D01*
X346116682Y-30278158D01*
X346173750Y-29991260D01*
X346173750Y-29698740D01*
X356856250Y-29698740D01*
X356856250Y-29991260D01*
X356913318Y-30278158D01*
X357025260Y-30548411D01*
X357187775Y-30791632D01*
X357394618Y-30998475D01*
X357637839Y-31160990D01*
X357908092Y-31272932D01*
X358194990Y-31330000D01*
X358487510Y-31330000D01*
X358774408Y-31272932D01*
X359044661Y-31160990D01*
X359287882Y-30998475D01*
X359494725Y-30791632D01*
X359657240Y-30548411D01*
X359769182Y-30278158D01*
X359826250Y-29991260D01*
X359826250Y-29698740D01*
X359769182Y-29411842D01*
X359657240Y-29141589D01*
X359589360Y-29040000D01*
X359782133Y-29040000D01*
X360117331Y-28973325D01*
X360433081Y-28842537D01*
X360717248Y-28652663D01*
X360958913Y-28410998D01*
X361148787Y-28126831D01*
X361279575Y-27811081D01*
X361346250Y-27475883D01*
X361346250Y-27134117D01*
X361279575Y-26798919D01*
X361148787Y-26483169D01*
X360958913Y-26199002D01*
X360717248Y-25957337D01*
X360433081Y-25767463D01*
X360117331Y-25636675D01*
X359782133Y-25570000D01*
X359440367Y-25570000D01*
X359105169Y-25636675D01*
X358789419Y-25767463D01*
X358505252Y-25957337D01*
X358263587Y-26199002D01*
X358073713Y-26483169D01*
X357942925Y-26798919D01*
X357876250Y-27134117D01*
X357876250Y-27475883D01*
X357942925Y-27811081D01*
X358073713Y-28126831D01*
X358229511Y-28360000D01*
X358194990Y-28360000D01*
X357908092Y-28417068D01*
X357637839Y-28529010D01*
X357394618Y-28691525D01*
X357187775Y-28898368D01*
X357025260Y-29141589D01*
X356913318Y-29411842D01*
X356856250Y-29698740D01*
X346173750Y-29698740D01*
X346116682Y-29411842D01*
X346004740Y-29141589D01*
X345842225Y-28898368D01*
X345635382Y-28691525D01*
X345392161Y-28529010D01*
X345121908Y-28417068D01*
X344835010Y-28360000D01*
X344542490Y-28360000D01*
X344255592Y-28417068D01*
X343985339Y-28529010D01*
X343742118Y-28691525D01*
X343535275Y-28898368D01*
X343372760Y-29141589D01*
X343260818Y-29411842D01*
X343203750Y-29698740D01*
X342908750Y-29698740D01*
X342908750Y-26328148D01*
X342970581Y-26302537D01*
X343254748Y-26112663D01*
X343496413Y-25870998D01*
X343686287Y-25586831D01*
X343779572Y-25361622D01*
X343865354Y-25447404D01*
X343889152Y-25476402D01*
X343918150Y-25500200D01*
X344004876Y-25571375D01*
X344106688Y-25625795D01*
X344136906Y-25641947D01*
X344280167Y-25685404D01*
X344391820Y-25696401D01*
X344391829Y-25696401D01*
X344429152Y-25700077D01*
X344466475Y-25696401D01*
X347681846Y-25696401D01*
X347719168Y-25700077D01*
X347756490Y-25696401D01*
X347756501Y-25696401D01*
X347868154Y-25685404D01*
X348011415Y-25641947D01*
X348143444Y-25571375D01*
X348259169Y-25476402D01*
X348282972Y-25447398D01*
X348351209Y-25379161D01*
X349554850Y-26582802D01*
X349554850Y-26644939D01*
X349594624Y-26844898D01*
X349672645Y-27033256D01*
X349785913Y-27202774D01*
X349930076Y-27346937D01*
X350099594Y-27460205D01*
X350287952Y-27538226D01*
X350487911Y-27578000D01*
X350691789Y-27578000D01*
X350891748Y-27538226D01*
X351080106Y-27460205D01*
X351249624Y-27346937D01*
X351393787Y-27202774D01*
X351507055Y-27033256D01*
X351585076Y-26844898D01*
X351624850Y-26644939D01*
X351624850Y-26441061D01*
X351585076Y-26241102D01*
X351507055Y-26052744D01*
X351393787Y-25883226D01*
X351249624Y-25739063D01*
X351080106Y-25625795D01*
X350891748Y-25547774D01*
X350691789Y-25508000D01*
X350629652Y-25508000D01*
X350368052Y-25246400D01*
X350554102Y-25246400D01*
X350739572Y-25209508D01*
X350884550Y-25149456D01*
X351029528Y-25209508D01*
X351214998Y-25246400D01*
X351404102Y-25246400D01*
X351589572Y-25209508D01*
X351734970Y-25149282D01*
X351874542Y-25207981D01*
X352059810Y-25245875D01*
X352248911Y-25246897D01*
X352434578Y-25211008D01*
X352609676Y-25139587D01*
X352618873Y-25134670D01*
X352632481Y-24938936D01*
X352237189Y-24543644D01*
X352269550Y-24380952D01*
X352269550Y-24191848D01*
X352268721Y-24187681D01*
X352353298Y-24272258D01*
X352339155Y-24286400D01*
X352489325Y-24436570D01*
X352555741Y-24588945D01*
X352677963Y-24764791D01*
X352832142Y-24913414D01*
X353012353Y-25029102D01*
X353215549Y-25100808D01*
X353382550Y-24973902D01*
X353382550Y-23433400D01*
X353636550Y-23433400D01*
X353636550Y-24973902D01*
X353803551Y-25100808D01*
X354006747Y-25029102D01*
X354186958Y-24913414D01*
X354341137Y-24764791D01*
X354463359Y-24588945D01*
X354548926Y-24392633D01*
X354594550Y-24183400D01*
X354594550Y-23433400D01*
X353636550Y-23433400D01*
X353382550Y-23433400D01*
X352830477Y-23433400D01*
X353012820Y-23420723D01*
X353086131Y-23246408D01*
X353099837Y-23179400D01*
X353382550Y-23179400D01*
X353382550Y-23159400D01*
X353636550Y-23159400D01*
X353636550Y-23179400D01*
X354594550Y-23179400D01*
X354594550Y-22429400D01*
X354548926Y-22220167D01*
X354494805Y-22096000D01*
X355065429Y-22096000D01*
X355109366Y-22139937D01*
X355278884Y-22253205D01*
X355467242Y-22331226D01*
X355667201Y-22371000D01*
X355871079Y-22371000D01*
X356071038Y-22331226D01*
X356259396Y-22253205D01*
X356428914Y-22139937D01*
X356573077Y-21995774D01*
X356686345Y-21826256D01*
X356764366Y-21637898D01*
X356804140Y-21437939D01*
X356804140Y-21234061D01*
X356764366Y-21034102D01*
X356686345Y-20845744D01*
X356573077Y-20676226D01*
X356428914Y-20532063D01*
X356259396Y-20418795D01*
X356071038Y-20340774D01*
X355871079Y-20301000D01*
X355667201Y-20301000D01*
X355467242Y-20340774D01*
X355278884Y-20418795D01*
X355109366Y-20532063D01*
X355065429Y-20576000D01*
X354567817Y-20576000D01*
X354594550Y-20453400D01*
X354594550Y-20053400D01*
X353636550Y-20053400D01*
X353636550Y-20073400D01*
X353382550Y-20073400D01*
X353382550Y-20053400D01*
X352424550Y-20053400D01*
X352424550Y-20453400D01*
X352451283Y-20576000D01*
X351667653Y-20576000D01*
X351630330Y-20572324D01*
X351593007Y-20576000D01*
X351592998Y-20576000D01*
X351481345Y-20586997D01*
X351338084Y-20630454D01*
X351206055Y-20701026D01*
X351090330Y-20795999D01*
X351066532Y-20824997D01*
X349953548Y-21937982D01*
X349924550Y-21961780D01*
X349866363Y-22032681D01*
X349709102Y-22001400D01*
X349519998Y-22001400D01*
X349334528Y-22038292D01*
X349189550Y-22098344D01*
X349044572Y-22038292D01*
X348859102Y-22001400D01*
X348669998Y-22001400D01*
X348484528Y-22038292D01*
X348339550Y-22098344D01*
X348194572Y-22038292D01*
X348009102Y-22001400D01*
X347819998Y-22001400D01*
X347634528Y-22038292D01*
X347489550Y-22098344D01*
X347344572Y-22038292D01*
X347159102Y-22001400D01*
X346969998Y-22001400D01*
X346784528Y-22038292D01*
X346636611Y-22099562D01*
X346494558Y-22039819D01*
X346309290Y-22001925D01*
X346120189Y-22000903D01*
X345934522Y-22036792D01*
X345836436Y-22076800D01*
X345813359Y-22023855D01*
X345691137Y-21848009D01*
X345536958Y-21699386D01*
X345356747Y-21583698D01*
X345153551Y-21511992D01*
X344986550Y-21638898D01*
X344986550Y-23179400D01*
X345273919Y-23179400D01*
X345284942Y-23236428D01*
X345356363Y-23411526D01*
X345361280Y-23420723D01*
X345543623Y-23433400D01*
X344986550Y-23433400D01*
X344986550Y-23453400D01*
X344732550Y-23453400D01*
X344732550Y-23433400D01*
X344712550Y-23433400D01*
X344712550Y-23179400D01*
X344732550Y-23179400D01*
X344732550Y-21638898D01*
X344565549Y-21511992D01*
X344362353Y-21583698D01*
X344182142Y-21699386D01*
X344027963Y-21848009D01*
X343905741Y-22023855D01*
X343820174Y-22220167D01*
X343774550Y-22429400D01*
X343774550Y-23206996D01*
X341290956Y-20723403D01*
X341267153Y-20694399D01*
X341151428Y-20599426D01*
X341019399Y-20528854D01*
X340876138Y-20485397D01*
X340764485Y-20474400D01*
X340764474Y-20474400D01*
X340727152Y-20470724D01*
X340689830Y-20474400D01*
X340185461Y-20474400D01*
X340141524Y-20430463D01*
X339972006Y-20317195D01*
X339783648Y-20239174D01*
X339583689Y-20199400D01*
X339379811Y-20199400D01*
X339179852Y-20239174D01*
X338991494Y-20317195D01*
X338821976Y-20430463D01*
X338677813Y-20574626D01*
X338564545Y-20744144D01*
X338486524Y-20932502D01*
X338446750Y-21132461D01*
X338446750Y-21336339D01*
X338486524Y-21536298D01*
X338564545Y-21724656D01*
X338677813Y-21894174D01*
X338821976Y-22038337D01*
X338991494Y-22151605D01*
X339179852Y-22229626D01*
X339379811Y-22269400D01*
X339583689Y-22269400D01*
X339783648Y-22229626D01*
X339972006Y-22151605D01*
X340141524Y-22038337D01*
X340185461Y-21994400D01*
X340412351Y-21994400D01*
X341552129Y-23134178D01*
X341326919Y-23227463D01*
X341042752Y-23417337D01*
X340801087Y-23659002D01*
X340611213Y-23943169D01*
X340480425Y-24258919D01*
X340413750Y-24594117D01*
X340413750Y-24935883D01*
X340480425Y-25271081D01*
X340611213Y-25586831D01*
X340801087Y-25870998D01*
X341042752Y-26112663D01*
X341326919Y-26302537D01*
X341388751Y-26328149D01*
X341388751Y-27898548D01*
X341288465Y-27798262D01*
X340856891Y-27509893D01*
X340377351Y-27311261D01*
X339868275Y-27210000D01*
X339349225Y-27210000D01*
X338840149Y-27311261D01*
X338360609Y-27509893D01*
X337929035Y-27798262D01*
X337562012Y-28165285D01*
X337273643Y-28596859D01*
X337075011Y-29076399D01*
X336973750Y-29585475D01*
X336973750Y-30104525D01*
X337075011Y-30613601D01*
X337273643Y-31093141D01*
X337562012Y-31524715D01*
X337929035Y-31891738D01*
X338360609Y-32180107D01*
X338840149Y-32378739D01*
X339349225Y-32480000D01*
X339868275Y-32480000D01*
X340377351Y-32378739D01*
X340856891Y-32180107D01*
X341288465Y-31891738D01*
X341388750Y-31791453D01*
X341388750Y-36301289D01*
X341344813Y-36345226D01*
X341231545Y-36514744D01*
X341153524Y-36703102D01*
X341113750Y-36903061D01*
X341113750Y-37106939D01*
X341153524Y-37306898D01*
X341154702Y-37309741D01*
X334885144Y-37362323D01*
X334922726Y-31280726D01*
X334961908Y-31272932D01*
X335232161Y-31160990D01*
X335475382Y-30998475D01*
X335682225Y-30791632D01*
X335844740Y-30548411D01*
X335956682Y-30278158D01*
X336013750Y-29991260D01*
X336013750Y-29698740D01*
X335956682Y-29411842D01*
X335844740Y-29141589D01*
X335776860Y-29040000D01*
X335969633Y-29040000D01*
X336304831Y-28973325D01*
X336620581Y-28842537D01*
X336904748Y-28652663D01*
X337146413Y-28410998D01*
X337336287Y-28126831D01*
X337467075Y-27811081D01*
X337533750Y-27475883D01*
X337533750Y-27134117D01*
X337467075Y-26798919D01*
X337336287Y-26483169D01*
X337146413Y-26199002D01*
X336904748Y-25957337D01*
X336620581Y-25767463D01*
X336304831Y-25636675D01*
X335969633Y-25570000D01*
X335627867Y-25570000D01*
X335292669Y-25636675D01*
X334976919Y-25767463D01*
X334956712Y-25780965D01*
X334992105Y-20053400D01*
X343774550Y-20053400D01*
X343774550Y-20453400D01*
X343820174Y-20662633D01*
X343905741Y-20858945D01*
X344027963Y-21034791D01*
X344182142Y-21183414D01*
X344362353Y-21299102D01*
X344565549Y-21370808D01*
X344732550Y-21243902D01*
X344732550Y-20053400D01*
X344986550Y-20053400D01*
X344986550Y-21243902D01*
X345153551Y-21370808D01*
X345356747Y-21299102D01*
X345536958Y-21183414D01*
X345691137Y-21034791D01*
X345813359Y-20858945D01*
X345898926Y-20662633D01*
X345944550Y-20453400D01*
X345944550Y-20053400D01*
X344986550Y-20053400D01*
X344732550Y-20053400D01*
X343774550Y-20053400D01*
X334992105Y-20053400D01*
X334996146Y-19399400D01*
X343774550Y-19399400D01*
X343774550Y-19799400D01*
X344732550Y-19799400D01*
X344732550Y-18608898D01*
X344986550Y-18608898D01*
X344986550Y-19799400D01*
X345944550Y-19799400D01*
X345944550Y-19399400D01*
X352424550Y-19399400D01*
X352424550Y-19799400D01*
X353382550Y-19799400D01*
X353382550Y-18608898D01*
X353636550Y-18608898D01*
X353636550Y-19799400D01*
X354594550Y-19799400D01*
X354594550Y-19399400D01*
X354548926Y-19190167D01*
X354463359Y-18993855D01*
X354341137Y-18818009D01*
X354186958Y-18669386D01*
X354006747Y-18553698D01*
X353803551Y-18481992D01*
X353636550Y-18608898D01*
X353382550Y-18608898D01*
X353215549Y-18481992D01*
X353012353Y-18553698D01*
X352832142Y-18669386D01*
X352677963Y-18818009D01*
X352555741Y-18993855D01*
X352470174Y-19190167D01*
X352424550Y-19399400D01*
X345944550Y-19399400D01*
X345898926Y-19190167D01*
X345813359Y-18993855D01*
X345691137Y-18818009D01*
X345536958Y-18669386D01*
X345356747Y-18553698D01*
X345153551Y-18481992D01*
X344986550Y-18608898D01*
X344732550Y-18608898D01*
X344565549Y-18481992D01*
X344362353Y-18553698D01*
X344182142Y-18669386D01*
X344027963Y-18818009D01*
X343905741Y-18993855D01*
X343820174Y-19190167D01*
X343774550Y-19399400D01*
X334996146Y-19399400D01*
X335015810Y-16217500D01*
X365293792Y-16217500D01*
X365167901Y-23215665D01*
G37*
G04 #@! TD.AperFunction*
D19*
X346104550Y-22866848D02*
X346104550Y-23055952D01*
X346106620Y-23066360D01*
X346015803Y-22975543D01*
X346029945Y-22961400D01*
X346015803Y-22947258D01*
X346106620Y-22856440D01*
X346104550Y-22866848D01*
G04 #@! TA.AperFunction,Conductor*
D20*
G36*
X346104550Y-22866848D02*
G01*
X346104550Y-23055952D01*
X346106620Y-23066360D01*
X346015803Y-22975543D01*
X346029945Y-22961400D01*
X346015803Y-22947258D01*
X346106620Y-22856440D01*
X346104550Y-22866848D01*
G37*
G04 #@! TD.AperFunction*
D19*
X352358298Y-22947258D02*
X352344155Y-22961400D01*
X352358298Y-22975543D01*
X352273721Y-23060119D01*
X352274550Y-23055952D01*
X352274550Y-22866848D01*
X352273721Y-22862681D01*
X352358298Y-22947258D01*
G04 #@! TA.AperFunction,Conductor*
D20*
G36*
X352358298Y-22947258D02*
G01*
X352344155Y-22961400D01*
X352358298Y-22975543D01*
X352273721Y-23060119D01*
X352274550Y-23055952D01*
X352274550Y-22866848D01*
X352273721Y-22862681D01*
X352358298Y-22947258D01*
G37*
G04 #@! TD.AperFunction*
D19*
X156703189Y-77850541D02*
X158032501Y-79179853D01*
X158032501Y-79181288D01*
X157988563Y-79225226D01*
X157875295Y-79394744D01*
X157797274Y-79583102D01*
X157757500Y-79783061D01*
X157757500Y-79986939D01*
X157797274Y-80186898D01*
X157875295Y-80375256D01*
X157905752Y-80420839D01*
X157686502Y-80567337D01*
X157444837Y-80809002D01*
X157254963Y-81093169D01*
X157124175Y-81408919D01*
X157057500Y-81744117D01*
X157057500Y-82085883D01*
X157124175Y-82421081D01*
X157254963Y-82736831D01*
X157444837Y-83020998D01*
X157686502Y-83262663D01*
X157970669Y-83452537D01*
X158286419Y-83583325D01*
X158621617Y-83650000D01*
X158963383Y-83650000D01*
X159298581Y-83583325D01*
X159614331Y-83452537D01*
X159898498Y-83262663D01*
X160140163Y-83020998D01*
X160330037Y-82736831D01*
X160460825Y-82421081D01*
X160527500Y-82085883D01*
X160527500Y-81744117D01*
X160460825Y-81408919D01*
X160330037Y-81093169D01*
X160140163Y-80809002D01*
X159898498Y-80567337D01*
X159679248Y-80420839D01*
X159709705Y-80375256D01*
X159787726Y-80186898D01*
X159827500Y-79986939D01*
X159827500Y-79783061D01*
X159787726Y-79583102D01*
X159709705Y-79394744D01*
X159596437Y-79225226D01*
X159552500Y-79181289D01*
X159552500Y-78902375D01*
X159556176Y-78865050D01*
X159552500Y-78827725D01*
X159552500Y-78827717D01*
X159541503Y-78716064D01*
X159498046Y-78572803D01*
X159427474Y-78440774D01*
X159332501Y-78325049D01*
X159303503Y-78301251D01*
X158900495Y-77898243D01*
X176372450Y-78277549D01*
X176313080Y-78317219D01*
X176012219Y-78618080D01*
X175775833Y-78971856D01*
X175613008Y-79364951D01*
X175530000Y-79782259D01*
X175530000Y-80207741D01*
X175613008Y-80625049D01*
X175775833Y-81018144D01*
X176012219Y-81371920D01*
X176313080Y-81672781D01*
X176666856Y-81909167D01*
X177059951Y-82071992D01*
X177371429Y-82133949D01*
X177353694Y-82141295D01*
X177184176Y-82254563D01*
X177040013Y-82398726D01*
X176926745Y-82568244D01*
X176848724Y-82756602D01*
X176808950Y-82956561D01*
X176808950Y-83032794D01*
X176802286Y-83040914D01*
X176731714Y-83172944D01*
X176688258Y-83316205D01*
X176673584Y-83465190D01*
X176677261Y-83502522D01*
X176677260Y-87015089D01*
X176633323Y-87059026D01*
X176520055Y-87228544D01*
X176442034Y-87416902D01*
X176402260Y-87616861D01*
X176402260Y-87820739D01*
X176442034Y-88020698D01*
X176520055Y-88209056D01*
X176633323Y-88378574D01*
X176677260Y-88422511D01*
X176677261Y-89727037D01*
X175491299Y-90913000D01*
X175429161Y-90913000D01*
X175229202Y-90952774D01*
X175040844Y-91030795D01*
X174871326Y-91144063D01*
X174727163Y-91288226D01*
X174613895Y-91457744D01*
X174535874Y-91646102D01*
X174496100Y-91846061D01*
X174496100Y-92049939D01*
X174535874Y-92249898D01*
X174613895Y-92438256D01*
X174727163Y-92607774D01*
X174871326Y-92751937D01*
X175040844Y-92865205D01*
X175165718Y-92916930D01*
X174659449Y-93423200D01*
X164290852Y-93423200D01*
X163918850Y-93051199D01*
X163918850Y-92989061D01*
X163879076Y-92789102D01*
X163801055Y-92600744D01*
X163687787Y-92431226D01*
X163543624Y-92287063D01*
X163374106Y-92173795D01*
X163185748Y-92095774D01*
X162985789Y-92056000D01*
X162781911Y-92056000D01*
X162581952Y-92095774D01*
X162393594Y-92173795D01*
X162224076Y-92287063D01*
X162079913Y-92431226D01*
X161966645Y-92600744D01*
X161888624Y-92789102D01*
X161848850Y-92989061D01*
X161848850Y-93192939D01*
X161888624Y-93392898D01*
X161966645Y-93581256D01*
X162079913Y-93750774D01*
X162224076Y-93894937D01*
X162393594Y-94008205D01*
X162581952Y-94086226D01*
X162781911Y-94126000D01*
X162844049Y-94126000D01*
X163412251Y-94694203D01*
X163436049Y-94723201D01*
X163465047Y-94746999D01*
X163551773Y-94818174D01*
X163683803Y-94888746D01*
X163827064Y-94932203D01*
X163938717Y-94943200D01*
X163938726Y-94943200D01*
X163976049Y-94946876D01*
X164013372Y-94943200D01*
X172288250Y-94943200D01*
X172288250Y-95021739D01*
X172328024Y-95221698D01*
X172406045Y-95410056D01*
X172519313Y-95579574D01*
X172663476Y-95723737D01*
X172832994Y-95837005D01*
X173021352Y-95915026D01*
X173221311Y-95954800D01*
X173425189Y-95954800D01*
X173625148Y-95915026D01*
X173787128Y-95847931D01*
X176010200Y-98071004D01*
X176033998Y-98100002D01*
X176062996Y-98123800D01*
X176149722Y-98194975D01*
X176281752Y-98265547D01*
X176425013Y-98309004D01*
X176536666Y-98320001D01*
X176536675Y-98320001D01*
X176573998Y-98323677D01*
X176611321Y-98320001D01*
X183797696Y-98320001D01*
X183830954Y-100622500D01*
X140505677Y-100622500D01*
X140493808Y-92240340D01*
X140497205Y-92235256D01*
X140575226Y-92046898D01*
X140615000Y-91846939D01*
X140615000Y-91643061D01*
X140575226Y-91443102D01*
X140497205Y-91254744D01*
X140492403Y-91247557D01*
X140491057Y-90296661D01*
X158496050Y-90296661D01*
X158496050Y-90500539D01*
X158535824Y-90700498D01*
X158613845Y-90888856D01*
X158727113Y-91058374D01*
X158871276Y-91202537D01*
X159040794Y-91315805D01*
X159229152Y-91393826D01*
X159429111Y-91433600D01*
X159632989Y-91433600D01*
X159832948Y-91393826D01*
X160021306Y-91315805D01*
X160190824Y-91202537D01*
X160234761Y-91158600D01*
X162135328Y-91158600D01*
X162172650Y-91162276D01*
X162209972Y-91158600D01*
X162209983Y-91158600D01*
X162321636Y-91147603D01*
X162464897Y-91104146D01*
X162596926Y-91033574D01*
X162712651Y-90938601D01*
X162736453Y-90909598D01*
X163509154Y-90136898D01*
X163538151Y-90113101D01*
X163633124Y-89997376D01*
X163703696Y-89865347D01*
X163747153Y-89722086D01*
X163758150Y-89610433D01*
X163758150Y-89610424D01*
X163761826Y-89573101D01*
X163758150Y-89535778D01*
X163758150Y-82953701D01*
X164588654Y-82123198D01*
X164617651Y-82099401D01*
X164712624Y-81983676D01*
X164783196Y-81851647D01*
X164826653Y-81708386D01*
X164837650Y-81596733D01*
X164837650Y-81596732D01*
X164841327Y-81559400D01*
X164837650Y-81522067D01*
X164837650Y-80942311D01*
X164881587Y-80898374D01*
X164994855Y-80728856D01*
X165072876Y-80540498D01*
X165112650Y-80340539D01*
X165112650Y-80278402D01*
X165293652Y-80097400D01*
X173419139Y-80097400D01*
X173463076Y-80141337D01*
X173632594Y-80254605D01*
X173820952Y-80332626D01*
X174020911Y-80372400D01*
X174224789Y-80372400D01*
X174424748Y-80332626D01*
X174613106Y-80254605D01*
X174782624Y-80141337D01*
X174926787Y-79997174D01*
X175040055Y-79827656D01*
X175118076Y-79639298D01*
X175157850Y-79439339D01*
X175157850Y-79235461D01*
X175118076Y-79035502D01*
X175040055Y-78847144D01*
X174926787Y-78677626D01*
X174782624Y-78533463D01*
X174613106Y-78420195D01*
X174424748Y-78342174D01*
X174224789Y-78302400D01*
X174020911Y-78302400D01*
X173820952Y-78342174D01*
X173632594Y-78420195D01*
X173463076Y-78533463D01*
X173419139Y-78577400D01*
X165016172Y-78577400D01*
X164978849Y-78573724D01*
X164941526Y-78577400D01*
X164941517Y-78577400D01*
X164829864Y-78588397D01*
X164686603Y-78631854D01*
X164554574Y-78702426D01*
X164438849Y-78797399D01*
X164415051Y-78826397D01*
X164037848Y-79203600D01*
X163975711Y-79203600D01*
X163775752Y-79243374D01*
X163587394Y-79321395D01*
X163417876Y-79434663D01*
X163273713Y-79578826D01*
X163160445Y-79748344D01*
X163082424Y-79936702D01*
X163042650Y-80136661D01*
X163042650Y-80340539D01*
X163082424Y-80540498D01*
X163160445Y-80728856D01*
X163273713Y-80898374D01*
X163317650Y-80942311D01*
X163317650Y-81244598D01*
X162487148Y-82075101D01*
X162458150Y-82098899D01*
X162434352Y-82127897D01*
X162434351Y-82127898D01*
X162363176Y-82214624D01*
X162292604Y-82346654D01*
X162249148Y-82489915D01*
X162234474Y-82638900D01*
X162238151Y-82676232D01*
X162238151Y-85814142D01*
X162035911Y-85679010D01*
X161765658Y-85567068D01*
X161478760Y-85510000D01*
X161186240Y-85510000D01*
X160899342Y-85567068D01*
X160629089Y-85679010D01*
X160385868Y-85841525D01*
X160179025Y-86048368D01*
X160016510Y-86291589D01*
X159904568Y-86561842D01*
X159847500Y-86848740D01*
X159847500Y-87141260D01*
X159904568Y-87428158D01*
X160016510Y-87698411D01*
X160179025Y-87941632D01*
X160385868Y-88148475D01*
X160629089Y-88310990D01*
X160899342Y-88422932D01*
X161186240Y-88480000D01*
X161478760Y-88480000D01*
X161765658Y-88422932D01*
X162035911Y-88310990D01*
X162238150Y-88175858D01*
X162238150Y-89258298D01*
X161857849Y-89638600D01*
X160234761Y-89638600D01*
X160190824Y-89594663D01*
X160021306Y-89481395D01*
X159832948Y-89403374D01*
X159632989Y-89363600D01*
X159429111Y-89363600D01*
X159229152Y-89403374D01*
X159040794Y-89481395D01*
X158871276Y-89594663D01*
X158727113Y-89738826D01*
X158613845Y-89908344D01*
X158535824Y-90096702D01*
X158496050Y-90296661D01*
X140491057Y-90296661D01*
X140486175Y-86848740D01*
X149687500Y-86848740D01*
X149687500Y-87141260D01*
X149744568Y-87428158D01*
X149856510Y-87698411D01*
X150019025Y-87941632D01*
X150225868Y-88148475D01*
X150469089Y-88310990D01*
X150739342Y-88422932D01*
X151026240Y-88480000D01*
X151318760Y-88480000D01*
X151605658Y-88422932D01*
X151875911Y-88310990D01*
X152119132Y-88148475D01*
X152325975Y-87941632D01*
X152488490Y-87698411D01*
X152600432Y-87428158D01*
X152657500Y-87141260D01*
X152657500Y-86848740D01*
X152634971Y-86735475D01*
X153617500Y-86735475D01*
X153617500Y-87254525D01*
X153718761Y-87763601D01*
X153917393Y-88243141D01*
X154205762Y-88674715D01*
X154572785Y-89041738D01*
X155004359Y-89330107D01*
X155483899Y-89528739D01*
X155992975Y-89630000D01*
X156512025Y-89630000D01*
X157021101Y-89528739D01*
X157500641Y-89330107D01*
X157932215Y-89041738D01*
X158299238Y-88674715D01*
X158587607Y-88243141D01*
X158786239Y-87763601D01*
X158887500Y-87254525D01*
X158887500Y-86735475D01*
X158786239Y-86226399D01*
X158587607Y-85746859D01*
X158299238Y-85315285D01*
X157932215Y-84948262D01*
X157500641Y-84659893D01*
X157021101Y-84461261D01*
X156512025Y-84360000D01*
X155992975Y-84360000D01*
X155483899Y-84461261D01*
X155004359Y-84659893D01*
X154572785Y-84948262D01*
X154205762Y-85315285D01*
X153917393Y-85746859D01*
X153718761Y-86226399D01*
X153617500Y-86735475D01*
X152634971Y-86735475D01*
X152600432Y-86561842D01*
X152488490Y-86291589D01*
X152420610Y-86190000D01*
X152613383Y-86190000D01*
X152948581Y-86123325D01*
X153264331Y-85992537D01*
X153548498Y-85802663D01*
X153790163Y-85560998D01*
X153980037Y-85276831D01*
X154110825Y-84961081D01*
X154177500Y-84625883D01*
X154177500Y-84284117D01*
X154110825Y-83948919D01*
X153980037Y-83633169D01*
X153790163Y-83349002D01*
X153548498Y-83107337D01*
X153264331Y-82917463D01*
X152948581Y-82786675D01*
X152613383Y-82720000D01*
X152271617Y-82720000D01*
X151936419Y-82786675D01*
X151620669Y-82917463D01*
X151336502Y-83107337D01*
X151094837Y-83349002D01*
X150904963Y-83633169D01*
X150774175Y-83948919D01*
X150707500Y-84284117D01*
X150707500Y-84625883D01*
X150774175Y-84961081D01*
X150904963Y-85276831D01*
X151060761Y-85510000D01*
X151026240Y-85510000D01*
X150739342Y-85567068D01*
X150469089Y-85679010D01*
X150225868Y-85841525D01*
X150019025Y-86048368D01*
X149856510Y-86291589D01*
X149744568Y-86561842D01*
X149687500Y-86848740D01*
X140486175Y-86848740D01*
X140472934Y-77498191D01*
X156703189Y-77850541D01*
G04 #@! TA.AperFunction,Conductor*
D20*
G36*
X156703189Y-77850541D02*
G01*
X158032501Y-79179853D01*
X158032501Y-79181288D01*
X157988563Y-79225226D01*
X157875295Y-79394744D01*
X157797274Y-79583102D01*
X157757500Y-79783061D01*
X157757500Y-79986939D01*
X157797274Y-80186898D01*
X157875295Y-80375256D01*
X157905752Y-80420839D01*
X157686502Y-80567337D01*
X157444837Y-80809002D01*
X157254963Y-81093169D01*
X157124175Y-81408919D01*
X157057500Y-81744117D01*
X157057500Y-82085883D01*
X157124175Y-82421081D01*
X157254963Y-82736831D01*
X157444837Y-83020998D01*
X157686502Y-83262663D01*
X157970669Y-83452537D01*
X158286419Y-83583325D01*
X158621617Y-83650000D01*
X158963383Y-83650000D01*
X159298581Y-83583325D01*
X159614331Y-83452537D01*
X159898498Y-83262663D01*
X160140163Y-83020998D01*
X160330037Y-82736831D01*
X160460825Y-82421081D01*
X160527500Y-82085883D01*
X160527500Y-81744117D01*
X160460825Y-81408919D01*
X160330037Y-81093169D01*
X160140163Y-80809002D01*
X159898498Y-80567337D01*
X159679248Y-80420839D01*
X159709705Y-80375256D01*
X159787726Y-80186898D01*
X159827500Y-79986939D01*
X159827500Y-79783061D01*
X159787726Y-79583102D01*
X159709705Y-79394744D01*
X159596437Y-79225226D01*
X159552500Y-79181289D01*
X159552500Y-78902375D01*
X159556176Y-78865050D01*
X159552500Y-78827725D01*
X159552500Y-78827717D01*
X159541503Y-78716064D01*
X159498046Y-78572803D01*
X159427474Y-78440774D01*
X159332501Y-78325049D01*
X159303503Y-78301251D01*
X158900495Y-77898243D01*
X176372450Y-78277549D01*
X176313080Y-78317219D01*
X176012219Y-78618080D01*
X175775833Y-78971856D01*
X175613008Y-79364951D01*
X175530000Y-79782259D01*
X175530000Y-80207741D01*
X175613008Y-80625049D01*
X175775833Y-81018144D01*
X176012219Y-81371920D01*
X176313080Y-81672781D01*
X176666856Y-81909167D01*
X177059951Y-82071992D01*
X177371429Y-82133949D01*
X177353694Y-82141295D01*
X177184176Y-82254563D01*
X177040013Y-82398726D01*
X176926745Y-82568244D01*
X176848724Y-82756602D01*
X176808950Y-82956561D01*
X176808950Y-83032794D01*
X176802286Y-83040914D01*
X176731714Y-83172944D01*
X176688258Y-83316205D01*
X176673584Y-83465190D01*
X176677261Y-83502522D01*
X176677260Y-87015089D01*
X176633323Y-87059026D01*
X176520055Y-87228544D01*
X176442034Y-87416902D01*
X176402260Y-87616861D01*
X176402260Y-87820739D01*
X176442034Y-88020698D01*
X176520055Y-88209056D01*
X176633323Y-88378574D01*
X176677260Y-88422511D01*
X176677261Y-89727037D01*
X175491299Y-90913000D01*
X175429161Y-90913000D01*
X175229202Y-90952774D01*
X175040844Y-91030795D01*
X174871326Y-91144063D01*
X174727163Y-91288226D01*
X174613895Y-91457744D01*
X174535874Y-91646102D01*
X174496100Y-91846061D01*
X174496100Y-92049939D01*
X174535874Y-92249898D01*
X174613895Y-92438256D01*
X174727163Y-92607774D01*
X174871326Y-92751937D01*
X175040844Y-92865205D01*
X175165718Y-92916930D01*
X174659449Y-93423200D01*
X164290852Y-93423200D01*
X163918850Y-93051199D01*
X163918850Y-92989061D01*
X163879076Y-92789102D01*
X163801055Y-92600744D01*
X163687787Y-92431226D01*
X163543624Y-92287063D01*
X163374106Y-92173795D01*
X163185748Y-92095774D01*
X162985789Y-92056000D01*
X162781911Y-92056000D01*
X162581952Y-92095774D01*
X162393594Y-92173795D01*
X162224076Y-92287063D01*
X162079913Y-92431226D01*
X161966645Y-92600744D01*
X161888624Y-92789102D01*
X161848850Y-92989061D01*
X161848850Y-93192939D01*
X161888624Y-93392898D01*
X161966645Y-93581256D01*
X162079913Y-93750774D01*
X162224076Y-93894937D01*
X162393594Y-94008205D01*
X162581952Y-94086226D01*
X162781911Y-94126000D01*
X162844049Y-94126000D01*
X163412251Y-94694203D01*
X163436049Y-94723201D01*
X163465047Y-94746999D01*
X163551773Y-94818174D01*
X163683803Y-94888746D01*
X163827064Y-94932203D01*
X163938717Y-94943200D01*
X163938726Y-94943200D01*
X163976049Y-94946876D01*
X164013372Y-94943200D01*
X172288250Y-94943200D01*
X172288250Y-95021739D01*
X172328024Y-95221698D01*
X172406045Y-95410056D01*
X172519313Y-95579574D01*
X172663476Y-95723737D01*
X172832994Y-95837005D01*
X173021352Y-95915026D01*
X173221311Y-95954800D01*
X173425189Y-95954800D01*
X173625148Y-95915026D01*
X173787128Y-95847931D01*
X176010200Y-98071004D01*
X176033998Y-98100002D01*
X176062996Y-98123800D01*
X176149722Y-98194975D01*
X176281752Y-98265547D01*
X176425013Y-98309004D01*
X176536666Y-98320001D01*
X176536675Y-98320001D01*
X176573998Y-98323677D01*
X176611321Y-98320001D01*
X183797696Y-98320001D01*
X183830954Y-100622500D01*
X140505677Y-100622500D01*
X140493808Y-92240340D01*
X140497205Y-92235256D01*
X140575226Y-92046898D01*
X140615000Y-91846939D01*
X140615000Y-91643061D01*
X140575226Y-91443102D01*
X140497205Y-91254744D01*
X140492403Y-91247557D01*
X140491057Y-90296661D01*
X158496050Y-90296661D01*
X158496050Y-90500539D01*
X158535824Y-90700498D01*
X158613845Y-90888856D01*
X158727113Y-91058374D01*
X158871276Y-91202537D01*
X159040794Y-91315805D01*
X159229152Y-91393826D01*
X159429111Y-91433600D01*
X159632989Y-91433600D01*
X159832948Y-91393826D01*
X160021306Y-91315805D01*
X160190824Y-91202537D01*
X160234761Y-91158600D01*
X162135328Y-91158600D01*
X162172650Y-91162276D01*
X162209972Y-91158600D01*
X162209983Y-91158600D01*
X162321636Y-91147603D01*
X162464897Y-91104146D01*
X162596926Y-91033574D01*
X162712651Y-90938601D01*
X162736453Y-90909598D01*
X163509154Y-90136898D01*
X163538151Y-90113101D01*
X163633124Y-89997376D01*
X163703696Y-89865347D01*
X163747153Y-89722086D01*
X163758150Y-89610433D01*
X163758150Y-89610424D01*
X163761826Y-89573101D01*
X163758150Y-89535778D01*
X163758150Y-82953701D01*
X164588654Y-82123198D01*
X164617651Y-82099401D01*
X164712624Y-81983676D01*
X164783196Y-81851647D01*
X164826653Y-81708386D01*
X164837650Y-81596733D01*
X164837650Y-81596732D01*
X164841327Y-81559400D01*
X164837650Y-81522067D01*
X164837650Y-80942311D01*
X164881587Y-80898374D01*
X164994855Y-80728856D01*
X165072876Y-80540498D01*
X165112650Y-80340539D01*
X165112650Y-80278402D01*
X165293652Y-80097400D01*
X173419139Y-80097400D01*
X173463076Y-80141337D01*
X173632594Y-80254605D01*
X173820952Y-80332626D01*
X174020911Y-80372400D01*
X174224789Y-80372400D01*
X174424748Y-80332626D01*
X174613106Y-80254605D01*
X174782624Y-80141337D01*
X174926787Y-79997174D01*
X175040055Y-79827656D01*
X175118076Y-79639298D01*
X175157850Y-79439339D01*
X175157850Y-79235461D01*
X175118076Y-79035502D01*
X175040055Y-78847144D01*
X174926787Y-78677626D01*
X174782624Y-78533463D01*
X174613106Y-78420195D01*
X174424748Y-78342174D01*
X174224789Y-78302400D01*
X174020911Y-78302400D01*
X173820952Y-78342174D01*
X173632594Y-78420195D01*
X173463076Y-78533463D01*
X173419139Y-78577400D01*
X165016172Y-78577400D01*
X164978849Y-78573724D01*
X164941526Y-78577400D01*
X164941517Y-78577400D01*
X164829864Y-78588397D01*
X164686603Y-78631854D01*
X164554574Y-78702426D01*
X164438849Y-78797399D01*
X164415051Y-78826397D01*
X164037848Y-79203600D01*
X163975711Y-79203600D01*
X163775752Y-79243374D01*
X163587394Y-79321395D01*
X163417876Y-79434663D01*
X163273713Y-79578826D01*
X163160445Y-79748344D01*
X163082424Y-79936702D01*
X163042650Y-80136661D01*
X163042650Y-80340539D01*
X163082424Y-80540498D01*
X163160445Y-80728856D01*
X163273713Y-80898374D01*
X163317650Y-80942311D01*
X163317650Y-81244598D01*
X162487148Y-82075101D01*
X162458150Y-82098899D01*
X162434352Y-82127897D01*
X162434351Y-82127898D01*
X162363176Y-82214624D01*
X162292604Y-82346654D01*
X162249148Y-82489915D01*
X162234474Y-82638900D01*
X162238151Y-82676232D01*
X162238151Y-85814142D01*
X162035911Y-85679010D01*
X161765658Y-85567068D01*
X161478760Y-85510000D01*
X161186240Y-85510000D01*
X160899342Y-85567068D01*
X160629089Y-85679010D01*
X160385868Y-85841525D01*
X160179025Y-86048368D01*
X160016510Y-86291589D01*
X159904568Y-86561842D01*
X159847500Y-86848740D01*
X159847500Y-87141260D01*
X159904568Y-87428158D01*
X160016510Y-87698411D01*
X160179025Y-87941632D01*
X160385868Y-88148475D01*
X160629089Y-88310990D01*
X160899342Y-88422932D01*
X161186240Y-88480000D01*
X161478760Y-88480000D01*
X161765658Y-88422932D01*
X162035911Y-88310990D01*
X162238150Y-88175858D01*
X162238150Y-89258298D01*
X161857849Y-89638600D01*
X160234761Y-89638600D01*
X160190824Y-89594663D01*
X160021306Y-89481395D01*
X159832948Y-89403374D01*
X159632989Y-89363600D01*
X159429111Y-89363600D01*
X159229152Y-89403374D01*
X159040794Y-89481395D01*
X158871276Y-89594663D01*
X158727113Y-89738826D01*
X158613845Y-89908344D01*
X158535824Y-90096702D01*
X158496050Y-90296661D01*
X140491057Y-90296661D01*
X140486175Y-86848740D01*
X149687500Y-86848740D01*
X149687500Y-87141260D01*
X149744568Y-87428158D01*
X149856510Y-87698411D01*
X150019025Y-87941632D01*
X150225868Y-88148475D01*
X150469089Y-88310990D01*
X150739342Y-88422932D01*
X151026240Y-88480000D01*
X151318760Y-88480000D01*
X151605658Y-88422932D01*
X151875911Y-88310990D01*
X152119132Y-88148475D01*
X152325975Y-87941632D01*
X152488490Y-87698411D01*
X152600432Y-87428158D01*
X152657500Y-87141260D01*
X152657500Y-86848740D01*
X152634971Y-86735475D01*
X153617500Y-86735475D01*
X153617500Y-87254525D01*
X153718761Y-87763601D01*
X153917393Y-88243141D01*
X154205762Y-88674715D01*
X154572785Y-89041738D01*
X155004359Y-89330107D01*
X155483899Y-89528739D01*
X155992975Y-89630000D01*
X156512025Y-89630000D01*
X157021101Y-89528739D01*
X157500641Y-89330107D01*
X157932215Y-89041738D01*
X158299238Y-88674715D01*
X158587607Y-88243141D01*
X158786239Y-87763601D01*
X158887500Y-87254525D01*
X158887500Y-86735475D01*
X158786239Y-86226399D01*
X158587607Y-85746859D01*
X158299238Y-85315285D01*
X157932215Y-84948262D01*
X157500641Y-84659893D01*
X157021101Y-84461261D01*
X156512025Y-84360000D01*
X155992975Y-84360000D01*
X155483899Y-84461261D01*
X155004359Y-84659893D01*
X154572785Y-84948262D01*
X154205762Y-85315285D01*
X153917393Y-85746859D01*
X153718761Y-86226399D01*
X153617500Y-86735475D01*
X152634971Y-86735475D01*
X152600432Y-86561842D01*
X152488490Y-86291589D01*
X152420610Y-86190000D01*
X152613383Y-86190000D01*
X152948581Y-86123325D01*
X153264331Y-85992537D01*
X153548498Y-85802663D01*
X153790163Y-85560998D01*
X153980037Y-85276831D01*
X154110825Y-84961081D01*
X154177500Y-84625883D01*
X154177500Y-84284117D01*
X154110825Y-83948919D01*
X153980037Y-83633169D01*
X153790163Y-83349002D01*
X153548498Y-83107337D01*
X153264331Y-82917463D01*
X152948581Y-82786675D01*
X152613383Y-82720000D01*
X152271617Y-82720000D01*
X151936419Y-82786675D01*
X151620669Y-82917463D01*
X151336502Y-83107337D01*
X151094837Y-83349002D01*
X150904963Y-83633169D01*
X150774175Y-83948919D01*
X150707500Y-84284117D01*
X150707500Y-84625883D01*
X150774175Y-84961081D01*
X150904963Y-85276831D01*
X151060761Y-85510000D01*
X151026240Y-85510000D01*
X150739342Y-85567068D01*
X150469089Y-85679010D01*
X150225868Y-85841525D01*
X150019025Y-86048368D01*
X149856510Y-86291589D01*
X149744568Y-86561842D01*
X149687500Y-86848740D01*
X140486175Y-86848740D01*
X140472934Y-77498191D01*
X156703189Y-77850541D01*
G37*
G04 #@! TD.AperFunction*
D19*
X183510432Y-78432511D02*
X183616934Y-85805733D01*
X183563368Y-85841525D01*
X183356525Y-86048368D01*
X183194010Y-86291589D01*
X183082068Y-86561842D01*
X183025000Y-86848740D01*
X183025000Y-87141260D01*
X183082068Y-87428158D01*
X183194010Y-87698411D01*
X183349284Y-87930795D01*
X178724056Y-87930795D01*
X178528559Y-87735298D01*
X178528554Y-87735292D01*
X178472260Y-87678998D01*
X178472260Y-87616861D01*
X178432486Y-87416902D01*
X178354465Y-87228544D01*
X178241197Y-87059026D01*
X178197260Y-87015089D01*
X178197260Y-84032430D01*
X178334206Y-83975705D01*
X178503724Y-83862437D01*
X178647887Y-83718274D01*
X178761155Y-83548756D01*
X178839176Y-83360398D01*
X178878950Y-83160439D01*
X178878950Y-82956561D01*
X178839176Y-82756602D01*
X178761155Y-82568244D01*
X178647887Y-82398726D01*
X178503724Y-82254563D01*
X178334206Y-82141295D01*
X178216582Y-82092573D01*
X178320049Y-82071992D01*
X178713144Y-81909167D01*
X179066920Y-81672781D01*
X179367781Y-81371920D01*
X179604167Y-81018144D01*
X179766992Y-80625049D01*
X179850000Y-80207741D01*
X179850000Y-79782259D01*
X179766992Y-79364951D01*
X179604167Y-78971856D01*
X179367781Y-78618080D01*
X179086164Y-78336463D01*
X183510432Y-78432511D01*
G04 #@! TA.AperFunction,Conductor*
D20*
G36*
X183510432Y-78432511D02*
G01*
X183616934Y-85805733D01*
X183563368Y-85841525D01*
X183356525Y-86048368D01*
X183194010Y-86291589D01*
X183082068Y-86561842D01*
X183025000Y-86848740D01*
X183025000Y-87141260D01*
X183082068Y-87428158D01*
X183194010Y-87698411D01*
X183349284Y-87930795D01*
X178724056Y-87930795D01*
X178528559Y-87735298D01*
X178528554Y-87735292D01*
X178472260Y-87678998D01*
X178472260Y-87616861D01*
X178432486Y-87416902D01*
X178354465Y-87228544D01*
X178241197Y-87059026D01*
X178197260Y-87015089D01*
X178197260Y-84032430D01*
X178334206Y-83975705D01*
X178503724Y-83862437D01*
X178647887Y-83718274D01*
X178761155Y-83548756D01*
X178839176Y-83360398D01*
X178878950Y-83160439D01*
X178878950Y-82956561D01*
X178839176Y-82756602D01*
X178761155Y-82568244D01*
X178647887Y-82398726D01*
X178503724Y-82254563D01*
X178334206Y-82141295D01*
X178216582Y-82092573D01*
X178320049Y-82071992D01*
X178713144Y-81909167D01*
X179066920Y-81672781D01*
X179367781Y-81371920D01*
X179604167Y-81018144D01*
X179766992Y-80625049D01*
X179850000Y-80207741D01*
X179850000Y-79782259D01*
X179766992Y-79364951D01*
X179604167Y-78971856D01*
X179367781Y-78618080D01*
X179086164Y-78336463D01*
X183510432Y-78432511D01*
G37*
G04 #@! TD.AperFunction*
M02*
