G04 #@! TF.GenerationSoftware,KiCad,Pcbnew,(5.1.12)-1*
G04 #@! TF.CreationDate,2021-12-20T20:21:00-08:00*
G04 #@! TF.ProjectId,logboi,6c6f6762-6f69-42e6-9b69-6361645f7063,rev?*
G04 #@! TF.SameCoordinates,Original*
G04 #@! TF.FileFunction,Paste,Bot*
G04 #@! TF.FilePolarity,Positive*
%FSLAX46Y46*%
G04 Gerber Fmt 4.6, Leading zero omitted, Abs format (unit mm)*
G04 Created by KiCad (PCBNEW (5.1.12)-1) date 2021-12-20 20:21:00*
%MOMM*%
%LPD*%
G01*
G04 APERTURE LIST*
%ADD10R,0.500000X0.500000*%
%ADD11R,1.800000X1.100000*%
%ADD12R,1.400000X1.200000*%
G04 APERTURE END LIST*
D10*
X383423750Y-89612400D03*
X383423750Y-91812400D03*
X383398350Y-70528000D03*
X383398350Y-72728000D03*
X383423750Y-51605000D03*
X383423750Y-53805000D03*
X383423750Y-32555000D03*
X383423750Y-34755000D03*
X364348350Y-89578000D03*
X364348350Y-91778000D03*
X345298350Y-89578000D03*
X345298350Y-91778000D03*
X326248350Y-89578000D03*
X326248350Y-91778000D03*
X307249150Y-89578000D03*
X307249150Y-91778000D03*
X288199150Y-89578000D03*
X288199150Y-91778000D03*
X252480400Y-89578000D03*
X252480400Y-91778000D03*
X216761650Y-89578000D03*
X216761650Y-91778000D03*
X185805400Y-89603400D03*
X185805400Y-91803400D03*
X152442500Y-89705000D03*
X152442500Y-91905000D03*
X128655400Y-89603400D03*
X128655400Y-91803400D03*
X102461650Y-89603400D03*
X102461650Y-91803400D03*
X78649150Y-89603400D03*
X78649150Y-91803400D03*
X59599150Y-89603400D03*
X59599150Y-91803400D03*
X30998750Y-89705000D03*
X30998750Y-91905000D03*
X364348350Y-70528000D03*
X364348350Y-72728000D03*
X338154600Y-70528000D03*
X338154600Y-72728000D03*
X311960850Y-70528000D03*
X311960850Y-72728000D03*
X292961650Y-70528000D03*
X292961650Y-72728000D03*
X273911650Y-70528000D03*
X273911650Y-72728000D03*
X254861650Y-70528000D03*
X254861650Y-72728000D03*
X235811650Y-70528000D03*
X235811650Y-72728000D03*
X216761650Y-70528000D03*
X216761650Y-72728000D03*
X197686250Y-70545600D03*
X197686250Y-72745600D03*
X178661650Y-70553400D03*
X178661650Y-72753400D03*
X159611650Y-70553400D03*
X159611650Y-72753400D03*
X140561650Y-70553400D03*
X140561650Y-72753400D03*
X109605400Y-70553400D03*
X109605400Y-72753400D03*
X78649150Y-70553400D03*
X78649150Y-72753400D03*
X59599150Y-70553400D03*
X59599150Y-72753400D03*
X40523750Y-70578800D03*
X40523750Y-72778800D03*
X21473750Y-70578800D03*
X21473750Y-72778800D03*
X352467500Y-51503400D03*
X352467500Y-53703400D03*
X321511250Y-51503400D03*
X321511250Y-53703400D03*
X302461250Y-51503400D03*
X302461250Y-53703400D03*
X283411250Y-51503400D03*
X283411250Y-53703400D03*
X264361250Y-51503400D03*
X264361250Y-53703400D03*
X245311250Y-51503400D03*
X245311250Y-53703400D03*
X226261250Y-51503400D03*
X226261250Y-53703400D03*
X207211250Y-51503400D03*
X207211250Y-53703400D03*
X188161250Y-51503400D03*
X188161250Y-53703400D03*
X169111250Y-51503400D03*
X169111250Y-53703400D03*
X150061250Y-51503400D03*
X150061250Y-53703400D03*
X131011250Y-51503400D03*
X131011250Y-53703400D03*
X104817500Y-51503400D03*
X104817500Y-53703400D03*
X78598350Y-51503400D03*
X78598350Y-53703400D03*
X59548350Y-51503400D03*
X59548350Y-53703400D03*
X40498350Y-51503400D03*
X40498350Y-53703400D03*
X21448350Y-51503400D03*
X21448350Y-53703400D03*
X359611250Y-32555000D03*
X359611250Y-34755000D03*
X335798750Y-32453400D03*
X335798750Y-34653400D03*
X316748750Y-32453400D03*
X316748750Y-34653400D03*
X297698750Y-32453400D03*
X297698750Y-34653400D03*
X278648750Y-32453400D03*
X278648750Y-34653400D03*
X259598750Y-32453400D03*
X259598750Y-34653400D03*
X240548750Y-32453400D03*
X240548750Y-34653400D03*
X221498750Y-32453400D03*
X221498750Y-34653400D03*
X202448750Y-32453400D03*
X202448750Y-34653400D03*
X183398750Y-32453400D03*
X183398750Y-34653400D03*
X164348750Y-32453400D03*
X164348750Y-34653400D03*
X145298750Y-32453400D03*
X145298750Y-34653400D03*
X126248750Y-32453400D03*
X126248750Y-34653400D03*
X102436250Y-32453400D03*
X102436250Y-34653400D03*
X78623750Y-32453400D03*
X78623750Y-34653400D03*
X59573750Y-32453400D03*
X59573750Y-34653400D03*
X40523750Y-32453400D03*
X40523750Y-34653400D03*
X21473750Y-32453400D03*
X21473750Y-34653400D03*
G36*
G01*
X348674850Y-33794400D02*
X347424850Y-33794400D01*
G75*
G02*
X347174850Y-33544400I0J250000D01*
G01*
X347174850Y-32794400D01*
G75*
G02*
X347424850Y-32544400I250000J0D01*
G01*
X348674850Y-32544400D01*
G75*
G02*
X348924850Y-32794400I0J-250000D01*
G01*
X348924850Y-33544400D01*
G75*
G02*
X348674850Y-33794400I-250000J0D01*
G01*
G37*
G36*
G01*
X348674850Y-36594400D02*
X347424850Y-36594400D01*
G75*
G02*
X347174850Y-36344400I0J250000D01*
G01*
X347174850Y-35594400D01*
G75*
G02*
X347424850Y-35344400I250000J0D01*
G01*
X348674850Y-35344400D01*
G75*
G02*
X348924850Y-35594400I0J-250000D01*
G01*
X348924850Y-36344400D01*
G75*
G02*
X348674850Y-36594400I-250000J0D01*
G01*
G37*
D11*
X201808250Y-85363000D03*
X208008250Y-89063000D03*
X201808250Y-89063000D03*
X208008250Y-85363000D03*
D12*
X162069100Y-98552000D03*
X164269100Y-98552000D03*
X164269100Y-96852000D03*
X162069100Y-96852000D03*
G36*
G01*
X168587850Y-88703800D02*
X168587850Y-89333800D01*
G75*
G02*
X168337850Y-89583800I-250000J0D01*
G01*
X167707850Y-89583800D01*
G75*
G02*
X167457850Y-89333800I0J250000D01*
G01*
X167457850Y-88703800D01*
G75*
G02*
X167707850Y-88453800I250000J0D01*
G01*
X168337850Y-88453800D01*
G75*
G02*
X168587850Y-88703800I0J-250000D01*
G01*
G37*
G36*
G01*
X168587850Y-87303800D02*
X168587850Y-87933800D01*
G75*
G02*
X168337850Y-88183800I-250000J0D01*
G01*
X167707850Y-88183800D01*
G75*
G02*
X167457850Y-87933800I0J250000D01*
G01*
X167457850Y-87303800D01*
G75*
G02*
X167707850Y-87053800I250000J0D01*
G01*
X168337850Y-87053800D01*
G75*
G02*
X168587850Y-87303800I0J-250000D01*
G01*
G37*
G36*
G01*
X168587850Y-85903800D02*
X168587850Y-86533800D01*
G75*
G02*
X168337850Y-86783800I-250000J0D01*
G01*
X167707850Y-86783800D01*
G75*
G02*
X167457850Y-86533800I0J250000D01*
G01*
X167457850Y-85903800D01*
G75*
G02*
X167707850Y-85653800I250000J0D01*
G01*
X168337850Y-85653800D01*
G75*
G02*
X168587850Y-85903800I0J-250000D01*
G01*
G37*
G36*
G01*
X168587850Y-84503800D02*
X168587850Y-85133800D01*
G75*
G02*
X168337850Y-85383800I-250000J0D01*
G01*
X167707850Y-85383800D01*
G75*
G02*
X167457850Y-85133800I0J250000D01*
G01*
X167457850Y-84503800D01*
G75*
G02*
X167707850Y-84253800I250000J0D01*
G01*
X168337850Y-84253800D01*
G75*
G02*
X168587850Y-84503800I0J-250000D01*
G01*
G37*
G36*
G01*
X169987850Y-88703800D02*
X169987850Y-89333800D01*
G75*
G02*
X169737850Y-89583800I-250000J0D01*
G01*
X169107850Y-89583800D01*
G75*
G02*
X168857850Y-89333800I0J250000D01*
G01*
X168857850Y-88703800D01*
G75*
G02*
X169107850Y-88453800I250000J0D01*
G01*
X169737850Y-88453800D01*
G75*
G02*
X169987850Y-88703800I0J-250000D01*
G01*
G37*
G36*
G01*
X169987850Y-87303800D02*
X169987850Y-87933800D01*
G75*
G02*
X169737850Y-88183800I-250000J0D01*
G01*
X169107850Y-88183800D01*
G75*
G02*
X168857850Y-87933800I0J250000D01*
G01*
X168857850Y-87303800D01*
G75*
G02*
X169107850Y-87053800I250000J0D01*
G01*
X169737850Y-87053800D01*
G75*
G02*
X169987850Y-87303800I0J-250000D01*
G01*
G37*
G36*
G01*
X169987850Y-85903800D02*
X169987850Y-86533800D01*
G75*
G02*
X169737850Y-86783800I-250000J0D01*
G01*
X169107850Y-86783800D01*
G75*
G02*
X168857850Y-86533800I0J250000D01*
G01*
X168857850Y-85903800D01*
G75*
G02*
X169107850Y-85653800I250000J0D01*
G01*
X169737850Y-85653800D01*
G75*
G02*
X169987850Y-85903800I0J-250000D01*
G01*
G37*
G36*
G01*
X169987850Y-84503800D02*
X169987850Y-85133800D01*
G75*
G02*
X169737850Y-85383800I-250000J0D01*
G01*
X169107850Y-85383800D01*
G75*
G02*
X168857850Y-85133800I0J250000D01*
G01*
X168857850Y-84503800D01*
G75*
G02*
X169107850Y-84253800I250000J0D01*
G01*
X169737850Y-84253800D01*
G75*
G02*
X169987850Y-84503800I0J-250000D01*
G01*
G37*
G36*
G01*
X171387850Y-88703800D02*
X171387850Y-89333800D01*
G75*
G02*
X171137850Y-89583800I-250000J0D01*
G01*
X170507850Y-89583800D01*
G75*
G02*
X170257850Y-89333800I0J250000D01*
G01*
X170257850Y-88703800D01*
G75*
G02*
X170507850Y-88453800I250000J0D01*
G01*
X171137850Y-88453800D01*
G75*
G02*
X171387850Y-88703800I0J-250000D01*
G01*
G37*
G36*
G01*
X171387850Y-87303800D02*
X171387850Y-87933800D01*
G75*
G02*
X171137850Y-88183800I-250000J0D01*
G01*
X170507850Y-88183800D01*
G75*
G02*
X170257850Y-87933800I0J250000D01*
G01*
X170257850Y-87303800D01*
G75*
G02*
X170507850Y-87053800I250000J0D01*
G01*
X171137850Y-87053800D01*
G75*
G02*
X171387850Y-87303800I0J-250000D01*
G01*
G37*
G36*
G01*
X171387850Y-85903800D02*
X171387850Y-86533800D01*
G75*
G02*
X171137850Y-86783800I-250000J0D01*
G01*
X170507850Y-86783800D01*
G75*
G02*
X170257850Y-86533800I0J250000D01*
G01*
X170257850Y-85903800D01*
G75*
G02*
X170507850Y-85653800I250000J0D01*
G01*
X171137850Y-85653800D01*
G75*
G02*
X171387850Y-85903800I0J-250000D01*
G01*
G37*
G36*
G01*
X171387850Y-84503800D02*
X171387850Y-85133800D01*
G75*
G02*
X171137850Y-85383800I-250000J0D01*
G01*
X170507850Y-85383800D01*
G75*
G02*
X170257850Y-85133800I0J250000D01*
G01*
X170257850Y-84503800D01*
G75*
G02*
X170507850Y-84253800I250000J0D01*
G01*
X171137850Y-84253800D01*
G75*
G02*
X171387850Y-84503800I0J-250000D01*
G01*
G37*
G36*
G01*
X172787850Y-88703800D02*
X172787850Y-89333800D01*
G75*
G02*
X172537850Y-89583800I-250000J0D01*
G01*
X171907850Y-89583800D01*
G75*
G02*
X171657850Y-89333800I0J250000D01*
G01*
X171657850Y-88703800D01*
G75*
G02*
X171907850Y-88453800I250000J0D01*
G01*
X172537850Y-88453800D01*
G75*
G02*
X172787850Y-88703800I0J-250000D01*
G01*
G37*
G36*
G01*
X172787850Y-87303800D02*
X172787850Y-87933800D01*
G75*
G02*
X172537850Y-88183800I-250000J0D01*
G01*
X171907850Y-88183800D01*
G75*
G02*
X171657850Y-87933800I0J250000D01*
G01*
X171657850Y-87303800D01*
G75*
G02*
X171907850Y-87053800I250000J0D01*
G01*
X172537850Y-87053800D01*
G75*
G02*
X172787850Y-87303800I0J-250000D01*
G01*
G37*
G36*
G01*
X172787850Y-85903800D02*
X172787850Y-86533800D01*
G75*
G02*
X172537850Y-86783800I-250000J0D01*
G01*
X171907850Y-86783800D01*
G75*
G02*
X171657850Y-86533800I0J250000D01*
G01*
X171657850Y-85903800D01*
G75*
G02*
X171907850Y-85653800I250000J0D01*
G01*
X172537850Y-85653800D01*
G75*
G02*
X172787850Y-85903800I0J-250000D01*
G01*
G37*
G36*
G01*
X172787850Y-84503800D02*
X172787850Y-85133800D01*
G75*
G02*
X172537850Y-85383800I-250000J0D01*
G01*
X171907850Y-85383800D01*
G75*
G02*
X171657850Y-85133800I0J250000D01*
G01*
X171657850Y-84503800D01*
G75*
G02*
X171907850Y-84253800I250000J0D01*
G01*
X172537850Y-84253800D01*
G75*
G02*
X172787850Y-84503800I0J-250000D01*
G01*
G37*
G36*
G01*
X172997850Y-83106300D02*
X172997850Y-83856300D01*
G75*
G02*
X172935350Y-83918800I-62500J0D01*
G01*
X172810350Y-83918800D01*
G75*
G02*
X172747850Y-83856300I0J62500D01*
G01*
X172747850Y-83106300D01*
G75*
G02*
X172810350Y-83043800I62500J0D01*
G01*
X172935350Y-83043800D01*
G75*
G02*
X172997850Y-83106300I0J-62500D01*
G01*
G37*
G36*
G01*
X172497850Y-83106300D02*
X172497850Y-83856300D01*
G75*
G02*
X172435350Y-83918800I-62500J0D01*
G01*
X172310350Y-83918800D01*
G75*
G02*
X172247850Y-83856300I0J62500D01*
G01*
X172247850Y-83106300D01*
G75*
G02*
X172310350Y-83043800I62500J0D01*
G01*
X172435350Y-83043800D01*
G75*
G02*
X172497850Y-83106300I0J-62500D01*
G01*
G37*
G36*
G01*
X171997850Y-83106300D02*
X171997850Y-83856300D01*
G75*
G02*
X171935350Y-83918800I-62500J0D01*
G01*
X171810350Y-83918800D01*
G75*
G02*
X171747850Y-83856300I0J62500D01*
G01*
X171747850Y-83106300D01*
G75*
G02*
X171810350Y-83043800I62500J0D01*
G01*
X171935350Y-83043800D01*
G75*
G02*
X171997850Y-83106300I0J-62500D01*
G01*
G37*
G36*
G01*
X171497850Y-83106300D02*
X171497850Y-83856300D01*
G75*
G02*
X171435350Y-83918800I-62500J0D01*
G01*
X171310350Y-83918800D01*
G75*
G02*
X171247850Y-83856300I0J62500D01*
G01*
X171247850Y-83106300D01*
G75*
G02*
X171310350Y-83043800I62500J0D01*
G01*
X171435350Y-83043800D01*
G75*
G02*
X171497850Y-83106300I0J-62500D01*
G01*
G37*
G36*
G01*
X170997850Y-83106300D02*
X170997850Y-83856300D01*
G75*
G02*
X170935350Y-83918800I-62500J0D01*
G01*
X170810350Y-83918800D01*
G75*
G02*
X170747850Y-83856300I0J62500D01*
G01*
X170747850Y-83106300D01*
G75*
G02*
X170810350Y-83043800I62500J0D01*
G01*
X170935350Y-83043800D01*
G75*
G02*
X170997850Y-83106300I0J-62500D01*
G01*
G37*
G36*
G01*
X170497850Y-83106300D02*
X170497850Y-83856300D01*
G75*
G02*
X170435350Y-83918800I-62500J0D01*
G01*
X170310350Y-83918800D01*
G75*
G02*
X170247850Y-83856300I0J62500D01*
G01*
X170247850Y-83106300D01*
G75*
G02*
X170310350Y-83043800I62500J0D01*
G01*
X170435350Y-83043800D01*
G75*
G02*
X170497850Y-83106300I0J-62500D01*
G01*
G37*
G36*
G01*
X169997850Y-83106300D02*
X169997850Y-83856300D01*
G75*
G02*
X169935350Y-83918800I-62500J0D01*
G01*
X169810350Y-83918800D01*
G75*
G02*
X169747850Y-83856300I0J62500D01*
G01*
X169747850Y-83106300D01*
G75*
G02*
X169810350Y-83043800I62500J0D01*
G01*
X169935350Y-83043800D01*
G75*
G02*
X169997850Y-83106300I0J-62500D01*
G01*
G37*
G36*
G01*
X169497850Y-83106300D02*
X169497850Y-83856300D01*
G75*
G02*
X169435350Y-83918800I-62500J0D01*
G01*
X169310350Y-83918800D01*
G75*
G02*
X169247850Y-83856300I0J62500D01*
G01*
X169247850Y-83106300D01*
G75*
G02*
X169310350Y-83043800I62500J0D01*
G01*
X169435350Y-83043800D01*
G75*
G02*
X169497850Y-83106300I0J-62500D01*
G01*
G37*
G36*
G01*
X168997850Y-83106300D02*
X168997850Y-83856300D01*
G75*
G02*
X168935350Y-83918800I-62500J0D01*
G01*
X168810350Y-83918800D01*
G75*
G02*
X168747850Y-83856300I0J62500D01*
G01*
X168747850Y-83106300D01*
G75*
G02*
X168810350Y-83043800I62500J0D01*
G01*
X168935350Y-83043800D01*
G75*
G02*
X168997850Y-83106300I0J-62500D01*
G01*
G37*
G36*
G01*
X168497850Y-83106300D02*
X168497850Y-83856300D01*
G75*
G02*
X168435350Y-83918800I-62500J0D01*
G01*
X168310350Y-83918800D01*
G75*
G02*
X168247850Y-83856300I0J62500D01*
G01*
X168247850Y-83106300D01*
G75*
G02*
X168310350Y-83043800I62500J0D01*
G01*
X168435350Y-83043800D01*
G75*
G02*
X168497850Y-83106300I0J-62500D01*
G01*
G37*
G36*
G01*
X167997850Y-83106300D02*
X167997850Y-83856300D01*
G75*
G02*
X167935350Y-83918800I-62500J0D01*
G01*
X167810350Y-83918800D01*
G75*
G02*
X167747850Y-83856300I0J62500D01*
G01*
X167747850Y-83106300D01*
G75*
G02*
X167810350Y-83043800I62500J0D01*
G01*
X167935350Y-83043800D01*
G75*
G02*
X167997850Y-83106300I0J-62500D01*
G01*
G37*
G36*
G01*
X167497850Y-83106300D02*
X167497850Y-83856300D01*
G75*
G02*
X167435350Y-83918800I-62500J0D01*
G01*
X167310350Y-83918800D01*
G75*
G02*
X167247850Y-83856300I0J62500D01*
G01*
X167247850Y-83106300D01*
G75*
G02*
X167310350Y-83043800I62500J0D01*
G01*
X167435350Y-83043800D01*
G75*
G02*
X167497850Y-83106300I0J-62500D01*
G01*
G37*
G36*
G01*
X167122850Y-84106300D02*
X167122850Y-84231300D01*
G75*
G02*
X167060350Y-84293800I-62500J0D01*
G01*
X166310350Y-84293800D01*
G75*
G02*
X166247850Y-84231300I0J62500D01*
G01*
X166247850Y-84106300D01*
G75*
G02*
X166310350Y-84043800I62500J0D01*
G01*
X167060350Y-84043800D01*
G75*
G02*
X167122850Y-84106300I0J-62500D01*
G01*
G37*
G36*
G01*
X167122850Y-84606300D02*
X167122850Y-84731300D01*
G75*
G02*
X167060350Y-84793800I-62500J0D01*
G01*
X166310350Y-84793800D01*
G75*
G02*
X166247850Y-84731300I0J62500D01*
G01*
X166247850Y-84606300D01*
G75*
G02*
X166310350Y-84543800I62500J0D01*
G01*
X167060350Y-84543800D01*
G75*
G02*
X167122850Y-84606300I0J-62500D01*
G01*
G37*
G36*
G01*
X167122850Y-85106300D02*
X167122850Y-85231300D01*
G75*
G02*
X167060350Y-85293800I-62500J0D01*
G01*
X166310350Y-85293800D01*
G75*
G02*
X166247850Y-85231300I0J62500D01*
G01*
X166247850Y-85106300D01*
G75*
G02*
X166310350Y-85043800I62500J0D01*
G01*
X167060350Y-85043800D01*
G75*
G02*
X167122850Y-85106300I0J-62500D01*
G01*
G37*
G36*
G01*
X167122850Y-85606300D02*
X167122850Y-85731300D01*
G75*
G02*
X167060350Y-85793800I-62500J0D01*
G01*
X166310350Y-85793800D01*
G75*
G02*
X166247850Y-85731300I0J62500D01*
G01*
X166247850Y-85606300D01*
G75*
G02*
X166310350Y-85543800I62500J0D01*
G01*
X167060350Y-85543800D01*
G75*
G02*
X167122850Y-85606300I0J-62500D01*
G01*
G37*
G36*
G01*
X167122850Y-86106300D02*
X167122850Y-86231300D01*
G75*
G02*
X167060350Y-86293800I-62500J0D01*
G01*
X166310350Y-86293800D01*
G75*
G02*
X166247850Y-86231300I0J62500D01*
G01*
X166247850Y-86106300D01*
G75*
G02*
X166310350Y-86043800I62500J0D01*
G01*
X167060350Y-86043800D01*
G75*
G02*
X167122850Y-86106300I0J-62500D01*
G01*
G37*
G36*
G01*
X167122850Y-86606300D02*
X167122850Y-86731300D01*
G75*
G02*
X167060350Y-86793800I-62500J0D01*
G01*
X166310350Y-86793800D01*
G75*
G02*
X166247850Y-86731300I0J62500D01*
G01*
X166247850Y-86606300D01*
G75*
G02*
X166310350Y-86543800I62500J0D01*
G01*
X167060350Y-86543800D01*
G75*
G02*
X167122850Y-86606300I0J-62500D01*
G01*
G37*
G36*
G01*
X167122850Y-87106300D02*
X167122850Y-87231300D01*
G75*
G02*
X167060350Y-87293800I-62500J0D01*
G01*
X166310350Y-87293800D01*
G75*
G02*
X166247850Y-87231300I0J62500D01*
G01*
X166247850Y-87106300D01*
G75*
G02*
X166310350Y-87043800I62500J0D01*
G01*
X167060350Y-87043800D01*
G75*
G02*
X167122850Y-87106300I0J-62500D01*
G01*
G37*
G36*
G01*
X167122850Y-87606300D02*
X167122850Y-87731300D01*
G75*
G02*
X167060350Y-87793800I-62500J0D01*
G01*
X166310350Y-87793800D01*
G75*
G02*
X166247850Y-87731300I0J62500D01*
G01*
X166247850Y-87606300D01*
G75*
G02*
X166310350Y-87543800I62500J0D01*
G01*
X167060350Y-87543800D01*
G75*
G02*
X167122850Y-87606300I0J-62500D01*
G01*
G37*
G36*
G01*
X167122850Y-88106300D02*
X167122850Y-88231300D01*
G75*
G02*
X167060350Y-88293800I-62500J0D01*
G01*
X166310350Y-88293800D01*
G75*
G02*
X166247850Y-88231300I0J62500D01*
G01*
X166247850Y-88106300D01*
G75*
G02*
X166310350Y-88043800I62500J0D01*
G01*
X167060350Y-88043800D01*
G75*
G02*
X167122850Y-88106300I0J-62500D01*
G01*
G37*
G36*
G01*
X167122850Y-88606300D02*
X167122850Y-88731300D01*
G75*
G02*
X167060350Y-88793800I-62500J0D01*
G01*
X166310350Y-88793800D01*
G75*
G02*
X166247850Y-88731300I0J62500D01*
G01*
X166247850Y-88606300D01*
G75*
G02*
X166310350Y-88543800I62500J0D01*
G01*
X167060350Y-88543800D01*
G75*
G02*
X167122850Y-88606300I0J-62500D01*
G01*
G37*
G36*
G01*
X167122850Y-89106300D02*
X167122850Y-89231300D01*
G75*
G02*
X167060350Y-89293800I-62500J0D01*
G01*
X166310350Y-89293800D01*
G75*
G02*
X166247850Y-89231300I0J62500D01*
G01*
X166247850Y-89106300D01*
G75*
G02*
X166310350Y-89043800I62500J0D01*
G01*
X167060350Y-89043800D01*
G75*
G02*
X167122850Y-89106300I0J-62500D01*
G01*
G37*
G36*
G01*
X167122850Y-89606300D02*
X167122850Y-89731300D01*
G75*
G02*
X167060350Y-89793800I-62500J0D01*
G01*
X166310350Y-89793800D01*
G75*
G02*
X166247850Y-89731300I0J62500D01*
G01*
X166247850Y-89606300D01*
G75*
G02*
X166310350Y-89543800I62500J0D01*
G01*
X167060350Y-89543800D01*
G75*
G02*
X167122850Y-89606300I0J-62500D01*
G01*
G37*
G36*
G01*
X167497850Y-89981300D02*
X167497850Y-90731300D01*
G75*
G02*
X167435350Y-90793800I-62500J0D01*
G01*
X167310350Y-90793800D01*
G75*
G02*
X167247850Y-90731300I0J62500D01*
G01*
X167247850Y-89981300D01*
G75*
G02*
X167310350Y-89918800I62500J0D01*
G01*
X167435350Y-89918800D01*
G75*
G02*
X167497850Y-89981300I0J-62500D01*
G01*
G37*
G36*
G01*
X167997850Y-89981300D02*
X167997850Y-90731300D01*
G75*
G02*
X167935350Y-90793800I-62500J0D01*
G01*
X167810350Y-90793800D01*
G75*
G02*
X167747850Y-90731300I0J62500D01*
G01*
X167747850Y-89981300D01*
G75*
G02*
X167810350Y-89918800I62500J0D01*
G01*
X167935350Y-89918800D01*
G75*
G02*
X167997850Y-89981300I0J-62500D01*
G01*
G37*
G36*
G01*
X168497850Y-89981300D02*
X168497850Y-90731300D01*
G75*
G02*
X168435350Y-90793800I-62500J0D01*
G01*
X168310350Y-90793800D01*
G75*
G02*
X168247850Y-90731300I0J62500D01*
G01*
X168247850Y-89981300D01*
G75*
G02*
X168310350Y-89918800I62500J0D01*
G01*
X168435350Y-89918800D01*
G75*
G02*
X168497850Y-89981300I0J-62500D01*
G01*
G37*
G36*
G01*
X168997850Y-89981300D02*
X168997850Y-90731300D01*
G75*
G02*
X168935350Y-90793800I-62500J0D01*
G01*
X168810350Y-90793800D01*
G75*
G02*
X168747850Y-90731300I0J62500D01*
G01*
X168747850Y-89981300D01*
G75*
G02*
X168810350Y-89918800I62500J0D01*
G01*
X168935350Y-89918800D01*
G75*
G02*
X168997850Y-89981300I0J-62500D01*
G01*
G37*
G36*
G01*
X169497850Y-89981300D02*
X169497850Y-90731300D01*
G75*
G02*
X169435350Y-90793800I-62500J0D01*
G01*
X169310350Y-90793800D01*
G75*
G02*
X169247850Y-90731300I0J62500D01*
G01*
X169247850Y-89981300D01*
G75*
G02*
X169310350Y-89918800I62500J0D01*
G01*
X169435350Y-89918800D01*
G75*
G02*
X169497850Y-89981300I0J-62500D01*
G01*
G37*
G36*
G01*
X169997850Y-89981300D02*
X169997850Y-90731300D01*
G75*
G02*
X169935350Y-90793800I-62500J0D01*
G01*
X169810350Y-90793800D01*
G75*
G02*
X169747850Y-90731300I0J62500D01*
G01*
X169747850Y-89981300D01*
G75*
G02*
X169810350Y-89918800I62500J0D01*
G01*
X169935350Y-89918800D01*
G75*
G02*
X169997850Y-89981300I0J-62500D01*
G01*
G37*
G36*
G01*
X170497850Y-89981300D02*
X170497850Y-90731300D01*
G75*
G02*
X170435350Y-90793800I-62500J0D01*
G01*
X170310350Y-90793800D01*
G75*
G02*
X170247850Y-90731300I0J62500D01*
G01*
X170247850Y-89981300D01*
G75*
G02*
X170310350Y-89918800I62500J0D01*
G01*
X170435350Y-89918800D01*
G75*
G02*
X170497850Y-89981300I0J-62500D01*
G01*
G37*
G36*
G01*
X170997850Y-89981300D02*
X170997850Y-90731300D01*
G75*
G02*
X170935350Y-90793800I-62500J0D01*
G01*
X170810350Y-90793800D01*
G75*
G02*
X170747850Y-90731300I0J62500D01*
G01*
X170747850Y-89981300D01*
G75*
G02*
X170810350Y-89918800I62500J0D01*
G01*
X170935350Y-89918800D01*
G75*
G02*
X170997850Y-89981300I0J-62500D01*
G01*
G37*
G36*
G01*
X171497850Y-89981300D02*
X171497850Y-90731300D01*
G75*
G02*
X171435350Y-90793800I-62500J0D01*
G01*
X171310350Y-90793800D01*
G75*
G02*
X171247850Y-90731300I0J62500D01*
G01*
X171247850Y-89981300D01*
G75*
G02*
X171310350Y-89918800I62500J0D01*
G01*
X171435350Y-89918800D01*
G75*
G02*
X171497850Y-89981300I0J-62500D01*
G01*
G37*
G36*
G01*
X171997850Y-89981300D02*
X171997850Y-90731300D01*
G75*
G02*
X171935350Y-90793800I-62500J0D01*
G01*
X171810350Y-90793800D01*
G75*
G02*
X171747850Y-90731300I0J62500D01*
G01*
X171747850Y-89981300D01*
G75*
G02*
X171810350Y-89918800I62500J0D01*
G01*
X171935350Y-89918800D01*
G75*
G02*
X171997850Y-89981300I0J-62500D01*
G01*
G37*
G36*
G01*
X172497850Y-89981300D02*
X172497850Y-90731300D01*
G75*
G02*
X172435350Y-90793800I-62500J0D01*
G01*
X172310350Y-90793800D01*
G75*
G02*
X172247850Y-90731300I0J62500D01*
G01*
X172247850Y-89981300D01*
G75*
G02*
X172310350Y-89918800I62500J0D01*
G01*
X172435350Y-89918800D01*
G75*
G02*
X172497850Y-89981300I0J-62500D01*
G01*
G37*
G36*
G01*
X172997850Y-89981300D02*
X172997850Y-90731300D01*
G75*
G02*
X172935350Y-90793800I-62500J0D01*
G01*
X172810350Y-90793800D01*
G75*
G02*
X172747850Y-90731300I0J62500D01*
G01*
X172747850Y-89981300D01*
G75*
G02*
X172810350Y-89918800I62500J0D01*
G01*
X172935350Y-89918800D01*
G75*
G02*
X172997850Y-89981300I0J-62500D01*
G01*
G37*
G36*
G01*
X173997850Y-89606300D02*
X173997850Y-89731300D01*
G75*
G02*
X173935350Y-89793800I-62500J0D01*
G01*
X173185350Y-89793800D01*
G75*
G02*
X173122850Y-89731300I0J62500D01*
G01*
X173122850Y-89606300D01*
G75*
G02*
X173185350Y-89543800I62500J0D01*
G01*
X173935350Y-89543800D01*
G75*
G02*
X173997850Y-89606300I0J-62500D01*
G01*
G37*
G36*
G01*
X173997850Y-89106300D02*
X173997850Y-89231300D01*
G75*
G02*
X173935350Y-89293800I-62500J0D01*
G01*
X173185350Y-89293800D01*
G75*
G02*
X173122850Y-89231300I0J62500D01*
G01*
X173122850Y-89106300D01*
G75*
G02*
X173185350Y-89043800I62500J0D01*
G01*
X173935350Y-89043800D01*
G75*
G02*
X173997850Y-89106300I0J-62500D01*
G01*
G37*
G36*
G01*
X173997850Y-88606300D02*
X173997850Y-88731300D01*
G75*
G02*
X173935350Y-88793800I-62500J0D01*
G01*
X173185350Y-88793800D01*
G75*
G02*
X173122850Y-88731300I0J62500D01*
G01*
X173122850Y-88606300D01*
G75*
G02*
X173185350Y-88543800I62500J0D01*
G01*
X173935350Y-88543800D01*
G75*
G02*
X173997850Y-88606300I0J-62500D01*
G01*
G37*
G36*
G01*
X173997850Y-88106300D02*
X173997850Y-88231300D01*
G75*
G02*
X173935350Y-88293800I-62500J0D01*
G01*
X173185350Y-88293800D01*
G75*
G02*
X173122850Y-88231300I0J62500D01*
G01*
X173122850Y-88106300D01*
G75*
G02*
X173185350Y-88043800I62500J0D01*
G01*
X173935350Y-88043800D01*
G75*
G02*
X173997850Y-88106300I0J-62500D01*
G01*
G37*
G36*
G01*
X173997850Y-87606300D02*
X173997850Y-87731300D01*
G75*
G02*
X173935350Y-87793800I-62500J0D01*
G01*
X173185350Y-87793800D01*
G75*
G02*
X173122850Y-87731300I0J62500D01*
G01*
X173122850Y-87606300D01*
G75*
G02*
X173185350Y-87543800I62500J0D01*
G01*
X173935350Y-87543800D01*
G75*
G02*
X173997850Y-87606300I0J-62500D01*
G01*
G37*
G36*
G01*
X173997850Y-87106300D02*
X173997850Y-87231300D01*
G75*
G02*
X173935350Y-87293800I-62500J0D01*
G01*
X173185350Y-87293800D01*
G75*
G02*
X173122850Y-87231300I0J62500D01*
G01*
X173122850Y-87106300D01*
G75*
G02*
X173185350Y-87043800I62500J0D01*
G01*
X173935350Y-87043800D01*
G75*
G02*
X173997850Y-87106300I0J-62500D01*
G01*
G37*
G36*
G01*
X173997850Y-86606300D02*
X173997850Y-86731300D01*
G75*
G02*
X173935350Y-86793800I-62500J0D01*
G01*
X173185350Y-86793800D01*
G75*
G02*
X173122850Y-86731300I0J62500D01*
G01*
X173122850Y-86606300D01*
G75*
G02*
X173185350Y-86543800I62500J0D01*
G01*
X173935350Y-86543800D01*
G75*
G02*
X173997850Y-86606300I0J-62500D01*
G01*
G37*
G36*
G01*
X173997850Y-86106300D02*
X173997850Y-86231300D01*
G75*
G02*
X173935350Y-86293800I-62500J0D01*
G01*
X173185350Y-86293800D01*
G75*
G02*
X173122850Y-86231300I0J62500D01*
G01*
X173122850Y-86106300D01*
G75*
G02*
X173185350Y-86043800I62500J0D01*
G01*
X173935350Y-86043800D01*
G75*
G02*
X173997850Y-86106300I0J-62500D01*
G01*
G37*
G36*
G01*
X173997850Y-85606300D02*
X173997850Y-85731300D01*
G75*
G02*
X173935350Y-85793800I-62500J0D01*
G01*
X173185350Y-85793800D01*
G75*
G02*
X173122850Y-85731300I0J62500D01*
G01*
X173122850Y-85606300D01*
G75*
G02*
X173185350Y-85543800I62500J0D01*
G01*
X173935350Y-85543800D01*
G75*
G02*
X173997850Y-85606300I0J-62500D01*
G01*
G37*
G36*
G01*
X173997850Y-85106300D02*
X173997850Y-85231300D01*
G75*
G02*
X173935350Y-85293800I-62500J0D01*
G01*
X173185350Y-85293800D01*
G75*
G02*
X173122850Y-85231300I0J62500D01*
G01*
X173122850Y-85106300D01*
G75*
G02*
X173185350Y-85043800I62500J0D01*
G01*
X173935350Y-85043800D01*
G75*
G02*
X173997850Y-85106300I0J-62500D01*
G01*
G37*
G36*
G01*
X173997850Y-84606300D02*
X173997850Y-84731300D01*
G75*
G02*
X173935350Y-84793800I-62500J0D01*
G01*
X173185350Y-84793800D01*
G75*
G02*
X173122850Y-84731300I0J62500D01*
G01*
X173122850Y-84606300D01*
G75*
G02*
X173185350Y-84543800I62500J0D01*
G01*
X173935350Y-84543800D01*
G75*
G02*
X173997850Y-84606300I0J-62500D01*
G01*
G37*
G36*
G01*
X173997850Y-84106300D02*
X173997850Y-84231300D01*
G75*
G02*
X173935350Y-84293800I-62500J0D01*
G01*
X173185350Y-84293800D01*
G75*
G02*
X173122850Y-84231300I0J62500D01*
G01*
X173122850Y-84106300D01*
G75*
G02*
X173185350Y-84043800I62500J0D01*
G01*
X173935350Y-84043800D01*
G75*
G02*
X173997850Y-84106300I0J-62500D01*
G01*
G37*
G36*
G01*
X159333099Y-98129400D02*
X160233101Y-98129400D01*
G75*
G02*
X160483100Y-98379399I0J-249999D01*
G01*
X160483100Y-99029401D01*
G75*
G02*
X160233101Y-99279400I-249999J0D01*
G01*
X159333099Y-99279400D01*
G75*
G02*
X159083100Y-99029401I0J249999D01*
G01*
X159083100Y-98379399D01*
G75*
G02*
X159333099Y-98129400I249999J0D01*
G01*
G37*
G36*
G01*
X159333099Y-96079400D02*
X160233101Y-96079400D01*
G75*
G02*
X160483100Y-96329399I0J-249999D01*
G01*
X160483100Y-96979401D01*
G75*
G02*
X160233101Y-97229400I-249999J0D01*
G01*
X159333099Y-97229400D01*
G75*
G02*
X159083100Y-96979401I0J249999D01*
G01*
X159083100Y-96329399D01*
G75*
G02*
X159333099Y-96079400I249999J0D01*
G01*
G37*
G36*
G01*
X358293950Y-22257599D02*
X358293950Y-23157601D01*
G75*
G02*
X358043951Y-23407600I-249999J0D01*
G01*
X357393949Y-23407600D01*
G75*
G02*
X357143950Y-23157601I0J249999D01*
G01*
X357143950Y-22257599D01*
G75*
G02*
X357393949Y-22007600I249999J0D01*
G01*
X358043951Y-22007600D01*
G75*
G02*
X358293950Y-22257599I0J-249999D01*
G01*
G37*
G36*
G01*
X356243950Y-22257599D02*
X356243950Y-23157601D01*
G75*
G02*
X355993951Y-23407600I-249999J0D01*
G01*
X355343949Y-23407600D01*
G75*
G02*
X355093950Y-23157601I0J249999D01*
G01*
X355093950Y-22257599D01*
G75*
G02*
X355343949Y-22007600I249999J0D01*
G01*
X355993951Y-22007600D01*
G75*
G02*
X356243950Y-22257599I0J-249999D01*
G01*
G37*
G36*
G01*
X336713350Y-23614801D02*
X336713350Y-22714799D01*
G75*
G02*
X336963349Y-22464800I249999J0D01*
G01*
X337613351Y-22464800D01*
G75*
G02*
X337863350Y-22714799I0J-249999D01*
G01*
X337863350Y-23614801D01*
G75*
G02*
X337613351Y-23864800I-249999J0D01*
G01*
X336963349Y-23864800D01*
G75*
G02*
X336713350Y-23614801I0J249999D01*
G01*
G37*
G36*
G01*
X338763350Y-23614801D02*
X338763350Y-22714799D01*
G75*
G02*
X339013349Y-22464800I249999J0D01*
G01*
X339663351Y-22464800D01*
G75*
G02*
X339913350Y-22714799I0J-249999D01*
G01*
X339913350Y-23614801D01*
G75*
G02*
X339663351Y-23864800I-249999J0D01*
G01*
X339013349Y-23864800D01*
G75*
G02*
X338763350Y-23614801I0J249999D01*
G01*
G37*
G36*
G01*
X161722649Y-78800000D02*
X162622651Y-78800000D01*
G75*
G02*
X162872650Y-79049999I0J-249999D01*
G01*
X162872650Y-79700001D01*
G75*
G02*
X162622651Y-79950000I-249999J0D01*
G01*
X161722649Y-79950000D01*
G75*
G02*
X161472650Y-79700001I0J249999D01*
G01*
X161472650Y-79049999D01*
G75*
G02*
X161722649Y-78800000I249999J0D01*
G01*
G37*
G36*
G01*
X161722649Y-80850000D02*
X162622651Y-80850000D01*
G75*
G02*
X162872650Y-81099999I0J-249999D01*
G01*
X162872650Y-81750001D01*
G75*
G02*
X162622651Y-82000000I-249999J0D01*
G01*
X161722649Y-82000000D01*
G75*
G02*
X161472650Y-81750001I0J249999D01*
G01*
X161472650Y-81099999D01*
G75*
G02*
X161722649Y-80850000I249999J0D01*
G01*
G37*
G36*
G01*
X351039851Y-30902600D02*
X350139849Y-30902600D01*
G75*
G02*
X349889850Y-30652601I0J249999D01*
G01*
X349889850Y-30002599D01*
G75*
G02*
X350139849Y-29752600I249999J0D01*
G01*
X351039851Y-29752600D01*
G75*
G02*
X351289850Y-30002599I0J-249999D01*
G01*
X351289850Y-30652601D01*
G75*
G02*
X351039851Y-30902600I-249999J0D01*
G01*
G37*
G36*
G01*
X351039851Y-28852600D02*
X350139849Y-28852600D01*
G75*
G02*
X349889850Y-28602601I0J249999D01*
G01*
X349889850Y-27952599D01*
G75*
G02*
X350139849Y-27702600I249999J0D01*
G01*
X351039851Y-27702600D01*
G75*
G02*
X351289850Y-27952599I0J-249999D01*
G01*
X351289850Y-28602601D01*
G75*
G02*
X351039851Y-28852600I-249999J0D01*
G01*
G37*
G36*
G01*
X349058651Y-30928000D02*
X348158649Y-30928000D01*
G75*
G02*
X347908650Y-30678001I0J249999D01*
G01*
X347908650Y-30027999D01*
G75*
G02*
X348158649Y-29778000I249999J0D01*
G01*
X349058651Y-29778000D01*
G75*
G02*
X349308650Y-30027999I0J-249999D01*
G01*
X349308650Y-30678001D01*
G75*
G02*
X349058651Y-30928000I-249999J0D01*
G01*
G37*
G36*
G01*
X349058651Y-28878000D02*
X348158649Y-28878000D01*
G75*
G02*
X347908650Y-28628001I0J249999D01*
G01*
X347908650Y-27977999D01*
G75*
G02*
X348158649Y-27728000I249999J0D01*
G01*
X349058651Y-27728000D01*
G75*
G02*
X349308650Y-27977999I0J-249999D01*
G01*
X349308650Y-28628001D01*
G75*
G02*
X349058651Y-28878000I-249999J0D01*
G01*
G37*
G36*
G01*
X197744249Y-87681000D02*
X198644251Y-87681000D01*
G75*
G02*
X198894250Y-87930999I0J-249999D01*
G01*
X198894250Y-88581001D01*
G75*
G02*
X198644251Y-88831000I-249999J0D01*
G01*
X197744249Y-88831000D01*
G75*
G02*
X197494250Y-88581001I0J249999D01*
G01*
X197494250Y-87930999D01*
G75*
G02*
X197744249Y-87681000I249999J0D01*
G01*
G37*
G36*
G01*
X197744249Y-89731000D02*
X198644251Y-89731000D01*
G75*
G02*
X198894250Y-89980999I0J-249999D01*
G01*
X198894250Y-90631001D01*
G75*
G02*
X198644251Y-90881000I-249999J0D01*
G01*
X197744249Y-90881000D01*
G75*
G02*
X197494250Y-90631001I0J249999D01*
G01*
X197494250Y-89980999D01*
G75*
G02*
X197744249Y-89731000I249999J0D01*
G01*
G37*
G36*
G01*
X180132250Y-87800601D02*
X180132250Y-86900599D01*
G75*
G02*
X180382249Y-86650600I249999J0D01*
G01*
X181032251Y-86650600D01*
G75*
G02*
X181282250Y-86900599I0J-249999D01*
G01*
X181282250Y-87800601D01*
G75*
G02*
X181032251Y-88050600I-249999J0D01*
G01*
X180382249Y-88050600D01*
G75*
G02*
X180132250Y-87800601I0J249999D01*
G01*
G37*
G36*
G01*
X178082250Y-87800601D02*
X178082250Y-86900599D01*
G75*
G02*
X178332249Y-86650600I249999J0D01*
G01*
X178982251Y-86650600D01*
G75*
G02*
X179232250Y-86900599I0J-249999D01*
G01*
X179232250Y-87800601D01*
G75*
G02*
X178982251Y-88050600I-249999J0D01*
G01*
X178332249Y-88050600D01*
G75*
G02*
X178082250Y-87800601I0J249999D01*
G01*
G37*
G36*
G01*
X166140299Y-98231000D02*
X167040301Y-98231000D01*
G75*
G02*
X167290300Y-98480999I0J-249999D01*
G01*
X167290300Y-99131001D01*
G75*
G02*
X167040301Y-99381000I-249999J0D01*
G01*
X166140299Y-99381000D01*
G75*
G02*
X165890300Y-99131001I0J249999D01*
G01*
X165890300Y-98480999D01*
G75*
G02*
X166140299Y-98231000I249999J0D01*
G01*
G37*
G36*
G01*
X166140299Y-96181000D02*
X167040301Y-96181000D01*
G75*
G02*
X167290300Y-96430999I0J-249999D01*
G01*
X167290300Y-97081001D01*
G75*
G02*
X167040301Y-97331000I-249999J0D01*
G01*
X166140299Y-97331000D01*
G75*
G02*
X165890300Y-97081001I0J249999D01*
G01*
X165890300Y-96430999D01*
G75*
G02*
X166140299Y-96181000I249999J0D01*
G01*
G37*
G36*
G01*
X173727850Y-77324799D02*
X173727850Y-78224801D01*
G75*
G02*
X173477851Y-78474800I-249999J0D01*
G01*
X172827849Y-78474800D01*
G75*
G02*
X172577850Y-78224801I0J249999D01*
G01*
X172577850Y-77324799D01*
G75*
G02*
X172827849Y-77074800I249999J0D01*
G01*
X173477851Y-77074800D01*
G75*
G02*
X173727850Y-77324799I0J-249999D01*
G01*
G37*
G36*
G01*
X175777850Y-77324799D02*
X175777850Y-78224801D01*
G75*
G02*
X175527851Y-78474800I-249999J0D01*
G01*
X174877849Y-78474800D01*
G75*
G02*
X174627850Y-78224801I0J249999D01*
G01*
X174627850Y-77324799D01*
G75*
G02*
X174877849Y-77074800I249999J0D01*
G01*
X175527851Y-77074800D01*
G75*
G02*
X175777850Y-77324799I0J-249999D01*
G01*
G37*
G36*
G01*
X160554249Y-91855600D02*
X161454251Y-91855600D01*
G75*
G02*
X161704250Y-92105599I0J-249999D01*
G01*
X161704250Y-92755601D01*
G75*
G02*
X161454251Y-93005600I-249999J0D01*
G01*
X160554249Y-93005600D01*
G75*
G02*
X160304250Y-92755601I0J249999D01*
G01*
X160304250Y-92105599D01*
G75*
G02*
X160554249Y-91855600I249999J0D01*
G01*
G37*
G36*
G01*
X160554249Y-89805600D02*
X161454251Y-89805600D01*
G75*
G02*
X161704250Y-90055599I0J-249999D01*
G01*
X161704250Y-90705601D01*
G75*
G02*
X161454251Y-90955600I-249999J0D01*
G01*
X160554249Y-90955600D01*
G75*
G02*
X160304250Y-90705601I0J249999D01*
G01*
X160304250Y-90055599D01*
G75*
G02*
X160554249Y-89805600I249999J0D01*
G01*
G37*
G36*
G01*
X165585450Y-79215401D02*
X165585450Y-78315399D01*
G75*
G02*
X165835449Y-78065400I249999J0D01*
G01*
X166485451Y-78065400D01*
G75*
G02*
X166735450Y-78315399I0J-249999D01*
G01*
X166735450Y-79215401D01*
G75*
G02*
X166485451Y-79465400I-249999J0D01*
G01*
X165835449Y-79465400D01*
G75*
G02*
X165585450Y-79215401I0J249999D01*
G01*
G37*
G36*
G01*
X163535450Y-79215401D02*
X163535450Y-78315399D01*
G75*
G02*
X163785449Y-78065400I249999J0D01*
G01*
X164435451Y-78065400D01*
G75*
G02*
X164685450Y-78315399I0J-249999D01*
G01*
X164685450Y-79215401D01*
G75*
G02*
X164435451Y-79465400I-249999J0D01*
G01*
X163785449Y-79465400D01*
G75*
G02*
X163535450Y-79215401I0J249999D01*
G01*
G37*
G36*
G01*
X173178049Y-97782800D02*
X174078051Y-97782800D01*
G75*
G02*
X174328050Y-98032799I0J-249999D01*
G01*
X174328050Y-98682801D01*
G75*
G02*
X174078051Y-98932800I-249999J0D01*
G01*
X173178049Y-98932800D01*
G75*
G02*
X172928050Y-98682801I0J249999D01*
G01*
X172928050Y-98032799D01*
G75*
G02*
X173178049Y-97782800I249999J0D01*
G01*
G37*
G36*
G01*
X173178049Y-95732800D02*
X174078051Y-95732800D01*
G75*
G02*
X174328050Y-95982799I0J-249999D01*
G01*
X174328050Y-96632801D01*
G75*
G02*
X174078051Y-96882800I-249999J0D01*
G01*
X173178049Y-96882800D01*
G75*
G02*
X172928050Y-96632801I0J249999D01*
G01*
X172928050Y-95982799D01*
G75*
G02*
X173178049Y-95732800I249999J0D01*
G01*
G37*
M02*
