G04 #@! TF.GenerationSoftware,KiCad,Pcbnew,(5.1.12)-1*
G04 #@! TF.CreationDate,2021-12-20T16:37:03-08:00*
G04 #@! TF.ProjectId,logboi,6c6f6762-6f69-42e6-9b69-6361645f7063,rev?*
G04 #@! TF.SameCoordinates,Original*
G04 #@! TF.FileFunction,Legend,Top*
G04 #@! TF.FilePolarity,Positive*
%FSLAX46Y46*%
G04 Gerber Fmt 4.6, Leading zero omitted, Abs format (unit mm)*
G04 Created by KiCad (PCBNEW (5.1.12)-1) date 2021-12-20 16:37:03*
%MOMM*%
%LPD*%
G01*
G04 APERTURE LIST*
%ADD10C,0.500000*%
%ADD11C,0.120000*%
%ADD12C,0.150000*%
G04 APERTURE END LIST*
D10*
X235318978Y-88472828D02*
X235461835Y-88615685D01*
X235318978Y-88758542D01*
X235176121Y-88615685D01*
X235318978Y-88472828D01*
X235318978Y-88758542D01*
X237176121Y-88758542D02*
X236890407Y-88615685D01*
X236747550Y-88329971D01*
X236747550Y-85758542D01*
X239461835Y-88615685D02*
X239176121Y-88758542D01*
X238604692Y-88758542D01*
X238318978Y-88615685D01*
X238176121Y-88329971D01*
X238176121Y-87187114D01*
X238318978Y-86901400D01*
X238604692Y-86758542D01*
X239176121Y-86758542D01*
X239461835Y-86901400D01*
X239604692Y-87187114D01*
X239604692Y-87472828D01*
X238176121Y-87758542D01*
X240890407Y-86758542D02*
X240890407Y-88758542D01*
X240890407Y-87044257D02*
X241033264Y-86901400D01*
X241318978Y-86758542D01*
X241747550Y-86758542D01*
X242033264Y-86901400D01*
X242176121Y-87187114D01*
X242176121Y-88758542D01*
X244461835Y-89901400D02*
X244318978Y-89758542D01*
X244033264Y-89329971D01*
X243890407Y-89044257D01*
X243747550Y-88615685D01*
X243604692Y-87901400D01*
X243604692Y-87329971D01*
X243747550Y-86615685D01*
X243890407Y-86187114D01*
X244033264Y-85901400D01*
X244318978Y-85472828D01*
X244461835Y-85329971D01*
X245318978Y-89901400D02*
X245461835Y-89758542D01*
X245747550Y-89329971D01*
X245890407Y-89044257D01*
X246033264Y-88615685D01*
X246176121Y-87901400D01*
X246176121Y-87329971D01*
X246033264Y-86615685D01*
X245890407Y-86187114D01*
X245747550Y-85901400D01*
X245461835Y-85472828D01*
X245318978Y-85329971D01*
D11*
X349292500Y-41910000D02*
X363262500Y-41910000D01*
X363262500Y-41910000D02*
X363262500Y-55880000D01*
X363262500Y-55880000D02*
X349292500Y-55880000D01*
X349292500Y-55880000D02*
X349292500Y-41910000D01*
X249280000Y-80010000D02*
X263250000Y-80010000D01*
X263250000Y-80010000D02*
X263250000Y-93980000D01*
X263250000Y-93980000D02*
X249280000Y-93980000D01*
X249280000Y-93980000D02*
X249280000Y-80010000D01*
X356436250Y-60960000D02*
X370406250Y-60960000D01*
X370406250Y-60960000D02*
X370406250Y-74930000D01*
X370406250Y-74930000D02*
X356436250Y-74930000D01*
X356436250Y-74930000D02*
X356436250Y-60960000D01*
X356436250Y-22860000D02*
X370406250Y-22860000D01*
X370406250Y-22860000D02*
X370406250Y-36830000D01*
X370406250Y-36830000D02*
X356436250Y-36830000D01*
X356436250Y-36830000D02*
X356436250Y-22860000D01*
X280236250Y-41910000D02*
X294206250Y-41910000D01*
X294206250Y-41910000D02*
X294206250Y-55880000D01*
X294206250Y-55880000D02*
X280236250Y-55880000D01*
X280236250Y-55880000D02*
X280236250Y-41910000D01*
X125455000Y-80010000D02*
X139425000Y-80010000D01*
X139425000Y-80010000D02*
X139425000Y-93980000D01*
X139425000Y-93980000D02*
X125455000Y-93980000D01*
X125455000Y-93980000D02*
X125455000Y-80010000D01*
X108786250Y-60960000D02*
X122756250Y-60960000D01*
X122756250Y-60960000D02*
X122756250Y-74930000D01*
X122756250Y-74930000D02*
X108786250Y-74930000D01*
X108786250Y-74930000D02*
X108786250Y-60960000D01*
X104023750Y-41910000D02*
X117993750Y-41910000D01*
X117993750Y-41910000D02*
X117993750Y-55880000D01*
X117993750Y-55880000D02*
X104023750Y-55880000D01*
X104023750Y-55880000D02*
X104023750Y-41910000D01*
X101642500Y-22860000D02*
X115612500Y-22860000D01*
X115612500Y-22860000D02*
X115612500Y-36830000D01*
X115612500Y-36830000D02*
X101642500Y-36830000D01*
X101642500Y-36830000D02*
X101642500Y-22860000D01*
X218323750Y-22860000D02*
X232293750Y-22860000D01*
X232293750Y-22860000D02*
X232293750Y-36830000D01*
X232293750Y-36830000D02*
X218323750Y-36830000D01*
X218323750Y-36830000D02*
X218323750Y-22860000D01*
X213561250Y-80010000D02*
X227531250Y-80010000D01*
X227531250Y-80010000D02*
X227531250Y-93980000D01*
X227531250Y-93980000D02*
X213561250Y-93980000D01*
X213561250Y-93980000D02*
X213561250Y-80010000D01*
X182605000Y-80010000D02*
X196575000Y-80010000D01*
X196575000Y-80010000D02*
X196575000Y-93980000D01*
X196575000Y-93980000D02*
X182605000Y-93980000D01*
X182605000Y-93980000D02*
X182605000Y-80010000D01*
X380248750Y-80010000D02*
X394218750Y-80010000D01*
X394218750Y-80010000D02*
X394218750Y-93980000D01*
X394218750Y-93980000D02*
X380248750Y-93980000D01*
X380248750Y-93980000D02*
X380248750Y-80010000D01*
X380248750Y-60960000D02*
X394218750Y-60960000D01*
X394218750Y-60960000D02*
X394218750Y-74930000D01*
X394218750Y-74930000D02*
X380248750Y-74930000D01*
X380248750Y-74930000D02*
X380248750Y-60960000D01*
X380248750Y-41910000D02*
X394218750Y-41910000D01*
X394218750Y-41910000D02*
X394218750Y-55880000D01*
X394218750Y-55880000D02*
X380248750Y-55880000D01*
X380248750Y-55880000D02*
X380248750Y-41910000D01*
X380248750Y-22860000D02*
X394218750Y-22860000D01*
X394218750Y-22860000D02*
X394218750Y-36830000D01*
X394218750Y-36830000D02*
X380248750Y-36830000D01*
X380248750Y-36830000D02*
X380248750Y-22860000D01*
X23061250Y-22860000D02*
X37031250Y-22860000D01*
X37031250Y-22860000D02*
X37031250Y-36830000D01*
X37031250Y-36830000D02*
X23061250Y-36830000D01*
X23061250Y-36830000D02*
X23061250Y-22860000D01*
X42111250Y-22860000D02*
X56081250Y-22860000D01*
X56081250Y-22860000D02*
X56081250Y-36830000D01*
X56081250Y-36830000D02*
X42111250Y-36830000D01*
X42111250Y-36830000D02*
X42111250Y-22860000D01*
X61161250Y-22860000D02*
X75131250Y-22860000D01*
X75131250Y-22860000D02*
X75131250Y-36830000D01*
X75131250Y-36830000D02*
X61161250Y-36830000D01*
X61161250Y-36830000D02*
X61161250Y-22860000D01*
X80211250Y-22860000D02*
X94181250Y-22860000D01*
X94181250Y-22860000D02*
X94181250Y-36830000D01*
X94181250Y-36830000D02*
X80211250Y-36830000D01*
X80211250Y-36830000D02*
X80211250Y-22860000D01*
X123073750Y-22860000D02*
X137043750Y-22860000D01*
X137043750Y-22860000D02*
X137043750Y-36830000D01*
X137043750Y-36830000D02*
X123073750Y-36830000D01*
X123073750Y-36830000D02*
X123073750Y-22860000D01*
X142123750Y-22860000D02*
X156093750Y-22860000D01*
X156093750Y-22860000D02*
X156093750Y-36830000D01*
X156093750Y-36830000D02*
X142123750Y-36830000D01*
X142123750Y-36830000D02*
X142123750Y-22860000D01*
X161173750Y-22860000D02*
X175143750Y-22860000D01*
X175143750Y-22860000D02*
X175143750Y-36830000D01*
X175143750Y-36830000D02*
X161173750Y-36830000D01*
X161173750Y-36830000D02*
X161173750Y-22860000D01*
X180223750Y-22860000D02*
X194193750Y-22860000D01*
X194193750Y-22860000D02*
X194193750Y-36830000D01*
X194193750Y-36830000D02*
X180223750Y-36830000D01*
X180223750Y-36830000D02*
X180223750Y-22860000D01*
X199273750Y-22860000D02*
X213243750Y-22860000D01*
X213243750Y-22860000D02*
X213243750Y-36830000D01*
X213243750Y-36830000D02*
X199273750Y-36830000D01*
X199273750Y-36830000D02*
X199273750Y-22860000D01*
X237373750Y-22860000D02*
X251343750Y-22860000D01*
X251343750Y-22860000D02*
X251343750Y-36830000D01*
X251343750Y-36830000D02*
X237373750Y-36830000D01*
X237373750Y-36830000D02*
X237373750Y-22860000D01*
X256423750Y-22860000D02*
X270393750Y-22860000D01*
X270393750Y-22860000D02*
X270393750Y-36830000D01*
X270393750Y-36830000D02*
X256423750Y-36830000D01*
X256423750Y-36830000D02*
X256423750Y-22860000D01*
X275473750Y-22860000D02*
X289443750Y-22860000D01*
X289443750Y-22860000D02*
X289443750Y-36830000D01*
X289443750Y-36830000D02*
X275473750Y-36830000D01*
X275473750Y-36830000D02*
X275473750Y-22860000D01*
X294523750Y-22860000D02*
X308493750Y-22860000D01*
X308493750Y-22860000D02*
X308493750Y-36830000D01*
X308493750Y-36830000D02*
X294523750Y-36830000D01*
X294523750Y-36830000D02*
X294523750Y-22860000D01*
X313573750Y-22860000D02*
X327543750Y-22860000D01*
X327543750Y-22860000D02*
X327543750Y-36830000D01*
X327543750Y-36830000D02*
X313573750Y-36830000D01*
X313573750Y-36830000D02*
X313573750Y-22860000D01*
X332623750Y-22860000D02*
X346593750Y-22860000D01*
X346593750Y-22860000D02*
X346593750Y-36830000D01*
X346593750Y-36830000D02*
X332623750Y-36830000D01*
X332623750Y-36830000D02*
X332623750Y-22860000D01*
X23061250Y-41910000D02*
X37031250Y-41910000D01*
X37031250Y-41910000D02*
X37031250Y-55880000D01*
X37031250Y-55880000D02*
X23061250Y-55880000D01*
X23061250Y-55880000D02*
X23061250Y-41910000D01*
X42111250Y-41910000D02*
X56081250Y-41910000D01*
X56081250Y-41910000D02*
X56081250Y-55880000D01*
X56081250Y-55880000D02*
X42111250Y-55880000D01*
X42111250Y-55880000D02*
X42111250Y-41910000D01*
X61161250Y-41910000D02*
X75131250Y-41910000D01*
X75131250Y-41910000D02*
X75131250Y-55880000D01*
X75131250Y-55880000D02*
X61161250Y-55880000D01*
X61161250Y-55880000D02*
X61161250Y-41910000D01*
X80211250Y-41910000D02*
X94181250Y-41910000D01*
X94181250Y-41910000D02*
X94181250Y-55880000D01*
X94181250Y-55880000D02*
X80211250Y-55880000D01*
X80211250Y-55880000D02*
X80211250Y-41910000D01*
X127836250Y-41910000D02*
X141806250Y-41910000D01*
X141806250Y-41910000D02*
X141806250Y-55880000D01*
X141806250Y-55880000D02*
X127836250Y-55880000D01*
X127836250Y-55880000D02*
X127836250Y-41910000D01*
X146886250Y-41910000D02*
X160856250Y-41910000D01*
X160856250Y-41910000D02*
X160856250Y-55880000D01*
X160856250Y-55880000D02*
X146886250Y-55880000D01*
X146886250Y-55880000D02*
X146886250Y-41910000D01*
X165936250Y-41910000D02*
X179906250Y-41910000D01*
X179906250Y-41910000D02*
X179906250Y-55880000D01*
X179906250Y-55880000D02*
X165936250Y-55880000D01*
X165936250Y-55880000D02*
X165936250Y-41910000D01*
X184986250Y-41910000D02*
X198956250Y-41910000D01*
X198956250Y-41910000D02*
X198956250Y-55880000D01*
X198956250Y-55880000D02*
X184986250Y-55880000D01*
X184986250Y-55880000D02*
X184986250Y-41910000D01*
X204036250Y-41910000D02*
X218006250Y-41910000D01*
X218006250Y-41910000D02*
X218006250Y-55880000D01*
X218006250Y-55880000D02*
X204036250Y-55880000D01*
X204036250Y-55880000D02*
X204036250Y-41910000D01*
X223086250Y-41910000D02*
X237056250Y-41910000D01*
X237056250Y-41910000D02*
X237056250Y-55880000D01*
X237056250Y-55880000D02*
X223086250Y-55880000D01*
X223086250Y-55880000D02*
X223086250Y-41910000D01*
X242136250Y-41910000D02*
X256106250Y-41910000D01*
X256106250Y-41910000D02*
X256106250Y-55880000D01*
X256106250Y-55880000D02*
X242136250Y-55880000D01*
X242136250Y-55880000D02*
X242136250Y-41910000D01*
X261186250Y-41910000D02*
X275156250Y-41910000D01*
X275156250Y-41910000D02*
X275156250Y-55880000D01*
X275156250Y-55880000D02*
X261186250Y-55880000D01*
X261186250Y-55880000D02*
X261186250Y-41910000D01*
X299286250Y-41910000D02*
X313256250Y-41910000D01*
X313256250Y-41910000D02*
X313256250Y-55880000D01*
X313256250Y-55880000D02*
X299286250Y-55880000D01*
X299286250Y-55880000D02*
X299286250Y-41910000D01*
X318336250Y-41910000D02*
X332306250Y-41910000D01*
X332306250Y-41910000D02*
X332306250Y-55880000D01*
X332306250Y-55880000D02*
X318336250Y-55880000D01*
X318336250Y-55880000D02*
X318336250Y-41910000D01*
X23061250Y-60960000D02*
X37031250Y-60960000D01*
X37031250Y-60960000D02*
X37031250Y-74930000D01*
X37031250Y-74930000D02*
X23061250Y-74930000D01*
X23061250Y-74930000D02*
X23061250Y-60960000D01*
X42111250Y-60960000D02*
X56081250Y-60960000D01*
X56081250Y-60960000D02*
X56081250Y-74930000D01*
X56081250Y-74930000D02*
X42111250Y-74930000D01*
X42111250Y-74930000D02*
X42111250Y-60960000D01*
X61161250Y-60960000D02*
X75131250Y-60960000D01*
X75131250Y-60960000D02*
X75131250Y-74930000D01*
X75131250Y-74930000D02*
X61161250Y-74930000D01*
X61161250Y-74930000D02*
X61161250Y-60960000D01*
X80211250Y-60960000D02*
X94181250Y-60960000D01*
X94181250Y-60960000D02*
X94181250Y-74930000D01*
X94181250Y-74930000D02*
X80211250Y-74930000D01*
X80211250Y-74930000D02*
X80211250Y-60960000D01*
X137361250Y-60960000D02*
X151331250Y-60960000D01*
X151331250Y-60960000D02*
X151331250Y-74930000D01*
X151331250Y-74930000D02*
X137361250Y-74930000D01*
X137361250Y-74930000D02*
X137361250Y-60960000D01*
X156411250Y-60960000D02*
X170381250Y-60960000D01*
X170381250Y-60960000D02*
X170381250Y-74930000D01*
X170381250Y-74930000D02*
X156411250Y-74930000D01*
X156411250Y-74930000D02*
X156411250Y-60960000D01*
X175461250Y-60960000D02*
X189431250Y-60960000D01*
X189431250Y-60960000D02*
X189431250Y-74930000D01*
X189431250Y-74930000D02*
X175461250Y-74930000D01*
X175461250Y-74930000D02*
X175461250Y-60960000D01*
X194511250Y-60960000D02*
X208481250Y-60960000D01*
X208481250Y-60960000D02*
X208481250Y-74930000D01*
X208481250Y-74930000D02*
X194511250Y-74930000D01*
X194511250Y-74930000D02*
X194511250Y-60960000D01*
X213561250Y-60960000D02*
X227531250Y-60960000D01*
X227531250Y-60960000D02*
X227531250Y-74930000D01*
X227531250Y-74930000D02*
X213561250Y-74930000D01*
X213561250Y-74930000D02*
X213561250Y-60960000D01*
X232611250Y-60960000D02*
X246581250Y-60960000D01*
X246581250Y-60960000D02*
X246581250Y-74930000D01*
X246581250Y-74930000D02*
X232611250Y-74930000D01*
X232611250Y-74930000D02*
X232611250Y-60960000D01*
X251661250Y-60960000D02*
X265631250Y-60960000D01*
X265631250Y-60960000D02*
X265631250Y-74930000D01*
X265631250Y-74930000D02*
X251661250Y-74930000D01*
X251661250Y-74930000D02*
X251661250Y-60960000D01*
X270711250Y-60960000D02*
X284681250Y-60960000D01*
X284681250Y-60960000D02*
X284681250Y-74930000D01*
X284681250Y-74930000D02*
X270711250Y-74930000D01*
X270711250Y-74930000D02*
X270711250Y-60960000D01*
X289761250Y-60960000D02*
X303731250Y-60960000D01*
X303731250Y-60960000D02*
X303731250Y-74930000D01*
X303731250Y-74930000D02*
X289761250Y-74930000D01*
X289761250Y-74930000D02*
X289761250Y-60960000D01*
X308811250Y-60960000D02*
X322781250Y-60960000D01*
X322781250Y-60960000D02*
X322781250Y-74930000D01*
X322781250Y-74930000D02*
X308811250Y-74930000D01*
X308811250Y-74930000D02*
X308811250Y-60960000D01*
X330242500Y-60960000D02*
X344212500Y-60960000D01*
X344212500Y-60960000D02*
X344212500Y-74930000D01*
X344212500Y-74930000D02*
X330242500Y-74930000D01*
X330242500Y-74930000D02*
X330242500Y-60960000D01*
X32586250Y-80010000D02*
X46556250Y-80010000D01*
X46556250Y-80010000D02*
X46556250Y-93980000D01*
X46556250Y-93980000D02*
X32586250Y-93980000D01*
X32586250Y-93980000D02*
X32586250Y-80010000D01*
X61161250Y-80010000D02*
X75131250Y-80010000D01*
X75131250Y-80010000D02*
X75131250Y-93980000D01*
X75131250Y-93980000D02*
X61161250Y-93980000D01*
X61161250Y-93980000D02*
X61161250Y-80010000D01*
X80211250Y-80010000D02*
X94181250Y-80010000D01*
X94181250Y-80010000D02*
X94181250Y-93980000D01*
X94181250Y-93980000D02*
X80211250Y-93980000D01*
X80211250Y-93980000D02*
X80211250Y-80010000D01*
X101642500Y-80010000D02*
X115612500Y-80010000D01*
X115612500Y-80010000D02*
X115612500Y-93980000D01*
X115612500Y-93980000D02*
X101642500Y-93980000D01*
X101642500Y-93980000D02*
X101642500Y-80010000D01*
X149267500Y-80010000D02*
X163237500Y-80010000D01*
X163237500Y-80010000D02*
X163237500Y-93980000D01*
X163237500Y-93980000D02*
X149267500Y-93980000D01*
X149267500Y-93980000D02*
X149267500Y-80010000D01*
X284998750Y-80010000D02*
X298968750Y-80010000D01*
X298968750Y-80010000D02*
X298968750Y-93980000D01*
X298968750Y-93980000D02*
X284998750Y-93980000D01*
X284998750Y-93980000D02*
X284998750Y-80010000D01*
X304048750Y-80010000D02*
X318018750Y-80010000D01*
X318018750Y-80010000D02*
X318018750Y-93980000D01*
X318018750Y-93980000D02*
X304048750Y-93980000D01*
X304048750Y-93980000D02*
X304048750Y-80010000D01*
X323098750Y-80010000D02*
X337068750Y-80010000D01*
X337068750Y-80010000D02*
X337068750Y-93980000D01*
X337068750Y-93980000D02*
X323098750Y-93980000D01*
X323098750Y-93980000D02*
X323098750Y-80010000D01*
X342148750Y-80010000D02*
X356118750Y-80010000D01*
X356118750Y-80010000D02*
X356118750Y-93980000D01*
X356118750Y-93980000D02*
X342148750Y-93980000D01*
X342148750Y-93980000D02*
X342148750Y-80010000D01*
X361198750Y-80010000D02*
X375168750Y-80010000D01*
X375168750Y-80010000D02*
X375168750Y-93980000D01*
X375168750Y-93980000D02*
X361198750Y-93980000D01*
X361198750Y-93980000D02*
X361198750Y-80010000D01*
D12*
X355063214Y-41473380D02*
X355063214Y-40473380D01*
X355634642Y-41473380D02*
X355206071Y-40901952D01*
X355634642Y-40473380D02*
X355063214Y-41044809D01*
X355967976Y-40473380D02*
X356587023Y-40473380D01*
X356253690Y-40854333D01*
X356396547Y-40854333D01*
X356491785Y-40901952D01*
X356539404Y-40949571D01*
X356587023Y-41044809D01*
X356587023Y-41282904D01*
X356539404Y-41378142D01*
X356491785Y-41425761D01*
X356396547Y-41473380D01*
X356110833Y-41473380D01*
X356015595Y-41425761D01*
X355967976Y-41378142D01*
X357444166Y-40806714D02*
X357444166Y-41473380D01*
X357206071Y-40425761D02*
X356967976Y-41140047D01*
X357587023Y-41140047D01*
X255050714Y-79573380D02*
X255050714Y-78573380D01*
X255622142Y-79573380D02*
X255193571Y-79001952D01*
X255622142Y-78573380D02*
X255050714Y-79144809D01*
X256479285Y-78573380D02*
X256288809Y-78573380D01*
X256193571Y-78621000D01*
X256145952Y-78668619D01*
X256050714Y-78811476D01*
X256003095Y-79001952D01*
X256003095Y-79382904D01*
X256050714Y-79478142D01*
X256098333Y-79525761D01*
X256193571Y-79573380D01*
X256384047Y-79573380D01*
X256479285Y-79525761D01*
X256526904Y-79478142D01*
X256574523Y-79382904D01*
X256574523Y-79144809D01*
X256526904Y-79049571D01*
X256479285Y-79001952D01*
X256384047Y-78954333D01*
X256193571Y-78954333D01*
X256098333Y-79001952D01*
X256050714Y-79049571D01*
X256003095Y-79144809D01*
X257193571Y-78573380D02*
X257288809Y-78573380D01*
X257384047Y-78621000D01*
X257431666Y-78668619D01*
X257479285Y-78763857D01*
X257526904Y-78954333D01*
X257526904Y-79192428D01*
X257479285Y-79382904D01*
X257431666Y-79478142D01*
X257384047Y-79525761D01*
X257288809Y-79573380D01*
X257193571Y-79573380D01*
X257098333Y-79525761D01*
X257050714Y-79478142D01*
X257003095Y-79382904D01*
X256955476Y-79192428D01*
X256955476Y-78954333D01*
X257003095Y-78763857D01*
X257050714Y-78668619D01*
X257098333Y-78621000D01*
X257193571Y-78573380D01*
X362206964Y-60523380D02*
X362206964Y-59523380D01*
X362778392Y-60523380D02*
X362349821Y-59951952D01*
X362778392Y-59523380D02*
X362206964Y-60094809D01*
X363683154Y-59523380D02*
X363206964Y-59523380D01*
X363159345Y-59999571D01*
X363206964Y-59951952D01*
X363302202Y-59904333D01*
X363540297Y-59904333D01*
X363635535Y-59951952D01*
X363683154Y-59999571D01*
X363730773Y-60094809D01*
X363730773Y-60332904D01*
X363683154Y-60428142D01*
X363635535Y-60475761D01*
X363540297Y-60523380D01*
X363302202Y-60523380D01*
X363206964Y-60475761D01*
X363159345Y-60428142D01*
X364683154Y-60523380D02*
X364111726Y-60523380D01*
X364397440Y-60523380D02*
X364397440Y-59523380D01*
X364302202Y-59666238D01*
X364206964Y-59761476D01*
X364111726Y-59809095D01*
X362206964Y-22423380D02*
X362206964Y-21423380D01*
X362778392Y-22423380D02*
X362349821Y-21851952D01*
X362778392Y-21423380D02*
X362206964Y-21994809D01*
X363730773Y-22423380D02*
X363159345Y-22423380D01*
X363445059Y-22423380D02*
X363445059Y-21423380D01*
X363349821Y-21566238D01*
X363254583Y-21661476D01*
X363159345Y-21709095D01*
X364064107Y-21423380D02*
X364730773Y-21423380D01*
X364302202Y-22423380D01*
X286006964Y-41473380D02*
X286006964Y-40473380D01*
X286578392Y-41473380D02*
X286149821Y-40901952D01*
X286578392Y-40473380D02*
X286006964Y-41044809D01*
X286911726Y-40473380D02*
X287530773Y-40473380D01*
X287197440Y-40854333D01*
X287340297Y-40854333D01*
X287435535Y-40901952D01*
X287483154Y-40949571D01*
X287530773Y-41044809D01*
X287530773Y-41282904D01*
X287483154Y-41378142D01*
X287435535Y-41425761D01*
X287340297Y-41473380D01*
X287054583Y-41473380D01*
X286959345Y-41425761D01*
X286911726Y-41378142D01*
X288483154Y-41473380D02*
X287911726Y-41473380D01*
X288197440Y-41473380D02*
X288197440Y-40473380D01*
X288102202Y-40616238D01*
X288006964Y-40711476D01*
X287911726Y-40759095D01*
X131225714Y-79573380D02*
X131225714Y-78573380D01*
X131797142Y-79573380D02*
X131368571Y-79001952D01*
X131797142Y-78573380D02*
X131225714Y-79144809D01*
X132701904Y-78573380D02*
X132225714Y-78573380D01*
X132178095Y-79049571D01*
X132225714Y-79001952D01*
X132320952Y-78954333D01*
X132559047Y-78954333D01*
X132654285Y-79001952D01*
X132701904Y-79049571D01*
X132749523Y-79144809D01*
X132749523Y-79382904D01*
X132701904Y-79478142D01*
X132654285Y-79525761D01*
X132559047Y-79573380D01*
X132320952Y-79573380D01*
X132225714Y-79525761D01*
X132178095Y-79478142D01*
X133606666Y-78573380D02*
X133416190Y-78573380D01*
X133320952Y-78621000D01*
X133273333Y-78668619D01*
X133178095Y-78811476D01*
X133130476Y-79001952D01*
X133130476Y-79382904D01*
X133178095Y-79478142D01*
X133225714Y-79525761D01*
X133320952Y-79573380D01*
X133511428Y-79573380D01*
X133606666Y-79525761D01*
X133654285Y-79478142D01*
X133701904Y-79382904D01*
X133701904Y-79144809D01*
X133654285Y-79049571D01*
X133606666Y-79001952D01*
X133511428Y-78954333D01*
X133320952Y-78954333D01*
X133225714Y-79001952D01*
X133178095Y-79049571D01*
X133130476Y-79144809D01*
X114556964Y-60523380D02*
X114556964Y-59523380D01*
X115128392Y-60523380D02*
X114699821Y-59951952D01*
X115128392Y-59523380D02*
X114556964Y-60094809D01*
X115461726Y-59523380D02*
X116080773Y-59523380D01*
X115747440Y-59904333D01*
X115890297Y-59904333D01*
X115985535Y-59951952D01*
X116033154Y-59999571D01*
X116080773Y-60094809D01*
X116080773Y-60332904D01*
X116033154Y-60428142D01*
X115985535Y-60475761D01*
X115890297Y-60523380D01*
X115604583Y-60523380D01*
X115509345Y-60475761D01*
X115461726Y-60428142D01*
X116556964Y-60523380D02*
X116747440Y-60523380D01*
X116842678Y-60475761D01*
X116890297Y-60428142D01*
X116985535Y-60285285D01*
X117033154Y-60094809D01*
X117033154Y-59713857D01*
X116985535Y-59618619D01*
X116937916Y-59571000D01*
X116842678Y-59523380D01*
X116652202Y-59523380D01*
X116556964Y-59571000D01*
X116509345Y-59618619D01*
X116461726Y-59713857D01*
X116461726Y-59951952D01*
X116509345Y-60047190D01*
X116556964Y-60094809D01*
X116652202Y-60142428D01*
X116842678Y-60142428D01*
X116937916Y-60094809D01*
X116985535Y-60047190D01*
X117033154Y-59951952D01*
X109794464Y-41473380D02*
X109794464Y-40473380D01*
X110365892Y-41473380D02*
X109937321Y-40901952D01*
X110365892Y-40473380D02*
X109794464Y-41044809D01*
X110746845Y-40568619D02*
X110794464Y-40521000D01*
X110889702Y-40473380D01*
X111127797Y-40473380D01*
X111223035Y-40521000D01*
X111270654Y-40568619D01*
X111318273Y-40663857D01*
X111318273Y-40759095D01*
X111270654Y-40901952D01*
X110699226Y-41473380D01*
X111318273Y-41473380D01*
X111699226Y-40568619D02*
X111746845Y-40521000D01*
X111842083Y-40473380D01*
X112080178Y-40473380D01*
X112175416Y-40521000D01*
X112223035Y-40568619D01*
X112270654Y-40663857D01*
X112270654Y-40759095D01*
X112223035Y-40901952D01*
X111651607Y-41473380D01*
X112270654Y-41473380D01*
X107889404Y-22423380D02*
X107889404Y-21423380D01*
X108460833Y-22423380D02*
X108032261Y-21851952D01*
X108460833Y-21423380D02*
X107889404Y-21994809D01*
X109317976Y-21756714D02*
X109317976Y-22423380D01*
X109079880Y-21375761D02*
X108841785Y-22090047D01*
X109460833Y-22090047D01*
X224094464Y-22423380D02*
X224094464Y-21423380D01*
X224665892Y-22423380D02*
X224237321Y-21851952D01*
X224665892Y-21423380D02*
X224094464Y-21994809D01*
X225618273Y-22423380D02*
X225046845Y-22423380D01*
X225332559Y-22423380D02*
X225332559Y-21423380D01*
X225237321Y-21566238D01*
X225142083Y-21661476D01*
X225046845Y-21709095D01*
X226237321Y-21423380D02*
X226332559Y-21423380D01*
X226427797Y-21471000D01*
X226475416Y-21518619D01*
X226523035Y-21613857D01*
X226570654Y-21804333D01*
X226570654Y-22042428D01*
X226523035Y-22232904D01*
X226475416Y-22328142D01*
X226427797Y-22375761D01*
X226332559Y-22423380D01*
X226237321Y-22423380D01*
X226142083Y-22375761D01*
X226094464Y-22328142D01*
X226046845Y-22232904D01*
X225999226Y-22042428D01*
X225999226Y-21804333D01*
X226046845Y-21613857D01*
X226094464Y-21518619D01*
X226142083Y-21471000D01*
X226237321Y-21423380D01*
X219331964Y-79573380D02*
X219331964Y-78573380D01*
X219903392Y-79573380D02*
X219474821Y-79001952D01*
X219903392Y-78573380D02*
X219331964Y-79144809D01*
X220808154Y-78573380D02*
X220331964Y-78573380D01*
X220284345Y-79049571D01*
X220331964Y-79001952D01*
X220427202Y-78954333D01*
X220665297Y-78954333D01*
X220760535Y-79001952D01*
X220808154Y-79049571D01*
X220855773Y-79144809D01*
X220855773Y-79382904D01*
X220808154Y-79478142D01*
X220760535Y-79525761D01*
X220665297Y-79573380D01*
X220427202Y-79573380D01*
X220331964Y-79525761D01*
X220284345Y-79478142D01*
X221331964Y-79573380D02*
X221522440Y-79573380D01*
X221617678Y-79525761D01*
X221665297Y-79478142D01*
X221760535Y-79335285D01*
X221808154Y-79144809D01*
X221808154Y-78763857D01*
X221760535Y-78668619D01*
X221712916Y-78621000D01*
X221617678Y-78573380D01*
X221427202Y-78573380D01*
X221331964Y-78621000D01*
X221284345Y-78668619D01*
X221236726Y-78763857D01*
X221236726Y-79001952D01*
X221284345Y-79097190D01*
X221331964Y-79144809D01*
X221427202Y-79192428D01*
X221617678Y-79192428D01*
X221712916Y-79144809D01*
X221760535Y-79097190D01*
X221808154Y-79001952D01*
X188375714Y-79573380D02*
X188375714Y-78573380D01*
X188947142Y-79573380D02*
X188518571Y-79001952D01*
X188947142Y-78573380D02*
X188375714Y-79144809D01*
X189851904Y-78573380D02*
X189375714Y-78573380D01*
X189328095Y-79049571D01*
X189375714Y-79001952D01*
X189470952Y-78954333D01*
X189709047Y-78954333D01*
X189804285Y-79001952D01*
X189851904Y-79049571D01*
X189899523Y-79144809D01*
X189899523Y-79382904D01*
X189851904Y-79478142D01*
X189804285Y-79525761D01*
X189709047Y-79573380D01*
X189470952Y-79573380D01*
X189375714Y-79525761D01*
X189328095Y-79478142D01*
X190470952Y-79001952D02*
X190375714Y-78954333D01*
X190328095Y-78906714D01*
X190280476Y-78811476D01*
X190280476Y-78763857D01*
X190328095Y-78668619D01*
X190375714Y-78621000D01*
X190470952Y-78573380D01*
X190661428Y-78573380D01*
X190756666Y-78621000D01*
X190804285Y-78668619D01*
X190851904Y-78763857D01*
X190851904Y-78811476D01*
X190804285Y-78906714D01*
X190756666Y-78954333D01*
X190661428Y-79001952D01*
X190470952Y-79001952D01*
X190375714Y-79049571D01*
X190328095Y-79097190D01*
X190280476Y-79192428D01*
X190280476Y-79382904D01*
X190328095Y-79478142D01*
X190375714Y-79525761D01*
X190470952Y-79573380D01*
X190661428Y-79573380D01*
X190756666Y-79525761D01*
X190804285Y-79478142D01*
X190851904Y-79382904D01*
X190851904Y-79192428D01*
X190804285Y-79097190D01*
X190756666Y-79049571D01*
X190661428Y-79001952D01*
X386019464Y-79573380D02*
X386019464Y-78573380D01*
X386590892Y-79573380D02*
X386162321Y-79001952D01*
X386590892Y-78573380D02*
X386019464Y-79144809D01*
X387448035Y-78573380D02*
X387257559Y-78573380D01*
X387162321Y-78621000D01*
X387114702Y-78668619D01*
X387019464Y-78811476D01*
X386971845Y-79001952D01*
X386971845Y-79382904D01*
X387019464Y-79478142D01*
X387067083Y-79525761D01*
X387162321Y-79573380D01*
X387352797Y-79573380D01*
X387448035Y-79525761D01*
X387495654Y-79478142D01*
X387543273Y-79382904D01*
X387543273Y-79144809D01*
X387495654Y-79049571D01*
X387448035Y-79001952D01*
X387352797Y-78954333D01*
X387162321Y-78954333D01*
X387067083Y-79001952D01*
X387019464Y-79049571D01*
X386971845Y-79144809D01*
X388019464Y-79573380D02*
X388209940Y-79573380D01*
X388305178Y-79525761D01*
X388352797Y-79478142D01*
X388448035Y-79335285D01*
X388495654Y-79144809D01*
X388495654Y-78763857D01*
X388448035Y-78668619D01*
X388400416Y-78621000D01*
X388305178Y-78573380D01*
X388114702Y-78573380D01*
X388019464Y-78621000D01*
X387971845Y-78668619D01*
X387924226Y-78763857D01*
X387924226Y-79001952D01*
X387971845Y-79097190D01*
X388019464Y-79144809D01*
X388114702Y-79192428D01*
X388305178Y-79192428D01*
X388400416Y-79144809D01*
X388448035Y-79097190D01*
X388495654Y-79001952D01*
X386019464Y-60523380D02*
X386019464Y-59523380D01*
X386590892Y-60523380D02*
X386162321Y-59951952D01*
X386590892Y-59523380D02*
X386019464Y-60094809D01*
X387448035Y-59523380D02*
X387257559Y-59523380D01*
X387162321Y-59571000D01*
X387114702Y-59618619D01*
X387019464Y-59761476D01*
X386971845Y-59951952D01*
X386971845Y-60332904D01*
X387019464Y-60428142D01*
X387067083Y-60475761D01*
X387162321Y-60523380D01*
X387352797Y-60523380D01*
X387448035Y-60475761D01*
X387495654Y-60428142D01*
X387543273Y-60332904D01*
X387543273Y-60094809D01*
X387495654Y-59999571D01*
X387448035Y-59951952D01*
X387352797Y-59904333D01*
X387162321Y-59904333D01*
X387067083Y-59951952D01*
X387019464Y-59999571D01*
X386971845Y-60094809D01*
X388114702Y-59951952D02*
X388019464Y-59904333D01*
X387971845Y-59856714D01*
X387924226Y-59761476D01*
X387924226Y-59713857D01*
X387971845Y-59618619D01*
X388019464Y-59571000D01*
X388114702Y-59523380D01*
X388305178Y-59523380D01*
X388400416Y-59571000D01*
X388448035Y-59618619D01*
X388495654Y-59713857D01*
X388495654Y-59761476D01*
X388448035Y-59856714D01*
X388400416Y-59904333D01*
X388305178Y-59951952D01*
X388114702Y-59951952D01*
X388019464Y-59999571D01*
X387971845Y-60047190D01*
X387924226Y-60142428D01*
X387924226Y-60332904D01*
X387971845Y-60428142D01*
X388019464Y-60475761D01*
X388114702Y-60523380D01*
X388305178Y-60523380D01*
X388400416Y-60475761D01*
X388448035Y-60428142D01*
X388495654Y-60332904D01*
X388495654Y-60142428D01*
X388448035Y-60047190D01*
X388400416Y-59999571D01*
X388305178Y-59951952D01*
X386019464Y-41473380D02*
X386019464Y-40473380D01*
X386590892Y-41473380D02*
X386162321Y-40901952D01*
X386590892Y-40473380D02*
X386019464Y-41044809D01*
X387448035Y-40473380D02*
X387257559Y-40473380D01*
X387162321Y-40521000D01*
X387114702Y-40568619D01*
X387019464Y-40711476D01*
X386971845Y-40901952D01*
X386971845Y-41282904D01*
X387019464Y-41378142D01*
X387067083Y-41425761D01*
X387162321Y-41473380D01*
X387352797Y-41473380D01*
X387448035Y-41425761D01*
X387495654Y-41378142D01*
X387543273Y-41282904D01*
X387543273Y-41044809D01*
X387495654Y-40949571D01*
X387448035Y-40901952D01*
X387352797Y-40854333D01*
X387162321Y-40854333D01*
X387067083Y-40901952D01*
X387019464Y-40949571D01*
X386971845Y-41044809D01*
X387876607Y-40473380D02*
X388543273Y-40473380D01*
X388114702Y-41473380D01*
X386019464Y-22423380D02*
X386019464Y-21423380D01*
X386590892Y-22423380D02*
X386162321Y-21851952D01*
X386590892Y-21423380D02*
X386019464Y-21994809D01*
X387448035Y-21423380D02*
X387257559Y-21423380D01*
X387162321Y-21471000D01*
X387114702Y-21518619D01*
X387019464Y-21661476D01*
X386971845Y-21851952D01*
X386971845Y-22232904D01*
X387019464Y-22328142D01*
X387067083Y-22375761D01*
X387162321Y-22423380D01*
X387352797Y-22423380D01*
X387448035Y-22375761D01*
X387495654Y-22328142D01*
X387543273Y-22232904D01*
X387543273Y-21994809D01*
X387495654Y-21899571D01*
X387448035Y-21851952D01*
X387352797Y-21804333D01*
X387162321Y-21804333D01*
X387067083Y-21851952D01*
X387019464Y-21899571D01*
X386971845Y-21994809D01*
X388400416Y-21423380D02*
X388209940Y-21423380D01*
X388114702Y-21471000D01*
X388067083Y-21518619D01*
X387971845Y-21661476D01*
X387924226Y-21851952D01*
X387924226Y-22232904D01*
X387971845Y-22328142D01*
X388019464Y-22375761D01*
X388114702Y-22423380D01*
X388305178Y-22423380D01*
X388400416Y-22375761D01*
X388448035Y-22328142D01*
X388495654Y-22232904D01*
X388495654Y-21994809D01*
X388448035Y-21899571D01*
X388400416Y-21851952D01*
X388305178Y-21804333D01*
X388114702Y-21804333D01*
X388019464Y-21851952D01*
X387971845Y-21899571D01*
X387924226Y-21994809D01*
X29308154Y-22423380D02*
X29308154Y-21423380D01*
X29879583Y-22423380D02*
X29451011Y-21851952D01*
X29879583Y-21423380D02*
X29308154Y-21994809D01*
X30498630Y-21423380D02*
X30593869Y-21423380D01*
X30689107Y-21471000D01*
X30736726Y-21518619D01*
X30784345Y-21613857D01*
X30831964Y-21804333D01*
X30831964Y-22042428D01*
X30784345Y-22232904D01*
X30736726Y-22328142D01*
X30689107Y-22375761D01*
X30593869Y-22423380D01*
X30498630Y-22423380D01*
X30403392Y-22375761D01*
X30355773Y-22328142D01*
X30308154Y-22232904D01*
X30260535Y-22042428D01*
X30260535Y-21804333D01*
X30308154Y-21613857D01*
X30355773Y-21518619D01*
X30403392Y-21471000D01*
X30498630Y-21423380D01*
X48358154Y-22423380D02*
X48358154Y-21423380D01*
X48929583Y-22423380D02*
X48501011Y-21851952D01*
X48929583Y-21423380D02*
X48358154Y-21994809D01*
X49881964Y-22423380D02*
X49310535Y-22423380D01*
X49596250Y-22423380D02*
X49596250Y-21423380D01*
X49501011Y-21566238D01*
X49405773Y-21661476D01*
X49310535Y-21709095D01*
X67408154Y-22423380D02*
X67408154Y-21423380D01*
X67979583Y-22423380D02*
X67551011Y-21851952D01*
X67979583Y-21423380D02*
X67408154Y-21994809D01*
X68360535Y-21518619D02*
X68408154Y-21471000D01*
X68503392Y-21423380D01*
X68741488Y-21423380D01*
X68836726Y-21471000D01*
X68884345Y-21518619D01*
X68931964Y-21613857D01*
X68931964Y-21709095D01*
X68884345Y-21851952D01*
X68312916Y-22423380D01*
X68931964Y-22423380D01*
X86458154Y-22423380D02*
X86458154Y-21423380D01*
X87029583Y-22423380D02*
X86601011Y-21851952D01*
X87029583Y-21423380D02*
X86458154Y-21994809D01*
X87362916Y-21423380D02*
X87981964Y-21423380D01*
X87648630Y-21804333D01*
X87791488Y-21804333D01*
X87886726Y-21851952D01*
X87934345Y-21899571D01*
X87981964Y-21994809D01*
X87981964Y-22232904D01*
X87934345Y-22328142D01*
X87886726Y-22375761D01*
X87791488Y-22423380D01*
X87505773Y-22423380D01*
X87410535Y-22375761D01*
X87362916Y-22328142D01*
X129320654Y-22423380D02*
X129320654Y-21423380D01*
X129892083Y-22423380D02*
X129463511Y-21851952D01*
X129892083Y-21423380D02*
X129320654Y-21994809D01*
X130796845Y-21423380D02*
X130320654Y-21423380D01*
X130273035Y-21899571D01*
X130320654Y-21851952D01*
X130415892Y-21804333D01*
X130653988Y-21804333D01*
X130749226Y-21851952D01*
X130796845Y-21899571D01*
X130844464Y-21994809D01*
X130844464Y-22232904D01*
X130796845Y-22328142D01*
X130749226Y-22375761D01*
X130653988Y-22423380D01*
X130415892Y-22423380D01*
X130320654Y-22375761D01*
X130273035Y-22328142D01*
X148370654Y-22423380D02*
X148370654Y-21423380D01*
X148942083Y-22423380D02*
X148513511Y-21851952D01*
X148942083Y-21423380D02*
X148370654Y-21994809D01*
X149799226Y-21423380D02*
X149608750Y-21423380D01*
X149513511Y-21471000D01*
X149465892Y-21518619D01*
X149370654Y-21661476D01*
X149323035Y-21851952D01*
X149323035Y-22232904D01*
X149370654Y-22328142D01*
X149418273Y-22375761D01*
X149513511Y-22423380D01*
X149703988Y-22423380D01*
X149799226Y-22375761D01*
X149846845Y-22328142D01*
X149894464Y-22232904D01*
X149894464Y-21994809D01*
X149846845Y-21899571D01*
X149799226Y-21851952D01*
X149703988Y-21804333D01*
X149513511Y-21804333D01*
X149418273Y-21851952D01*
X149370654Y-21899571D01*
X149323035Y-21994809D01*
X167420654Y-22423380D02*
X167420654Y-21423380D01*
X167992083Y-22423380D02*
X167563511Y-21851952D01*
X167992083Y-21423380D02*
X167420654Y-21994809D01*
X168325416Y-21423380D02*
X168992083Y-21423380D01*
X168563511Y-22423380D01*
X186470654Y-22423380D02*
X186470654Y-21423380D01*
X187042083Y-22423380D02*
X186613511Y-21851952D01*
X187042083Y-21423380D02*
X186470654Y-21994809D01*
X187613511Y-21851952D02*
X187518273Y-21804333D01*
X187470654Y-21756714D01*
X187423035Y-21661476D01*
X187423035Y-21613857D01*
X187470654Y-21518619D01*
X187518273Y-21471000D01*
X187613511Y-21423380D01*
X187803988Y-21423380D01*
X187899226Y-21471000D01*
X187946845Y-21518619D01*
X187994464Y-21613857D01*
X187994464Y-21661476D01*
X187946845Y-21756714D01*
X187899226Y-21804333D01*
X187803988Y-21851952D01*
X187613511Y-21851952D01*
X187518273Y-21899571D01*
X187470654Y-21947190D01*
X187423035Y-22042428D01*
X187423035Y-22232904D01*
X187470654Y-22328142D01*
X187518273Y-22375761D01*
X187613511Y-22423380D01*
X187803988Y-22423380D01*
X187899226Y-22375761D01*
X187946845Y-22328142D01*
X187994464Y-22232904D01*
X187994464Y-22042428D01*
X187946845Y-21947190D01*
X187899226Y-21899571D01*
X187803988Y-21851952D01*
X205520654Y-22423380D02*
X205520654Y-21423380D01*
X206092083Y-22423380D02*
X205663511Y-21851952D01*
X206092083Y-21423380D02*
X205520654Y-21994809D01*
X206568273Y-22423380D02*
X206758750Y-22423380D01*
X206853988Y-22375761D01*
X206901607Y-22328142D01*
X206996845Y-22185285D01*
X207044464Y-21994809D01*
X207044464Y-21613857D01*
X206996845Y-21518619D01*
X206949226Y-21471000D01*
X206853988Y-21423380D01*
X206663511Y-21423380D01*
X206568273Y-21471000D01*
X206520654Y-21518619D01*
X206473035Y-21613857D01*
X206473035Y-21851952D01*
X206520654Y-21947190D01*
X206568273Y-21994809D01*
X206663511Y-22042428D01*
X206853988Y-22042428D01*
X206949226Y-21994809D01*
X206996845Y-21947190D01*
X207044464Y-21851952D01*
X243144464Y-22423380D02*
X243144464Y-21423380D01*
X243715892Y-22423380D02*
X243287321Y-21851952D01*
X243715892Y-21423380D02*
X243144464Y-21994809D01*
X244668273Y-22423380D02*
X244096845Y-22423380D01*
X244382559Y-22423380D02*
X244382559Y-21423380D01*
X244287321Y-21566238D01*
X244192083Y-21661476D01*
X244096845Y-21709095D01*
X245620654Y-22423380D02*
X245049226Y-22423380D01*
X245334940Y-22423380D02*
X245334940Y-21423380D01*
X245239702Y-21566238D01*
X245144464Y-21661476D01*
X245049226Y-21709095D01*
X262194464Y-22423380D02*
X262194464Y-21423380D01*
X262765892Y-22423380D02*
X262337321Y-21851952D01*
X262765892Y-21423380D02*
X262194464Y-21994809D01*
X263718273Y-22423380D02*
X263146845Y-22423380D01*
X263432559Y-22423380D02*
X263432559Y-21423380D01*
X263337321Y-21566238D01*
X263242083Y-21661476D01*
X263146845Y-21709095D01*
X264099226Y-21518619D02*
X264146845Y-21471000D01*
X264242083Y-21423380D01*
X264480178Y-21423380D01*
X264575416Y-21471000D01*
X264623035Y-21518619D01*
X264670654Y-21613857D01*
X264670654Y-21709095D01*
X264623035Y-21851952D01*
X264051607Y-22423380D01*
X264670654Y-22423380D01*
X281244464Y-22423380D02*
X281244464Y-21423380D01*
X281815892Y-22423380D02*
X281387321Y-21851952D01*
X281815892Y-21423380D02*
X281244464Y-21994809D01*
X282768273Y-22423380D02*
X282196845Y-22423380D01*
X282482559Y-22423380D02*
X282482559Y-21423380D01*
X282387321Y-21566238D01*
X282292083Y-21661476D01*
X282196845Y-21709095D01*
X283101607Y-21423380D02*
X283720654Y-21423380D01*
X283387321Y-21804333D01*
X283530178Y-21804333D01*
X283625416Y-21851952D01*
X283673035Y-21899571D01*
X283720654Y-21994809D01*
X283720654Y-22232904D01*
X283673035Y-22328142D01*
X283625416Y-22375761D01*
X283530178Y-22423380D01*
X283244464Y-22423380D01*
X283149226Y-22375761D01*
X283101607Y-22328142D01*
X300294464Y-22423380D02*
X300294464Y-21423380D01*
X300865892Y-22423380D02*
X300437321Y-21851952D01*
X300865892Y-21423380D02*
X300294464Y-21994809D01*
X301818273Y-22423380D02*
X301246845Y-22423380D01*
X301532559Y-22423380D02*
X301532559Y-21423380D01*
X301437321Y-21566238D01*
X301342083Y-21661476D01*
X301246845Y-21709095D01*
X302675416Y-21756714D02*
X302675416Y-22423380D01*
X302437321Y-21375761D02*
X302199226Y-22090047D01*
X302818273Y-22090047D01*
X319344464Y-22423380D02*
X319344464Y-21423380D01*
X319915892Y-22423380D02*
X319487321Y-21851952D01*
X319915892Y-21423380D02*
X319344464Y-21994809D01*
X320868273Y-22423380D02*
X320296845Y-22423380D01*
X320582559Y-22423380D02*
X320582559Y-21423380D01*
X320487321Y-21566238D01*
X320392083Y-21661476D01*
X320296845Y-21709095D01*
X321773035Y-21423380D02*
X321296845Y-21423380D01*
X321249226Y-21899571D01*
X321296845Y-21851952D01*
X321392083Y-21804333D01*
X321630178Y-21804333D01*
X321725416Y-21851952D01*
X321773035Y-21899571D01*
X321820654Y-21994809D01*
X321820654Y-22232904D01*
X321773035Y-22328142D01*
X321725416Y-22375761D01*
X321630178Y-22423380D01*
X321392083Y-22423380D01*
X321296845Y-22375761D01*
X321249226Y-22328142D01*
X338394464Y-22423380D02*
X338394464Y-21423380D01*
X338965892Y-22423380D02*
X338537321Y-21851952D01*
X338965892Y-21423380D02*
X338394464Y-21994809D01*
X339918273Y-22423380D02*
X339346845Y-22423380D01*
X339632559Y-22423380D02*
X339632559Y-21423380D01*
X339537321Y-21566238D01*
X339442083Y-21661476D01*
X339346845Y-21709095D01*
X340775416Y-21423380D02*
X340584940Y-21423380D01*
X340489702Y-21471000D01*
X340442083Y-21518619D01*
X340346845Y-21661476D01*
X340299226Y-21851952D01*
X340299226Y-22232904D01*
X340346845Y-22328142D01*
X340394464Y-22375761D01*
X340489702Y-22423380D01*
X340680178Y-22423380D01*
X340775416Y-22375761D01*
X340823035Y-22328142D01*
X340870654Y-22232904D01*
X340870654Y-21994809D01*
X340823035Y-21899571D01*
X340775416Y-21851952D01*
X340680178Y-21804333D01*
X340489702Y-21804333D01*
X340394464Y-21851952D01*
X340346845Y-21899571D01*
X340299226Y-21994809D01*
X28831964Y-41473380D02*
X28831964Y-40473380D01*
X29403392Y-41473380D02*
X28974821Y-40901952D01*
X29403392Y-40473380D02*
X28831964Y-41044809D01*
X30355773Y-41473380D02*
X29784345Y-41473380D01*
X30070059Y-41473380D02*
X30070059Y-40473380D01*
X29974821Y-40616238D01*
X29879583Y-40711476D01*
X29784345Y-40759095D01*
X30927202Y-40901952D02*
X30831964Y-40854333D01*
X30784345Y-40806714D01*
X30736726Y-40711476D01*
X30736726Y-40663857D01*
X30784345Y-40568619D01*
X30831964Y-40521000D01*
X30927202Y-40473380D01*
X31117678Y-40473380D01*
X31212916Y-40521000D01*
X31260535Y-40568619D01*
X31308154Y-40663857D01*
X31308154Y-40711476D01*
X31260535Y-40806714D01*
X31212916Y-40854333D01*
X31117678Y-40901952D01*
X30927202Y-40901952D01*
X30831964Y-40949571D01*
X30784345Y-40997190D01*
X30736726Y-41092428D01*
X30736726Y-41282904D01*
X30784345Y-41378142D01*
X30831964Y-41425761D01*
X30927202Y-41473380D01*
X31117678Y-41473380D01*
X31212916Y-41425761D01*
X31260535Y-41378142D01*
X31308154Y-41282904D01*
X31308154Y-41092428D01*
X31260535Y-40997190D01*
X31212916Y-40949571D01*
X31117678Y-40901952D01*
X47881964Y-41473380D02*
X47881964Y-40473380D01*
X48453392Y-41473380D02*
X48024821Y-40901952D01*
X48453392Y-40473380D02*
X47881964Y-41044809D01*
X49405773Y-41473380D02*
X48834345Y-41473380D01*
X49120059Y-41473380D02*
X49120059Y-40473380D01*
X49024821Y-40616238D01*
X48929583Y-40711476D01*
X48834345Y-40759095D01*
X49881964Y-41473380D02*
X50072440Y-41473380D01*
X50167678Y-41425761D01*
X50215297Y-41378142D01*
X50310535Y-41235285D01*
X50358154Y-41044809D01*
X50358154Y-40663857D01*
X50310535Y-40568619D01*
X50262916Y-40521000D01*
X50167678Y-40473380D01*
X49977202Y-40473380D01*
X49881964Y-40521000D01*
X49834345Y-40568619D01*
X49786726Y-40663857D01*
X49786726Y-40901952D01*
X49834345Y-40997190D01*
X49881964Y-41044809D01*
X49977202Y-41092428D01*
X50167678Y-41092428D01*
X50262916Y-41044809D01*
X50310535Y-40997190D01*
X50358154Y-40901952D01*
X66931964Y-41473380D02*
X66931964Y-40473380D01*
X67503392Y-41473380D02*
X67074821Y-40901952D01*
X67503392Y-40473380D02*
X66931964Y-41044809D01*
X67884345Y-40568619D02*
X67931964Y-40521000D01*
X68027202Y-40473380D01*
X68265297Y-40473380D01*
X68360535Y-40521000D01*
X68408154Y-40568619D01*
X68455773Y-40663857D01*
X68455773Y-40759095D01*
X68408154Y-40901952D01*
X67836726Y-41473380D01*
X68455773Y-41473380D01*
X69074821Y-40473380D02*
X69170059Y-40473380D01*
X69265297Y-40521000D01*
X69312916Y-40568619D01*
X69360535Y-40663857D01*
X69408154Y-40854333D01*
X69408154Y-41092428D01*
X69360535Y-41282904D01*
X69312916Y-41378142D01*
X69265297Y-41425761D01*
X69170059Y-41473380D01*
X69074821Y-41473380D01*
X68979583Y-41425761D01*
X68931964Y-41378142D01*
X68884345Y-41282904D01*
X68836726Y-41092428D01*
X68836726Y-40854333D01*
X68884345Y-40663857D01*
X68931964Y-40568619D01*
X68979583Y-40521000D01*
X69074821Y-40473380D01*
X85981964Y-41473380D02*
X85981964Y-40473380D01*
X86553392Y-41473380D02*
X86124821Y-40901952D01*
X86553392Y-40473380D02*
X85981964Y-41044809D01*
X86934345Y-40568619D02*
X86981964Y-40521000D01*
X87077202Y-40473380D01*
X87315297Y-40473380D01*
X87410535Y-40521000D01*
X87458154Y-40568619D01*
X87505773Y-40663857D01*
X87505773Y-40759095D01*
X87458154Y-40901952D01*
X86886726Y-41473380D01*
X87505773Y-41473380D01*
X88458154Y-41473380D02*
X87886726Y-41473380D01*
X88172440Y-41473380D02*
X88172440Y-40473380D01*
X88077202Y-40616238D01*
X87981964Y-40711476D01*
X87886726Y-40759095D01*
X133606964Y-41473380D02*
X133606964Y-40473380D01*
X134178392Y-41473380D02*
X133749821Y-40901952D01*
X134178392Y-40473380D02*
X133606964Y-41044809D01*
X134559345Y-40568619D02*
X134606964Y-40521000D01*
X134702202Y-40473380D01*
X134940297Y-40473380D01*
X135035535Y-40521000D01*
X135083154Y-40568619D01*
X135130773Y-40663857D01*
X135130773Y-40759095D01*
X135083154Y-40901952D01*
X134511726Y-41473380D01*
X135130773Y-41473380D01*
X135464107Y-40473380D02*
X136083154Y-40473380D01*
X135749821Y-40854333D01*
X135892678Y-40854333D01*
X135987916Y-40901952D01*
X136035535Y-40949571D01*
X136083154Y-41044809D01*
X136083154Y-41282904D01*
X136035535Y-41378142D01*
X135987916Y-41425761D01*
X135892678Y-41473380D01*
X135606964Y-41473380D01*
X135511726Y-41425761D01*
X135464107Y-41378142D01*
X152656964Y-41473380D02*
X152656964Y-40473380D01*
X153228392Y-41473380D02*
X152799821Y-40901952D01*
X153228392Y-40473380D02*
X152656964Y-41044809D01*
X153609345Y-40568619D02*
X153656964Y-40521000D01*
X153752202Y-40473380D01*
X153990297Y-40473380D01*
X154085535Y-40521000D01*
X154133154Y-40568619D01*
X154180773Y-40663857D01*
X154180773Y-40759095D01*
X154133154Y-40901952D01*
X153561726Y-41473380D01*
X154180773Y-41473380D01*
X155037916Y-40806714D02*
X155037916Y-41473380D01*
X154799821Y-40425761D02*
X154561726Y-41140047D01*
X155180773Y-41140047D01*
X171706964Y-41473380D02*
X171706964Y-40473380D01*
X172278392Y-41473380D02*
X171849821Y-40901952D01*
X172278392Y-40473380D02*
X171706964Y-41044809D01*
X172659345Y-40568619D02*
X172706964Y-40521000D01*
X172802202Y-40473380D01*
X173040297Y-40473380D01*
X173135535Y-40521000D01*
X173183154Y-40568619D01*
X173230773Y-40663857D01*
X173230773Y-40759095D01*
X173183154Y-40901952D01*
X172611726Y-41473380D01*
X173230773Y-41473380D01*
X174135535Y-40473380D02*
X173659345Y-40473380D01*
X173611726Y-40949571D01*
X173659345Y-40901952D01*
X173754583Y-40854333D01*
X173992678Y-40854333D01*
X174087916Y-40901952D01*
X174135535Y-40949571D01*
X174183154Y-41044809D01*
X174183154Y-41282904D01*
X174135535Y-41378142D01*
X174087916Y-41425761D01*
X173992678Y-41473380D01*
X173754583Y-41473380D01*
X173659345Y-41425761D01*
X173611726Y-41378142D01*
X190756964Y-41473380D02*
X190756964Y-40473380D01*
X191328392Y-41473380D02*
X190899821Y-40901952D01*
X191328392Y-40473380D02*
X190756964Y-41044809D01*
X191709345Y-40568619D02*
X191756964Y-40521000D01*
X191852202Y-40473380D01*
X192090297Y-40473380D01*
X192185535Y-40521000D01*
X192233154Y-40568619D01*
X192280773Y-40663857D01*
X192280773Y-40759095D01*
X192233154Y-40901952D01*
X191661726Y-41473380D01*
X192280773Y-41473380D01*
X193137916Y-40473380D02*
X192947440Y-40473380D01*
X192852202Y-40521000D01*
X192804583Y-40568619D01*
X192709345Y-40711476D01*
X192661726Y-40901952D01*
X192661726Y-41282904D01*
X192709345Y-41378142D01*
X192756964Y-41425761D01*
X192852202Y-41473380D01*
X193042678Y-41473380D01*
X193137916Y-41425761D01*
X193185535Y-41378142D01*
X193233154Y-41282904D01*
X193233154Y-41044809D01*
X193185535Y-40949571D01*
X193137916Y-40901952D01*
X193042678Y-40854333D01*
X192852202Y-40854333D01*
X192756964Y-40901952D01*
X192709345Y-40949571D01*
X192661726Y-41044809D01*
X209806964Y-41473380D02*
X209806964Y-40473380D01*
X210378392Y-41473380D02*
X209949821Y-40901952D01*
X210378392Y-40473380D02*
X209806964Y-41044809D01*
X210759345Y-40568619D02*
X210806964Y-40521000D01*
X210902202Y-40473380D01*
X211140297Y-40473380D01*
X211235535Y-40521000D01*
X211283154Y-40568619D01*
X211330773Y-40663857D01*
X211330773Y-40759095D01*
X211283154Y-40901952D01*
X210711726Y-41473380D01*
X211330773Y-41473380D01*
X211664107Y-40473380D02*
X212330773Y-40473380D01*
X211902202Y-41473380D01*
X228856964Y-41473380D02*
X228856964Y-40473380D01*
X229428392Y-41473380D02*
X228999821Y-40901952D01*
X229428392Y-40473380D02*
X228856964Y-41044809D01*
X229809345Y-40568619D02*
X229856964Y-40521000D01*
X229952202Y-40473380D01*
X230190297Y-40473380D01*
X230285535Y-40521000D01*
X230333154Y-40568619D01*
X230380773Y-40663857D01*
X230380773Y-40759095D01*
X230333154Y-40901952D01*
X229761726Y-41473380D01*
X230380773Y-41473380D01*
X230952202Y-40901952D02*
X230856964Y-40854333D01*
X230809345Y-40806714D01*
X230761726Y-40711476D01*
X230761726Y-40663857D01*
X230809345Y-40568619D01*
X230856964Y-40521000D01*
X230952202Y-40473380D01*
X231142678Y-40473380D01*
X231237916Y-40521000D01*
X231285535Y-40568619D01*
X231333154Y-40663857D01*
X231333154Y-40711476D01*
X231285535Y-40806714D01*
X231237916Y-40854333D01*
X231142678Y-40901952D01*
X230952202Y-40901952D01*
X230856964Y-40949571D01*
X230809345Y-40997190D01*
X230761726Y-41092428D01*
X230761726Y-41282904D01*
X230809345Y-41378142D01*
X230856964Y-41425761D01*
X230952202Y-41473380D01*
X231142678Y-41473380D01*
X231237916Y-41425761D01*
X231285535Y-41378142D01*
X231333154Y-41282904D01*
X231333154Y-41092428D01*
X231285535Y-40997190D01*
X231237916Y-40949571D01*
X231142678Y-40901952D01*
X247906964Y-41473380D02*
X247906964Y-40473380D01*
X248478392Y-41473380D02*
X248049821Y-40901952D01*
X248478392Y-40473380D02*
X247906964Y-41044809D01*
X248859345Y-40568619D02*
X248906964Y-40521000D01*
X249002202Y-40473380D01*
X249240297Y-40473380D01*
X249335535Y-40521000D01*
X249383154Y-40568619D01*
X249430773Y-40663857D01*
X249430773Y-40759095D01*
X249383154Y-40901952D01*
X248811726Y-41473380D01*
X249430773Y-41473380D01*
X249906964Y-41473380D02*
X250097440Y-41473380D01*
X250192678Y-41425761D01*
X250240297Y-41378142D01*
X250335535Y-41235285D01*
X250383154Y-41044809D01*
X250383154Y-40663857D01*
X250335535Y-40568619D01*
X250287916Y-40521000D01*
X250192678Y-40473380D01*
X250002202Y-40473380D01*
X249906964Y-40521000D01*
X249859345Y-40568619D01*
X249811726Y-40663857D01*
X249811726Y-40901952D01*
X249859345Y-40997190D01*
X249906964Y-41044809D01*
X250002202Y-41092428D01*
X250192678Y-41092428D01*
X250287916Y-41044809D01*
X250335535Y-40997190D01*
X250383154Y-40901952D01*
X266956964Y-41473380D02*
X266956964Y-40473380D01*
X267528392Y-41473380D02*
X267099821Y-40901952D01*
X267528392Y-40473380D02*
X266956964Y-41044809D01*
X267861726Y-40473380D02*
X268480773Y-40473380D01*
X268147440Y-40854333D01*
X268290297Y-40854333D01*
X268385535Y-40901952D01*
X268433154Y-40949571D01*
X268480773Y-41044809D01*
X268480773Y-41282904D01*
X268433154Y-41378142D01*
X268385535Y-41425761D01*
X268290297Y-41473380D01*
X268004583Y-41473380D01*
X267909345Y-41425761D01*
X267861726Y-41378142D01*
X269099821Y-40473380D02*
X269195059Y-40473380D01*
X269290297Y-40521000D01*
X269337916Y-40568619D01*
X269385535Y-40663857D01*
X269433154Y-40854333D01*
X269433154Y-41092428D01*
X269385535Y-41282904D01*
X269337916Y-41378142D01*
X269290297Y-41425761D01*
X269195059Y-41473380D01*
X269099821Y-41473380D01*
X269004583Y-41425761D01*
X268956964Y-41378142D01*
X268909345Y-41282904D01*
X268861726Y-41092428D01*
X268861726Y-40854333D01*
X268909345Y-40663857D01*
X268956964Y-40568619D01*
X269004583Y-40521000D01*
X269099821Y-40473380D01*
X305056964Y-41473380D02*
X305056964Y-40473380D01*
X305628392Y-41473380D02*
X305199821Y-40901952D01*
X305628392Y-40473380D02*
X305056964Y-41044809D01*
X305961726Y-40473380D02*
X306580773Y-40473380D01*
X306247440Y-40854333D01*
X306390297Y-40854333D01*
X306485535Y-40901952D01*
X306533154Y-40949571D01*
X306580773Y-41044809D01*
X306580773Y-41282904D01*
X306533154Y-41378142D01*
X306485535Y-41425761D01*
X306390297Y-41473380D01*
X306104583Y-41473380D01*
X306009345Y-41425761D01*
X305961726Y-41378142D01*
X306961726Y-40568619D02*
X307009345Y-40521000D01*
X307104583Y-40473380D01*
X307342678Y-40473380D01*
X307437916Y-40521000D01*
X307485535Y-40568619D01*
X307533154Y-40663857D01*
X307533154Y-40759095D01*
X307485535Y-40901952D01*
X306914107Y-41473380D01*
X307533154Y-41473380D01*
X324106964Y-41473380D02*
X324106964Y-40473380D01*
X324678392Y-41473380D02*
X324249821Y-40901952D01*
X324678392Y-40473380D02*
X324106964Y-41044809D01*
X325011726Y-40473380D02*
X325630773Y-40473380D01*
X325297440Y-40854333D01*
X325440297Y-40854333D01*
X325535535Y-40901952D01*
X325583154Y-40949571D01*
X325630773Y-41044809D01*
X325630773Y-41282904D01*
X325583154Y-41378142D01*
X325535535Y-41425761D01*
X325440297Y-41473380D01*
X325154583Y-41473380D01*
X325059345Y-41425761D01*
X325011726Y-41378142D01*
X325964107Y-40473380D02*
X326583154Y-40473380D01*
X326249821Y-40854333D01*
X326392678Y-40854333D01*
X326487916Y-40901952D01*
X326535535Y-40949571D01*
X326583154Y-41044809D01*
X326583154Y-41282904D01*
X326535535Y-41378142D01*
X326487916Y-41425761D01*
X326392678Y-41473380D01*
X326106964Y-41473380D01*
X326011726Y-41425761D01*
X325964107Y-41378142D01*
X28831964Y-60523380D02*
X28831964Y-59523380D01*
X29403392Y-60523380D02*
X28974821Y-59951952D01*
X29403392Y-59523380D02*
X28831964Y-60094809D01*
X29736726Y-59523380D02*
X30355773Y-59523380D01*
X30022440Y-59904333D01*
X30165297Y-59904333D01*
X30260535Y-59951952D01*
X30308154Y-59999571D01*
X30355773Y-60094809D01*
X30355773Y-60332904D01*
X30308154Y-60428142D01*
X30260535Y-60475761D01*
X30165297Y-60523380D01*
X29879583Y-60523380D01*
X29784345Y-60475761D01*
X29736726Y-60428142D01*
X31260535Y-59523380D02*
X30784345Y-59523380D01*
X30736726Y-59999571D01*
X30784345Y-59951952D01*
X30879583Y-59904333D01*
X31117678Y-59904333D01*
X31212916Y-59951952D01*
X31260535Y-59999571D01*
X31308154Y-60094809D01*
X31308154Y-60332904D01*
X31260535Y-60428142D01*
X31212916Y-60475761D01*
X31117678Y-60523380D01*
X30879583Y-60523380D01*
X30784345Y-60475761D01*
X30736726Y-60428142D01*
X47881964Y-60523380D02*
X47881964Y-59523380D01*
X48453392Y-60523380D02*
X48024821Y-59951952D01*
X48453392Y-59523380D02*
X47881964Y-60094809D01*
X48786726Y-59523380D02*
X49405773Y-59523380D01*
X49072440Y-59904333D01*
X49215297Y-59904333D01*
X49310535Y-59951952D01*
X49358154Y-59999571D01*
X49405773Y-60094809D01*
X49405773Y-60332904D01*
X49358154Y-60428142D01*
X49310535Y-60475761D01*
X49215297Y-60523380D01*
X48929583Y-60523380D01*
X48834345Y-60475761D01*
X48786726Y-60428142D01*
X50262916Y-59523380D02*
X50072440Y-59523380D01*
X49977202Y-59571000D01*
X49929583Y-59618619D01*
X49834345Y-59761476D01*
X49786726Y-59951952D01*
X49786726Y-60332904D01*
X49834345Y-60428142D01*
X49881964Y-60475761D01*
X49977202Y-60523380D01*
X50167678Y-60523380D01*
X50262916Y-60475761D01*
X50310535Y-60428142D01*
X50358154Y-60332904D01*
X50358154Y-60094809D01*
X50310535Y-59999571D01*
X50262916Y-59951952D01*
X50167678Y-59904333D01*
X49977202Y-59904333D01*
X49881964Y-59951952D01*
X49834345Y-59999571D01*
X49786726Y-60094809D01*
X66931964Y-60523380D02*
X66931964Y-59523380D01*
X67503392Y-60523380D02*
X67074821Y-59951952D01*
X67503392Y-59523380D02*
X66931964Y-60094809D01*
X67836726Y-59523380D02*
X68455773Y-59523380D01*
X68122440Y-59904333D01*
X68265297Y-59904333D01*
X68360535Y-59951952D01*
X68408154Y-59999571D01*
X68455773Y-60094809D01*
X68455773Y-60332904D01*
X68408154Y-60428142D01*
X68360535Y-60475761D01*
X68265297Y-60523380D01*
X67979583Y-60523380D01*
X67884345Y-60475761D01*
X67836726Y-60428142D01*
X68789107Y-59523380D02*
X69455773Y-59523380D01*
X69027202Y-60523380D01*
X85981964Y-60523380D02*
X85981964Y-59523380D01*
X86553392Y-60523380D02*
X86124821Y-59951952D01*
X86553392Y-59523380D02*
X85981964Y-60094809D01*
X86886726Y-59523380D02*
X87505773Y-59523380D01*
X87172440Y-59904333D01*
X87315297Y-59904333D01*
X87410535Y-59951952D01*
X87458154Y-59999571D01*
X87505773Y-60094809D01*
X87505773Y-60332904D01*
X87458154Y-60428142D01*
X87410535Y-60475761D01*
X87315297Y-60523380D01*
X87029583Y-60523380D01*
X86934345Y-60475761D01*
X86886726Y-60428142D01*
X88077202Y-59951952D02*
X87981964Y-59904333D01*
X87934345Y-59856714D01*
X87886726Y-59761476D01*
X87886726Y-59713857D01*
X87934345Y-59618619D01*
X87981964Y-59571000D01*
X88077202Y-59523380D01*
X88267678Y-59523380D01*
X88362916Y-59571000D01*
X88410535Y-59618619D01*
X88458154Y-59713857D01*
X88458154Y-59761476D01*
X88410535Y-59856714D01*
X88362916Y-59904333D01*
X88267678Y-59951952D01*
X88077202Y-59951952D01*
X87981964Y-59999571D01*
X87934345Y-60047190D01*
X87886726Y-60142428D01*
X87886726Y-60332904D01*
X87934345Y-60428142D01*
X87981964Y-60475761D01*
X88077202Y-60523380D01*
X88267678Y-60523380D01*
X88362916Y-60475761D01*
X88410535Y-60428142D01*
X88458154Y-60332904D01*
X88458154Y-60142428D01*
X88410535Y-60047190D01*
X88362916Y-59999571D01*
X88267678Y-59951952D01*
X143131964Y-60523380D02*
X143131964Y-59523380D01*
X143703392Y-60523380D02*
X143274821Y-59951952D01*
X143703392Y-59523380D02*
X143131964Y-60094809D01*
X144560535Y-59856714D02*
X144560535Y-60523380D01*
X144322440Y-59475761D02*
X144084345Y-60190047D01*
X144703392Y-60190047D01*
X145274821Y-59523380D02*
X145370059Y-59523380D01*
X145465297Y-59571000D01*
X145512916Y-59618619D01*
X145560535Y-59713857D01*
X145608154Y-59904333D01*
X145608154Y-60142428D01*
X145560535Y-60332904D01*
X145512916Y-60428142D01*
X145465297Y-60475761D01*
X145370059Y-60523380D01*
X145274821Y-60523380D01*
X145179583Y-60475761D01*
X145131964Y-60428142D01*
X145084345Y-60332904D01*
X145036726Y-60142428D01*
X145036726Y-59904333D01*
X145084345Y-59713857D01*
X145131964Y-59618619D01*
X145179583Y-59571000D01*
X145274821Y-59523380D01*
X162181964Y-60523380D02*
X162181964Y-59523380D01*
X162753392Y-60523380D02*
X162324821Y-59951952D01*
X162753392Y-59523380D02*
X162181964Y-60094809D01*
X163610535Y-59856714D02*
X163610535Y-60523380D01*
X163372440Y-59475761D02*
X163134345Y-60190047D01*
X163753392Y-60190047D01*
X164658154Y-60523380D02*
X164086726Y-60523380D01*
X164372440Y-60523380D02*
X164372440Y-59523380D01*
X164277202Y-59666238D01*
X164181964Y-59761476D01*
X164086726Y-59809095D01*
X181231964Y-60523380D02*
X181231964Y-59523380D01*
X181803392Y-60523380D02*
X181374821Y-59951952D01*
X181803392Y-59523380D02*
X181231964Y-60094809D01*
X182660535Y-59856714D02*
X182660535Y-60523380D01*
X182422440Y-59475761D02*
X182184345Y-60190047D01*
X182803392Y-60190047D01*
X183136726Y-59618619D02*
X183184345Y-59571000D01*
X183279583Y-59523380D01*
X183517678Y-59523380D01*
X183612916Y-59571000D01*
X183660535Y-59618619D01*
X183708154Y-59713857D01*
X183708154Y-59809095D01*
X183660535Y-59951952D01*
X183089107Y-60523380D01*
X183708154Y-60523380D01*
X200281964Y-60523380D02*
X200281964Y-59523380D01*
X200853392Y-60523380D02*
X200424821Y-59951952D01*
X200853392Y-59523380D02*
X200281964Y-60094809D01*
X201710535Y-59856714D02*
X201710535Y-60523380D01*
X201472440Y-59475761D02*
X201234345Y-60190047D01*
X201853392Y-60190047D01*
X202139107Y-59523380D02*
X202758154Y-59523380D01*
X202424821Y-59904333D01*
X202567678Y-59904333D01*
X202662916Y-59951952D01*
X202710535Y-59999571D01*
X202758154Y-60094809D01*
X202758154Y-60332904D01*
X202710535Y-60428142D01*
X202662916Y-60475761D01*
X202567678Y-60523380D01*
X202281964Y-60523380D01*
X202186726Y-60475761D01*
X202139107Y-60428142D01*
X219331964Y-60523380D02*
X219331964Y-59523380D01*
X219903392Y-60523380D02*
X219474821Y-59951952D01*
X219903392Y-59523380D02*
X219331964Y-60094809D01*
X220760535Y-59856714D02*
X220760535Y-60523380D01*
X220522440Y-59475761D02*
X220284345Y-60190047D01*
X220903392Y-60190047D01*
X221712916Y-59856714D02*
X221712916Y-60523380D01*
X221474821Y-59475761D02*
X221236726Y-60190047D01*
X221855773Y-60190047D01*
X238381964Y-60523380D02*
X238381964Y-59523380D01*
X238953392Y-60523380D02*
X238524821Y-59951952D01*
X238953392Y-59523380D02*
X238381964Y-60094809D01*
X239810535Y-59856714D02*
X239810535Y-60523380D01*
X239572440Y-59475761D02*
X239334345Y-60190047D01*
X239953392Y-60190047D01*
X240810535Y-59523380D02*
X240334345Y-59523380D01*
X240286726Y-59999571D01*
X240334345Y-59951952D01*
X240429583Y-59904333D01*
X240667678Y-59904333D01*
X240762916Y-59951952D01*
X240810535Y-59999571D01*
X240858154Y-60094809D01*
X240858154Y-60332904D01*
X240810535Y-60428142D01*
X240762916Y-60475761D01*
X240667678Y-60523380D01*
X240429583Y-60523380D01*
X240334345Y-60475761D01*
X240286726Y-60428142D01*
X257431964Y-60523380D02*
X257431964Y-59523380D01*
X258003392Y-60523380D02*
X257574821Y-59951952D01*
X258003392Y-59523380D02*
X257431964Y-60094809D01*
X258860535Y-59856714D02*
X258860535Y-60523380D01*
X258622440Y-59475761D02*
X258384345Y-60190047D01*
X259003392Y-60190047D01*
X259812916Y-59523380D02*
X259622440Y-59523380D01*
X259527202Y-59571000D01*
X259479583Y-59618619D01*
X259384345Y-59761476D01*
X259336726Y-59951952D01*
X259336726Y-60332904D01*
X259384345Y-60428142D01*
X259431964Y-60475761D01*
X259527202Y-60523380D01*
X259717678Y-60523380D01*
X259812916Y-60475761D01*
X259860535Y-60428142D01*
X259908154Y-60332904D01*
X259908154Y-60094809D01*
X259860535Y-59999571D01*
X259812916Y-59951952D01*
X259717678Y-59904333D01*
X259527202Y-59904333D01*
X259431964Y-59951952D01*
X259384345Y-59999571D01*
X259336726Y-60094809D01*
X276481964Y-60523380D02*
X276481964Y-59523380D01*
X277053392Y-60523380D02*
X276624821Y-59951952D01*
X277053392Y-59523380D02*
X276481964Y-60094809D01*
X277910535Y-59856714D02*
X277910535Y-60523380D01*
X277672440Y-59475761D02*
X277434345Y-60190047D01*
X278053392Y-60190047D01*
X278339107Y-59523380D02*
X279005773Y-59523380D01*
X278577202Y-60523380D01*
X295531964Y-60523380D02*
X295531964Y-59523380D01*
X296103392Y-60523380D02*
X295674821Y-59951952D01*
X296103392Y-59523380D02*
X295531964Y-60094809D01*
X296960535Y-59856714D02*
X296960535Y-60523380D01*
X296722440Y-59475761D02*
X296484345Y-60190047D01*
X297103392Y-60190047D01*
X297627202Y-59951952D02*
X297531964Y-59904333D01*
X297484345Y-59856714D01*
X297436726Y-59761476D01*
X297436726Y-59713857D01*
X297484345Y-59618619D01*
X297531964Y-59571000D01*
X297627202Y-59523380D01*
X297817678Y-59523380D01*
X297912916Y-59571000D01*
X297960535Y-59618619D01*
X298008154Y-59713857D01*
X298008154Y-59761476D01*
X297960535Y-59856714D01*
X297912916Y-59904333D01*
X297817678Y-59951952D01*
X297627202Y-59951952D01*
X297531964Y-59999571D01*
X297484345Y-60047190D01*
X297436726Y-60142428D01*
X297436726Y-60332904D01*
X297484345Y-60428142D01*
X297531964Y-60475761D01*
X297627202Y-60523380D01*
X297817678Y-60523380D01*
X297912916Y-60475761D01*
X297960535Y-60428142D01*
X298008154Y-60332904D01*
X298008154Y-60142428D01*
X297960535Y-60047190D01*
X297912916Y-59999571D01*
X297817678Y-59951952D01*
X314581964Y-60523380D02*
X314581964Y-59523380D01*
X315153392Y-60523380D02*
X314724821Y-59951952D01*
X315153392Y-59523380D02*
X314581964Y-60094809D01*
X316010535Y-59856714D02*
X316010535Y-60523380D01*
X315772440Y-59475761D02*
X315534345Y-60190047D01*
X316153392Y-60190047D01*
X316581964Y-60523380D02*
X316772440Y-60523380D01*
X316867678Y-60475761D01*
X316915297Y-60428142D01*
X317010535Y-60285285D01*
X317058154Y-60094809D01*
X317058154Y-59713857D01*
X317010535Y-59618619D01*
X316962916Y-59571000D01*
X316867678Y-59523380D01*
X316677202Y-59523380D01*
X316581964Y-59571000D01*
X316534345Y-59618619D01*
X316486726Y-59713857D01*
X316486726Y-59951952D01*
X316534345Y-60047190D01*
X316581964Y-60094809D01*
X316677202Y-60142428D01*
X316867678Y-60142428D01*
X316962916Y-60094809D01*
X317010535Y-60047190D01*
X317058154Y-59951952D01*
X336013214Y-60523380D02*
X336013214Y-59523380D01*
X336584642Y-60523380D02*
X336156071Y-59951952D01*
X336584642Y-59523380D02*
X336013214Y-60094809D01*
X337489404Y-59523380D02*
X337013214Y-59523380D01*
X336965595Y-59999571D01*
X337013214Y-59951952D01*
X337108452Y-59904333D01*
X337346547Y-59904333D01*
X337441785Y-59951952D01*
X337489404Y-59999571D01*
X337537023Y-60094809D01*
X337537023Y-60332904D01*
X337489404Y-60428142D01*
X337441785Y-60475761D01*
X337346547Y-60523380D01*
X337108452Y-60523380D01*
X337013214Y-60475761D01*
X336965595Y-60428142D01*
X338156071Y-59523380D02*
X338251309Y-59523380D01*
X338346547Y-59571000D01*
X338394166Y-59618619D01*
X338441785Y-59713857D01*
X338489404Y-59904333D01*
X338489404Y-60142428D01*
X338441785Y-60332904D01*
X338394166Y-60428142D01*
X338346547Y-60475761D01*
X338251309Y-60523380D01*
X338156071Y-60523380D01*
X338060833Y-60475761D01*
X338013214Y-60428142D01*
X337965595Y-60332904D01*
X337917976Y-60142428D01*
X337917976Y-59904333D01*
X337965595Y-59713857D01*
X338013214Y-59618619D01*
X338060833Y-59571000D01*
X338156071Y-59523380D01*
X38356964Y-79573380D02*
X38356964Y-78573380D01*
X38928392Y-79573380D02*
X38499821Y-79001952D01*
X38928392Y-78573380D02*
X38356964Y-79144809D01*
X39833154Y-78573380D02*
X39356964Y-78573380D01*
X39309345Y-79049571D01*
X39356964Y-79001952D01*
X39452202Y-78954333D01*
X39690297Y-78954333D01*
X39785535Y-79001952D01*
X39833154Y-79049571D01*
X39880773Y-79144809D01*
X39880773Y-79382904D01*
X39833154Y-79478142D01*
X39785535Y-79525761D01*
X39690297Y-79573380D01*
X39452202Y-79573380D01*
X39356964Y-79525761D01*
X39309345Y-79478142D01*
X40261726Y-78668619D02*
X40309345Y-78621000D01*
X40404583Y-78573380D01*
X40642678Y-78573380D01*
X40737916Y-78621000D01*
X40785535Y-78668619D01*
X40833154Y-78763857D01*
X40833154Y-78859095D01*
X40785535Y-79001952D01*
X40214107Y-79573380D01*
X40833154Y-79573380D01*
X66931964Y-79573380D02*
X66931964Y-78573380D01*
X67503392Y-79573380D02*
X67074821Y-79001952D01*
X67503392Y-78573380D02*
X66931964Y-79144809D01*
X68408154Y-78573380D02*
X67931964Y-78573380D01*
X67884345Y-79049571D01*
X67931964Y-79001952D01*
X68027202Y-78954333D01*
X68265297Y-78954333D01*
X68360535Y-79001952D01*
X68408154Y-79049571D01*
X68455773Y-79144809D01*
X68455773Y-79382904D01*
X68408154Y-79478142D01*
X68360535Y-79525761D01*
X68265297Y-79573380D01*
X68027202Y-79573380D01*
X67931964Y-79525761D01*
X67884345Y-79478142D01*
X68789107Y-78573380D02*
X69408154Y-78573380D01*
X69074821Y-78954333D01*
X69217678Y-78954333D01*
X69312916Y-79001952D01*
X69360535Y-79049571D01*
X69408154Y-79144809D01*
X69408154Y-79382904D01*
X69360535Y-79478142D01*
X69312916Y-79525761D01*
X69217678Y-79573380D01*
X68931964Y-79573380D01*
X68836726Y-79525761D01*
X68789107Y-79478142D01*
X85981964Y-79573380D02*
X85981964Y-78573380D01*
X86553392Y-79573380D02*
X86124821Y-79001952D01*
X86553392Y-78573380D02*
X85981964Y-79144809D01*
X87458154Y-78573380D02*
X86981964Y-78573380D01*
X86934345Y-79049571D01*
X86981964Y-79001952D01*
X87077202Y-78954333D01*
X87315297Y-78954333D01*
X87410535Y-79001952D01*
X87458154Y-79049571D01*
X87505773Y-79144809D01*
X87505773Y-79382904D01*
X87458154Y-79478142D01*
X87410535Y-79525761D01*
X87315297Y-79573380D01*
X87077202Y-79573380D01*
X86981964Y-79525761D01*
X86934345Y-79478142D01*
X88362916Y-78906714D02*
X88362916Y-79573380D01*
X88124821Y-78525761D02*
X87886726Y-79240047D01*
X88505773Y-79240047D01*
X107413214Y-79573380D02*
X107413214Y-78573380D01*
X107984642Y-79573380D02*
X107556071Y-79001952D01*
X107984642Y-78573380D02*
X107413214Y-79144809D01*
X108889404Y-78573380D02*
X108413214Y-78573380D01*
X108365595Y-79049571D01*
X108413214Y-79001952D01*
X108508452Y-78954333D01*
X108746547Y-78954333D01*
X108841785Y-79001952D01*
X108889404Y-79049571D01*
X108937023Y-79144809D01*
X108937023Y-79382904D01*
X108889404Y-79478142D01*
X108841785Y-79525761D01*
X108746547Y-79573380D01*
X108508452Y-79573380D01*
X108413214Y-79525761D01*
X108365595Y-79478142D01*
X109841785Y-78573380D02*
X109365595Y-78573380D01*
X109317976Y-79049571D01*
X109365595Y-79001952D01*
X109460833Y-78954333D01*
X109698928Y-78954333D01*
X109794166Y-79001952D01*
X109841785Y-79049571D01*
X109889404Y-79144809D01*
X109889404Y-79382904D01*
X109841785Y-79478142D01*
X109794166Y-79525761D01*
X109698928Y-79573380D01*
X109460833Y-79573380D01*
X109365595Y-79525761D01*
X109317976Y-79478142D01*
X155038214Y-79573380D02*
X155038214Y-78573380D01*
X155609642Y-79573380D02*
X155181071Y-79001952D01*
X155609642Y-78573380D02*
X155038214Y-79144809D01*
X156514404Y-78573380D02*
X156038214Y-78573380D01*
X155990595Y-79049571D01*
X156038214Y-79001952D01*
X156133452Y-78954333D01*
X156371547Y-78954333D01*
X156466785Y-79001952D01*
X156514404Y-79049571D01*
X156562023Y-79144809D01*
X156562023Y-79382904D01*
X156514404Y-79478142D01*
X156466785Y-79525761D01*
X156371547Y-79573380D01*
X156133452Y-79573380D01*
X156038214Y-79525761D01*
X155990595Y-79478142D01*
X156895357Y-78573380D02*
X157562023Y-78573380D01*
X157133452Y-79573380D01*
X290769464Y-79573380D02*
X290769464Y-78573380D01*
X291340892Y-79573380D02*
X290912321Y-79001952D01*
X291340892Y-78573380D02*
X290769464Y-79144809D01*
X292198035Y-78573380D02*
X292007559Y-78573380D01*
X291912321Y-78621000D01*
X291864702Y-78668619D01*
X291769464Y-78811476D01*
X291721845Y-79001952D01*
X291721845Y-79382904D01*
X291769464Y-79478142D01*
X291817083Y-79525761D01*
X291912321Y-79573380D01*
X292102797Y-79573380D01*
X292198035Y-79525761D01*
X292245654Y-79478142D01*
X292293273Y-79382904D01*
X292293273Y-79144809D01*
X292245654Y-79049571D01*
X292198035Y-79001952D01*
X292102797Y-78954333D01*
X291912321Y-78954333D01*
X291817083Y-79001952D01*
X291769464Y-79049571D01*
X291721845Y-79144809D01*
X293245654Y-79573380D02*
X292674226Y-79573380D01*
X292959940Y-79573380D02*
X292959940Y-78573380D01*
X292864702Y-78716238D01*
X292769464Y-78811476D01*
X292674226Y-78859095D01*
X309819464Y-79573380D02*
X309819464Y-78573380D01*
X310390892Y-79573380D02*
X309962321Y-79001952D01*
X310390892Y-78573380D02*
X309819464Y-79144809D01*
X311248035Y-78573380D02*
X311057559Y-78573380D01*
X310962321Y-78621000D01*
X310914702Y-78668619D01*
X310819464Y-78811476D01*
X310771845Y-79001952D01*
X310771845Y-79382904D01*
X310819464Y-79478142D01*
X310867083Y-79525761D01*
X310962321Y-79573380D01*
X311152797Y-79573380D01*
X311248035Y-79525761D01*
X311295654Y-79478142D01*
X311343273Y-79382904D01*
X311343273Y-79144809D01*
X311295654Y-79049571D01*
X311248035Y-79001952D01*
X311152797Y-78954333D01*
X310962321Y-78954333D01*
X310867083Y-79001952D01*
X310819464Y-79049571D01*
X310771845Y-79144809D01*
X311724226Y-78668619D02*
X311771845Y-78621000D01*
X311867083Y-78573380D01*
X312105178Y-78573380D01*
X312200416Y-78621000D01*
X312248035Y-78668619D01*
X312295654Y-78763857D01*
X312295654Y-78859095D01*
X312248035Y-79001952D01*
X311676607Y-79573380D01*
X312295654Y-79573380D01*
X328869464Y-79573380D02*
X328869464Y-78573380D01*
X329440892Y-79573380D02*
X329012321Y-79001952D01*
X329440892Y-78573380D02*
X328869464Y-79144809D01*
X330298035Y-78573380D02*
X330107559Y-78573380D01*
X330012321Y-78621000D01*
X329964702Y-78668619D01*
X329869464Y-78811476D01*
X329821845Y-79001952D01*
X329821845Y-79382904D01*
X329869464Y-79478142D01*
X329917083Y-79525761D01*
X330012321Y-79573380D01*
X330202797Y-79573380D01*
X330298035Y-79525761D01*
X330345654Y-79478142D01*
X330393273Y-79382904D01*
X330393273Y-79144809D01*
X330345654Y-79049571D01*
X330298035Y-79001952D01*
X330202797Y-78954333D01*
X330012321Y-78954333D01*
X329917083Y-79001952D01*
X329869464Y-79049571D01*
X329821845Y-79144809D01*
X330726607Y-78573380D02*
X331345654Y-78573380D01*
X331012321Y-78954333D01*
X331155178Y-78954333D01*
X331250416Y-79001952D01*
X331298035Y-79049571D01*
X331345654Y-79144809D01*
X331345654Y-79382904D01*
X331298035Y-79478142D01*
X331250416Y-79525761D01*
X331155178Y-79573380D01*
X330869464Y-79573380D01*
X330774226Y-79525761D01*
X330726607Y-79478142D01*
X347919464Y-79573380D02*
X347919464Y-78573380D01*
X348490892Y-79573380D02*
X348062321Y-79001952D01*
X348490892Y-78573380D02*
X347919464Y-79144809D01*
X349348035Y-78573380D02*
X349157559Y-78573380D01*
X349062321Y-78621000D01*
X349014702Y-78668619D01*
X348919464Y-78811476D01*
X348871845Y-79001952D01*
X348871845Y-79382904D01*
X348919464Y-79478142D01*
X348967083Y-79525761D01*
X349062321Y-79573380D01*
X349252797Y-79573380D01*
X349348035Y-79525761D01*
X349395654Y-79478142D01*
X349443273Y-79382904D01*
X349443273Y-79144809D01*
X349395654Y-79049571D01*
X349348035Y-79001952D01*
X349252797Y-78954333D01*
X349062321Y-78954333D01*
X348967083Y-79001952D01*
X348919464Y-79049571D01*
X348871845Y-79144809D01*
X350300416Y-78906714D02*
X350300416Y-79573380D01*
X350062321Y-78525761D02*
X349824226Y-79240047D01*
X350443273Y-79240047D01*
X366969464Y-79573380D02*
X366969464Y-78573380D01*
X367540892Y-79573380D02*
X367112321Y-79001952D01*
X367540892Y-78573380D02*
X366969464Y-79144809D01*
X368398035Y-78573380D02*
X368207559Y-78573380D01*
X368112321Y-78621000D01*
X368064702Y-78668619D01*
X367969464Y-78811476D01*
X367921845Y-79001952D01*
X367921845Y-79382904D01*
X367969464Y-79478142D01*
X368017083Y-79525761D01*
X368112321Y-79573380D01*
X368302797Y-79573380D01*
X368398035Y-79525761D01*
X368445654Y-79478142D01*
X368493273Y-79382904D01*
X368493273Y-79144809D01*
X368445654Y-79049571D01*
X368398035Y-79001952D01*
X368302797Y-78954333D01*
X368112321Y-78954333D01*
X368017083Y-79001952D01*
X367969464Y-79049571D01*
X367921845Y-79144809D01*
X369398035Y-78573380D02*
X368921845Y-78573380D01*
X368874226Y-79049571D01*
X368921845Y-79001952D01*
X369017083Y-78954333D01*
X369255178Y-78954333D01*
X369350416Y-79001952D01*
X369398035Y-79049571D01*
X369445654Y-79144809D01*
X369445654Y-79382904D01*
X369398035Y-79478142D01*
X369350416Y-79525761D01*
X369255178Y-79573380D01*
X369017083Y-79573380D01*
X368921845Y-79525761D01*
X368874226Y-79478142D01*
M02*
