G04 #@! TF.GenerationSoftware,KiCad,Pcbnew,(5.1.12)-1*
G04 #@! TF.CreationDate,2021-12-20T20:21:00-08:00*
G04 #@! TF.ProjectId,logboi,6c6f6762-6f69-42e6-9b69-6361645f7063,rev?*
G04 #@! TF.SameCoordinates,Original*
G04 #@! TF.FileFunction,Soldermask,Top*
G04 #@! TF.FilePolarity,Negative*
%FSLAX46Y46*%
G04 Gerber Fmt 4.6, Leading zero omitted, Abs format (unit mm)*
G04 Created by KiCad (PCBNEW (5.1.12)-1) date 2021-12-20 20:21:00*
%MOMM*%
%LPD*%
G01*
G04 APERTURE LIST*
%ADD10C,1.802000*%
%ADD11C,4.102000*%
%ADD12C,2.302000*%
%ADD13C,3.152000*%
%ADD14C,4.602000*%
%ADD15C,0.752000*%
%ADD16O,1.002000X2.502000*%
%ADD17O,1.002000X1.802000*%
%ADD18O,1.802000X1.802000*%
%ADD19C,0.100000*%
G04 APERTURE END LIST*
D10*
X111326250Y-86995000D03*
X101166250Y-86995000D03*
D11*
X106246250Y-86995000D03*
D12*
X102436250Y-84455000D03*
X108786250Y-81915000D03*
D13*
X125290000Y-60945000D03*
X101490000Y-60945000D03*
D11*
X101490000Y-76185000D03*
X125290000Y-76185000D03*
D10*
X118470000Y-67945000D03*
X108310000Y-67945000D03*
D11*
X113390000Y-67945000D03*
D12*
X109580000Y-65405000D03*
X115930000Y-62865000D03*
D10*
X113707500Y-48895000D03*
X103547500Y-48895000D03*
D11*
X108627500Y-48895000D03*
D12*
X104817500Y-46355000D03*
X111167500Y-43815000D03*
D10*
X111326250Y-29845000D03*
X101166250Y-29845000D03*
D11*
X106246250Y-29845000D03*
D12*
X102436250Y-27305000D03*
X108786250Y-24765000D03*
D11*
X368183750Y-67945000D03*
D12*
X364373750Y-65405000D03*
X370723750Y-62865000D03*
D10*
X347070000Y-67945000D03*
X336910000Y-67945000D03*
D11*
X341990000Y-67945000D03*
D12*
X338180000Y-65405000D03*
X344530000Y-62865000D03*
D13*
X368177500Y-41895000D03*
X344377500Y-41895000D03*
D11*
X344377500Y-57135000D03*
X368177500Y-57135000D03*
D10*
X361357500Y-48895000D03*
X351197500Y-48895000D03*
D11*
X356277500Y-48895000D03*
D12*
X352467500Y-46355000D03*
X358817500Y-43815000D03*
D13*
X268165000Y-79995000D03*
X244365000Y-79995000D03*
D11*
X244365000Y-95235000D03*
X268165000Y-95235000D03*
D10*
X261345000Y-86995000D03*
X251185000Y-86995000D03*
D11*
X256265000Y-86995000D03*
D12*
X252455000Y-84455000D03*
X258805000Y-81915000D03*
D10*
X368501250Y-29845000D03*
X358341250Y-29845000D03*
D11*
X363421250Y-29845000D03*
D12*
X359611250Y-27305000D03*
X365961250Y-24765000D03*
D14*
X377708750Y-77470000D03*
X53858750Y-39370000D03*
X53858750Y-77470000D03*
X377708750Y-39370000D03*
D10*
X292301250Y-48895000D03*
X282141250Y-48895000D03*
D11*
X287221250Y-48895000D03*
D12*
X283411250Y-46355000D03*
X289761250Y-43815000D03*
D15*
X347909550Y-24286400D03*
X346209550Y-24286400D03*
X347059550Y-24286400D03*
X348759550Y-24286400D03*
X349609550Y-24286400D03*
X350459550Y-24286400D03*
X351309550Y-24286400D03*
X352159550Y-24286400D03*
X346209550Y-22961400D03*
X347064550Y-22961400D03*
X347914550Y-22961400D03*
X348764550Y-22961400D03*
X349614550Y-22961400D03*
X350464550Y-22961400D03*
X351314550Y-22961400D03*
X352164550Y-22961400D03*
D16*
X344859550Y-23306400D03*
X353509550Y-23306400D03*
D17*
X344859550Y-19926400D03*
X353509550Y-19926400D03*
D10*
X137520000Y-86995000D03*
X127360000Y-86995000D03*
D11*
X132440000Y-86995000D03*
D12*
X128630000Y-84455000D03*
X134980000Y-81915000D03*
D10*
X230388750Y-29845000D03*
X220228750Y-29845000D03*
D11*
X225308750Y-29845000D03*
D12*
X221498750Y-27305000D03*
X227848750Y-24765000D03*
D10*
X225626250Y-86995000D03*
X215466250Y-86995000D03*
D11*
X220546250Y-86995000D03*
D12*
X216736250Y-84455000D03*
X223086250Y-81915000D03*
D13*
X201490000Y-79995000D03*
X177690000Y-79995000D03*
D11*
X177690000Y-95235000D03*
X201490000Y-95235000D03*
D10*
X194670000Y-86995000D03*
X184510000Y-86995000D03*
D11*
X189590000Y-86995000D03*
D12*
X185780000Y-84455000D03*
X192130000Y-81915000D03*
D10*
X392313750Y-86995000D03*
X382153750Y-86995000D03*
D11*
X387233750Y-86995000D03*
D12*
X383423750Y-84455000D03*
X389773750Y-81915000D03*
D10*
X392313750Y-67945000D03*
X382153750Y-67945000D03*
D11*
X387233750Y-67945000D03*
D12*
X383423750Y-65405000D03*
X389773750Y-62865000D03*
D10*
X392313750Y-48895000D03*
X382153750Y-48895000D03*
D11*
X387233750Y-48895000D03*
D12*
X383423750Y-46355000D03*
X389773750Y-43815000D03*
D10*
X392313750Y-29845000D03*
X382153750Y-29845000D03*
D11*
X387233750Y-29845000D03*
D12*
X383423750Y-27305000D03*
X389773750Y-24765000D03*
D10*
X30363750Y-29845000D03*
X20203750Y-29845000D03*
D11*
X25283750Y-29845000D03*
D12*
X21473750Y-27305000D03*
X27823750Y-24765000D03*
D10*
X49413750Y-29845000D03*
X39253750Y-29845000D03*
D11*
X44333750Y-29845000D03*
D12*
X40523750Y-27305000D03*
X46873750Y-24765000D03*
D10*
X68463750Y-29845000D03*
X58303750Y-29845000D03*
D11*
X63383750Y-29845000D03*
D12*
X59573750Y-27305000D03*
X65923750Y-24765000D03*
D10*
X87513750Y-29845000D03*
X77353750Y-29845000D03*
D11*
X82433750Y-29845000D03*
D12*
X78623750Y-27305000D03*
X84973750Y-24765000D03*
D10*
X135138750Y-29845000D03*
X124978750Y-29845000D03*
D11*
X130058750Y-29845000D03*
D12*
X126248750Y-27305000D03*
X132598750Y-24765000D03*
D10*
X154188750Y-29845000D03*
X144028750Y-29845000D03*
D11*
X149108750Y-29845000D03*
D12*
X145298750Y-27305000D03*
X151648750Y-24765000D03*
D10*
X173238750Y-29845000D03*
X163078750Y-29845000D03*
D11*
X168158750Y-29845000D03*
D12*
X164348750Y-27305000D03*
X170698750Y-24765000D03*
D10*
X192288750Y-29845000D03*
X182128750Y-29845000D03*
D11*
X187208750Y-29845000D03*
D12*
X183398750Y-27305000D03*
X189748750Y-24765000D03*
D10*
X211338750Y-29845000D03*
X201178750Y-29845000D03*
D11*
X206258750Y-29845000D03*
D12*
X202448750Y-27305000D03*
X208798750Y-24765000D03*
D10*
X249438750Y-29845000D03*
X239278750Y-29845000D03*
D11*
X244358750Y-29845000D03*
D12*
X240548750Y-27305000D03*
X246898750Y-24765000D03*
D10*
X268488750Y-29845000D03*
X258328750Y-29845000D03*
D11*
X263408750Y-29845000D03*
D12*
X259598750Y-27305000D03*
X265948750Y-24765000D03*
D10*
X287538750Y-29845000D03*
X277378750Y-29845000D03*
D11*
X282458750Y-29845000D03*
D12*
X278648750Y-27305000D03*
X284998750Y-24765000D03*
D10*
X306588750Y-29845000D03*
X296428750Y-29845000D03*
D11*
X301508750Y-29845000D03*
D12*
X297698750Y-27305000D03*
X304048750Y-24765000D03*
D10*
X325638750Y-29845000D03*
X315478750Y-29845000D03*
D11*
X320558750Y-29845000D03*
D12*
X316748750Y-27305000D03*
X323098750Y-24765000D03*
D10*
X344688750Y-29845000D03*
X334528750Y-29845000D03*
D11*
X339608750Y-29845000D03*
D12*
X335798750Y-27305000D03*
X342148750Y-24765000D03*
D10*
X30363750Y-48895000D03*
X20203750Y-48895000D03*
D11*
X25283750Y-48895000D03*
D12*
X21473750Y-46355000D03*
X27823750Y-43815000D03*
D10*
X49413750Y-48895000D03*
X39253750Y-48895000D03*
D11*
X44333750Y-48895000D03*
D12*
X40523750Y-46355000D03*
X46873750Y-43815000D03*
D10*
X68463750Y-48895000D03*
X58303750Y-48895000D03*
D11*
X63383750Y-48895000D03*
D12*
X59573750Y-46355000D03*
X65923750Y-43815000D03*
D10*
X87513750Y-48895000D03*
X77353750Y-48895000D03*
D11*
X82433750Y-48895000D03*
D12*
X78623750Y-46355000D03*
X84973750Y-43815000D03*
D10*
X139901250Y-48895000D03*
X129741250Y-48895000D03*
D11*
X134821250Y-48895000D03*
D12*
X131011250Y-46355000D03*
X137361250Y-43815000D03*
D10*
X158951250Y-48895000D03*
X148791250Y-48895000D03*
D11*
X153871250Y-48895000D03*
D12*
X150061250Y-46355000D03*
X156411250Y-43815000D03*
D10*
X178001250Y-48895000D03*
X167841250Y-48895000D03*
D11*
X172921250Y-48895000D03*
D12*
X169111250Y-46355000D03*
X175461250Y-43815000D03*
D10*
X197051250Y-48895000D03*
X186891250Y-48895000D03*
D11*
X191971250Y-48895000D03*
D12*
X188161250Y-46355000D03*
X194511250Y-43815000D03*
D10*
X216101250Y-48895000D03*
X205941250Y-48895000D03*
D11*
X211021250Y-48895000D03*
D12*
X207211250Y-46355000D03*
X213561250Y-43815000D03*
D10*
X235151250Y-48895000D03*
X224991250Y-48895000D03*
D11*
X230071250Y-48895000D03*
D12*
X226261250Y-46355000D03*
X232611250Y-43815000D03*
D10*
X254201250Y-48895000D03*
X244041250Y-48895000D03*
D11*
X249121250Y-48895000D03*
D12*
X245311250Y-46355000D03*
X251661250Y-43815000D03*
D10*
X273251250Y-48895000D03*
X263091250Y-48895000D03*
D11*
X268171250Y-48895000D03*
D12*
X264361250Y-46355000D03*
X270711250Y-43815000D03*
D10*
X311351250Y-48895000D03*
X301191250Y-48895000D03*
D11*
X306271250Y-48895000D03*
D12*
X302461250Y-46355000D03*
X308811250Y-43815000D03*
D10*
X330401250Y-48895000D03*
X320241250Y-48895000D03*
D11*
X325321250Y-48895000D03*
D12*
X321511250Y-46355000D03*
X327861250Y-43815000D03*
D10*
X30363750Y-67945000D03*
X20203750Y-67945000D03*
D11*
X25283750Y-67945000D03*
D12*
X21473750Y-65405000D03*
X27823750Y-62865000D03*
D10*
X49413750Y-67945000D03*
X39253750Y-67945000D03*
D11*
X44333750Y-67945000D03*
D12*
X40523750Y-65405000D03*
X46873750Y-62865000D03*
D10*
X68463750Y-67945000D03*
X58303750Y-67945000D03*
D11*
X63383750Y-67945000D03*
D12*
X59573750Y-65405000D03*
X65923750Y-62865000D03*
D10*
X87513750Y-67945000D03*
X77353750Y-67945000D03*
D11*
X82433750Y-67945000D03*
D12*
X78623750Y-65405000D03*
X84973750Y-62865000D03*
D10*
X149426250Y-67945000D03*
X139266250Y-67945000D03*
D11*
X144346250Y-67945000D03*
D12*
X140536250Y-65405000D03*
X146886250Y-62865000D03*
D10*
X168476250Y-67945000D03*
X158316250Y-67945000D03*
D11*
X163396250Y-67945000D03*
D12*
X159586250Y-65405000D03*
X165936250Y-62865000D03*
D10*
X187526250Y-67945000D03*
X177366250Y-67945000D03*
D11*
X182446250Y-67945000D03*
D12*
X178636250Y-65405000D03*
X184986250Y-62865000D03*
D10*
X206576250Y-67945000D03*
X196416250Y-67945000D03*
D11*
X201496250Y-67945000D03*
D12*
X197686250Y-65405000D03*
X204036250Y-62865000D03*
D10*
X225626250Y-67945000D03*
X215466250Y-67945000D03*
D11*
X220546250Y-67945000D03*
D12*
X216736250Y-65405000D03*
X223086250Y-62865000D03*
D10*
X244676250Y-67945000D03*
X234516250Y-67945000D03*
D11*
X239596250Y-67945000D03*
D12*
X235786250Y-65405000D03*
X242136250Y-62865000D03*
D10*
X263726250Y-67945000D03*
X253566250Y-67945000D03*
D11*
X258646250Y-67945000D03*
D12*
X254836250Y-65405000D03*
X261186250Y-62865000D03*
D10*
X282776250Y-67945000D03*
X272616250Y-67945000D03*
D11*
X277696250Y-67945000D03*
D12*
X273886250Y-65405000D03*
X280236250Y-62865000D03*
D10*
X301826250Y-67945000D03*
X291666250Y-67945000D03*
D11*
X296746250Y-67945000D03*
D12*
X292936250Y-65405000D03*
X299286250Y-62865000D03*
D10*
X320876250Y-67945000D03*
X310716250Y-67945000D03*
D11*
X315796250Y-67945000D03*
D12*
X311986250Y-65405000D03*
X318336250Y-62865000D03*
D13*
X46708750Y-79995000D03*
X22908750Y-79995000D03*
D11*
X22908750Y-95235000D03*
X46708750Y-95235000D03*
D10*
X39888750Y-86995000D03*
X29728750Y-86995000D03*
D11*
X34808750Y-86995000D03*
D12*
X30998750Y-84455000D03*
X37348750Y-81915000D03*
D10*
X68463750Y-86995000D03*
X58303750Y-86995000D03*
D11*
X63383750Y-86995000D03*
D12*
X59573750Y-84455000D03*
X65923750Y-81915000D03*
D10*
X87513750Y-86995000D03*
X77353750Y-86995000D03*
D11*
X82433750Y-86995000D03*
D12*
X78623750Y-84455000D03*
X84973750Y-81915000D03*
D10*
X161332500Y-86995000D03*
X151172500Y-86995000D03*
D11*
X156252500Y-86995000D03*
D12*
X152442500Y-84455000D03*
X158792500Y-81915000D03*
D10*
X297063750Y-86995000D03*
X286903750Y-86995000D03*
D11*
X291983750Y-86995000D03*
D12*
X288173750Y-84455000D03*
X294523750Y-81915000D03*
D10*
X316113750Y-86995000D03*
X305953750Y-86995000D03*
D11*
X311033750Y-86995000D03*
D12*
X307223750Y-84455000D03*
X313573750Y-81915000D03*
D10*
X335163750Y-86995000D03*
X325003750Y-86995000D03*
D11*
X330083750Y-86995000D03*
D12*
X326273750Y-84455000D03*
X332623750Y-81915000D03*
D10*
X354213750Y-86995000D03*
X344053750Y-86995000D03*
D11*
X349133750Y-86995000D03*
D12*
X345323750Y-84455000D03*
X351673750Y-81915000D03*
D10*
X373263750Y-86995000D03*
X363103750Y-86995000D03*
D11*
X368183750Y-86995000D03*
D12*
X364373750Y-84455000D03*
X370723750Y-81915000D03*
D18*
X146069050Y-83566000D03*
X143529050Y-83566000D03*
X146069050Y-86106000D03*
X143529050Y-86106000D03*
X146069050Y-88646000D03*
G36*
G01*
X142628050Y-89496000D02*
X142628050Y-87796000D01*
G75*
G02*
X142679050Y-87745000I51000J0D01*
G01*
X144379050Y-87745000D01*
G75*
G02*
X144430050Y-87796000I0J-51000D01*
G01*
X144430050Y-89496000D01*
G75*
G02*
X144379050Y-89547000I-51000J0D01*
G01*
X142679050Y-89547000D01*
G75*
G02*
X142628050Y-89496000I0J51000D01*
G01*
G37*
D19*
G36*
X347386060Y-24097951D02*
G01*
X347397584Y-24111993D01*
X347416221Y-24127288D01*
X347437484Y-24138653D01*
X347460559Y-24145653D01*
X347484550Y-24148016D01*
X347508542Y-24145653D01*
X347531616Y-24138653D01*
X347552880Y-24127288D01*
X347571517Y-24111992D01*
X347583040Y-24097951D01*
X347584912Y-24097247D01*
X347586458Y-24098516D01*
X347586249Y-24100331D01*
X347579721Y-24110102D01*
X347551664Y-24177835D01*
X347537361Y-24249745D01*
X347537361Y-24323055D01*
X347551664Y-24394965D01*
X347579721Y-24462698D01*
X347586249Y-24472469D01*
X347586380Y-24474465D01*
X347584717Y-24475576D01*
X347583040Y-24474849D01*
X347571516Y-24460807D01*
X347552879Y-24445512D01*
X347531616Y-24434147D01*
X347508541Y-24427147D01*
X347484550Y-24424784D01*
X347460558Y-24427147D01*
X347437484Y-24434147D01*
X347416220Y-24445512D01*
X347397583Y-24460808D01*
X347386060Y-24474849D01*
X347384188Y-24475553D01*
X347382642Y-24474284D01*
X347382851Y-24472469D01*
X347389379Y-24462698D01*
X347417436Y-24394965D01*
X347431739Y-24323055D01*
X347431739Y-24249745D01*
X347417436Y-24177835D01*
X347389379Y-24110102D01*
X347382851Y-24100331D01*
X347382720Y-24098335D01*
X347384383Y-24097224D01*
X347386060Y-24097951D01*
G37*
G36*
X348236060Y-24097951D02*
G01*
X348247584Y-24111993D01*
X348266221Y-24127288D01*
X348287484Y-24138653D01*
X348310559Y-24145653D01*
X348334550Y-24148016D01*
X348358542Y-24145653D01*
X348381616Y-24138653D01*
X348402880Y-24127288D01*
X348421517Y-24111992D01*
X348433040Y-24097951D01*
X348434912Y-24097247D01*
X348436458Y-24098516D01*
X348436249Y-24100331D01*
X348429721Y-24110102D01*
X348401664Y-24177835D01*
X348387361Y-24249745D01*
X348387361Y-24323055D01*
X348401664Y-24394965D01*
X348429721Y-24462698D01*
X348436249Y-24472469D01*
X348436380Y-24474465D01*
X348434717Y-24475576D01*
X348433040Y-24474849D01*
X348421516Y-24460807D01*
X348402879Y-24445512D01*
X348381616Y-24434147D01*
X348358541Y-24427147D01*
X348334550Y-24424784D01*
X348310558Y-24427147D01*
X348287484Y-24434147D01*
X348266220Y-24445512D01*
X348247583Y-24460808D01*
X348236060Y-24474849D01*
X348234188Y-24475553D01*
X348232642Y-24474284D01*
X348232851Y-24472469D01*
X348239379Y-24462698D01*
X348267436Y-24394965D01*
X348281739Y-24323055D01*
X348281739Y-24249745D01*
X348267436Y-24177835D01*
X348239379Y-24110102D01*
X348232851Y-24100331D01*
X348232720Y-24098335D01*
X348234383Y-24097224D01*
X348236060Y-24097951D01*
G37*
G36*
X351636060Y-24097951D02*
G01*
X351647584Y-24111993D01*
X351666221Y-24127288D01*
X351687484Y-24138653D01*
X351710559Y-24145653D01*
X351734550Y-24148016D01*
X351758542Y-24145653D01*
X351781616Y-24138653D01*
X351802880Y-24127288D01*
X351821517Y-24111992D01*
X351833040Y-24097951D01*
X351834912Y-24097247D01*
X351836458Y-24098516D01*
X351836249Y-24100331D01*
X351829721Y-24110102D01*
X351801664Y-24177835D01*
X351787361Y-24249745D01*
X351787361Y-24323055D01*
X351801664Y-24394965D01*
X351829721Y-24462698D01*
X351836249Y-24472469D01*
X351836380Y-24474465D01*
X351834717Y-24475576D01*
X351833040Y-24474849D01*
X351821516Y-24460807D01*
X351802879Y-24445512D01*
X351781616Y-24434147D01*
X351758541Y-24427147D01*
X351734550Y-24424784D01*
X351710558Y-24427147D01*
X351687484Y-24434147D01*
X351666220Y-24445512D01*
X351647583Y-24460808D01*
X351636060Y-24474849D01*
X351634188Y-24475553D01*
X351632642Y-24474284D01*
X351632851Y-24472469D01*
X351639379Y-24462698D01*
X351667436Y-24394965D01*
X351681739Y-24323055D01*
X351681739Y-24249745D01*
X351667436Y-24177835D01*
X351639379Y-24110102D01*
X351632851Y-24100331D01*
X351632720Y-24098335D01*
X351634383Y-24097224D01*
X351636060Y-24097951D01*
G37*
G36*
X350786060Y-24097951D02*
G01*
X350797584Y-24111993D01*
X350816221Y-24127288D01*
X350837484Y-24138653D01*
X350860559Y-24145653D01*
X350884550Y-24148016D01*
X350908542Y-24145653D01*
X350931616Y-24138653D01*
X350952880Y-24127288D01*
X350971517Y-24111992D01*
X350983040Y-24097951D01*
X350984912Y-24097247D01*
X350986458Y-24098516D01*
X350986249Y-24100331D01*
X350979721Y-24110102D01*
X350951664Y-24177835D01*
X350937361Y-24249745D01*
X350937361Y-24323055D01*
X350951664Y-24394965D01*
X350979721Y-24462698D01*
X350986249Y-24472469D01*
X350986380Y-24474465D01*
X350984717Y-24475576D01*
X350983040Y-24474849D01*
X350971516Y-24460807D01*
X350952879Y-24445512D01*
X350931616Y-24434147D01*
X350908541Y-24427147D01*
X350884550Y-24424784D01*
X350860558Y-24427147D01*
X350837484Y-24434147D01*
X350816220Y-24445512D01*
X350797583Y-24460808D01*
X350786060Y-24474849D01*
X350784188Y-24475553D01*
X350782642Y-24474284D01*
X350782851Y-24472469D01*
X350789379Y-24462698D01*
X350817436Y-24394965D01*
X350831739Y-24323055D01*
X350831739Y-24249745D01*
X350817436Y-24177835D01*
X350789379Y-24110102D01*
X350782851Y-24100331D01*
X350782720Y-24098335D01*
X350784383Y-24097224D01*
X350786060Y-24097951D01*
G37*
G36*
X349936060Y-24097951D02*
G01*
X349947584Y-24111993D01*
X349966221Y-24127288D01*
X349987484Y-24138653D01*
X350010559Y-24145653D01*
X350034550Y-24148016D01*
X350058542Y-24145653D01*
X350081616Y-24138653D01*
X350102880Y-24127288D01*
X350121517Y-24111992D01*
X350133040Y-24097951D01*
X350134912Y-24097247D01*
X350136458Y-24098516D01*
X350136249Y-24100331D01*
X350129721Y-24110102D01*
X350101664Y-24177835D01*
X350087361Y-24249745D01*
X350087361Y-24323055D01*
X350101664Y-24394965D01*
X350129721Y-24462698D01*
X350136249Y-24472469D01*
X350136380Y-24474465D01*
X350134717Y-24475576D01*
X350133040Y-24474849D01*
X350121516Y-24460807D01*
X350102879Y-24445512D01*
X350081616Y-24434147D01*
X350058541Y-24427147D01*
X350034550Y-24424784D01*
X350010558Y-24427147D01*
X349987484Y-24434147D01*
X349966220Y-24445512D01*
X349947583Y-24460808D01*
X349936060Y-24474849D01*
X349934188Y-24475553D01*
X349932642Y-24474284D01*
X349932851Y-24472469D01*
X349939379Y-24462698D01*
X349967436Y-24394965D01*
X349981739Y-24323055D01*
X349981739Y-24249745D01*
X349967436Y-24177835D01*
X349939379Y-24110102D01*
X349932851Y-24100331D01*
X349932720Y-24098335D01*
X349934383Y-24097224D01*
X349936060Y-24097951D01*
G37*
G36*
X349086060Y-24097951D02*
G01*
X349097584Y-24111993D01*
X349116221Y-24127288D01*
X349137484Y-24138653D01*
X349160559Y-24145653D01*
X349184550Y-24148016D01*
X349208542Y-24145653D01*
X349231616Y-24138653D01*
X349252880Y-24127288D01*
X349271517Y-24111992D01*
X349283040Y-24097951D01*
X349284912Y-24097247D01*
X349286458Y-24098516D01*
X349286249Y-24100331D01*
X349279721Y-24110102D01*
X349251664Y-24177835D01*
X349237361Y-24249745D01*
X349237361Y-24323055D01*
X349251664Y-24394965D01*
X349279721Y-24462698D01*
X349286249Y-24472469D01*
X349286380Y-24474465D01*
X349284717Y-24475576D01*
X349283040Y-24474849D01*
X349271516Y-24460807D01*
X349252879Y-24445512D01*
X349231616Y-24434147D01*
X349208541Y-24427147D01*
X349184550Y-24424784D01*
X349160558Y-24427147D01*
X349137484Y-24434147D01*
X349116220Y-24445512D01*
X349097583Y-24460808D01*
X349086060Y-24474849D01*
X349084188Y-24475553D01*
X349082642Y-24474284D01*
X349082851Y-24472469D01*
X349089379Y-24462698D01*
X349117436Y-24394965D01*
X349131739Y-24323055D01*
X349131739Y-24249745D01*
X349117436Y-24177835D01*
X349089379Y-24110102D01*
X349082851Y-24100331D01*
X349082720Y-24098335D01*
X349084383Y-24097224D01*
X349086060Y-24097951D01*
G37*
G36*
X346536060Y-24097951D02*
G01*
X346547584Y-24111993D01*
X346566221Y-24127288D01*
X346587484Y-24138653D01*
X346610559Y-24145653D01*
X346634550Y-24148016D01*
X346658542Y-24145653D01*
X346681616Y-24138653D01*
X346702880Y-24127288D01*
X346721517Y-24111992D01*
X346733040Y-24097951D01*
X346734912Y-24097247D01*
X346736458Y-24098516D01*
X346736249Y-24100331D01*
X346729721Y-24110102D01*
X346701664Y-24177835D01*
X346687361Y-24249745D01*
X346687361Y-24323055D01*
X346701664Y-24394965D01*
X346729721Y-24462698D01*
X346736249Y-24472469D01*
X346736380Y-24474465D01*
X346734717Y-24475576D01*
X346733040Y-24474849D01*
X346721516Y-24460807D01*
X346702879Y-24445512D01*
X346681616Y-24434147D01*
X346658541Y-24427147D01*
X346634550Y-24424784D01*
X346610558Y-24427147D01*
X346587484Y-24434147D01*
X346566220Y-24445512D01*
X346547583Y-24460808D01*
X346536060Y-24474849D01*
X346534188Y-24475553D01*
X346532642Y-24474284D01*
X346532851Y-24472469D01*
X346539379Y-24462698D01*
X346567436Y-24394965D01*
X346581739Y-24323055D01*
X346581739Y-24249745D01*
X346567436Y-24177835D01*
X346539379Y-24110102D01*
X346532851Y-24100331D01*
X346532720Y-24098335D01*
X346534383Y-24097224D01*
X346536060Y-24097951D01*
G37*
G36*
X351641060Y-22772951D02*
G01*
X351652584Y-22786993D01*
X351671221Y-22802288D01*
X351692484Y-22813653D01*
X351715559Y-22820653D01*
X351739550Y-22823016D01*
X351763542Y-22820653D01*
X351786616Y-22813653D01*
X351807880Y-22802288D01*
X351826517Y-22786992D01*
X351838040Y-22772951D01*
X351839912Y-22772247D01*
X351841458Y-22773516D01*
X351841249Y-22775331D01*
X351834721Y-22785102D01*
X351806664Y-22852835D01*
X351792361Y-22924745D01*
X351792361Y-22998055D01*
X351806664Y-23069965D01*
X351834721Y-23137698D01*
X351841249Y-23147469D01*
X351841380Y-23149465D01*
X351839717Y-23150576D01*
X351838040Y-23149849D01*
X351826516Y-23135807D01*
X351807879Y-23120512D01*
X351786616Y-23109147D01*
X351763541Y-23102147D01*
X351739550Y-23099784D01*
X351715558Y-23102147D01*
X351692484Y-23109147D01*
X351671220Y-23120512D01*
X351652583Y-23135808D01*
X351641060Y-23149849D01*
X351639188Y-23150553D01*
X351637642Y-23149284D01*
X351637851Y-23147469D01*
X351644379Y-23137698D01*
X351672436Y-23069965D01*
X351686739Y-22998055D01*
X351686739Y-22924745D01*
X351672436Y-22852835D01*
X351644379Y-22785102D01*
X351637851Y-22775331D01*
X351637720Y-22773335D01*
X351639383Y-22772224D01*
X351641060Y-22772951D01*
G37*
G36*
X347391060Y-22772951D02*
G01*
X347402584Y-22786993D01*
X347421221Y-22802288D01*
X347442484Y-22813653D01*
X347465559Y-22820653D01*
X347489550Y-22823016D01*
X347513542Y-22820653D01*
X347536616Y-22813653D01*
X347557880Y-22802288D01*
X347576517Y-22786992D01*
X347588040Y-22772951D01*
X347589912Y-22772247D01*
X347591458Y-22773516D01*
X347591249Y-22775331D01*
X347584721Y-22785102D01*
X347556664Y-22852835D01*
X347542361Y-22924745D01*
X347542361Y-22998055D01*
X347556664Y-23069965D01*
X347584721Y-23137698D01*
X347591249Y-23147469D01*
X347591380Y-23149465D01*
X347589717Y-23150576D01*
X347588040Y-23149849D01*
X347576516Y-23135807D01*
X347557879Y-23120512D01*
X347536616Y-23109147D01*
X347513541Y-23102147D01*
X347489550Y-23099784D01*
X347465558Y-23102147D01*
X347442484Y-23109147D01*
X347421220Y-23120512D01*
X347402583Y-23135808D01*
X347391060Y-23149849D01*
X347389188Y-23150553D01*
X347387642Y-23149284D01*
X347387851Y-23147469D01*
X347394379Y-23137698D01*
X347422436Y-23069965D01*
X347436739Y-22998055D01*
X347436739Y-22924745D01*
X347422436Y-22852835D01*
X347394379Y-22785102D01*
X347387851Y-22775331D01*
X347387720Y-22773335D01*
X347389383Y-22772224D01*
X347391060Y-22772951D01*
G37*
G36*
X349091060Y-22772951D02*
G01*
X349102584Y-22786993D01*
X349121221Y-22802288D01*
X349142484Y-22813653D01*
X349165559Y-22820653D01*
X349189550Y-22823016D01*
X349213542Y-22820653D01*
X349236616Y-22813653D01*
X349257880Y-22802288D01*
X349276517Y-22786992D01*
X349288040Y-22772951D01*
X349289912Y-22772247D01*
X349291458Y-22773516D01*
X349291249Y-22775331D01*
X349284721Y-22785102D01*
X349256664Y-22852835D01*
X349242361Y-22924745D01*
X349242361Y-22998055D01*
X349256664Y-23069965D01*
X349284721Y-23137698D01*
X349291249Y-23147469D01*
X349291380Y-23149465D01*
X349289717Y-23150576D01*
X349288040Y-23149849D01*
X349276516Y-23135807D01*
X349257879Y-23120512D01*
X349236616Y-23109147D01*
X349213541Y-23102147D01*
X349189550Y-23099784D01*
X349165558Y-23102147D01*
X349142484Y-23109147D01*
X349121220Y-23120512D01*
X349102583Y-23135808D01*
X349091060Y-23149849D01*
X349089188Y-23150553D01*
X349087642Y-23149284D01*
X349087851Y-23147469D01*
X349094379Y-23137698D01*
X349122436Y-23069965D01*
X349136739Y-22998055D01*
X349136739Y-22924745D01*
X349122436Y-22852835D01*
X349094379Y-22785102D01*
X349087851Y-22775331D01*
X349087720Y-22773335D01*
X349089383Y-22772224D01*
X349091060Y-22772951D01*
G37*
G36*
X348241060Y-22772951D02*
G01*
X348252584Y-22786993D01*
X348271221Y-22802288D01*
X348292484Y-22813653D01*
X348315559Y-22820653D01*
X348339550Y-22823016D01*
X348363542Y-22820653D01*
X348386616Y-22813653D01*
X348407880Y-22802288D01*
X348426517Y-22786992D01*
X348438040Y-22772951D01*
X348439912Y-22772247D01*
X348441458Y-22773516D01*
X348441249Y-22775331D01*
X348434721Y-22785102D01*
X348406664Y-22852835D01*
X348392361Y-22924745D01*
X348392361Y-22998055D01*
X348406664Y-23069965D01*
X348434721Y-23137698D01*
X348441249Y-23147469D01*
X348441380Y-23149465D01*
X348439717Y-23150576D01*
X348438040Y-23149849D01*
X348426516Y-23135807D01*
X348407879Y-23120512D01*
X348386616Y-23109147D01*
X348363541Y-23102147D01*
X348339550Y-23099784D01*
X348315558Y-23102147D01*
X348292484Y-23109147D01*
X348271220Y-23120512D01*
X348252583Y-23135808D01*
X348241060Y-23149849D01*
X348239188Y-23150553D01*
X348237642Y-23149284D01*
X348237851Y-23147469D01*
X348244379Y-23137698D01*
X348272436Y-23069965D01*
X348286739Y-22998055D01*
X348286739Y-22924745D01*
X348272436Y-22852835D01*
X348244379Y-22785102D01*
X348237851Y-22775331D01*
X348237720Y-22773335D01*
X348239383Y-22772224D01*
X348241060Y-22772951D01*
G37*
G36*
X350791060Y-22772951D02*
G01*
X350802584Y-22786993D01*
X350821221Y-22802288D01*
X350842484Y-22813653D01*
X350865559Y-22820653D01*
X350889550Y-22823016D01*
X350913542Y-22820653D01*
X350936616Y-22813653D01*
X350957880Y-22802288D01*
X350976517Y-22786992D01*
X350988040Y-22772951D01*
X350989912Y-22772247D01*
X350991458Y-22773516D01*
X350991249Y-22775331D01*
X350984721Y-22785102D01*
X350956664Y-22852835D01*
X350942361Y-22924745D01*
X350942361Y-22998055D01*
X350956664Y-23069965D01*
X350984721Y-23137698D01*
X350991249Y-23147469D01*
X350991380Y-23149465D01*
X350989717Y-23150576D01*
X350988040Y-23149849D01*
X350976516Y-23135807D01*
X350957879Y-23120512D01*
X350936616Y-23109147D01*
X350913541Y-23102147D01*
X350889550Y-23099784D01*
X350865558Y-23102147D01*
X350842484Y-23109147D01*
X350821220Y-23120512D01*
X350802583Y-23135808D01*
X350791060Y-23149849D01*
X350789188Y-23150553D01*
X350787642Y-23149284D01*
X350787851Y-23147469D01*
X350794379Y-23137698D01*
X350822436Y-23069965D01*
X350836739Y-22998055D01*
X350836739Y-22924745D01*
X350822436Y-22852835D01*
X350794379Y-22785102D01*
X350787851Y-22775331D01*
X350787720Y-22773335D01*
X350789383Y-22772224D01*
X350791060Y-22772951D01*
G37*
G36*
X349941060Y-22772951D02*
G01*
X349952584Y-22786993D01*
X349971221Y-22802288D01*
X349992484Y-22813653D01*
X350015559Y-22820653D01*
X350039550Y-22823016D01*
X350063542Y-22820653D01*
X350086616Y-22813653D01*
X350107880Y-22802288D01*
X350126517Y-22786992D01*
X350138040Y-22772951D01*
X350139912Y-22772247D01*
X350141458Y-22773516D01*
X350141249Y-22775331D01*
X350134721Y-22785102D01*
X350106664Y-22852835D01*
X350092361Y-22924745D01*
X350092361Y-22998055D01*
X350106664Y-23069965D01*
X350134721Y-23137698D01*
X350141249Y-23147469D01*
X350141380Y-23149465D01*
X350139717Y-23150576D01*
X350138040Y-23149849D01*
X350126516Y-23135807D01*
X350107879Y-23120512D01*
X350086616Y-23109147D01*
X350063541Y-23102147D01*
X350039550Y-23099784D01*
X350015558Y-23102147D01*
X349992484Y-23109147D01*
X349971220Y-23120512D01*
X349952583Y-23135808D01*
X349941060Y-23149849D01*
X349939188Y-23150553D01*
X349937642Y-23149284D01*
X349937851Y-23147469D01*
X349944379Y-23137698D01*
X349972436Y-23069965D01*
X349986739Y-22998055D01*
X349986739Y-22924745D01*
X349972436Y-22852835D01*
X349944379Y-22785102D01*
X349937851Y-22775331D01*
X349937720Y-22773335D01*
X349939383Y-22772224D01*
X349941060Y-22772951D01*
G37*
G36*
X346538557Y-22776689D02*
G01*
X346550084Y-22790734D01*
X346568721Y-22806029D01*
X346589985Y-22817394D01*
X346613060Y-22824394D01*
X346637051Y-22826757D01*
X346661042Y-22824394D01*
X346684117Y-22817394D01*
X346705381Y-22806028D01*
X346724017Y-22790733D01*
X346735543Y-22776689D01*
X346737415Y-22775985D01*
X346738961Y-22777254D01*
X346738752Y-22779069D01*
X346734721Y-22785102D01*
X346706664Y-22852835D01*
X346692361Y-22924745D01*
X346692361Y-22998055D01*
X346706664Y-23069965D01*
X346734721Y-23137698D01*
X346738752Y-23143731D01*
X346738883Y-23145727D01*
X346737220Y-23146838D01*
X346735543Y-23146111D01*
X346724016Y-23132066D01*
X346705379Y-23116771D01*
X346684115Y-23105406D01*
X346661040Y-23098406D01*
X346637049Y-23096043D01*
X346613058Y-23098406D01*
X346589983Y-23105406D01*
X346568719Y-23116772D01*
X346550083Y-23132067D01*
X346538557Y-23146111D01*
X346536685Y-23146815D01*
X346535139Y-23145546D01*
X346535348Y-23143731D01*
X346539379Y-23137698D01*
X346567436Y-23069965D01*
X346581739Y-22998055D01*
X346581739Y-22924745D01*
X346567436Y-22852835D01*
X346539379Y-22785102D01*
X346535348Y-22779069D01*
X346535217Y-22777073D01*
X346536880Y-22775962D01*
X346538557Y-22776689D01*
G37*
M02*
