G04 #@! TF.GenerationSoftware,KiCad,Pcbnew,(5.1.12)-1*
G04 #@! TF.CreationDate,2021-12-22T13:58:05-08:00*
G04 #@! TF.ProjectId,logboi,6c6f6762-6f69-42e6-9b69-6361645f7063,rev?*
G04 #@! TF.SameCoordinates,Original*
G04 #@! TF.FileFunction,Legend,Bot*
G04 #@! TF.FilePolarity,Positive*
%FSLAX46Y46*%
G04 Gerber Fmt 4.6, Leading zero omitted, Abs format (unit mm)*
G04 Created by KiCad (PCBNEW (5.1.12)-1) date 2021-12-22 13:58:05*
%MOMM*%
%LPD*%
G01*
G04 APERTURE LIST*
%ADD10C,0.120000*%
%ADD11C,0.150000*%
G04 APERTURE END LIST*
D10*
X384273750Y-92212400D02*
X384273750Y-89662400D01*
X382573750Y-92212400D02*
X382573750Y-89662400D01*
X384273750Y-92212400D02*
X382573750Y-92212400D01*
X384248350Y-73128000D02*
X384248350Y-70578000D01*
X382548350Y-73128000D02*
X382548350Y-70578000D01*
X384248350Y-73128000D02*
X382548350Y-73128000D01*
X384273750Y-54205000D02*
X384273750Y-51655000D01*
X382573750Y-54205000D02*
X382573750Y-51655000D01*
X384273750Y-54205000D02*
X382573750Y-54205000D01*
X384273750Y-35155000D02*
X384273750Y-32605000D01*
X382573750Y-35155000D02*
X382573750Y-32605000D01*
X384273750Y-35155000D02*
X382573750Y-35155000D01*
X365198350Y-92178000D02*
X365198350Y-89628000D01*
X363498350Y-92178000D02*
X363498350Y-89628000D01*
X365198350Y-92178000D02*
X363498350Y-92178000D01*
X346148350Y-92178000D02*
X346148350Y-89628000D01*
X344448350Y-92178000D02*
X344448350Y-89628000D01*
X346148350Y-92178000D02*
X344448350Y-92178000D01*
X327098350Y-92178000D02*
X327098350Y-89628000D01*
X325398350Y-92178000D02*
X325398350Y-89628000D01*
X327098350Y-92178000D02*
X325398350Y-92178000D01*
X308099150Y-92178000D02*
X308099150Y-89628000D01*
X306399150Y-92178000D02*
X306399150Y-89628000D01*
X308099150Y-92178000D02*
X306399150Y-92178000D01*
X289049150Y-92178000D02*
X289049150Y-89628000D01*
X287349150Y-92178000D02*
X287349150Y-89628000D01*
X289049150Y-92178000D02*
X287349150Y-92178000D01*
X253330400Y-92178000D02*
X253330400Y-89628000D01*
X251630400Y-92178000D02*
X251630400Y-89628000D01*
X253330400Y-92178000D02*
X251630400Y-92178000D01*
X217611650Y-92178000D02*
X217611650Y-89628000D01*
X215911650Y-92178000D02*
X215911650Y-89628000D01*
X217611650Y-92178000D02*
X215911650Y-92178000D01*
X186655400Y-92203400D02*
X186655400Y-89653400D01*
X184955400Y-92203400D02*
X184955400Y-89653400D01*
X186655400Y-92203400D02*
X184955400Y-92203400D01*
X153292500Y-92305000D02*
X153292500Y-89755000D01*
X151592500Y-92305000D02*
X151592500Y-89755000D01*
X153292500Y-92305000D02*
X151592500Y-92305000D01*
X129505400Y-92203400D02*
X129505400Y-89653400D01*
X127805400Y-92203400D02*
X127805400Y-89653400D01*
X129505400Y-92203400D02*
X127805400Y-92203400D01*
X103311650Y-92203400D02*
X103311650Y-89653400D01*
X101611650Y-92203400D02*
X101611650Y-89653400D01*
X103311650Y-92203400D02*
X101611650Y-92203400D01*
X79499150Y-92203400D02*
X79499150Y-89653400D01*
X77799150Y-92203400D02*
X77799150Y-89653400D01*
X79499150Y-92203400D02*
X77799150Y-92203400D01*
X60449150Y-92203400D02*
X60449150Y-89653400D01*
X58749150Y-92203400D02*
X58749150Y-89653400D01*
X60449150Y-92203400D02*
X58749150Y-92203400D01*
X31848750Y-92305000D02*
X31848750Y-89755000D01*
X30148750Y-92305000D02*
X30148750Y-89755000D01*
X31848750Y-92305000D02*
X30148750Y-92305000D01*
X365198350Y-73128000D02*
X365198350Y-70578000D01*
X363498350Y-73128000D02*
X363498350Y-70578000D01*
X365198350Y-73128000D02*
X363498350Y-73128000D01*
X339004600Y-73128000D02*
X339004600Y-70578000D01*
X337304600Y-73128000D02*
X337304600Y-70578000D01*
X339004600Y-73128000D02*
X337304600Y-73128000D01*
X312810850Y-73128000D02*
X312810850Y-70578000D01*
X311110850Y-73128000D02*
X311110850Y-70578000D01*
X312810850Y-73128000D02*
X311110850Y-73128000D01*
X293811650Y-73128000D02*
X293811650Y-70578000D01*
X292111650Y-73128000D02*
X292111650Y-70578000D01*
X293811650Y-73128000D02*
X292111650Y-73128000D01*
X274761650Y-73128000D02*
X274761650Y-70578000D01*
X273061650Y-73128000D02*
X273061650Y-70578000D01*
X274761650Y-73128000D02*
X273061650Y-73128000D01*
X255711650Y-73128000D02*
X255711650Y-70578000D01*
X254011650Y-73128000D02*
X254011650Y-70578000D01*
X255711650Y-73128000D02*
X254011650Y-73128000D01*
X236661650Y-73128000D02*
X236661650Y-70578000D01*
X234961650Y-73128000D02*
X234961650Y-70578000D01*
X236661650Y-73128000D02*
X234961650Y-73128000D01*
X217611650Y-73128000D02*
X217611650Y-70578000D01*
X215911650Y-73128000D02*
X215911650Y-70578000D01*
X217611650Y-73128000D02*
X215911650Y-73128000D01*
X198536250Y-73145600D02*
X198536250Y-70595600D01*
X196836250Y-73145600D02*
X196836250Y-70595600D01*
X198536250Y-73145600D02*
X196836250Y-73145600D01*
X179511650Y-73153400D02*
X179511650Y-70603400D01*
X177811650Y-73153400D02*
X177811650Y-70603400D01*
X179511650Y-73153400D02*
X177811650Y-73153400D01*
X160461650Y-73153400D02*
X160461650Y-70603400D01*
X158761650Y-73153400D02*
X158761650Y-70603400D01*
X160461650Y-73153400D02*
X158761650Y-73153400D01*
X141411650Y-73153400D02*
X141411650Y-70603400D01*
X139711650Y-73153400D02*
X139711650Y-70603400D01*
X141411650Y-73153400D02*
X139711650Y-73153400D01*
X110455400Y-73153400D02*
X110455400Y-70603400D01*
X108755400Y-73153400D02*
X108755400Y-70603400D01*
X110455400Y-73153400D02*
X108755400Y-73153400D01*
X79499150Y-73153400D02*
X79499150Y-70603400D01*
X77799150Y-73153400D02*
X77799150Y-70603400D01*
X79499150Y-73153400D02*
X77799150Y-73153400D01*
X60449150Y-73153400D02*
X60449150Y-70603400D01*
X58749150Y-73153400D02*
X58749150Y-70603400D01*
X60449150Y-73153400D02*
X58749150Y-73153400D01*
X41373750Y-73178800D02*
X41373750Y-70628800D01*
X39673750Y-73178800D02*
X39673750Y-70628800D01*
X41373750Y-73178800D02*
X39673750Y-73178800D01*
X22323750Y-73178800D02*
X22323750Y-70628800D01*
X20623750Y-73178800D02*
X20623750Y-70628800D01*
X22323750Y-73178800D02*
X20623750Y-73178800D01*
X353317500Y-54103400D02*
X353317500Y-51553400D01*
X351617500Y-54103400D02*
X351617500Y-51553400D01*
X353317500Y-54103400D02*
X351617500Y-54103400D01*
X322361250Y-54103400D02*
X322361250Y-51553400D01*
X320661250Y-54103400D02*
X320661250Y-51553400D01*
X322361250Y-54103400D02*
X320661250Y-54103400D01*
X303311250Y-54103400D02*
X303311250Y-51553400D01*
X301611250Y-54103400D02*
X301611250Y-51553400D01*
X303311250Y-54103400D02*
X301611250Y-54103400D01*
X284261250Y-54103400D02*
X284261250Y-51553400D01*
X282561250Y-54103400D02*
X282561250Y-51553400D01*
X284261250Y-54103400D02*
X282561250Y-54103400D01*
X265211250Y-54103400D02*
X265211250Y-51553400D01*
X263511250Y-54103400D02*
X263511250Y-51553400D01*
X265211250Y-54103400D02*
X263511250Y-54103400D01*
X246161250Y-54103400D02*
X246161250Y-51553400D01*
X244461250Y-54103400D02*
X244461250Y-51553400D01*
X246161250Y-54103400D02*
X244461250Y-54103400D01*
X227111250Y-54103400D02*
X227111250Y-51553400D01*
X225411250Y-54103400D02*
X225411250Y-51553400D01*
X227111250Y-54103400D02*
X225411250Y-54103400D01*
X208061250Y-54103400D02*
X208061250Y-51553400D01*
X206361250Y-54103400D02*
X206361250Y-51553400D01*
X208061250Y-54103400D02*
X206361250Y-54103400D01*
X189011250Y-54103400D02*
X189011250Y-51553400D01*
X187311250Y-54103400D02*
X187311250Y-51553400D01*
X189011250Y-54103400D02*
X187311250Y-54103400D01*
X169961250Y-54103400D02*
X169961250Y-51553400D01*
X168261250Y-54103400D02*
X168261250Y-51553400D01*
X169961250Y-54103400D02*
X168261250Y-54103400D01*
X150911250Y-54103400D02*
X150911250Y-51553400D01*
X149211250Y-54103400D02*
X149211250Y-51553400D01*
X150911250Y-54103400D02*
X149211250Y-54103400D01*
X131861250Y-54103400D02*
X131861250Y-51553400D01*
X130161250Y-54103400D02*
X130161250Y-51553400D01*
X131861250Y-54103400D02*
X130161250Y-54103400D01*
X105667500Y-54103400D02*
X105667500Y-51553400D01*
X103967500Y-54103400D02*
X103967500Y-51553400D01*
X105667500Y-54103400D02*
X103967500Y-54103400D01*
X79448350Y-54103400D02*
X79448350Y-51553400D01*
X77748350Y-54103400D02*
X77748350Y-51553400D01*
X79448350Y-54103400D02*
X77748350Y-54103400D01*
X60398350Y-54103400D02*
X60398350Y-51553400D01*
X58698350Y-54103400D02*
X58698350Y-51553400D01*
X60398350Y-54103400D02*
X58698350Y-54103400D01*
X41348350Y-54103400D02*
X41348350Y-51553400D01*
X39648350Y-54103400D02*
X39648350Y-51553400D01*
X41348350Y-54103400D02*
X39648350Y-54103400D01*
X22298350Y-54103400D02*
X22298350Y-51553400D01*
X20598350Y-54103400D02*
X20598350Y-51553400D01*
X22298350Y-54103400D02*
X20598350Y-54103400D01*
X360461250Y-35155000D02*
X360461250Y-32605000D01*
X358761250Y-35155000D02*
X358761250Y-32605000D01*
X360461250Y-35155000D02*
X358761250Y-35155000D01*
X336648750Y-35053400D02*
X336648750Y-32503400D01*
X334948750Y-35053400D02*
X334948750Y-32503400D01*
X336648750Y-35053400D02*
X334948750Y-35053400D01*
X317598750Y-35053400D02*
X317598750Y-32503400D01*
X315898750Y-35053400D02*
X315898750Y-32503400D01*
X317598750Y-35053400D02*
X315898750Y-35053400D01*
X298548750Y-35053400D02*
X298548750Y-32503400D01*
X296848750Y-35053400D02*
X296848750Y-32503400D01*
X298548750Y-35053400D02*
X296848750Y-35053400D01*
X279498750Y-35053400D02*
X279498750Y-32503400D01*
X277798750Y-35053400D02*
X277798750Y-32503400D01*
X279498750Y-35053400D02*
X277798750Y-35053400D01*
X260448750Y-35053400D02*
X260448750Y-32503400D01*
X258748750Y-35053400D02*
X258748750Y-32503400D01*
X260448750Y-35053400D02*
X258748750Y-35053400D01*
X241398750Y-35053400D02*
X241398750Y-32503400D01*
X239698750Y-35053400D02*
X239698750Y-32503400D01*
X241398750Y-35053400D02*
X239698750Y-35053400D01*
X222348750Y-35053400D02*
X222348750Y-32503400D01*
X220648750Y-35053400D02*
X220648750Y-32503400D01*
X222348750Y-35053400D02*
X220648750Y-35053400D01*
X203298750Y-35053400D02*
X203298750Y-32503400D01*
X201598750Y-35053400D02*
X201598750Y-32503400D01*
X203298750Y-35053400D02*
X201598750Y-35053400D01*
X184248750Y-35053400D02*
X184248750Y-32503400D01*
X182548750Y-35053400D02*
X182548750Y-32503400D01*
X184248750Y-35053400D02*
X182548750Y-35053400D01*
X165198750Y-35053400D02*
X165198750Y-32503400D01*
X163498750Y-35053400D02*
X163498750Y-32503400D01*
X165198750Y-35053400D02*
X163498750Y-35053400D01*
X146148750Y-35053400D02*
X146148750Y-32503400D01*
X144448750Y-35053400D02*
X144448750Y-32503400D01*
X146148750Y-35053400D02*
X144448750Y-35053400D01*
X127098750Y-35053400D02*
X127098750Y-32503400D01*
X125398750Y-35053400D02*
X125398750Y-32503400D01*
X127098750Y-35053400D02*
X125398750Y-35053400D01*
X103286250Y-35053400D02*
X103286250Y-32503400D01*
X101586250Y-35053400D02*
X101586250Y-32503400D01*
X103286250Y-35053400D02*
X101586250Y-35053400D01*
X79473750Y-35053400D02*
X79473750Y-32503400D01*
X77773750Y-35053400D02*
X77773750Y-32503400D01*
X79473750Y-35053400D02*
X77773750Y-35053400D01*
X60423750Y-35053400D02*
X60423750Y-32503400D01*
X58723750Y-35053400D02*
X58723750Y-32503400D01*
X60423750Y-35053400D02*
X58723750Y-35053400D01*
X41373750Y-35053400D02*
X41373750Y-32503400D01*
X39673750Y-35053400D02*
X39673750Y-32503400D01*
X41373750Y-35053400D02*
X39673750Y-35053400D01*
X22323750Y-35053400D02*
X22323750Y-32503400D01*
X20623750Y-35053400D02*
X20623750Y-32503400D01*
X22323750Y-35053400D02*
X20623750Y-35053400D01*
X347139850Y-35171464D02*
X347139850Y-33967336D01*
X348959850Y-35171464D02*
X348959850Y-33967336D01*
D11*
X205908250Y-87213000D02*
G75*
G03*
X205908250Y-87213000I-1000000J0D01*
G01*
X202308250Y-84613000D02*
X202308250Y-89813000D01*
X207508250Y-84613000D02*
X202308250Y-84613000D01*
X207508250Y-89813000D02*
X207508250Y-84613000D01*
X202308250Y-89813000D02*
X207508250Y-89813000D01*
D10*
X161169100Y-96052000D02*
X165169100Y-96052000D01*
X161169100Y-99352000D02*
X161169100Y-96052000D01*
X173257850Y-83308800D02*
X173732850Y-83308800D01*
X166512850Y-90528800D02*
X166512850Y-90053800D01*
X166987850Y-90528800D02*
X166512850Y-90528800D01*
X173732850Y-90528800D02*
X173732850Y-90053800D01*
X173257850Y-90528800D02*
X173732850Y-90528800D01*
X166512850Y-83308800D02*
X166512850Y-83783800D01*
X166987850Y-83308800D02*
X166512850Y-83308800D01*
X159073100Y-97418148D02*
X159073100Y-97940652D01*
X160493100Y-97418148D02*
X160493100Y-97940652D01*
X356955202Y-23417600D02*
X356432698Y-23417600D01*
X356955202Y-21997600D02*
X356432698Y-21997600D01*
X338052098Y-22454800D02*
X338574602Y-22454800D01*
X338052098Y-23874800D02*
X338574602Y-23874800D01*
D11*
X344559550Y-18186400D02*
X353809550Y-18186400D01*
X344709550Y-24846400D02*
X353659550Y-24846400D01*
X353664550Y-16436400D02*
X353659550Y-15676400D01*
X344709550Y-15676400D02*
X353659550Y-15676400D01*
X344709550Y-15676400D02*
X344704550Y-16436400D01*
X349184550Y-18186400D02*
X349184550Y-19456400D01*
D10*
X230131900Y-90262400D02*
X230131900Y-91592400D01*
X231461900Y-90262400D02*
X230131900Y-90262400D01*
X230131900Y-92862400D02*
X230131900Y-95462400D01*
X232731900Y-92862400D02*
X230131900Y-92862400D01*
X232731900Y-90262400D02*
X232731900Y-92862400D01*
X230131900Y-95462400D02*
X237871900Y-95462400D01*
X232731900Y-90262400D02*
X237871900Y-90262400D01*
X237871900Y-90262400D02*
X237871900Y-95462400D01*
X162882650Y-80138748D02*
X162882650Y-80661252D01*
X161462650Y-80138748D02*
X161462650Y-80661252D01*
X349879850Y-29563852D02*
X349879850Y-29041348D01*
X351299850Y-29563852D02*
X351299850Y-29041348D01*
X347898650Y-29589252D02*
X347898650Y-29066748D01*
X349318650Y-29589252D02*
X349318650Y-29066748D01*
X198904250Y-89019748D02*
X198904250Y-89542252D01*
X197484250Y-89019748D02*
X197484250Y-89542252D01*
X179420998Y-88060600D02*
X179943502Y-88060600D01*
X179420998Y-86640600D02*
X179943502Y-86640600D01*
X165880300Y-97519748D02*
X165880300Y-98042252D01*
X167300300Y-97519748D02*
X167300300Y-98042252D01*
X174439102Y-77064800D02*
X173916598Y-77064800D01*
X174439102Y-78484800D02*
X173916598Y-78484800D01*
X160294250Y-91144348D02*
X160294250Y-91666852D01*
X161714250Y-91144348D02*
X161714250Y-91666852D01*
X164874198Y-79475400D02*
X165396702Y-79475400D01*
X164874198Y-78055400D02*
X165396702Y-78055400D01*
X172918050Y-97071548D02*
X172918050Y-97594052D01*
X174338050Y-97071548D02*
X174338050Y-97594052D01*
D11*
X385726130Y-89498114D02*
X384726130Y-89498114D01*
X384726130Y-89736209D01*
X384773750Y-89879066D01*
X384868988Y-89974304D01*
X384964226Y-90021923D01*
X385154702Y-90069542D01*
X385297559Y-90069542D01*
X385488035Y-90021923D01*
X385583273Y-89974304D01*
X385678511Y-89879066D01*
X385726130Y-89736209D01*
X385726130Y-89498114D01*
X384726130Y-90926685D02*
X384726130Y-90736209D01*
X384773750Y-90640971D01*
X384821369Y-90593352D01*
X384964226Y-90498114D01*
X385154702Y-90450495D01*
X385535654Y-90450495D01*
X385630892Y-90498114D01*
X385678511Y-90545733D01*
X385726130Y-90640971D01*
X385726130Y-90831447D01*
X385678511Y-90926685D01*
X385630892Y-90974304D01*
X385535654Y-91021923D01*
X385297559Y-91021923D01*
X385202321Y-90974304D01*
X385154702Y-90926685D01*
X385107083Y-90831447D01*
X385107083Y-90640971D01*
X385154702Y-90545733D01*
X385202321Y-90498114D01*
X385297559Y-90450495D01*
X385726130Y-91498114D02*
X385726130Y-91688590D01*
X385678511Y-91783828D01*
X385630892Y-91831447D01*
X385488035Y-91926685D01*
X385297559Y-91974304D01*
X384916607Y-91974304D01*
X384821369Y-91926685D01*
X384773750Y-91879066D01*
X384726130Y-91783828D01*
X384726130Y-91593352D01*
X384773750Y-91498114D01*
X384821369Y-91450495D01*
X384916607Y-91402876D01*
X385154702Y-91402876D01*
X385249940Y-91450495D01*
X385297559Y-91498114D01*
X385345178Y-91593352D01*
X385345178Y-91783828D01*
X385297559Y-91879066D01*
X385249940Y-91926685D01*
X385154702Y-91974304D01*
X385700730Y-70413714D02*
X384700730Y-70413714D01*
X384700730Y-70651809D01*
X384748350Y-70794666D01*
X384843588Y-70889904D01*
X384938826Y-70937523D01*
X385129302Y-70985142D01*
X385272159Y-70985142D01*
X385462635Y-70937523D01*
X385557873Y-70889904D01*
X385653111Y-70794666D01*
X385700730Y-70651809D01*
X385700730Y-70413714D01*
X384700730Y-71842285D02*
X384700730Y-71651809D01*
X384748350Y-71556571D01*
X384795969Y-71508952D01*
X384938826Y-71413714D01*
X385129302Y-71366095D01*
X385510254Y-71366095D01*
X385605492Y-71413714D01*
X385653111Y-71461333D01*
X385700730Y-71556571D01*
X385700730Y-71747047D01*
X385653111Y-71842285D01*
X385605492Y-71889904D01*
X385510254Y-71937523D01*
X385272159Y-71937523D01*
X385176921Y-71889904D01*
X385129302Y-71842285D01*
X385081683Y-71747047D01*
X385081683Y-71556571D01*
X385129302Y-71461333D01*
X385176921Y-71413714D01*
X385272159Y-71366095D01*
X385129302Y-72508952D02*
X385081683Y-72413714D01*
X385034064Y-72366095D01*
X384938826Y-72318476D01*
X384891207Y-72318476D01*
X384795969Y-72366095D01*
X384748350Y-72413714D01*
X384700730Y-72508952D01*
X384700730Y-72699428D01*
X384748350Y-72794666D01*
X384795969Y-72842285D01*
X384891207Y-72889904D01*
X384938826Y-72889904D01*
X385034064Y-72842285D01*
X385081683Y-72794666D01*
X385129302Y-72699428D01*
X385129302Y-72508952D01*
X385176921Y-72413714D01*
X385224540Y-72366095D01*
X385319778Y-72318476D01*
X385510254Y-72318476D01*
X385605492Y-72366095D01*
X385653111Y-72413714D01*
X385700730Y-72508952D01*
X385700730Y-72699428D01*
X385653111Y-72794666D01*
X385605492Y-72842285D01*
X385510254Y-72889904D01*
X385319778Y-72889904D01*
X385224540Y-72842285D01*
X385176921Y-72794666D01*
X385129302Y-72699428D01*
X385726130Y-51490714D02*
X384726130Y-51490714D01*
X384726130Y-51728809D01*
X384773750Y-51871666D01*
X384868988Y-51966904D01*
X384964226Y-52014523D01*
X385154702Y-52062142D01*
X385297559Y-52062142D01*
X385488035Y-52014523D01*
X385583273Y-51966904D01*
X385678511Y-51871666D01*
X385726130Y-51728809D01*
X385726130Y-51490714D01*
X384726130Y-52919285D02*
X384726130Y-52728809D01*
X384773750Y-52633571D01*
X384821369Y-52585952D01*
X384964226Y-52490714D01*
X385154702Y-52443095D01*
X385535654Y-52443095D01*
X385630892Y-52490714D01*
X385678511Y-52538333D01*
X385726130Y-52633571D01*
X385726130Y-52824047D01*
X385678511Y-52919285D01*
X385630892Y-52966904D01*
X385535654Y-53014523D01*
X385297559Y-53014523D01*
X385202321Y-52966904D01*
X385154702Y-52919285D01*
X385107083Y-52824047D01*
X385107083Y-52633571D01*
X385154702Y-52538333D01*
X385202321Y-52490714D01*
X385297559Y-52443095D01*
X384726130Y-53347857D02*
X384726130Y-54014523D01*
X385726130Y-53585952D01*
X385726130Y-32440714D02*
X384726130Y-32440714D01*
X384726130Y-32678809D01*
X384773750Y-32821666D01*
X384868988Y-32916904D01*
X384964226Y-32964523D01*
X385154702Y-33012142D01*
X385297559Y-33012142D01*
X385488035Y-32964523D01*
X385583273Y-32916904D01*
X385678511Y-32821666D01*
X385726130Y-32678809D01*
X385726130Y-32440714D01*
X384726130Y-33869285D02*
X384726130Y-33678809D01*
X384773750Y-33583571D01*
X384821369Y-33535952D01*
X384964226Y-33440714D01*
X385154702Y-33393095D01*
X385535654Y-33393095D01*
X385630892Y-33440714D01*
X385678511Y-33488333D01*
X385726130Y-33583571D01*
X385726130Y-33774047D01*
X385678511Y-33869285D01*
X385630892Y-33916904D01*
X385535654Y-33964523D01*
X385297559Y-33964523D01*
X385202321Y-33916904D01*
X385154702Y-33869285D01*
X385107083Y-33774047D01*
X385107083Y-33583571D01*
X385154702Y-33488333D01*
X385202321Y-33440714D01*
X385297559Y-33393095D01*
X384726130Y-34821666D02*
X384726130Y-34631190D01*
X384773750Y-34535952D01*
X384821369Y-34488333D01*
X384964226Y-34393095D01*
X385154702Y-34345476D01*
X385535654Y-34345476D01*
X385630892Y-34393095D01*
X385678511Y-34440714D01*
X385726130Y-34535952D01*
X385726130Y-34726428D01*
X385678511Y-34821666D01*
X385630892Y-34869285D01*
X385535654Y-34916904D01*
X385297559Y-34916904D01*
X385202321Y-34869285D01*
X385154702Y-34821666D01*
X385107083Y-34726428D01*
X385107083Y-34535952D01*
X385154702Y-34440714D01*
X385202321Y-34393095D01*
X385297559Y-34345476D01*
X366650730Y-89463714D02*
X365650730Y-89463714D01*
X365650730Y-89701809D01*
X365698350Y-89844666D01*
X365793588Y-89939904D01*
X365888826Y-89987523D01*
X366079302Y-90035142D01*
X366222159Y-90035142D01*
X366412635Y-89987523D01*
X366507873Y-89939904D01*
X366603111Y-89844666D01*
X366650730Y-89701809D01*
X366650730Y-89463714D01*
X365650730Y-90892285D02*
X365650730Y-90701809D01*
X365698350Y-90606571D01*
X365745969Y-90558952D01*
X365888826Y-90463714D01*
X366079302Y-90416095D01*
X366460254Y-90416095D01*
X366555492Y-90463714D01*
X366603111Y-90511333D01*
X366650730Y-90606571D01*
X366650730Y-90797047D01*
X366603111Y-90892285D01*
X366555492Y-90939904D01*
X366460254Y-90987523D01*
X366222159Y-90987523D01*
X366126921Y-90939904D01*
X366079302Y-90892285D01*
X366031683Y-90797047D01*
X366031683Y-90606571D01*
X366079302Y-90511333D01*
X366126921Y-90463714D01*
X366222159Y-90416095D01*
X365650730Y-91892285D02*
X365650730Y-91416095D01*
X366126921Y-91368476D01*
X366079302Y-91416095D01*
X366031683Y-91511333D01*
X366031683Y-91749428D01*
X366079302Y-91844666D01*
X366126921Y-91892285D01*
X366222159Y-91939904D01*
X366460254Y-91939904D01*
X366555492Y-91892285D01*
X366603111Y-91844666D01*
X366650730Y-91749428D01*
X366650730Y-91511333D01*
X366603111Y-91416095D01*
X366555492Y-91368476D01*
X347600730Y-89463714D02*
X346600730Y-89463714D01*
X346600730Y-89701809D01*
X346648350Y-89844666D01*
X346743588Y-89939904D01*
X346838826Y-89987523D01*
X347029302Y-90035142D01*
X347172159Y-90035142D01*
X347362635Y-89987523D01*
X347457873Y-89939904D01*
X347553111Y-89844666D01*
X347600730Y-89701809D01*
X347600730Y-89463714D01*
X346600730Y-90892285D02*
X346600730Y-90701809D01*
X346648350Y-90606571D01*
X346695969Y-90558952D01*
X346838826Y-90463714D01*
X347029302Y-90416095D01*
X347410254Y-90416095D01*
X347505492Y-90463714D01*
X347553111Y-90511333D01*
X347600730Y-90606571D01*
X347600730Y-90797047D01*
X347553111Y-90892285D01*
X347505492Y-90939904D01*
X347410254Y-90987523D01*
X347172159Y-90987523D01*
X347076921Y-90939904D01*
X347029302Y-90892285D01*
X346981683Y-90797047D01*
X346981683Y-90606571D01*
X347029302Y-90511333D01*
X347076921Y-90463714D01*
X347172159Y-90416095D01*
X346934064Y-91844666D02*
X347600730Y-91844666D01*
X346553111Y-91606571D02*
X347267397Y-91368476D01*
X347267397Y-91987523D01*
X328550730Y-89463714D02*
X327550730Y-89463714D01*
X327550730Y-89701809D01*
X327598350Y-89844666D01*
X327693588Y-89939904D01*
X327788826Y-89987523D01*
X327979302Y-90035142D01*
X328122159Y-90035142D01*
X328312635Y-89987523D01*
X328407873Y-89939904D01*
X328503111Y-89844666D01*
X328550730Y-89701809D01*
X328550730Y-89463714D01*
X327550730Y-90892285D02*
X327550730Y-90701809D01*
X327598350Y-90606571D01*
X327645969Y-90558952D01*
X327788826Y-90463714D01*
X327979302Y-90416095D01*
X328360254Y-90416095D01*
X328455492Y-90463714D01*
X328503111Y-90511333D01*
X328550730Y-90606571D01*
X328550730Y-90797047D01*
X328503111Y-90892285D01*
X328455492Y-90939904D01*
X328360254Y-90987523D01*
X328122159Y-90987523D01*
X328026921Y-90939904D01*
X327979302Y-90892285D01*
X327931683Y-90797047D01*
X327931683Y-90606571D01*
X327979302Y-90511333D01*
X328026921Y-90463714D01*
X328122159Y-90416095D01*
X327550730Y-91320857D02*
X327550730Y-91939904D01*
X327931683Y-91606571D01*
X327931683Y-91749428D01*
X327979302Y-91844666D01*
X328026921Y-91892285D01*
X328122159Y-91939904D01*
X328360254Y-91939904D01*
X328455492Y-91892285D01*
X328503111Y-91844666D01*
X328550730Y-91749428D01*
X328550730Y-91463714D01*
X328503111Y-91368476D01*
X328455492Y-91320857D01*
X309551530Y-89463714D02*
X308551530Y-89463714D01*
X308551530Y-89701809D01*
X308599150Y-89844666D01*
X308694388Y-89939904D01*
X308789626Y-89987523D01*
X308980102Y-90035142D01*
X309122959Y-90035142D01*
X309313435Y-89987523D01*
X309408673Y-89939904D01*
X309503911Y-89844666D01*
X309551530Y-89701809D01*
X309551530Y-89463714D01*
X308551530Y-90892285D02*
X308551530Y-90701809D01*
X308599150Y-90606571D01*
X308646769Y-90558952D01*
X308789626Y-90463714D01*
X308980102Y-90416095D01*
X309361054Y-90416095D01*
X309456292Y-90463714D01*
X309503911Y-90511333D01*
X309551530Y-90606571D01*
X309551530Y-90797047D01*
X309503911Y-90892285D01*
X309456292Y-90939904D01*
X309361054Y-90987523D01*
X309122959Y-90987523D01*
X309027721Y-90939904D01*
X308980102Y-90892285D01*
X308932483Y-90797047D01*
X308932483Y-90606571D01*
X308980102Y-90511333D01*
X309027721Y-90463714D01*
X309122959Y-90416095D01*
X308646769Y-91368476D02*
X308599150Y-91416095D01*
X308551530Y-91511333D01*
X308551530Y-91749428D01*
X308599150Y-91844666D01*
X308646769Y-91892285D01*
X308742007Y-91939904D01*
X308837245Y-91939904D01*
X308980102Y-91892285D01*
X309551530Y-91320857D01*
X309551530Y-91939904D01*
X290501530Y-89463714D02*
X289501530Y-89463714D01*
X289501530Y-89701809D01*
X289549150Y-89844666D01*
X289644388Y-89939904D01*
X289739626Y-89987523D01*
X289930102Y-90035142D01*
X290072959Y-90035142D01*
X290263435Y-89987523D01*
X290358673Y-89939904D01*
X290453911Y-89844666D01*
X290501530Y-89701809D01*
X290501530Y-89463714D01*
X289501530Y-90892285D02*
X289501530Y-90701809D01*
X289549150Y-90606571D01*
X289596769Y-90558952D01*
X289739626Y-90463714D01*
X289930102Y-90416095D01*
X290311054Y-90416095D01*
X290406292Y-90463714D01*
X290453911Y-90511333D01*
X290501530Y-90606571D01*
X290501530Y-90797047D01*
X290453911Y-90892285D01*
X290406292Y-90939904D01*
X290311054Y-90987523D01*
X290072959Y-90987523D01*
X289977721Y-90939904D01*
X289930102Y-90892285D01*
X289882483Y-90797047D01*
X289882483Y-90606571D01*
X289930102Y-90511333D01*
X289977721Y-90463714D01*
X290072959Y-90416095D01*
X290501530Y-91939904D02*
X290501530Y-91368476D01*
X290501530Y-91654190D02*
X289501530Y-91654190D01*
X289644388Y-91558952D01*
X289739626Y-91463714D01*
X289787245Y-91368476D01*
X254782780Y-89463714D02*
X253782780Y-89463714D01*
X253782780Y-89701809D01*
X253830400Y-89844666D01*
X253925638Y-89939904D01*
X254020876Y-89987523D01*
X254211352Y-90035142D01*
X254354209Y-90035142D01*
X254544685Y-89987523D01*
X254639923Y-89939904D01*
X254735161Y-89844666D01*
X254782780Y-89701809D01*
X254782780Y-89463714D01*
X253782780Y-90892285D02*
X253782780Y-90701809D01*
X253830400Y-90606571D01*
X253878019Y-90558952D01*
X254020876Y-90463714D01*
X254211352Y-90416095D01*
X254592304Y-90416095D01*
X254687542Y-90463714D01*
X254735161Y-90511333D01*
X254782780Y-90606571D01*
X254782780Y-90797047D01*
X254735161Y-90892285D01*
X254687542Y-90939904D01*
X254592304Y-90987523D01*
X254354209Y-90987523D01*
X254258971Y-90939904D01*
X254211352Y-90892285D01*
X254163733Y-90797047D01*
X254163733Y-90606571D01*
X254211352Y-90511333D01*
X254258971Y-90463714D01*
X254354209Y-90416095D01*
X253782780Y-91606571D02*
X253782780Y-91701809D01*
X253830400Y-91797047D01*
X253878019Y-91844666D01*
X253973257Y-91892285D01*
X254163733Y-91939904D01*
X254401828Y-91939904D01*
X254592304Y-91892285D01*
X254687542Y-91844666D01*
X254735161Y-91797047D01*
X254782780Y-91701809D01*
X254782780Y-91606571D01*
X254735161Y-91511333D01*
X254687542Y-91463714D01*
X254592304Y-91416095D01*
X254401828Y-91368476D01*
X254163733Y-91368476D01*
X253973257Y-91416095D01*
X253878019Y-91463714D01*
X253830400Y-91511333D01*
X253782780Y-91606571D01*
X219064030Y-89463714D02*
X218064030Y-89463714D01*
X218064030Y-89701809D01*
X218111650Y-89844666D01*
X218206888Y-89939904D01*
X218302126Y-89987523D01*
X218492602Y-90035142D01*
X218635459Y-90035142D01*
X218825935Y-89987523D01*
X218921173Y-89939904D01*
X219016411Y-89844666D01*
X219064030Y-89701809D01*
X219064030Y-89463714D01*
X218064030Y-90939904D02*
X218064030Y-90463714D01*
X218540221Y-90416095D01*
X218492602Y-90463714D01*
X218444983Y-90558952D01*
X218444983Y-90797047D01*
X218492602Y-90892285D01*
X218540221Y-90939904D01*
X218635459Y-90987523D01*
X218873554Y-90987523D01*
X218968792Y-90939904D01*
X219016411Y-90892285D01*
X219064030Y-90797047D01*
X219064030Y-90558952D01*
X219016411Y-90463714D01*
X218968792Y-90416095D01*
X219064030Y-91463714D02*
X219064030Y-91654190D01*
X219016411Y-91749428D01*
X218968792Y-91797047D01*
X218825935Y-91892285D01*
X218635459Y-91939904D01*
X218254507Y-91939904D01*
X218159269Y-91892285D01*
X218111650Y-91844666D01*
X218064030Y-91749428D01*
X218064030Y-91558952D01*
X218111650Y-91463714D01*
X218159269Y-91416095D01*
X218254507Y-91368476D01*
X218492602Y-91368476D01*
X218587840Y-91416095D01*
X218635459Y-91463714D01*
X218683078Y-91558952D01*
X218683078Y-91749428D01*
X218635459Y-91844666D01*
X218587840Y-91892285D01*
X218492602Y-91939904D01*
X188107780Y-89489114D02*
X187107780Y-89489114D01*
X187107780Y-89727209D01*
X187155400Y-89870066D01*
X187250638Y-89965304D01*
X187345876Y-90012923D01*
X187536352Y-90060542D01*
X187679209Y-90060542D01*
X187869685Y-90012923D01*
X187964923Y-89965304D01*
X188060161Y-89870066D01*
X188107780Y-89727209D01*
X188107780Y-89489114D01*
X187107780Y-90965304D02*
X187107780Y-90489114D01*
X187583971Y-90441495D01*
X187536352Y-90489114D01*
X187488733Y-90584352D01*
X187488733Y-90822447D01*
X187536352Y-90917685D01*
X187583971Y-90965304D01*
X187679209Y-91012923D01*
X187917304Y-91012923D01*
X188012542Y-90965304D01*
X188060161Y-90917685D01*
X188107780Y-90822447D01*
X188107780Y-90584352D01*
X188060161Y-90489114D01*
X188012542Y-90441495D01*
X187536352Y-91584352D02*
X187488733Y-91489114D01*
X187441114Y-91441495D01*
X187345876Y-91393876D01*
X187298257Y-91393876D01*
X187203019Y-91441495D01*
X187155400Y-91489114D01*
X187107780Y-91584352D01*
X187107780Y-91774828D01*
X187155400Y-91870066D01*
X187203019Y-91917685D01*
X187298257Y-91965304D01*
X187345876Y-91965304D01*
X187441114Y-91917685D01*
X187488733Y-91870066D01*
X187536352Y-91774828D01*
X187536352Y-91584352D01*
X187583971Y-91489114D01*
X187631590Y-91441495D01*
X187726828Y-91393876D01*
X187917304Y-91393876D01*
X188012542Y-91441495D01*
X188060161Y-91489114D01*
X188107780Y-91584352D01*
X188107780Y-91774828D01*
X188060161Y-91870066D01*
X188012542Y-91917685D01*
X187917304Y-91965304D01*
X187726828Y-91965304D01*
X187631590Y-91917685D01*
X187583971Y-91870066D01*
X187536352Y-91774828D01*
X154744880Y-89590714D02*
X153744880Y-89590714D01*
X153744880Y-89828809D01*
X153792500Y-89971666D01*
X153887738Y-90066904D01*
X153982976Y-90114523D01*
X154173452Y-90162142D01*
X154316309Y-90162142D01*
X154506785Y-90114523D01*
X154602023Y-90066904D01*
X154697261Y-89971666D01*
X154744880Y-89828809D01*
X154744880Y-89590714D01*
X153744880Y-91066904D02*
X153744880Y-90590714D01*
X154221071Y-90543095D01*
X154173452Y-90590714D01*
X154125833Y-90685952D01*
X154125833Y-90924047D01*
X154173452Y-91019285D01*
X154221071Y-91066904D01*
X154316309Y-91114523D01*
X154554404Y-91114523D01*
X154649642Y-91066904D01*
X154697261Y-91019285D01*
X154744880Y-90924047D01*
X154744880Y-90685952D01*
X154697261Y-90590714D01*
X154649642Y-90543095D01*
X153744880Y-91447857D02*
X153744880Y-92114523D01*
X154744880Y-91685952D01*
X130957780Y-89489114D02*
X129957780Y-89489114D01*
X129957780Y-89727209D01*
X130005400Y-89870066D01*
X130100638Y-89965304D01*
X130195876Y-90012923D01*
X130386352Y-90060542D01*
X130529209Y-90060542D01*
X130719685Y-90012923D01*
X130814923Y-89965304D01*
X130910161Y-89870066D01*
X130957780Y-89727209D01*
X130957780Y-89489114D01*
X129957780Y-90965304D02*
X129957780Y-90489114D01*
X130433971Y-90441495D01*
X130386352Y-90489114D01*
X130338733Y-90584352D01*
X130338733Y-90822447D01*
X130386352Y-90917685D01*
X130433971Y-90965304D01*
X130529209Y-91012923D01*
X130767304Y-91012923D01*
X130862542Y-90965304D01*
X130910161Y-90917685D01*
X130957780Y-90822447D01*
X130957780Y-90584352D01*
X130910161Y-90489114D01*
X130862542Y-90441495D01*
X129957780Y-91870066D02*
X129957780Y-91679590D01*
X130005400Y-91584352D01*
X130053019Y-91536733D01*
X130195876Y-91441495D01*
X130386352Y-91393876D01*
X130767304Y-91393876D01*
X130862542Y-91441495D01*
X130910161Y-91489114D01*
X130957780Y-91584352D01*
X130957780Y-91774828D01*
X130910161Y-91870066D01*
X130862542Y-91917685D01*
X130767304Y-91965304D01*
X130529209Y-91965304D01*
X130433971Y-91917685D01*
X130386352Y-91870066D01*
X130338733Y-91774828D01*
X130338733Y-91584352D01*
X130386352Y-91489114D01*
X130433971Y-91441495D01*
X130529209Y-91393876D01*
X104764030Y-89489114D02*
X103764030Y-89489114D01*
X103764030Y-89727209D01*
X103811650Y-89870066D01*
X103906888Y-89965304D01*
X104002126Y-90012923D01*
X104192602Y-90060542D01*
X104335459Y-90060542D01*
X104525935Y-90012923D01*
X104621173Y-89965304D01*
X104716411Y-89870066D01*
X104764030Y-89727209D01*
X104764030Y-89489114D01*
X103764030Y-90965304D02*
X103764030Y-90489114D01*
X104240221Y-90441495D01*
X104192602Y-90489114D01*
X104144983Y-90584352D01*
X104144983Y-90822447D01*
X104192602Y-90917685D01*
X104240221Y-90965304D01*
X104335459Y-91012923D01*
X104573554Y-91012923D01*
X104668792Y-90965304D01*
X104716411Y-90917685D01*
X104764030Y-90822447D01*
X104764030Y-90584352D01*
X104716411Y-90489114D01*
X104668792Y-90441495D01*
X103764030Y-91917685D02*
X103764030Y-91441495D01*
X104240221Y-91393876D01*
X104192602Y-91441495D01*
X104144983Y-91536733D01*
X104144983Y-91774828D01*
X104192602Y-91870066D01*
X104240221Y-91917685D01*
X104335459Y-91965304D01*
X104573554Y-91965304D01*
X104668792Y-91917685D01*
X104716411Y-91870066D01*
X104764030Y-91774828D01*
X104764030Y-91536733D01*
X104716411Y-91441495D01*
X104668792Y-91393876D01*
X80951530Y-89489114D02*
X79951530Y-89489114D01*
X79951530Y-89727209D01*
X79999150Y-89870066D01*
X80094388Y-89965304D01*
X80189626Y-90012923D01*
X80380102Y-90060542D01*
X80522959Y-90060542D01*
X80713435Y-90012923D01*
X80808673Y-89965304D01*
X80903911Y-89870066D01*
X80951530Y-89727209D01*
X80951530Y-89489114D01*
X79951530Y-90965304D02*
X79951530Y-90489114D01*
X80427721Y-90441495D01*
X80380102Y-90489114D01*
X80332483Y-90584352D01*
X80332483Y-90822447D01*
X80380102Y-90917685D01*
X80427721Y-90965304D01*
X80522959Y-91012923D01*
X80761054Y-91012923D01*
X80856292Y-90965304D01*
X80903911Y-90917685D01*
X80951530Y-90822447D01*
X80951530Y-90584352D01*
X80903911Y-90489114D01*
X80856292Y-90441495D01*
X80284864Y-91870066D02*
X80951530Y-91870066D01*
X79903911Y-91631971D02*
X80618197Y-91393876D01*
X80618197Y-92012923D01*
X61901530Y-89489114D02*
X60901530Y-89489114D01*
X60901530Y-89727209D01*
X60949150Y-89870066D01*
X61044388Y-89965304D01*
X61139626Y-90012923D01*
X61330102Y-90060542D01*
X61472959Y-90060542D01*
X61663435Y-90012923D01*
X61758673Y-89965304D01*
X61853911Y-89870066D01*
X61901530Y-89727209D01*
X61901530Y-89489114D01*
X60901530Y-90965304D02*
X60901530Y-90489114D01*
X61377721Y-90441495D01*
X61330102Y-90489114D01*
X61282483Y-90584352D01*
X61282483Y-90822447D01*
X61330102Y-90917685D01*
X61377721Y-90965304D01*
X61472959Y-91012923D01*
X61711054Y-91012923D01*
X61806292Y-90965304D01*
X61853911Y-90917685D01*
X61901530Y-90822447D01*
X61901530Y-90584352D01*
X61853911Y-90489114D01*
X61806292Y-90441495D01*
X60901530Y-91346257D02*
X60901530Y-91965304D01*
X61282483Y-91631971D01*
X61282483Y-91774828D01*
X61330102Y-91870066D01*
X61377721Y-91917685D01*
X61472959Y-91965304D01*
X61711054Y-91965304D01*
X61806292Y-91917685D01*
X61853911Y-91870066D01*
X61901530Y-91774828D01*
X61901530Y-91489114D01*
X61853911Y-91393876D01*
X61806292Y-91346257D01*
X33301130Y-89590714D02*
X32301130Y-89590714D01*
X32301130Y-89828809D01*
X32348750Y-89971666D01*
X32443988Y-90066904D01*
X32539226Y-90114523D01*
X32729702Y-90162142D01*
X32872559Y-90162142D01*
X33063035Y-90114523D01*
X33158273Y-90066904D01*
X33253511Y-89971666D01*
X33301130Y-89828809D01*
X33301130Y-89590714D01*
X32301130Y-91066904D02*
X32301130Y-90590714D01*
X32777321Y-90543095D01*
X32729702Y-90590714D01*
X32682083Y-90685952D01*
X32682083Y-90924047D01*
X32729702Y-91019285D01*
X32777321Y-91066904D01*
X32872559Y-91114523D01*
X33110654Y-91114523D01*
X33205892Y-91066904D01*
X33253511Y-91019285D01*
X33301130Y-90924047D01*
X33301130Y-90685952D01*
X33253511Y-90590714D01*
X33205892Y-90543095D01*
X32396369Y-91495476D02*
X32348750Y-91543095D01*
X32301130Y-91638333D01*
X32301130Y-91876428D01*
X32348750Y-91971666D01*
X32396369Y-92019285D01*
X32491607Y-92066904D01*
X32586845Y-92066904D01*
X32729702Y-92019285D01*
X33301130Y-91447857D01*
X33301130Y-92066904D01*
X366650730Y-70413714D02*
X365650730Y-70413714D01*
X365650730Y-70651809D01*
X365698350Y-70794666D01*
X365793588Y-70889904D01*
X365888826Y-70937523D01*
X366079302Y-70985142D01*
X366222159Y-70985142D01*
X366412635Y-70937523D01*
X366507873Y-70889904D01*
X366603111Y-70794666D01*
X366650730Y-70651809D01*
X366650730Y-70413714D01*
X365650730Y-71889904D02*
X365650730Y-71413714D01*
X366126921Y-71366095D01*
X366079302Y-71413714D01*
X366031683Y-71508952D01*
X366031683Y-71747047D01*
X366079302Y-71842285D01*
X366126921Y-71889904D01*
X366222159Y-71937523D01*
X366460254Y-71937523D01*
X366555492Y-71889904D01*
X366603111Y-71842285D01*
X366650730Y-71747047D01*
X366650730Y-71508952D01*
X366603111Y-71413714D01*
X366555492Y-71366095D01*
X366650730Y-72889904D02*
X366650730Y-72318476D01*
X366650730Y-72604190D02*
X365650730Y-72604190D01*
X365793588Y-72508952D01*
X365888826Y-72413714D01*
X365936445Y-72318476D01*
X340456980Y-70413714D02*
X339456980Y-70413714D01*
X339456980Y-70651809D01*
X339504600Y-70794666D01*
X339599838Y-70889904D01*
X339695076Y-70937523D01*
X339885552Y-70985142D01*
X340028409Y-70985142D01*
X340218885Y-70937523D01*
X340314123Y-70889904D01*
X340409361Y-70794666D01*
X340456980Y-70651809D01*
X340456980Y-70413714D01*
X339456980Y-71889904D02*
X339456980Y-71413714D01*
X339933171Y-71366095D01*
X339885552Y-71413714D01*
X339837933Y-71508952D01*
X339837933Y-71747047D01*
X339885552Y-71842285D01*
X339933171Y-71889904D01*
X340028409Y-71937523D01*
X340266504Y-71937523D01*
X340361742Y-71889904D01*
X340409361Y-71842285D01*
X340456980Y-71747047D01*
X340456980Y-71508952D01*
X340409361Y-71413714D01*
X340361742Y-71366095D01*
X339456980Y-72556571D02*
X339456980Y-72651809D01*
X339504600Y-72747047D01*
X339552219Y-72794666D01*
X339647457Y-72842285D01*
X339837933Y-72889904D01*
X340076028Y-72889904D01*
X340266504Y-72842285D01*
X340361742Y-72794666D01*
X340409361Y-72747047D01*
X340456980Y-72651809D01*
X340456980Y-72556571D01*
X340409361Y-72461333D01*
X340361742Y-72413714D01*
X340266504Y-72366095D01*
X340076028Y-72318476D01*
X339837933Y-72318476D01*
X339647457Y-72366095D01*
X339552219Y-72413714D01*
X339504600Y-72461333D01*
X339456980Y-72556571D01*
X314263230Y-70413714D02*
X313263230Y-70413714D01*
X313263230Y-70651809D01*
X313310850Y-70794666D01*
X313406088Y-70889904D01*
X313501326Y-70937523D01*
X313691802Y-70985142D01*
X313834659Y-70985142D01*
X314025135Y-70937523D01*
X314120373Y-70889904D01*
X314215611Y-70794666D01*
X314263230Y-70651809D01*
X314263230Y-70413714D01*
X313596564Y-71842285D02*
X314263230Y-71842285D01*
X313215611Y-71604190D02*
X313929897Y-71366095D01*
X313929897Y-71985142D01*
X314263230Y-72413714D02*
X314263230Y-72604190D01*
X314215611Y-72699428D01*
X314167992Y-72747047D01*
X314025135Y-72842285D01*
X313834659Y-72889904D01*
X313453707Y-72889904D01*
X313358469Y-72842285D01*
X313310850Y-72794666D01*
X313263230Y-72699428D01*
X313263230Y-72508952D01*
X313310850Y-72413714D01*
X313358469Y-72366095D01*
X313453707Y-72318476D01*
X313691802Y-72318476D01*
X313787040Y-72366095D01*
X313834659Y-72413714D01*
X313882278Y-72508952D01*
X313882278Y-72699428D01*
X313834659Y-72794666D01*
X313787040Y-72842285D01*
X313691802Y-72889904D01*
X295264030Y-70413714D02*
X294264030Y-70413714D01*
X294264030Y-70651809D01*
X294311650Y-70794666D01*
X294406888Y-70889904D01*
X294502126Y-70937523D01*
X294692602Y-70985142D01*
X294835459Y-70985142D01*
X295025935Y-70937523D01*
X295121173Y-70889904D01*
X295216411Y-70794666D01*
X295264030Y-70651809D01*
X295264030Y-70413714D01*
X294597364Y-71842285D02*
X295264030Y-71842285D01*
X294216411Y-71604190D02*
X294930697Y-71366095D01*
X294930697Y-71985142D01*
X294692602Y-72508952D02*
X294644983Y-72413714D01*
X294597364Y-72366095D01*
X294502126Y-72318476D01*
X294454507Y-72318476D01*
X294359269Y-72366095D01*
X294311650Y-72413714D01*
X294264030Y-72508952D01*
X294264030Y-72699428D01*
X294311650Y-72794666D01*
X294359269Y-72842285D01*
X294454507Y-72889904D01*
X294502126Y-72889904D01*
X294597364Y-72842285D01*
X294644983Y-72794666D01*
X294692602Y-72699428D01*
X294692602Y-72508952D01*
X294740221Y-72413714D01*
X294787840Y-72366095D01*
X294883078Y-72318476D01*
X295073554Y-72318476D01*
X295168792Y-72366095D01*
X295216411Y-72413714D01*
X295264030Y-72508952D01*
X295264030Y-72699428D01*
X295216411Y-72794666D01*
X295168792Y-72842285D01*
X295073554Y-72889904D01*
X294883078Y-72889904D01*
X294787840Y-72842285D01*
X294740221Y-72794666D01*
X294692602Y-72699428D01*
X276214030Y-70413714D02*
X275214030Y-70413714D01*
X275214030Y-70651809D01*
X275261650Y-70794666D01*
X275356888Y-70889904D01*
X275452126Y-70937523D01*
X275642602Y-70985142D01*
X275785459Y-70985142D01*
X275975935Y-70937523D01*
X276071173Y-70889904D01*
X276166411Y-70794666D01*
X276214030Y-70651809D01*
X276214030Y-70413714D01*
X275547364Y-71842285D02*
X276214030Y-71842285D01*
X275166411Y-71604190D02*
X275880697Y-71366095D01*
X275880697Y-71985142D01*
X275214030Y-72270857D02*
X275214030Y-72937523D01*
X276214030Y-72508952D01*
X257164030Y-70413714D02*
X256164030Y-70413714D01*
X256164030Y-70651809D01*
X256211650Y-70794666D01*
X256306888Y-70889904D01*
X256402126Y-70937523D01*
X256592602Y-70985142D01*
X256735459Y-70985142D01*
X256925935Y-70937523D01*
X257021173Y-70889904D01*
X257116411Y-70794666D01*
X257164030Y-70651809D01*
X257164030Y-70413714D01*
X256497364Y-71842285D02*
X257164030Y-71842285D01*
X256116411Y-71604190D02*
X256830697Y-71366095D01*
X256830697Y-71985142D01*
X256164030Y-72794666D02*
X256164030Y-72604190D01*
X256211650Y-72508952D01*
X256259269Y-72461333D01*
X256402126Y-72366095D01*
X256592602Y-72318476D01*
X256973554Y-72318476D01*
X257068792Y-72366095D01*
X257116411Y-72413714D01*
X257164030Y-72508952D01*
X257164030Y-72699428D01*
X257116411Y-72794666D01*
X257068792Y-72842285D01*
X256973554Y-72889904D01*
X256735459Y-72889904D01*
X256640221Y-72842285D01*
X256592602Y-72794666D01*
X256544983Y-72699428D01*
X256544983Y-72508952D01*
X256592602Y-72413714D01*
X256640221Y-72366095D01*
X256735459Y-72318476D01*
X238114030Y-70413714D02*
X237114030Y-70413714D01*
X237114030Y-70651809D01*
X237161650Y-70794666D01*
X237256888Y-70889904D01*
X237352126Y-70937523D01*
X237542602Y-70985142D01*
X237685459Y-70985142D01*
X237875935Y-70937523D01*
X237971173Y-70889904D01*
X238066411Y-70794666D01*
X238114030Y-70651809D01*
X238114030Y-70413714D01*
X237447364Y-71842285D02*
X238114030Y-71842285D01*
X237066411Y-71604190D02*
X237780697Y-71366095D01*
X237780697Y-71985142D01*
X237114030Y-72842285D02*
X237114030Y-72366095D01*
X237590221Y-72318476D01*
X237542602Y-72366095D01*
X237494983Y-72461333D01*
X237494983Y-72699428D01*
X237542602Y-72794666D01*
X237590221Y-72842285D01*
X237685459Y-72889904D01*
X237923554Y-72889904D01*
X238018792Y-72842285D01*
X238066411Y-72794666D01*
X238114030Y-72699428D01*
X238114030Y-72461333D01*
X238066411Y-72366095D01*
X238018792Y-72318476D01*
X219064030Y-70413714D02*
X218064030Y-70413714D01*
X218064030Y-70651809D01*
X218111650Y-70794666D01*
X218206888Y-70889904D01*
X218302126Y-70937523D01*
X218492602Y-70985142D01*
X218635459Y-70985142D01*
X218825935Y-70937523D01*
X218921173Y-70889904D01*
X219016411Y-70794666D01*
X219064030Y-70651809D01*
X219064030Y-70413714D01*
X218397364Y-71842285D02*
X219064030Y-71842285D01*
X218016411Y-71604190D02*
X218730697Y-71366095D01*
X218730697Y-71985142D01*
X218397364Y-72794666D02*
X219064030Y-72794666D01*
X218016411Y-72556571D02*
X218730697Y-72318476D01*
X218730697Y-72937523D01*
X199988630Y-70431314D02*
X198988630Y-70431314D01*
X198988630Y-70669409D01*
X199036250Y-70812266D01*
X199131488Y-70907504D01*
X199226726Y-70955123D01*
X199417202Y-71002742D01*
X199560059Y-71002742D01*
X199750535Y-70955123D01*
X199845773Y-70907504D01*
X199941011Y-70812266D01*
X199988630Y-70669409D01*
X199988630Y-70431314D01*
X199321964Y-71859885D02*
X199988630Y-71859885D01*
X198941011Y-71621790D02*
X199655297Y-71383695D01*
X199655297Y-72002742D01*
X198988630Y-72288457D02*
X198988630Y-72907504D01*
X199369583Y-72574171D01*
X199369583Y-72717028D01*
X199417202Y-72812266D01*
X199464821Y-72859885D01*
X199560059Y-72907504D01*
X199798154Y-72907504D01*
X199893392Y-72859885D01*
X199941011Y-72812266D01*
X199988630Y-72717028D01*
X199988630Y-72431314D01*
X199941011Y-72336076D01*
X199893392Y-72288457D01*
X180964030Y-70439114D02*
X179964030Y-70439114D01*
X179964030Y-70677209D01*
X180011650Y-70820066D01*
X180106888Y-70915304D01*
X180202126Y-70962923D01*
X180392602Y-71010542D01*
X180535459Y-71010542D01*
X180725935Y-70962923D01*
X180821173Y-70915304D01*
X180916411Y-70820066D01*
X180964030Y-70677209D01*
X180964030Y-70439114D01*
X180297364Y-71867685D02*
X180964030Y-71867685D01*
X179916411Y-71629590D02*
X180630697Y-71391495D01*
X180630697Y-72010542D01*
X180059269Y-72343876D02*
X180011650Y-72391495D01*
X179964030Y-72486733D01*
X179964030Y-72724828D01*
X180011650Y-72820066D01*
X180059269Y-72867685D01*
X180154507Y-72915304D01*
X180249745Y-72915304D01*
X180392602Y-72867685D01*
X180964030Y-72296257D01*
X180964030Y-72915304D01*
X161914030Y-70439114D02*
X160914030Y-70439114D01*
X160914030Y-70677209D01*
X160961650Y-70820066D01*
X161056888Y-70915304D01*
X161152126Y-70962923D01*
X161342602Y-71010542D01*
X161485459Y-71010542D01*
X161675935Y-70962923D01*
X161771173Y-70915304D01*
X161866411Y-70820066D01*
X161914030Y-70677209D01*
X161914030Y-70439114D01*
X161247364Y-71867685D02*
X161914030Y-71867685D01*
X160866411Y-71629590D02*
X161580697Y-71391495D01*
X161580697Y-72010542D01*
X161914030Y-72915304D02*
X161914030Y-72343876D01*
X161914030Y-72629590D02*
X160914030Y-72629590D01*
X161056888Y-72534352D01*
X161152126Y-72439114D01*
X161199745Y-72343876D01*
X142864030Y-70439114D02*
X141864030Y-70439114D01*
X141864030Y-70677209D01*
X141911650Y-70820066D01*
X142006888Y-70915304D01*
X142102126Y-70962923D01*
X142292602Y-71010542D01*
X142435459Y-71010542D01*
X142625935Y-70962923D01*
X142721173Y-70915304D01*
X142816411Y-70820066D01*
X142864030Y-70677209D01*
X142864030Y-70439114D01*
X142197364Y-71867685D02*
X142864030Y-71867685D01*
X141816411Y-71629590D02*
X142530697Y-71391495D01*
X142530697Y-72010542D01*
X141864030Y-72581971D02*
X141864030Y-72677209D01*
X141911650Y-72772447D01*
X141959269Y-72820066D01*
X142054507Y-72867685D01*
X142244983Y-72915304D01*
X142483078Y-72915304D01*
X142673554Y-72867685D01*
X142768792Y-72820066D01*
X142816411Y-72772447D01*
X142864030Y-72677209D01*
X142864030Y-72581971D01*
X142816411Y-72486733D01*
X142768792Y-72439114D01*
X142673554Y-72391495D01*
X142483078Y-72343876D01*
X142244983Y-72343876D01*
X142054507Y-72391495D01*
X141959269Y-72439114D01*
X141911650Y-72486733D01*
X141864030Y-72581971D01*
X111907780Y-70439114D02*
X110907780Y-70439114D01*
X110907780Y-70677209D01*
X110955400Y-70820066D01*
X111050638Y-70915304D01*
X111145876Y-70962923D01*
X111336352Y-71010542D01*
X111479209Y-71010542D01*
X111669685Y-70962923D01*
X111764923Y-70915304D01*
X111860161Y-70820066D01*
X111907780Y-70677209D01*
X111907780Y-70439114D01*
X110907780Y-71343876D02*
X110907780Y-71962923D01*
X111288733Y-71629590D01*
X111288733Y-71772447D01*
X111336352Y-71867685D01*
X111383971Y-71915304D01*
X111479209Y-71962923D01*
X111717304Y-71962923D01*
X111812542Y-71915304D01*
X111860161Y-71867685D01*
X111907780Y-71772447D01*
X111907780Y-71486733D01*
X111860161Y-71391495D01*
X111812542Y-71343876D01*
X111907780Y-72439114D02*
X111907780Y-72629590D01*
X111860161Y-72724828D01*
X111812542Y-72772447D01*
X111669685Y-72867685D01*
X111479209Y-72915304D01*
X111098257Y-72915304D01*
X111003019Y-72867685D01*
X110955400Y-72820066D01*
X110907780Y-72724828D01*
X110907780Y-72534352D01*
X110955400Y-72439114D01*
X111003019Y-72391495D01*
X111098257Y-72343876D01*
X111336352Y-72343876D01*
X111431590Y-72391495D01*
X111479209Y-72439114D01*
X111526828Y-72534352D01*
X111526828Y-72724828D01*
X111479209Y-72820066D01*
X111431590Y-72867685D01*
X111336352Y-72915304D01*
X80951530Y-70439114D02*
X79951530Y-70439114D01*
X79951530Y-70677209D01*
X79999150Y-70820066D01*
X80094388Y-70915304D01*
X80189626Y-70962923D01*
X80380102Y-71010542D01*
X80522959Y-71010542D01*
X80713435Y-70962923D01*
X80808673Y-70915304D01*
X80903911Y-70820066D01*
X80951530Y-70677209D01*
X80951530Y-70439114D01*
X79951530Y-71343876D02*
X79951530Y-71962923D01*
X80332483Y-71629590D01*
X80332483Y-71772447D01*
X80380102Y-71867685D01*
X80427721Y-71915304D01*
X80522959Y-71962923D01*
X80761054Y-71962923D01*
X80856292Y-71915304D01*
X80903911Y-71867685D01*
X80951530Y-71772447D01*
X80951530Y-71486733D01*
X80903911Y-71391495D01*
X80856292Y-71343876D01*
X80380102Y-72534352D02*
X80332483Y-72439114D01*
X80284864Y-72391495D01*
X80189626Y-72343876D01*
X80142007Y-72343876D01*
X80046769Y-72391495D01*
X79999150Y-72439114D01*
X79951530Y-72534352D01*
X79951530Y-72724828D01*
X79999150Y-72820066D01*
X80046769Y-72867685D01*
X80142007Y-72915304D01*
X80189626Y-72915304D01*
X80284864Y-72867685D01*
X80332483Y-72820066D01*
X80380102Y-72724828D01*
X80380102Y-72534352D01*
X80427721Y-72439114D01*
X80475340Y-72391495D01*
X80570578Y-72343876D01*
X80761054Y-72343876D01*
X80856292Y-72391495D01*
X80903911Y-72439114D01*
X80951530Y-72534352D01*
X80951530Y-72724828D01*
X80903911Y-72820066D01*
X80856292Y-72867685D01*
X80761054Y-72915304D01*
X80570578Y-72915304D01*
X80475340Y-72867685D01*
X80427721Y-72820066D01*
X80380102Y-72724828D01*
X61901530Y-70439114D02*
X60901530Y-70439114D01*
X60901530Y-70677209D01*
X60949150Y-70820066D01*
X61044388Y-70915304D01*
X61139626Y-70962923D01*
X61330102Y-71010542D01*
X61472959Y-71010542D01*
X61663435Y-70962923D01*
X61758673Y-70915304D01*
X61853911Y-70820066D01*
X61901530Y-70677209D01*
X61901530Y-70439114D01*
X60901530Y-71343876D02*
X60901530Y-71962923D01*
X61282483Y-71629590D01*
X61282483Y-71772447D01*
X61330102Y-71867685D01*
X61377721Y-71915304D01*
X61472959Y-71962923D01*
X61711054Y-71962923D01*
X61806292Y-71915304D01*
X61853911Y-71867685D01*
X61901530Y-71772447D01*
X61901530Y-71486733D01*
X61853911Y-71391495D01*
X61806292Y-71343876D01*
X60901530Y-72296257D02*
X60901530Y-72962923D01*
X61901530Y-72534352D01*
X42826130Y-70464514D02*
X41826130Y-70464514D01*
X41826130Y-70702609D01*
X41873750Y-70845466D01*
X41968988Y-70940704D01*
X42064226Y-70988323D01*
X42254702Y-71035942D01*
X42397559Y-71035942D01*
X42588035Y-70988323D01*
X42683273Y-70940704D01*
X42778511Y-70845466D01*
X42826130Y-70702609D01*
X42826130Y-70464514D01*
X41826130Y-71369276D02*
X41826130Y-71988323D01*
X42207083Y-71654990D01*
X42207083Y-71797847D01*
X42254702Y-71893085D01*
X42302321Y-71940704D01*
X42397559Y-71988323D01*
X42635654Y-71988323D01*
X42730892Y-71940704D01*
X42778511Y-71893085D01*
X42826130Y-71797847D01*
X42826130Y-71512133D01*
X42778511Y-71416895D01*
X42730892Y-71369276D01*
X41826130Y-72845466D02*
X41826130Y-72654990D01*
X41873750Y-72559752D01*
X41921369Y-72512133D01*
X42064226Y-72416895D01*
X42254702Y-72369276D01*
X42635654Y-72369276D01*
X42730892Y-72416895D01*
X42778511Y-72464514D01*
X42826130Y-72559752D01*
X42826130Y-72750228D01*
X42778511Y-72845466D01*
X42730892Y-72893085D01*
X42635654Y-72940704D01*
X42397559Y-72940704D01*
X42302321Y-72893085D01*
X42254702Y-72845466D01*
X42207083Y-72750228D01*
X42207083Y-72559752D01*
X42254702Y-72464514D01*
X42302321Y-72416895D01*
X42397559Y-72369276D01*
X23776130Y-70464514D02*
X22776130Y-70464514D01*
X22776130Y-70702609D01*
X22823750Y-70845466D01*
X22918988Y-70940704D01*
X23014226Y-70988323D01*
X23204702Y-71035942D01*
X23347559Y-71035942D01*
X23538035Y-70988323D01*
X23633273Y-70940704D01*
X23728511Y-70845466D01*
X23776130Y-70702609D01*
X23776130Y-70464514D01*
X22776130Y-71369276D02*
X22776130Y-71988323D01*
X23157083Y-71654990D01*
X23157083Y-71797847D01*
X23204702Y-71893085D01*
X23252321Y-71940704D01*
X23347559Y-71988323D01*
X23585654Y-71988323D01*
X23680892Y-71940704D01*
X23728511Y-71893085D01*
X23776130Y-71797847D01*
X23776130Y-71512133D01*
X23728511Y-71416895D01*
X23680892Y-71369276D01*
X22776130Y-72893085D02*
X22776130Y-72416895D01*
X23252321Y-72369276D01*
X23204702Y-72416895D01*
X23157083Y-72512133D01*
X23157083Y-72750228D01*
X23204702Y-72845466D01*
X23252321Y-72893085D01*
X23347559Y-72940704D01*
X23585654Y-72940704D01*
X23680892Y-72893085D01*
X23728511Y-72845466D01*
X23776130Y-72750228D01*
X23776130Y-72512133D01*
X23728511Y-72416895D01*
X23680892Y-72369276D01*
X354769880Y-51389114D02*
X353769880Y-51389114D01*
X353769880Y-51627209D01*
X353817500Y-51770066D01*
X353912738Y-51865304D01*
X354007976Y-51912923D01*
X354198452Y-51960542D01*
X354341309Y-51960542D01*
X354531785Y-51912923D01*
X354627023Y-51865304D01*
X354722261Y-51770066D01*
X354769880Y-51627209D01*
X354769880Y-51389114D01*
X353769880Y-52293876D02*
X353769880Y-52912923D01*
X354150833Y-52579590D01*
X354150833Y-52722447D01*
X354198452Y-52817685D01*
X354246071Y-52865304D01*
X354341309Y-52912923D01*
X354579404Y-52912923D01*
X354674642Y-52865304D01*
X354722261Y-52817685D01*
X354769880Y-52722447D01*
X354769880Y-52436733D01*
X354722261Y-52341495D01*
X354674642Y-52293876D01*
X354103214Y-53770066D02*
X354769880Y-53770066D01*
X353722261Y-53531971D02*
X354436547Y-53293876D01*
X354436547Y-53912923D01*
X323813630Y-51389114D02*
X322813630Y-51389114D01*
X322813630Y-51627209D01*
X322861250Y-51770066D01*
X322956488Y-51865304D01*
X323051726Y-51912923D01*
X323242202Y-51960542D01*
X323385059Y-51960542D01*
X323575535Y-51912923D01*
X323670773Y-51865304D01*
X323766011Y-51770066D01*
X323813630Y-51627209D01*
X323813630Y-51389114D01*
X322813630Y-52293876D02*
X322813630Y-52912923D01*
X323194583Y-52579590D01*
X323194583Y-52722447D01*
X323242202Y-52817685D01*
X323289821Y-52865304D01*
X323385059Y-52912923D01*
X323623154Y-52912923D01*
X323718392Y-52865304D01*
X323766011Y-52817685D01*
X323813630Y-52722447D01*
X323813630Y-52436733D01*
X323766011Y-52341495D01*
X323718392Y-52293876D01*
X322813630Y-53246257D02*
X322813630Y-53865304D01*
X323194583Y-53531971D01*
X323194583Y-53674828D01*
X323242202Y-53770066D01*
X323289821Y-53817685D01*
X323385059Y-53865304D01*
X323623154Y-53865304D01*
X323718392Y-53817685D01*
X323766011Y-53770066D01*
X323813630Y-53674828D01*
X323813630Y-53389114D01*
X323766011Y-53293876D01*
X323718392Y-53246257D01*
X304763630Y-51389114D02*
X303763630Y-51389114D01*
X303763630Y-51627209D01*
X303811250Y-51770066D01*
X303906488Y-51865304D01*
X304001726Y-51912923D01*
X304192202Y-51960542D01*
X304335059Y-51960542D01*
X304525535Y-51912923D01*
X304620773Y-51865304D01*
X304716011Y-51770066D01*
X304763630Y-51627209D01*
X304763630Y-51389114D01*
X303763630Y-52293876D02*
X303763630Y-52912923D01*
X304144583Y-52579590D01*
X304144583Y-52722447D01*
X304192202Y-52817685D01*
X304239821Y-52865304D01*
X304335059Y-52912923D01*
X304573154Y-52912923D01*
X304668392Y-52865304D01*
X304716011Y-52817685D01*
X304763630Y-52722447D01*
X304763630Y-52436733D01*
X304716011Y-52341495D01*
X304668392Y-52293876D01*
X303858869Y-53293876D02*
X303811250Y-53341495D01*
X303763630Y-53436733D01*
X303763630Y-53674828D01*
X303811250Y-53770066D01*
X303858869Y-53817685D01*
X303954107Y-53865304D01*
X304049345Y-53865304D01*
X304192202Y-53817685D01*
X304763630Y-53246257D01*
X304763630Y-53865304D01*
X285713630Y-51389114D02*
X284713630Y-51389114D01*
X284713630Y-51627209D01*
X284761250Y-51770066D01*
X284856488Y-51865304D01*
X284951726Y-51912923D01*
X285142202Y-51960542D01*
X285285059Y-51960542D01*
X285475535Y-51912923D01*
X285570773Y-51865304D01*
X285666011Y-51770066D01*
X285713630Y-51627209D01*
X285713630Y-51389114D01*
X284713630Y-52293876D02*
X284713630Y-52912923D01*
X285094583Y-52579590D01*
X285094583Y-52722447D01*
X285142202Y-52817685D01*
X285189821Y-52865304D01*
X285285059Y-52912923D01*
X285523154Y-52912923D01*
X285618392Y-52865304D01*
X285666011Y-52817685D01*
X285713630Y-52722447D01*
X285713630Y-52436733D01*
X285666011Y-52341495D01*
X285618392Y-52293876D01*
X285713630Y-53865304D02*
X285713630Y-53293876D01*
X285713630Y-53579590D02*
X284713630Y-53579590D01*
X284856488Y-53484352D01*
X284951726Y-53389114D01*
X284999345Y-53293876D01*
X266663630Y-51389114D02*
X265663630Y-51389114D01*
X265663630Y-51627209D01*
X265711250Y-51770066D01*
X265806488Y-51865304D01*
X265901726Y-51912923D01*
X266092202Y-51960542D01*
X266235059Y-51960542D01*
X266425535Y-51912923D01*
X266520773Y-51865304D01*
X266616011Y-51770066D01*
X266663630Y-51627209D01*
X266663630Y-51389114D01*
X265663630Y-52293876D02*
X265663630Y-52912923D01*
X266044583Y-52579590D01*
X266044583Y-52722447D01*
X266092202Y-52817685D01*
X266139821Y-52865304D01*
X266235059Y-52912923D01*
X266473154Y-52912923D01*
X266568392Y-52865304D01*
X266616011Y-52817685D01*
X266663630Y-52722447D01*
X266663630Y-52436733D01*
X266616011Y-52341495D01*
X266568392Y-52293876D01*
X265663630Y-53531971D02*
X265663630Y-53627209D01*
X265711250Y-53722447D01*
X265758869Y-53770066D01*
X265854107Y-53817685D01*
X266044583Y-53865304D01*
X266282678Y-53865304D01*
X266473154Y-53817685D01*
X266568392Y-53770066D01*
X266616011Y-53722447D01*
X266663630Y-53627209D01*
X266663630Y-53531971D01*
X266616011Y-53436733D01*
X266568392Y-53389114D01*
X266473154Y-53341495D01*
X266282678Y-53293876D01*
X266044583Y-53293876D01*
X265854107Y-53341495D01*
X265758869Y-53389114D01*
X265711250Y-53436733D01*
X265663630Y-53531971D01*
X247613630Y-51389114D02*
X246613630Y-51389114D01*
X246613630Y-51627209D01*
X246661250Y-51770066D01*
X246756488Y-51865304D01*
X246851726Y-51912923D01*
X247042202Y-51960542D01*
X247185059Y-51960542D01*
X247375535Y-51912923D01*
X247470773Y-51865304D01*
X247566011Y-51770066D01*
X247613630Y-51627209D01*
X247613630Y-51389114D01*
X246708869Y-52341495D02*
X246661250Y-52389114D01*
X246613630Y-52484352D01*
X246613630Y-52722447D01*
X246661250Y-52817685D01*
X246708869Y-52865304D01*
X246804107Y-52912923D01*
X246899345Y-52912923D01*
X247042202Y-52865304D01*
X247613630Y-52293876D01*
X247613630Y-52912923D01*
X247613630Y-53389114D02*
X247613630Y-53579590D01*
X247566011Y-53674828D01*
X247518392Y-53722447D01*
X247375535Y-53817685D01*
X247185059Y-53865304D01*
X246804107Y-53865304D01*
X246708869Y-53817685D01*
X246661250Y-53770066D01*
X246613630Y-53674828D01*
X246613630Y-53484352D01*
X246661250Y-53389114D01*
X246708869Y-53341495D01*
X246804107Y-53293876D01*
X247042202Y-53293876D01*
X247137440Y-53341495D01*
X247185059Y-53389114D01*
X247232678Y-53484352D01*
X247232678Y-53674828D01*
X247185059Y-53770066D01*
X247137440Y-53817685D01*
X247042202Y-53865304D01*
X228563630Y-51389114D02*
X227563630Y-51389114D01*
X227563630Y-51627209D01*
X227611250Y-51770066D01*
X227706488Y-51865304D01*
X227801726Y-51912923D01*
X227992202Y-51960542D01*
X228135059Y-51960542D01*
X228325535Y-51912923D01*
X228420773Y-51865304D01*
X228516011Y-51770066D01*
X228563630Y-51627209D01*
X228563630Y-51389114D01*
X227658869Y-52341495D02*
X227611250Y-52389114D01*
X227563630Y-52484352D01*
X227563630Y-52722447D01*
X227611250Y-52817685D01*
X227658869Y-52865304D01*
X227754107Y-52912923D01*
X227849345Y-52912923D01*
X227992202Y-52865304D01*
X228563630Y-52293876D01*
X228563630Y-52912923D01*
X227992202Y-53484352D02*
X227944583Y-53389114D01*
X227896964Y-53341495D01*
X227801726Y-53293876D01*
X227754107Y-53293876D01*
X227658869Y-53341495D01*
X227611250Y-53389114D01*
X227563630Y-53484352D01*
X227563630Y-53674828D01*
X227611250Y-53770066D01*
X227658869Y-53817685D01*
X227754107Y-53865304D01*
X227801726Y-53865304D01*
X227896964Y-53817685D01*
X227944583Y-53770066D01*
X227992202Y-53674828D01*
X227992202Y-53484352D01*
X228039821Y-53389114D01*
X228087440Y-53341495D01*
X228182678Y-53293876D01*
X228373154Y-53293876D01*
X228468392Y-53341495D01*
X228516011Y-53389114D01*
X228563630Y-53484352D01*
X228563630Y-53674828D01*
X228516011Y-53770066D01*
X228468392Y-53817685D01*
X228373154Y-53865304D01*
X228182678Y-53865304D01*
X228087440Y-53817685D01*
X228039821Y-53770066D01*
X227992202Y-53674828D01*
X209513630Y-51389114D02*
X208513630Y-51389114D01*
X208513630Y-51627209D01*
X208561250Y-51770066D01*
X208656488Y-51865304D01*
X208751726Y-51912923D01*
X208942202Y-51960542D01*
X209085059Y-51960542D01*
X209275535Y-51912923D01*
X209370773Y-51865304D01*
X209466011Y-51770066D01*
X209513630Y-51627209D01*
X209513630Y-51389114D01*
X208608869Y-52341495D02*
X208561250Y-52389114D01*
X208513630Y-52484352D01*
X208513630Y-52722447D01*
X208561250Y-52817685D01*
X208608869Y-52865304D01*
X208704107Y-52912923D01*
X208799345Y-52912923D01*
X208942202Y-52865304D01*
X209513630Y-52293876D01*
X209513630Y-52912923D01*
X208513630Y-53246257D02*
X208513630Y-53912923D01*
X209513630Y-53484352D01*
X190463630Y-51389114D02*
X189463630Y-51389114D01*
X189463630Y-51627209D01*
X189511250Y-51770066D01*
X189606488Y-51865304D01*
X189701726Y-51912923D01*
X189892202Y-51960542D01*
X190035059Y-51960542D01*
X190225535Y-51912923D01*
X190320773Y-51865304D01*
X190416011Y-51770066D01*
X190463630Y-51627209D01*
X190463630Y-51389114D01*
X189558869Y-52341495D02*
X189511250Y-52389114D01*
X189463630Y-52484352D01*
X189463630Y-52722447D01*
X189511250Y-52817685D01*
X189558869Y-52865304D01*
X189654107Y-52912923D01*
X189749345Y-52912923D01*
X189892202Y-52865304D01*
X190463630Y-52293876D01*
X190463630Y-52912923D01*
X189463630Y-53770066D02*
X189463630Y-53579590D01*
X189511250Y-53484352D01*
X189558869Y-53436733D01*
X189701726Y-53341495D01*
X189892202Y-53293876D01*
X190273154Y-53293876D01*
X190368392Y-53341495D01*
X190416011Y-53389114D01*
X190463630Y-53484352D01*
X190463630Y-53674828D01*
X190416011Y-53770066D01*
X190368392Y-53817685D01*
X190273154Y-53865304D01*
X190035059Y-53865304D01*
X189939821Y-53817685D01*
X189892202Y-53770066D01*
X189844583Y-53674828D01*
X189844583Y-53484352D01*
X189892202Y-53389114D01*
X189939821Y-53341495D01*
X190035059Y-53293876D01*
X171413630Y-51389114D02*
X170413630Y-51389114D01*
X170413630Y-51627209D01*
X170461250Y-51770066D01*
X170556488Y-51865304D01*
X170651726Y-51912923D01*
X170842202Y-51960542D01*
X170985059Y-51960542D01*
X171175535Y-51912923D01*
X171270773Y-51865304D01*
X171366011Y-51770066D01*
X171413630Y-51627209D01*
X171413630Y-51389114D01*
X170508869Y-52341495D02*
X170461250Y-52389114D01*
X170413630Y-52484352D01*
X170413630Y-52722447D01*
X170461250Y-52817685D01*
X170508869Y-52865304D01*
X170604107Y-52912923D01*
X170699345Y-52912923D01*
X170842202Y-52865304D01*
X171413630Y-52293876D01*
X171413630Y-52912923D01*
X170413630Y-53817685D02*
X170413630Y-53341495D01*
X170889821Y-53293876D01*
X170842202Y-53341495D01*
X170794583Y-53436733D01*
X170794583Y-53674828D01*
X170842202Y-53770066D01*
X170889821Y-53817685D01*
X170985059Y-53865304D01*
X171223154Y-53865304D01*
X171318392Y-53817685D01*
X171366011Y-53770066D01*
X171413630Y-53674828D01*
X171413630Y-53436733D01*
X171366011Y-53341495D01*
X171318392Y-53293876D01*
X152363630Y-51389114D02*
X151363630Y-51389114D01*
X151363630Y-51627209D01*
X151411250Y-51770066D01*
X151506488Y-51865304D01*
X151601726Y-51912923D01*
X151792202Y-51960542D01*
X151935059Y-51960542D01*
X152125535Y-51912923D01*
X152220773Y-51865304D01*
X152316011Y-51770066D01*
X152363630Y-51627209D01*
X152363630Y-51389114D01*
X151458869Y-52341495D02*
X151411250Y-52389114D01*
X151363630Y-52484352D01*
X151363630Y-52722447D01*
X151411250Y-52817685D01*
X151458869Y-52865304D01*
X151554107Y-52912923D01*
X151649345Y-52912923D01*
X151792202Y-52865304D01*
X152363630Y-52293876D01*
X152363630Y-52912923D01*
X151696964Y-53770066D02*
X152363630Y-53770066D01*
X151316011Y-53531971D02*
X152030297Y-53293876D01*
X152030297Y-53912923D01*
X133313630Y-51389114D02*
X132313630Y-51389114D01*
X132313630Y-51627209D01*
X132361250Y-51770066D01*
X132456488Y-51865304D01*
X132551726Y-51912923D01*
X132742202Y-51960542D01*
X132885059Y-51960542D01*
X133075535Y-51912923D01*
X133170773Y-51865304D01*
X133266011Y-51770066D01*
X133313630Y-51627209D01*
X133313630Y-51389114D01*
X132408869Y-52341495D02*
X132361250Y-52389114D01*
X132313630Y-52484352D01*
X132313630Y-52722447D01*
X132361250Y-52817685D01*
X132408869Y-52865304D01*
X132504107Y-52912923D01*
X132599345Y-52912923D01*
X132742202Y-52865304D01*
X133313630Y-52293876D01*
X133313630Y-52912923D01*
X132313630Y-53246257D02*
X132313630Y-53865304D01*
X132694583Y-53531971D01*
X132694583Y-53674828D01*
X132742202Y-53770066D01*
X132789821Y-53817685D01*
X132885059Y-53865304D01*
X133123154Y-53865304D01*
X133218392Y-53817685D01*
X133266011Y-53770066D01*
X133313630Y-53674828D01*
X133313630Y-53389114D01*
X133266011Y-53293876D01*
X133218392Y-53246257D01*
X107119880Y-51389114D02*
X106119880Y-51389114D01*
X106119880Y-51627209D01*
X106167500Y-51770066D01*
X106262738Y-51865304D01*
X106357976Y-51912923D01*
X106548452Y-51960542D01*
X106691309Y-51960542D01*
X106881785Y-51912923D01*
X106977023Y-51865304D01*
X107072261Y-51770066D01*
X107119880Y-51627209D01*
X107119880Y-51389114D01*
X106215119Y-52341495D02*
X106167500Y-52389114D01*
X106119880Y-52484352D01*
X106119880Y-52722447D01*
X106167500Y-52817685D01*
X106215119Y-52865304D01*
X106310357Y-52912923D01*
X106405595Y-52912923D01*
X106548452Y-52865304D01*
X107119880Y-52293876D01*
X107119880Y-52912923D01*
X106215119Y-53293876D02*
X106167500Y-53341495D01*
X106119880Y-53436733D01*
X106119880Y-53674828D01*
X106167500Y-53770066D01*
X106215119Y-53817685D01*
X106310357Y-53865304D01*
X106405595Y-53865304D01*
X106548452Y-53817685D01*
X107119880Y-53246257D01*
X107119880Y-53865304D01*
X80900730Y-51389114D02*
X79900730Y-51389114D01*
X79900730Y-51627209D01*
X79948350Y-51770066D01*
X80043588Y-51865304D01*
X80138826Y-51912923D01*
X80329302Y-51960542D01*
X80472159Y-51960542D01*
X80662635Y-51912923D01*
X80757873Y-51865304D01*
X80853111Y-51770066D01*
X80900730Y-51627209D01*
X80900730Y-51389114D01*
X79995969Y-52341495D02*
X79948350Y-52389114D01*
X79900730Y-52484352D01*
X79900730Y-52722447D01*
X79948350Y-52817685D01*
X79995969Y-52865304D01*
X80091207Y-52912923D01*
X80186445Y-52912923D01*
X80329302Y-52865304D01*
X80900730Y-52293876D01*
X80900730Y-52912923D01*
X80900730Y-53865304D02*
X80900730Y-53293876D01*
X80900730Y-53579590D02*
X79900730Y-53579590D01*
X80043588Y-53484352D01*
X80138826Y-53389114D01*
X80186445Y-53293876D01*
X61850730Y-51389114D02*
X60850730Y-51389114D01*
X60850730Y-51627209D01*
X60898350Y-51770066D01*
X60993588Y-51865304D01*
X61088826Y-51912923D01*
X61279302Y-51960542D01*
X61422159Y-51960542D01*
X61612635Y-51912923D01*
X61707873Y-51865304D01*
X61803111Y-51770066D01*
X61850730Y-51627209D01*
X61850730Y-51389114D01*
X60945969Y-52341495D02*
X60898350Y-52389114D01*
X60850730Y-52484352D01*
X60850730Y-52722447D01*
X60898350Y-52817685D01*
X60945969Y-52865304D01*
X61041207Y-52912923D01*
X61136445Y-52912923D01*
X61279302Y-52865304D01*
X61850730Y-52293876D01*
X61850730Y-52912923D01*
X60850730Y-53531971D02*
X60850730Y-53627209D01*
X60898350Y-53722447D01*
X60945969Y-53770066D01*
X61041207Y-53817685D01*
X61231683Y-53865304D01*
X61469778Y-53865304D01*
X61660254Y-53817685D01*
X61755492Y-53770066D01*
X61803111Y-53722447D01*
X61850730Y-53627209D01*
X61850730Y-53531971D01*
X61803111Y-53436733D01*
X61755492Y-53389114D01*
X61660254Y-53341495D01*
X61469778Y-53293876D01*
X61231683Y-53293876D01*
X61041207Y-53341495D01*
X60945969Y-53389114D01*
X60898350Y-53436733D01*
X60850730Y-53531971D01*
X42800730Y-51389114D02*
X41800730Y-51389114D01*
X41800730Y-51627209D01*
X41848350Y-51770066D01*
X41943588Y-51865304D01*
X42038826Y-51912923D01*
X42229302Y-51960542D01*
X42372159Y-51960542D01*
X42562635Y-51912923D01*
X42657873Y-51865304D01*
X42753111Y-51770066D01*
X42800730Y-51627209D01*
X42800730Y-51389114D01*
X42800730Y-52912923D02*
X42800730Y-52341495D01*
X42800730Y-52627209D02*
X41800730Y-52627209D01*
X41943588Y-52531971D01*
X42038826Y-52436733D01*
X42086445Y-52341495D01*
X42800730Y-53389114D02*
X42800730Y-53579590D01*
X42753111Y-53674828D01*
X42705492Y-53722447D01*
X42562635Y-53817685D01*
X42372159Y-53865304D01*
X41991207Y-53865304D01*
X41895969Y-53817685D01*
X41848350Y-53770066D01*
X41800730Y-53674828D01*
X41800730Y-53484352D01*
X41848350Y-53389114D01*
X41895969Y-53341495D01*
X41991207Y-53293876D01*
X42229302Y-53293876D01*
X42324540Y-53341495D01*
X42372159Y-53389114D01*
X42419778Y-53484352D01*
X42419778Y-53674828D01*
X42372159Y-53770066D01*
X42324540Y-53817685D01*
X42229302Y-53865304D01*
X23750730Y-51389114D02*
X22750730Y-51389114D01*
X22750730Y-51627209D01*
X22798350Y-51770066D01*
X22893588Y-51865304D01*
X22988826Y-51912923D01*
X23179302Y-51960542D01*
X23322159Y-51960542D01*
X23512635Y-51912923D01*
X23607873Y-51865304D01*
X23703111Y-51770066D01*
X23750730Y-51627209D01*
X23750730Y-51389114D01*
X23750730Y-52912923D02*
X23750730Y-52341495D01*
X23750730Y-52627209D02*
X22750730Y-52627209D01*
X22893588Y-52531971D01*
X22988826Y-52436733D01*
X23036445Y-52341495D01*
X23179302Y-53484352D02*
X23131683Y-53389114D01*
X23084064Y-53341495D01*
X22988826Y-53293876D01*
X22941207Y-53293876D01*
X22845969Y-53341495D01*
X22798350Y-53389114D01*
X22750730Y-53484352D01*
X22750730Y-53674828D01*
X22798350Y-53770066D01*
X22845969Y-53817685D01*
X22941207Y-53865304D01*
X22988826Y-53865304D01*
X23084064Y-53817685D01*
X23131683Y-53770066D01*
X23179302Y-53674828D01*
X23179302Y-53484352D01*
X23226921Y-53389114D01*
X23274540Y-53341495D01*
X23369778Y-53293876D01*
X23560254Y-53293876D01*
X23655492Y-53341495D01*
X23703111Y-53389114D01*
X23750730Y-53484352D01*
X23750730Y-53674828D01*
X23703111Y-53770066D01*
X23655492Y-53817685D01*
X23560254Y-53865304D01*
X23369778Y-53865304D01*
X23274540Y-53817685D01*
X23226921Y-53770066D01*
X23179302Y-53674828D01*
X361913630Y-32440714D02*
X360913630Y-32440714D01*
X360913630Y-32678809D01*
X360961250Y-32821666D01*
X361056488Y-32916904D01*
X361151726Y-32964523D01*
X361342202Y-33012142D01*
X361485059Y-33012142D01*
X361675535Y-32964523D01*
X361770773Y-32916904D01*
X361866011Y-32821666D01*
X361913630Y-32678809D01*
X361913630Y-32440714D01*
X361913630Y-33964523D02*
X361913630Y-33393095D01*
X361913630Y-33678809D02*
X360913630Y-33678809D01*
X361056488Y-33583571D01*
X361151726Y-33488333D01*
X361199345Y-33393095D01*
X360913630Y-34297857D02*
X360913630Y-34964523D01*
X361913630Y-34535952D01*
X338101130Y-32339114D02*
X337101130Y-32339114D01*
X337101130Y-32577209D01*
X337148750Y-32720066D01*
X337243988Y-32815304D01*
X337339226Y-32862923D01*
X337529702Y-32910542D01*
X337672559Y-32910542D01*
X337863035Y-32862923D01*
X337958273Y-32815304D01*
X338053511Y-32720066D01*
X338101130Y-32577209D01*
X338101130Y-32339114D01*
X338101130Y-33862923D02*
X338101130Y-33291495D01*
X338101130Y-33577209D02*
X337101130Y-33577209D01*
X337243988Y-33481971D01*
X337339226Y-33386733D01*
X337386845Y-33291495D01*
X337101130Y-34720066D02*
X337101130Y-34529590D01*
X337148750Y-34434352D01*
X337196369Y-34386733D01*
X337339226Y-34291495D01*
X337529702Y-34243876D01*
X337910654Y-34243876D01*
X338005892Y-34291495D01*
X338053511Y-34339114D01*
X338101130Y-34434352D01*
X338101130Y-34624828D01*
X338053511Y-34720066D01*
X338005892Y-34767685D01*
X337910654Y-34815304D01*
X337672559Y-34815304D01*
X337577321Y-34767685D01*
X337529702Y-34720066D01*
X337482083Y-34624828D01*
X337482083Y-34434352D01*
X337529702Y-34339114D01*
X337577321Y-34291495D01*
X337672559Y-34243876D01*
X319051130Y-32339114D02*
X318051130Y-32339114D01*
X318051130Y-32577209D01*
X318098750Y-32720066D01*
X318193988Y-32815304D01*
X318289226Y-32862923D01*
X318479702Y-32910542D01*
X318622559Y-32910542D01*
X318813035Y-32862923D01*
X318908273Y-32815304D01*
X319003511Y-32720066D01*
X319051130Y-32577209D01*
X319051130Y-32339114D01*
X319051130Y-33862923D02*
X319051130Y-33291495D01*
X319051130Y-33577209D02*
X318051130Y-33577209D01*
X318193988Y-33481971D01*
X318289226Y-33386733D01*
X318336845Y-33291495D01*
X318051130Y-34767685D02*
X318051130Y-34291495D01*
X318527321Y-34243876D01*
X318479702Y-34291495D01*
X318432083Y-34386733D01*
X318432083Y-34624828D01*
X318479702Y-34720066D01*
X318527321Y-34767685D01*
X318622559Y-34815304D01*
X318860654Y-34815304D01*
X318955892Y-34767685D01*
X319003511Y-34720066D01*
X319051130Y-34624828D01*
X319051130Y-34386733D01*
X319003511Y-34291495D01*
X318955892Y-34243876D01*
X300001130Y-32339114D02*
X299001130Y-32339114D01*
X299001130Y-32577209D01*
X299048750Y-32720066D01*
X299143988Y-32815304D01*
X299239226Y-32862923D01*
X299429702Y-32910542D01*
X299572559Y-32910542D01*
X299763035Y-32862923D01*
X299858273Y-32815304D01*
X299953511Y-32720066D01*
X300001130Y-32577209D01*
X300001130Y-32339114D01*
X300001130Y-33862923D02*
X300001130Y-33291495D01*
X300001130Y-33577209D02*
X299001130Y-33577209D01*
X299143988Y-33481971D01*
X299239226Y-33386733D01*
X299286845Y-33291495D01*
X299334464Y-34720066D02*
X300001130Y-34720066D01*
X298953511Y-34481971D02*
X299667797Y-34243876D01*
X299667797Y-34862923D01*
X280951130Y-32339114D02*
X279951130Y-32339114D01*
X279951130Y-32577209D01*
X279998750Y-32720066D01*
X280093988Y-32815304D01*
X280189226Y-32862923D01*
X280379702Y-32910542D01*
X280522559Y-32910542D01*
X280713035Y-32862923D01*
X280808273Y-32815304D01*
X280903511Y-32720066D01*
X280951130Y-32577209D01*
X280951130Y-32339114D01*
X280951130Y-33862923D02*
X280951130Y-33291495D01*
X280951130Y-33577209D02*
X279951130Y-33577209D01*
X280093988Y-33481971D01*
X280189226Y-33386733D01*
X280236845Y-33291495D01*
X279951130Y-34196257D02*
X279951130Y-34815304D01*
X280332083Y-34481971D01*
X280332083Y-34624828D01*
X280379702Y-34720066D01*
X280427321Y-34767685D01*
X280522559Y-34815304D01*
X280760654Y-34815304D01*
X280855892Y-34767685D01*
X280903511Y-34720066D01*
X280951130Y-34624828D01*
X280951130Y-34339114D01*
X280903511Y-34243876D01*
X280855892Y-34196257D01*
X261901130Y-32339114D02*
X260901130Y-32339114D01*
X260901130Y-32577209D01*
X260948750Y-32720066D01*
X261043988Y-32815304D01*
X261139226Y-32862923D01*
X261329702Y-32910542D01*
X261472559Y-32910542D01*
X261663035Y-32862923D01*
X261758273Y-32815304D01*
X261853511Y-32720066D01*
X261901130Y-32577209D01*
X261901130Y-32339114D01*
X261901130Y-33862923D02*
X261901130Y-33291495D01*
X261901130Y-33577209D02*
X260901130Y-33577209D01*
X261043988Y-33481971D01*
X261139226Y-33386733D01*
X261186845Y-33291495D01*
X260996369Y-34243876D02*
X260948750Y-34291495D01*
X260901130Y-34386733D01*
X260901130Y-34624828D01*
X260948750Y-34720066D01*
X260996369Y-34767685D01*
X261091607Y-34815304D01*
X261186845Y-34815304D01*
X261329702Y-34767685D01*
X261901130Y-34196257D01*
X261901130Y-34815304D01*
X242851130Y-32339114D02*
X241851130Y-32339114D01*
X241851130Y-32577209D01*
X241898750Y-32720066D01*
X241993988Y-32815304D01*
X242089226Y-32862923D01*
X242279702Y-32910542D01*
X242422559Y-32910542D01*
X242613035Y-32862923D01*
X242708273Y-32815304D01*
X242803511Y-32720066D01*
X242851130Y-32577209D01*
X242851130Y-32339114D01*
X242851130Y-33862923D02*
X242851130Y-33291495D01*
X242851130Y-33577209D02*
X241851130Y-33577209D01*
X241993988Y-33481971D01*
X242089226Y-33386733D01*
X242136845Y-33291495D01*
X242851130Y-34815304D02*
X242851130Y-34243876D01*
X242851130Y-34529590D02*
X241851130Y-34529590D01*
X241993988Y-34434352D01*
X242089226Y-34339114D01*
X242136845Y-34243876D01*
X223801130Y-32339114D02*
X222801130Y-32339114D01*
X222801130Y-32577209D01*
X222848750Y-32720066D01*
X222943988Y-32815304D01*
X223039226Y-32862923D01*
X223229702Y-32910542D01*
X223372559Y-32910542D01*
X223563035Y-32862923D01*
X223658273Y-32815304D01*
X223753511Y-32720066D01*
X223801130Y-32577209D01*
X223801130Y-32339114D01*
X223801130Y-33862923D02*
X223801130Y-33291495D01*
X223801130Y-33577209D02*
X222801130Y-33577209D01*
X222943988Y-33481971D01*
X223039226Y-33386733D01*
X223086845Y-33291495D01*
X222801130Y-34481971D02*
X222801130Y-34577209D01*
X222848750Y-34672447D01*
X222896369Y-34720066D01*
X222991607Y-34767685D01*
X223182083Y-34815304D01*
X223420178Y-34815304D01*
X223610654Y-34767685D01*
X223705892Y-34720066D01*
X223753511Y-34672447D01*
X223801130Y-34577209D01*
X223801130Y-34481971D01*
X223753511Y-34386733D01*
X223705892Y-34339114D01*
X223610654Y-34291495D01*
X223420178Y-34243876D01*
X223182083Y-34243876D01*
X222991607Y-34291495D01*
X222896369Y-34339114D01*
X222848750Y-34386733D01*
X222801130Y-34481971D01*
X204751130Y-32815304D02*
X203751130Y-32815304D01*
X203751130Y-33053400D01*
X203798750Y-33196257D01*
X203893988Y-33291495D01*
X203989226Y-33339114D01*
X204179702Y-33386733D01*
X204322559Y-33386733D01*
X204513035Y-33339114D01*
X204608273Y-33291495D01*
X204703511Y-33196257D01*
X204751130Y-33053400D01*
X204751130Y-32815304D01*
X204751130Y-33862923D02*
X204751130Y-34053400D01*
X204703511Y-34148638D01*
X204655892Y-34196257D01*
X204513035Y-34291495D01*
X204322559Y-34339114D01*
X203941607Y-34339114D01*
X203846369Y-34291495D01*
X203798750Y-34243876D01*
X203751130Y-34148638D01*
X203751130Y-33958161D01*
X203798750Y-33862923D01*
X203846369Y-33815304D01*
X203941607Y-33767685D01*
X204179702Y-33767685D01*
X204274940Y-33815304D01*
X204322559Y-33862923D01*
X204370178Y-33958161D01*
X204370178Y-34148638D01*
X204322559Y-34243876D01*
X204274940Y-34291495D01*
X204179702Y-34339114D01*
X185701130Y-32815304D02*
X184701130Y-32815304D01*
X184701130Y-33053400D01*
X184748750Y-33196257D01*
X184843988Y-33291495D01*
X184939226Y-33339114D01*
X185129702Y-33386733D01*
X185272559Y-33386733D01*
X185463035Y-33339114D01*
X185558273Y-33291495D01*
X185653511Y-33196257D01*
X185701130Y-33053400D01*
X185701130Y-32815304D01*
X185129702Y-33958161D02*
X185082083Y-33862923D01*
X185034464Y-33815304D01*
X184939226Y-33767685D01*
X184891607Y-33767685D01*
X184796369Y-33815304D01*
X184748750Y-33862923D01*
X184701130Y-33958161D01*
X184701130Y-34148638D01*
X184748750Y-34243876D01*
X184796369Y-34291495D01*
X184891607Y-34339114D01*
X184939226Y-34339114D01*
X185034464Y-34291495D01*
X185082083Y-34243876D01*
X185129702Y-34148638D01*
X185129702Y-33958161D01*
X185177321Y-33862923D01*
X185224940Y-33815304D01*
X185320178Y-33767685D01*
X185510654Y-33767685D01*
X185605892Y-33815304D01*
X185653511Y-33862923D01*
X185701130Y-33958161D01*
X185701130Y-34148638D01*
X185653511Y-34243876D01*
X185605892Y-34291495D01*
X185510654Y-34339114D01*
X185320178Y-34339114D01*
X185224940Y-34291495D01*
X185177321Y-34243876D01*
X185129702Y-34148638D01*
X166651130Y-32815304D02*
X165651130Y-32815304D01*
X165651130Y-33053400D01*
X165698750Y-33196257D01*
X165793988Y-33291495D01*
X165889226Y-33339114D01*
X166079702Y-33386733D01*
X166222559Y-33386733D01*
X166413035Y-33339114D01*
X166508273Y-33291495D01*
X166603511Y-33196257D01*
X166651130Y-33053400D01*
X166651130Y-32815304D01*
X165651130Y-33720066D02*
X165651130Y-34386733D01*
X166651130Y-33958161D01*
X147601130Y-32815304D02*
X146601130Y-32815304D01*
X146601130Y-33053400D01*
X146648750Y-33196257D01*
X146743988Y-33291495D01*
X146839226Y-33339114D01*
X147029702Y-33386733D01*
X147172559Y-33386733D01*
X147363035Y-33339114D01*
X147458273Y-33291495D01*
X147553511Y-33196257D01*
X147601130Y-33053400D01*
X147601130Y-32815304D01*
X146601130Y-34243876D02*
X146601130Y-34053400D01*
X146648750Y-33958161D01*
X146696369Y-33910542D01*
X146839226Y-33815304D01*
X147029702Y-33767685D01*
X147410654Y-33767685D01*
X147505892Y-33815304D01*
X147553511Y-33862923D01*
X147601130Y-33958161D01*
X147601130Y-34148638D01*
X147553511Y-34243876D01*
X147505892Y-34291495D01*
X147410654Y-34339114D01*
X147172559Y-34339114D01*
X147077321Y-34291495D01*
X147029702Y-34243876D01*
X146982083Y-34148638D01*
X146982083Y-33958161D01*
X147029702Y-33862923D01*
X147077321Y-33815304D01*
X147172559Y-33767685D01*
X128551130Y-32815304D02*
X127551130Y-32815304D01*
X127551130Y-33053400D01*
X127598750Y-33196257D01*
X127693988Y-33291495D01*
X127789226Y-33339114D01*
X127979702Y-33386733D01*
X128122559Y-33386733D01*
X128313035Y-33339114D01*
X128408273Y-33291495D01*
X128503511Y-33196257D01*
X128551130Y-33053400D01*
X128551130Y-32815304D01*
X127551130Y-34291495D02*
X127551130Y-33815304D01*
X128027321Y-33767685D01*
X127979702Y-33815304D01*
X127932083Y-33910542D01*
X127932083Y-34148638D01*
X127979702Y-34243876D01*
X128027321Y-34291495D01*
X128122559Y-34339114D01*
X128360654Y-34339114D01*
X128455892Y-34291495D01*
X128503511Y-34243876D01*
X128551130Y-34148638D01*
X128551130Y-33910542D01*
X128503511Y-33815304D01*
X128455892Y-33767685D01*
X104738630Y-32815304D02*
X103738630Y-32815304D01*
X103738630Y-33053400D01*
X103786250Y-33196257D01*
X103881488Y-33291495D01*
X103976726Y-33339114D01*
X104167202Y-33386733D01*
X104310059Y-33386733D01*
X104500535Y-33339114D01*
X104595773Y-33291495D01*
X104691011Y-33196257D01*
X104738630Y-33053400D01*
X104738630Y-32815304D01*
X104071964Y-34243876D02*
X104738630Y-34243876D01*
X103691011Y-34005780D02*
X104405297Y-33767685D01*
X104405297Y-34386733D01*
X80926130Y-32815304D02*
X79926130Y-32815304D01*
X79926130Y-33053400D01*
X79973750Y-33196257D01*
X80068988Y-33291495D01*
X80164226Y-33339114D01*
X80354702Y-33386733D01*
X80497559Y-33386733D01*
X80688035Y-33339114D01*
X80783273Y-33291495D01*
X80878511Y-33196257D01*
X80926130Y-33053400D01*
X80926130Y-32815304D01*
X79926130Y-33720066D02*
X79926130Y-34339114D01*
X80307083Y-34005780D01*
X80307083Y-34148638D01*
X80354702Y-34243876D01*
X80402321Y-34291495D01*
X80497559Y-34339114D01*
X80735654Y-34339114D01*
X80830892Y-34291495D01*
X80878511Y-34243876D01*
X80926130Y-34148638D01*
X80926130Y-33862923D01*
X80878511Y-33767685D01*
X80830892Y-33720066D01*
X61876130Y-32815304D02*
X60876130Y-32815304D01*
X60876130Y-33053400D01*
X60923750Y-33196257D01*
X61018988Y-33291495D01*
X61114226Y-33339114D01*
X61304702Y-33386733D01*
X61447559Y-33386733D01*
X61638035Y-33339114D01*
X61733273Y-33291495D01*
X61828511Y-33196257D01*
X61876130Y-33053400D01*
X61876130Y-32815304D01*
X60971369Y-33767685D02*
X60923750Y-33815304D01*
X60876130Y-33910542D01*
X60876130Y-34148638D01*
X60923750Y-34243876D01*
X60971369Y-34291495D01*
X61066607Y-34339114D01*
X61161845Y-34339114D01*
X61304702Y-34291495D01*
X61876130Y-33720066D01*
X61876130Y-34339114D01*
X42826130Y-32815304D02*
X41826130Y-32815304D01*
X41826130Y-33053400D01*
X41873750Y-33196257D01*
X41968988Y-33291495D01*
X42064226Y-33339114D01*
X42254702Y-33386733D01*
X42397559Y-33386733D01*
X42588035Y-33339114D01*
X42683273Y-33291495D01*
X42778511Y-33196257D01*
X42826130Y-33053400D01*
X42826130Y-32815304D01*
X42826130Y-34339114D02*
X42826130Y-33767685D01*
X42826130Y-34053400D02*
X41826130Y-34053400D01*
X41968988Y-33958161D01*
X42064226Y-33862923D01*
X42111845Y-33767685D01*
X23776130Y-32815304D02*
X22776130Y-32815304D01*
X22776130Y-33053400D01*
X22823750Y-33196257D01*
X22918988Y-33291495D01*
X23014226Y-33339114D01*
X23204702Y-33386733D01*
X23347559Y-33386733D01*
X23538035Y-33339114D01*
X23633273Y-33291495D01*
X23728511Y-33196257D01*
X23776130Y-33053400D01*
X23776130Y-32815304D01*
X22776130Y-34005780D02*
X22776130Y-34101019D01*
X22823750Y-34196257D01*
X22871369Y-34243876D01*
X22966607Y-34291495D01*
X23157083Y-34339114D01*
X23395178Y-34339114D01*
X23585654Y-34291495D01*
X23680892Y-34243876D01*
X23728511Y-34196257D01*
X23776130Y-34101019D01*
X23776130Y-34005780D01*
X23728511Y-33910542D01*
X23680892Y-33862923D01*
X23585654Y-33815304D01*
X23395178Y-33767685D01*
X23157083Y-33767685D01*
X22966607Y-33815304D01*
X22871369Y-33862923D01*
X22823750Y-33910542D01*
X22776130Y-34005780D01*
X347978421Y-37563466D02*
X347978421Y-37230133D01*
X348502230Y-37230133D02*
X347502230Y-37230133D01*
X347502230Y-37706323D01*
X348502230Y-38611085D02*
X348502230Y-38039657D01*
X348502230Y-38325371D02*
X347502230Y-38325371D01*
X347645088Y-38230133D01*
X347740326Y-38134895D01*
X347787945Y-38039657D01*
X206241583Y-83553761D02*
X206098726Y-83601380D01*
X205860630Y-83601380D01*
X205765392Y-83553761D01*
X205717773Y-83506142D01*
X205670154Y-83410904D01*
X205670154Y-83315666D01*
X205717773Y-83220428D01*
X205765392Y-83172809D01*
X205860630Y-83125190D01*
X206051107Y-83077571D01*
X206146345Y-83029952D01*
X206193964Y-82982333D01*
X206241583Y-82887095D01*
X206241583Y-82791857D01*
X206193964Y-82696619D01*
X206146345Y-82649000D01*
X206051107Y-82601380D01*
X205813011Y-82601380D01*
X205670154Y-82649000D01*
X205336821Y-82601380D02*
X205098726Y-83601380D01*
X204908250Y-82887095D01*
X204717773Y-83601380D01*
X204479678Y-82601380D01*
X203574916Y-83601380D02*
X204146345Y-83601380D01*
X203860630Y-83601380D02*
X203860630Y-82601380D01*
X203955869Y-82744238D01*
X204051107Y-82839476D01*
X204146345Y-82887095D01*
X163645290Y-100128190D02*
X163645290Y-100604380D01*
X163978623Y-99604380D02*
X163645290Y-100128190D01*
X163311957Y-99604380D01*
X162454814Y-100604380D02*
X163026242Y-100604380D01*
X162740528Y-100604380D02*
X162740528Y-99604380D01*
X162835766Y-99747238D01*
X162931004Y-99842476D01*
X163026242Y-99890095D01*
X170884754Y-81551180D02*
X170884754Y-82360704D01*
X170837135Y-82455942D01*
X170789516Y-82503561D01*
X170694278Y-82551180D01*
X170503802Y-82551180D01*
X170408564Y-82503561D01*
X170360945Y-82455942D01*
X170313326Y-82360704D01*
X170313326Y-81551180D01*
X169313326Y-82551180D02*
X169884754Y-82551180D01*
X169599040Y-82551180D02*
X169599040Y-81551180D01*
X169694278Y-81694038D01*
X169789516Y-81789276D01*
X169884754Y-81836895D01*
X158345142Y-97588933D02*
X158392761Y-97541314D01*
X158440380Y-97398457D01*
X158440380Y-97303219D01*
X158392761Y-97160361D01*
X158297523Y-97065123D01*
X158202285Y-97017504D01*
X158011809Y-96969885D01*
X157868952Y-96969885D01*
X157678476Y-97017504D01*
X157583238Y-97065123D01*
X157488000Y-97160361D01*
X157440380Y-97303219D01*
X157440380Y-97398457D01*
X157488000Y-97541314D01*
X157535619Y-97588933D01*
X157440380Y-98446076D02*
X157440380Y-98255600D01*
X157488000Y-98160361D01*
X157535619Y-98112742D01*
X157678476Y-98017504D01*
X157868952Y-97969885D01*
X158249904Y-97969885D01*
X158345142Y-98017504D01*
X158392761Y-98065123D01*
X158440380Y-98160361D01*
X158440380Y-98350838D01*
X158392761Y-98446076D01*
X158345142Y-98493695D01*
X158249904Y-98541314D01*
X158011809Y-98541314D01*
X157916571Y-98493695D01*
X157868952Y-98446076D01*
X157821333Y-98350838D01*
X157821333Y-98160361D01*
X157868952Y-98065123D01*
X157916571Y-98017504D01*
X158011809Y-97969885D01*
X356725516Y-21508980D02*
X357058850Y-21032790D01*
X357296945Y-21508980D02*
X357296945Y-20508980D01*
X356915992Y-20508980D01*
X356820754Y-20556600D01*
X356773135Y-20604219D01*
X356725516Y-20699457D01*
X356725516Y-20842314D01*
X356773135Y-20937552D01*
X356820754Y-20985171D01*
X356915992Y-21032790D01*
X357296945Y-21032790D01*
X355868373Y-20508980D02*
X356058850Y-20508980D01*
X356154088Y-20556600D01*
X356201707Y-20604219D01*
X356296945Y-20747076D01*
X356344564Y-20937552D01*
X356344564Y-21318504D01*
X356296945Y-21413742D01*
X356249326Y-21461361D01*
X356154088Y-21508980D01*
X355963611Y-21508980D01*
X355868373Y-21461361D01*
X355820754Y-21413742D01*
X355773135Y-21318504D01*
X355773135Y-21080409D01*
X355820754Y-20985171D01*
X355868373Y-20937552D01*
X355963611Y-20889933D01*
X356154088Y-20889933D01*
X356249326Y-20937552D01*
X356296945Y-20985171D01*
X356344564Y-21080409D01*
X338513716Y-22143980D02*
X338847050Y-21667790D01*
X339085145Y-22143980D02*
X339085145Y-21143980D01*
X338704192Y-21143980D01*
X338608954Y-21191600D01*
X338561335Y-21239219D01*
X338513716Y-21334457D01*
X338513716Y-21477314D01*
X338561335Y-21572552D01*
X338608954Y-21620171D01*
X338704192Y-21667790D01*
X339085145Y-21667790D01*
X337608954Y-21143980D02*
X338085145Y-21143980D01*
X338132764Y-21620171D01*
X338085145Y-21572552D01*
X337989907Y-21524933D01*
X337751811Y-21524933D01*
X337656573Y-21572552D01*
X337608954Y-21620171D01*
X337561335Y-21715409D01*
X337561335Y-21953504D01*
X337608954Y-22048742D01*
X337656573Y-22096361D01*
X337751811Y-22143980D01*
X337989907Y-22143980D01*
X338085145Y-22096361D01*
X338132764Y-22048742D01*
X349922645Y-16788780D02*
X349922645Y-15788780D01*
X349541692Y-15788780D01*
X349446454Y-15836400D01*
X349398835Y-15884019D01*
X349351216Y-15979257D01*
X349351216Y-16122114D01*
X349398835Y-16217352D01*
X349446454Y-16264971D01*
X349541692Y-16312590D01*
X349922645Y-16312590D01*
X348398835Y-16788780D02*
X348970264Y-16788780D01*
X348684550Y-16788780D02*
X348684550Y-15788780D01*
X348779788Y-15931638D01*
X348875026Y-16026876D01*
X348970264Y-16074495D01*
X228584280Y-92529066D02*
X229298566Y-92529066D01*
X229441423Y-92481447D01*
X229536661Y-92386209D01*
X229584280Y-92243352D01*
X229584280Y-92148114D01*
X228679519Y-92957638D02*
X228631900Y-93005257D01*
X228584280Y-93100495D01*
X228584280Y-93338590D01*
X228631900Y-93433828D01*
X228679519Y-93481447D01*
X228774757Y-93529066D01*
X228869995Y-93529066D01*
X229012852Y-93481447D01*
X229584280Y-92910019D01*
X229584280Y-93529066D01*
X161101030Y-80122733D02*
X160624840Y-79789400D01*
X161101030Y-79551304D02*
X160101030Y-79551304D01*
X160101030Y-79932257D01*
X160148650Y-80027495D01*
X160196269Y-80075114D01*
X160291507Y-80122733D01*
X160434364Y-80122733D01*
X160529602Y-80075114D01*
X160577221Y-80027495D01*
X160624840Y-79932257D01*
X160624840Y-79551304D01*
X160434364Y-80979876D02*
X161101030Y-80979876D01*
X160053411Y-80741780D02*
X160767697Y-80503685D01*
X160767697Y-81122733D01*
X351042230Y-32110933D02*
X350566040Y-31777600D01*
X351042230Y-31539504D02*
X350042230Y-31539504D01*
X350042230Y-31920457D01*
X350089850Y-32015695D01*
X350137469Y-32063314D01*
X350232707Y-32110933D01*
X350375564Y-32110933D01*
X350470802Y-32063314D01*
X350518421Y-32015695D01*
X350566040Y-31920457D01*
X350566040Y-31539504D01*
X350042230Y-32444266D02*
X350042230Y-33063314D01*
X350423183Y-32729980D01*
X350423183Y-32872838D01*
X350470802Y-32968076D01*
X350518421Y-33015695D01*
X350613659Y-33063314D01*
X350851754Y-33063314D01*
X350946992Y-33015695D01*
X350994611Y-32968076D01*
X351042230Y-32872838D01*
X351042230Y-32587123D01*
X350994611Y-32491885D01*
X350946992Y-32444266D01*
X349061030Y-32136333D02*
X348584840Y-31803000D01*
X349061030Y-31564904D02*
X348061030Y-31564904D01*
X348061030Y-31945857D01*
X348108650Y-32041095D01*
X348156269Y-32088714D01*
X348251507Y-32136333D01*
X348394364Y-32136333D01*
X348489602Y-32088714D01*
X348537221Y-32041095D01*
X348584840Y-31945857D01*
X348584840Y-31564904D01*
X348156269Y-32517285D02*
X348108650Y-32564904D01*
X348061030Y-32660142D01*
X348061030Y-32898238D01*
X348108650Y-32993476D01*
X348156269Y-33041095D01*
X348251507Y-33088714D01*
X348346745Y-33088714D01*
X348489602Y-33041095D01*
X349061030Y-32469666D01*
X349061030Y-33088714D01*
X198646630Y-86139333D02*
X198170440Y-85806000D01*
X198646630Y-85567904D02*
X197646630Y-85567904D01*
X197646630Y-85948857D01*
X197694250Y-86044095D01*
X197741869Y-86091714D01*
X197837107Y-86139333D01*
X197979964Y-86139333D01*
X198075202Y-86091714D01*
X198122821Y-86044095D01*
X198170440Y-85948857D01*
X198170440Y-85567904D01*
X198646630Y-87091714D02*
X198646630Y-86520285D01*
X198646630Y-86806000D02*
X197646630Y-86806000D01*
X197789488Y-86710761D01*
X197884726Y-86615523D01*
X197932345Y-86520285D01*
X179984916Y-89346042D02*
X180032535Y-89393661D01*
X180175392Y-89441280D01*
X180270630Y-89441280D01*
X180413488Y-89393661D01*
X180508726Y-89298423D01*
X180556345Y-89203185D01*
X180603964Y-89012709D01*
X180603964Y-88869852D01*
X180556345Y-88679376D01*
X180508726Y-88584138D01*
X180413488Y-88488900D01*
X180270630Y-88441280D01*
X180175392Y-88441280D01*
X180032535Y-88488900D01*
X179984916Y-88536519D01*
X179413488Y-88869852D02*
X179508726Y-88822233D01*
X179556345Y-88774614D01*
X179603964Y-88679376D01*
X179603964Y-88631757D01*
X179556345Y-88536519D01*
X179508726Y-88488900D01*
X179413488Y-88441280D01*
X179223011Y-88441280D01*
X179127773Y-88488900D01*
X179080154Y-88536519D01*
X179032535Y-88631757D01*
X179032535Y-88679376D01*
X179080154Y-88774614D01*
X179127773Y-88822233D01*
X179223011Y-88869852D01*
X179413488Y-88869852D01*
X179508726Y-88917471D01*
X179556345Y-88965090D01*
X179603964Y-89060328D01*
X179603964Y-89250804D01*
X179556345Y-89346042D01*
X179508726Y-89393661D01*
X179413488Y-89441280D01*
X179223011Y-89441280D01*
X179127773Y-89393661D01*
X179080154Y-89346042D01*
X179032535Y-89250804D01*
X179032535Y-89060328D01*
X179080154Y-88965090D01*
X179127773Y-88917471D01*
X179223011Y-88869852D01*
X168649242Y-97588933D02*
X168696861Y-97541314D01*
X168744480Y-97398457D01*
X168744480Y-97303219D01*
X168696861Y-97160361D01*
X168601623Y-97065123D01*
X168506385Y-97017504D01*
X168315909Y-96969885D01*
X168173052Y-96969885D01*
X167982576Y-97017504D01*
X167887338Y-97065123D01*
X167792100Y-97160361D01*
X167744480Y-97303219D01*
X167744480Y-97398457D01*
X167792100Y-97541314D01*
X167839719Y-97588933D01*
X167744480Y-97922266D02*
X167744480Y-98588933D01*
X168744480Y-98160361D01*
X177071316Y-78157342D02*
X177118935Y-78204961D01*
X177261792Y-78252580D01*
X177357030Y-78252580D01*
X177499888Y-78204961D01*
X177595126Y-78109723D01*
X177642745Y-78014485D01*
X177690364Y-77824009D01*
X177690364Y-77681152D01*
X177642745Y-77490676D01*
X177595126Y-77395438D01*
X177499888Y-77300200D01*
X177357030Y-77252580D01*
X177261792Y-77252580D01*
X177118935Y-77300200D01*
X177071316Y-77347819D01*
X176166554Y-77252580D02*
X176642745Y-77252580D01*
X176690364Y-77728771D01*
X176642745Y-77681152D01*
X176547507Y-77633533D01*
X176309411Y-77633533D01*
X176214173Y-77681152D01*
X176166554Y-77728771D01*
X176118935Y-77824009D01*
X176118935Y-78062104D01*
X176166554Y-78157342D01*
X176214173Y-78204961D01*
X176309411Y-78252580D01*
X176547507Y-78252580D01*
X176642745Y-78204961D01*
X176690364Y-78157342D01*
X159761192Y-91019333D02*
X159808811Y-90971714D01*
X159856430Y-90828857D01*
X159856430Y-90733619D01*
X159808811Y-90590761D01*
X159713573Y-90495523D01*
X159618335Y-90447904D01*
X159427859Y-90400285D01*
X159285002Y-90400285D01*
X159094526Y-90447904D01*
X158999288Y-90495523D01*
X158904050Y-90590761D01*
X158856430Y-90733619D01*
X158856430Y-90828857D01*
X158904050Y-90971714D01*
X158951669Y-91019333D01*
X159189764Y-91876476D02*
X159856430Y-91876476D01*
X158808811Y-91638380D02*
X159523097Y-91400285D01*
X159523097Y-92019333D01*
X168232116Y-79122542D02*
X168279735Y-79170161D01*
X168422592Y-79217780D01*
X168517830Y-79217780D01*
X168660688Y-79170161D01*
X168755926Y-79074923D01*
X168803545Y-78979685D01*
X168851164Y-78789209D01*
X168851164Y-78646352D01*
X168803545Y-78455876D01*
X168755926Y-78360638D01*
X168660688Y-78265400D01*
X168517830Y-78217780D01*
X168422592Y-78217780D01*
X168279735Y-78265400D01*
X168232116Y-78313019D01*
X167898783Y-78217780D02*
X167279735Y-78217780D01*
X167613069Y-78598733D01*
X167470211Y-78598733D01*
X167374973Y-78646352D01*
X167327354Y-78693971D01*
X167279735Y-78789209D01*
X167279735Y-79027304D01*
X167327354Y-79122542D01*
X167374973Y-79170161D01*
X167470211Y-79217780D01*
X167755926Y-79217780D01*
X167851164Y-79170161D01*
X167898783Y-79122542D01*
X172410392Y-97124333D02*
X172458011Y-97076714D01*
X172505630Y-96933857D01*
X172505630Y-96838619D01*
X172458011Y-96695761D01*
X172362773Y-96600523D01*
X172267535Y-96552904D01*
X172077059Y-96505285D01*
X171934202Y-96505285D01*
X171743726Y-96552904D01*
X171648488Y-96600523D01*
X171553250Y-96695761D01*
X171505630Y-96838619D01*
X171505630Y-96933857D01*
X171553250Y-97076714D01*
X171600869Y-97124333D01*
X171600869Y-97505285D02*
X171553250Y-97552904D01*
X171505630Y-97648142D01*
X171505630Y-97886238D01*
X171553250Y-97981476D01*
X171600869Y-98029095D01*
X171696107Y-98076714D01*
X171791345Y-98076714D01*
X171934202Y-98029095D01*
X172505630Y-97457666D01*
X172505630Y-98076714D01*
M02*
