0
SECTION
2
HEADER
9
$INSUNITS
70
4
9
$ACADVER
1
AC1014
9
$HANDSEED
5
FFFF
0
ENDSEC
0
SECTION
2
TABLES
0
TABLE
2
VPORT
5
8
100
AcDbSymbolTable
0
ENDTAB
0
TABLE
2
LTYPE
5
5
100
AcDbSymbolTable
0
LTYPE
5
14
100
AcDbSymbolTableRecord
100
AcDbLinetypeTableRecord
2
BYBLOCK
70
0
0
LTYPE
5
15
100
AcDbSymbolTableRecord
100
AcDbLinetypeTableRecord
2
BYLAYER
70
0
0
ENDTAB
0
TABLE
2
LAYER
5
2
100
AcDbSymbolTable
70
2
0
LAYER
5
50
100
AcDbSymbolTableRecord
100
AcDbLayerTableRecord
2
0
70
0
6
CONTINUOUS
0
ENDTAB
0
TABLE
2
STYLE
5
3
100
AcDbSymbolTable
70
1
0
STYLE
5
11
100
AcDbSymbolTableRecord
100
AcDbTextStyleTableRecord
2
STANDARD
70
0
0
ENDTAB
0
TABLE
2
VIEW
5
6
100
AcDbSymbolTable
70
0
0
ENDTAB
0
TABLE
2
UCS
5
7
100
AcDbSymbolTable
70
0
0
ENDTAB
0
TABLE
2
APPID
5
9
100
AcDbSymbolTable
70
2
0
APPID
5
12
100
AcDbSymbolTableRecord
100
AcDbRegAppTableRecord
2
ACAD
70
0
0
ENDTAB
0
TABLE
2
DIMSTYLE
5
A
100
AcDbSymbolTable
70
1
0
ENDTAB
0
TABLE
2
BLOCK_RECORD
5
1
100
AcDbSymbolTable
70
1
0
BLOCK_RECORD
5
1F
100
AcDbSymbolTableRecord
100
AcDbBlockTableRecord
2
*MODEL_SPACE
0
BLOCK_RECORD
5
1B
100
AcDbSymbolTableRecord
100
AcDbBlockTableRecord
2
*PAPER_SPACE
0
ENDTAB
0
ENDSEC
0
SECTION
2
BLOCKS
0
BLOCK
5
20
100
AcDbEntity
100
AcDbBlockBegin
2
*MODEL_SPACE
0
ENDBLK
5
21
100
AcDbEntity
100
AcDbBlockEnd
0
BLOCK
5
1C
100
AcDbEntity
100
AcDbBlockBegin
2
*PAPER_SPACE
0
ENDBLK
5
1D
100
AcDbEntity
100
AcDbBlockEnd
0
ENDSEC
0
SECTION
2
ENTITIES
0
LWPOLYLINE
5
100
100
AcDbEntity
8
0
100
AcDbPolyline
90
8
70
1
43
0.0
10
7.7875000000000005
20
-40.337500000000006
42
-0.41421356237309503
10
7.2874999999999996
20
-39.837499999999999
10
7.2875000000000023
20
-26.837499999999999
42
-0.41421356237309503
10
7.7875000000000005
20
-26.337499999999999
10
20.787500000000001
20
-26.337499999999999
42
-0.41421356237309503
10
21.287500000000001
20
-26.837499999999999
10
21.287500000000005
20
-39.837499999999999
42
-0.41421356237309503
10
20.787500000000001
20
-40.337500000000006
0
LWPOLYLINE
5
101
100
AcDbEntity
8
0
100
AcDbPolyline
90
8
70
1
43
0.0
10
368.44999999999999
20
-7.287500000000029
42
-0.41421356237309503
10
368.94999999999993
20
-7.7875000000000005
10
368.94999999999993
20
-20.787500000000001
42
-0.41421356237309503
10
368.44999999999999
20
-21.287500000000001
10
355.45000000000005
20
-21.287499999999973
42
-0.41421356237309503
10
354.94999999999999
20
-20.787500000000001
10
354.95000000000005
20
-7.7875000000000005
42
-0.41421356237309503
10
355.45000000000005
20
-7.2874999999999996
0
LWPOLYLINE
5
102
100
AcDbEntity
8
0
100
AcDbPolyline
90
8
70
1
43
0.0
10
245.12500000000003
20
-20.787500000000001
10
245.12500000000003
20
-7.7875000000000005
42
0.41421356237309503
10
244.62500000000003
20
-7.2874999999999996
10
231.625
20
-7.2874999999999996
42
0.41421356237309503
10
231.125
20
-7.7875000000000005
10
231.125
20
-20.787500000000001
42
0.41421356237309503
10
231.625
20
-21.287500000000001
10
244.62500000000003
20
-21.287500000000001
42
0.41421356237309503
0
LWPOLYLINE
5
103
100
AcDbEntity
8
0
100
AcDbPolyline
90
8
70
1
43
0.0
10
349.90000000000003
20
-20.787500000000001
10
349.89999999999998
20
-7.7875000000000005
42
0.41421356237309503
10
349.39999999999998
20
-7.2874999999999996
10
336.39999999999998
20
-7.2874999999999996
42
0.41421356237309503
10
335.90000000000003
20
-7.7875000000000005
10
335.90000000000003
20
-20.787500000000001
42
0.41421356237309503
10
336.39999999999998
20
-21.287500000000001
10
349.39999999999998
20
-21.287500000000001
42
0.41421356237309503
0
LWPOLYLINE
5
104
100
AcDbEntity
8
0
100
AcDbPolyline
90
8
70
1
43
0.0
10
273.69999999999999
20
-20.787500000000001
10
273.69999999999999
20
-7.7875000000000005
42
0.41421356237309503
10
273.19999999999999
20
-7.2874999999999996
10
260.19999999999999
20
-7.2874999999999996
42
0.41421356237309503
10
259.69999999999999
20
-7.7875000000000005
10
259.69999999999999
20
-20.787500000000001
42
0.41421356237309503
10
260.19999999999999
20
-21.287500000000001
10
273.19999999999999
20
-21.287500000000001
42
0.41421356237309503
0
LWPOLYLINE
5
105
100
AcDbEntity
8
0
100
AcDbPolyline
90
8
70
1
43
0.0
10
258.26200000000006
20
-22.787500000000001
42
-0.41421356237309503
10
257.76200000000006
20
-23.287499999999998
10
251.762
20
-23.287500000000009
42
-0.41421356237309503
10
251.262
20
-22.787500000000001
10
251.262
20
-8.7874999999999996
42
-0.41421356237309503
10
251.762
20
-8.2874999999999996
10
257.76200000000006
20
-8.2874999999999925
42
-0.41421356237309503
10
258.26200000000006
20
-8.7875000000000014
0
LWPOLYLINE
5
106
100
AcDbEntity
8
0
100
AcDbPolyline
90
8
70
1
43
0.0
10
193.52500000000003
20
-21.287500000000009
42
-0.41421356237309503
10
193.02500000000003
20
-20.787500000000001
10
193.02500000000003
20
-7.7875000000000005
42
-0.41421356237309503
10
193.52500000000003
20
-7.2874999999999996
10
206.52500000000003
20
-7.2874999999999934
42
-0.41421356237309503
10
207.02500000000001
20
-7.7875000000000005
10
207.02500000000003
20
-20.787500000000001
42
-0.41421356237309503
10
206.52500000000003
20
-21.287500000000001
0
LWPOLYLINE
5
107
100
AcDbEntity
8
0
100
AcDbPolyline
90
8
70
1
43
0.0
10
316.85000000000002
20
-20.787500000000001
10
316.85000000000002
20
-7.7875000000000005
42
-0.41421356237309503
10
317.35000000000002
20
-7.2874999999999996
10
330.35000000000002
20
-7.287500000000029
42
-0.41421356237309503
10
330.85000000000002
20
-7.7875000000000005
10
330.85000000000002
20
-20.787500000000001
42
-0.41421356237309503
10
330.35000000000002
20
-21.287500000000001
10
317.35000000000002
20
-21.287500000000009
42
-0.41421356237309503
0
LWPOLYLINE
5
108
100
AcDbEntity
8
0
100
AcDbPolyline
90
8
70
1
43
0.0
10
311.80000000000001
20
-20.787500000000001
10
311.80000000000001
20
-7.7875000000000005
42
0.41421356237309503
10
311.30000000000001
20
-7.2874999999999996
10
298.30000000000001
20
-7.2874999999999996
42
0.41421356237309503
10
297.80000000000001
20
-7.7875000000000005
10
297.80000000000001
20
-20.787500000000001
42
0.41421356237309503
10
298.30000000000001
20
-21.287500000000001
10
311.30000000000001
20
-21.287500000000001
42
0.41421356237309503
0
LWPOLYLINE
5
109
100
AcDbEntity
8
0
100
AcDbPolyline
90
8
70
1
43
0.0
10
225.57500000000002
20
-21.287500000000001
10
212.57499999999999
20
-21.287500000000009
42
-0.41421356237309503
10
212.07499999999999
20
-20.787500000000001
10
212.07499999999999
20
-7.7875000000000005
42
-0.41421356237309503
10
212.57499999999999
20
-7.2874999999999996
10
225.57500000000002
20
-7.2874999999999934
42
-0.41421356237309503
10
226.07500000000002
20
-7.7875000000000005
10
226.07500000000002
20
-20.787500000000001
42
-0.41421356237309503
0
LWPOLYLINE
5
110
100
AcDbEntity
8
0
100
AcDbPolyline
90
8
70
1
43
0.0
10
275.13799999999998
20
-22.787500000000001
10
275.13799999999998
20
-8.7874999999999996
42
-0.41421356237309503
10
275.63800000000003
20
-8.2874999999999996
10
281.63799999999998
20
-8.2874999999999925
42
-0.41421356237309503
10
282.13799999999998
20
-8.7875000000000014
10
282.13799999999998
20
-22.787500000000001
42
-0.41421356237309503
10
281.63799999999998
20
-23.287500000000001
10
275.63800000000003
20
-23.287500000000009
42
-0.41421356237309503
0
LWPOLYLINE
5
111
100
AcDbEntity
8
0
100
AcDbPolyline
90
8
70
1
43
0.0
10
120.8
20
-40.337500000000006
10
107.80000000000001
20
-40.337500000000013
42
-0.41421356237309503
10
107.30000000000001
20
-39.837499999999999
10
107.30000000000001
20
-26.837499999999999
42
-0.41421356237309503
10
107.80000000000001
20
-26.337499999999999
10
120.8
20
-26.337499999999991
42
-0.41421356237309503
10
121.30000000000001
20
-26.837499999999999
10
121.30000000000001
20
-39.837499999999999
42
-0.41421356237309503
0
LWPOLYLINE
5
112
100
AcDbEntity
8
0
100
AcDbPolyline
90
8
70
1
43
0.0
10
25.787500000000009
20
-39.837499999999999
42
-0.41421356237309503
10
25.287500000000005
20
-40.337500000000006
10
24.787500000000001
20
-40.337499999999991
42
-0.41421356237309503
10
24.287500000000005
20
-39.837499999999999
10
24.287500000000005
20
-26.837499999999999
42
-0.41421356237309503
10
24.787500000000001
20
-26.337499999999999
10
25.287500000000005
20
-26.337499999999999
42
-0.41421356237309503
10
25.787500000000001
20
-26.837499999999999
0
LWPOLYLINE
5
113
100
AcDbEntity
8
0
100
AcDbPolyline
90
8
70
1
43
0.0
10
140.34999999999999
20
-39.837499999999999
10
140.34999999999999
20
-26.837499999999999
42
0.41421356237309503
10
139.84999999999999
20
-26.337499999999999
10
126.85000000000001
20
-26.337499999999999
42
0.41421356237309503
10
126.34999999999999
20
-26.837499999999999
10
126.34999999999999
20
-39.837499999999999
42
0.41421356237309503
10
126.85000000000001
20
-40.337500000000006
10
139.84999999999999
20
-40.337500000000006
42
0.41421356237309503
0
LWPOLYLINE
5
114
100
AcDbEntity
8
0
100
AcDbPolyline
90
8
70
1
43
0.0
10
158.90000000000001
20
-40.337500000000006
10
145.90000000000001
20
-40.337500000000013
42
-0.41421356237309503
10
145.40000000000001
20
-39.837499999999999
10
145.40000000000003
20
-26.837499999999999
42
-0.41421356237309503
10
145.90000000000001
20
-26.337499999999999
10
158.90000000000001
20
-26.337499999999991
42
-0.41421356237309503
10
159.40000000000001
20
-26.837499999999999
10
159.40000000000001
20
-39.837499999999999
42
-0.41421356237309503
0
LWPOLYLINE
5
115
100
AcDbEntity
8
0
100
AcDbPolyline
90
8
70
1
43
0.0
10
45.100000000000009
20
-39.837499999999999
10
45.099999999999994
20
-26.837499999999999
42
0.41421356237309503
10
44.600000000000001
20
-26.337499999999999
10
31.600000000000001
20
-26.337499999999999
42
0.41421356237309503
10
31.100000000000001
20
-26.837499999999999
10
31.100000000000001
20
-39.837499999999999
42
0.41421356237309503
10
31.600000000000001
20
-40.337500000000006
10
44.600000000000001
20
-40.337500000000006
42
0.41421356237309503
0
LWPOLYLINE
5
116
100
AcDbEntity
8
0
100
AcDbPolyline
90
8
70
1
43
0.0
10
3.7875000000000005
20
-40.337500000000006
10
3.2875000000000005
20
-40.337500000000006
42
-0.41421356237309503
10
2.7875000000000001
20
-39.837499999999999
10
2.7875000000000023
20
-26.837499999999999
42
-0.41421356237309503
10
3.2875000000000005
20
-26.337499999999999
10
3.7875000000000005
20
-26.337499999999999
42
-0.41421356237309503
10
4.2875000000000005
20
-26.837499999999999
10
4.2875000000000032
20
-39.837499999999999
42
-0.41421356237309503
0
LWPOLYLINE
5
117
100
AcDbEntity
8
0
100
AcDbPolyline
90
8
70
1
43
0.0
10
69.200000000000003
20
-26.837499999999999
42
-0.41421356237309503
10
69.700000000000003
20
-26.337499999999999
10
82.700000000000017
20
-26.337499999999991
42
-0.41421356237309503
10
83.200000000000017
20
-26.837499999999999
10
83.200000000000017
20
-39.837499999999999
42
-0.41421356237309503
10
82.700000000000017
20
-40.337500000000006
10
69.700000000000003
20
-40.337499999999991
42
-0.41421356237309503
10
69.200000000000003
20
-39.837499999999999
0
LWPOLYLINE
5
118
100
AcDbEntity
8
0
100
AcDbPolyline
90
8
70
1
43
0.0
10
88.25
20
-26.837499999999999
42
-0.41421356237309503
10
88.75
20
-26.337499999999999
10
101.75
20
-26.337499999999991
42
-0.41421356237309503
10
102.25000000000001
20
-26.837499999999999
10
102.25000000000001
20
-39.837499999999999
42
-0.41421356237309503
10
101.75
20
-40.337500000000006
10
88.75
20
-40.337500000000013
42
-0.41421356237309503
10
88.250000000000014
20
-39.837499999999999
0
LWPOLYLINE
5
119
100
AcDbEntity
8
0
100
AcDbPolyline
90
8
70
1
43
0.0
10
50.150000000000006
20
-39.837499999999999
10
50.150000000000006
20
-26.837499999999999
42
-0.41421356237309503
10
50.650000000000006
20
-26.337499999999999
10
63.650000000000006
20
-26.337499999999999
42
-0.41421356237309503
10
64.150000000000006
20
-26.837499999999999
10
64.150000000000006
20
-39.837499999999999
42
-0.41421356237309503
10
63.650000000000006
20
-40.337500000000006
10
50.650000000000006
20
-40.337499999999991
42
-0.41421356237309503
0
LWPOLYLINE
5
120
100
AcDbEntity
8
0
100
AcDbPolyline
90
8
70
1
43
0.0
10
183.5
20
-26.837499999999999
42
-0.41421356237309503
10
184.00000000000003
20
-26.337499999999999
10
197.00000000000003
20
-26.337499999999991
42
-0.41421356237309503
10
197.5
20
-26.837499999999999
10
197.50000000000003
20
-39.837499999999999
42
-0.41421356237309503
10
197.00000000000003
20
-40.337500000000006
10
184.00000000000003
20
-40.337500000000013
42
-0.41421356237309503
10
183.5
20
-39.837499999999999
0
LWPOLYLINE
5
121
100
AcDbEntity
8
0
100
AcDbPolyline
90
8
70
1
43
0.0
10
164.95000000000002
20
-40.337500000000013
42
-0.41421356237309503
10
164.44999999999999
20
-39.837499999999999
10
164.44999999999999
20
-26.837499999999999
42
-0.41421356237309503
10
164.95000000000002
20
-26.337499999999999
10
177.94999999999999
20
-26.337499999999991
42
-0.41421356237309503
10
178.44999999999999
20
-26.837499999999999
10
178.44999999999999
20
-39.837499999999999
42
-0.41421356237309503
10
177.94999999999999
20
-40.337500000000006
0
LWPOLYLINE
5
122
100
AcDbEntity
8
0
100
AcDbPolyline
90
8
70
1
43
0.0
10
202.55000000000001
20
-26.837499999999999
42
-0.41421356237309503
10
203.05000000000004
20
-26.337499999999999
10
216.05000000000004
20
-26.337499999999991
42
-0.41421356237309503
10
216.55000000000001
20
-26.837499999999999
10
216.55000000000004
20
-39.837499999999999
42
-0.41421356237309503
10
216.05000000000004
20
-40.337500000000006
10
203.05000000000004
20
-40.337500000000013
42
-0.41421356237309503
10
202.55000000000001
20
-39.837499999999999
0
LWPOLYLINE
5
123
100
AcDbEntity
8
0
100
AcDbPolyline
90
8
70
1
43
0.0
10
235.60000000000002
20
-39.837499999999999
10
235.60000000000002
20
-26.837499999999999
42
0.41421356237309503
10
235.10000000000002
20
-26.337499999999999
10
222.10000000000002
20
-26.337499999999999
42
0.41421356237309503
10
221.59999999999999
20
-26.837499999999999
10
221.59999999999999
20
-39.837499999999999
42
0.41421356237309503
10
222.10000000000002
20
-40.337500000000006
10
235.10000000000002
20
-40.337500000000006
42
0.41421356237309503
0
LWPOLYLINE
5
124
100
AcDbEntity
8
0
100
AcDbPolyline
90
8
70
1
43
0.0
10
330.35000000000002
20
-26.337499999999999
10
317.35000000000002
20
-26.337499999999999
42
0.41421356237309503
10
316.85000000000002
20
-26.837499999999999
10
316.85000000000002
20
-39.837499999999999
42
0.41421356237309503
10
317.35000000000002
20
-40.337500000000006
10
330.35000000000002
20
-40.337500000000006
42
0.41421356237309503
10
330.85000000000002
20
-39.837499999999999
10
330.85000000000002
20
-26.837499999999999
42
0.41421356237309503
0
LWPOLYLINE
5
125
100
AcDbEntity
8
0
100
AcDbPolyline
90
8
70
1
43
0.0
10
297.80000000000001
20
-39.837499999999999
10
297.80000000000001
20
-26.837499999999999
42
-0.41421356237309503
10
298.30000000000001
20
-26.337499999999999
10
311.30000000000001
20
-26.337499999999991
42
-0.41421356237309503
10
311.80000000000001
20
-26.837499999999999
10
311.80000000000001
20
-39.837499999999999
42
-0.41421356237309503
10
311.30000000000001
20
-40.337500000000006
10
298.30000000000001
20
-40.337500000000013
42
-0.41421356237309503
0
LWPOLYLINE
5
126
100
AcDbEntity
8
0
100
AcDbPolyline
90
8
70
1
43
0.0
10
126.06250000000001
20
-58.88750000000001
10
126.06250000000001
20
-45.887500000000003
42
0.41421356237309503
10
125.5625
20
-45.387500000000003
10
112.56250000000001
20
-45.387500000000003
42
0.41421356237309503
10
112.0625
20
-45.887500000000003
10
112.0625
20
-58.88750000000001
42
0.41421356237309503
10
112.56250000000001
20
-59.387500000000003
10
125.5625
20
-59.387500000000003
42
0.41421356237309503
0
LWPOLYLINE
5
127
100
AcDbEntity
8
0
100
AcDbPolyline
90
8
70
1
43
0.0
10
35.862499999999997
20
-58.88750000000001
10
35.862500000000004
20
-45.887500000000003
42
-0.41421356237309503
10
36.362499999999997
20
-45.387500000000003
10
49.362500000000004
20
-45.387500000000003
42
-0.41421356237309503
10
49.862499999999997
20
-45.887500000000003
10
49.862499999999997
20
-58.88750000000001
42
-0.41421356237309503
10
49.362500000000004
20
-59.387500000000003
10
36.362499999999997
20
-59.387500000000003
42
-0.41421356237309503
0
LWPOLYLINE
5
128
100
AcDbEntity
8
0
100
AcDbPolyline
90
8
70
1
43
0.0
10
87.46250000000002
20
-45.387499999999996
42
-0.41421356237309503
10
87.96250000000002
20
-45.887500000000003
10
87.962500000000006
20
-58.88750000000001
42
-0.41421356237309503
10
87.46250000000002
20
-59.387500000000003
10
74.462500000000006
20
-59.387500000000003
42
-0.41421356237309503
10
73.962500000000006
20
-58.88750000000001
10
73.962500000000006
20
-45.887500000000003
42
-0.41421356237309503
10
74.462500000000006
20
-45.387500000000003
0
LWPOLYLINE
5
129
100
AcDbEntity
8
0
100
AcDbPolyline
90
8
70
1
43
0.0
10
131.11250000000001
20
-58.88750000000001
10
131.11250000000001
20
-45.887500000000003
42
-0.41421356237309503
10
131.61250000000001
20
-45.387500000000003
10
144.61250000000001
20
-45.387499999999996
42
-0.41421356237309503
10
145.11250000000001
20
-45.887500000000003
10
145.11250000000001
20
-58.88750000000001
42
-0.41421356237309503
10
144.61250000000001
20
-59.387500000000003
10
131.61250000000001
20
-59.387500000000017
42
-0.41421356237309503
0
LWPOLYLINE
5
130
100
AcDbEntity
8
0
100
AcDbPolyline
90
8
70
1
43
0.0
10
68.412499999999994
20
-45.387500000000003
42
-0.41421356237309503
10
68.912499999999994
20
-45.887500000000003
10
68.912499999999994
20
-58.88750000000001
42
-0.41421356237309503
10
68.412499999999994
20
-59.387500000000003
10
55.412500000000009
20
-59.387500000000003
42
-0.41421356237309503
10
54.912500000000009
20
-58.88750000000001
10
54.912500000000009
20
-45.887500000000003
42
-0.41421356237309503
10
55.412500000000009
20
-45.387500000000003
0
LWPOLYLINE
5
131
100
AcDbEntity
8
0
100
AcDbPolyline
90
8
70
1
43
0.0
10
93.012499999999989
20
-45.887500000000003
42
-0.41421356237309503
10
93.512500000000003
20
-45.387500000000003
10
106.51250000000002
20
-45.387499999999996
42
-0.41421356237309503
10
107.01250000000002
20
-45.887500000000003
10
107.01250000000002
20
-58.88750000000001
42
-0.41421356237309503
10
106.51250000000002
20
-59.387500000000003
10
93.512500000000003
20
-59.387500000000017
42
-0.41421356237309503
10
93.012499999999989
20
-58.88750000000001
0
LWPOLYLINE
5
132
100
AcDbEntity
8
0
100
AcDbPolyline
90
8
70
1
43
0.0
10
183.21250000000003
20
-58.88750000000001
10
183.21250000000003
20
-45.887500000000003
42
0.41421356237309503
10
182.71250000000003
20
-45.387500000000003
10
169.71250000000001
20
-45.387500000000003
42
0.41421356237309503
10
169.21250000000001
20
-45.887500000000003
10
169.21250000000001
20
-58.88750000000001
42
0.41421356237309503
10
169.71250000000001
20
-59.387500000000003
10
182.71250000000003
20
-59.387500000000003
42
0.41421356237309503
0
LWPOLYLINE
5
133
100
AcDbEntity
8
0
100
AcDbPolyline
90
8
70
1
43
0.0
10
163.66250000000002
20
-59.387500000000003
10
150.66249999999999
20
-59.387500000000017
42
-0.41421356237309503
10
150.16249999999999
20
-58.88750000000001
10
150.16249999999999
20
-45.887500000000003
42
-0.41421356237309503
10
150.66249999999999
20
-45.387500000000003
10
163.66250000000002
20
-45.387499999999996
42
-0.41421356237309503
10
164.16250000000002
20
-45.887500000000003
10
164.16250000000002
20
-58.88750000000001
42
-0.41421356237309503
0
LWPOLYLINE
5
134
100
AcDbEntity
8
0
100
AcDbPolyline
90
8
70
1
43
0.0
10
226.36250000000001
20
-45.887500000000003
42
-0.41421356237309503
10
226.86250000000001
20
-45.387500000000003
10
239.86250000000001
20
-45.387499999999996
42
-0.41421356237309503
10
240.36250000000001
20
-45.887500000000003
10
240.36250000000001
20
-58.88750000000001
42
-0.41421356237309503
10
239.86250000000001
20
-59.387500000000003
10
226.86250000000001
20
-59.387500000000017
42
-0.41421356237309503
10
226.36250000000004
20
-58.88750000000001
0
LWPOLYLINE
5
135
100
AcDbEntity
8
0
100
AcDbPolyline
90
8
70
1
43
0.0
10
188.26249999999999
20
-58.88750000000001
10
188.26249999999999
20
-45.887500000000003
42
-0.41421356237309503
10
188.76249999999999
20
-45.387500000000003
10
201.76249999999999
20
-45.387499999999996
42
-0.41421356237309503
10
202.26249999999999
20
-45.887500000000003
10
202.26249999999999
20
-58.88750000000001
42
-0.41421356237309503
10
201.76249999999999
20
-59.387500000000003
10
188.76249999999999
20
-59.387500000000017
42
-0.41421356237309503
0
LWPOLYLINE
5
136
100
AcDbEntity
8
0
100
AcDbPolyline
90
8
70
1
43
0.0
10
220.8125
20
-45.387500000000003
10
207.8125
20
-45.387500000000003
42
0.41421356237309503
10
207.31250000000003
20
-45.887500000000003
10
207.3125
20
-58.88750000000001
42
0.41421356237309503
10
207.8125
20
-59.387500000000003
10
220.8125
20
-59.387500000000003
42
0.41421356237309503
10
221.3125
20
-58.88750000000001
10
221.3125
20
-45.887500000000003
42
0.41421356237309503
0
LWPOLYLINE
5
137
100
AcDbEntity
8
0
100
AcDbPolyline
90
8
70
1
43
0.0
10
317.35000000000002
20
-59.387500000000017
42
-0.41421356237309503
10
316.85000000000002
20
-58.88750000000001
10
316.85000000000002
20
-45.887500000000003
42
-0.41421356237309503
10
317.35000000000002
20
-45.387500000000003
10
330.35000000000002
20
-45.387500000000031
42
-0.41421356237309503
10
330.85000000000002
20
-45.887500000000003
10
330.85000000000002
20
-58.88750000000001
42
-0.41421356237309503
10
330.35000000000002
20
-59.387500000000003
0
LWPOLYLINE
5
138
100
AcDbEntity
8
0
100
AcDbPolyline
90
8
70
1
43
0.0
10
311.80000000000001
20
-58.88750000000001
10
311.80000000000001
20
-45.887500000000003
42
0.41421356237309503
10
311.30000000000001
20
-45.387500000000003
10
298.30000000000001
20
-45.387500000000003
42
0.41421356237309503
10
297.80000000000001
20
-45.887500000000003
10
297.80000000000001
20
-58.88750000000001
42
0.41421356237309503
10
298.30000000000001
20
-59.387500000000003
10
311.30000000000001
20
-59.387500000000003
42
0.41421356237309503
0
LWPOLYLINE
5
139
100
AcDbEntity
8
0
100
AcDbPolyline
90
8
70
1
43
0.0
10
28.431249999999999
20
-77.9375
42
-0.41421356237309503
10
27.931249999999999
20
-78.4375
10
14.93125
20
-78.4375
42
-0.41421356237309503
10
14.431250000000002
20
-77.9375
10
14.431250000000002
20
-64.9375
42
-0.41421356237309503
10
14.93125
20
-64.4375
10
27.931249999999999
20
-64.4375
42
-0.41421356237309503
10
28.431249999999999
20
-64.9375
0
LWPOLYLINE
5
140
100
AcDbEntity
8
0
100
AcDbPolyline
90
8
70
1
43
0.0
10
83.987499999999997
20
-78.437500000000014
42
-0.41421356237309503
10
83.487499999999983
20
-77.9375
10
83.487499999999983
20
-64.9375
42
-0.41421356237309503
10
83.987499999999997
20
-64.4375
10
96.987500000000011
20
-64.4375
42
-0.41421356237309503
10
97.487500000000011
20
-64.9375
10
97.487500000000011
20
-77.9375
42
-0.41421356237309503
10
96.987500000000011
20
-78.4375
0
LWPOLYLINE
5
141
100
AcDbEntity
8
0
100
AcDbPolyline
90
8
70
1
43
0.0
10
45.387500000000003
20
-64.9375
42
-0.41421356237309503
10
45.887500000000003
20
-64.4375
10
58.88750000000001
20
-64.4375
42
-0.41421356237309503
10
59.387500000000003
20
-64.9375
10
59.387500000000003
20
-77.9375
42
-0.41421356237309503
10
58.88750000000001
20
-78.4375
10
45.887500000000003
20
-78.4375
42
-0.41421356237309503
10
45.387500000000003
20
-77.9375
0
LWPOLYLINE
5
142
100
AcDbEntity
8
0
100
AcDbPolyline
90
8
70
1
43
0.0
10
36.869250000000008
20
-79.9375
10
36.869250000000001
20
-65.9375
42
0.41421356237309503
10
36.369250000000001
20
-65.4375
10
30.369250000000001
20
-65.4375
42
0.41421356237309503
10
29.869250000000001
20
-65.9375
10
29.869250000000001
20
-79.9375
42
0.41421356237309503
10
30.369250000000001
20
-80.437500000000014
10
36.369250000000001
20
-80.437500000000014
42
0.41421356237309503
0
LWPOLYLINE
5
143
100
AcDbEntity
8
0
100
AcDbPolyline
90
8
70
1
43
0.0
10
116.03749999999999
20
-64.4375
10
103.03750000000001
20
-64.4375
42
0.41421356237309503
10
102.53749999999999
20
-64.9375
10
102.53749999999999
20
-77.9375
42
0.41421356237309503
10
103.03750000000001
20
-78.4375
10
116.03749999999999
20
-78.4375
42
0.41421356237309503
10
116.53750000000001
20
-77.9375
10
116.53750000000001
20
-64.9375
42
0.41421356237309503
0
LWPOLYLINE
5
144
100
AcDbEntity
8
0
100
AcDbPolyline
90
8
70
1
43
0.0
10
5.9932499999999997
20
-79.9375
10
5.9932500000000024
20
-65.9375
42
-0.41421356237309503
10
6.4932500000000006
20
-65.4375
10
12.49325
20
-65.4375
42
-0.41421356237309503
10
12.99325
20
-65.9375
10
12.993250000000007
20
-79.9375
42
-0.41421356237309503
10
12.49325
20
-80.437500000000014
10
6.4932500000000006
20
-80.437500000000014
42
-0.41421356237309503
0
LWPOLYLINE
5
145
100
AcDbEntity
8
0
100
AcDbPolyline
90
8
70
1
43
0.0
10
77.9375
20
-64.4375
10
64.9375
20
-64.4375
42
0.41421356237309503
10
64.4375
20
-64.9375
10
64.4375
20
-77.9375
42
0.41421356237309503
10
64.9375
20
-78.4375
10
77.9375
20
-78.4375
42
0.41421356237309503
10
78.4375
20
-77.9375
10
78.4375
20
-64.9375
42
0.41421356237309503
0
LWPOLYLINE
5
146
100
AcDbEntity
8
0
100
AcDbPolyline
90
8
70
1
43
0.0
10
159.6875
20
-77.9375
10
159.6875
20
-64.9375
42
-0.41421356237309503
10
160.1875
20
-64.4375
10
173.1875
20
-64.4375
42
-0.41421356237309503
10
173.68750000000003
20
-64.9375
10
173.68750000000003
20
-77.9375
42
-0.41421356237309503
10
173.1875
20
-78.4375
10
160.1875
20
-78.437500000000014
42
-0.41421356237309503
0
LWPOLYLINE
5
147
100
AcDbEntity
8
0
100
AcDbPolyline
90
8
70
1
43
0.0
10
135.08750000000001
20
-64.4375
10
122.08750000000002
20
-64.4375
42
0.41421356237309503
10
121.58750000000001
20
-64.9375
10
121.58750000000001
20
-77.9375
42
0.41421356237309503
10
122.08750000000002
20
-78.4375
10
135.08750000000001
20
-78.4375
42
0.41421356237309503
10
135.58750000000001
20
-77.9375
10
135.58750000000001
20
-64.9375
42
0.41421356237309503
0
LWPOLYLINE
5
148
100
AcDbEntity
8
0
100
AcDbPolyline
90
8
70
1
43
0.0
10
154.13749999999999
20
-78.4375
10
141.13749999999999
20
-78.437500000000014
42
-0.41421356237309503
10
140.63749999999999
20
-77.9375
10
140.63749999999999
20
-64.9375
42
-0.41421356237309503
10
141.13749999999999
20
-64.4375
10
154.13749999999999
20
-64.4375
42
-0.41421356237309503
10
154.63749999999999
20
-64.9375
10
154.63750000000002
20
-77.9375
42
-0.41421356237309503
0
LWPOLYLINE
5
149
100
AcDbEntity
8
0
100
AcDbPolyline
90
8
70
1
43
0.0
10
211.78750000000002
20
-77.9375
10
211.78750000000002
20
-64.9375
42
0.41421356237309503
10
211.28749999999999
20
-64.4375
10
198.28749999999999
20
-64.4375
42
0.41421356237309503
10
197.78750000000002
20
-64.9375
10
197.78749999999999
20
-77.9375
42
0.41421356237309503
10
198.28749999999999
20
-78.4375
10
211.28749999999999
20
-78.4375
42
0.41421356237309503
0
LWPOLYLINE
5
150
100
AcDbEntity
8
0
100
AcDbPolyline
90
8
70
1
43
0.0
10
256.53125
20
-64.4375
10
243.53125000000003
20
-64.4375
42
0.41421356237309503
10
243.03125
20
-64.9375
10
243.03125
20
-77.9375
42
0.41421356237309503
10
243.53125000000003
20
-78.4375
10
256.53125
20
-78.4375
42
0.41421356237309503
10
257.03125
20
-77.9375
10
257.03125000000006
20
-64.9375
42
0.41421356237309503
0
LWPOLYLINE
5
151
100
AcDbEntity
8
0
100
AcDbPolyline
90
8
70
1
43
0.0
10
230.33750000000001
20
-78.4375
10
217.33750000000001
20
-78.437500000000014
42
-0.41421356237309503
10
216.83750000000003
20
-77.9375
10
216.83750000000001
20
-64.9375
42
-0.41421356237309503
10
217.33750000000001
20
-64.4375
10
230.33750000000001
20
-64.4375
42
-0.41421356237309503
10
230.83750000000003
20
-64.9375
10
230.83750000000003
20
-77.9375
42
-0.41421356237309503
0
LWPOLYLINE
5
152
100
AcDbEntity
8
0
100
AcDbPolyline
90
8
70
1
43
0.0
10
239.53125
20
-78.4375
10
239.03125000000003
20
-78.437500000000014
42
-0.41421356237309503
10
238.53125000000003
20
-77.9375
10
238.53125000000003
20
-64.9375
42
-0.41421356237309503
10
239.03125000000003
20
-64.4375
10
239.53125
20
-64.4375
42
-0.41421356237309503
10
240.03125
20
-64.9375
10
240.03125
20
-77.9375
42
-0.41421356237309503
0
LWPOLYLINE
5
153
100
AcDbEntity
8
0
100
AcDbPolyline
90
8
70
1
43
0.0
10
178.73750000000001
20
-77.9375
10
178.73750000000001
20
-64.9375
42
-0.41421356237309503
10
179.23750000000001
20
-64.4375
10
192.23750000000001
20
-64.4375
42
-0.41421356237309503
10
192.73750000000004
20
-64.9375
10
192.73750000000004
20
-77.9375
42
-0.41421356237309503
10
192.23750000000001
20
-78.4375
10
179.23750000000001
20
-78.437500000000014
42
-0.41421356237309503
0
LWPOLYLINE
5
154
100
AcDbEntity
8
0
100
AcDbPolyline
90
8
70
1
43
0.0
10
311.80000000000001
20
-77.9375
10
311.80000000000001
20
-64.9375
42
0.41421356237309503
10
311.30000000000001
20
-64.4375
10
298.30000000000001
20
-64.4375
42
0.41421356237309503
10
297.80000000000001
20
-64.9375
10
297.80000000000001
20
-77.9375
42
0.41421356237309503
10
298.30000000000001
20
-78.4375
10
311.30000000000001
20
-78.4375
42
0.41421356237309503
0
LWPOLYLINE
5
155
100
AcDbEntity
8
0
100
AcDbPolyline
90
8
70
1
43
0.0
10
260.03125
20
-77.9375
10
260.03125
20
-64.9375
42
-0.41421356237309503
10
260.53125
20
-64.4375
10
261.03125
20
-64.4375
42
-0.41421356237309503
10
261.53125
20
-64.9375
10
261.53125
20
-77.9375
42
-0.41421356237309503
10
261.03125
20
-78.4375
10
260.53125
20
-78.437500000000014
42
-0.41421356237309503
0
LWPOLYLINE
5
156
100
AcDbEntity
8
0
100
AcDbPolyline
90
8
70
1
43
0.0
10
330.35000000000002
20
-64.437500000000028
42
-0.41421356237309503
10
330.85000000000002
20
-64.9375
10
330.85000000000002
20
-77.9375
42
-0.41421356237309503
10
330.35000000000002
20
-78.4375
10
317.35000000000002
20
-78.437500000000014
42
-0.41421356237309503
10
316.85000000000002
20
-77.9375
10
316.85000000000002
20
-64.9375
42
-0.41421356237309503
10
317.35000000000002
20
-64.4375
0
LWPOLYLINE
5
157
100
AcDbEntity
8
0
100
AcDbPolyline
90
8
70
1
43
0.0
10
287.48750000000001
20
-69.200000000000003
10
274.48750000000007
20
-69.200000000000003
42
0.41421356237309503
10
273.98750000000001
20
-69.700000000000003
10
273.98750000000001
20
-82.700000000000017
42
0.41421356237309503
10
274.48750000000007
20
-83.200000000000003
10
287.48750000000001
20
-83.200000000000017
42
0.41421356237309503
10
287.98750000000001
20
-82.700000000000017
10
287.98750000000001
20
-69.700000000000003
42
0.41421356237309503
0
LWPOLYLINE
5
158
100
AcDbEntity
8
0
100
AcDbPolyline
90
8
70
1
43
0.0
10
307.03750000000002
20
-101.75
10
307.03750000000002
20
-88.75
42
0.41421356237309503
10
306.53750000000002
20
-88.25
10
293.53750000000002
20
-88.25
42
0.41421356237309503
10
293.03750000000002
20
-88.75
10
293.03750000000002
20
-101.75
42
0.41421356237309503
10
293.53750000000002
20
-102.25000000000001
10
306.53750000000002
20
-102.25000000000001
42
0.41421356237309503
0
LWPOLYLINE
5
159
100
AcDbEntity
8
0
100
AcDbPolyline
90
16
70
1
43
0.0
10
0
20
-5.7624999999868365
10
0
20
-99.012499999999974
42
0.41421356237309503
10
1.0000000000000142
20
-100.01249999999997
10
251.41249999999999
20
-100.01250000000002
42
-0.41421356237310542
10
252.41250000000002
20
-101.0125
10
252.41250000000002
20
-103.77500000000001
42
0.41421356237310542
10
253.41250000000002
20
-104.77499999999999
10
308.5625
20
-104.77499999999999
42
0.41421356237310542
10
309.56250000000006
20
-103.77500000000001
10
309.56250000000006
20
-101.0125
42
-0.41421356237310542
10
310.56250000000006
20
-100.01250000000002
10
370.47500000000008
20
-100.01250000000002
42
0.41421356237309503
10
371.47500000000002
20
-99.012500000000074
10
371.47500000000002
20
-5.7624999999868498
42
0.41421356237309503
10
370.47500000000002
20
-4.7624999999868356
10
0.99999999999999978
20
-4.7624999999868347
42
0.41421356237309503
0
LWPOLYLINE
5
160
100
AcDbEntity
8
0
100
AcDbPolyline
90
8
70
1
43
0.0
10
287.48750000000001
20
-88.25
42
-0.41421356237309503
10
287.98750000000001
20
-88.75
10
287.98750000000001
20
-101.75
42
-0.41421356237309503
10
287.48750000000001
20
-102.25000000000001
10
274.48750000000007
20
-102.25000000000001
42
-0.41421356237309503
10
273.98750000000001
20
-101.75
10
273.98750000000001
20
-88.75
42
-0.41421356237309503
10
274.48750000000007
20
-88.25
0
LWPOLYLINE
5
161
100
AcDbEntity
8
0
100
AcDbPolyline
90
8
70
1
43
0.0
10
254.93750000000003
20
-101.75
10
254.93750000000003
20
-88.75
42
-0.41421356237309503
10
255.43750000000003
20
-88.25
10
268.4375
20
-88.25
42
-0.41421356237309503
10
268.9375
20
-88.75
10
268.9375
20
-101.75
42
-0.41421356237309503
10
268.4375
20
-102.25000000000001
10
255.43750000000003
20
-102.25000000000001
42
-0.41421356237309503
0
LWPOLYLINE
5
162
100
AcDbEntity
8
0
100
AcDbPolyline
90
8
70
1
43
0.0
10
168.92500000000001
20
-20.787500000000001
10
168.92500000000001
20
-7.7875000000000005
42
0.41421356237309503
10
168.42500000000001
20
-7.2874999999999996
10
155.42500000000001
20
-7.2874999999999996
42
0.41421356237309503
10
154.92500000000001
20
-7.7875000000000005
10
154.92500000000001
20
-20.787500000000001
42
0.41421356237309503
10
155.42500000000001
20
-21.287500000000001
10
168.42500000000001
20
-21.287500000000001
42
0.41421356237309503
0
LWPOLYLINE
5
163
100
AcDbEntity
8
0
100
AcDbPolyline
90
8
70
1
43
0.0
10
187.47499999999999
20
-7.2874999999999996
10
174.47500000000002
20
-7.2874999999999996
42
0.41421356237309503
10
173.97500000000002
20
-7.7875000000000005
10
173.97500000000002
20
-20.787500000000001
42
0.41421356237309503
10
174.47500000000002
20
-21.287500000000001
10
187.47499999999999
20
-21.287500000000001
42
0.41421356237309503
10
187.97499999999999
20
-20.787500000000001
10
187.97499999999999
20
-7.7875000000000005
42
0.41421356237309503
0
LWPOLYLINE
5
164
100
AcDbEntity
8
0
100
AcDbPolyline
90
8
70
1
43
0.0
10
330.85000000000002
20
-96.987500000000011
10
330.85000000000002
20
-83.987499999999997
42
0.41421356237309503
10
330.35000000000002
20
-83.487499999999983
10
317.35000000000002
20
-83.487499999999983
42
0.41421356237309503
10
316.85000000000002
20
-83.987499999999997
10
316.85000000000002
20
-96.987500000000011
42
0.41421356237309503
10
317.35000000000002
20
-97.487500000000011
10
330.35000000000002
20
-97.487500000000011
42
0.41421356237309503
0
LWPOLYLINE
5
165
100
AcDbEntity
8
0
100
AcDbPolyline
90
8
70
1
43
0.0
10
111.27500000000001
20
-7.2874999999999934
42
-0.41421356237309503
10
111.77500000000002
20
-7.7875000000000005
10
111.77500000000002
20
-20.787500000000001
42
-0.41421356237309503
10
111.27500000000001
20
-21.287500000000001
10
98.275000000000006
20
-21.287500000000009
42
-0.41421356237309503
10
97.775000000000006
20
-20.787500000000001
10
97.775000000000006
20
-7.7875000000000005
42
-0.41421356237309503
10
98.275000000000006
20
-7.2874999999999996
0
LWPOLYLINE
5
166
100
AcDbEntity
8
0
100
AcDbPolyline
90
8
70
1
43
0.0
10
59.675000000000004
20
-7.7875000000000005
42
-0.41421356237309503
10
60.174999999999997
20
-7.2874999999999996
10
73.174999999999997
20
-7.2875000000000023
42
-0.41421356237309503
10
73.674999999999997
20
-7.7875000000000005
10
73.674999999999997
20
-20.787500000000001
42
-0.41421356237309503
10
73.174999999999997
20
-21.287500000000001
10
60.174999999999997
20
-21.287500000000001
42
-0.41421356237309503
10
59.675000000000004
20
-20.787500000000001
0
LWPOLYLINE
5
167
100
AcDbEntity
8
0
100
AcDbPolyline
90
8
70
1
43
0.0
10
16.024999999999999
20
-7.2874999999999996
10
3.0249999999999999
20
-7.2874999999999996
42
0.41421356237309503
10
2.5249999999999999
20
-7.7875000000000005
10
2.5249999999999999
20
-20.787500000000001
42
0.41421356237309503
10
3.0249999999999999
20
-21.287500000000001
10
16.024999999999999
20
-21.287500000000001
42
0.41421356237309503
10
16.525000000000002
20
-20.787500000000001
10
16.525000000000002
20
-7.7875000000000005
42
0.41421356237309503
0
LWPOLYLINE
5
168
100
AcDbEntity
8
0
100
AcDbPolyline
90
8
70
1
43
0.0
10
41.125
20
-21.287500000000001
42
-0.41421356237309503
10
40.625
20
-20.787500000000001
10
40.625
20
-7.7875000000000005
42
-0.41421356237309503
10
41.125
20
-7.2874999999999996
10
54.125000000000007
20
-7.2875000000000023
42
-0.41421356237309503
10
54.625
20
-7.7875000000000005
10
54.625
20
-20.787500000000001
42
-0.41421356237309503
10
54.125000000000007
20
-21.287500000000001
0
LWPOLYLINE
5
169
100
AcDbEntity
8
0
100
AcDbPolyline
90
8
70
1
43
0.0
10
35.575000000000003
20
-20.787500000000001
42
-0.41421356237309503
10
35.075000000000003
20
-21.287500000000001
10
22.074999999999999
20
-21.287500000000001
42
-0.41421356237309503
10
21.575000000000003
20
-20.787500000000001
10
21.574999999999996
20
-7.7875000000000005
42
-0.41421356237309503
10
22.074999999999999
20
-7.2874999999999996
10
35.075000000000003
20
-7.2875000000000023
42
-0.41421356237309503
10
35.575000000000003
20
-7.7875000000000005
0
LWPOLYLINE
5
170
100
AcDbEntity
8
0
100
AcDbPolyline
90
8
70
1
43
0.0
10
116.82500000000002
20
-20.787500000000001
10
116.82500000000002
20
-7.7875000000000005
42
-0.41421356237309503
10
117.32500000000002
20
-7.2874999999999996
10
130.32499999999999
20
-7.2874999999999934
42
-0.41421356237309503
10
130.82499999999999
20
-7.7875000000000005
10
130.82499999999999
20
-20.787500000000001
42
-0.41421356237309503
10
130.32499999999999
20
-21.287500000000001
10
117.32500000000002
20
-21.287500000000009
42
-0.41421356237309503
0
LWPOLYLINE
5
171
100
AcDbEntity
8
0
100
AcDbPolyline
90
8
70
1
43
0.0
10
92.725000000000009
20
-20.787500000000001
42
-0.41421356237309503
10
92.224999999999994
20
-21.287500000000001
10
79.224999999999994
20
-21.287500000000001
42
-0.41421356237309503
10
78.724999999999994
20
-20.787500000000001
10
78.724999999999994
20
-7.7875000000000005
42
-0.41421356237309503
10
79.224999999999994
20
-7.2874999999999996
10
92.224999999999994
20
-7.2874999999999934
42
-0.41421356237309503
10
92.724999999999994
20
-7.7875000000000005
0
LWPOLYLINE
5
172
100
AcDbEntity
8
0
100
AcDbPolyline
90
8
70
1
43
0.0
10
135.875
20
-20.787500000000001
10
135.875
20
-7.7875000000000005
42
-0.41421356237309503
10
136.375
20
-7.2874999999999996
10
149.375
20
-7.2874999999999934
42
-0.41421356237309503
10
149.875
20
-7.7875000000000005
10
149.875
20
-20.787500000000001
42
-0.41421356237309503
10
149.375
20
-21.287500000000001
10
136.375
20
-21.287500000000009
42
-0.41421356237309503
0
LWPOLYLINE
5
173
100
AcDbEntity
8
0
100
AcDbPolyline
90
23
70
1
43
0.0
10
368.45000000000005
20
-97.487500000000011
10
336.39999999999998
20
-97.487499999999983
42
-0.41421356237309503
10
335.90000000000003
20
-96.987500000000011
10
335.90000000000003
20
-83.987499999999997
42
-0.41421356237309503
10
336.39999999999998
20
-83.487499999999983
10
336.98700000000002
20
-83.487499999999983
10
336.98700000000002
20
-81.987500000000011
42
-0.41421356237309503
10
337.48699999999997
20
-81.487499999999997
10
343.48700000000002
20
-81.487499999999955
42
-0.41421356237309503
10
343.98700000000008
20
-81.987500000000011
10
343.98700000000008
20
-83.487499999999983
10
354.95000000000005
20
-83.487499999999983
10
354.95000000000005
20
-72.524499999999989
10
353.45000000000005
20
-72.524500000000046
42
-0.41421356237309503
10
352.95000000000005
20
-72.024500000000003
10
352.95000000000005
20
-66.024500000000018
42
-0.41421356237309503
10
353.45000000000005
20
-65.524500000000003
10
354.95000000000005
20
-65.524500000000003
10
354.95000000000005
20
-64.9375
42
-0.41421356237309503
10
355.45000000000005
20
-64.4375
10
368.45000000000005
20
-64.437500000000028
42
-0.41421356237309503
10
368.95000000000005
20
-64.9375
10
368.9500000000001
20
-96.987500000000011
42
-0.41421356237309503
0
LWPOLYLINE
5
174
100
AcDbEntity
8
0
100
AcDbPolyline
90
8
70
1
43
0.0
10
349.90000000000003
20
-39.837499999999999
10
349.90000000000003
20
-26.837499999999999
42
0.41421356237309503
10
349.40000000000003
20
-26.337499999999999
10
336.39999999999998
20
-26.337499999999999
42
0.41421356237309503
10
335.90000000000003
20
-26.837499999999999
10
335.90000000000003
20
-39.837499999999999
42
0.41421356237309503
10
336.39999999999998
20
-40.337500000000013
10
349.40000000000003
20
-40.337500000000013
42
0.41421356237309503
0
LWPOLYLINE
5
175
100
AcDbEntity
8
0
100
AcDbPolyline
90
20
70
1
43
0.0
10
353.45000000000005
20
-51.300500000000007
10
354.95000000000005
20
-51.300500000000007
10
354.95000000000005
20
-34.424499999999995
10
353.45000000000005
20
-34.424500000000037
42
-0.41421356237309503
10
352.95000000000005
20
-33.924499999999995
10
352.9500000000001
20
-27.924499999999995
42
-0.41421356237309503
10
353.45000000000005
20
-27.424499999999998
10
354.95000000000005
20
-27.424499999999998
10
354.95000000000005
20
-26.837499999999999
42
-0.41421356237309503
10
355.45000000000005
20
-26.337499999999999
10
368.45000000000005
20
-26.337500000000027
42
-0.41421356237309503
10
368.95000000000005
20
-26.837499999999999
10
368.9500000000001
20
-58.887500000000003
42
-0.41421356237309503
10
368.45000000000005
20
-59.387500000000003
10
355.45000000000005
20
-59.387499999999974
42
-0.41421356237309503
10
354.95000000000005
20
-58.887500000000003
10
354.95000000000005
20
-58.3005
10
353.45000000000005
20
-58.300500000000056
42
-0.41421356237309503
10
352.95000000000005
20
-57.800500000000014
10
352.9500000000001
20
-51.8005
42
-0.41421356237309503
0
LWPOLYLINE
5
176
100
AcDbEntity
8
0
100
AcDbPolyline
90
8
70
1
43
0.0
10
335.90000000000003
20
-77.9375
10
335.90000000000003
20
-64.9375
42
-0.41421356237309503
10
336.39999999999998
20
-64.4375
10
349.40000000000003
20
-64.437500000000028
42
-0.41421356237309503
10
349.90000000000003
20
-64.9375
10
349.90000000000009
20
-77.9375
42
-0.41421356237309503
10
349.40000000000003
20
-78.4375
10
336.39999999999998
20
-78.437499999999972
42
-0.41421356237309503
0
LWPOLYLINE
5
177
100
AcDbEntity
8
0
100
AcDbPolyline
90
8
70
1
43
0.0
10
349.40000000000003
20
-45.387500000000003
10
336.39999999999998
20
-45.387500000000003
42
0.41421356237309503
10
335.90000000000003
20
-45.887499999999989
10
335.90000000000003
20
-58.887500000000003
42
0.41421356237309503
10
336.39999999999998
20
-59.387500000000003
10
349.40000000000003
20
-59.387500000000003
42
0.41421356237309503
10
349.90000000000003
20
-58.887500000000003
10
349.90000000000003
20
-45.887499999999989
42
0.41421356237309503
0
LWPOLYLINE
5
178
100
AcDbEntity
8
0
100
AcDbPolyline
90
26
70
1
43
0.0
10
148.86824999999993
20
-81.987500000000011
42
-0.41421356237309503
10
149.36824999999996
20
-81.487499999999997
10
160.19424999999995
20
-81.487499999999997
42
-0.41421356237309503
10
160.69424999999995
20
-81.987500000000011
10
160.69424999999995
20
-83.487499999999983
10
170.80624999999995
20
-83.487500000000026
42
-0.41421356237309503
10
171.30624999999992
20
-83.987499999999997
10
171.30624999999995
20
-96.987500000000011
42
-0.41421356237309503
10
170.80624999999995
20
-97.487499999999997
10
157.80624999999992
20
-97.487500000000011
42
-0.41421356237309503
10
157.30624999999992
20
-96.987500000000011
10
157.30624999999992
20
-96.487499999999997
10
152.25624999999991
20
-96.487499999999997
10
152.25624999999991
20
-96.987500000000011
42
-0.41421356237309503
10
151.75624999999994
20
-97.487499999999997
10
117.32499999999995
20
-97.487500000000011
42
-0.41421356237309503
10
116.82499999999993
20
-96.987500000000011
10
116.82499999999993
20
-83.987499999999997
42
-0.41421356237309503
10
117.32499999999995
20
-83.487499999999983
10
129.81824999999992
20
-83.487499999999983
10
129.81824999999992
20
-81.987500000000011
42
-0.41421356237309503
10
130.31824999999995
20
-81.487499999999997
10
136.31824999999992
20
-81.487499999999997
42
-0.41421356237309503
10
136.81824999999992
20
-81.987500000000011
10
136.81824999999992
20
-83.487499999999983
10
148.86824999999993
20
-83.487499999999983
0
LWPOLYLINE
5
179
100
AcDbEntity
8
0
100
AcDbPolyline
90
9
70
1
43
0.0
10
244.62499999999994
20
-97.487500000000011
10
193.52499999999992
20
-97.487500000000011
42
-0.41421356237309503
10
193.02499999999992
20
-96.987500000000011
10
193.02499999999992
20
-83.987499999999997
42
-0.41421356237309503
10
193.52499999999992
20
-83.487499999999983
10
206.52499999999992
20
-83.487500000000026
10
244.62499999999994
20
-83.487500000000026
42
-0.41421356237309503
10
245.12499999999991
20
-83.987499999999997
10
245.12499999999994
20
-96.987500000000011
42
-0.41421356237309503
0
LWPOLYLINE
5
180
100
AcDbEntity
8
0
100
AcDbPolyline
90
8
70
1
43
0.0
10
20.78749999999993
20
-83.487499999999983
10
5.4062499999999236
20
-83.487499999999983
42
0.41421356237309503
10
4.9062499999999165
20
-83.987499999999997
10
4.9062499999999165
20
-96.987500000000011
42
0.41421356237309503
10
5.4062499999999236
20
-97.487499999999997
10
20.78749999999993
20
-97.487500000000011
42
0.41421356237309503
10
21.287499999999937
20
-96.987500000000011
10
21.287499999999937
20
-83.987499999999997
42
0.41421356237309503
0
LWPOLYLINE
5
181
100
AcDbEntity
8
0
100
AcDbPolyline
90
20
70
1
43
0.0
10
113.06924999999991
20
-95.987500000000011
42
-0.41421356237309503
10
112.56924999999993
20
-96.487499999999997
10
104.63124999999991
20
-96.487499999999997
10
104.63124999999989
20
-96.987500000000011
42
-0.41421356237309503
10
104.13124999999991
20
-97.487499999999997
10
86.36874999999992
20
-97.487500000000011
42
-0.41421356237309503
10
85.86874999999992
20
-96.987500000000011
10
85.86874999999992
20
-96.487499999999997
10
77.930749999999961
20
-96.487500000000011
42
-0.41421356237309503
10
77.430749999999946
20
-95.987500000000011
10
77.430749999999946
20
-81.987500000000011
42
-0.41421356237309503
10
77.930749999999961
20
-81.487499999999997
10
88.693249999999921
20
-81.487499999999997
42
-0.41421356237309503
10
89.193249999999935
20
-81.987500000000011
10
89.193249999999935
20
-83.487499999999983
10
101.30674999999989
20
-83.487499999999983
10
101.30674999999989
20
-81.987500000000011
42
-0.41421356237309503
10
101.80674999999991
20
-81.487499999999997
10
112.56134466882331
20
-81.487500000001177
42
-0.35292189199768442
10
113.06924999999993
20
-81.996135649785373
0
LWPOLYLINE
5
182
100
AcDbEntity
8
0
100
AcDbPolyline
90
8
70
1
43
0.0
10
49.362499999999933
20
-83.487499999999983
42
-0.41421356237309503
10
49.86249999999994
20
-83.987499999999997
10
49.86249999999994
20
-96.987500000000011
42
-0.41421356237309503
10
49.362499999999933
20
-97.487500000000011
10
29.218749999999922
20
-97.487500000000011
42
-0.41421356237309503
10
28.718749999999915
20
-96.987500000000011
10
28.718749999999915
20
-83.987499999999997
42
-0.41421356237309503
10
29.218749999999922
20
-83.487499999999983
0
LWPOLYLINE
5
183
100
AcDbEntity
8
0
100
AcDbPolyline
90
14
70
1
43
0.0
10
52.531249999999929
20
-96.987500000000011
10
52.531249999999908
20
-83.987499999999997
42
-0.41421356237309503
10
53.031249999999915
20
-83.487499999999983
10
63.174999999999926
20
-83.487499999999983
10
63.174999999999926
20
-81.987500000000011
42
-0.41421356237309503
10
63.674999999999933
20
-81.487499999999997
10
69.674999999999926
20
-81.487499999999997
42
-0.41421356237309503
10
70.17499999999994
20
-81.987500000000011
10
70.17499999999994
20
-83.487499999999983
10
70.793749999999946
20
-83.487499999999983
42
-0.41421356237309503
10
71.293749999999946
20
-83.987499999999997
10
71.293749999999932
20
-96.987500000000011
42
-0.41421356237309503
10
70.793749999999946
20
-97.487499999999997
10
53.031249999999915
20
-97.487499999999997
42
-0.41421356237309503
0
LWPOLYLINE
5
184
100
AcDbEntity
8
0
100
AcDbPolyline
90
14
70
1
43
0.0
10
187.97499999999991
20
-83.987499999999997
10
187.97499999999991
20
-96.987500000000011
42
-0.41421356237309503
10
187.47499999999991
20
-97.487499999999997
10
174.47499999999991
20
-97.487500000000011
42
-0.41421356237309503
10
173.97499999999991
20
-96.987500000000011
10
173.97499999999991
20
-96.487499999999997
10
173.24424999999991
20
-96.487500000000011
42
-0.4399022395335293
10
172.74613686854664
20
-95.944102900168019
10
172.74613686854664
20
-81.944102900168019
42
-0.38898318586400699
10
173.24424999999991
20
-81.487499999999997
10
183.96874999999994
20
-81.487499999999997
42
-0.41421356237309503
10
184.46874999999994
20
-81.987500000000011
10
184.46874999999994
20
-83.487499999999983
10
187.47499999999991
20
-83.487499999999983
42
-0.41421356237309503
0
LWPOLYLINE
5
185
100
AcDbEntity
8
0
100
AcDbPolyline
90
8
70
1
43
0.0
10
2.787499999999925
20
-83.987499999999997
42
-0.41421356237309503
10
3.2874999999999321
20
-83.487499999999983
10
3.7874999999999215
20
-83.487499999999983
42
-0.41421356237309503
10
4.2874999999999286
20
-83.987499999999997
10
4.2874999999999286
20
-96.987499999999983
42
-0.41421356237309503
10
3.7874999999999215
20
-97.487499999999997
10
3.2874999999999321
20
-97.487499999999997
42
-0.41421356237309503
10
2.787499999999925
20
-96.987499999999983
0
LWPOLYLINE
5
186
100
AcDbEntity
8
0
100
AcDbPolyline
90
8
70
1
43
0.0
10
25.78749999999993
20
-96.987500000000011
42
-0.41421356237309503
10
25.287499999999923
20
-97.487500000000011
10
24.787499999999937
20
-97.487500000000011
42
-0.41421356237309503
10
24.28749999999993
20
-96.987500000000011
10
24.28749999999993
20
-83.987499999999997
42
-0.41421356237309503
10
24.787499999999937
20
-83.487499999999983
10
25.287499999999923
20
-83.487499999999983
42
-0.41421356237309503
10
25.78749999999993
20
-83.987499999999997
0
LWPOLYLINE
5
187
100
AcDbEntity
8
0
100
AcDbPolyline
90
42
70
1
43
0.0
10
278.46250000000003
20
-27.424499999999998
10
279.34375
20
-27.424499999999952
42
-0.41421356237309503
10
279.84375000000006
20
-27.924499999999995
10
279.84375
20
-33.924499999999995
42
-0.41421356237309503
10
279.34375
20
-34.424499999999995
10
278.46250000000003
20
-34.424499999999995
10
278.46250000000003
20
-35.862500000000004
10
280.34375
20
-35.862499999999955
42
-0.41421356237309503
10
280.84375000000006
20
-36.362499999999997
10
280.84375
20
-49.362499999999997
42
-0.41421356237309503
10
280.34375
20
-49.862499999999997
10
279.75675000000001
20
-49.862499999999997
10
279.75675000000001
20
-51.518664941854261
42
-0.15083409114177876
10
279.84375000000006
20
-51.8005
10
279.84375
20
-57.800500000000014
42
-0.15083409114183668
10
279.7567499999999
20
-58.082335058145809
10
279.75674999999995
20
-60.88750000000001
42
-0.41421356237309503
10
279.25674999999995
20
-61.387500000000003
10
273.25675000000001
20
-61.387500000000053
42
-0.41421356237309503
10
272.75674999999995
20
-60.88750000000001
10
272.75674999999995
20
-58.3005
10
271.31874999999997
20
-58.3005
10
271.31875000000002
20
-58.887500000000003
42
-0.41421356237309503
10
270.81875000000002
20
-59.387500000000003
10
255.88075000000001
20
-59.387500000000003
10
255.88075000000003
20
-60.88750000000001
42
-0.41421356237309503
10
255.38075000000003
20
-61.387500000000003
10
249.38075000000001
20
-61.387500000000053
42
-0.41421356237309503
10
248.88074999999998
20
-60.88750000000001
10
248.88074999999998
20
-59.387500000000003
10
245.91249999999999
20
-59.387499999999974
42
-0.41421356237309503
10
245.41250000000002
20
-58.887500000000003
10
245.41249999999997
20
-45.887499999999989
42
-0.41421356237309503
10
245.91249999999999
20
-45.387500000000003
10
266.84375
20
-45.387500000000003
10
266.84375000000006
20
-40.337500000000006
10
264.96249999999998
20
-40.337499999999977
42
-0.41421356237309503
10
264.46250000000003
20
-39.837499999999999
10
264.46249999999998
20
-26.837499999999999
42
-0.41421356237309503
10
264.96249999999998
20
-26.337499999999999
10
277.96249999999998
20
-26.337499999999956
42
-0.41421356237309503
10
278.46250000000003
20
-26.837499999999999
0
LWPOLYLINE
5
188
100
AcDbEntity
8
0
100
AcDbPolyline
90
8
70
1
43
0.0
10
282.96249999999998
20
-39.837499999999999
10
282.96249999999998
20
-26.837499999999999
42
0.41421356237309503
10
282.46249999999998
20
-26.337499999999999
10
281.96250000000003
20
-26.337499999999999
42
0.41421356237309503
10
281.46250000000003
20
-26.837499999999999
10
281.46250000000003
20
-39.837499999999999
42
0.41421356237309503
10
281.96250000000003
20
-40.337499999999991
10
282.46249999999998
20
-40.337500000000006
42
0.41421356237309503
0
LWPOLYLINE
5
189
100
AcDbEntity
8
0
100
AcDbPolyline
90
8
70
1
43
0.0
10
261.46249999999998
20
-39.837499999999999
10
261.46249999999998
20
-26.837499999999999
42
0.41421356237309503
10
260.96250000000003
20
-26.337499999999999
10
260.46249999999998
20
-26.337499999999999
42
0.41421356237309503
10
259.96249999999998
20
-26.837499999999999
10
259.96249999999998
20
-39.837499999999999
42
0.41421356237309503
10
260.46249999999998
20
-40.337500000000006
10
260.96250000000003
20
-40.337500000000006
42
0.41421356237309503
0
LWPOLYLINE
5
190
100
AcDbEntity
8
0
100
AcDbPolyline
90
8
70
1
43
0.0
10
254.15000000000003
20
-26.337500000000027
42
-0.41421356237309503
10
254.65000000000001
20
-26.837499999999999
10
254.65000000000003
20
-39.837499999999999
42
-0.41421356237309503
10
254.15000000000003
20
-40.337499999999991
10
241.14999999999998
20
-40.337499999999977
42
-0.41421356237309503
10
240.65000000000001
20
-39.837499999999999
10
240.64999999999998
20
-26.837499999999999
42
-0.41421356237309503
10
241.14999999999998
20
-26.337499999999999
0
LWPOLYLINE
5
191
100
AcDbEntity
8
0
100
AcDbPolyline
90
8
70
1
43
0.0
10
23.13360269355374
20
-45.387615677896122
10
5.371099246562677
20
-45.387615677896122
42
0.41008324951904318
10
4.9059999999999997
20
-45.887500855314833
10
4.9059999999999997
20
-58.887499150431566
42
0.41008620502007292
10
5.3711042209051651
20
-59.387384320768383
10
23.133597989644144
20
-59.387384320768383
42
0.41825025040479474
10
23.668500000000027
20
-58.887500520428297
10
23.668500000000027
20
-45.887499484002419
42
0.41824754608171866
0
LWPOLYLINE
5
192
100
AcDbEntity
8
0
100
AcDbPolyline
90
8
70
1
43
0.0
10
28.168500000000016
20
-58.887500520428297
42
-0.41825025040479485
10
27.633597989644137
20
-59.387384320768376
10
27.133604220905166
20
-59.387384320768376
42
-0.41008620502007082
10
26.668500000000009
20
-58.887499150431566
10
26.668499999999987
20
-45.887500855314833
42
-0.41008324951904646
10
27.133599246562675
20
-45.387615677896122
10
27.633602693553733
20
-45.387615677896108
42
-0.4182475460817161
10
28.168500000000016
20
-45.887499484002419
0
ENDSEC
0
SECTION
2
OBJECTS
0
DICTIONARY
5
C
100
AcDbDictionary
3
ACAD_GROUP
350
D
3
ACAD_MLINESTYLE
350
17
0
DICTIONARY
5
D
100
AcDbDictionary
0
DICTIONARY
5
1A
330
C
100
AcDbDictionary
0
DICTIONARY
5
17
100
AcDbDictionary
0
ENDSEC
0
EOF
