0
SECTION
2
HEADER
9
$INSUNITS
70
4
9
$ACADVER
1
AC1014
9
$HANDSEED
5
FFFF
0
ENDSEC
0
SECTION
2
TABLES
0
TABLE
2
VPORT
5
8
100
AcDbSymbolTable
0
ENDTAB
0
TABLE
2
LTYPE
5
5
100
AcDbSymbolTable
0
LTYPE
5
14
100
AcDbSymbolTableRecord
100
AcDbLinetypeTableRecord
2
BYBLOCK
70
0
0
LTYPE
5
15
100
AcDbSymbolTableRecord
100
AcDbLinetypeTableRecord
2
BYLAYER
70
0
0
ENDTAB
0
TABLE
2
LAYER
5
2
100
AcDbSymbolTable
70
2
0
LAYER
5
50
100
AcDbSymbolTableRecord
100
AcDbLayerTableRecord
2
0
70
0
6
CONTINUOUS
0
ENDTAB
0
TABLE
2
STYLE
5
3
100
AcDbSymbolTable
70
1
0
STYLE
5
11
100
AcDbSymbolTableRecord
100
AcDbTextStyleTableRecord
2
STANDARD
70
0
0
ENDTAB
0
TABLE
2
VIEW
5
6
100
AcDbSymbolTable
70
0
0
ENDTAB
0
TABLE
2
UCS
5
7
100
AcDbSymbolTable
70
0
0
ENDTAB
0
TABLE
2
APPID
5
9
100
AcDbSymbolTable
70
2
0
APPID
5
12
100
AcDbSymbolTableRecord
100
AcDbRegAppTableRecord
2
ACAD
70
0
0
ENDTAB
0
TABLE
2
DIMSTYLE
5
A
100
AcDbSymbolTable
70
1
0
ENDTAB
0
TABLE
2
BLOCK_RECORD
5
1
100
AcDbSymbolTable
70
1
0
BLOCK_RECORD
5
1F
100
AcDbSymbolTableRecord
100
AcDbBlockTableRecord
2
*MODEL_SPACE
0
BLOCK_RECORD
5
1B
100
AcDbSymbolTableRecord
100
AcDbBlockTableRecord
2
*PAPER_SPACE
0
ENDTAB
0
ENDSEC
0
SECTION
2
BLOCKS
0
BLOCK
5
20
100
AcDbEntity
100
AcDbBlockBegin
2
*MODEL_SPACE
0
ENDBLK
5
21
100
AcDbEntity
100
AcDbBlockEnd
0
BLOCK
5
1C
100
AcDbEntity
100
AcDbBlockBegin
2
*PAPER_SPACE
0
ENDBLK
5
1D
100
AcDbEntity
100
AcDbBlockEnd
0
ENDSEC
0
SECTION
2
ENTITIES
0
LWPOLYLINE
5
100
100
AcDbEntity
8
0
100
AcDbPolyline
90
8
70
1
43
0.0
10
287.48750000000001
20
-2.5249999999999999
10
274.48750000000001
20
-2.5249999999999999
42
0.41421356237309503
10
273.98750000000001
20
-3.0249999999999999
10
273.98750000000001
20
-16.024999999999999
42
0.41421356237309503
10
274.48750000000001
20
-16.525000000000002
10
287.48750000000001
20
-16.525000000000002
42
0.41421356237309503
10
287.98750000000001
20
-16.024999999999999
10
287.98750000000001
20
-3.025000000000007
42
0.41421356237309503
0
LWPOLYLINE
5
101
100
AcDbEntity
8
0
100
AcDbPolyline
90
8
70
1
43
0.0
10
22.074999999999999
20
-35.575000000000003
42
-0.41421356237309503
10
21.575000000000003
20
-35.075000000000003
10
21.575000000000003
20
-22.074999999999999
42
-0.41421356237309503
10
22.074999999999999
20
-21.575000000000003
10
35.075000000000003
20
-21.575000000000003
42
-0.41421356237309503
10
35.575000000000003
20
-22.074999999999999
10
35.575000000000003
20
-35.075000000000003
42
-0.41421356237309503
10
35.075000000000003
20
-35.575000000000003
0
LWPOLYLINE
5
102
100
AcDbEntity
8
0
100
AcDbPolyline
90
8
70
1
43
0.0
10
332.72449999999998
20
-18.52499999999997
42
-0.41421356237309503
10
332.22450000000003
20
-18.024999999999999
10
332.22449999999992
20
-4.0250000000000004
42
-0.41421356237309503
10
332.72449999999992
20
-3.5250000000000008
10
338.72450000000003
20
-3.5250000000000292
42
-0.41421356237309503
10
339.22449999999998
20
-4.0250000000000004
10
339.22449999999998
20
-18.024999999999999
42
-0.41421356237309503
10
338.72450000000003
20
-18.524999999999999
0
LWPOLYLINE
5
103
100
AcDbEntity
8
0
100
AcDbPolyline
90
20
70
1
43
0.0
10
16.024999999999999
20
-21.574999999999996
42
-0.41421356237309503
10
16.525000000000002
20
-22.074999999999999
10
16.525000000000002
20
-22.661999999999999
10
18.024999999999999
20
-22.661999999999995
42
-0.41421356237309503
10
18.524999999999999
20
-23.161999999999999
10
18.524999999999999
20
-29.161999999999999
42
-0.41421356237309503
10
18.024999999999999
20
-29.662000000000003
10
16.525000000000002
20
-29.662000000000003
10
16.525000000000002
20
-46.538000000000004
10
18.024999999999999
20
-46.538000000000004
42
-0.41421356237309503
10
18.524999999999999
20
-47.038000000000004
10
18.524999999999999
20
-53.038000000000011
42
-0.41421356237309503
10
18.024999999999999
20
-53.538000000000004
10
16.525000000000002
20
-53.538000000000004
10
16.524999999999999
20
-54.125000000000007
42
-0.41421356237309503
10
16.024999999999999
20
-54.625
10
3.0249999999999999
20
-54.625
42
-0.41421356237309503
10
2.5249999999999999
20
-54.125000000000007
10
2.5250000000000017
20
-22.074999999999999
42
-0.41421356237309503
10
3.0249999999999999
20
-21.575000000000003
0
LWPOLYLINE
5
104
100
AcDbEntity
8
0
100
AcDbPolyline
90
8
70
1
43
0.0
10
40.625
20
-35.075000000000003
10
40.625
20
-22.074999999999999
42
-0.41421356237309503
10
41.125
20
-21.575000000000003
10
54.125000000000007
20
-21.575000000000003
42
-0.41421356237309503
10
54.625
20
-22.074999999999999
10
54.625
20
-35.075000000000003
42
-0.41421356237309503
10
54.125000000000007
20
-35.575000000000003
10
41.125
20
-35.575000000000003
42
-0.41421356237309503
0
LWPOLYLINE
5
105
100
AcDbEntity
8
0
100
AcDbPolyline
90
8
70
1
43
0.0
10
363.10050000000001
20
-18.024999999999999
42
-0.41421356237309503
10
362.60050000000007
20
-18.524999999999999
10
356.60050000000007
20
-18.52499999999997
42
-0.41421356237309503
10
356.10050000000007
20
-18.024999999999999
10
356.10050000000007
20
-4.0250000000000004
42
-0.41421356237309503
10
356.60050000000007
20
-3.5250000000000008
10
362.60050000000007
20
-3.5250000000000292
42
-0.41421356237309503
10
363.10050000000001
20
-4.0250000000000004
0
LWPOLYLINE
5
106
100
AcDbEntity
8
0
100
AcDbPolyline
90
8
70
1
43
0.0
10
306.53750000000002
20
-16.524999999999999
10
293.53750000000002
20
-16.524999999999999
42
-0.41421356237309503
10
293.03750000000002
20
-16.024999999999991
10
293.03750000000002
20
-3.0249999999999999
42
-0.41421356237309503
10
293.53750000000002
20
-2.5249999999999999
10
306.53750000000002
20
-2.5249999999999928
42
-0.41421356237309503
10
307.03750000000002
20
-3.0249999999999999
10
307.03750000000002
20
-16.024999999999999
42
-0.41421356237309503
0
LWPOLYLINE
5
107
100
AcDbEntity
8
0
100
AcDbPolyline
90
8
70
1
43
0.0
10
325.58750000000003
20
-2.5250000000000283
42
-0.41421356237309503
10
326.08749999999998
20
-3.0249999999999999
10
326.08749999999998
20
-16.024999999999999
42
-0.41421356237309503
10
325.58750000000003
20
-16.525000000000002
10
312.58750000000003
20
-16.525000000000006
42
-0.41421356237309503
10
312.08750000000003
20
-16.024999999999999
10
312.08750000000003
20
-3.0249999999999999
42
-0.41421356237309503
10
312.58750000000003
20
-2.5249999999999999
0
LWPOLYLINE
5
108
100
AcDbEntity
8
0
100
AcDbPolyline
90
8
70
1
43
0.0
10
230.33750000000001
20
-16.524999999999999
10
217.33750000000001
20
-16.524999999999999
42
-0.41421356237309503
10
216.83750000000001
20
-16.024999999999991
10
216.83750000000001
20
-3.0249999999999999
42
-0.41421356237309503
10
217.33750000000001
20
-2.5249999999999999
10
230.33750000000001
20
-2.5249999999999928
42
-0.41421356237309503
10
230.83750000000003
20
-3.0249999999999999
10
230.83750000000003
20
-16.024999999999999
42
-0.41421356237309503
0
LWPOLYLINE
5
109
100
AcDbEntity
8
0
100
AcDbPolyline
90
8
70
1
43
0.0
10
382.73750000000001
20
-16.524999999999999
10
369.73750000000001
20
-16.524999999999999
42
-0.41421356237309503
10
369.23750000000007
20
-16.025000000000027
10
369.23750000000007
20
-3.0249999999999999
42
-0.41421356237309503
10
369.73750000000001
20
-2.5249999999999999
10
382.73750000000001
20
-2.5250000000000283
42
-0.41421356237309503
10
383.23749999999995
20
-3.0249999999999999
10
383.23749999999995
20
-16.024999999999999
42
-0.41421356237309503
0
LWPOLYLINE
5
110
100
AcDbEntity
8
0
100
AcDbPolyline
90
8
70
1
43
0.0
10
340.66250000000002
20
-16.024999999999999
10
340.66250000000002
20
-3.0249999999999999
42
-0.41421356237309503
10
341.16250000000002
20
-2.5249999999999999
10
354.16250000000002
20
-2.5249999999999999
42
-0.41421356237309503
10
354.66250000000002
20
-3.024999999999971
10
354.66250000000002
20
-16.024999999999999
42
-0.41421356237309503
10
354.16250000000002
20
-16.524999999999999
10
341.16250000000002
20
-16.52499999999997
42
-0.41421356237309503
0
LWPOLYLINE
5
111
100
AcDbEntity
8
0
100
AcDbPolyline
90
8
70
1
43
0.0
10
249.88750000000005
20
-16.024999999999999
10
249.88750000000005
20
-3.0249999999999999
42
0.41421356237309503
10
249.38750000000002
20
-2.5249999999999928
10
236.38750000000002
20
-2.5249999999999999
42
0.41421356237309503
10
235.88750000000002
20
-3.0249999999999999
10
235.88750000000002
20
-16.024999999999991
42
0.41421356237309503
10
236.38750000000002
20
-16.524999999999999
10
249.38750000000002
20
-16.525000000000002
42
0.41421356237309503
0
LWPOLYLINE
5
112
100
AcDbEntity
8
0
100
AcDbPolyline
90
8
70
1
43
0.0
10
254.9375
20
-3.0249999999999999
42
-0.41421356237309503
10
255.4375
20
-2.5249999999999999
10
268.4375
20
-2.5249999999999928
42
-0.41421356237309503
10
268.9375
20
-3.0249999999999999
10
268.9375
20
-16.024999999999999
42
-0.41421356237309503
10
268.4375
20
-16.525000000000002
10
255.4375
20
-16.525000000000006
42
-0.41421356237309503
10
254.9375
20
-16.024999999999999
0
LWPOLYLINE
5
113
100
AcDbEntity
8
0
100
AcDbPolyline
90
9
70
1
43
0.0
10
326.08749999999998
20
-92.224999999999994
42
-0.41421356237309503
10
325.58750000000003
20
-92.725000000000009
10
274.48750000000001
20
-92.725000000000009
42
-0.41421356237309503
10
273.98750000000001
20
-92.224999999999994
10
273.98750000000001
20
-79.224999999999994
42
-0.41421356237309503
10
274.48750000000001
20
-78.724999999999994
10
287.48750000000001
20
-78.725000000000009
10
325.58750000000003
20
-78.725000000000023
42
-0.41421356237309503
10
326.08749999999998
20
-79.224999999999994
0
LWPOLYLINE
5
114
100
AcDbEntity
8
0
100
AcDbPolyline
90
8
70
1
43
0.0
10
102.25000000000001
20
-92.224999999999994
42
-0.41421356237309503
10
101.75
20
-92.725000000000009
10
86.368750000000006
20
-92.725000000000009
42
-0.41421356237309503
10
85.868749999999991
20
-92.224999999999994
10
85.868749999999991
20
-79.224999999999994
42
-0.41421356237309503
10
86.368750000000006
20
-78.724999999999994
10
101.75
20
-78.724999999999994
42
-0.41421356237309503
10
102.25000000000001
20
-79.224999999999994
0
LWPOLYLINE
5
115
100
AcDbEntity
8
0
100
AcDbPolyline
90
8
70
1
43
0.0
10
130.82500000000002
20
-92.224999999999994
10
130.82500000000002
20
-79.224999999999994
42
0.41421356237309503
10
130.32500000000002
20
-78.724999999999994
10
110.18124999999999
20
-78.724999999999994
42
0.41421356237309503
10
109.68125000000001
20
-79.224999999999994
10
109.68124999999999
20
-92.224999999999994
42
0.41421356237309503
10
110.18124999999999
20
-92.725000000000009
10
130.32500000000002
20
-92.725000000000009
42
0.41421356237309503
0
LWPOLYLINE
5
116
100
AcDbEntity
8
0
100
AcDbPolyline
90
8
70
1
43
0.0
10
106.75
20
-92.224999999999994
42
-0.41421356237309503
10
106.25
20
-92.725000000000009
10
105.75000000000001
20
-92.725000000000009
42
-0.41421356237309503
10
105.25
20
-92.224999999999994
10
105.25000000000003
20
-79.224999999999994
42
-0.41421356237309503
10
105.75000000000001
20
-78.724999999999994
10
106.25
20
-78.724999999999994
42
-0.41421356237309503
10
106.75
20
-79.224999999999994
0
LWPOLYLINE
5
117
100
AcDbEntity
8
0
100
AcDbPolyline
90
20
70
1
43
0.0
10
158.39325000000002
20
-77.225000000000009
42
-0.41421356237309503
10
158.89325000000002
20
-76.725000000000009
10
169.65575000000001
20
-76.724999999999994
42
-0.41421356237309503
10
170.15575000000001
20
-77.224999999999994
10
170.15575000000001
20
-78.724999999999994
10
182.26924999999997
20
-78.724999999999994
10
182.26924999999997
20
-77.224999999999994
42
-0.41421356237309503
10
182.76925
20
-76.725000000000009
10
193.52384466882339
20
-76.72500000000116
42
-0.35292189199768875
10
194.03175000000002
20
-77.233635649785384
10
194.03174999999999
20
-91.225000000000009
42
-0.41421356237309503
10
193.53174999999999
20
-91.724999999999994
10
185.59375
20
-91.724999999999994
10
185.59374999999994
20
-92.224999999999994
42
-0.41421356237309503
10
185.09375
20
-92.724999999999994
10
167.33125000000001
20
-92.725000000000009
42
-0.41421356237309503
10
166.83125000000001
20
-92.224999999999994
10
166.83125000000001
20
-91.724999999999994
10
158.89325000000002
20
-91.725000000000009
42
-0.41421356237309503
10
158.39325000000002
20
-91.225000000000009
0
LWPOLYLINE
5
118
100
AcDbEntity
8
0
100
AcDbPolyline
90
14
70
1
43
0.0
10
264.93125000000003
20
-76.724999999999994
42
-0.41421356237309503
10
265.43125000000003
20
-77.224999999999994
10
265.43125000000003
20
-78.724999999999994
10
268.4375
20
-78.724999999999994
42
-0.41421356237309503
10
268.9375
20
-79.224999999999994
10
268.9375
20
-92.224999999999994
42
-0.41421356237309503
10
268.4375
20
-92.724999999999994
10
255.4375
20
-92.725000000000009
42
-0.41421356237309503
10
254.9375
20
-92.224999999999994
10
254.9375
20
-91.724999999999994
10
254.20675
20
-91.725000000000009
42
-0.4399022395335293
10
253.70863686854673
20
-91.181602900168016
10
253.70863686854673
20
-77.181602900168002
42
-0.38898318586400188
10
254.20675
20
-76.725000000000009
0
LWPOLYLINE
5
119
100
AcDbEntity
8
0
100
AcDbPolyline
90
8
70
1
43
0.0
10
84.75
20
-78.724999999999994
42
-0.41421356237309503
10
85.25
20
-79.224999999999994
10
85.25
20
-92.22499999999998
42
-0.41421356237309503
10
84.75
20
-92.724999999999994
10
84.25
20
-92.724999999999994
42
-0.41421356237309503
10
83.75
20
-92.22499999999998
10
83.75
20
-79.224999999999994
42
-0.41421356237309503
10
84.25
20
-78.724999999999994
0
LWPOLYLINE
5
120
100
AcDbEntity
8
0
100
AcDbPolyline
90
8
70
1
43
0.0
10
54.625
20
-16.024999999999999
10
54.625
20
-3.0249999999999999
42
0.41421356237309503
10
54.125000000000007
20
-2.5249999999999999
10
41.125
20
-2.5249999999999999
42
0.41421356237309503
10
40.625
20
-3.0249999999999999
10
40.625
20
-16.024999999999999
42
0.41421356237309503
10
41.125
20
-16.524999999999999
10
54.125000000000007
20
-16.525000000000002
42
0.41421356237309503
0
LWPOLYLINE
5
121
100
AcDbEntity
8
0
100
AcDbPolyline
90
8
70
1
43
0.0
10
140.63750000000002
20
-3.0249999999999999
42
-0.41421356237309503
10
141.13750000000002
20
-2.5249999999999999
10
154.13749999999999
20
-2.5249999999999928
42
-0.41421356237309503
10
154.63750000000002
20
-3.0249999999999999
10
154.63750000000002
20
-16.024999999999999
42
-0.41421356237309503
10
154.13749999999999
20
-16.524999999999999
10
141.13750000000002
20
-16.525000000000006
42
-0.41421356237309503
10
140.63750000000002
20
-16.024999999999999
0
LWPOLYLINE
5
122
100
AcDbEntity
8
0
100
AcDbPolyline
90
8
70
1
43
0.0
10
35.075000000000003
20
-2.5249999999999999
10
22.074999999999999
20
-2.5249999999999999
42
0.41421356237309503
10
21.575000000000003
20
-3.0249999999999999
10
21.575000000000003
20
-16.024999999999999
42
0.41421356237309503
10
22.074999999999999
20
-16.524999999999999
10
35.075000000000003
20
-16.525000000000002
42
0.41421356237309503
10
35.575000000000003
20
-16.024999999999999
10
35.575000000000003
20
-3.0249999999999999
42
0.41421356237309503
0
LWPOLYLINE
5
123
100
AcDbEntity
8
0
100
AcDbPolyline
90
8
70
1
43
0.0
10
2.5249999999999999
20
-3.0249999999999999
42
-0.41421356237309503
10
3.0249999999999999
20
-2.5249999999999999
10
16.024999999999999
20
-2.5249999999999995
42
-0.41421356237309503
10
16.524999999999999
20
-3.0249999999999999
10
16.525000000000002
20
-16.024999999999999
42
-0.41421356237309503
10
16.024999999999999
20
-16.525000000000002
10
3.0249999999999999
20
-16.525000000000002
42
-0.41421356237309503
10
2.5249999999999999
20
-16.024999999999999
0
LWPOLYLINE
5
124
100
AcDbEntity
8
0
100
AcDbPolyline
90
8
70
1
43
0.0
10
73.174999999999997
20
-2.5250000000000017
42
-0.41421356237309503
10
73.674999999999997
20
-3.0249999999999999
10
73.674999999999997
20
-16.024999999999999
42
-0.41421356237309503
10
73.174999999999997
20
-16.525000000000002
10
60.174999999999997
20
-16.524999999999999
42
-0.41421356237309503
10
59.675000000000004
20
-16.024999999999999
10
59.675000000000004
20
-3.0249999999999999
42
-0.41421356237309503
10
60.174999999999997
20
-2.5249999999999999
0
LWPOLYLINE
5
125
100
AcDbEntity
8
0
100
AcDbPolyline
90
8
70
1
43
0.0
10
96.987500000000011
20
-2.5249999999999999
10
83.987499999999997
20
-2.5249999999999999
42
0.41421356237309503
10
83.487499999999983
20
-3.0249999999999999
10
83.487499999999983
20
-16.024999999999999
42
0.41421356237309503
10
83.987499999999997
20
-16.525000000000002
10
96.987500000000011
20
-16.524999999999999
42
0.41421356237309503
10
97.487500000000011
20
-16.024999999999999
10
97.487500000000011
20
-3.0249999999999999
42
0.41421356237309503
0
LWPOLYLINE
5
126
100
AcDbEntity
8
0
100
AcDbPolyline
90
8
70
1
43
0.0
10
135.58750000000001
20
-16.024999999999999
10
135.58750000000001
20
-3.0249999999999999
42
0.41421356237309503
10
135.08749999999998
20
-2.5249999999999999
10
122.08750000000001
20
-2.5249999999999999
42
0.41421356237309503
10
121.58749999999999
20
-3.0249999999999999
10
121.58749999999999
20
-16.024999999999999
42
0.41421356237309503
10
122.08750000000001
20
-16.525000000000002
10
135.08749999999998
20
-16.525000000000002
42
0.41421356237309503
0
LWPOLYLINE
5
127
100
AcDbEntity
8
0
100
AcDbPolyline
90
8
70
1
43
0.0
10
102.53749999999999
20
-16.024999999999999
10
102.53749999999999
20
-3.0249999999999999
42
-0.41421356237309503
10
103.03750000000001
20
-2.5249999999999999
10
116.03749999999999
20
-2.5249999999999928
42
-0.41421356237309503
10
116.53750000000001
20
-3.0249999999999999
10
116.53750000000001
20
-16.024999999999999
42
-0.41421356237309503
10
116.03749999999999
20
-16.525000000000002
10
103.03750000000001
20
-16.525000000000006
42
-0.41421356237309503
0
LWPOLYLINE
5
128
100
AcDbEntity
8
0
100
AcDbPolyline
90
8
70
1
43
0.0
10
159.6875
20
-16.024999999999999
10
159.6875
20
-3.0249999999999999
42
-0.41421356237309503
10
160.1875
20
-2.5249999999999999
10
173.18749999999997
20
-2.5249999999999928
42
-0.41421356237309503
10
173.6875
20
-3.0249999999999999
10
173.6875
20
-16.024999999999999
42
-0.41421356237309503
10
173.18749999999997
20
-16.524999999999999
10
160.1875
20
-16.525000000000006
42
-0.41421356237309503
0
LWPOLYLINE
5
129
100
AcDbEntity
8
0
100
AcDbPolyline
90
8
70
1
43
0.0
10
211.28750000000002
20
-16.524999999999999
10
198.28750000000002
20
-16.525000000000006
42
-0.41421356237309503
10
197.78750000000002
20
-16.024999999999999
10
197.78750000000002
20
-3.0249999999999999
42
-0.41421356237309503
10
198.28750000000002
20
-2.5249999999999999
10
211.28750000000002
20
-2.5250000000000283
42
-0.41421356237309503
10
211.78750000000002
20
-3.0249999999999999
10
211.78750000000005
20
-16.024999999999999
42
-0.41421356237309503
0
LWPOLYLINE
5
130
100
AcDbEntity
8
0
100
AcDbPolyline
90
8
70
1
43
0.0
10
192.73750000000004
20
-16.024999999999999
42
-0.41421356237309503
10
192.23750000000001
20
-16.525000000000002
10
179.23750000000001
20
-16.525000000000006
42
-0.41421356237309503
10
178.73750000000001
20
-16.024999999999999
10
178.73750000000001
20
-3.0249999999999999
42
-0.41421356237309503
10
179.23750000000001
20
-2.5249999999999999
10
192.23750000000001
20
-2.5250000000000283
42
-0.41421356237309503
10
192.73750000000001
20
-3.0249999999999999
0
LWPOLYLINE
5
131
100
AcDbEntity
8
0
100
AcDbPolyline
90
8
70
1
43
0.0
10
130.32500000000002
20
-54.625
10
117.32500000000002
20
-54.625000000000014
42
-0.41421356237309503
10
116.82500000000002
20
-54.125000000000007
10
116.82500000000002
20
-41.125
42
-0.41421356237309503
10
117.32500000000002
20
-40.625
10
130.32500000000002
20
-40.624999999999993
42
-0.41421356237309503
10
130.82500000000002
20
-41.125
10
130.82499999999999
20
-54.125000000000007
42
-0.41421356237309503
0
LWPOLYLINE
5
132
100
AcDbEntity
8
0
100
AcDbPolyline
90
8
70
1
43
0.0
10
168.92500000000001
20
-54.125000000000007
42
-0.41421356237309503
10
168.42500000000001
20
-54.625
10
155.42500000000001
20
-54.625000000000014
42
-0.41421356237309503
10
154.92500000000001
20
-54.125000000000007
10
154.92500000000001
20
-41.125
42
-0.41421356237309503
10
155.42500000000001
20
-40.625
10
168.42500000000001
20
-40.624999999999993
42
-0.41421356237309503
10
168.92500000000001
20
-41.125
0
LWPOLYLINE
5
133
100
AcDbEntity
8
0
100
AcDbPolyline
90
8
70
1
43
0.0
10
193.52499999999998
20
-54.625000000000014
42
-0.41421356237309503
10
193.02499999999998
20
-54.125000000000007
10
193.02499999999998
20
-41.125
42
-0.41421356237309503
10
193.52499999999998
20
-40.625
10
206.52500000000001
20
-40.624999999999993
42
-0.41421356237309503
10
207.02500000000001
20
-41.125
10
207.02500000000001
20
-54.125000000000007
42
-0.41421356237309503
10
206.52500000000001
20
-54.625
0
LWPOLYLINE
5
134
100
AcDbEntity
8
0
100
AcDbPolyline
90
8
70
1
43
0.0
10
108.63050000000003
20
-40.624999999999993
10
108.13050000000003
20
-40.624999999999993
42
0.41421356237309503
10
107.63050000000001
20
-41.124999999999986
10
107.63050000000004
20
-54.125
42
0.41421356237309503
10
108.13050000000003
20
-54.624999999999993
10
108.63050000000003
20
-54.624999999999993
42
0.41421356237309503
10
109.13050000000004
20
-54.125
10
109.13050000000004
20
-41.124999999999986
42
0.41421356237309503
0
LWPOLYLINE
5
135
100
AcDbEntity
8
0
100
AcDbPolyline
90
8
70
1
43
0.0
10
187.97500000000002
20
-54.125000000000007
42
-0.41421356237309503
10
187.47500000000002
20
-54.625
10
174.47500000000002
20
-54.625000000000014
42
-0.41421356237309503
10
173.97500000000002
20
-54.125000000000007
10
173.97500000000002
20
-41.125
42
-0.41421356237309503
10
174.47500000000002
20
-40.625
10
187.47500000000002
20
-40.624999999999993
42
-0.41421356237309503
10
187.97500000000002
20
-41.125
0
LWPOLYLINE
5
136
100
AcDbEntity
8
0
100
AcDbPolyline
90
8
70
1
43
0.0
10
104.13050000000004
20
-40.624999999999986
42
-0.41421356237309503
10
104.63050000000004
20
-41.124999999999986
10
104.63050000000003
20
-54.125
42
-0.41421356237309503
10
104.13050000000004
20
-54.624999999999993
10
86.368000000000023
20
-54.625
42
-0.41421356237309503
10
85.868000000000023
20
-54.125
10
85.868000000000038
20
-41.124999999999986
42
-0.41421356237309503
10
86.368000000000023
20
-40.624999999999993
0
LWPOLYLINE
5
137
100
AcDbEntity
8
0
100
AcDbPolyline
90
8
70
1
43
0.0
10
84.25
20
-35.57500000000001
42
-0.41421356237309503
10
83.75
20
-35.075000000000003
10
83.75
20
-22.074999999999999
42
-0.41421356237309503
10
84.25
20
-21.575000000000003
10
84.75
20
-21.574999999999992
42
-0.41421356237309503
10
85.25
20
-22.074999999999999
10
85.25
20
-35.075000000000003
42
-0.41421356237309503
10
84.75
20
-35.575000000000003
0
LWPOLYLINE
5
138
100
AcDbEntity
8
0
100
AcDbPolyline
90
8
70
1
43
0.0
10
106.75
20
-35.075000000000003
10
106.75
20
-22.074999999999999
42
0.41421356237309503
10
106.25
20
-21.575000000000003
10
105.75000000000001
20
-21.575000000000003
42
0.41421356237309503
10
105.25
20
-22.074999999999999
10
105.25
20
-35.075000000000003
42
0.41421356237309503
10
105.75000000000001
20
-35.575000000000003
10
106.25
20
-35.575000000000003
42
0.41421356237309503
0
LWPOLYLINE
5
139
100
AcDbEntity
8
0
100
AcDbPolyline
90
20
70
1
43
0.0
10
73.174999999999997
20
-21.575000000000003
10
60.174999999999997
20
-21.575000000000003
42
0.41421356237309503
10
59.675000000000004
20
-22.074999999999999
10
59.675000000000004
20
-22.661999999999999
10
58.174999999999997
20
-22.661999999999999
42
0.41421356237309503
10
57.674999999999997
20
-23.161999999999999
10
57.674999999999997
20
-29.161999999999999
42
0.41421356237309503
10
58.174999999999997
20
-29.661999999999999
10
59.675000000000004
20
-29.661999999999999
10
59.675000000000004
20
-46.538000000000004
10
58.174999999999997
20
-46.538000000000004
42
0.41421356237309503
10
57.674999999999997
20
-47.038000000000004
10
57.674999999999997
20
-53.038000000000011
42
0.41421356237309503
10
58.174999999999997
20
-53.538000000000004
10
59.675000000000004
20
-53.538000000000004
10
59.675000000000004
20
-54.125000000000007
42
0.41421356237309503
10
60.174999999999997
20
-54.625
10
73.174999999999997
20
-54.625
42
0.41421356237309503
10
73.674999999999997
20
-54.125000000000007
10
73.674999999999997
20
-22.074999999999999
42
0.41421356237309503
0
LWPOLYLINE
5
140
100
AcDbEntity
8
0
100
AcDbPolyline
90
8
70
1
43
0.0
10
164.16250000000002
20
-35.075000000000003
10
164.16250000000002
20
-22.074999999999999
42
0.41421356237309503
10
163.66250000000002
20
-21.575000000000003
10
150.66250000000002
20
-21.575000000000003
42
0.41421356237309503
10
150.16250000000002
20
-22.074999999999999
10
150.16250000000002
20
-35.075000000000003
42
0.41421356237309503
10
150.66250000000002
20
-35.575000000000003
10
163.66250000000002
20
-35.575000000000003
42
0.41421356237309503
0
LWPOLYLINE
5
141
100
AcDbEntity
8
0
100
AcDbPolyline
90
8
70
1
43
0.0
10
101.75
20
-21.575000000000003
10
88.75
20
-21.575000000000003
42
0.41421356237309503
10
88.25
20
-22.074999999999999
10
88.250000000000014
20
-35.075000000000003
42
0.41421356237309503
10
88.75
20
-35.575000000000003
10
101.75
20
-35.575000000000003
42
0.41421356237309503
10
102.25000000000001
20
-35.075000000000003
10
102.25000000000001
20
-22.074999999999999
42
0.41421356237309503
0
LWPOLYLINE
5
142
100
AcDbEntity
8
0
100
AcDbPolyline
90
8
70
1
43
0.0
10
131.11250000000001
20
-22.074999999999999
42
-0.41421356237309503
10
131.61250000000001
20
-21.575000000000003
10
144.61250000000001
20
-21.574999999999992
42
-0.41421356237309503
10
145.11250000000001
20
-22.074999999999999
10
145.11250000000001
20
-35.075000000000003
42
-0.41421356237309503
10
144.61250000000001
20
-35.575000000000003
10
131.61250000000001
20
-35.57500000000001
42
-0.41421356237309503
10
131.11250000000001
20
-35.075000000000003
0
LWPOLYLINE
5
143
100
AcDbEntity
8
0
100
AcDbPolyline
90
8
70
1
43
0.0
10
125.56249999999999
20
-35.575000000000003
10
112.56250000000001
20
-35.57500000000001
42
-0.41421356237309503
10
112.0625
20
-35.075000000000003
10
112.0625
20
-22.074999999999999
42
-0.41421356237309503
10
112.56250000000001
20
-21.575000000000003
10
125.56249999999999
20
-21.574999999999992
42
-0.41421356237309503
10
126.0625
20
-22.074999999999999
10
126.0625
20
-35.075000000000003
42
-0.41421356237309503
0
LWPOLYLINE
5
144
100
AcDbEntity
8
0
100
AcDbPolyline
90
8
70
1
43
0.0
10
182.71249999999998
20
-35.575000000000003
10
169.71250000000001
20
-35.57500000000001
42
-0.41421356237309503
10
169.21250000000001
20
-35.075000000000003
10
169.21250000000001
20
-22.074999999999999
42
-0.41421356237309503
10
169.71250000000001
20
-21.575000000000003
10
182.71249999999998
20
-21.574999999999992
42
-0.41421356237309503
10
183.21249999999998
20
-22.074999999999999
10
183.21249999999998
20
-35.075000000000003
42
-0.41421356237309503
0
LWPOLYLINE
5
145
100
AcDbEntity
8
0
100
AcDbPolyline
90
8
70
1
43
0.0
10
188.26250000000002
20
-35.075000000000003
10
188.26250000000002
20
-22.074999999999999
42
-0.41421356237309503
10
188.76250000000002
20
-21.575000000000003
10
201.76250000000005
20
-21.575000000000028
42
-0.41421356237309503
10
202.26249999999999
20
-22.074999999999999
10
202.26250000000005
20
-35.075000000000003
42
-0.41421356237309503
10
201.76250000000005
20
-35.575000000000003
10
188.76250000000002
20
-35.57500000000001
42
-0.41421356237309503
0
LWPOLYLINE
5
146
100
AcDbEntity
8
0
100
AcDbPolyline
90
8
70
1
43
0.0
10
303.0625
20
-35.57500000000001
42
-0.41421356237309503
10
302.5625
20
-35.075000000000003
10
302.5625
20
-22.074999999999999
42
-0.41421356237309503
10
303.0625
20
-21.575000000000003
10
316.0625
20
-21.575000000000028
42
-0.41421356237309503
10
316.5625
20
-22.074999999999999
10
316.56250000000006
20
-35.075000000000003
42
-0.41421356237309503
10
316.0625
20
-35.575000000000003
0
LWPOLYLINE
5
147
100
AcDbEntity
8
0
100
AcDbPolyline
90
8
70
1
43
0.0
10
240.36250000000001
20
-35.075000000000003
10
240.36250000000001
20
-22.074999999999999
42
0.41421356237309503
10
239.86250000000001
20
-21.575000000000003
10
226.86250000000001
20
-21.575000000000003
42
0.41421356237309503
10
226.36250000000001
20
-22.074999999999999
10
226.36250000000001
20
-35.075000000000003
42
0.41421356237309503
10
226.86250000000001
20
-35.575000000000003
10
239.86250000000001
20
-35.575000000000003
42
0.41421356237309503
0
LWPOLYLINE
5
148
100
AcDbEntity
8
0
100
AcDbPolyline
90
8
70
1
43
0.0
10
245.91250000000002
20
-35.57500000000001
42
-0.41421356237309503
10
245.41250000000002
20
-35.075000000000003
10
245.41250000000002
20
-22.074999999999999
42
-0.41421356237309503
10
245.91250000000002
20
-21.575000000000003
10
258.91250000000002
20
-21.574999999999992
42
-0.41421356237309503
10
259.41250000000002
20
-22.074999999999999
10
259.41250000000002
20
-35.075000000000003
42
-0.41421356237309503
10
258.91250000000002
20
-35.575000000000003
0
LWPOLYLINE
5
149
100
AcDbEntity
8
0
100
AcDbPolyline
90
8
70
1
43
0.0
10
297.51249999999999
20
-35.075000000000003
10
297.51249999999999
20
-22.074999999999999
42
0.41421356237309503
10
297.01249999999999
20
-21.575000000000003
10
284.01249999999999
20
-21.575000000000003
42
0.41421356237309503
10
283.51249999999999
20
-22.074999999999999
10
283.51249999999999
20
-35.075000000000003
42
0.41421356237309503
10
284.01249999999999
20
-35.575000000000003
10
297.01249999999999
20
-35.575000000000003
42
0.41421356237309503
0
LWPOLYLINE
5
150
100
AcDbEntity
8
0
100
AcDbPolyline
90
8
70
1
43
0.0
10
335.61250000000001
20
-35.075000000000003
10
335.61250000000001
20
-22.074999999999999
42
0.41421356237309503
10
335.11250000000007
20
-21.575000000000003
10
322.11250000000001
20
-21.575000000000003
42
0.41421356237309503
10
321.61250000000001
20
-22.074999999999999
10
321.61250000000001
20
-35.075000000000003
42
0.41421356237309503
10
322.11250000000001
20
-35.575000000000003
10
335.11250000000007
20
-35.575000000000003
42
0.41421356237309503
0
LWPOLYLINE
5
151
100
AcDbEntity
8
0
100
AcDbPolyline
90
8
70
1
43
0.0
10
207.8125
20
-35.57500000000001
42
-0.41421356237309503
10
207.3125
20
-35.075000000000003
10
207.3125
20
-22.074999999999999
42
-0.41421356237309503
10
207.8125
20
-21.575000000000003
10
220.8125
20
-21.574999999999992
42
-0.41421356237309503
10
221.3125
20
-22.074999999999999
10
221.3125
20
-35.075000000000003
42
-0.41421356237309503
10
220.8125
20
-35.575000000000003
0
LWPOLYLINE
5
152
100
AcDbEntity
8
0
100
AcDbPolyline
90
8
70
1
43
0.0
10
277.96250000000003
20
-21.574999999999992
42
-0.41421356237309503
10
278.46250000000003
20
-22.074999999999999
10
278.46250000000003
20
-35.075000000000003
42
-0.41421356237309503
10
277.96250000000003
20
-35.575000000000003
10
264.96250000000003
20
-35.57500000000001
42
-0.41421356237309503
10
264.46250000000003
20
-35.075000000000003
10
264.46250000000003
20
-22.074999999999999
42
-0.41421356237309503
10
264.96250000000003
20
-21.575000000000003
0
LWPOLYLINE
5
153
100
AcDbEntity
8
0
100
AcDbPolyline
90
42
70
1
43
0.0
10
358.92499999999995
20
-21.575000000000003
10
345.92500000000001
20
-21.575000000000003
42
0.41421356237309503
10
345.42500000000007
20
-22.074999999999999
10
345.42500000000007
20
-35.075000000000003
42
0.41421356237309503
10
345.92500000000001
20
-35.575000000000003
10
347.80625000000009
20
-35.575000000000003
10
347.80624999999998
20
-40.625
10
326.875
20
-40.625
42
0.41421356237309503
10
326.375
20
-41.125
10
326.375
20
-54.125000000000007
42
0.41421356237309503
10
326.875
20
-54.625
10
329.84325000000001
20
-54.625
10
329.84325000000001
20
-56.125000000000007
42
0.41421356237309503
10
330.34325000000001
20
-56.625000000000007
10
336.34325000000001
20
-56.625000000000007
42
0.41421356237309503
10
336.84325000000001
20
-56.125000000000007
10
336.84325000000001
20
-54.625
10
351.78125
20
-54.625
42
0.41421356237309503
10
352.28125
20
-54.125000000000007
10
352.28125
20
-53.538000000000004
10
353.71924999999999
20
-53.538000000000004
10
353.71924999999999
20
-56.125000000000007
42
0.41421356237309503
10
354.21924999999999
20
-56.625000000000007
10
360.21924999999999
20
-56.625000000000007
42
0.41421356237309503
10
360.71924999999993
20
-56.125000000000007
10
360.71924999999993
20
-53.319835058145806
42
0.15083409114183668
10
360.80624999999998
20
-53.038000000000011
10
360.80625000000003
20
-47.038000000000004
42
0.1508340911417787
10
360.71924999999999
20
-46.756164941854294
10
360.71924999999999
20
-45.099999999999994
10
361.30625000000003
20
-45.099999999999994
42
0.41421356237309503
10
361.80625000000009
20
-44.600000000000001
10
361.80625000000009
20
-31.600000000000001
42
0.41421356237309503
10
361.30625000000003
20
-31.100000000000001
10
359.42500000000001
20
-31.100000000000001
10
359.42500000000001
20
-29.661999999999999
10
360.30624999999998
20
-29.661999999999999
42
0.41421356237309503
10
360.80625000000003
20
-29.161999999999999
10
360.80625000000003
20
-23.161999999999999
42
0.41421356237309503
10
360.30624999999998
20
-22.661999999999999
10
359.42500000000001
20
-22.661999999999999
10
359.42500000000001
20
-22.074999999999999
42
0.41421356237309503
0
LWPOLYLINE
5
154
100
AcDbEntity
8
0
100
AcDbPolyline
90
8
70
1
43
0.0
10
369.23750000000007
20
-22.074999999999999
42
-0.41421356237309503
10
369.73750000000001
20
-21.575000000000003
10
382.73750000000001
20
-21.575000000000028
42
-0.41421356237309503
10
383.23749999999995
20
-22.074999999999999
10
383.23749999999995
20
-35.075000000000003
42
-0.41421356237309503
10
382.73750000000001
20
-35.575000000000003
10
369.73750000000001
20
-35.575000000000045
42
-0.41421356237309503
10
369.23749999999995
20
-35.075000000000003
0
LWPOLYLINE
5
155
100
AcDbEntity
8
0
100
AcDbPolyline
90
8
70
1
43
0.0
10
341.92500000000001
20
-35.575000000000003
10
341.42499999999995
20
-35.574999999999974
42
-0.41421356237309503
10
340.92500000000001
20
-35.075000000000003
10
340.92500000000001
20
-22.074999999999999
42
-0.41421356237309503
10
341.42499999999995
20
-21.575000000000003
10
341.92500000000001
20
-21.575000000000028
42
-0.41421356237309503
10
342.42500000000001
20
-22.074999999999999
10
342.42500000000001
20
-35.075000000000003
42
-0.41421356237309503
0
LWPOLYLINE
5
156
100
AcDbEntity
8
0
100
AcDbPolyline
90
8
70
1
43
0.0
10
54.625
20
-54.125000000000007
10
54.625
20
-41.125
42
0.41421356237309503
10
54.125000000000007
20
-40.625
10
41.125
20
-40.625
42
0.41421356237309503
10
40.625
20
-41.125
10
40.625
20
-54.125000000000007
42
0.41421356237309503
10
41.125
20
-54.625
10
54.125000000000007
20
-54.625
42
0.41421356237309503
0
LWPOLYLINE
5
157
100
AcDbEntity
8
0
100
AcDbPolyline
90
8
70
1
43
0.0
10
35.075000000000003
20
-40.625
42
-0.41421356237309503
10
35.575000000000003
20
-41.125
10
35.575000000000003
20
-54.125000000000007
42
-0.41421356237309503
10
35.075000000000003
20
-54.625
10
22.074999999999999
20
-54.625
42
-0.41421356237309503
10
21.575000000000003
20
-54.125000000000007
10
21.575000000000003
20
-41.125
42
-0.41421356237309503
10
22.074999999999999
20
-40.625
0
LWPOLYLINE
5
158
100
AcDbEntity
8
0
100
AcDbPolyline
90
8
70
1
43
0.0
10
363.92499999999995
20
-35.075000000000003
10
363.92499999999995
20
-22.074999999999999
42
0.41421356237309503
10
363.42500000000001
20
-21.575000000000003
10
362.92500000000007
20
-21.575000000000003
42
0.41421356237309503
10
362.42500000000007
20
-22.074999999999999
10
362.42500000000007
20
-35.075000000000003
42
0.41421356237309503
10
362.92500000000007
20
-35.575000000000003
10
363.42500000000001
20
-35.575000000000003
42
0.41421356237309503
0
LWPOLYLINE
5
159
100
AcDbEntity
8
0
100
AcDbPolyline
90
8
70
1
43
0.0
10
149.375
20
-54.625
10
136.375
20
-54.625000000000014
42
-0.41421356237309503
10
135.875
20
-54.125000000000007
10
135.875
20
-41.125
42
-0.41421356237309503
10
136.375
20
-40.625
10
149.375
20
-40.624999999999993
42
-0.41421356237309503
10
149.875
20
-41.125
10
149.875
20
-54.125000000000007
42
-0.41421356237309503
0
LWPOLYLINE
5
160
100
AcDbEntity
8
0
100
AcDbPolyline
90
8
70
1
43
0.0
10
225.57500000000002
20
-40.625
10
212.57499999999999
20
-40.625
42
0.41421356237309503
10
212.07500000000005
20
-41.125
10
212.07500000000005
20
-54.125000000000007
42
0.41421356237309503
10
212.57499999999999
20
-54.625
10
225.57500000000002
20
-54.625
42
0.41421356237309503
10
226.07500000000002
20
-54.125000000000007
10
226.07500000000002
20
-41.125
42
0.41421356237309503
0
LWPOLYLINE
5
161
100
AcDbEntity
8
0
100
AcDbPolyline
90
8
70
1
43
0.0
10
244.625
20
-54.625
10
231.625
20
-54.625000000000014
42
-0.41421356237309503
10
231.125
20
-54.125000000000007
10
231.125
20
-41.125
42
-0.41421356237309503
10
231.625
20
-40.625
10
244.625
20
-40.624999999999993
42
-0.41421356237309503
10
245.125
20
-41.125
10
245.125
20
-54.125000000000007
42
-0.41421356237309503
0
LWPOLYLINE
5
162
100
AcDbEntity
8
0
100
AcDbPolyline
90
8
70
1
43
0.0
10
264.17500000000001
20
-54.125000000000007
42
-0.41421356237309503
10
263.67500000000001
20
-54.625
10
250.67500000000001
20
-54.625000000000014
42
-0.41421356237309503
10
250.17500000000001
20
-54.125000000000007
10
250.17500000000001
20
-41.125
42
-0.41421356237309503
10
250.67500000000001
20
-40.625
10
263.67500000000001
20
-40.624999999999993
42
-0.41421356237309503
10
264.17500000000001
20
-41.125
0
LWPOLYLINE
5
163
100
AcDbEntity
8
0
100
AcDbPolyline
90
8
70
1
43
0.0
10
288.77500000000003
20
-54.625000000000014
42
-0.41421356237309503
10
288.27500000000003
20
-54.125000000000007
10
288.27500000000003
20
-41.125
42
-0.41421356237309503
10
288.77500000000003
20
-40.625
10
301.77500000000003
20
-40.624999999999993
42
-0.41421356237309503
10
302.27500000000003
20
-41.125
10
302.27500000000003
20
-54.125000000000007
42
-0.41421356237309503
10
301.77500000000003
20
-54.625
0
LWPOLYLINE
5
164
100
AcDbEntity
8
0
100
AcDbPolyline
90
8
70
1
43
0.0
10
307.32499999999999
20
-54.125000000000007
10
307.32499999999999
20
-41.125
42
-0.41421356237309503
10
307.82499999999999
20
-40.625
10
320.82499999999993
20
-40.625000000000028
42
-0.41421356237309503
10
321.32499999999993
20
-41.125
10
321.32499999999993
20
-54.125000000000007
42
-0.41421356237309503
10
320.82499999999993
20
-54.625
10
307.82499999999999
20
-54.625000000000014
42
-0.41421356237309503
0
LWPOLYLINE
5
165
100
AcDbEntity
8
0
100
AcDbPolyline
90
8
70
1
43
0.0
10
283.22500000000002
20
-54.125000000000007
42
-0.41421356237309503
10
282.72500000000002
20
-54.625
10
269.72500000000002
20
-54.625000000000014
42
-0.41421356237309503
10
269.22500000000002
20
-54.125000000000007
10
269.22500000000002
20
-41.125
42
-0.41421356237309503
10
269.72500000000002
20
-40.625
10
282.72500000000002
20
-40.624999999999993
42
-0.41421356237309503
10
283.22500000000002
20
-41.125
0
LWPOLYLINE
5
166
100
AcDbEntity
8
0
100
AcDbPolyline
90
8
70
1
43
0.0
10
369.23750000000007
20
-41.125
42
-0.41421356237309503
10
369.73750000000001
20
-40.625
10
382.73750000000001
20
-40.624999999999957
42
-0.41421356237309503
10
383.23750000000007
20
-41.125
10
383.23749999999995
20
-54.125000000000007
42
-0.41421356237309503
10
382.73750000000001
20
-54.625
10
369.73750000000001
20
-54.62500000000005
42
-0.41421356237309503
10
369.23749999999995
20
-54.125000000000007
0
LWPOLYLINE
5
167
100
AcDbEntity
8
0
100
AcDbPolyline
90
8
70
1
43
0.0
10
108.89375000000001
20
-59.675000000000004
10
95.893750000000011
20
-59.675000000000004
42
0.41421356237309503
10
95.393749999999997
20
-60.174999999999997
10
95.393749999999997
20
-73.174999999999997
42
0.41421356237309503
10
95.893750000000011
20
-73.674999999999997
10
108.89375000000001
20
-73.674999999999997
42
0.41421356237309503
10
109.39375
20
-73.174999999999997
10
109.39375
20
-60.174999999999997
42
0.41421356237309503
0
LWPOLYLINE
5
168
100
AcDbEntity
8
0
100
AcDbPolyline
90
8
70
1
43
0.0
10
93.455749999999995
20
-57.67499999999999
42
-0.41421356237309503
10
93.955750000000009
20
-58.174999999999997
10
93.955750000000009
20
-72.174999999999997
42
-0.41421356237309503
10
93.455749999999995
20
-72.674999999999997
10
87.455750000000009
20
-72.675000000000011
42
-0.41421356237309503
10
86.955749999999995
20
-72.174999999999997
10
86.955750000000023
20
-58.174999999999997
42
-0.41421356237309503
10
87.455750000000009
20
-57.674999999999997
0
LWPOLYLINE
5
169
100
AcDbEntity
8
0
100
AcDbPolyline
90
8
70
1
43
0.0
10
222.10000000000002
20
-73.675000000000011
42
-0.41421356237309503
10
221.59999999999999
20
-73.174999999999997
10
221.59999999999999
20
-60.174999999999997
42
-0.41421356237309503
10
222.10000000000002
20
-59.675000000000004
10
235.10000000000002
20
-59.674999999999997
42
-0.41421356237309503
10
235.60000000000002
20
-60.174999999999997
10
235.60000000000002
20
-73.174999999999997
42
-0.41421356237309503
10
235.10000000000002
20
-73.674999999999997
0
LWPOLYLINE
5
170
100
AcDbEntity
8
0
100
AcDbPolyline
90
8
70
1
43
0.0
10
22.074999999999999
20
-73.674999999999997
42
-0.41421356237309503
10
21.575000000000003
20
-73.174999999999997
10
21.575000000000003
20
-60.174999999999997
42
-0.41421356237309503
10
22.074999999999999
20
-59.675000000000004
10
35.075000000000003
20
-59.675000000000004
42
-0.41421356237309503
10
35.575000000000003
20
-60.174999999999997
10
35.575000000000003
20
-73.174999999999997
42
-0.41421356237309503
10
35.075000000000003
20
-73.674999999999997
0
LWPOLYLINE
5
171
100
AcDbEntity
8
0
100
AcDbPolyline
90
23
70
1
43
0.0
10
16.024999999999999
20
-59.675000000000004
42
-0.41421356237309503
10
16.525000000000002
20
-60.174999999999997
10
16.525000000000002
20
-60.762
10
18.024999999999999
20
-60.762000000000008
42
-0.41421356237309503
10
18.524999999999999
20
-61.262000000000008
10
18.524999999999999
20
-67.262
42
-0.41421356237309503
10
18.024999999999999
20
-67.762
10
16.525000000000002
20
-67.762
10
16.525000000000006
20
-78.726796025226875
10
27.488000003963204
20
-78.726796025226832
10
27.488000000000007
20
-77.224999999999994
42
-0.41421356237309503
10
27.988000000000003
20
-76.725000000000009
10
33.988
20
-76.725000000000009
42
-0.41421356237309503
10
34.488
20
-77.224999999999994
10
34.488000011613423
20
-78.726796025226633
10
35.032658536631502
20
-78.72679602522679
42
-0.43927009994415861
10
35.575000000000003
20
-79.224999999999994
10
35.57500000000001
20
-92.224999999999994
42
-0.41421356237309503
10
35.075000000000003
20
-92.725000000000009
10
3.0249999999999999
20
-92.725000000000009
42
-0.41421356237309503
10
2.5249999999999999
20
-92.224999999999994
10
2.5250000000000017
20
-60.174999999999997
42
-0.41421356237309503
10
3.0249999999999999
20
-59.675000000000004
0
LWPOLYLINE
5
172
100
AcDbEntity
8
0
100
AcDbPolyline
90
8
70
1
43
0.0
10
40.625
20
-73.174999999999997
10
40.625
20
-60.174999999999997
42
-0.41421356237309503
10
41.125
20
-59.675000000000004
10
54.125000000000007
20
-59.675000000000004
42
-0.41421356237309503
10
54.625
20
-60.174999999999997
10
54.625
20
-73.174999999999997
42
-0.41421356237309503
10
54.125000000000007
20
-73.674999999999997
10
41.125
20
-73.674999999999997
42
-0.41421356237309503
0
LWPOLYLINE
5
173
100
AcDbEntity
8
0
100
AcDbPolyline
90
8
70
1
43
0.0
10
117.33175000000001
20
-72.674999999999997
10
111.33175000000001
20
-72.675000000000011
42
-0.41421356237309503
10
110.83175
20
-72.174999999999997
10
110.83175
20
-58.174999999999997
42
-0.41421356237309503
10
111.33175000000001
20
-57.674999999999997
10
117.33175000000001
20
-57.675000000000011
42
-0.41421356237309503
10
117.83175
20
-58.174999999999997
10
117.83175
20
-72.174999999999997
42
-0.41421356237309503
0
LWPOLYLINE
5
174
100
AcDbEntity
8
0
100
AcDbPolyline
90
23
70
1
43
0.0
10
73.174999999999997
20
-59.675000000000004
10
60.174999999999997
20
-59.675000000000004
42
0.41421356237309503
10
59.675000000000004
20
-60.174999999999997
10
59.675000000000004
20
-60.762000000000008
10
58.174999999999997
20
-60.762000000000008
42
0.41421356237309503
10
57.674999999999997
20
-61.262000000000008
10
57.674999999999997
20
-67.262
42
0.41421356237309503
10
58.174999999999997
20
-67.762
10
59.675000000000004
20
-67.762
10
59.675000000000004
20
-78.724999999999994
10
48.712000000000003
20
-78.724999999999994
10
48.712000000000003
20
-77.224999999999994
42
0.41421356237309503
10
48.212000000000003
20
-76.724999999999994
10
42.211999999999996
20
-76.725000000000009
42
0.41421356237309503
10
41.711999999999996
20
-77.224999999999994
10
41.711999999999996
20
-78.724999999999994
10
41.125
20
-78.724999999999994
42
0.41421356237309503
10
40.625
20
-79.224999999999994
10
40.625
20
-92.224999999999994
42
0.41421356237309503
10
41.125
20
-92.724999999999994
10
73.174999999999997
20
-92.725000000000009
42
0.41421356237309503
10
73.674999999999997
20
-92.224999999999994
10
73.674999999999997
20
-60.174999999999997
42
0.41421356237309503
0
LWPOLYLINE
5
175
100
AcDbEntity
8
0
100
AcDbPolyline
90
8
70
1
43
0.0
10
340.99375000000009
20
-60.174999999999997
42
-0.41421356237309503
10
341.49375000000009
20
-59.675000000000004
10
341.99375000000003
20
-59.675000000000026
42
-0.41421356237309503
10
342.49374999999998
20
-60.174999999999997
10
342.49374999999998
20
-73.174999999999997
42
-0.41421356237309503
10
341.99375000000003
20
-73.674999999999997
10
341.49375000000009
20
-73.67500000000004
42
-0.41421356237309503
10
340.99375000000003
20
-73.174999999999997
0
LWPOLYLINE
5
176
100
AcDbEntity
8
0
100
AcDbPolyline
90
8
70
1
43
0.0
10
382.73750000000001
20
-73.674999999999997
10
369.73750000000001
20
-73.674999999999969
42
-0.41421356237309503
10
369.23750000000007
20
-73.174999999999997
10
369.23750000000007
20
-60.174999999999997
42
-0.41421356237309503
10
369.73750000000001
20
-59.675000000000004
10
382.73750000000001
20
-59.675000000000026
42
-0.41421356237309503
10
383.23749999999995
20
-60.174999999999997
10
383.23749999999995
20
-73.174999999999997
42
-0.41421356237309503
0
LWPOLYLINE
5
177
100
AcDbEntity
8
0
100
AcDbPolyline
90
8
70
1
43
0.0
10
241.15000000000003
20
-73.675000000000011
42
-0.41421356237309503
10
240.65000000000001
20
-73.174999999999997
10
240.65000000000001
20
-60.174999999999997
42
-0.41421356237309503
10
241.15000000000003
20
-59.675000000000004
10
254.15000000000003
20
-59.674999999999997
42
-0.41421356237309503
10
254.65000000000003
20
-60.174999999999997
10
254.65000000000003
20
-73.174999999999997
42
-0.41421356237309503
10
254.15000000000003
20
-73.674999999999997
0
LWPOLYLINE
5
178
100
AcDbEntity
8
0
100
AcDbPolyline
90
8
70
1
43
0.0
10
164.44999999999999
20
-60.174999999999997
42
-0.41421356237309503
10
164.95000000000002
20
-59.675000000000004
10
177.95000000000002
20
-59.674999999999997
42
-0.41421356237309503
10
178.45000000000002
20
-60.174999999999997
10
178.45000000000002
20
-73.174999999999997
42
-0.41421356237309503
10
177.95000000000002
20
-73.674999999999997
10
164.95000000000002
20
-73.675000000000011
42
-0.41421356237309503
10
164.44999999999999
20
-73.174999999999997
0
LWPOLYLINE
5
179
100
AcDbEntity
8
0
100
AcDbPolyline
90
8
70
1
43
0.0
10
126.85000000000002
20
-73.675000000000011
42
-0.41421356237309503
10
126.35000000000002
20
-73.174999999999997
10
126.35000000000002
20
-60.174999999999997
42
-0.41421356237309503
10
126.85000000000002
20
-59.675000000000004
10
139.85000000000002
20
-59.674999999999997
42
-0.41421356237309503
10
140.35000000000002
20
-60.174999999999997
10
140.34999999999999
20
-73.174999999999997
42
-0.41421356237309503
10
139.85000000000002
20
-73.674999999999997
0
LWPOLYLINE
5
180
100
AcDbEntity
8
0
100
AcDbPolyline
90
8
70
1
43
0.0
10
259.69999999999999
20
-73.174999999999997
10
259.69999999999999
20
-60.174999999999997
42
-0.41421356237309503
10
260.19999999999999
20
-59.675000000000004
10
273.19999999999999
20
-59.674999999999997
42
-0.41421356237309503
10
273.69999999999999
20
-60.174999999999997
10
273.69999999999999
20
-73.174999999999997
42
-0.41421356237309503
10
273.19999999999999
20
-73.674999999999997
10
260.19999999999999
20
-73.675000000000011
42
-0.41421356237309503
0
LWPOLYLINE
5
181
100
AcDbEntity
8
0
100
AcDbPolyline
90
8
70
1
43
0.0
10
183.49999999999997
20
-73.174999999999997
10
183.49999999999997
20
-60.174999999999997
42
-0.41421356237309503
10
184
20
-59.675000000000004
10
197
20
-59.674999999999997
42
-0.41421356237309503
10
197.5
20
-60.174999999999997
10
197.5
20
-73.174999999999997
42
-0.41421356237309503
10
197
20
-73.674999999999997
10
184
20
-73.675000000000011
42
-0.41421356237309503
0
LWPOLYLINE
5
182
100
AcDbEntity
8
0
100
AcDbPolyline
90
8
70
1
43
0.0
10
216.05000000000001
20
-59.675000000000004
10
203.05000000000001
20
-59.675000000000004
42
0.41421356237309503
10
202.55000000000001
20
-60.174999999999997
10
202.54999999999998
20
-73.174999999999997
42
0.41421356237309503
10
203.05000000000001
20
-73.674999999999997
10
216.05000000000001
20
-73.674999999999997
42
0.41421356237309503
10
216.55000000000001
20
-73.174999999999997
10
216.55000000000001
20
-60.174999999999997
42
0.41421356237309503
0
LWPOLYLINE
5
183
100
AcDbEntity
8
0
100
AcDbPolyline
90
8
70
1
43
0.0
10
158.90000000000001
20
-73.674999999999997
10
145.90000000000001
20
-73.675000000000011
42
-0.41421356237309503
10
145.39999999999998
20
-73.174999999999997
10
145.39999999999998
20
-60.174999999999997
42
-0.41421356237309503
10
145.90000000000001
20
-59.675000000000004
10
158.90000000000001
20
-59.674999999999997
42
-0.41421356237309503
10
159.40000000000001
20
-60.174999999999997
10
159.40000000000001
20
-73.174999999999997
42
-0.41421356237309503
0
LWPOLYLINE
5
184
100
AcDbEntity
8
0
100
AcDbPolyline
90
8
70
1
43
0.0
10
350.18750000000006
20
-60.174999999999997
42
-0.41421356237309503
10
350.6875
20
-59.675000000000004
10
363.6875
20
-59.674999999999955
42
-0.41421356237309503
10
364.1875
20
-60.174999999999997
10
364.18749999999994
20
-73.174999999999997
42
-0.41421356237309503
10
363.6875
20
-73.674999999999997
10
350.6875
20
-73.67500000000004
42
-0.41421356237309503
10
350.1875
20
-73.174999999999997
0
LWPOLYLINE
5
185
100
AcDbEntity
8
0
100
AcDbPolyline
90
8
70
1
43
0.0
10
319.49374999999998
20
-60.174999999999997
42
-0.41421356237309503
10
319.99374999999998
20
-59.675000000000004
10
320.49375000000003
20
-59.675000000000026
42
-0.41421356237309503
10
320.99375000000003
20
-60.174999999999997
10
320.99375000000003
20
-73.174999999999997
42
-0.41421356237309503
10
320.49375000000003
20
-73.674999999999997
10
319.99374999999998
20
-73.674999999999969
42
-0.41421356237309503
10
319.49375000000003
20
-73.174999999999997
0
LWPOLYLINE
5
186
100
AcDbEntity
8
0
100
AcDbPolyline
90
8
70
1
43
0.0
10
323.99375000000009
20
-60.174999999999997
42
-0.41421356237309503
10
324.49375000000003
20
-59.675000000000004
10
337.49374999999998
20
-59.674999999999955
42
-0.41421356237309503
10
337.99375000000003
20
-60.174999999999997
10
337.99374999999998
20
-73.174999999999997
42
-0.41421356237309503
10
337.49374999999998
20
-73.674999999999997
10
324.49375000000003
20
-73.674999999999969
42
-0.41421356237309503
10
323.99375000000009
20
-73.174999999999997
0
LWPOLYLINE
5
187
100
AcDbEntity
8
0
100
AcDbPolyline
90
8
70
1
43
0.0
10
297.80000000000001
20
-73.174999999999997
10
297.80000000000001
20
-60.174999999999997
42
-0.41421356237309503
10
298.30000000000001
20
-59.675000000000004
10
311.30000000000001
20
-59.674999999999997
42
-0.41421356237309503
10
311.80000000000001
20
-60.174999999999997
10
311.80000000000001
20
-73.174999999999997
42
-0.41421356237309503
10
311.30000000000001
20
-73.674999999999997
10
298.30000000000001
20
-73.675000000000011
42
-0.41421356237309503
0
LWPOLYLINE
5
188
100
AcDbEntity
8
0
100
AcDbPolyline
90
8
70
1
43
0.0
10
292.25
20
-59.675000000000004
10
279.25
20
-59.675000000000004
42
0.41421356237309503
10
278.75
20
-60.174999999999997
10
278.75
20
-73.174999999999997
42
0.41421356237309503
10
279.25
20
-73.674999999999997
10
292.25
20
-73.674999999999997
42
0.41421356237309503
10
292.75
20
-73.174999999999997
10
292.75
20
-60.174999999999997
42
0.41421356237309503
0
LWPOLYLINE
5
189
100
AcDbEntity
8
0
100
AcDbPolyline
90
14
70
1
43
0.0
10
152.25625000000002
20
-92.224999999999994
42
-0.41421356237309503
10
151.75625000000002
20
-92.724999999999994
10
133.99374999999998
20
-92.724999999999994
42
-0.41421356237309503
10
133.49375000000001
20
-92.224999999999994
10
133.49374999999998
20
-79.224999999999994
42
-0.41421356237309503
10
133.99374999999998
20
-78.724999999999994
10
144.13749999999999
20
-78.724999999999994
10
144.13749999999999
20
-77.224999999999994
42
-0.41421356237309503
10
144.63750000000002
20
-76.724999999999994
10
150.63750000000002
20
-76.724999999999994
42
-0.41421356237309503
10
151.13750000000002
20
-77.224999999999994
10
151.13750000000002
20
-78.724999999999994
10
151.75625000000002
20
-78.724999999999994
42
-0.41421356237309503
10
152.25625000000002
20
-79.224999999999994
0
LWPOLYLINE
5
190
100
AcDbEntity
8
0
100
AcDbPolyline
90
26
70
1
43
0.0
10
233.21875
20
-91.724999999999994
10
238.26875000000001
20
-91.724999999999994
10
238.26875000000001
20
-92.224999999999994
42
0.41421356237309503
10
238.76875000000001
20
-92.724999999999994
10
251.76875000000001
20
-92.724999999999994
42
0.41421356237309503
10
252.26875000000001
20
-92.224999999999994
10
252.26875000000001
20
-79.224999999999994
42
0.41421356237309503
10
251.76875000000001
20
-78.724999999999994
10
241.65675000000005
20
-78.724999999999994
10
241.65675000000005
20
-77.224999999999994
42
0.41421356237309503
10
241.15675000000005
20
-76.725000000000009
10
230.33075000000002
20
-76.725000000000009
42
0.41421356237309503
10
229.83075000000002
20
-77.224999999999994
10
229.83075000000002
20
-78.724999999999994
10
217.78075000000001
20
-78.724999999999994
10
217.78075000000001
20
-77.224999999999994
42
0.41421356237309503
10
217.28075000000001
20
-76.724999999999994
10
211.28075000000001
20
-76.724999999999994
42
0.41421356237309503
10
210.78075000000001
20
-77.224999999999994
10
210.78075000000001
20
-78.724999999999994
10
198.28750000000002
20
-78.724999999999994
42
0.41421356237309503
10
197.78750000000002
20
-79.224999999999994
10
197.78750000000002
20
-92.224999999999994
42
0.41421356237309503
10
198.28750000000002
20
-92.725000000000009
10
232.71875
20
-92.724999999999994
42
0.41421356237309503
10
233.21875
20
-92.224999999999994
0
LWPOLYLINE
5
191
100
AcDbEntity
8
0
100
AcDbPolyline
90
8
70
1
43
0.0
10
369.23750000000007
20
-79.224999999999994
42
-0.41421356237309503
10
369.73750000000001
20
-78.724999999999994
10
382.73750000000001
20
-78.725000000000023
42
-0.41421356237309503
10
383.23749999999995
20
-79.224999999999994
10
383.23750000000007
20
-92.224999999999994
42
-0.41421356237309503
10
382.73750000000001
20
-92.725000000000009
10
369.73750000000001
20
-92.725000000000051
42
-0.41421356237309503
10
369.23749999999995
20
-92.224999999999994
0
LWPOLYLINE
5
192
100
AcDbEntity
8
0
100
AcDbPolyline
90
8
70
1
43
0.0
10
364.1875
20
-92.224999999999994
42
-0.41421356237309503
10
363.6875
20
-92.725000000000009
10
350.6875
20
-92.725000000000051
42
-0.41421356237309503
10
350.1875
20
-92.224999999999994
10
350.18750000000006
20
-79.224999999999994
42
-0.41421356237309503
10
350.6875
20
-78.724999999999994
10
363.6875
20
-78.725000000000023
42
-0.41421356237309503
10
364.18749999999994
20
-79.224999999999994
0
LWPOLYLINE
5
193
100
AcDbEntity
8
0
100
AcDbPolyline
90
8
70
1
43
0.0
10
331.63749999999999
20
-92.724999999999966
42
-0.41421356237309503
10
331.13750000000005
20
-92.224999999999994
10
331.13750000000005
20
-79.224999999999994
42
-0.41421356237309503
10
331.63749999999999
20
-78.724999999999994
10
344.63749999999999
20
-78.725000000000023
42
-0.41421356237309503
10
345.13749999999993
20
-79.224999999999994
10
345.13750000000005
20
-92.224999999999994
42
-0.41421356237309503
10
344.63749999999999
20
-92.725000000000009
0
LWPOLYLINE
5
194
100
AcDbEntity
8
0
100
AcDbPolyline
90
8
70
1
43
0.0
10
385.76250000000005
20
-0.99999999999999645
10
385.76250000000005
20
-94.25
42
-0.41421356237313145
10
384.76249999999999
20
-95.25
10
1.0000000000000002
20
-95.25
42
-0.41421356237309809
10
-6.8001160258290838e-15
20
-94.25
10
0
20
-0.99999999999999656
42
-0.41421356237309415
10
1.0000000000000142
20
0
10
384.76249999999999
20
-1.3600232051658168e-14
42
-0.41421356237312751
0
ENDSEC
0
SECTION
2
OBJECTS
0
DICTIONARY
5
C
100
AcDbDictionary
3
ACAD_GROUP
350
D
3
ACAD_MLINESTYLE
350
17
0
DICTIONARY
5
D
100
AcDbDictionary
0
DICTIONARY
5
1A
330
C
100
AcDbDictionary
0
DICTIONARY
5
17
100
AcDbDictionary
0
ENDSEC
0
EOF
