0
SECTION
2
HEADER
9
$INSUNITS
70
4
9
$ACADVER
1
AC1014
9
$HANDSEED
5
FFFF
0
ENDSEC
0
SECTION
2
TABLES
0
TABLE
2
VPORT
5
8
100
AcDbSymbolTable
0
ENDTAB
0
TABLE
2
LTYPE
5
5
100
AcDbSymbolTable
0
LTYPE
5
14
100
AcDbSymbolTableRecord
100
AcDbLinetypeTableRecord
2
BYBLOCK
70
0
0
LTYPE
5
15
100
AcDbSymbolTableRecord
100
AcDbLinetypeTableRecord
2
BYLAYER
70
0
0
ENDTAB
0
TABLE
2
LAYER
5
2
100
AcDbSymbolTable
70
2
0
LAYER
5
50
100
AcDbSymbolTableRecord
100
AcDbLayerTableRecord
2
0
70
0
6
CONTINUOUS
0
ENDTAB
0
TABLE
2
STYLE
5
3
100
AcDbSymbolTable
70
1
0
STYLE
5
11
100
AcDbSymbolTableRecord
100
AcDbTextStyleTableRecord
2
STANDARD
70
0
0
ENDTAB
0
TABLE
2
VIEW
5
6
100
AcDbSymbolTable
70
0
0
ENDTAB
0
TABLE
2
UCS
5
7
100
AcDbSymbolTable
70
0
0
ENDTAB
0
TABLE
2
APPID
5
9
100
AcDbSymbolTable
70
2
0
APPID
5
12
100
AcDbSymbolTableRecord
100
AcDbRegAppTableRecord
2
ACAD
70
0
0
ENDTAB
0
TABLE
2
DIMSTYLE
5
A
100
AcDbSymbolTable
70
1
0
ENDTAB
0
TABLE
2
BLOCK_RECORD
5
1
100
AcDbSymbolTable
70
1
0
BLOCK_RECORD
5
1F
100
AcDbSymbolTableRecord
100
AcDbBlockTableRecord
2
*MODEL_SPACE
0
BLOCK_RECORD
5
1B
100
AcDbSymbolTableRecord
100
AcDbBlockTableRecord
2
*PAPER_SPACE
0
ENDTAB
0
ENDSEC
0
SECTION
2
BLOCKS
0
BLOCK
5
20
100
AcDbEntity
100
AcDbBlockBegin
2
*MODEL_SPACE
0
ENDBLK
5
21
100
AcDbEntity
100
AcDbBlockEnd
0
BLOCK
5
1C
100
AcDbEntity
100
AcDbBlockBegin
2
*PAPER_SPACE
0
ENDBLK
5
1D
100
AcDbEntity
100
AcDbBlockEnd
0
ENDSEC
0
SECTION
2
ENTITIES
0
ARC
5
100
100
AcDbEntity
8
0
100
AcDbCircle
10
209.28375001490116
20
-93.49499999999999
30
1.6000000000000003
40
0.49999999999997158
210
0
220
0
230
1
100
AcDbArc
50
180
51
270
0
LINE
5
101
100
AcDbEntity
8
0
100
AcDbLine
10
221.77700001490115
20
-78.495000000000005
30
1.599999999999993
11
221.77700001490115
21
-79.99500143048563
31
1.599999999999993
0
ARC
5
102
100
AcDbEntity
8
0
100
AcDbCircle
10
227.04625001490115
20
-74.445000000000007
30
1.6000000000000003
40
0.49999999999999822
210
0
220
0
230
1
100
AcDbArc
50
-90
51
0
0
LINE
5
103
100
AcDbEntity
8
0
100
AcDbLine
10
213.54625001490115
20
-61.445
30
1.6000000000000003
11
213.54625001490115
21
-74.445000000000007
31
1.6000000000000003
0
ARC
5
104
100
AcDbEntity
8
0
100
AcDbCircle
10
214.04625001490118
20
-61.445
30
1.6000000000000003
40
0.49999999999999822
210
0
220
-0
230
1
100
AcDbArc
50
90
51
180
0
LINE
5
105
100
AcDbEntity
8
0
100
AcDbLine
10
194.99625001490116
20
-60.945
30
1.6000000000000003
11
207.99625001490119
21
-60.945
31
1.6000000000000003
0
LINE
5
106
100
AcDbEntity
8
0
100
AcDbLine
10
208.49625001490119
20
-61.445000000000007
30
1.6000000000000003
11
208.49625001490119
21
-74.445000000000007
31
1.6000000000000003
0
ARC
5
107
100
AcDbEntity
8
0
100
AcDbCircle
10
207.99625001490119
20
-74.445000000000007
30
1.6000000000000003
40
0.49999999999999822
210
0
220
0
230
1
100
AcDbArc
50
-90
51
0
0
LINE
5
108
100
AcDbEntity
8
0
100
AcDbLine
10
16.758750014901164
20
-97.52000000000001
30
1.6000000000000003
11
395.75875001490118
21
-97.519999999999982
31
1.6000000000000003
0
ARC
5
109
100
AcDbEntity
8
0
100
AcDbCircle
10
222.2770000149012
20
-78.495000000000005
30
1.599999999999993
40
0.49999999999999822
210
0
220
-0
230
1
100
AcDbArc
50
90
51
180
0
ARC
5
110
100
AcDbEntity
8
0
100
AcDbCircle
10
204.52800001490118
20
-92.495000000000005
30
1.6000000000000003
40
0.49999999999998934
210
0
220
0
230
1
100
AcDbArc
50
-90
51
0
0
LINE
5
111
100
AcDbEntity
8
0
100
AcDbLine
10
208.78375001490122
20
-80.495000000000019
30
1.599999999999993
11
208.78375001490122
21
-93.49499999999999
31
1.6000000000000003
0
ARC
5
112
100
AcDbEntity
8
0
100
AcDbCircle
10
209.28375001490116
20
-80.495000000000019
30
1.599999999999993
40
0.50000000000001044
210
0
220
-0
230
1
100
AcDbArc
50
89.99999343959189
51
180
0
ARC
5
113
100
AcDbEntity
8
0
100
AcDbCircle
10
18.783750014901162
20
-23.345000000000002
30
1.6000000000000003
40
0.50000000000000266
210
0
220
-0
230
1
100
AcDbArc
50
90
51
180
0
ARC
5
114
100
AcDbEntity
8
0
100
AcDbCircle
10
18.783750014901162
20
-42.394999999999996
30
1.6000000000000003
40
0.49999999999998934
210
0
220
-0
230
1
100
AcDbArc
50
90
51
180
0
ARC
5
115
100
AcDbEntity
8
0
100
AcDbCircle
10
31.783750014901166
20
-74.445000000000007
30
1.6000000000000003
40
0.49999999999999822
210
0
220
0
230
1
100
AcDbArc
50
-90
51
0
0
ARC
5
116
100
AcDbEntity
8
0
100
AcDbCircle
10
18.783750014901162
20
-36.344999999999999
30
1.6000000000000003
40
0.50000000000000044
210
0
220
0
230
1
100
AcDbArc
50
180
51
270
0
LINE
5
117
100
AcDbEntity
8
0
100
AcDbLine
10
18.783750014901162
20
-93.995000000000005
30
1.6000000000000003
11
41.308750014901165
21
-93.995000000000005
31
1.6000000000000003
0
LINE
5
118
100
AcDbEntity
8
0
100
AcDbLine
10
32.283750014901159
20
-42.394999999999996
30
1.6000000000000003
11
32.283750014901159
21
-55.395000000000003
31
1.6000000000000003
0
LINE
5
119
100
AcDbEntity
8
0
100
AcDbLine
10
51.33375001490117
20
-42.394999999999996
30
1.6000000000000003
11
51.333750014901163
21
-55.395000000000003
31
1.6000000000000003
0
ARC
5
120
100
AcDbEntity
8
0
100
AcDbCircle
10
37.833750014901163
20
-36.344999999999999
30
1.6000000000000003
40
0.49999999999999822
210
0
220
0
230
1
100
AcDbArc
50
180
51
270
0
LINE
5
121
100
AcDbEntity
8
0
100
AcDbLine
10
18.783750014901162
20
-74.945000000000007
30
1.6000000000000003
11
31.783750014901166
21
-74.945000000000007
31
1.6000000000000003
0
ARC
5
122
100
AcDbEntity
8
0
100
AcDbCircle
10
37.833750014901163
20
-61.445
30
1.6000000000000003
40
0.49999999999999822
210
0
220
-0
230
1
100
AcDbArc
50
90
51
180
0
LINE
5
123
100
AcDbEntity
8
0
100
AcDbLine
10
18.783750014901162
20
-60.945
30
1.6000000000000003
11
31.783750014901166
21
-60.945
31
1.6000000000000003
0
ARC
5
124
100
AcDbEntity
8
0
100
AcDbCircle
10
41.308750014901165
20
-93.49499999999999
30
1.6000000000000003
40
0.50000000000000711
210
0
220
0
230
1
100
AcDbArc
50
-90
51
0
0
ARC
5
125
100
AcDbEntity
8
0
100
AcDbCircle
10
18.783750014901162
20
-74.445000000000007
30
1.6000000000000003
40
0.50000000000000044
210
0
220
0
230
1
100
AcDbArc
50
180
51
270
0
ARC
5
126
100
AcDbEntity
8
0
100
AcDbCircle
10
31.783750014901166
20
-36.344999999999999
30
1.6000000000000003
40
0.49999999999999822
210
0
220
0
230
1
100
AcDbArc
50
-90
51
0
0
ARC
5
127
100
AcDbEntity
8
0
100
AcDbCircle
10
50.83375001490117
20
-61.445
30
1.6000000000000003
40
0.50000000000000711
210
0
220
0
230
1
100
AcDbArc
50
0
51
90
0
LINE
5
128
100
AcDbEntity
8
0
100
AcDbLine
10
18.283750014901162
20
-23.345000000000002
30
1.6000000000000003
11
18.283750014901162
21
-36.344999999999999
31
1.6000000000000003
0
ARC
5
129
100
AcDbEntity
8
0
100
AcDbCircle
10
56.88375001490116
20
-61.445
30
1.6000000000000003
40
0.49999999999999822
210
0
220
-0
230
1
100
AcDbArc
50
90
51
180
0
LINE
5
130
100
AcDbEntity
8
0
100
AcDbLine
10
25.870750014901166
20
-77.995000000000005
30
1.6000000000000003
11
19.870750014901162
21
-77.995000000000005
31
1.6000000000000003
0
ARC
5
131
100
AcDbEntity
8
0
100
AcDbCircle
10
50.83375001490117
20
-42.394999999999996
30
1.6000000000000003
40
0.50000000000000711
210
0
220
0
230
1
100
AcDbArc
50
0
51
90
0
ARC
5
132
100
AcDbEntity
8
0
100
AcDbCircle
10
37.833750014901163
20
-55.395000000000003
30
1.6000000000000003
40
0.49999999999999822
210
0
220
0
230
1
100
AcDbArc
50
180
51
270
0
ARC
5
133
100
AcDbEntity
8
0
100
AcDbCircle
10
56.88375001490116
20
-55.395000000000003
30
1.6000000000000003
40
0.49999999999999822
210
0
220
0
230
1
100
AcDbArc
50
180
51
270
0
ARC
5
134
100
AcDbEntity
8
0
100
AcDbCircle
10
18.783750014901162
20
-80.495000000000005
30
1.6000000000000003
40
0.49999999999999822
210
0
220
-0
230
1
100
AcDbArc
50
90
51
180
0
ARC
5
135
100
AcDbEntity
8
0
100
AcDbCircle
10
50.83375001490117
20
-55.395000000000003
30
1.6000000000000003
40
0.49999999999999822
210
0
220
0
230
1
100
AcDbArc
50
-90
51
0
0
LINE
5
136
100
AcDbEntity
8
0
100
AcDbLine
10
18.783750014901162
20
-36.844999999999999
30
1.6000000000000003
11
31.783750014901166
21
-36.844999999999999
31
1.6000000000000003
0
ARC
5
137
100
AcDbEntity
8
0
100
AcDbCircle
10
207.99625001490119
20
-61.445000000000007
30
1.6000000000000003
40
0.49999999999997158
210
0
220
0
230
1
100
AcDbArc
50
0
51
90
0
LINE
5
138
100
AcDbEntity
8
0
100
AcDbLine
10
214.04625001490118
20
-74.945000000000007
30
1.6000000000000003
11
227.04625001490115
21
-74.945000000000007
31
1.6000000000000003
0
LINE
5
139
100
AcDbEntity
8
0
100
AcDbLine
10
16.758750014901164
20
-19.32
30
1.6000000000000003
11
395.75875001490118
21
-19.320000000000007
31
1.6000000000000003
0
LINE
5
140
100
AcDbEntity
8
0
100
AcDbLine
10
214.04625001490118
20
-60.945
30
1.6000000000000003
11
227.04625001490115
21
-60.944999999999993
31
1.6000000000000003
0
ARC
5
141
100
AcDbEntity
8
0
100
AcDbCircle
10
214.04625001490118
20
-74.445000000000007
30
1.6000000000000003
40
0.50000000000004263
210
0
220
0
230
1
100
AcDbArc
50
180
51
270
0
LINE
5
142
100
AcDbEntity
8
0
100
AcDbLine
10
204.52800001490118
20
-77.995000000000005
30
1.6000000000000003
11
193.76550001490116
21
-77.995000000000005
31
1.6000000000000003
0
LINE
5
143
100
AcDbEntity
8
0
100
AcDbLine
10
227.5462500149012
20
-61.445
30
1.6000000000000003
11
227.5462500149012
21
-74.445000000000007
31
1.6000000000000003
0
ARC
5
144
100
AcDbEntity
8
0
100
AcDbCircle
10
228.27700001490115
20
-78.495000000000005
30
1.6000000000000003
40
0.50000000000004263
210
0
220
0
230
1
100
AcDbArc
50
0
51
90
0
LINE
5
145
100
AcDbEntity
8
0
100
AcDbLine
10
228.7770000149012
20
-79.995000000000005
30
1.6000000000000003
11
228.7770000149012
21
-78.495000000000005
31
1.6000000000000003
0
LINE
5
146
100
AcDbEntity
8
0
100
AcDbLine
10
221.77700001490115
20
-79.99500143048563
30
1.599999999999993
11
209.28375007215152
21
-79.995000000000005
31
1.599999999999993
0
ARC
5
147
100
AcDbEntity
8
0
100
AcDbCircle
10
293.72125001490122
20
-55.395000000000003
30
1.6000000000000003
40
0.50000000000000711
210
0
220
0
230
1
100
AcDbArc
50
-90
51
0
0
ARC
5
148
100
AcDbEntity
8
0
100
AcDbCircle
10
299.77125001490117
20
-55.395000000000003
30
1.6000000000000003
40
0.49999999999997158
210
0
220
0
230
1
100
AcDbArc
50
180
51
270
0
ARC
5
149
100
AcDbEntity
8
0
100
AcDbCircle
10
336.58375001490123
20
-80.495000000000005
30
1.6000000000000003
40
0.49999999999997158
210
0
220
0
230
1
100
AcDbArc
50
0
51
90
0
LINE
5
150
100
AcDbEntity
8
0
100
AcDbLine
10
308.7962500149012
20
-61.445
30
1.6000000000000003
11
308.7962500149012
21
-74.445000000000007
31
1.6000000000000003
0
ARC
5
151
100
AcDbEntity
8
0
100
AcDbCircle
10
242.62125001490119
20
-42.394999999999996
30
1.6000000000000003
40
0.49999999999998934
210
0
220
-0
230
1
100
AcDbArc
50
90
51
180
0
LINE
5
152
100
AcDbEntity
8
0
100
AcDbLine
10
309.29625001490126
20
-60.945
30
1.6000000000000003
11
322.2962500149012
21
-60.944999999999993
31
1.6000000000000003
0
ARC
5
153
100
AcDbEntity
8
0
100
AcDbCircle
10
361.68375001490119
20
-61.445
30
1.6000000000000003
40
0.49999999999999822
210
0
220
-0
230
1
100
AcDbArc
50
90
51
180
0
LINE
5
154
100
AcDbEntity
8
0
100
AcDbLine
10
252.65300001490118
20
-79.995000000000005
30
1.6000000000000003
11
262.7650000149012
21
-79.995000000000005
31
1.6000000000000003
0
LINE
5
155
100
AcDbEntity
8
0
100
AcDbLine
10
380.23375001490126
20
-61.445
30
1.6000000000000003
11
380.23375001490126
21
-74.445000000000007
31
1.6000000000000003
0
ARC
5
156
100
AcDbEntity
8
0
100
AcDbCircle
10
341.3395000149012
20
-40.395000000000003
30
1.6000000000000003
40
0.50000000000000266
210
0
220
-0
230
1
100
AcDbArc
50
90
51
180
0
ARC
5
157
100
AcDbEntity
8
0
100
AcDbCircle
10
342.63375001490118
20
-80.495000000000005
30
1.6000000000000003
40
0.49999999999999822
210
0
220
-0
230
1
100
AcDbArc
50
90
51
180
0
ARC
5
158
100
AcDbEntity
8
0
100
AcDbCircle
10
265.20300001490119
20
-92.49499999999999
30
1.6000000000000003
40
0.50000000000004263
210
0
220
0
230
1
100
AcDbArc
50
180
51
270
0
ARC
5
159
100
AcDbEntity
8
0
100
AcDbCircle
10
362.77750001490119
20
-42.394999999999996
30
1.6000000000000003
40
0.50000000000004263
210
0
220
0
230
1
100
AcDbArc
50
0
51
90
0
LINE
5
160
100
AcDbEntity
8
0
100
AcDbLine
10
155.13375001490115
20
-79.995000000000005
30
1.6000000000000003
11
144.99000001490114
21
-79.995000000000005
31
1.6000000000000003
0
ARC
5
161
100
AcDbEntity
8
0
100
AcDbCircle
10
362.77750001490119
20
-55.395000000000003
30
1.6000000000000003
40
0.49999999999999822
210
0
220
0
230
1
100
AcDbArc
50
-90
51
0
0
ARC
5
162
100
AcDbEntity
8
0
100
AcDbCircle
10
393.73375001490126
20
-93.49499999999999
30
1.6000000000000003
40
0.50000000000000711
210
0
220
0
230
1
100
AcDbArc
50
-90
51
0
0
ARC
5
163
100
AcDbEntity
8
0
100
AcDbCircle
10
374.68375001490125
20
-74.445000000000007
30
1.6000000000000003
40
0.49999999999999822
210
0
220
0
230
1
100
AcDbArc
50
-90
51
0
0
ARC
5
164
100
AcDbEntity
8
0
100
AcDbCircle
10
374.68375001490125
20
-80.494999999999976
30
1.6000000000000003
40
0.49999999999997158
210
0
220
0
230
1
100
AcDbArc
50
0
51
90
0
LINE
5
165
100
AcDbEntity
8
0
100
AcDbLine
10
146.87125001490119
20
-42.394999999999996
30
1.6000000000000003
11
146.87125001490119
21
-55.395000000000003
31
1.6000000000000003
0
ARC
5
166
100
AcDbEntity
8
0
100
AcDbCircle
10
349.77750001490119
20
-42.394999999999996
30
1.6000000000000003
40
0.49999999999998934
210
0
220
-0
230
1
100
AcDbArc
50
90
51
180
0
ARC
5
167
100
AcDbEntity
8
0
100
AcDbCircle
10
312.77125001490117
20
-42.394999999999982
30
1.6000000000000003
40
0.49999999999997158
210
0
220
0
230
1
100
AcDbArc
50
0
51
90
0
ARC
5
168
100
AcDbEntity
8
0
100
AcDbCircle
10
395.75875001490118
20
-95.519999999999953
30
1.6000000000000003
40
2.0000000000000284
210
-0
220
0
230
1
100
AcDbArc
50
270
51
360
0
LINE
5
169
100
AcDbEntity
8
0
100
AcDbLine
10
295.00875001490112
20
-22.844999999999999
30
1.6000000000000003
11
308.00875001490118
21
-22.844999999999999
31
1.6000000000000003
0
ARC
5
170
100
AcDbEntity
8
0
100
AcDbCircle
10
196.09000001490116
20
-93.495000000000005
30
1.6000000000000003
40
0.49999999999998934
210
0
220
0
230
1
100
AcDbArc
50
-90
51
0
0
LINE
5
171
100
AcDbEntity
8
0
100
AcDbLine
10
364.71550001490124
20
-54.39500000000001
30
1.6000000000000003
11
364.71550001490124
21
-40.395000000000003
31
1.6000000000000003
0
LINE
5
172
100
AcDbEntity
8
0
100
AcDbLine
10
342.13375001490124
20
-80.495000000000005
30
1.6000000000000003
11
342.13375001490124
21
-93.49499999999999
31
1.6000000000000003
0
ARC
5
173
100
AcDbEntity
8
0
100
AcDbCircle
10
218.80875001490119
20
-23.345000000000002
30
1.6000000000000003
40
0.50000000000000266
210
0
220
-0
230
1
100
AcDbArc
50
90
51
180
0
LINE
5
174
100
AcDbEntity
8
0
100
AcDbLine
10
144.49000001490114
20
-80.495000000000005
30
1.6000000000000003
11
144.49000001490117
21
-93.49499999999999
31
1.6000000000000003
0
ARC
5
175
100
AcDbEntity
8
0
100
AcDbCircle
10
198.47125001490122
20
-42.394999999999996
30
1.6000000000000003
40
0.49999999999997158
210
0
220
0
230
1
100
AcDbArc
50
0
51
90
0
ARC
5
176
100
AcDbEntity
8
0
100
AcDbCircle
10
204.52125001490117
20
-55.395000000000003
30
1.6000000000000003
40
0.50000000000004263
210
0
220
0
230
1
100
AcDbArc
50
180
51
270
0
LINE
5
177
100
AcDbEntity
8
0
100
AcDbLine
10
47.358750014901162
20
-93.995000000000005
30
1.6000000000000003
11
69.883750014901167
21
-93.995000000000005
31
1.6000000000000003
0
ARC
5
178
100
AcDbEntity
8
0
100
AcDbCircle
10
393.73375001490126
20
-42.394999999999982
30
1.6000000000000003
40
0.49999999999997158
210
0
220
0
230
1
100
AcDbArc
50
0
51
90
0
ARC
5
179
100
AcDbEntity
8
0
100
AcDbCircle
10
361.68375001490119
20
-93.49499999999999
30
1.6000000000000003
40
0.49999999999997158
210
0
220
0
230
1
100
AcDbArc
50
180
51
270
0
ARC
5
180
100
AcDbEntity
8
0
100
AcDbCircle
10
293.72125001490122
20
-42.394999999999996
30
1.6000000000000003
40
0.49999999999997158
210
0
220
0
230
1
100
AcDbArc
50
0
51
90
0
LINE
5
181
100
AcDbEntity
8
0
100
AcDbLine
10
218.30875001490119
20
-23.345000000000002
30
1.6000000000000003
11
218.30875001490119
21
-36.344999999999999
31
1.6000000000000003
0
ARC
5
182
100
AcDbEntity
8
0
100
AcDbCircle
10
369.92125001490126
20
-23.345000000000002
30
1.6000000000000003
40
0.49999999999997158
210
0
220
0
230
1
100
AcDbArc
50
0
51
90
0
ARC
5
183
100
AcDbEntity
8
0
100
AcDbCircle
10
342.63375001490118
20
-93.49499999999999
30
1.6000000000000003
40
0.49999999999997158
210
0
220
0
230
1
100
AcDbArc
50
180
51
270
0
LINE
5
184
100
AcDbEntity
8
0
100
AcDbLine
10
204.52125001490117
20
-55.89500000000001
30
1.6000000000000003
11
217.52125001490114
21
-55.895000000000003
31
1.6000000000000003
0
ARC
5
185
100
AcDbEntity
8
0
100
AcDbCircle
10
356.9212500149012
20
-23.345000000000002
30
1.6000000000000003
40
0.50000000000000266
210
0
220
-0
230
1
100
AcDbArc
50
90
51
180
0
ARC
5
186
100
AcDbEntity
8
0
100
AcDbCircle
10
262.7650000149012
20
-93.495000000000005
30
1.6000000000000003
40
0.49999999999998934
210
0
220
0
230
1
100
AcDbArc
50
-90
51
0
0
LINE
5
187
100
AcDbEntity
8
0
100
AcDbLine
10
299.77125001490117
20
-41.89500000000001
30
1.6000000000000003
11
312.77125001490117
21
-41.89500000000001
31
1.6000000000000003
0
LINE
5
188
100
AcDbEntity
8
0
100
AcDbLine
10
175.94625001490115
20
-74.945000000000007
30
1.6000000000000003
11
188.94625001490118
21
-74.945000000000007
31
1.6000000000000003
0
ARC
5
189
100
AcDbEntity
8
0
100
AcDbCircle
10
380.7337500149012
20
-80.495000000000005
30
1.6000000000000003
40
0.49999999999999822
210
0
220
-0
230
1
100
AcDbArc
50
90
51
180
0
LINE
5
190
100
AcDbEntity
8
0
100
AcDbLine
10
371.71550001490118
20
-54.39500000000001
30
1.6000000000000003
11
371.71550001490118
21
-40.395000000000003
31
1.6000000000000003
0
LINE
5
191
100
AcDbEntity
8
0
100
AcDbLine
10
184.97125001490119
20
-42.394999999999996
30
1.6000000000000003
11
184.97125001490119
21
-55.395000000000003
31
1.6000000000000003
0
LINE
5
192
100
AcDbEntity
8
0
100
AcDbLine
10
303.74625001490119
20
-61.445
30
1.6000000000000003
11
303.74625001490119
21
-74.445000000000007
31
1.6000000000000003
0
LINE
5
193
100
AcDbEntity
8
0
100
AcDbLine
10
380.7337500149012
20
-41.89500000000001
30
1.6000000000000003
11
393.73375001490126
21
-41.89500000000001
31
1.6000000000000003
0
ARC
5
194
100
AcDbEntity
8
0
100
AcDbCircle
10
194.99625001490116
20
-61.445
30
1.6000000000000003
40
0.49999999999999822
210
0
220
-0
230
1
100
AcDbArc
50
90
51
180
0
LINE
5
195
100
AcDbEntity
8
0
100
AcDbLine
10
223.07125001490121
20
-42.394999999999996
30
1.6000000000000003
11
223.07125001490121
21
-55.395000000000003
31
1.6000000000000003
0
ARC
5
196
100
AcDbEntity
8
0
100
AcDbCircle
10
336.58375001490123
20
-93.49499999999999
30
1.6000000000000003
40
0.50000000000000711
210
0
220
0
230
1
100
AcDbArc
50
-90
51
0
0
LINE
5
197
100
AcDbEntity
8
0
100
AcDbLine
10
380.7337500149012
20
-60.945
30
1.6000000000000003
11
393.73375001490126
21
-60.945000000000029
31
1.6000000000000003
0
LINE
5
198
100
AcDbEntity
8
0
100
AcDbLine
10
361.68375001490119
20
-79.995000000000005
30
1.6000000000000003
11
374.68375001490125
21
-79.995000000000005
31
1.6000000000000003
0
ARC
5
199
100
AcDbEntity
8
0
100
AcDbCircle
10
242.62125001490119
20
-55.395000000000003
30
1.6000000000000003
40
0.49999999999997158
210
0
220
0
230
1
100
AcDbArc
50
180
51
270
0
ARC
5
200
100
AcDbEntity
8
0
100
AcDbCircle
10
212.75875001490121
20
-36.344999999999999
30
1.6000000000000003
40
0.49999999999999822
210
0
220
0
230
1
100
AcDbArc
50
-90
51
0
0
ARC
5
201
100
AcDbEntity
8
0
100
AcDbCircle
10
380.7337500149012
20
-55.395000000000032
30
1.6000000000000003
40
0.49999999999997158
210
0
220
0
230
1
100
AcDbArc
50
180
51
270
0
ARC
5
202
100
AcDbEntity
8
0
100
AcDbCircle
10
155.63375001490118
20
-78.495000000000005
30
1.6000000000000003
40
0.49999999999999822
210
0
220
-0
230
1
100
AcDbArc
50
90
51
180
0
LINE
5
203
100
AcDbEntity
8
0
100
AcDbLine
10
380.7337500149012
20
-79.995000000000005
30
1.6000000000000003
11
393.73375001490126
21
-79.995000000000005
31
1.6000000000000003
0
ARC
5
204
100
AcDbEntity
8
0
100
AcDbCircle
10
327.05875001490119
20
-23.345000000000002
30
1.6000000000000003
40
0.49999999999997158
210
0
220
0
230
1
100
AcDbArc
50
0
51
90
0
LINE
5
205
100
AcDbEntity
8
0
100
AcDbLine
10
56.88375001490116
20
-60.945
30
1.6000000000000003
11
69.883750014901167
21
-60.945
31
1.6000000000000003
0
LINE
5
206
100
AcDbEntity
8
0
100
AcDbLine
10
335.49000001490117
20
-60.945
30
1.6000000000000003
11
348.49000001490117
21
-60.945
31
1.6000000000000003
0
LINE
5
207
100
AcDbEntity
8
0
100
AcDbLine
10
380.7337500149012
20
-36.844999999999999
30
1.6000000000000003
11
393.73375001490126
21
-36.844999999999999
31
1.6000000000000003
0
LINE
5
208
100
AcDbEntity
8
0
100
AcDbLine
10
334.99000001490117
20
-61.445
30
1.6000000000000003
11
334.99000001490117
21
-74.444999999999993
31
1.6000000000000003
0
ARC
5
209
100
AcDbEntity
8
0
100
AcDbCircle
10
97.36500001490117
20
-93.49499999999999
30
1.6000000000000003
40
0.50000000000000711
210
0
220
0
230
1
100
AcDbArc
50
180
51
270
0
LINE
5
210
100
AcDbEntity
8
0
100
AcDbLine
10
394.2337500149012
20
-80.494999999999976
30
1.6000000000000003
11
394.2337500149012
21
-93.49499999999999
31
1.6000000000000003
0
LINE
5
211
100
AcDbEntity
8
0
100
AcDbLine
10
194.20875001490117
20
-23.345000000000002
30
1.6000000000000003
11
194.20875001490117
21
-36.344999999999999
31
1.6000000000000003
0
ARC
5
212
100
AcDbEntity
8
0
100
AcDbCircle
10
393.73375001490126
20
-36.344999999999999
30
1.6000000000000003
40
0.49999999999999822
210
0
220
0
230
1
100
AcDbArc
50
-90
51
0
0
ARC
5
213
100
AcDbEntity
8
0
100
AcDbCircle
10
314.05875001490119
20
-36.344999999999999
30
1.6000000000000003
40
0.49999999999997158
210
0
220
0
230
1
100
AcDbArc
50
180
51
270
0
LINE
5
214
100
AcDbEntity
8
0
100
AcDbLine
10
313.55875001490119
20
-23.345000000000002
30
1.6000000000000003
11
313.55875001490119
21
-36.344999999999999
31
1.6000000000000003
0
LINE
5
215
100
AcDbEntity
8
0
100
AcDbLine
10
380.7337500149012
20
-74.944999999999979
30
1.6000000000000003
11
393.73375001490126
21
-74.945000000000007
31
1.6000000000000003
0
ARC
5
216
100
AcDbEntity
8
0
100
AcDbCircle
10
236.57125001490115
20
-55.395000000000003
30
1.6000000000000003
40
0.50000000000000711
210
0
220
0
230
1
100
AcDbArc
50
-90
51
0
0
LINE
5
217
100
AcDbEntity
8
0
100
AcDbLine
10
348.99000001490117
20
-61.444999999999972
30
1.6000000000000003
11
348.99000001490117
21
-74.445000000000007
31
1.6000000000000003
0
ARC
5
218
100
AcDbEntity
8
0
100
AcDbCircle
10
347.3395000149012
20
-40.394999999999968
30
1.6000000000000003
40
0.49999999999997158
210
0
220
0
230
1
100
AcDbArc
50
0
51
90
0
ARC
5
219
100
AcDbEntity
8
0
100
AcDbCircle
10
237.8587500149012
20
-23.345000000000002
30
1.6000000000000003
40
0.50000000000000266
210
0
220
-0
230
1
100
AcDbArc
50
90
51
180
0
ARC
5
220
100
AcDbEntity
8
0
100
AcDbCircle
10
308.00875001490118
20
-36.344999999999999
30
1.6000000000000003
40
0.49999999999999822
210
0
220
0
230
1
100
AcDbArc
50
-90
51
0
0
LINE
5
221
100
AcDbEntity
8
0
100
AcDbLine
10
294.50875001490118
20
-23.345000000000002
30
1.6000000000000003
11
294.50875001490118
21
-36.344999999999992
31
1.6000000000000003
0
ARC
5
222
100
AcDbEntity
8
0
100
AcDbCircle
10
395.75875001490118
20
-21.320000000000032
30
1.6000000000000003
40
2.0000000000000284
210
0
220
-0
230
1
100
AcDbArc
50
0
51
90
0
LINE
5
223
100
AcDbEntity
8
0
100
AcDbLine
10
333.10875001490115
20
-36.844999999999999
30
1.6000000000000003
11
346.1087500149012
21
-36.844999999999999
31
1.6000000000000003
0
ARC
5
224
100
AcDbEntity
8
0
100
AcDbCircle
10
141.32125001490118
20
-80.495000000000005
30
1.6000000000000003
40
0.50000000000000711
210
0
220
0
230
1
100
AcDbArc
50
0
51
90
0
LINE
5
225
100
AcDbEntity
8
0
100
AcDbLine
10
322.79625001490115
20
-61.445
30
1.6000000000000003
11
322.79625001490115
21
-74.445000000000007
31
1.6000000000000003
0
LINE
5
226
100
AcDbEntity
8
0
100
AcDbLine
10
337.08375001490117
20
-93.49499999999999
30
1.6000000000000003
11
337.08375001490117
21
-80.495000000000005
31
1.6000000000000003
0
ARC
5
227
100
AcDbEntity
8
0
100
AcDbCircle
10
193.70875001490111
20
-23.345000000000002
30
1.6000000000000003
40
0.50000000000004263
210
0
220
0
230
1
100
AcDbArc
50
0
51
90
0
LINE
5
228
100
AcDbEntity
8
0
100
AcDbLine
10
199.25875001490118
20
-23.345000000000002
30
1.6000000000000003
11
199.25875001490118
21
-36.344999999999999
31
1.6000000000000003
0
ARC
5
229
100
AcDbEntity
8
0
100
AcDbCircle
10
348.49000001490117
20
-74.445000000000007
30
1.6000000000000003
40
0.49999999999999822
210
0
220
0
230
1
100
AcDbArc
50
-90
51
0
0
LINE
5
230
100
AcDbEntity
8
0
100
AcDbLine
10
295.00875001490112
20
-36.844999999999999
30
1.6000000000000003
11
308.00875001490118
21
-36.844999999999999
31
1.6000000000000003
0
ARC
5
231
100
AcDbEntity
8
0
100
AcDbCircle
10
331.82125001490124
20
-55.395000000000003
30
1.6000000000000003
40
0.50000000000000711
210
0
220
0
230
1
100
AcDbArc
50
-90
51
0
0
LINE
5
232
100
AcDbEntity
8
0
100
AcDbLine
10
309.29625001490126
20
-74.945000000000007
30
1.6000000000000003
11
322.2962500149012
21
-74.945000000000007
31
1.6000000000000003
0
LINE
5
233
100
AcDbEntity
8
0
100
AcDbLine
10
237.07125001490118
20
-42.394999999999996
30
1.6000000000000003
11
237.07125001490118
21
-55.395000000000003
31
1.6000000000000003
0
LINE
5
234
100
AcDbEntity
8
0
100
AcDbLine
10
180.70875001490117
20
-22.844999999999999
30
1.6000000000000003
11
193.70875001490111
21
-22.844999999999995
31
1.6000000000000003
0
ARC
5
235
100
AcDbEntity
8
0
100
AcDbCircle
10
393.73375001490126
20
-80.494999999999976
30
1.6000000000000003
40
0.49999999999997158
210
0
220
0
230
1
100
AcDbArc
50
0
51
90
0
ARC
5
236
100
AcDbEntity
8
0
100
AcDbCircle
10
331.82125001490124
20
-42.394999999999996
30
1.6000000000000003
40
0.49999999999997158
210
0
220
0
230
1
100
AcDbArc
50
0
51
90
0
LINE
5
237
100
AcDbEntity
8
0
100
AcDbLine
10
249.2650000149012
20
-92.995000000000005
30
1.6000000000000003
11
249.2650000149012
21
-93.49499999999999
31
1.6000000000000003
0
ARC
5
238
100
AcDbEntity
8
0
100
AcDbCircle
10
318.82125001490118
20
-55.395000000000003
30
1.6000000000000003
40
0.49999999999997158
210
0
220
0
230
1
100
AcDbArc
50
180
51
270
0
ARC
5
239
100
AcDbEntity
8
0
100
AcDbCircle
10
380.7337500149012
20
-93.49499999999999
30
1.6000000000000003
40
0.49999999999997158
210
0
220
0
230
1
100
AcDbArc
50
180
51
270
0
LINE
5
240
100
AcDbEntity
8
0
100
AcDbLine
10
127.82125001490117
20
-42.394999999999996
30
1.6000000000000003
11
127.82125001490117
21
-55.395000000000003
31
1.6000000000000003
0
LINE
5
241
100
AcDbEntity
8
0
100
AcDbLine
10
347.3395000149012
20
-39.895000000000003
30
1.6000000000000003
11
341.3395000149012
21
-39.895000000000003
31
1.6000000000000003
0
ARC
5
242
100
AcDbEntity
8
0
100
AcDbCircle
10
346.1087500149012
20
-36.344999999999999
30
1.6000000000000003
40
0.49999999999999822
210
0
220
0
230
1
100
AcDbArc
50
-90
51
0
0
LINE
5
243
100
AcDbEntity
8
0
100
AcDbLine
10
308.50875001490118
20
-23.345000000000013
30
1.6000000000000003
11
308.50875001490118
21
-36.344999999999999
31
1.6000000000000003
0
ARC
5
244
100
AcDbEntity
8
0
100
AcDbCircle
10
347.3395000149012
20
-54.39500000000001
30
1.6000000000000003
40
0.49999999999999822
210
0
220
0
230
1
100
AcDbArc
50
-90
51
0
0
ARC
5
245
100
AcDbEntity
8
0
100
AcDbCircle
10
144.99000001490114
20
-80.495000000000005
30
1.6000000000000003
40
0.49999999999999822
210
0
220
-0
230
1
100
AcDbArc
50
90
51
180
0
ARC
5
246
100
AcDbEntity
8
0
100
AcDbCircle
10
361.68375001490119
20
-80.495000000000005
30
1.6000000000000003
40
0.49999999999999822
210
0
220
-0
230
1
100
AcDbArc
50
90
51
180
0
ARC
5
247
100
AcDbEntity
8
0
100
AcDbCircle
10
237.8587500149012
20
-36.344999999999999
30
1.6000000000000003
40
0.50000000000004263
210
0
220
0
230
1
100
AcDbArc
50
180
51
270
0
ARC
5
248
100
AcDbEntity
8
0
100
AcDbCircle
10
295.00875001490112
20
-36.344999999999992
30
1.6000000000000003
40
0.49999999999997158
210
0
220
0
230
1
100
AcDbArc
50
180
51
270
0
LINE
5
249
100
AcDbEntity
8
0
100
AcDbLine
10
232.30875001490119
20
-23.345000000000002
30
1.6000000000000003
11
232.30875001490119
21
-36.344999999999999
31
1.6000000000000003
0
LINE
5
250
100
AcDbEntity
8
0
100
AcDbLine
10
141.82125001490118
20
-42.394999999999996
30
1.6000000000000003
11
141.82125001490118
21
-55.395000000000003
31
1.6000000000000003
0
LINE
5
251
100
AcDbEntity
8
0
100
AcDbLine
10
380.23375001490126
20
-23.345000000000002
30
1.6000000000000003
11
380.23375001490126
21
-36.345000000000027
31
1.6000000000000003
0
ARC
5
252
100
AcDbEntity
8
0
100
AcDbCircle
10
217.52125001490114
20
-42.394999999999996
30
1.6000000000000003
40
0.50000000000004263
210
0
220
0
230
1
100
AcDbArc
50
0
51
90
0
ARC
5
253
100
AcDbEntity
8
0
100
AcDbCircle
10
312.77125001490117
20
-55.395000000000003
30
1.6000000000000003
40
0.49999999999999822
210
0
220
0
230
1
100
AcDbArc
50
-90
51
0
0
LINE
5
254
100
AcDbEntity
8
0
100
AcDbLine
10
265.93375001490119
20
-92.995000000000005
30
1.6000000000000003
11
265.20300001490119
21
-92.995000000000005
31
1.6000000000000003
0
ARC
5
255
100
AcDbEntity
8
0
100
AcDbCircle
10
393.73375001490126
20
-61.445
30
1.6000000000000003
40
0.49999999999997158
210
0
220
0
230
1
100
AcDbArc
50
0
51
90
0
ARC
5
256
100
AcDbEntity
8
0
100
AcDbCircle
10
346.1087500149012
20
-23.344999999999978
30
1.6000000000000003
40
0.49999999999997158
210
0
220
0
230
1
100
AcDbArc
50
0
51
90
0
ARC
5
257
100
AcDbEntity
8
0
100
AcDbCircle
10
303.24625001490119
20
-74.445000000000007
30
1.6000000000000003
40
0.49999999999999822
210
0
220
0
230
1
100
AcDbArc
50
-90
51
0
0
ARC
5
258
100
AcDbEntity
8
0
100
AcDbCircle
10
374.68375001490125
20
-61.444999999999972
30
1.6000000000000003
40
0.49999999999997158
210
0
220
0
230
1
100
AcDbArc
50
0
51
90
0
ARC
5
259
100
AcDbEntity
8
0
100
AcDbCircle
10
212.75875001490121
20
-23.345000000000002
30
1.6000000000000003
40
0.49999999999997158
210
0
220
0
230
1
100
AcDbArc
50
0
51
90
0
ARC
5
260
100
AcDbEntity
8
0
100
AcDbCircle
10
333.10875001490115
20
-23.345000000000002
30
1.6000000000000003
40
0.50000000000000266
210
0
220
-0
230
1
100
AcDbArc
50
90
51
180
0
ARC
5
261
100
AcDbEntity
8
0
100
AcDbCircle
10
380.7337500149012
20
-74.445000000000007
30
1.6000000000000003
40
0.49999999999997158
210
0
220
0
230
1
100
AcDbArc
50
180
51
270
0
LINE
5
262
100
AcDbEntity
8
0
100
AcDbLine
10
333.10875001490115
20
-22.844999999999999
30
1.6000000000000003
11
346.1087500149012
21
-22.844999999999999
31
1.6000000000000003
0
LINE
5
263
100
AcDbEntity
8
0
100
AcDbLine
10
261.6712500149012
20
-55.89500000000001
30
1.6000000000000003
11
274.67125001490115
21
-55.895000000000003
31
1.6000000000000003
0
ARC
5
264
100
AcDbEntity
8
0
100
AcDbCircle
10
303.24625001490119
20
-61.445
30
1.6000000000000003
40
0.49999999999997158
210
0
220
0
230
1
100
AcDbArc
50
0
51
90
0
ARC
5
265
100
AcDbEntity
8
0
100
AcDbCircle
10
98.452000014901188
20
-59.444999999999993
30
1.6000000000000003
40
0.49999999999998934
210
0
220
-0
230
1
100
AcDbArc
50
90
51
180
0
LINE
5
266
100
AcDbEntity
8
0
100
AcDbLine
10
380.7337500149012
20
-22.844999999999999
30
1.6000000000000003
11
393.73375001490126
21
-22.844999999999999
31
1.6000000000000003
0
LINE
5
267
100
AcDbEntity
8
0
100
AcDbLine
10
335.49000001490117
20
-74.945000000000007
30
1.6000000000000003
11
348.49000001490117
21
-74.945000000000007
31
1.6000000000000003
0
ARC
5
268
100
AcDbEntity
8
0
100
AcDbCircle
10
266.43375001490119
20
-93.49499999999999
30
1.6000000000000003
40
0.50000000000004263
210
0
220
0
230
1
100
AcDbArc
50
180
51
270
0
LINE
5
269
100
AcDbEntity
8
0
100
AcDbLine
10
141.82125001490118
20
-80.495000000000005
30
1.6000000000000003
11
141.82125001490118
21
-93.49499999999999
31
1.6000000000000003
0
LINE
5
270
100
AcDbEntity
8
0
100
AcDbLine
10
128.32125001490118
20
-55.89500000000001
30
1.6000000000000003
11
141.32125001490118
21
-55.89500000000001
31
1.6000000000000003
0
ARC
5
271
100
AcDbEntity
8
0
100
AcDbCircle
10
380.7337500149012
20
-36.345000000000027
30
1.6000000000000003
40
0.49999999999997158
210
0
220
0
230
1
100
AcDbArc
50
180
51
270
0
ARC
5
272
100
AcDbEntity
8
0
100
AcDbCircle
10
333.10875001490115
20
-36.344999999999999
30
1.6000000000000003
40
0.49999999999997158
210
0
220
0
230
1
100
AcDbArc
50
180
51
270
0
LINE
5
273
100
AcDbEntity
8
0
100
AcDbLine
10
104.95200001490119
20
-73.444999999999993
30
1.6000000000000003
11
104.95200001490117
21
-59.444999999999993
31
1.6000000000000003
0
LINE
5
274
100
AcDbEntity
8
0
100
AcDbLine
10
157.99000001490117
20
-79.995000000000005
30
1.6000000000000003
11
157.99000001490117
21
-79.995000000000005
31
1.6000000000000003
0
LINE
5
275
100
AcDbEntity
8
0
100
AcDbLine
10
332.6087500149012
20
-23.345000000000002
30
1.6000000000000003
11
332.6087500149012
21
-36.344999999999999
31
1.6000000000000003
0
ARC
5
276
100
AcDbEntity
8
0
100
AcDbCircle
10
380.7337500149012
20
-61.445
30
1.6000000000000003
40
0.49999999999999822
210
0
220
-0
230
1
100
AcDbArc
50
90
51
180
0
ARC
5
277
100
AcDbEntity
8
0
100
AcDbCircle
10
335.49000001490117
20
-61.445
30
1.6000000000000003
40
0.49999999999999822
210
0
220
-0
230
1
100
AcDbArc
50
90
51
180
0
ARC
5
278
100
AcDbEntity
8
0
100
AcDbCircle
10
223.57125001490118
20
-55.395000000000003
30
1.6000000000000003
40
0.49999999999997158
210
0
220
0
230
1
100
AcDbArc
50
180
51
270
0
ARC
5
279
100
AcDbEntity
8
0
100
AcDbCircle
10
262.7650000149012
20
-80.494999999999976
30
1.6000000000000003
40
0.49999999999997158
210
0
220
0
230
1
100
AcDbArc
50
0
51
90
0
ARC
5
280
100
AcDbEntity
8
0
100
AcDbCircle
10
269.90875001490116
20
-23.345000000000002
30
1.6000000000000003
40
0.50000000000004263
210
0
220
0
230
1
100
AcDbArc
50
0
51
90
0
LINE
5
281
100
AcDbEntity
8
0
100
AcDbLine
10
380.7337500149012
20
-55.895000000000003
30
1.6000000000000003
11
393.73375001490126
21
-55.89500000000001
31
1.6000000000000003
0
ARC
5
282
100
AcDbEntity
8
0
100
AcDbCircle
10
169.92750001490117
20
-92.49499999999999
30
1.6000000000000003
40
0.50000000000000711
210
0
220
0
230
1
100
AcDbArc
50
180
51
270
0
ARC
5
283
100
AcDbEntity
8
0
100
AcDbCircle
10
295.00875001490112
20
-23.345000000000002
30
1.6000000000000003
40
0.50000000000000266
210
0
220
-0
230
1
100
AcDbArc
50
90
51
180
0
ARC
5
284
100
AcDbEntity
8
0
100
AcDbCircle
10
327.05875001490119
20
-36.344999999999999
30
1.6000000000000003
40
0.49999999999999822
210
0
220
0
230
1
100
AcDbArc
50
-90
51
0
0
ARC
5
285
100
AcDbEntity
8
0
100
AcDbCircle
10
160.37125001490119
20
-55.395000000000003
30
1.6000000000000003
40
0.49999999999999822
210
0
220
0
230
1
100
AcDbArc
50
-90
51
0
0
LINE
5
286
100
AcDbEntity
8
0
100
AcDbLine
10
265.20300001490119
20
-77.99499999999999
30
1.6000000000000003
11
275.92750001490117
21
-77.99499999999999
31
1.6000000000000003
0
LINE
5
287
100
AcDbEntity
8
0
100
AcDbLine
10
56.88375001490116
20
-41.89500000000001
30
1.6000000000000003
11
69.883750014901167
21
-41.89500000000001
31
1.6000000000000003
0
ARC
5
288
100
AcDbEntity
8
0
100
AcDbCircle
10
141.32125001490118
20
-42.394999999999996
30
1.6000000000000003
40
0.50000000000000711
210
0
220
0
230
1
100
AcDbArc
50
0
51
90
0
ARC
5
289
100
AcDbEntity
8
0
100
AcDbCircle
10
335.49000001490117
20
-74.444999999999993
30
1.6000000000000003
40
0.49999999999997158
210
0
220
0
230
1
100
AcDbArc
50
180
51
270
0
ARC
5
290
100
AcDbEntity
8
0
100
AcDbCircle
10
106.89000001490116
20
-61.445
30
1.6000000000000003
40
0.49999999999999822
210
0
220
-0
230
1
100
AcDbArc
50
90
51
180
0
ARC
5
291
100
AcDbEntity
8
0
100
AcDbCircle
10
161.65875001490119
20
-23.345000000000002
30
1.6000000000000003
40
0.50000000000000266
210
0
220
-0
230
1
100
AcDbArc
50
90
51
180
0
LINE
5
292
100
AcDbEntity
8
0
100
AcDbLine
10
346.6087500149012
20
-23.344999999999978
30
1.6000000000000003
11
346.6087500149012
21
-36.344999999999999
31
1.6000000000000003
0
LINE
5
293
100
AcDbEntity
8
0
100
AcDbLine
10
356.13375001490118
20
-80.495000000000005
30
1.6000000000000003
11
356.13375001490118
21
-93.49499999999999
31
1.6000000000000003
0
ARC
5
294
100
AcDbEntity
8
0
100
AcDbCircle
10
374.68375001490125
20
-93.49499999999999
30
1.6000000000000003
40
0.50000000000000711
210
0
220
0
230
1
100
AcDbArc
50
-90
51
0
0
LINE
5
295
100
AcDbEntity
8
0
100
AcDbLine
10
185.47125001490116
20
-55.89500000000001
30
1.6000000000000003
11
198.47125001490122
21
-55.89500000000001
31
1.6000000000000003
0
ARC
5
296
100
AcDbEntity
8
0
100
AcDbCircle
10
314.05875001490119
20
-23.345000000000002
30
1.6000000000000003
40
0.50000000000000266
210
0
220
-0
230
1
100
AcDbArc
50
90
51
180
0
ARC
5
297
100
AcDbEntity
8
0
100
AcDbCircle
10
199.75875001490118
20
-23.345000000000002
30
1.6000000000000003
40
0.50000000000000266
210
0
220
-0
230
1
100
AcDbArc
50
90
51
180
0
ARC
5
298
100
AcDbEntity
8
0
100
AcDbCircle
10
355.63375001490124
20
-93.49499999999999
30
1.6000000000000003
40
0.50000000000000711
210
0
220
0
230
1
100
AcDbArc
50
-90
51
0
0
ARC
5
299
100
AcDbEntity
8
0
100
AcDbCircle
10
155.60875001490115
20
-36.344999999999999
30
1.6000000000000003
40
0.49999999999999822
210
0
220
0
230
1
100
AcDbArc
50
-90
51
0
0
LINE
5
300
100
AcDbEntity
8
0
100
AcDbLine
10
261.6712500149012
20
-41.89500000000001
30
1.6000000000000003
11
274.67125001490115
21
-41.89500000000001
31
1.6000000000000003
0
LINE
5
301
100
AcDbEntity
8
0
100
AcDbLine
10
106.39000001490116
20
-61.445
30
1.6000000000000003
11
106.39000001490116
21
-74.445000000000007
31
1.6000000000000003
0
ARC
5
302
100
AcDbEntity
8
0
100
AcDbCircle
10
162.75250001490119
20
-80.494999999999976
30
1.6000000000000003
40
0.50000000000000711
210
0
220
0
230
1
100
AcDbArc
50
0
51
90
0
ARC
5
303
100
AcDbEntity
8
0
100
AcDbCircle
10
250.85875001490115
20
-23.345000000000002
30
1.6000000000000003
40
0.50000000000004263
210
0
220
0
230
1
100
AcDbArc
50
0
51
90
0
ARC
5
304
100
AcDbEntity
8
0
100
AcDbCircle
10
180.70875001490117
20
-36.344999999999999
30
1.6000000000000003
40
0.49999999999997158
210
0
220
0
230
1
100
AcDbArc
50
180
51
270
0
LINE
5
305
100
AcDbEntity
8
0
100
AcDbLine
10
327.55875001490119
20
-23.345000000000002
30
1.6000000000000003
11
327.55875001490119
21
-36.344999999999999
31
1.6000000000000003
0
LINE
5
306
100
AcDbEntity
8
0
100
AcDbLine
10
175.94625001490115
20
-60.945
30
1.6000000000000003
11
188.94625001490118
21
-60.945
31
1.6000000000000003
0
ARC
5
307
100
AcDbEntity
8
0
100
AcDbCircle
10
308.00875001490118
20
-23.345000000000013
30
1.6000000000000003
40
0.49999999999997158
210
0
220
0
230
1
100
AcDbArc
50
0
51
90
0
LINE
5
308
100
AcDbEntity
8
0
100
AcDbLine
10
347.3395000149012
20
-54.895000000000003
30
1.6000000000000003
11
341.3395000149012
21
-54.895000000000003
31
1.6000000000000003
0
ARC
5
309
100
AcDbEntity
8
0
100
AcDbCircle
10
161.63375001490118
20
-78.495000000000005
30
1.6000000000000003
40
0.50000000000000711
210
0
220
0
230
1
100
AcDbArc
50
0
51
90
0
ARC
5
310
100
AcDbEntity
8
0
100
AcDbCircle
10
348.49000001490117
20
-61.444999999999972
30
1.6000000000000003
40
0.49999999999997158
210
0
220
0
230
1
100
AcDbArc
50
0
51
90
0
ARC
5
311
100
AcDbEntity
8
0
100
AcDbCircle
10
193.70875001490111
20
-36.344999999999999
30
1.6000000000000003
40
0.49999999999999822
210
0
220
0
230
1
100
AcDbArc
50
-90
51
0
0
LINE
5
312
100
AcDbEntity
8
0
100
AcDbLine
10
266.43375001490119
20
-93.995000000000005
30
1.6000000000000003
11
279.43375001490119
21
-93.995000000000005
31
1.6000000000000003
0
ARC
5
313
100
AcDbEntity
8
0
100
AcDbCircle
10
185.47125001490116
20
-42.394999999999996
30
1.6000000000000003
40
0.49999999999998934
210
0
220
-0
230
1
100
AcDbArc
50
90
51
180
0
ARC
5
314
100
AcDbEntity
8
0
100
AcDbCircle
10
269.90875001490116
20
-36.344999999999999
30
1.6000000000000003
40
0.49999999999999822
210
0
220
0
230
1
100
AcDbArc
50
-90
51
0
0
ARC
5
315
100
AcDbEntity
8
0
100
AcDbCircle
10
393.73375001490126
20
-74.445000000000007
30
1.6000000000000003
40
0.49999999999999822
210
0
220
0
230
1
100
AcDbArc
50
-90
51
0
0
ARC
5
316
100
AcDbEntity
8
0
100
AcDbCircle
10
393.73375001490126
20
-55.395000000000003
30
1.6000000000000003
40
0.50000000000000711
210
0
220
0
230
1
100
AcDbArc
50
-90
51
0
0
LINE
5
317
100
AcDbEntity
8
0
100
AcDbLine
10
361.68375001490119
20
-60.945
30
1.6000000000000003
11
374.68375001490125
21
-60.945
31
1.6000000000000003
0
LINE
5
318
100
AcDbEntity
8
0
100
AcDbLine
10
169.42750001490114
20
-92.49499999999999
30
1.6000000000000003
11
169.42750001490114
21
-78.495000000000005
31
1.6000000000000003
0
LINE
5
319
100
AcDbEntity
8
0
100
AcDbLine
10
162.13375001490118
20
-79.995000000000005
30
1.6000000000000003
11
162.75250001490119
21
-79.995000000000005
31
1.6000000000000003
0
LINE
5
320
100
AcDbEntity
8
0
100
AcDbLine
10
361.68375001490119
20
-74.945000000000007
30
1.6000000000000003
11
374.68375001490125
21
-74.945000000000007
31
1.6000000000000003
0
ARC
5
321
100
AcDbEntity
8
0
100
AcDbCircle
10
199.75875001490118
20
-36.344999999999999
30
1.6000000000000003
40
0.49999999999997158
210
0
220
0
230
1
100
AcDbArc
50
180
51
270
0
ARC
5
322
100
AcDbEntity
8
0
100
AcDbCircle
10
309.29625001490126
20
-61.445
30
1.6000000000000003
40
0.49999999999999822
210
0
220
-0
230
1
100
AcDbArc
50
90
51
180
0
LINE
5
323
100
AcDbEntity
8
0
100
AcDbLine
10
394.2337500149012
20
-61.445
30
1.6000000000000003
11
394.2337500149012
21
-74.445000000000007
31
1.6000000000000003
0
ARC
5
324
100
AcDbEntity
8
0
100
AcDbCircle
10
380.7337500149012
20
-23.345000000000002
30
1.6000000000000003
40
0.50000000000000266
210
0
220
-0
230
1
100
AcDbArc
50
90
51
180
0
LINE
5
325
100
AcDbEntity
8
0
100
AcDbLine
10
166.42125001490115
20
-55.895000000000003
30
1.6000000000000003
11
179.4212500149012
21
-55.89500000000001
31
1.6000000000000003
0
LINE
5
326
100
AcDbEntity
8
0
100
AcDbLine
10
104.4520000149012
20
-73.944999999999993
30
1.6000000000000003
11
98.452000014901159
21
-73.945000000000007
31
1.6000000000000003
0
LINE
5
327
100
AcDbEntity
8
0
100
AcDbLine
10
361.18375001490119
20
-80.495000000000005
30
1.6000000000000003
11
361.18375001490119
21
-93.49499999999999
31
1.6000000000000003
0
ARC
5
328
100
AcDbEntity
8
0
100
AcDbCircle
10
160.37125001490119
20
-42.394999999999996
30
1.6000000000000003
40
0.50000000000000711
210
0
220
0
230
1
100
AcDbArc
50
0
51
90
0
LINE
5
329
100
AcDbEntity
8
0
100
AcDbLine
10
263.26500001490115
20
-80.494999999999976
30
1.6000000000000003
11
263.26500001490115
21
-93.495000000000005
31
1.6000000000000003
0
ARC
5
330
100
AcDbEntity
8
0
100
AcDbCircle
10
141.32125001490118
20
-93.49499999999999
30
1.6000000000000003
40
0.50000000000000711
210
0
220
0
230
1
100
AcDbArc
50
-90
51
0
0
LINE
5
331
100
AcDbEntity
8
0
100
AcDbLine
10
156.10875001490118
20
-23.345000000000002
30
1.6000000000000003
11
156.10875001490118
21
-36.344999999999999
31
1.6000000000000003
0
ARC
5
332
100
AcDbEntity
8
0
100
AcDbCircle
10
175.94625001490115
20
-74.444999999999993
30
1.6000000000000003
40
0.49999999999997158
210
0
220
0
230
1
100
AcDbArc
50
180
51
270
0
LINE
5
333
100
AcDbEntity
8
0
100
AcDbLine
10
37.333750014901163
20
-61.445
30
1.6000000000000003
11
37.333750014901163
21
-74.445000000000007
31
1.6000000000000003
0
ARC
5
334
100
AcDbEntity
8
0
100
AcDbCircle
10
198.47125001490122
20
-55.395000000000003
30
1.6000000000000003
40
0.50000000000000711
210
0
220
0
230
1
100
AcDbArc
50
-90
51
0
0
LINE
5
335
100
AcDbEntity
8
0
100
AcDbLine
10
394.2337500149012
20
-23.344999999999978
30
1.6000000000000003
11
394.2337500149012
21
-36.344999999999999
31
1.6000000000000003
0
ARC
5
336
100
AcDbEntity
8
0
100
AcDbCircle
10
349.77750001490119
20
-55.395000000000003
30
1.6000000000000003
40
0.50000000000004263
210
0
220
0
230
1
100
AcDbArc
50
180
51
270
0
LINE
5
337
100
AcDbEntity
8
0
100
AcDbLine
10
177.82750001490115
20
-92.995000000000005
30
1.6000000000000003
11
177.82750001490115
21
-93.49499999999999
31
1.6000000000000003
0
LINE
5
338
100
AcDbEntity
8
0
100
AcDbLine
10
185.47125001490116
20
-41.89500000000001
30
1.6000000000000003
11
198.47125001490122
21
-41.894999999999989
31
1.6000000000000003
0
ARC
5
339
100
AcDbEntity
8
0
100
AcDbCircle
10
185.47125001490116
20
-55.395000000000003
30
1.6000000000000003
40
0.49999999999997158
210
0
220
0
230
1
100
AcDbArc
50
180
51
270
0
LINE
5
340
100
AcDbEntity
8
0
100
AcDbLine
10
175.44625001490118
20
-61.445
30
1.6000000000000003
11
175.44625001490118
21
-74.444999999999993
31
1.6000000000000003
0
LINE
5
341
100
AcDbEntity
8
0
100
AcDbLine
10
177.82750001490115
20
-92.995000000000005
30
1.6000000000000003
11
169.92750001490117
21
-92.995000000000005
31
1.6000000000000003
0
ARC
5
342
100
AcDbEntity
8
0
100
AcDbCircle
10
265.20300001490119
20
-78.49499999999999
30
1.6000000000000003
40
0.49999999999999822
210
0
220
-0
230
1
100
AcDbArc
50
90
51
180
0
ARC
5
343
100
AcDbEntity
8
0
100
AcDbCircle
10
162.75250001490119
20
-93.49499999999999
30
1.6000000000000003
40
0.50000000000000711
210
0
220
0
230
1
100
AcDbArc
50
-90
51
0
0
ARC
5
344
100
AcDbEntity
8
0
100
AcDbCircle
10
284.19625001490118
20
-61.445000000000007
30
1.6000000000000003
40
0.49999999999997158
210
0
220
0
230
1
100
AcDbArc
50
0
51
90
0
ARC
5
345
100
AcDbEntity
8
0
100
AcDbCircle
10
178.3275000149012
20
-93.49499999999999
30
1.6000000000000003
40
0.50000000000004263
210
0
220
0
230
1
100
AcDbArc
50
180
51
270
0
LINE
5
346
100
AcDbEntity
8
0
100
AcDbLine
10
170.39625001490117
20
-61.445
30
1.6000000000000003
11
170.39625001490117
21
-74.445000000000007
31
1.6000000000000003
0
LINE
5
347
100
AcDbEntity
8
0
100
AcDbLine
10
142.10875001490115
20
-23.345000000000002
30
1.6000000000000003
11
142.10875001490115
21
-36.344999999999999
31
1.6000000000000003
0
LINE
5
348
100
AcDbEntity
8
0
100
AcDbLine
10
121.82800001490116
20
-60.945
30
1.6000000000000003
11
121.82800001490116
21
-59.444999999999993
31
1.6000000000000003
0
ARC
5
349
100
AcDbEntity
8
0
100
AcDbCircle
10
261.6712500149012
20
-55.395000000000003
30
1.6000000000000003
40
0.50000000000004263
210
0
220
0
230
1
100
AcDbArc
50
180
51
270
0
ARC
5
350
100
AcDbEntity
8
0
100
AcDbCircle
10
161.65875001490119
20
-36.344999999999999
30
1.6000000000000003
40
0.50000000000000711
210
0
220
0
230
1
100
AcDbArc
50
180
51
270
0
ARC
5
351
100
AcDbEntity
8
0
100
AcDbCircle
10
179.4212500149012
20
-42.39500000000001
30
1.6000000000000003
40
0.49999999999997158
210
0
220
0
230
1
100
AcDbArc
50
0
51
90
0
LINE
5
352
100
AcDbEntity
8
0
100
AcDbLine
10
380.23375001490126
20
-42.394999999999996
30
1.6000000000000003
11
380.23375001490126
21
-55.395000000000032
31
1.6000000000000003
0
LINE
5
353
100
AcDbEntity
8
0
100
AcDbLine
10
264.70300001490114
20
-78.49499999999999
30
1.6000000000000003
11
264.70300001490114
21
-92.49499999999999
31
1.6000000000000003
0
LINE
5
354
100
AcDbEntity
8
0
100
AcDbLine
10
275.1712500149012
20
-42.39500000000001
30
1.6000000000000003
11
275.1712500149012
21
-55.395000000000003
31
1.6000000000000003
0
LINE
5
355
100
AcDbEntity
8
0
100
AcDbLine
10
18.283750014901166
20
-61.445
30
1.6000000000000003
11
18.283750014901162
21
-74.445000000000007
31
1.6000000000000003
0
LINE
5
356
100
AcDbEntity
8
0
100
AcDbLine
10
198.97125001490116
20
-42.394999999999996
30
1.6000000000000003
11
198.97125001490116
21
-55.395000000000003
31
1.6000000000000003
0
LINE
5
357
100
AcDbEntity
8
0
100
AcDbLine
10
270.40875001490122
20
-23.345000000000002
30
1.6000000000000003
11
270.40875001490122
21
-36.344999999999999
31
1.6000000000000003
0
LINE
5
358
100
AcDbEntity
8
0
100
AcDbLine
10
155.13375001490115
20
-79.995000000000005
30
1.6000000000000003
11
155.13375001490115
21
-78.495000000000005
31
1.6000000000000003
0
LINE
5
359
100
AcDbEntity
8
0
100
AcDbLine
10
96.865000014901184
20
-80.494999999999976
30
1.6000000000000003
11
96.86500001490117
21
-93.49499999999999
31
1.6000000000000003
0
ARC
5
360
100
AcDbEntity
8
0
100
AcDbCircle
10
174.65875001490119
20
-36.344999999999999
30
1.6000000000000003
40
0.49999999999999822
210
0
220
0
230
1
100
AcDbArc
50
-90
51
0
0
ARC
5
361
100
AcDbEntity
8
0
100
AcDbCircle
10
341.3395000149012
20
-54.395000000000032
30
1.6000000000000003
40
0.49999999999997158
210
0
220
0
230
1
100
AcDbArc
50
180
51
270
0
ARC
5
362
100
AcDbEntity
8
0
100
AcDbCircle
10
88.933750014901165
20
-93.49499999999999
30
1.6000000000000003
40
0.50000000000000711
210
0
220
0
230
1
100
AcDbArc
50
-90
51
0
0
ARC
5
363
100
AcDbEntity
8
0
100
AcDbCircle
10
166.42125001490115
20
-42.394999999999996
30
1.6000000000000003
40
0.49999999999998934
210
0
220
-0
230
1
100
AcDbArc
50
90
51
180
0
ARC
5
364
100
AcDbEntity
8
0
100
AcDbCircle
10
128.32800001490116
20
-73.444999999999993
30
1.6000000000000003
40
0.50000000000000711
210
0
220
0
230
1
100
AcDbArc
50
-90
51
0
0
ARC
5
365
100
AcDbEntity
8
0
100
AcDbCircle
10
265.14625001490117
20
-61.445000000000007
30
1.6000000000000003
40
0.49999999999997158
210
0
220
0
230
1
100
AcDbArc
50
0
51
90
0
ARC
5
366
100
AcDbEntity
8
0
100
AcDbCircle
10
147.37125001490119
20
-42.394999999999996
30
1.6000000000000003
40
0.49999999999998934
210
0
220
-0
230
1
100
AcDbArc
50
90
51
180
0
ARC
5
367
100
AcDbEntity
8
0
100
AcDbCircle
10
144.99000001490114
20
-93.49499999999999
30
1.6000000000000003
40
0.49999999999998934
210
0
220
0
230
1
100
AcDbArc
50
180
51
270
0
ARC
5
368
100
AcDbEntity
8
0
100
AcDbCircle
10
128.32800001490116
20
-59.444999999999993
30
1.6000000000000003
40
0.50000000000000711
210
0
220
0
230
1
100
AcDbArc
50
0
51
90
0
ARC
5
369
100
AcDbEntity
8
0
100
AcDbCircle
10
169.89625001490117
20
-74.445000000000007
30
1.6000000000000003
40
0.49999999999999822
210
0
220
0
230
1
100
AcDbArc
50
-90
51
0
0
ARC
5
370
100
AcDbEntity
8
0
100
AcDbCircle
10
275.95875001490117
20
-36.344999999999999
30
1.6000000000000003
40
0.49999999999997158
210
0
220
0
230
1
100
AcDbArc
50
180
51
270
0
ARC
5
371
100
AcDbEntity
8
0
100
AcDbCircle
10
252.15300001490121
20
-78.495000000000005
30
1.6000000000000003
40
0.49999999999997158
210
0
220
0
230
1
100
AcDbArc
50
0
51
90
0
LINE
5
372
100
AcDbEntity
8
0
100
AcDbLine
10
128.82800001490116
20
-73.444999999999993
30
1.6000000000000003
11
128.82800001490119
21
-59.444999999999993
31
1.6000000000000003
0
LINE
5
373
100
AcDbEntity
8
0
100
AcDbLine
10
14.758750014901164
20
-21.32
30
1.6000000000000003
11
14.758750014901164
21
-95.519999999999996
31
1.6000000000000003
0
LINE
5
374
100
AcDbEntity
8
0
100
AcDbLine
10
252.1462500149012
20
-74.945000000000007
30
1.6000000000000003
11
265.14625001490117
21
-74.945000000000007
31
1.6000000000000003
0
LINE
5
375
100
AcDbEntity
8
0
100
AcDbLine
10
280.22125001490116
20
-42.394999999999996
30
1.6000000000000003
11
280.22125001490116
21
-55.395000000000003
31
1.6000000000000003
0
LINE
5
376
100
AcDbEntity
8
0
100
AcDbLine
10
252.1462500149012
20
-60.945
30
1.6000000000000003
11
265.14625001490117
21
-60.945
31
1.6000000000000003
0
LINE
5
377
100
AcDbEntity
8
0
100
AcDbLine
10
181.15200001490115
20
-79.995000000000005
30
1.6000000000000003
11
181.15200001490115
21
-78.495000000000005
31
1.6000000000000003
0
ARC
5
378
100
AcDbEntity
8
0
100
AcDbCircle
10
122.32800001490118
20
-59.444999999999993
30
1.6000000000000003
40
0.49999999999998934
210
0
220
-0
230
1
100
AcDbArc
50
90
51
180
0
LINE
5
379
100
AcDbEntity
8
0
100
AcDbLine
10
163.25250001490119
20
-80.494999999999976
30
1.6000000000000003
11
163.25250001490119
21
-93.49499999999999
31
1.6000000000000003
0
ARC
5
380
100
AcDbEntity
8
0
100
AcDbCircle
10
75.933750014901165
20
-93.49499999999999
30
1.6000000000000003
40
0.49999999999999822
210
0
220
0
230
1
100
AcDbArc
50
180
51
270
0
LINE
5
381
100
AcDbEntity
8
0
100
AcDbLine
10
51.33375001490117
20
-61.445
30
1.6000000000000003
11
51.333750014901163
21
-74.445000000000007
31
1.6000000000000003
0
LINE
5
382
100
AcDbEntity
8
0
100
AcDbLine
10
161.15875001490116
20
-23.345000000000002
30
1.6000000000000003
11
161.15875001490116
21
-36.344999999999999
31
1.6000000000000003
0
LINE
5
383
100
AcDbEntity
8
0
100
AcDbLine
10
180.20875001490117
20
-23.345000000000002
30
1.6000000000000003
11
180.20875001490117
21
-36.344999999999999
31
1.6000000000000003
0
LINE
5
384
100
AcDbEntity
8
0
100
AcDbLine
10
261.17125001490115
20
-42.394999999999996
30
1.6000000000000003
11
261.17125001490115
21
-55.395000000000003
31
1.6000000000000003
0
ARC
5
385
100
AcDbEntity
8
0
100
AcDbCircle
10
279.43375001490119
20
-93.49499999999999
30
1.6000000000000003
40
0.50000000000000711
210
0
220
0
230
1
100
AcDbArc
50
-90
51
0
0
ARC
5
386
100
AcDbEntity
8
0
100
AcDbCircle
10
288.95875001490117
20
-36.344999999999999
30
1.6000000000000003
40
0.49999999999999822
210
0
220
0
230
1
100
AcDbArc
50
-90
51
0
0
ARC
5
387
100
AcDbEntity
8
0
100
AcDbCircle
10
174.65875001490119
20
-23.345000000000002
30
1.6000000000000003
40
0.49999999999997158
210
0
220
0
230
1
100
AcDbArc
50
0
51
90
0
LINE
5
388
100
AcDbEntity
8
0
100
AcDbLine
10
256.90875001490122
20
-36.845000000000006
30
1.6000000000000003
11
269.90875001490116
21
-36.844999999999999
31
1.6000000000000003
0
ARC
5
389
100
AcDbEntity
8
0
100
AcDbCircle
10
252.1462500149012
20
-74.444999999999993
30
1.6000000000000003
40
0.50000000000004263
210
0
220
0
230
1
100
AcDbArc
50
180
51
270
0
LINE
5
390
100
AcDbEntity
8
0
100
AcDbLine
10
275.45875001490117
20
-23.345000000000002
30
1.6000000000000003
11
275.45875001490117
21
-36.344999999999999
31
1.6000000000000003
0
ARC
5
391
100
AcDbEntity
8
0
100
AcDbCircle
10
255.62125001490116
20
-55.395000000000003
30
1.6000000000000003
40
0.50000000000000711
210
0
220
0
230
1
100
AcDbArc
50
-90
51
0
0
LINE
5
392
100
AcDbEntity
8
0
100
AcDbLine
10
279.93375001490119
20
-93.49499999999999
30
1.6000000000000003
11
279.93375001490119
21
-80.495000000000005
31
1.6000000000000003
0
ARC
5
393
100
AcDbEntity
8
0
100
AcDbCircle
10
106.89000001490116
20
-74.445000000000007
30
1.6000000000000003
40
0.50000000000000711
210
0
220
0
230
1
100
AcDbArc
50
180
51
270
0
LINE
5
394
100
AcDbEntity
8
0
100
AcDbLine
10
128.32800001490116
20
-58.944999999999993
30
1.6000000000000003
11
122.32800001490118
21
-58.945000000000007
31
1.6000000000000003
0
LINE
5
395
100
AcDbEntity
8
0
100
AcDbLine
10
165.92125001490118
20
-42.394999999999996
30
1.6000000000000003
11
165.92125001490118
21
-55.394999999999996
31
1.6000000000000003
0
ARC
5
396
100
AcDbEntity
8
0
100
AcDbCircle
10
175.94625001490115
20
-61.445
30
1.6000000000000003
40
0.49999999999999822
210
0
220
-0
230
1
100
AcDbArc
50
90
51
180
0
LINE
5
397
100
AcDbEntity
8
0
100
AcDbLine
10
160.87125001490119
20
-42.394999999999996
30
1.6000000000000003
11
160.87125001490119
21
-55.395000000000003
31
1.6000000000000003
0
ARC
5
398
100
AcDbEntity
8
0
100
AcDbCircle
10
169.89625001490117
20
-61.445
30
1.6000000000000003
40
0.49999999999997158
210
0
220
0
230
1
100
AcDbArc
50
0
51
90
0
ARC
5
399
100
AcDbEntity
8
0
100
AcDbCircle
10
169.92750001490117
20
-78.495000000000005
30
1.6000000000000003
40
0.49999999999999822
210
0
220
-0
230
1
100
AcDbArc
50
90
51
180
0
ARC
5
400
100
AcDbEntity
8
0
100
AcDbCircle
10
142.60875001490118
20
-23.345000000000002
30
1.6000000000000003
40
0.50000000000000266
210
0
220
-0
230
1
100
AcDbArc
50
90
51
180
0
ARC
5
401
100
AcDbEntity
8
0
100
AcDbCircle
10
119.89000001490118
20
-42.394999999999996
30
1.6000000000000003
40
0.50000000000000711
210
0
220
0
230
1
100
AcDbArc
50
0
51
90
0
LINE
5
402
100
AcDbEntity
8
0
100
AcDbLine
10
166.42125001490115
20
-41.89500000000001
30
1.6000000000000003
11
179.4212500149012
21
-41.89500000000001
31
1.6000000000000003
0
LINE
5
403
100
AcDbEntity
8
0
100
AcDbLine
10
162.13375001490118
20
-79.995000000000005
30
1.6000000000000003
11
162.13375001490118
21
-78.495000000000005
31
1.6000000000000003
0
ARC
5
404
100
AcDbEntity
8
0
100
AcDbCircle
10
137.84625001490119
20
-74.444999999999993
30
1.6000000000000003
40
0.50000000000000711
210
0
220
0
230
1
100
AcDbArc
50
180
51
270
0
ARC
5
405
100
AcDbEntity
8
0
100
AcDbCircle
10
256.90875001490122
20
-36.344999999999999
30
1.6000000000000003
40
0.50000000000004263
210
0
220
0
230
1
100
AcDbArc
50
180
51
270
0
ARC
5
406
100
AcDbEntity
8
0
100
AcDbCircle
10
180.6520000149012
20
-78.495000000000005
30
1.6000000000000003
40
0.49999999999997158
210
0
220
0
230
1
100
AcDbArc
50
0
51
90
0
LINE
5
407
100
AcDbEntity
8
0
100
AcDbLine
10
275.95875001490117
20
-36.845000000000006
30
1.6000000000000003
11
288.95875001490117
21
-36.844999999999999
31
1.6000000000000003
0
ARC
5
408
100
AcDbEntity
8
0
100
AcDbCircle
10
265.14625001490117
20
-74.445000000000007
30
1.6000000000000003
40
0.49999999999999822
210
0
220
0
230
1
100
AcDbArc
50
-90
51
0
0
ARC
5
409
100
AcDbEntity
8
0
100
AcDbCircle
10
155.60875001490115
20
-23.345000000000002
30
1.6000000000000003
40
0.50000000000000711
210
0
220
0
230
1
100
AcDbArc
50
0
51
90
0
LINE
5
410
100
AcDbEntity
8
0
100
AcDbLine
10
289.45875001490117
20
-23.345000000000002
30
1.6000000000000003
11
289.45875001490117
21
-36.344999999999999
31
1.6000000000000003
0
ARC
5
411
100
AcDbEntity
8
0
100
AcDbCircle
10
179.4212500149012
20
-55.395000000000003
30
1.6000000000000003
40
0.50000000000000711
210
0
220
0
230
1
100
AcDbArc
50
-90
51
0
0
ARC
5
412
100
AcDbEntity
8
0
100
AcDbCircle
10
290.24625001490119
20
-61.445
30
1.6000000000000003
40
0.49999999999999822
210
0
220
-0
230
1
100
AcDbArc
50
90
51
180
0
ARC
5
413
100
AcDbEntity
8
0
100
AcDbCircle
10
142.60875001490118
20
-36.344999999999999
30
1.6000000000000003
40
0.50000000000000711
210
0
220
0
230
1
100
AcDbArc
50
180
51
270
0
LINE
5
414
100
AcDbEntity
8
0
100
AcDbLine
10
252.65300001490118
20
-79.995000000000005
30
1.6000000000000003
11
252.65300001490118
21
-78.495000000000005
31
1.6000000000000003
0
ARC
5
415
100
AcDbEntity
8
0
100
AcDbCircle
10
255.62125001490116
20
-42.394999999999996
30
1.6000000000000003
40
0.50000000000004263
210
0
220
0
230
1
100
AcDbArc
50
0
51
90
0
LINE
5
416
100
AcDbEntity
8
0
100
AcDbLine
10
104.45200001490119
20
-58.945000000000007
30
1.6000000000000003
11
98.452000014901188
21
-58.945000000000007
31
1.6000000000000003
0
LINE
5
417
100
AcDbEntity
8
0
100
AcDbLine
10
89.433750014901165
20
-61.445
30
1.6000000000000003
11
89.433750014901165
21
-93.49499999999999
31
1.6000000000000003
0
ARC
5
418
100
AcDbEntity
8
0
100
AcDbCircle
10
128.32125001490118
20
-42.394999999999996
30
1.6000000000000003
40
0.49999999999998934
210
0
220
-0
230
1
100
AcDbArc
50
90
51
180
0
ARC
5
419
100
AcDbEntity
8
0
100
AcDbCircle
10
75.933750014901165
20
-61.445
30
1.6000000000000003
40
0.49999999999999822
210
0
220
-0
230
1
100
AcDbArc
50
90
51
180
0
ARC
5
420
100
AcDbEntity
8
0
100
AcDbCircle
10
280.72125001490116
20
-55.395000000000003
30
1.6000000000000003
40
0.49999999999997158
210
0
220
0
230
1
100
AcDbArc
50
180
51
270
0
LINE
5
421
100
AcDbEntity
8
0
100
AcDbLine
10
156.39625001490114
20
-61.445
30
1.6000000000000003
11
156.39625001490114
21
-74.445000000000007
31
1.6000000000000003
0
LINE
5
422
100
AcDbEntity
8
0
100
AcDbLine
10
32.283750014901159
20
-61.445
30
1.6000000000000003
11
32.283750014901159
21
-74.445000000000007
31
1.6000000000000003
0
LINE
5
423
100
AcDbEntity
8
0
100
AcDbLine
10
142.60875001490118
20
-36.845000000000006
30
1.6000000000000003
11
155.60875001490115
21
-36.844999999999999
31
1.6000000000000003
0
LINE
5
424
100
AcDbEntity
8
0
100
AcDbLine
10
125.15250001490116
20
-73.945000000000007
30
1.6000000000000003
11
125.15250001490116
21
-74.445000000000022
31
1.6000000000000003
0
LINE
5
425
100
AcDbEntity
8
0
100
AcDbLine
10
75.933750014901165
20
-22.844999999999999
30
1.6000000000000003
11
88.933750014901165
21
-22.844999999999999
31
1.6000000000000003
0
LINE
5
426
100
AcDbEntity
8
0
100
AcDbLine
10
256.12125001490119
20
-42.394999999999996
30
1.6000000000000003
11
256.12125001490119
21
-55.395000000000003
31
1.6000000000000003
0
ARC
5
427
100
AcDbEntity
8
0
100
AcDbCircle
10
274.67125001490115
20
-42.39500000000001
30
1.6000000000000003
40
0.50000000000004263
210
0
220
0
230
1
100
AcDbArc
50
0
51
90
0
ARC
5
428
100
AcDbEntity
8
0
100
AcDbCircle
10
128.32125001490118
20
-55.395000000000003
30
1.6000000000000003
40
0.50000000000000711
210
0
220
0
230
1
100
AcDbArc
50
180
51
270
0
LINE
5
429
100
AcDbEntity
8
0
100
AcDbLine
10
262.7650000149012
20
-93.995000000000005
30
1.6000000000000003
11
249.76500001490115
21
-93.995000000000005
31
1.6000000000000003
0
LINE
5
430
100
AcDbEntity
8
0
100
AcDbLine
10
175.15875001490116
20
-23.345000000000002
30
1.6000000000000003
11
175.15875001490116
21
-36.344999999999999
31
1.6000000000000003
0
ARC
5
431
100
AcDbEntity
8
0
100
AcDbCircle
10
274.67125001490115
20
-55.395000000000003
30
1.6000000000000003
40
0.49999999999999822
210
0
220
0
230
1
100
AcDbArc
50
-90
51
0
0
ARC
5
432
100
AcDbEntity
8
0
100
AcDbCircle
10
261.6712500149012
20
-42.394999999999996
30
1.6000000000000003
40
0.49999999999998934
210
0
220
-0
230
1
100
AcDbArc
50
90
51
180
0
LINE
5
433
100
AcDbEntity
8
0
100
AcDbLine
10
142.60875001490118
20
-22.844999999999999
30
1.6000000000000003
11
155.60875001490115
21
-22.844999999999995
31
1.6000000000000003
0
LINE
5
434
100
AcDbEntity
8
0
100
AcDbLine
10
276.42750001490117
20
-79.995000000000005
30
1.6000000000000003
11
276.42750001490117
21
-78.495000000000005
31
1.6000000000000003
0
LINE
5
435
100
AcDbEntity
8
0
100
AcDbLine
10
275.95875001490117
20
-22.844999999999999
30
1.6000000000000003
11
288.95875001490117
21
-22.844999999999995
31
1.6000000000000003
0
ARC
5
436
100
AcDbEntity
8
0
100
AcDbCircle
10
252.1462500149012
20
-61.445
30
1.6000000000000003
40
0.49999999999999822
210
0
220
-0
230
1
100
AcDbArc
50
90
51
180
0
LINE
5
437
100
AcDbEntity
8
0
100
AcDbLine
10
128.32800001490116
20
-73.945000000000007
30
1.6000000000000003
11
125.15250001490116
21
-73.945000000000007
31
1.6000000000000003
0
LINE
5
438
100
AcDbEntity
8
0
100
AcDbLine
10
70.383750014901167
20
-80.495000000000005
30
1.6000000000000003
11
70.383750014901167
21
-93.49499999999999
31
1.6000000000000003
0
LINE
5
439
100
AcDbEntity
8
0
100
AcDbLine
10
161.65875001490119
20
-22.844999999999999
30
1.6000000000000003
11
174.65875001490119
21
-22.844999999999995
31
1.6000000000000003
0
ARC
5
440
100
AcDbEntity
8
0
100
AcDbCircle
10
256.90875001490122
20
-23.345000000000002
30
1.6000000000000003
40
0.50000000000000266
210
0
220
-0
230
1
100
AcDbArc
50
90
51
180
0
ARC
5
441
100
AcDbEntity
8
0
100
AcDbCircle
10
285.4837500149012
20
-93.49499999999999
30
1.6000000000000003
40
0.50000000000004263
210
0
220
0
230
1
100
AcDbArc
50
180
51
270
0
LINE
5
442
100
AcDbEntity
8
0
100
AcDbLine
10
137.84625001490119
20
-60.945
30
1.6000000000000003
11
150.84625001490116
21
-60.945
31
1.6000000000000003
0
ARC
5
443
100
AcDbEntity
8
0
100
AcDbCircle
10
166.42125001490115
20
-55.394999999999996
30
1.6000000000000003
40
0.49999999999997158
210
0
220
0
230
1
100
AcDbArc
50
180
51
270
0
LINE
5
444
100
AcDbEntity
8
0
100
AcDbLine
10
75.933750014901165
20
-60.945
30
1.6000000000000003
11
88.933750014901165
21
-60.945
31
1.6000000000000003
0
ARC
5
445
100
AcDbEntity
8
0
100
AcDbCircle
10
88.933750014901165
20
-23.345000000000002
30
1.6000000000000003
40
0.49999999999998934
210
0
220
0
230
1
100
AcDbArc
50
0
51
90
0
LINE
5
446
100
AcDbEntity
8
0
100
AcDbLine
10
118.00875001490118
20
-23.345000000000002
30
1.6000000000000003
11
118.00875001490118
21
-36.344999999999999
31
1.6000000000000003
0
LINE
5
447
100
AcDbEntity
8
0
100
AcDbLine
10
251.3587500149012
20
-23.345000000000002
30
1.6000000000000003
11
251.3587500149012
21
-36.344999999999999
31
1.6000000000000003
0
ARC
5
448
100
AcDbEntity
8
0
100
AcDbCircle
10
271.19625001490124
20
-61.445
30
1.6000000000000003
40
0.49999999999999822
210
0
220
-0
230
1
100
AcDbArc
50
90
51
180
0
LINE
5
449
100
AcDbEntity
8
0
100
AcDbLine
10
97.952000014901159
20
-73.444999999999993
30
1.6000000000000003
11
97.952000014901174
21
-59.444999999999993
31
1.6000000000000003
0
LINE
5
450
100
AcDbEntity
8
0
100
AcDbLine
10
75.933750014901165
20
-55.895000000000003
30
1.6000000000000003
11
88.933750014901165
21
-55.895000000000003
31
1.6000000000000003
0
LINE
5
451
100
AcDbEntity
8
0
100
AcDbLine
10
284.98375001490115
20
-80.495000000000005
30
1.6000000000000003
11
284.98375001490115
21
-93.49499999999999
31
1.6000000000000003
0
ARC
5
452
100
AcDbEntity
8
0
100
AcDbCircle
10
285.4837500149012
20
-80.495000000000005
30
1.6000000000000003
40
0.49999999999999822
210
0
220
-0
230
1
100
AcDbArc
50
90
51
180
0
ARC
5
453
100
AcDbEntity
8
0
100
AcDbCircle
10
136.55875001490116
20
-36.344999999999999
30
1.6000000000000003
40
0.49999999999999822
210
0
220
0
230
1
100
AcDbArc
50
-90
51
0
0
LINE
5
454
100
AcDbEntity
8
0
100
AcDbLine
10
137.34625001490119
20
-61.445
30
1.6000000000000003
11
137.34625001490119
21
-74.444999999999993
31
1.6000000000000003
0
LINE
5
455
100
AcDbEntity
8
0
100
AcDbLine
10
46.858750014901169
20
-92.995000000000005
30
1.6000000000000003
11
46.858750014901169
21
-93.49499999999999
31
1.6000000000000003
0
LINE
5
456
100
AcDbEntity
8
0
100
AcDbLine
10
73.433750014901165
20
-86.408000000000015
30
1.6000000000000003
11
73.433750014901165
21
-92.408000000000001
31
1.6000000000000003
0
ARC
5
457
100
AcDbEntity
8
0
100
AcDbCircle
10
56.88375001490116
20
-74.445000000000007
30
1.6000000000000003
40
0.49999999999999822
210
0
220
0
230
1
100
AcDbArc
50
180
51
270
0
LINE
5
458
100
AcDbEntity
8
0
100
AcDbLine
10
161.65875001490119
20
-36.845000000000006
30
1.6000000000000003
11
174.65875001490119
21
-36.844999999999999
31
1.6000000000000003
0
ARC
5
459
100
AcDbEntity
8
0
100
AcDbCircle
10
156.89625001490117
20
-74.445000000000007
30
1.6000000000000003
40
0.50000000000000711
210
0
220
0
230
1
100
AcDbArc
50
180
51
270
0
ARC
5
460
100
AcDbEntity
8
0
100
AcDbCircle
10
104.45200001490119
20
-59.444999999999993
30
1.6000000000000003
40
0.49999999999998934
210
0
220
0
230
1
100
AcDbArc
50
0
51
90
0
ARC
5
461
100
AcDbEntity
8
0
100
AcDbCircle
10
141.32125001490118
20
-55.395000000000003
30
1.6000000000000003
40
0.50000000000000711
210
0
220
0
230
1
100
AcDbArc
50
-90
51
0
0
ARC
5
462
100
AcDbEntity
8
0
100
AcDbCircle
10
99.746250014901165
20
-23.344999999999992
30
1.6000000000000003
40
0.49999999999999822
210
0
220
-0
230
1
100
AcDbArc
50
90
51
180
0
ARC
5
463
100
AcDbEntity
8
0
100
AcDbCircle
10
275.95875001490117
20
-23.345000000000002
30
1.6000000000000003
40
0.50000000000000266
210
0
220
-0
230
1
100
AcDbArc
50
90
51
180
0
ARC
5
464
100
AcDbEntity
8
0
100
AcDbCircle
10
150.84625001490116
20
-74.445000000000007
30
1.6000000000000003
40
0.49999999999999822
210
0
220
0
230
1
100
AcDbArc
50
-90
51
0
0
LINE
5
465
100
AcDbEntity
8
0
100
AcDbLine
10
37.833750014901163
20
-74.945000000000007
30
1.6000000000000003
11
50.83375001490117
21
-74.945000000000007
31
1.6000000000000003
0
LINE
5
466
100
AcDbEntity
8
0
100
AcDbLine
10
179.92125001490115
20
-42.39500000000001
30
1.6000000000000003
11
179.92125001490115
21
-55.395000000000003
31
1.6000000000000003
0
LINE
5
467
100
AcDbEntity
8
0
100
AcDbLine
10
99.24625001490115
20
-23.344999999999992
30
1.6000000000000003
11
99.24625001490115
21
-36.344999999999999
31
1.6000000000000003
0
LINE
5
468
100
AcDbEntity
8
0
100
AcDbLine
10
75.433750014901165
20
-69.032000000000011
30
1.6000000000000003
11
75.433750014901165
21
-85.908000000000015
31
1.6000000000000003
0
ARC
5
469
100
AcDbEntity
8
0
100
AcDbCircle
10
147.37125001490119
20
-55.395000000000003
30
1.6000000000000003
40
0.50000000000000711
210
0
220
0
230
1
100
AcDbArc
50
180
51
270
0
ARC
5
470
100
AcDbEntity
8
0
100
AcDbCircle
10
119.89000001490118
20
-55.395000000000003
30
1.6000000000000003
40
0.50000000000000711
210
0
220
0
230
1
100
AcDbArc
50
-90
51
0
0
ARC
5
471
100
AcDbEntity
8
0
100
AcDbCircle
10
117.50875001490117
20
-36.344999999999999
30
1.6000000000000003
40
0.49999999999999822
210
0
220
0
230
1
100
AcDbArc
50
-90
51
0
0
LINE
5
472
100
AcDbEntity
8
0
100
AcDbLine
10
56.383750014901167
20
-61.445
30
1.6000000000000003
11
56.383750014901167
21
-74.445000000000007
31
1.6000000000000003
0
LINE
5
473
100
AcDbEntity
8
0
100
AcDbLine
10
75.933750014901165
20
-93.995000000000005
30
1.6000000000000003
11
88.933750014901165
21
-93.995000000000005
31
1.6000000000000003
0
ARC
5
474
100
AcDbEntity
8
0
100
AcDbCircle
10
99.746250014901165
20
-36.344999999999999
30
1.6000000000000003
40
0.50000000000000711
210
0
220
0
230
1
100
AcDbArc
50
180
51
270
0
ARC
5
475
100
AcDbEntity
8
0
100
AcDbCircle
10
124.65250001490118
20
-74.445000000000022
30
1.6000000000000003
40
0.49999999999999822
210
0
220
0
230
1
100
AcDbArc
50
-90
51
0
0
LINE
5
476
100
AcDbEntity
8
0
100
AcDbLine
10
137.84625001490119
20
-74.945000000000007
30
1.6000000000000003
11
150.84625001490116
21
-74.945000000000007
31
1.6000000000000003
0
LINE
5
477
100
AcDbEntity
8
0
100
AcDbLine
10
75.433750014901165
20
-47.808000000000007
30
1.6000000000000003
11
75.433750014901165
21
-30.932000000000002
31
1.6000000000000003
0
ARC
5
478
100
AcDbEntity
8
0
100
AcDbCircle
10
123.55875001490118
20
-36.344999999999999
30
1.6000000000000003
40
0.50000000000000711
210
0
220
0
230
1
100
AcDbArc
50
180
51
270
0
ARC
5
479
100
AcDbEntity
8
0
100
AcDbCircle
10
250.85875001490115
20
-36.344999999999999
30
1.6000000000000003
40
0.49999999999999822
210
0
220
0
230
1
100
AcDbArc
50
-90
51
0
0
ARC
5
480
100
AcDbEntity
8
0
100
AcDbCircle
10
98.452000014901159
20
-73.444999999999993
30
1.6000000000000003
40
0.50000000000000711
210
0
220
0
230
1
100
AcDbArc
50
180
51
270
0
ARC
5
481
100
AcDbEntity
8
0
100
AcDbCircle
10
288.95875001490117
20
-23.345000000000002
30
1.6000000000000003
40
0.49999999999997158
210
0
220
0
230
1
100
AcDbArc
50
0
51
90
0
LINE
5
482
100
AcDbEntity
8
0
100
AcDbLine
10
271.19625001490124
20
-60.945
30
1.6000000000000003
11
284.19625001490118
21
-60.945
31
1.6000000000000003
0
ARC
5
483
100
AcDbEntity
8
0
100
AcDbCircle
10
280.72125001490116
20
-42.394999999999996
30
1.6000000000000003
40
0.49999999999998934
210
0
220
-0
230
1
100
AcDbArc
50
90
51
180
0
LINE
5
484
100
AcDbEntity
8
0
100
AcDbLine
10
89.433750014901165
20
-23.345000000000002
30
1.6000000000000003
11
89.433750014901165
21
-55.395000000000003
31
1.6000000000000003
0
ARC
5
485
100
AcDbEntity
8
0
100
AcDbCircle
10
150.84625001490116
20
-61.445000000000007
30
1.6000000000000003
40
0.50000000000000711
210
0
220
0
230
1
100
AcDbArc
50
0
51
90
0
LINE
5
486
100
AcDbEntity
8
0
100
AcDbLine
10
256.40875001490116
20
-23.345000000000002
30
1.6000000000000003
11
256.40875001490116
21
-36.344999999999999
31
1.6000000000000003
0
ARC
5
487
100
AcDbEntity
8
0
100
AcDbCircle
10
180.70875001490117
20
-23.345000000000002
30
1.6000000000000003
40
0.50000000000000266
210
0
220
-0
230
1
100
AcDbArc
50
90
51
180
0
LINE
5
488
100
AcDbEntity
8
0
100
AcDbLine
10
123.55875001490118
20
-22.844999999999999
30
1.6000000000000003
11
136.55875001490116
21
-22.844999999999999
31
1.6000000000000003
0
LINE
5
489
100
AcDbEntity
8
0
100
AcDbLine
10
46.858750014901169
20
-92.995000000000005
30
1.6000000000000003
11
41.808750014901165
21
-92.995000000000005
31
1.6000000000000003
0
ARC
5
490
100
AcDbEntity
8
0
100
AcDbCircle
10
290.24625001490119
20
-74.445000000000007
30
1.6000000000000003
40
0.50000000000004263
210
0
220
0
230
1
100
AcDbArc
50
180
51
270
0
ARC
5
491
100
AcDbEntity
8
0
100
AcDbCircle
10
279.43375001490119
20
-80.495000000000005
30
1.6000000000000003
40
0.50000000000004263
210
0
220
0
230
1
100
AcDbArc
50
0
51
90
0
ARC
5
492
100
AcDbEntity
8
0
100
AcDbCircle
10
97.36500001490117
20
-80.494999999999976
30
1.6000000000000003
40
0.49999999999998934
210
0
220
-0
230
1
100
AcDbArc
50
90
51
180
0
ARC
5
493
100
AcDbEntity
8
0
100
AcDbCircle
10
97.36500001490117
20
-42.394999999999996
30
1.6000000000000003
40
0.49999999999998934
210
0
220
-0
230
1
100
AcDbArc
50
90
51
180
0
LINE
5
494
100
AcDbEntity
8
0
100
AcDbLine
10
123.05875001490116
20
-23.345000000000002
30
1.6000000000000003
11
123.05875001490116
21
-36.344999999999999
31
1.6000000000000003
0
LINE
5
495
100
AcDbEntity
8
0
100
AcDbLine
10
69.296750014901164
20
-79.995000000000005
30
1.6000000000000003
11
69.296750014901164
21
-78.495000000000005
31
1.6000000000000003
0
LINE
5
496
100
AcDbEntity
8
0
100
AcDbLine
10
271.19625001490124
20
-74.945000000000007
30
1.6000000000000003
11
284.19625001490118
21
-74.945000000000007
31
1.6000000000000003
0
ARC
5
497
100
AcDbEntity
8
0
100
AcDbCircle
10
50.83375001490117
20
-36.344999999999999
30
1.6000000000000003
40
0.49999999999999822
210
0
220
0
230
1
100
AcDbArc
50
-90
51
0
0
ARC
5
498
100
AcDbEntity
8
0
100
AcDbCircle
10
137.84625001490119
20
-61.445
30
1.6000000000000003
40
0.49999999999999822
210
0
220
-0
230
1
100
AcDbArc
50
90
51
180
0
ARC
5
499
100
AcDbEntity
8
0
100
AcDbCircle
10
73.933750014901165
20
-92.408000000000001
30
1.6000000000000003
40
0.49999999999999822
210
0
220
0
230
1
100
AcDbArc
50
180
51
270
0
ARC
5
500
100
AcDbEntity
8
0
100
AcDbCircle
10
73.933750014901165
20
-30.432000000000006
30
1.6000000000000003
40
0.49999999999999822
210
0
220
0
230
1
100
AcDbArc
50
180
51
270
0
LINE
5
501
100
AcDbEntity
8
0
100
AcDbLine
10
151.34625001490119
20
-61.445000000000007
30
1.6000000000000003
11
151.34625001490116
21
-74.445000000000007
31
1.6000000000000003
0
LINE
5
502
100
AcDbEntity
8
0
100
AcDbLine
10
70.383750014901167
20
-42.394999999999996
30
1.6000000000000003
11
70.383750014901167
21
-55.395000000000003
31
1.6000000000000003
0
LINE
5
503
100
AcDbEntity
8
0
100
AcDbLine
10
62.296750014901164
20
-79.995000000000005
30
1.6000000000000003
11
62.296750014901164
21
-78.495000000000005
31
1.6000000000000003
0
LINE
5
504
100
AcDbEntity
8
0
100
AcDbLine
10
75.433750014901165
20
-61.445
30
1.6000000000000003
11
75.433750014901165
21
-62.032000000000011
31
1.6000000000000003
0
LINE
5
505
100
AcDbEntity
8
0
100
AcDbLine
10
75.433750014901165
20
-62.032000000000011
30
1.6000000000000003
11
73.933750014901165
21
-62.032000000000011
31
1.6000000000000003
0
ARC
5
506
100
AcDbEntity
8
0
100
AcDbCircle
10
73.933750014901165
20
-68.532000000000011
30
1.6000000000000003
40
0.49999999999999822
210
0
220
0
230
1
100
AcDbArc
50
180
51
270
0
LINE
5
507
100
AcDbEntity
8
0
100
AcDbLine
10
37.833750014901163
20
-41.89500000000001
30
1.6000000000000003
11
50.83375001490117
21
-41.894999999999996
31
1.6000000000000003
0
ARC
5
508
100
AcDbEntity
8
0
100
AcDbCircle
10
123.55875001490118
20
-23.345000000000002
30
1.6000000000000003
40
0.50000000000000266
210
0
220
-0
230
1
100
AcDbArc
50
90
51
180
0
LINE
5
509
100
AcDbEntity
8
0
100
AcDbLine
10
75.433750014901165
20
-92.908000000000015
30
1.6000000000000003
11
73.933750014901165
21
-92.908000000000015
31
1.6000000000000003
0
LINE
5
510
100
AcDbEntity
8
0
100
AcDbLine
10
123.55875001490118
20
-36.844999999999999
30
1.6000000000000003
11
136.55875001490116
21
-36.844999999999999
31
1.6000000000000003
0
ARC
5
511
100
AcDbEntity
8
0
100
AcDbCircle
10
97.36500001490117
20
-55.395000000000003
30
1.6000000000000003
40
0.50000000000000711
210
0
220
0
230
1
100
AcDbArc
50
180
51
270
0
ARC
5
512
100
AcDbEntity
8
0
100
AcDbCircle
10
104.4520000149012
20
-73.444999999999993
30
1.6000000000000003
40
0.49999999999999822
210
0
220
0
230
1
100
AcDbArc
50
-90
51
0
0
ARC
5
513
100
AcDbEntity
8
0
100
AcDbCircle
10
284.19625001490118
20
-74.445000000000007
30
1.6000000000000003
40
0.49999999999999822
210
0
220
0
230
1
100
AcDbArc
50
-90
51
0
0
LINE
5
514
100
AcDbEntity
8
0
100
AcDbLine
10
70.383750014901167
20
-61.445
30
1.6000000000000003
11
70.383750014901167
21
-74.445000000000007
31
1.6000000000000003
0
ARC
5
515
100
AcDbEntity
8
0
100
AcDbCircle
10
271.19625001490124
20
-74.444999999999993
30
1.6000000000000003
40
0.50000000000004263
210
0
220
0
230
1
100
AcDbArc
50
180
51
270
0
LINE
5
516
100
AcDbEntity
8
0
100
AcDbLine
10
19.370750014901162
20
-79.995000000000005
30
1.6000000000000003
11
19.370750014901166
21
-78.495000000000005
31
1.6000000000000003
0
ARC
5
517
100
AcDbEntity
8
0
100
AcDbCircle
10
88.933750014901165
20
-55.395000000000003
30
1.6000000000000003
40
0.49999999999999822
210
0
220
0
230
1
100
AcDbArc
50
-90
51
0
0
LINE
5
518
100
AcDbEntity
8
0
100
AcDbLine
10
75.433750014901165
20
-69.032000000000011
30
1.6000000000000003
11
73.933750014901165
21
-69.032000000000011
31
1.6000000000000003
0
ARC
5
519
100
AcDbEntity
8
0
100
AcDbCircle
10
136.55875001490116
20
-23.345000000000013
30
1.6000000000000003
40
0.50000000000000711
210
0
220
0
230
1
100
AcDbArc
50
0
51
90
0
ARC
5
520
100
AcDbEntity
8
0
100
AcDbCircle
10
49.74675001490116
20
-78.495000000000005
30
1.6000000000000003
40
0.50000000000000711
210
0
220
0
230
1
100
AcDbArc
50
0
51
90
0
LINE
5
521
100
AcDbEntity
8
0
100
AcDbLine
10
276.42750001490117
20
-79.995000000000005
30
1.6000000000000003
11
279.43375001490119
21
-79.99499999999999
31
1.6000000000000003
0
ARC
5
522
100
AcDbEntity
8
0
100
AcDbCircle
10
275.92750001490117
20
-78.495000000000005
30
1.6000000000000003
40
0.49999999999997158
210
0
220
0
230
1
100
AcDbArc
50
0
51
90
0
LINE
5
523
100
AcDbEntity
8
0
100
AcDbLine
10
38.420750014901166
20
-79.995000000000005
30
1.6000000000000003
11
38.420750014901166
21
-78.495000000000005
31
1.6000000000000003
0
ARC
5
524
100
AcDbEntity
8
0
100
AcDbCircle
10
117.50875001490117
20
-23.345000000000002
30
1.6000000000000003
40
0.50000000000000711
210
0
220
0
230
1
100
AcDbArc
50
0
51
90
0
ARC
5
525
100
AcDbEntity
8
0
100
AcDbCircle
10
47.358750014901162
20
-93.49499999999999
30
1.6000000000000003
40
0.49999999999999822
210
0
220
0
230
1
100
AcDbArc
50
180
51
270
0
LINE
5
526
100
AcDbEntity
8
0
100
AcDbLine
10
73.933750014901165
20
-54.808000000000007
30
1.6000000000000003
11
75.433750014901165
21
-54.808000000000007
31
1.6000000000000003
0
LINE
5
527
100
AcDbEntity
8
0
100
AcDbLine
10
69.296750014901164
20
-79.995000000000005
30
1.6000000000000003
11
69.883750014901167
21
-79.995000000000005
31
1.6000000000000003
0
LINE
5
528
100
AcDbEntity
8
0
100
AcDbLine
10
68.796750014901164
20
-77.995000000000005
30
1.6000000000000003
11
62.796750014901164
21
-77.995000000000005
31
1.6000000000000003
0
LINE
5
529
100
AcDbEntity
8
0
100
AcDbLine
10
96.86500001490117
20
-42.394999999999996
30
1.6000000000000003
11
96.86500001490117
21
-55.395000000000003
31
1.6000000000000003
0
ARC
5
530
100
AcDbEntity
8
0
100
AcDbCircle
10
69.883750014901167
20
-74.445000000000007
30
1.6000000000000003
40
0.49999999999999822
210
0
220
0
230
1
100
AcDbArc
50
-90
51
0
0
LINE
5
531
100
AcDbEntity
8
0
100
AcDbLine
10
26.370750014901169
20
-79.995000000000005
30
1.6000000000000003
11
26.370750014901169
21
-78.495000000000005
31
1.6000000000000003
0
ARC
5
532
100
AcDbEntity
8
0
100
AcDbCircle
10
68.796750014901164
20
-78.495000000000005
30
1.6000000000000003
40
0.49999999999999822
210
0
220
0
230
1
100
AcDbArc
50
0
51
90
0
LINE
5
533
100
AcDbEntity
8
0
100
AcDbLine
10
73.433750014901165
20
-48.308
30
1.6000000000000003
11
73.433750014901165
21
-54.307999999999993
31
1.6000000000000003
0
ARC
5
534
100
AcDbEntity
8
0
100
AcDbCircle
10
69.883750014901167
20
-93.49499999999999
30
1.6000000000000003
40
0.50000000000000711
210
0
220
0
230
1
100
AcDbArc
50
-90
51
0
0
ARC
5
535
100
AcDbEntity
8
0
100
AcDbCircle
10
75.933750014901165
20
-55.395000000000003
30
1.6000000000000003
40
0.49999999999999822
210
0
220
0
230
1
100
AcDbArc
50
180
51
270
0
LINE
5
536
100
AcDbEntity
8
0
100
AcDbLine
10
73.433750014901165
20
-62.532000000000004
30
1.6000000000000003
11
73.433750014901165
21
-68.532000000000011
31
1.6000000000000003
0
ARC
5
537
100
AcDbEntity
8
0
100
AcDbCircle
10
56.88375001490116
20
-42.394999999999996
30
1.6000000000000003
40
0.49999999999998934
210
0
220
-0
230
1
100
AcDbArc
50
90
51
180
0
LINE
5
538
100
AcDbEntity
8
0
100
AcDbLine
10
137.05875001490116
20
-23.345000000000013
30
1.6000000000000003
11
137.05875001490116
21
-36.344999999999999
31
1.6000000000000003
0
LINE
5
539
100
AcDbEntity
8
0
100
AcDbLine
10
256.90875001490122
20
-22.844999999999999
30
1.6000000000000003
11
269.90875001490116
21
-22.844999999999995
31
1.6000000000000003
0
ARC
5
540
100
AcDbEntity
8
0
100
AcDbCircle
10
50.83375001490117
20
-74.445000000000007
30
1.6000000000000003
40
0.49999999999999822
210
0
220
0
230
1
100
AcDbArc
50
-90
51
0
0
ARC
5
541
100
AcDbEntity
8
0
100
AcDbCircle
10
73.933750014901165
20
-86.408000000000015
30
1.6000000000000003
40
0.50000000000000711
210
0
220
-0
230
1
100
AcDbArc
50
90
51
180
0
ARC
5
542
100
AcDbEntity
8
0
100
AcDbCircle
10
75.933750014901165
20
-23.345000000000002
30
1.6000000000000003
40
0.50000000000000266
210
0
220
-0
230
1
100
AcDbArc
50
90
51
180
0
LINE
5
543
100
AcDbEntity
8
0
100
AcDbLine
10
75.433750014901165
20
-85.908000000000015
30
1.6000000000000003
11
73.933750014901165
21
-85.908000000000015
31
1.6000000000000003
0
ARC
5
544
100
AcDbEntity
8
0
100
AcDbCircle
10
69.883750014901167
20
-42.394999999999996
30
1.6000000000000003
40
0.49999999999999822
210
0
220
0
230
1
100
AcDbArc
50
0
51
90
0
LINE
5
545
100
AcDbEntity
8
0
100
AcDbLine
10
128.32125001490118
20
-41.89500000000001
30
1.6000000000000003
11
141.32125001490118
21
-41.894999999999989
31
1.6000000000000003
0
LINE
5
546
100
AcDbEntity
8
0
100
AcDbLine
10
37.833750014901163
20
-22.844999999999999
30
1.6000000000000003
11
50.83375001490117
21
-22.844999999999999
31
1.6000000000000003
0
LINE
5
547
100
AcDbEntity
8
0
100
AcDbLine
10
75.433750014901165
20
-30.932000000000002
30
1.6000000000000003
11
73.933750014901165
21
-30.932000000000002
31
1.6000000000000003
0
ARC
5
548
100
AcDbEntity
8
0
100
AcDbCircle
10
88.933750014901165
20
-61.445
30
1.6000000000000003
40
0.49999999999998934
210
0
220
0
230
1
100
AcDbArc
50
0
51
90
0
LINE
5
549
100
AcDbEntity
8
0
100
AcDbLine
10
75.433750014901165
20
-47.808000000000007
30
1.6000000000000003
11
73.933750014901165
21
-47.808000000000007
31
1.6000000000000003
0
ARC
5
550
100
AcDbEntity
8
0
100
AcDbCircle
10
62.796750014901164
20
-78.495000000000005
30
1.6000000000000003
40
0.49999999999999822
210
0
220
-0
230
1
100
AcDbArc
50
90
51
180
0
ARC
5
551
100
AcDbEntity
8
0
100
AcDbCircle
10
156.89625001490117
20
-61.445
30
1.6000000000000003
40
0.49999999999999822
210
0
220
-0
230
1
100
AcDbArc
50
90
51
180
0
LINE
5
552
100
AcDbEntity
8
0
100
AcDbLine
10
50.246750014901167
20
-79.995000000000005
30
1.6000000000000003
11
50.246750014901167
21
-78.495000000000005
31
1.6000000000000003
0
ARC
5
553
100
AcDbEntity
8
0
100
AcDbCircle
10
73.933750014901165
20
-54.307999999999993
30
1.6000000000000003
40
0.49999999999999822
210
0
220
0
230
1
100
AcDbArc
50
180
51
270
0
ARC
5
554
100
AcDbEntity
8
0
100
AcDbCircle
10
69.883750014901167
20
-80.495000000000005
30
1.6000000000000003
40
0.49999999999999822
210
0
220
0
230
1
100
AcDbArc
50
0
51
90
0
LINE
5
555
100
AcDbEntity
8
0
100
AcDbLine
10
75.433750014901165
20
-54.808000000000007
30
1.6000000000000003
11
75.433750014901165
21
-55.395000000000003
31
1.6000000000000003
0
ARC
5
556
100
AcDbEntity
8
0
100
AcDbCircle
10
73.933750014901165
20
-48.308
30
1.6000000000000003
40
0.49999999999998934
210
0
220
-0
230
1
100
AcDbArc
50
90
51
180
0
ARC
5
557
100
AcDbEntity
8
0
100
AcDbCircle
10
69.883750014901167
20
-55.395000000000003
30
1.6000000000000003
40
0.50000000000000711
210
0
220
0
230
1
100
AcDbArc
50
-90
51
0
0
ARC
5
558
100
AcDbEntity
8
0
100
AcDbCircle
10
69.883750014901167
20
-61.445
30
1.6000000000000003
40
0.49999999999999822
210
0
220
0
230
1
100
AcDbArc
50
0
51
90
0
LINE
5
559
100
AcDbEntity
8
0
100
AcDbLine
10
37.833750014901163
20
-60.945
30
1.6000000000000003
11
50.83375001490117
21
-60.944999999999993
31
1.6000000000000003
0
ARC
5
560
100
AcDbEntity
8
0
100
AcDbCircle
10
18.783750014901162
20
-61.445
30
1.6000000000000003
40
0.49999999999999822
210
0
220
-0
230
1
100
AcDbArc
50
90
51
180
0
LINE
5
561
100
AcDbEntity
8
0
100
AcDbLine
10
70.383750014901167
20
-23.345000000000002
30
1.6000000000000003
11
70.383750014901167
21
-36.344999999999999
31
1.6000000000000003
0
ARC
5
562
100
AcDbEntity
8
0
100
AcDbCircle
10
37.833750014901163
20
-42.394999999999996
30
1.6000000000000003
40
0.49999999999998934
210
0
220
-0
230
1
100
AcDbArc
50
90
51
180
0
LINE
5
563
100
AcDbEntity
8
0
100
AcDbLine
10
37.833750014901163
20
-36.844999999999999
30
1.6000000000000003
11
50.83375001490117
21
-36.844999999999999
31
1.6000000000000003
0
LINE
5
564
100
AcDbEntity
8
0
100
AcDbLine
10
18.283750014901162
20
-80.495000000000005
30
1.6000000000000003
11
18.283750014901162
21
-93.49499999999999
31
1.6000000000000003
0
ARC
5
565
100
AcDbEntity
8
0
100
AcDbCircle
10
50.83375001490117
20
-23.345000000000002
30
1.6000000000000003
40
0.49999999999999822
210
0
220
0
230
1
100
AcDbArc
50
0
51
90
0
LINE
5
566
100
AcDbEntity
8
0
100
AcDbLine
10
18.283750014901162
20
-42.394999999999996
30
1.6000000000000003
11
18.283750014901162
21
-55.395000000000003
31
1.6000000000000003
0
ARC
5
567
100
AcDbEntity
8
0
100
AcDbCircle
10
25.870750014901166
20
-78.495000000000005
30
1.6000000000000003
40
0.50000000000000266
210
0
220
0
230
1
100
AcDbArc
50
0
51
90
0
LINE
5
568
100
AcDbEntity
8
0
100
AcDbLine
10
51.333750014901163
20
-23.345000000000002
30
1.6000000000000003
11
51.33375001490117
21
-36.344999999999999
31
1.6000000000000003
0
LINE
5
569
100
AcDbEntity
8
0
100
AcDbLine
10
18.783750014901162
20
-22.844999999999999
30
1.6000000000000003
11
31.783750014901166
21
-22.844999999999999
31
1.6000000000000003
0
ARC
5
570
100
AcDbEntity
8
0
100
AcDbCircle
10
73.933750014901165
20
-24.432000000000002
30
1.6000000000000003
40
0.49999999999999822
210
0
220
-0
230
1
100
AcDbArc
50
90
51
180
0
ARC
5
571
100
AcDbEntity
8
0
100
AcDbCircle
10
18.783750014901162
20
-93.49499999999999
30
1.6000000000000003
40
0.50000000000000044
210
0
220
0
230
1
100
AcDbArc
50
180
51
270
0
ARC
5
572
100
AcDbEntity
8
0
100
AcDbCircle
10
16.758750014901164
20
-21.32
30
1.6000000000000003
40
2.0000000000000018
210
0
220
-0
230
1
100
AcDbArc
50
90
51
180
0
LINE
5
573
100
AcDbEntity
8
0
100
AcDbLine
10
75.433750014901165
20
-23.345000000000002
30
1.6000000000000003
11
75.433750014901165
21
-23.932000000000002
31
1.6000000000000003
0
ARC
5
574
100
AcDbEntity
8
0
100
AcDbCircle
10
31.783750014901166
20
-55.395000000000003
30
1.6000000000000003
40
0.49999999999999822
210
0
220
0
230
1
100
AcDbArc
50
-90
51
0
0
LINE
5
575
100
AcDbEntity
8
0
100
AcDbLine
10
37.833750014901163
20
-55.89500000000001
30
1.6000000000000003
11
50.83375001490117
21
-55.895000000000003
31
1.6000000000000003
0
LINE
5
576
100
AcDbEntity
8
0
100
AcDbLine
10
32.283750014901159
20
-23.345000000000002
30
1.6000000000000003
11
32.283750014901159
21
-36.344999999999999
31
1.6000000000000003
0
ARC
5
577
100
AcDbEntity
8
0
100
AcDbCircle
10
19.870750014901162
20
-78.495000000000005
30
1.6000000000000003
40
0.49999999999999822
210
0
220
-0
230
1
100
AcDbArc
50
90
51
180
0
LINE
5
578
100
AcDbEntity
8
0
100
AcDbLine
10
37.333750014901163
20
-42.394999999999996
30
1.6000000000000003
11
37.333750014901163
21
-55.395000000000003
31
1.6000000000000003
0
ARC
5
579
100
AcDbEntity
8
0
100
AcDbCircle
10
38.920750014901159
20
-78.495000000000005
30
1.6000000000000003
40
0.49999999999999822
210
0
220
-0
230
1
100
AcDbArc
50
90
51
180
0
LINE
5
580
100
AcDbEntity
8
0
100
AcDbLine
10
26.370750014901169
20
-79.995000000000005
30
1.6000000000000003
11
38.420750014901166
21
-79.995000000000005
31
1.6000000000000003
0
ARC
5
581
100
AcDbEntity
8
0
100
AcDbCircle
10
31.783750014901166
20
-42.394999999999996
30
1.6000000000000003
40
0.49999999999999822
210
0
220
0
230
1
100
AcDbArc
50
0
51
90
0
ARC
5
582
100
AcDbEntity
8
0
100
AcDbCircle
10
16.758750014901175
20
-95.519999999999996
30
1.6000000000000003
40
2.0000000000000129
210
0
220
0
230
1
100
AcDbArc
50
180
51
269.99999999999972
0
LINE
5
583
100
AcDbEntity
8
0
100
AcDbLine
10
75.433750014901165
20
-23.932000000000002
30
1.6000000000000003
11
73.933750014901165
21
-23.932000000000002
31
1.6000000000000003
0
ARC
5
584
100
AcDbEntity
8
0
100
AcDbCircle
10
37.833750014901163
20
-23.345000000000002
30
1.6000000000000003
40
0.50000000000000266
210
0
220
-0
230
1
100
AcDbArc
50
90
51
180
0
ARC
5
585
100
AcDbEntity
8
0
100
AcDbCircle
10
69.883750014901167
20
-36.344999999999999
30
1.6000000000000003
40
0.49999999999999822
210
0
220
0
230
1
100
AcDbArc
50
-90
51
0
0
LINE
5
586
100
AcDbEntity
8
0
100
AcDbLine
10
18.783750014901162
20
-79.995000000000005
30
1.6000000000000003
11
19.370750014901162
21
-79.995000000000005
31
1.6000000000000003
0
ARC
5
587
100
AcDbEntity
8
0
100
AcDbCircle
10
69.883750014901167
20
-23.345000000000002
30
1.6000000000000003
40
0.49999999999999822
210
0
220
0
230
1
100
AcDbArc
50
0
51
90
0
LINE
5
588
100
AcDbEntity
8
0
100
AcDbLine
10
41.808750014901165
20
-92.995000000000005
30
1.6000000000000003
11
41.808750014901165
21
-93.49499999999999
31
1.6000000000000003
0
ARC
5
589
100
AcDbEntity
8
0
100
AcDbCircle
10
56.88375001490116
20
-36.344999999999999
30
1.6000000000000003
40
0.49999999999999822
210
0
220
0
230
1
100
AcDbArc
50
180
51
270
0
ARC
5
590
100
AcDbEntity
8
0
100
AcDbCircle
10
56.88375001490116
20
-23.345000000000002
30
1.6000000000000003
40
0.50000000000000266
210
0
220
-0
230
1
100
AcDbArc
50
90
51
180
0
LINE
5
591
100
AcDbEntity
8
0
100
AcDbLine
10
56.383750014901167
20
-23.345000000000002
30
1.6000000000000003
11
56.383750014901167
21
-36.344999999999999
31
1.6000000000000003
0
LINE
5
592
100
AcDbEntity
8
0
100
AcDbLine
10
37.333750014901163
20
-23.345000000000002
30
1.6000000000000003
11
37.333750014901163
21
-36.344999999999999
31
1.6000000000000003
0
LINE
5
593
100
AcDbEntity
8
0
100
AcDbLine
10
18.783750014901162
20
-55.895000000000003
30
1.6000000000000003
11
31.783750014901166
21
-55.895000000000003
31
1.6000000000000003
0
ARC
5
594
100
AcDbEntity
8
0
100
AcDbCircle
10
31.783750014901166
20
-23.345000000000002
30
1.6000000000000003
40
0.49999999999999822
210
0
220
0
230
1
100
AcDbArc
50
0
51
90
0
ARC
5
595
100
AcDbEntity
8
0
100
AcDbCircle
10
18.783750014901162
20
-55.395000000000003
30
1.6000000000000003
40
0.50000000000000044
210
0
220
0
230
1
100
AcDbArc
50
180
51
270
0
LINE
5
596
100
AcDbEntity
8
0
100
AcDbLine
10
18.783750014901162
20
-41.89500000000001
30
1.6000000000000003
11
31.783750014901166
21
-41.894999999999996
31
1.6000000000000003
0
ARC
5
597
100
AcDbEntity
8
0
100
AcDbCircle
10
37.833750014901163
20
-74.445000000000007
30
1.6000000000000003
40
0.49999999999999822
210
0
220
0
230
1
100
AcDbArc
50
180
51
270
0
ARC
5
598
100
AcDbEntity
8
0
100
AcDbCircle
10
31.783750014901166
20
-61.445
30
1.6000000000000003
40
0.49999999999999822
210
0
220
0
230
1
100
AcDbArc
50
0
51
90
0
LINE
5
599
100
AcDbEntity
8
0
100
AcDbLine
10
56.383750014901167
20
-42.394999999999996
30
1.6000000000000003
11
56.383750014901167
21
-55.395000000000003
31
1.6000000000000003
0
LINE
5
600
100
AcDbEntity
8
0
100
AcDbLine
10
73.433750014901165
20
-24.432000000000002
30
1.6000000000000003
11
73.433750014901165
21
-30.432000000000006
31
1.6000000000000003
0
ARC
5
601
100
AcDbEntity
8
0
100
AcDbCircle
10
73.933750014901165
20
-62.532000000000004
30
1.6000000000000003
40
0.49999999999999822
210
0
220
-0
230
1
100
AcDbArc
50
90
51
180
0
ARC
5
602
100
AcDbEntity
8
0
100
AcDbCircle
10
233.09625001490119
20
-74.445000000000007
30
1.6000000000000003
40
0.49999999999997158
210
0
220
0
230
1
100
AcDbArc
50
180
51
270
0
LINE
5
603
100
AcDbEntity
8
0
100
AcDbLine
10
199.75875001490118
20
-22.844999999999999
30
1.6000000000000003
11
212.75875001490121
21
-22.844999999999999
31
1.6000000000000003
0
ARC
5
604
100
AcDbEntity
8
0
100
AcDbCircle
10
227.04625001490115
20
-61.445
30
1.6000000000000003
40
0.50000000000004263
210
0
220
0
230
1
100
AcDbArc
50
0
51
90
0
LINE
5
605
100
AcDbEntity
8
0
100
AcDbLine
10
205.02800001490115
20
-92.495000000000005
30
1.6000000000000003
11
205.02800001490115
21
-78.495000000000005
31
1.6000000000000003
0
LINE
5
606
100
AcDbEntity
8
0
100
AcDbLine
10
228.27700001490115
20
-77.99499999999999
30
1.6000000000000003
11
222.2770000149012
21
-77.995000000000005
31
1.599999999999993
0
ARC
5
607
100
AcDbEntity
8
0
100
AcDbCircle
10
204.52800001490118
20
-78.495000000000005
30
1.6000000000000003
40
0.49999999999997158
210
0
220
0
230
1
100
AcDbArc
50
0
51
90
0
ARC
5
608
100
AcDbEntity
8
0
100
AcDbCircle
10
322.2962500149012
20
-61.445
30
1.6000000000000003
40
0.49999999999997158
210
0
220
0
230
1
100
AcDbArc
50
0
51
90
0
ARC
5
609
100
AcDbEntity
8
0
100
AcDbCircle
10
365.21550001490118
20
-54.39500000000001
30
1.6000000000000003
40
0.49999999999997158
210
0
220
0
230
1
100
AcDbArc
50
180
51
270
0
LINE
5
610
100
AcDbEntity
8
0
100
AcDbLine
10
371.21550001490118
20
-39.895000000000032
30
1.6000000000000003
11
365.21550001490118
21
-39.894999999999996
31
1.6000000000000003
0
LINE
5
611
100
AcDbEntity
8
0
100
AcDbLine
10
180.70875001490117
20
-36.845000000000006
30
1.6000000000000003
11
193.70875001490111
21
-36.844999999999999
31
1.6000000000000003
0
ARC
5
612
100
AcDbEntity
8
0
100
AcDbCircle
10
217.52125001490114
20
-55.395000000000003
30
1.6000000000000003
40
0.49999999999999822
210
0
220
0
230
1
100
AcDbArc
50
-90
51
0
0
LINE
5
613
100
AcDbEntity
8
0
100
AcDbLine
10
204.02125001490111
20
-42.394999999999996
30
1.6000000000000003
11
204.02125001490111
21
-55.395000000000003
31
1.6000000000000003
0
LINE
5
614
100
AcDbEntity
8
0
100
AcDbLine
10
265.93375001490119
20
-92.995000000000005
30
1.6000000000000003
11
265.93375001490119
21
-93.49499999999999
31
1.6000000000000003
0
LINE
5
615
100
AcDbEntity
8
0
100
AcDbLine
10
375.18375001490119
20
-80.494999999999976
30
1.6000000000000003
11
375.18375001490119
21
-93.49499999999999
31
1.6000000000000003
0
ARC
5
616
100
AcDbEntity
8
0
100
AcDbCircle
10
380.7337500149012
20
-42.394999999999996
30
1.6000000000000003
40
0.49999999999998934
210
0
220
-0
230
1
100
AcDbArc
50
90
51
180
0
LINE
5
617
100
AcDbEntity
8
0
100
AcDbLine
10
370.4212500149012
20
-23.345000000000002
30
1.6000000000000003
11
370.4212500149012
21
-36.344999999999999
31
1.6000000000000003
0
ARC
5
618
100
AcDbEntity
8
0
100
AcDbCircle
10
361.68375001490119
20
-74.445000000000036
30
1.6000000000000003
40
0.49999999999997158
210
0
220
0
230
1
100
AcDbArc
50
180
51
270
0
ARC
5
619
100
AcDbEntity
8
0
100
AcDbCircle
10
322.2962500149012
20
-74.445000000000007
30
1.6000000000000003
40
0.49999999999999822
210
0
220
0
230
1
100
AcDbArc
50
-90
51
0
0
LINE
5
620
100
AcDbEntity
8
0
100
AcDbLine
10
318.82125001490118
20
-55.89500000000001
30
1.6000000000000003
11
331.82125001490124
21
-55.89500000000001
31
1.6000000000000003
0
LINE
5
621
100
AcDbEntity
8
0
100
AcDbLine
10
371.21550001490118
20
-54.895000000000003
30
1.6000000000000003
11
365.21550001490118
21
-54.894999999999982
31
1.6000000000000003
0
LINE
5
622
100
AcDbEntity
8
0
100
AcDbLine
10
356.9212500149012
20
-36.844999999999999
30
1.6000000000000003
11
369.92125001490126
21
-36.844999999999999
31
1.6000000000000003
0
LINE
5
623
100
AcDbEntity
8
0
100
AcDbLine
10
356.9212500149012
20
-22.844999999999999
30
1.6000000000000003
11
369.92125001490126
21
-22.844999999999999
31
1.6000000000000003
0
LINE
5
624
100
AcDbEntity
8
0
100
AcDbLine
10
218.02125001490117
20
-42.394999999999996
30
1.6000000000000003
11
218.02125001490117
21
-55.395000000000003
31
1.6000000000000003
0
LINE
5
625
100
AcDbEntity
8
0
100
AcDbLine
10
193.26550001490119
20
-79.995000000000005
30
1.6000000000000003
11
193.26550001490119
21
-78.495000000000005
31
1.6000000000000003
0
LINE
5
626
100
AcDbEntity
8
0
100
AcDbLine
10
294.22125001490116
20
-42.394999999999996
30
1.6000000000000003
11
294.22125001490116
21
-55.395000000000003
31
1.6000000000000003
0
ARC
5
627
100
AcDbEntity
8
0
100
AcDbCircle
10
218.80875001490119
20
-36.344999999999999
30
1.6000000000000003
40
0.49999999999997158
210
0
220
0
230
1
100
AcDbArc
50
180
51
270
0
LINE
5
628
100
AcDbEntity
8
0
100
AcDbLine
10
299.77125001490117
20
-55.895000000000003
30
1.6000000000000003
11
312.77125001490117
21
-55.895000000000003
31
1.6000000000000003
0
ARC
5
629
100
AcDbEntity
8
0
100
AcDbCircle
10
318.82125001490118
20
-42.394999999999996
30
1.6000000000000003
40
0.49999999999998934
210
0
220
-0
230
1
100
AcDbArc
50
90
51
180
0
ARC
5
630
100
AcDbEntity
8
0
100
AcDbCircle
10
369.92125001490126
20
-36.344999999999999
30
1.6000000000000003
40
0.49999999999999822
210
0
220
0
230
1
100
AcDbArc
50
-90
51
0
0
ARC
5
631
100
AcDbEntity
8
0
100
AcDbCircle
10
194.99625001490116
20
-74.445000000000007
30
1.6000000000000003
40
0.49999999999997158
210
0
220
0
230
1
100
AcDbArc
50
180
51
270
0
ARC
5
632
100
AcDbEntity
8
0
100
AcDbCircle
10
371.21550001490118
20
-40.395000000000003
30
1.6000000000000003
40
0.49999999999997158
210
0
220
0
230
1
100
AcDbArc
50
0
51
90
0
ARC
5
633
100
AcDbEntity
8
0
100
AcDbCircle
10
193.76550001490116
20
-78.495000000000005
30
1.6000000000000003
40
0.49999999999999822
210
0
220
-0
230
1
100
AcDbArc
50
90
51
180
0
ARC
5
634
100
AcDbEntity
8
0
100
AcDbCircle
10
365.21550001490118
20
-40.395000000000003
30
1.6000000000000003
40
0.50000000000000711
210
0
220
-0
230
1
100
AcDbArc
50
90
51
180
0
LINE
5
635
100
AcDbEntity
8
0
100
AcDbLine
10
375.18375001490119
20
-61.444999999999972
30
1.6000000000000003
11
375.18375001490119
21
-74.445000000000007
31
1.6000000000000003
0
LINE
5
636
100
AcDbEntity
8
0
100
AcDbLine
10
318.82125001490118
20
-41.89500000000001
30
1.6000000000000003
11
331.82125001490124
21
-41.89500000000001
31
1.6000000000000003
0
ARC
5
637
100
AcDbEntity
8
0
100
AcDbCircle
10
371.21550001490118
20
-54.39500000000001
30
1.6000000000000003
40
0.49999999999999822
210
0
220
0
230
1
100
AcDbArc
50
-90
51
0
0
ARC
5
638
100
AcDbEntity
8
0
100
AcDbCircle
10
249.76500001490115
20
-93.49499999999999
30
1.6000000000000003
40
0.49999999999997158
210
0
220
0
230
1
100
AcDbArc
50
180
51
270
0
LINE
5
639
100
AcDbEntity
8
0
100
AcDbLine
10
196.59000001490119
20
-92.995000000000005
30
1.6000000000000003
11
196.59000001490119
21
-93.495000000000005
31
1.6000000000000003
0
ARC
5
640
100
AcDbEntity
8
0
100
AcDbCircle
10
355.63375001490124
20
-80.495000000000005
30
1.6000000000000003
40
0.49999999999997158
210
0
220
0
230
1
100
AcDbArc
50
0
51
90
0
LINE
5
641
100
AcDbEntity
8
0
100
AcDbLine
10
314.05875001490119
20
-36.845000000000006
30
1.6000000000000003
11
327.05875001490119
21
-36.844999999999999
31
1.6000000000000003
0
ARC
5
642
100
AcDbEntity
8
0
100
AcDbCircle
10
236.57125001490115
20
-42.394999999999996
30
1.6000000000000003
40
0.50000000000004263
210
0
220
0
230
1
100
AcDbArc
50
0
51
90
0
LINE
5
643
100
AcDbEntity
8
0
100
AcDbLine
10
314.05875001490119
20
-22.844999999999999
30
1.6000000000000003
11
327.05875001490119
21
-22.844999999999995
31
1.6000000000000003
0
LINE
5
644
100
AcDbEntity
8
0
100
AcDbLine
10
356.4212500149012
20
-23.345000000000002
30
1.6000000000000003
11
356.4212500149012
21
-36.344999999999999
31
1.6000000000000003
0
ARC
5
645
100
AcDbEntity
8
0
100
AcDbCircle
10
188.94625001490118
20
-61.445000000000007
30
1.6000000000000003
40
0.49999999999997158
210
0
220
0
230
1
100
AcDbArc
50
0
51
90
0
ARC
5
646
100
AcDbEntity
8
0
100
AcDbCircle
10
231.80875001490114
20
-36.344999999999999
30
1.6000000000000003
40
0.49999999999999822
210
0
220
0
230
1
100
AcDbArc
50
-90
51
0
0
ARC
5
647
100
AcDbEntity
8
0
100
AcDbCircle
10
299.77125001490117
20
-42.394999999999996
30
1.6000000000000003
40
0.49999999999998934
210
0
220
-0
230
1
100
AcDbArc
50
90
51
180
0
LINE
5
648
100
AcDbEntity
8
0
100
AcDbLine
10
242.12125001490122
20
-42.394999999999996
30
1.6000000000000003
11
242.12125001490122
21
-55.395000000000003
31
1.6000000000000003
0
LINE
5
649
100
AcDbEntity
8
0
100
AcDbLine
10
361.18375001490119
20
-61.445
30
1.6000000000000003
11
361.18375001490119
21
-74.445000000000036
31
1.6000000000000003
0
LINE
5
650
100
AcDbEntity
8
0
100
AcDbLine
10
380.7337500149012
20
-93.995000000000005
30
1.6000000000000003
11
393.73375001490126
21
-93.995000000000005
31
1.6000000000000003
0
LINE
5
651
100
AcDbEntity
8
0
100
AcDbLine
10
265.64625001490117
20
-61.445000000000007
30
1.6000000000000003
11
265.64625001490117
21
-74.445000000000007
31
1.6000000000000003
0
LINE
5
652
100
AcDbEntity
8
0
100
AcDbLine
10
380.23375001490126
20
-80.495000000000005
30
1.6000000000000003
11
380.23375001490126
21
-93.49499999999999
31
1.6000000000000003
0
ARC
5
653
100
AcDbEntity
8
0
100
AcDbCircle
10
204.52125001490117
20
-42.394999999999996
30
1.6000000000000003
40
0.49999999999998934
210
0
220
-0
230
1
100
AcDbArc
50
90
51
180
0
ARC
5
654
100
AcDbEntity
8
0
100
AcDbCircle
10
309.29625001490126
20
-74.445000000000007
30
1.6000000000000003
40
0.50000000000004263
210
0
220
0
230
1
100
AcDbArc
50
180
51
270
0
LINE
5
655
100
AcDbEntity
8
0
100
AcDbLine
10
394.2337500149012
20
-42.394999999999982
30
1.6000000000000003
11
394.2337500149012
21
-55.395000000000003
31
1.6000000000000003
0
LINE
5
656
100
AcDbEntity
8
0
100
AcDbLine
10
56.88375001490116
20
-74.945000000000007
30
1.6000000000000003
11
69.883750014901167
21
-74.945000000000007
31
1.6000000000000003
0
LINE
5
657
100
AcDbEntity
8
0
100
AcDbLine
10
361.68375001490119
20
-93.995000000000005
30
1.6000000000000003
11
374.68375001490125
21
-93.995000000000005
31
1.6000000000000003
0
LINE
5
658
100
AcDbEntity
8
0
100
AcDbLine
10
196.09000001490116
20
-93.995000000000005
30
1.6000000000000003
11
178.3275000149012
21
-93.995000000000005
31
1.6000000000000003
0
ARC
5
659
100
AcDbEntity
8
0
100
AcDbCircle
10
356.9212500149012
20
-36.344999999999999
30
1.6000000000000003
40
0.49999999999997158
210
0
220
0
230
1
100
AcDbArc
50
180
51
270
0
ARC
5
660
100
AcDbEntity
8
0
100
AcDbCircle
10
393.73375001490126
20
-23.344999999999978
30
1.6000000000000003
40
0.49999999999997158
210
0
220
0
230
1
100
AcDbArc
50
0
51
90
0
LINE
5
661
100
AcDbEntity
8
0
100
AcDbLine
10
363.27750001490125
20
-42.394999999999996
30
1.6000000000000003
11
363.27750001490119
21
-55.395000000000003
31
1.6000000000000003
0
LINE
5
662
100
AcDbEntity
8
0
100
AcDbLine
10
193.26550001490119
20
-79.995000000000005
30
1.6000000000000003
11
181.15200001490115
21
-79.995000000000005
31
1.6000000000000003
0
LINE
5
663
100
AcDbEntity
8
0
100
AcDbLine
10
120.39000001490116
20
-55.395000000000003
30
1.6000000000000003
11
120.39000001490118
21
-42.394999999999996
31
1.6000000000000003
0
ARC
5
664
100
AcDbEntity
8
0
100
AcDbCircle
10
223.57125001490118
20
-42.394999999999996
30
1.6000000000000003
40
0.49999999999998934
210
0
220
-0
230
1
100
AcDbArc
50
90
51
180
0
LINE
5
665
100
AcDbEntity
8
0
100
AcDbLine
10
285.4837500149012
20
-93.995000000000005
30
1.6000000000000003
11
336.58375001490123
21
-93.995000000000005
31
1.6000000000000003
0
LINE
5
666
100
AcDbEntity
8
0
100
AcDbLine
10
290.24625001490119
20
-74.945000000000007
30
1.6000000000000003
11
303.24625001490119
21
-74.945000000000007
31
1.6000000000000003
0
LINE
5
667
100
AcDbEntity
8
0
100
AcDbLine
10
117.50875001490117
20
-22.844999999999995
30
1.6000000000000003
11
99.746250014901165
21
-22.844999999999995
31
1.6000000000000003
0
ARC
5
668
100
AcDbEntity
8
0
100
AcDbCircle
10
233.09625001490119
20
-61.445
30
1.6000000000000003
40
0.49999999999999822
210
0
220
-0
230
1
100
AcDbArc
50
90
51
180
0
LINE
5
669
100
AcDbEntity
8
0
100
AcDbLine
10
121.82800001490116
20
-60.945
30
1.6000000000000003
11
106.89000001490116
21
-60.945
31
1.6000000000000003
0
LINE
5
670
100
AcDbEntity
8
0
100
AcDbLine
10
290.24625001490119
20
-60.945
30
1.6000000000000003
11
303.24625001490119
21
-60.944999999999993
31
1.6000000000000003
0
LINE
5
671
100
AcDbEntity
8
0
100
AcDbLine
10
349.77750001490119
20
-55.895000000000003
30
1.6000000000000003
11
362.77750001490119
21
-55.895000000000003
31
1.6000000000000003
0
LINE
5
672
100
AcDbEntity
8
0
100
AcDbLine
10
233.09625001490119
20
-74.945000000000007
30
1.6000000000000003
11
246.09625001490116
21
-74.945000000000007
31
1.6000000000000003
0
LINE
5
673
100
AcDbEntity
8
0
100
AcDbLine
10
252.15300001490121
20
-77.995000000000005
30
1.6000000000000003
11
241.32700001490122
21
-77.995000000000005
31
1.6000000000000003
0
LINE
5
674
100
AcDbEntity
8
0
100
AcDbLine
10
280.72125001490116
20
-41.89500000000001
30
1.6000000000000003
11
293.72125001490122
21
-41.89500000000001
31
1.6000000000000003
0
ARC
5
675
100
AcDbEntity
8
0
100
AcDbCircle
10
241.32700001490122
20
-78.495000000000005
30
1.6000000000000003
40
0.49999999999999822
210
0
220
-0
230
1
100
AcDbArc
50
90
51
180
0
LINE
5
676
100
AcDbEntity
8
0
100
AcDbLine
10
249.2650000149012
20
-92.995000000000005
30
1.6000000000000003
11
244.21500001490116
21
-92.995000000000005
31
1.6000000000000003
0
LINE
5
677
100
AcDbEntity
8
0
100
AcDbLine
10
349.77750001490119
20
-41.89500000000001
30
1.6000000000000003
11
362.77750001490119
21
-41.89500000000001
31
1.6000000000000003
0
LINE
5
678
100
AcDbEntity
8
0
100
AcDbLine
10
289.74625001490119
20
-61.445
30
1.6000000000000003
11
289.74625001490119
21
-74.445000000000007
31
1.6000000000000003
0
LINE
5
679
100
AcDbEntity
8
0
100
AcDbLine
10
246.59625001490122
20
-61.445
30
1.6000000000000003
11
246.59625001490122
21
-74.445000000000007
31
1.6000000000000003
0
LINE
5
680
100
AcDbEntity
8
0
100
AcDbLine
10
141.32125001490118
20
-93.995000000000005
30
1.6000000000000003
11
97.36500001490117
21
-93.995000000000005
31
1.6000000000000003
0
LINE
5
681
100
AcDbEntity
8
0
100
AcDbLine
10
242.62125001490119
20
-55.895000000000003
30
1.6000000000000003
11
255.62125001490116
21
-55.89500000000001
31
1.6000000000000003
0
LINE
5
682
100
AcDbEntity
8
0
100
AcDbLine
10
237.8587500149012
20
-36.844999999999999
30
1.6000000000000003
11
250.85875001490115
21
-36.844999999999999
31
1.6000000000000003
0
ARC
5
683
100
AcDbEntity
8
0
100
AcDbCircle
10
246.09625001490116
20
-74.445000000000007
30
1.6000000000000003
40
0.49999999999999822
210
0
220
0
230
1
100
AcDbArc
50
-90
51
0
0
LINE
5
684
100
AcDbEntity
8
0
100
AcDbLine
10
242.62125001490119
20
-41.89500000000001
30
1.6000000000000003
11
255.62125001490116
21
-41.894999999999989
31
1.6000000000000003
0
LINE
5
685
100
AcDbEntity
8
0
100
AcDbLine
10
318.32125001490118
20
-42.394999999999996
30
1.6000000000000003
11
318.32125001490118
21
-55.395000000000003
31
1.6000000000000003
0
LINE
5
686
100
AcDbEntity
8
0
100
AcDbLine
10
119.89000001490118
20
-41.89500000000001
30
1.6000000000000003
11
97.36500001490117
21
-41.89500000000001
31
1.6000000000000003
0
LINE
5
687
100
AcDbEntity
8
0
100
AcDbLine
10
156.89625001490117
20
-74.945000000000007
30
1.6000000000000003
11
169.89625001490117
21
-74.945000000000007
31
1.6000000000000003
0
LINE
5
688
100
AcDbEntity
8
0
100
AcDbLine
10
124.65250001490118
20
-74.945000000000007
30
1.6000000000000003
11
106.89000001490116
21
-74.945000000000007
31
1.6000000000000003
0
LINE
5
689
100
AcDbEntity
8
0
100
AcDbLine
10
97.36500001490117
20
-55.895000000000003
30
1.6000000000000003
11
119.89000001490118
21
-55.89500000000001
31
1.6000000000000003
0
LINE
5
690
100
AcDbEntity
8
0
100
AcDbLine
10
342.63375001490118
20
-93.994999999999962
30
1.6000000000000003
11
355.63375001490124
21
-93.995000000000005
31
1.6000000000000003
0
LINE
5
691
100
AcDbEntity
8
0
100
AcDbLine
10
340.8395000149012
20
-54.395000000000032
30
1.6000000000000003
11
340.8395000149012
21
-40.395000000000003
31
1.6000000000000003
0
LINE
5
692
100
AcDbEntity
8
0
100
AcDbLine
10
147.37125001490119
20
-41.89500000000001
30
1.6000000000000003
11
160.37125001490119
21
-41.894999999999989
31
1.6000000000000003
0
LINE
5
693
100
AcDbEntity
8
0
100
AcDbLine
10
397.75875001490124
20
-21.32
30
1.6000000000000003
11
397.75875001490124
21
-95.519999999999996
31
1.6000000000000003
0
LINE
5
694
100
AcDbEntity
8
0
100
AcDbLine
10
342.63375001490118
20
-79.995000000000005
30
1.6000000000000003
11
355.63375001490124
21
-79.995000000000033
31
1.6000000000000003
0
LINE
5
695
100
AcDbEntity
8
0
100
AcDbLine
10
237.8587500149012
20
-22.844999999999999
30
1.6000000000000003
11
250.85875001490115
21
-22.844999999999995
31
1.6000000000000003
0
LINE
5
696
100
AcDbEntity
8
0
100
AcDbLine
10
97.36500001490117
20
-79.99499999999999
30
1.6000000000000003
11
141.32125001490118
21
-79.99499999999999
31
1.6000000000000003
0
LINE
5
697
100
AcDbEntity
8
0
100
AcDbLine
10
243.71500001490119
20
-93.995000000000005
30
1.6000000000000003
11
209.28375001490116
21
-93.995000000000005
31
1.6000000000000003
0
LINE
5
698
100
AcDbEntity
8
0
100
AcDbLine
10
218.80875001490119
20
-36.845000000000006
30
1.6000000000000003
11
231.80875001490114
21
-36.844999999999999
31
1.6000000000000003
0
LINE
5
699
100
AcDbEntity
8
0
100
AcDbLine
10
299.27125001490117
20
-42.394999999999996
30
1.6000000000000003
11
299.27125001490117
21
-55.395000000000003
31
1.6000000000000003
0
ARC
5
700
100
AcDbEntity
8
0
100
AcDbCircle
10
188.94625001490118
20
-74.445000000000007
30
1.6000000000000003
40
0.49999999999999822
210
0
220
0
230
1
100
AcDbArc
50
-90
51
0
0
ARC
5
701
100
AcDbEntity
8
0
100
AcDbCircle
10
231.80875001490122
20
-23.345000000000002
30
1.6000000000000003
40
0.49999999999997158
210
0
220
0
230
1
100
AcDbArc
50
0
51
90
0
LINE
5
702
100
AcDbEntity
8
0
100
AcDbLine
10
56.88375001490116
20
-36.844999999999999
30
1.6000000000000003
11
69.883750014901167
21
-36.844999999999999
31
1.6000000000000003
0
LINE
5
703
100
AcDbEntity
8
0
100
AcDbLine
10
223.57125001490118
20
-41.89500000000001
30
1.6000000000000003
11
236.57125001490115
21
-41.894999999999989
31
1.6000000000000003
0
LINE
5
704
100
AcDbEntity
8
0
100
AcDbLine
10
270.69625001490118
20
-61.445
30
1.6000000000000003
11
270.69625001490118
21
-74.444999999999993
31
1.6000000000000003
0
LINE
5
705
100
AcDbEntity
8
0
100
AcDbLine
10
228.7770000149012
20
-79.995000000000005
30
1.6000000000000003
11
240.82700001490116
21
-79.995000000000005
31
1.6000000000000003
0
LINE
5
706
100
AcDbEntity
8
0
100
AcDbLine
10
147.37125001490119
20
-55.89500000000001
30
1.6000000000000003
11
160.37125001490119
21
-55.895000000000003
31
1.6000000000000003
0
LINE
5
707
100
AcDbEntity
8
0
100
AcDbLine
10
332.32125001490118
20
-42.394999999999996
30
1.6000000000000003
11
332.32125001490118
21
-55.395000000000003
31
1.6000000000000003
0
LINE
5
708
100
AcDbEntity
8
0
100
AcDbLine
10
156.89625001490117
20
-60.945
30
1.6000000000000003
11
169.89625001490117
21
-60.944999999999993
31
1.6000000000000003
0
LINE
5
709
100
AcDbEntity
8
0
100
AcDbLine
10
189.44625001490118
20
-61.445000000000007
30
1.6000000000000003
11
189.44625001490118
21
-74.445000000000007
31
1.6000000000000003
0
LINE
5
710
100
AcDbEntity
8
0
100
AcDbLine
10
284.69625001490112
20
-61.445000000000007
30
1.6000000000000003
11
284.69625001490112
21
-74.445000000000007
31
1.6000000000000003
0
LINE
5
711
100
AcDbEntity
8
0
100
AcDbLine
10
218.80875001490119
20
-22.844999999999999
30
1.6000000000000003
11
231.80875001490122
21
-22.845000000000031
31
1.6000000000000003
0
LINE
5
712
100
AcDbEntity
8
0
100
AcDbLine
10
56.88375001490116
20
-55.89500000000001
30
1.6000000000000003
11
69.883750014901167
21
-55.89500000000001
31
1.6000000000000003
0
LINE
5
713
100
AcDbEntity
8
0
100
AcDbLine
10
347.8395000149012
20
-54.39500000000001
30
1.6000000000000003
11
347.8395000149012
21
-40.394999999999968
31
1.6000000000000003
0
LINE
5
714
100
AcDbEntity
8
0
100
AcDbLine
10
62.296750014901164
20
-79.995000000000005
30
1.6000000000000003
11
50.246750014901167
21
-79.995000000000005
31
1.6000000000000003
0
LINE
5
715
100
AcDbEntity
8
0
100
AcDbLine
10
251.64625001490117
20
-61.445
30
1.6000000000000003
11
251.64625001490117
21
-74.444999999999993
31
1.6000000000000003
0
LINE
5
716
100
AcDbEntity
8
0
100
AcDbLine
10
213.25875001490118
20
-23.345000000000002
30
1.6000000000000003
11
213.25875001490118
21
-36.344999999999999
31
1.6000000000000003
0
LINE
5
717
100
AcDbEntity
8
0
100
AcDbLine
10
162.75250001490119
20
-93.995000000000005
30
1.6000000000000003
11
144.99000001490114
21
-93.995000000000005
31
1.6000000000000003
0
LINE
5
718
100
AcDbEntity
8
0
100
AcDbLine
10
223.57125001490118
20
-55.894999999999975
30
1.6000000000000003
11
236.57125001490115
21
-55.89500000000001
31
1.6000000000000003
0
ARC
5
719
100
AcDbEntity
8
0
100
AcDbCircle
10
246.09625001490116
20
-61.445
30
1.6000000000000003
40
0.50000000000004263
210
0
220
0
230
1
100
AcDbArc
50
0
51
90
0
LINE
5
720
100
AcDbEntity
8
0
100
AcDbLine
10
161.63375001490118
20
-77.995000000000005
30
1.6000000000000003
11
155.63375001490118
21
-77.995000000000005
31
1.6000000000000003
0
LINE
5
721
100
AcDbEntity
8
0
100
AcDbLine
10
204.52125001490117
20
-41.89500000000001
30
1.6000000000000003
11
217.52125001490114
21
-41.89500000000001
31
1.6000000000000003
0
LINE
5
722
100
AcDbEntity
8
0
100
AcDbLine
10
313.27125001490117
20
-42.394999999999982
30
1.6000000000000003
11
313.27125001490117
21
-55.395000000000003
31
1.6000000000000003
0
LINE
5
723
100
AcDbEntity
8
0
100
AcDbLine
10
237.35875001490115
20
-23.345000000000002
30
1.6000000000000003
11
237.35875001490115
21
-36.344999999999999
31
1.6000000000000003
0
LINE
5
724
100
AcDbEntity
8
0
100
AcDbLine
10
56.88375001490116
20
-22.844999999999999
30
1.6000000000000003
11
69.883750014901167
21
-22.844999999999999
31
1.6000000000000003
0
LINE
5
725
100
AcDbEntity
8
0
100
AcDbLine
10
194.49625001490119
20
-61.445
30
1.6000000000000003
11
194.49625001490119
21
-74.445000000000007
31
1.6000000000000003
0
LINE
5
726
100
AcDbEntity
8
0
100
AcDbLine
10
349.27750001490119
20
-42.394999999999996
30
1.6000000000000003
11
349.27750001490119
21
-55.395000000000003
31
1.6000000000000003
0
LINE
5
727
100
AcDbEntity
8
0
100
AcDbLine
10
285.4837500149012
20
-79.995000000000005
30
1.6000000000000003
11
336.58375001490123
21
-79.995000000000033
31
1.6000000000000003
0
LINE
5
728
100
AcDbEntity
8
0
100
AcDbLine
10
204.52800001490118
20
-92.995000000000005
30
1.6000000000000003
11
196.59000001490119
21
-92.995000000000005
31
1.6000000000000003
0
LINE
5
729
100
AcDbEntity
8
0
100
AcDbLine
10
99.746250014901165
20
-36.844999999999999
30
1.6000000000000003
11
117.50875001490117
21
-36.844999999999999
31
1.6000000000000003
0
LINE
5
730
100
AcDbEntity
8
0
100
AcDbLine
10
280.72125001490116
20
-55.89500000000001
30
1.6000000000000003
11
293.72125001490122
21
-55.89500000000001
31
1.6000000000000003
0
ARC
5
731
100
AcDbEntity
8
0
100
AcDbCircle
10
243.71500001490119
20
-93.49499999999999
30
1.6000000000000003
40
0.50000000000000711
210
0
220
0
230
1
100
AcDbArc
50
-90
51
0
0
LINE
5
732
100
AcDbEntity
8
0
100
AcDbLine
10
244.21500001490116
20
-92.995000000000005
30
1.6000000000000003
11
244.21500001490116
21
-93.49499999999999
31
1.6000000000000003
0
LINE
5
733
100
AcDbEntity
8
0
100
AcDbLine
10
240.82700001490116
20
-79.995000000000005
30
1.6000000000000003
11
240.82700001490116
21
-78.495000000000005
31
1.6000000000000003
0
LINE
5
734
100
AcDbEntity
8
0
100
AcDbLine
10
232.59625001490122
20
-61.445
30
1.6000000000000003
11
232.59625001490122
21
-74.445000000000007
31
1.6000000000000003
0
LINE
5
735
100
AcDbEntity
8
0
100
AcDbLine
10
194.99625001490116
20
-74.945000000000007
30
1.6000000000000003
11
207.99625001490119
21
-74.945000000000007
31
1.6000000000000003
0
LINE
5
736
100
AcDbEntity
8
0
100
AcDbLine
10
233.09625001490119
20
-60.945
30
1.6000000000000003
11
246.09625001490116
21
-60.945
31
1.6000000000000003
0
LINE
5
737
100
AcDbEntity
8
0
100
AcDbLine
10
199.75875001490118
20
-36.845000000000006
30
1.6000000000000003
11
212.75875001490121
21
-36.844999999999999
31
1.6000000000000003
0
CIRCLE
5
738
100
AcDbEntity
8
0
100
AcDbCircle
10
91.958749999999995
20
-39.369999999999997
30
1.6000000000000003
40
2
210
0
220
0
230
1
0
CIRCLE
5
739
100
AcDbEntity
8
0
100
AcDbCircle
10
91.958749999999995
20
-77.469999999999999
30
1.6000000000000003
40
2
210
0
220
0
230
1
0
CIRCLE
5
740
100
AcDbEntity
8
0
100
AcDbCircle
10
211.02125000000001
20
-58.420000000000002
30
1.6000000000000003
40
1.999999999999996
210
0
220
0
230
1
0
CIRCLE
5
741
100
AcDbEntity
8
0
100
AcDbCircle
10
320.55875000000003
20
-39.369999999999997
30
1.6000000000000003
40
2.0000000000000075
210
0
220
0
230
1
0
CIRCLE
5
742
100
AcDbEntity
8
0
100
AcDbCircle
10
320.55875000000003
20
-77.469999999999999
30
1.6000000000000003
40
2.0000000000000284
210
0
220
0
230
1
0
LINE
5
743
100
AcDbEntity
8
0
100
AcDbLine
10
75.433750014901165
20
-93.49499999999999
30
1.6000000000000003
11
75.433750014901165
21
-92.908000000000015
31
1.6000000000000003
0
LINE
5
744
100
AcDbEntity
8
0
100
AcDbLine
10
38.920750014901159
20
-77.995000000000005
30
1.6000000000000003
11
49.746750014901181
21
-77.99499999999999
31
1.6000000000000003
0
LINE
5
745
100
AcDbEntity
8
0
100
AcDbLine
10
180.6520000149012
20
-77.995000000000005
30
1.6000000000000003
11
169.92750001490117
21
-77.995000000000005
31
1.599999999999999
0
ENDSEC
0
SECTION
2
OBJECTS
0
DICTIONARY
5
C
100
AcDbDictionary
3
ACAD_GROUP
350
D
3
ACAD_MLINESTYLE
350
17
0
DICTIONARY
5
D
100
AcDbDictionary
0
DICTIONARY
5
1A
330
C
100
AcDbDictionary
0
DICTIONARY
5
17
100
AcDbDictionary
0
ENDSEC
0
EOF
